<?xml version="1.0" encoding="utf-8" standalone="no"?>
<!DOCTYPE svg PUBLIC "-//W3C//DTD SVG 1.1//EN"
  "http://www.w3.org/Graphics/SVG/1.1/DTD/svg11.dtd">
<!-- Created with matplotlib (https://matplotlib.org/) -->
<svg height="360pt" version="1.1" viewBox="0 0 1152 360" width="1152pt" xmlns="http://www.w3.org/2000/svg" xmlns:xlink="http://www.w3.org/1999/xlink">
 <defs>
  <style type="text/css">
*{stroke-linecap:butt;stroke-linejoin:round;}
  </style>
 </defs>
 <g id="figure_1">
  <g id="patch_1">
   <path d="M 0 360 
L 1152 360 
L 1152 0 
L 0 0 
z
" style="fill:#ffffff;"/>
  </g>
  <g id="axes_1">
   <g id="patch_2">
    <path d="M 30.425 332.2 
L 365.4625 332.2 
L 365.4625 26.8 
L 30.425 26.8 
z
" style="fill:#ffffff;"/>
   </g>
   <g id="matplotlib.axis_1">
    <g id="xtick_1">
     <g id="line2d_1">
      <defs>
       <path d="M 0 0 
L 0 3.5 
" id="m9ca19440f4" style="stroke:#000000;stroke-width:0.8;"/>
      </defs>
      <g>
       <use style="stroke:#000000;stroke-width:0.8;" x="30.425" xlink:href="#m9ca19440f4" y="332.2"/>
      </g>
     </g>
     <g id="text_1">
      <!-- 1900 -->
      <defs>
       <path d="M 12.40625 8.296875 
L 28.515625 8.296875 
L 28.515625 63.921875 
L 10.984375 60.40625 
L 10.984375 69.390625 
L 28.421875 72.90625 
L 38.28125 72.90625 
L 38.28125 8.296875 
L 54.390625 8.296875 
L 54.390625 0 
L 12.40625 0 
z
" id="DejaVuSans-49"/>
       <path d="M 10.984375 1.515625 
L 10.984375 10.5 
Q 14.703125 8.734375 18.5 7.8125 
Q 22.3125 6.890625 25.984375 6.890625 
Q 35.75 6.890625 40.890625 13.453125 
Q 46.046875 20.015625 46.78125 33.40625 
Q 43.953125 29.203125 39.59375 26.953125 
Q 35.25 24.703125 29.984375 24.703125 
Q 19.046875 24.703125 12.671875 31.3125 
Q 6.296875 37.9375 6.296875 49.421875 
Q 6.296875 60.640625 12.9375 67.421875 
Q 19.578125 74.21875 30.609375 74.21875 
Q 43.265625 74.21875 49.921875 64.515625 
Q 56.59375 54.828125 56.59375 36.375 
Q 56.59375 19.140625 48.40625 8.859375 
Q 40.234375 -1.421875 26.421875 -1.421875 
Q 22.703125 -1.421875 18.890625 -0.6875 
Q 15.09375 0.046875 10.984375 1.515625 
z
M 30.609375 32.421875 
Q 37.25 32.421875 41.125 36.953125 
Q 45.015625 41.5 45.015625 49.421875 
Q 45.015625 57.28125 41.125 61.84375 
Q 37.25 66.40625 30.609375 66.40625 
Q 23.96875 66.40625 20.09375 61.84375 
Q 16.21875 57.28125 16.21875 49.421875 
Q 16.21875 41.5 20.09375 36.953125 
Q 23.96875 32.421875 30.609375 32.421875 
z
" id="DejaVuSans-57"/>
       <path d="M 31.78125 66.40625 
Q 24.171875 66.40625 20.328125 58.90625 
Q 16.5 51.421875 16.5 36.375 
Q 16.5 21.390625 20.328125 13.890625 
Q 24.171875 6.390625 31.78125 6.390625 
Q 39.453125 6.390625 43.28125 13.890625 
Q 47.125 21.390625 47.125 36.375 
Q 47.125 51.421875 43.28125 58.90625 
Q 39.453125 66.40625 31.78125 66.40625 
z
M 31.78125 74.21875 
Q 44.046875 74.21875 50.515625 64.515625 
Q 56.984375 54.828125 56.984375 36.375 
Q 56.984375 17.96875 50.515625 8.265625 
Q 44.046875 -1.421875 31.78125 -1.421875 
Q 19.53125 -1.421875 13.0625 8.265625 
Q 6.59375 17.96875 6.59375 36.375 
Q 6.59375 54.828125 13.0625 64.515625 
Q 19.53125 74.21875 31.78125 74.21875 
z
" id="DejaVuSans-48"/>
      </defs>
      <g transform="translate(17.7 346.798438)scale(0.1 -0.1)">
       <use xlink:href="#DejaVuSans-49"/>
       <use x="63.623047" xlink:href="#DejaVuSans-57"/>
       <use x="127.246094" xlink:href="#DejaVuSans-48"/>
       <use x="190.869141" xlink:href="#DejaVuSans-48"/>
      </g>
     </g>
    </g>
    <g id="xtick_2">
     <g id="line2d_2">
      <g>
       <use style="stroke:#000000;stroke-width:0.8;" x="97.4325" xlink:href="#m9ca19440f4" y="332.2"/>
      </g>
     </g>
     <g id="text_2">
      <!-- 1950 -->
      <defs>
       <path d="M 10.796875 72.90625 
L 49.515625 72.90625 
L 49.515625 64.59375 
L 19.828125 64.59375 
L 19.828125 46.734375 
Q 21.96875 47.46875 24.109375 47.828125 
Q 26.265625 48.1875 28.421875 48.1875 
Q 40.625 48.1875 47.75 41.5 
Q 54.890625 34.8125 54.890625 23.390625 
Q 54.890625 11.625 47.5625 5.09375 
Q 40.234375 -1.421875 26.90625 -1.421875 
Q 22.3125 -1.421875 17.546875 -0.640625 
Q 12.796875 0.140625 7.71875 1.703125 
L 7.71875 11.625 
Q 12.109375 9.234375 16.796875 8.0625 
Q 21.484375 6.890625 26.703125 6.890625 
Q 35.15625 6.890625 40.078125 11.328125 
Q 45.015625 15.765625 45.015625 23.390625 
Q 45.015625 31 40.078125 35.4375 
Q 35.15625 39.890625 26.703125 39.890625 
Q 22.75 39.890625 18.8125 39.015625 
Q 14.890625 38.140625 10.796875 36.28125 
z
" id="DejaVuSans-53"/>
      </defs>
      <g transform="translate(84.7075 346.798438)scale(0.1 -0.1)">
       <use xlink:href="#DejaVuSans-49"/>
       <use x="63.623047" xlink:href="#DejaVuSans-57"/>
       <use x="127.246094" xlink:href="#DejaVuSans-53"/>
       <use x="190.869141" xlink:href="#DejaVuSans-48"/>
      </g>
     </g>
    </g>
    <g id="xtick_3">
     <g id="line2d_3">
      <g>
       <use style="stroke:#000000;stroke-width:0.8;" x="164.44" xlink:href="#m9ca19440f4" y="332.2"/>
      </g>
     </g>
     <g id="text_3">
      <!-- 2000 -->
      <defs>
       <path d="M 19.1875 8.296875 
L 53.609375 8.296875 
L 53.609375 0 
L 7.328125 0 
L 7.328125 8.296875 
Q 12.9375 14.109375 22.625 23.890625 
Q 32.328125 33.6875 34.8125 36.53125 
Q 39.546875 41.84375 41.421875 45.53125 
Q 43.3125 49.21875 43.3125 52.78125 
Q 43.3125 58.59375 39.234375 62.25 
Q 35.15625 65.921875 28.609375 65.921875 
Q 23.96875 65.921875 18.8125 64.3125 
Q 13.671875 62.703125 7.8125 59.421875 
L 7.8125 69.390625 
Q 13.765625 71.78125 18.9375 73 
Q 24.125 74.21875 28.421875 74.21875 
Q 39.75 74.21875 46.484375 68.546875 
Q 53.21875 62.890625 53.21875 53.421875 
Q 53.21875 48.921875 51.53125 44.890625 
Q 49.859375 40.875 45.40625 35.40625 
Q 44.1875 33.984375 37.640625 27.21875 
Q 31.109375 20.453125 19.1875 8.296875 
z
" id="DejaVuSans-50"/>
      </defs>
      <g transform="translate(151.715 346.798438)scale(0.1 -0.1)">
       <use xlink:href="#DejaVuSans-50"/>
       <use x="63.623047" xlink:href="#DejaVuSans-48"/>
       <use x="127.246094" xlink:href="#DejaVuSans-48"/>
       <use x="190.869141" xlink:href="#DejaVuSans-48"/>
      </g>
     </g>
    </g>
    <g id="xtick_4">
     <g id="line2d_4">
      <g>
       <use style="stroke:#000000;stroke-width:0.8;" x="231.4475" xlink:href="#m9ca19440f4" y="332.2"/>
      </g>
     </g>
     <g id="text_4">
      <!-- 2050 -->
      <g transform="translate(218.7225 346.798438)scale(0.1 -0.1)">
       <use xlink:href="#DejaVuSans-50"/>
       <use x="63.623047" xlink:href="#DejaVuSans-48"/>
       <use x="127.246094" xlink:href="#DejaVuSans-53"/>
       <use x="190.869141" xlink:href="#DejaVuSans-48"/>
      </g>
     </g>
    </g>
    <g id="xtick_5">
     <g id="line2d_5">
      <g>
       <use style="stroke:#000000;stroke-width:0.8;" x="298.455" xlink:href="#m9ca19440f4" y="332.2"/>
      </g>
     </g>
     <g id="text_5">
      <!-- 2100 -->
      <g transform="translate(285.73 346.798438)scale(0.1 -0.1)">
       <use xlink:href="#DejaVuSans-50"/>
       <use x="63.623047" xlink:href="#DejaVuSans-49"/>
       <use x="127.246094" xlink:href="#DejaVuSans-48"/>
       <use x="190.869141" xlink:href="#DejaVuSans-48"/>
      </g>
     </g>
    </g>
    <g id="xtick_6">
     <g id="line2d_6">
      <g>
       <use style="stroke:#000000;stroke-width:0.8;" x="365.4625" xlink:href="#m9ca19440f4" y="332.2"/>
      </g>
     </g>
     <g id="text_6">
      <!-- 2150 -->
      <g transform="translate(352.7375 346.798438)scale(0.1 -0.1)">
       <use xlink:href="#DejaVuSans-50"/>
       <use x="63.623047" xlink:href="#DejaVuSans-49"/>
       <use x="127.246094" xlink:href="#DejaVuSans-53"/>
       <use x="190.869141" xlink:href="#DejaVuSans-48"/>
      </g>
     </g>
    </g>
   </g>
   <g id="matplotlib.axis_2">
    <g id="ytick_1">
     <g id="line2d_7">
      <defs>
       <path d="M 0 0 
L -3.5 0 
" id="mec84fd8ef0" style="stroke:#000000;stroke-width:0.8;"/>
      </defs>
      <g>
       <use style="stroke:#000000;stroke-width:0.8;" x="30.425" xlink:href="#mec84fd8ef0" y="318.318182"/>
      </g>
     </g>
     <g id="text_7">
      <!-- 0 -->
      <g transform="translate(17.0625 322.117401)scale(0.1 -0.1)">
       <use xlink:href="#DejaVuSans-48"/>
      </g>
     </g>
    </g>
    <g id="ytick_2">
     <g id="line2d_8">
      <g>
       <use style="stroke:#000000;stroke-width:0.8;" x="30.425" xlink:href="#mec84fd8ef0" y="261.377051"/>
      </g>
     </g>
     <g id="text_8">
      <!-- 2 -->
      <g transform="translate(17.0625 265.176269)scale(0.1 -0.1)">
       <use xlink:href="#DejaVuSans-50"/>
      </g>
     </g>
    </g>
    <g id="ytick_3">
     <g id="line2d_9">
      <g>
       <use style="stroke:#000000;stroke-width:0.8;" x="30.425" xlink:href="#mec84fd8ef0" y="204.435919"/>
      </g>
     </g>
     <g id="text_9">
      <!-- 4 -->
      <defs>
       <path d="M 37.796875 64.3125 
L 12.890625 25.390625 
L 37.796875 25.390625 
z
M 35.203125 72.90625 
L 47.609375 72.90625 
L 47.609375 25.390625 
L 58.015625 25.390625 
L 58.015625 17.1875 
L 47.609375 17.1875 
L 47.609375 0 
L 37.796875 0 
L 37.796875 17.1875 
L 4.890625 17.1875 
L 4.890625 26.703125 
z
" id="DejaVuSans-52"/>
      </defs>
      <g transform="translate(17.0625 208.235138)scale(0.1 -0.1)">
       <use xlink:href="#DejaVuSans-52"/>
      </g>
     </g>
    </g>
    <g id="ytick_4">
     <g id="line2d_10">
      <g>
       <use style="stroke:#000000;stroke-width:0.8;" x="30.425" xlink:href="#mec84fd8ef0" y="147.494788"/>
      </g>
     </g>
     <g id="text_10">
      <!-- 6 -->
      <defs>
       <path d="M 33.015625 40.375 
Q 26.375 40.375 22.484375 35.828125 
Q 18.609375 31.296875 18.609375 23.390625 
Q 18.609375 15.53125 22.484375 10.953125 
Q 26.375 6.390625 33.015625 6.390625 
Q 39.65625 6.390625 43.53125 10.953125 
Q 47.40625 15.53125 47.40625 23.390625 
Q 47.40625 31.296875 43.53125 35.828125 
Q 39.65625 40.375 33.015625 40.375 
z
M 52.59375 71.296875 
L 52.59375 62.3125 
Q 48.875 64.0625 45.09375 64.984375 
Q 41.3125 65.921875 37.59375 65.921875 
Q 27.828125 65.921875 22.671875 59.328125 
Q 17.53125 52.734375 16.796875 39.40625 
Q 19.671875 43.65625 24.015625 45.921875 
Q 28.375 48.1875 33.59375 48.1875 
Q 44.578125 48.1875 50.953125 41.515625 
Q 57.328125 34.859375 57.328125 23.390625 
Q 57.328125 12.15625 50.6875 5.359375 
Q 44.046875 -1.421875 33.015625 -1.421875 
Q 20.359375 -1.421875 13.671875 8.265625 
Q 6.984375 17.96875 6.984375 36.375 
Q 6.984375 53.65625 15.1875 63.9375 
Q 23.390625 74.21875 37.203125 74.21875 
Q 40.921875 74.21875 44.703125 73.484375 
Q 48.484375 72.75 52.59375 71.296875 
z
" id="DejaVuSans-54"/>
      </defs>
      <g transform="translate(17.0625 151.294007)scale(0.1 -0.1)">
       <use xlink:href="#DejaVuSans-54"/>
      </g>
     </g>
    </g>
    <g id="ytick_5">
     <g id="line2d_11">
      <g>
       <use style="stroke:#000000;stroke-width:0.8;" x="30.425" xlink:href="#mec84fd8ef0" y="90.553657"/>
      </g>
     </g>
     <g id="text_11">
      <!-- 8 -->
      <defs>
       <path d="M 31.78125 34.625 
Q 24.75 34.625 20.71875 30.859375 
Q 16.703125 27.09375 16.703125 20.515625 
Q 16.703125 13.921875 20.71875 10.15625 
Q 24.75 6.390625 31.78125 6.390625 
Q 38.8125 6.390625 42.859375 10.171875 
Q 46.921875 13.96875 46.921875 20.515625 
Q 46.921875 27.09375 42.890625 30.859375 
Q 38.875 34.625 31.78125 34.625 
z
M 21.921875 38.8125 
Q 15.578125 40.375 12.03125 44.71875 
Q 8.5 49.078125 8.5 55.328125 
Q 8.5 64.0625 14.71875 69.140625 
Q 20.953125 74.21875 31.78125 74.21875 
Q 42.671875 74.21875 48.875 69.140625 
Q 55.078125 64.0625 55.078125 55.328125 
Q 55.078125 49.078125 51.53125 44.71875 
Q 48 40.375 41.703125 38.8125 
Q 48.828125 37.15625 52.796875 32.3125 
Q 56.78125 27.484375 56.78125 20.515625 
Q 56.78125 9.90625 50.3125 4.234375 
Q 43.84375 -1.421875 31.78125 -1.421875 
Q 19.734375 -1.421875 13.25 4.234375 
Q 6.78125 9.90625 6.78125 20.515625 
Q 6.78125 27.484375 10.78125 32.3125 
Q 14.796875 37.15625 21.921875 38.8125 
z
M 18.3125 54.390625 
Q 18.3125 48.734375 21.84375 45.5625 
Q 25.390625 42.390625 31.78125 42.390625 
Q 38.140625 42.390625 41.71875 45.5625 
Q 45.3125 48.734375 45.3125 54.390625 
Q 45.3125 60.0625 41.71875 63.234375 
Q 38.140625 66.40625 31.78125 66.40625 
Q 25.390625 66.40625 21.84375 63.234375 
Q 18.3125 60.0625 18.3125 54.390625 
z
" id="DejaVuSans-56"/>
      </defs>
      <g transform="translate(17.0625 94.352876)scale(0.1 -0.1)">
       <use xlink:href="#DejaVuSans-56"/>
      </g>
     </g>
    </g>
    <g id="ytick_6">
     <g id="line2d_12">
      <g>
       <use style="stroke:#000000;stroke-width:0.8;" x="30.425" xlink:href="#mec84fd8ef0" y="33.612526"/>
      </g>
     </g>
     <g id="text_12">
      <!-- 10 -->
      <g transform="translate(10.7 37.411745)scale(0.1 -0.1)">
       <use xlink:href="#DejaVuSans-49"/>
       <use x="63.623047" xlink:href="#DejaVuSans-48"/>
      </g>
     </g>
    </g>
   </g>
   <g id="line2d_13">
    <path clip-path="url(#p254cf525f9)" d="M 30.425 308.936534 
L 37.12575 308.004228 
L 43.8265 306.950566 
L 50.52725 306.092302 
L 62.5886 304.526128 
L 78.6704 301.940079 
L 82.69085 301.670191 
L 86.7113 301.670191 
L 92.0719 301.756017 
L 96.09235 301.572158 
L 98.77265 301.278406 
L 102.7931 300.631534 
L 109.49385 299.139911 
L 114.85445 297.74649 
L 117.53475 297.148929 
L 122.89535 295.130679 
L 126.9158 293.61117 
L 128.25595 292.894337 
L 132.2764 291.472079 
L 136.29685 289.282385 
L 137.637 288.448833 
L 138.97715 287.830306 
L 140.3173 287.350162 
L 144.33775 285.340723 
L 145.6779 284.66804 
L 149.69835 282.165094 
L 152.37865 281.063887 
L 155.05895 280.301997 
L 156.3991 279.719887 
L 160.41955 277.569315 
L 163.09985 275.796316 
L 165.78015 274.488641 
L 181.86195 264.097044 
L 192.58315 257.078481 
L 196.6036 254.72279 
L 200.62405 252.685366 
L 204.6445 250.966134 
L 207.3248 250.000152 
L 211.34525 248.844857 
L 215.3657 247.969532 
L 219.38615 247.397258 
L 224.74675 246.965549 
L 231.4475 246.667305 
L 236.8081 246.680789 
L 244.849 247.033989 
L 250.2096 247.478247 
L 255.5702 248.155331 
L 264.95125 249.579853 
L 283.71335 252.512443 
L 293.0944 253.856784 
L 307.83605 255.802506 
L 352.061 261.448854 
L 365.4625 262.911825 
L 365.4625 262.911825 
" style="fill:none;stroke:#0000ff;stroke-linecap:square;stroke-width:1.5;"/>
   </g>
   <g id="line2d_14">
    <path clip-path="url(#p254cf525f9)" d="M 30.425 308.319696 
L 37.12575 307.382432 
L 43.8265 306.323696 
L 50.52725 305.461739 
L 62.5886 303.889918 
L 78.6704 301.297455 
L 82.69085 301.027099 
L 86.7113 301.027099 
L 92.0719 301.113063 
L 96.09235 300.928918 
L 98.77265 300.634761 
L 102.7931 299.987143 
L 109.49385 298.494677 
L 114.85445 297.101535 
L 117.53475 296.504559 
L 122.89535 294.489607 
L 126.9158 292.974216 
L 128.25595 292.259548 
L 132.2764 290.842785 
L 136.29685 288.664194 
L 137.637 287.835462 
L 138.97715 287.220441 
L 140.3173 286.743562 
L 144.33775 284.749073 
L 145.6779 284.081965 
L 149.69835 281.601943 
L 152.37865 280.511933 
L 155.05895 279.75836 
L 156.3991 279.183061 
L 160.41955 277.058846 
L 163.09985 275.309523 
L 165.78015 274.020803 
L 183.2021 262.945577 
L 192.58315 256.970986 
L 196.6036 254.679999 
L 200.62405 252.701765 
L 204.6445 251.034813 
L 207.3248 250.099148 
L 211.34525 248.981012 
L 215.3657 248.134505 
L 219.38615 247.581376 
L 224.74675 247.16428 
L 231.4475 246.876217 
L 236.8081 246.88924 
L 244.849 247.230394 
L 250.2096 247.659636 
L 256.91035 248.496161 
L 266.2914 249.902547 
L 277.0126 251.519695 
L 298.455 254.573084 
L 317.2171 256.933926 
L 329.27845 258.48675 
L 348.04055 260.791719 
L 365.4625 262.660031 
L 365.4625 262.660031 
" style="fill:none;stroke:#0000ff;stroke-dasharray:1.5,2.475;stroke-dashoffset:0;stroke-width:1.5;"/>
   </g>
   <g id="line2d_15">
    <path clip-path="url(#p254cf525f9)" d="M 30.425 308.936534 
L 37.12575 308.004228 
L 43.8265 306.950566 
L 50.52725 306.092302 
L 62.5886 304.526128 
L 78.6704 301.940079 
L 82.69085 301.670191 
L 86.7113 301.670191 
L 92.0719 301.756017 
L 96.09235 301.572158 
L 98.77265 301.278406 
L 102.7931 300.631534 
L 109.49385 299.139911 
L 114.85445 297.74649 
L 117.53475 297.148929 
L 122.89535 295.130679 
L 126.9158 293.61117 
L 128.25595 292.894337 
L 132.2764 291.472079 
L 136.29685 289.282385 
L 137.637 288.448833 
L 138.97715 287.830306 
L 140.3173 287.350162 
L 144.33775 285.340723 
L 145.6779 284.66804 
L 149.69835 282.165094 
L 152.37865 281.063887 
L 155.05895 280.301997 
L 156.3991 279.719887 
L 160.41955 277.569315 
L 163.09985 275.796316 
L 165.78015 274.488641 
L 200.62405 252.154899 
L 223.4066 236.773132 
L 232.78765 230.853675 
L 236.8081 228.521156 
L 242.1687 225.765529 
L 247.5293 223.302103 
L 251.54975 221.745663 
L 255.5702 220.44667 
L 259.59065 219.327309 
L 263.6111 218.455387 
L 267.63155 217.8911 
L 271.652 217.588387 
L 279.6929 217.178322 
L 287.7338 216.550449 
L 310.51635 214.295167 
L 321.23755 213.940546 
L 327.9383 213.925947 
L 365.4625 214.025337 
L 365.4625 214.025337 
" style="fill:none;stroke:#daa520;stroke-linecap:square;stroke-width:1.5;"/>
   </g>
   <g id="line2d_16">
    <path clip-path="url(#p254cf525f9)" d="M 30.425 308.319696 
L 37.12575 307.382432 
L 43.8265 306.323696 
L 50.52725 305.461739 
L 62.5886 303.889918 
L 78.6704 301.297455 
L 82.69085 301.027099 
L 86.7113 301.027099 
L 92.0719 301.113063 
L 96.09235 300.928918 
L 98.77265 300.634761 
L 102.7931 299.987143 
L 109.49385 298.494677 
L 114.85445 297.101535 
L 117.53475 296.504559 
L 122.89535 294.489607 
L 126.9158 292.974216 
L 128.25595 292.259548 
L 132.2764 290.842785 
L 136.29685 288.664194 
L 137.637 287.835462 
L 138.97715 287.220441 
L 140.3173 286.743562 
L 144.33775 284.749073 
L 145.6779 284.081965 
L 149.69835 281.601943 
L 152.37865 280.511933 
L 155.05895 279.75836 
L 156.3991 279.183061 
L 160.41955 277.058846 
L 163.09985 275.309523 
L 165.78015 274.020803 
L 188.5627 259.823176 
L 200.62405 252.187563 
L 222.06645 238.187331 
L 231.4475 232.489055 
L 235.46795 230.189767 
L 239.4884 228.132515 
L 244.849 225.648874 
L 248.86945 224.001681 
L 252.8899 222.617214 
L 258.2505 221.096473 
L 262.27095 220.182223 
L 266.2914 219.552099 
L 270.31185 219.195565 
L 287.7338 218.144497 
L 310.51635 216.022714 
L 321.23755 215.689477 
L 327.9383 215.67576 
L 365.4625 215.769143 
L 365.4625 215.769143 
" style="fill:none;stroke:#daa520;stroke-dasharray:1.5,2.475;stroke-dashoffset:0;stroke-width:1.5;"/>
   </g>
   <g id="line2d_17">
    <path clip-path="url(#p254cf525f9)" d="M 30.425 308.936534 
L 37.12575 308.004228 
L 43.8265 306.950566 
L 50.52725 306.092302 
L 62.5886 304.526128 
L 78.6704 301.940079 
L 82.69085 301.670191 
L 86.7113 301.670191 
L 92.0719 301.756017 
L 96.09235 301.572158 
L 98.77265 301.278406 
L 102.7931 300.631534 
L 109.49385 299.139911 
L 114.85445 297.74649 
L 117.53475 297.148929 
L 122.89535 295.130679 
L 126.9158 293.61117 
L 128.25595 292.894337 
L 132.2764 291.472079 
L 136.29685 289.282385 
L 137.637 288.448833 
L 138.97715 287.830306 
L 140.3173 287.350162 
L 144.33775 285.340723 
L 145.6779 284.66804 
L 149.69835 282.165094 
L 152.37865 281.063887 
L 155.05895 280.301997 
L 156.3991 279.719887 
L 160.41955 277.569315 
L 163.09985 275.796316 
L 165.78015 274.488641 
L 179.18165 266.055001 
L 187.22255 261.24405 
L 193.9233 257.497145 
L 211.34525 247.966768 
L 216.70585 244.688884 
L 223.4066 240.341751 
L 228.7672 236.593023 
L 235.46795 231.555855 
L 240.82855 227.305872 
L 246.18915 222.782576 
L 254.23005 215.697572 
L 259.59065 210.716632 
L 275.67245 195.509777 
L 279.6929 192.110927 
L 283.71335 189.087251 
L 289.07395 185.441648 
L 295.7747 181.088725 
L 302.47545 176.988448 
L 306.4959 174.724882 
L 310.51635 172.672569 
L 315.87695 170.240329 
L 321.23755 168.0472 
L 325.258 166.603138 
L 330.6186 164.941738 
L 335.9792 163.481174 
L 341.3398 162.294433 
L 348.04055 161.136607 
L 353.40115 160.441513 
L 358.76175 160.025573 
L 364.12235 159.785818 
L 365.4625 159.768272 
L 365.4625 159.768272 
" style="fill:none;stroke:#808080;stroke-linecap:square;stroke-width:1.5;"/>
   </g>
   <g id="line2d_18">
    <path clip-path="url(#p254cf525f9)" d="M 30.425 308.319696 
L 37.12575 307.382432 
L 43.8265 306.323696 
L 50.52725 305.461739 
L 62.5886 303.889918 
L 78.6704 301.297455 
L 82.69085 301.027099 
L 86.7113 301.027099 
L 92.0719 301.113063 
L 96.09235 300.928918 
L 98.77265 300.634761 
L 102.7931 299.987143 
L 109.49385 298.494677 
L 114.85445 297.101535 
L 117.53475 296.504559 
L 122.89535 294.489607 
L 126.9158 292.974216 
L 128.25595 292.259548 
L 132.2764 290.842785 
L 136.29685 288.664194 
L 137.637 287.835462 
L 138.97715 287.220441 
L 140.3173 286.743562 
L 144.33775 284.749073 
L 145.6779 284.081965 
L 149.69835 281.601943 
L 152.37865 280.511933 
L 155.05895 279.75836 
L 156.3991 279.183061 
L 160.41955 277.058846 
L 163.09985 275.309523 
L 165.78015 274.020803 
L 177.8415 266.554395 
L 184.54225 262.566673 
L 191.243 258.80812 
L 205.98465 251.017719 
L 211.34525 248.132259 
L 216.70585 244.967585 
L 223.4066 240.783026 
L 228.7672 237.186169 
L 235.46795 232.370285 
L 242.1687 227.271742 
L 248.86945 221.827241 
L 256.91035 215.03292 
L 277.0126 197.438153 
L 281.03305 194.427132 
L 285.0535 191.750816 
L 293.0944 186.863778 
L 299.79515 183.04466 
L 305.15575 180.198121 
L 309.1762 178.279353 
L 314.5368 176.021697 
L 319.8974 173.993813 
L 325.258 172.231989 
L 330.6186 170.745811 
L 335.9792 169.441594 
L 341.3398 168.383477 
L 348.04055 167.352538 
L 353.40115 166.734274 
L 358.76175 166.364541 
L 365.4625 166.135917 
L 365.4625 166.135917 
" style="fill:none;stroke:#808080;stroke-dasharray:1.5,2.475;stroke-dashoffset:0;stroke-width:1.5;"/>
   </g>
   <g id="line2d_19">
    <path clip-path="url(#p254cf525f9)" d="M 30.425 308.936534 
L 37.12575 308.004228 
L 43.8265 306.950566 
L 50.52725 306.092302 
L 62.5886 304.526128 
L 78.6704 301.940079 
L 82.69085 301.670191 
L 86.7113 301.670191 
L 92.0719 301.756017 
L 96.09235 301.572158 
L 98.77265 301.278406 
L 102.7931 300.631534 
L 109.49385 299.139911 
L 114.85445 297.74649 
L 117.53475 297.148929 
L 122.89535 295.130679 
L 126.9158 293.61117 
L 128.25595 292.894337 
L 132.2764 291.472079 
L 136.29685 289.282385 
L 137.637 288.448833 
L 138.97715 287.830306 
L 140.3173 287.350162 
L 144.33775 285.340723 
L 145.6779 284.66804 
L 149.69835 282.165094 
L 152.37865 281.063887 
L 155.05895 280.301997 
L 156.3991 279.719887 
L 160.41955 277.569315 
L 163.09985 275.796316 
L 165.78015 274.488641 
L 179.18165 265.867579 
L 183.2021 262.965462 
L 188.5627 258.748507 
L 193.9233 254.252435 
L 199.2839 249.49612 
L 205.98465 243.217148 
L 211.34525 237.91871 
L 216.70585 232.209232 
L 222.06645 226.184929 
L 227.42705 219.804298 
L 232.78765 213.022357 
L 239.4884 204.16144 
L 244.849 196.735077 
L 259.59065 175.642557 
L 270.31185 160.269326 
L 282.3732 143.268899 
L 294.43455 126.730177 
L 303.8156 114.290139 
L 311.8565 103.904377 
L 323.91785 88.837773 
L 333.2989 77.520467 
L 342.67995 66.466809 
L 356.08145 51.12348 
L 365.4625 40.681818 
L 365.4625 40.681818 
" style="fill:none;stroke:#ff0000;stroke-linecap:square;stroke-width:1.5;"/>
   </g>
   <g id="line2d_20">
    <path clip-path="url(#p254cf525f9)" d="M 30.425 308.319696 
L 37.12575 307.382432 
L 43.8265 306.323696 
L 50.52725 305.461739 
L 62.5886 303.889918 
L 78.6704 301.297455 
L 82.69085 301.027099 
L 86.7113 301.027099 
L 92.0719 301.113063 
L 96.09235 300.928918 
L 98.77265 300.634761 
L 102.7931 299.987143 
L 109.49385 298.494677 
L 114.85445 297.101535 
L 117.53475 296.504559 
L 122.89535 294.489607 
L 126.9158 292.974216 
L 128.25595 292.259548 
L 132.2764 290.842785 
L 136.29685 288.664194 
L 137.637 287.835462 
L 138.97715 287.220441 
L 140.3173 286.743562 
L 144.33775 284.749073 
L 145.6779 284.081965 
L 149.69835 281.601943 
L 152.37865 280.511933 
L 155.05895 279.75836 
L 156.3991 279.183061 
L 160.41955 277.058846 
L 163.09985 275.309523 
L 165.78015 274.020803 
L 180.5218 264.633001 
L 184.54225 261.714447 
L 189.90285 257.525598 
L 196.6036 251.95316 
L 203.30435 246.00206 
L 210.0051 239.765483 
L 215.3657 234.389705 
L 222.06645 227.258446 
L 227.42705 221.215286 
L 232.78765 214.829341 
L 239.4884 206.54546 
L 246.18915 197.90014 
L 266.2914 171.681425 
L 277.0126 158.17016 
L 285.0535 148.404759 
L 294.43455 137.363213 
L 302.47545 128.317138 
L 310.51635 119.595946 
L 318.55725 111.259118 
L 326.59815 103.219141 
L 337.31935 92.969419 
L 345.36025 85.624591 
L 354.7413 77.32716 
L 365.4625 68.26361 
L 365.4625 68.26361 
" style="fill:none;stroke:#ff0000;stroke-dasharray:1.5,2.475;stroke-dashoffset:0;stroke-width:1.5;"/>
   </g>
   <g id="line2d_21">
    <path clip-path="url(#p254cf525f9)" style="fill:none;stroke:#000000;stroke-linecap:square;stroke-width:1.5;"/>
   </g>
   <g id="line2d_22">
    <path clip-path="url(#p254cf525f9)" style="fill:none;stroke:#000000;stroke-dasharray:1.5,2.475;stroke-dashoffset:0;stroke-width:1.5;"/>
   </g>
   <g id="line2d_23">
    <path clip-path="url(#p254cf525f9)" style="fill:none;stroke:#0000ff;stroke-linecap:square;stroke-width:1.5;"/>
   </g>
   <g id="line2d_24">
    <path clip-path="url(#p254cf525f9)" style="fill:none;stroke:#daa520;stroke-linecap:square;stroke-width:1.5;"/>
   </g>
   <g id="line2d_25">
    <path clip-path="url(#p254cf525f9)" style="fill:none;stroke:#808080;stroke-linecap:square;stroke-width:1.5;"/>
   </g>
   <g id="line2d_26">
    <path clip-path="url(#p254cf525f9)" style="fill:none;stroke:#ff0000;stroke-linecap:square;stroke-width:1.5;"/>
   </g>
   <g id="patch_3">
    <path d="M 30.425 332.2 
L 30.425 26.8 
" style="fill:none;stroke:#000000;stroke-linecap:square;stroke-linejoin:miter;stroke-width:0.8;"/>
   </g>
   <g id="patch_4">
    <path d="M 365.4625 332.2 
L 365.4625 26.8 
" style="fill:none;stroke:#000000;stroke-linecap:square;stroke-linejoin:miter;stroke-width:0.8;"/>
   </g>
   <g id="patch_5">
    <path d="M 30.425 332.2 
L 365.4625 332.2 
" style="fill:none;stroke:#000000;stroke-linecap:square;stroke-linejoin:miter;stroke-width:0.8;"/>
   </g>
   <g id="patch_6">
    <path d="M 30.425 26.8 
L 365.4625 26.8 
" style="fill:none;stroke:#000000;stroke-linecap:square;stroke-linejoin:miter;stroke-width:0.8;"/>
   </g>
   <g id="text_13">
    <!-- CO2 -->
    <defs>
     <path d="M 64.40625 67.28125 
L 64.40625 56.890625 
Q 59.421875 61.53125 53.78125 63.8125 
Q 48.140625 66.109375 41.796875 66.109375 
Q 29.296875 66.109375 22.65625 58.46875 
Q 16.015625 50.828125 16.015625 36.375 
Q 16.015625 21.96875 22.65625 14.328125 
Q 29.296875 6.6875 41.796875 6.6875 
Q 48.140625 6.6875 53.78125 8.984375 
Q 59.421875 11.28125 64.40625 15.921875 
L 64.40625 5.609375 
Q 59.234375 2.09375 53.4375 0.328125 
Q 47.65625 -1.421875 41.21875 -1.421875 
Q 24.65625 -1.421875 15.125 8.703125 
Q 5.609375 18.84375 5.609375 36.375 
Q 5.609375 53.953125 15.125 64.078125 
Q 24.65625 74.21875 41.21875 74.21875 
Q 47.75 74.21875 53.53125 72.484375 
Q 59.328125 70.75 64.40625 67.28125 
z
" id="DejaVuSans-67"/>
     <path d="M 39.40625 66.21875 
Q 28.65625 66.21875 22.328125 58.203125 
Q 16.015625 50.203125 16.015625 36.375 
Q 16.015625 22.609375 22.328125 14.59375 
Q 28.65625 6.59375 39.40625 6.59375 
Q 50.140625 6.59375 56.421875 14.59375 
Q 62.703125 22.609375 62.703125 36.375 
Q 62.703125 50.203125 56.421875 58.203125 
Q 50.140625 66.21875 39.40625 66.21875 
z
M 39.40625 74.21875 
Q 54.734375 74.21875 63.90625 63.9375 
Q 73.09375 53.65625 73.09375 36.375 
Q 73.09375 19.140625 63.90625 8.859375 
Q 54.734375 -1.421875 39.40625 -1.421875 
Q 24.03125 -1.421875 14.8125 8.828125 
Q 5.609375 19.09375 5.609375 36.375 
Q 5.609375 53.65625 14.8125 63.9375 
Q 24.03125 74.21875 39.40625 74.21875 
z
" id="DejaVuSans-79"/>
    </defs>
    <g transform="translate(185.213438 20.8)scale(0.12 -0.12)">
     <use xlink:href="#DejaVuSans-67"/>
     <use x="69.824219" xlink:href="#DejaVuSans-79"/>
     <use x="148.535156" xlink:href="#DejaVuSans-50"/>
    </g>
   </g>
   <g id="legend_1">
    <g id="line2d_27">
     <path d="M 39.425 39.898438 
L 59.425 39.898438 
" style="fill:none;stroke:#000000;stroke-linecap:square;stroke-width:1.5;"/>
    </g>
    <g id="line2d_28"/>
    <g id="text_14">
     <!-- FaIR v2 diagnosed -->
     <defs>
      <path d="M 9.8125 72.90625 
L 51.703125 72.90625 
L 51.703125 64.59375 
L 19.671875 64.59375 
L 19.671875 43.109375 
L 48.578125 43.109375 
L 48.578125 34.8125 
L 19.671875 34.8125 
L 19.671875 0 
L 9.8125 0 
z
" id="DejaVuSans-70"/>
      <path d="M 34.28125 27.484375 
Q 23.390625 27.484375 19.1875 25 
Q 14.984375 22.515625 14.984375 16.5 
Q 14.984375 11.71875 18.140625 8.90625 
Q 21.296875 6.109375 26.703125 6.109375 
Q 34.1875 6.109375 38.703125 11.40625 
Q 43.21875 16.703125 43.21875 25.484375 
L 43.21875 27.484375 
z
M 52.203125 31.203125 
L 52.203125 0 
L 43.21875 0 
L 43.21875 8.296875 
Q 40.140625 3.328125 35.546875 0.953125 
Q 30.953125 -1.421875 24.3125 -1.421875 
Q 15.921875 -1.421875 10.953125 3.296875 
Q 6 8.015625 6 15.921875 
Q 6 25.140625 12.171875 29.828125 
Q 18.359375 34.515625 30.609375 34.515625 
L 43.21875 34.515625 
L 43.21875 35.40625 
Q 43.21875 41.609375 39.140625 45 
Q 35.0625 48.390625 27.6875 48.390625 
Q 23 48.390625 18.546875 47.265625 
Q 14.109375 46.140625 10.015625 43.890625 
L 10.015625 52.203125 
Q 14.9375 54.109375 19.578125 55.046875 
Q 24.21875 56 28.609375 56 
Q 40.484375 56 46.34375 49.84375 
Q 52.203125 43.703125 52.203125 31.203125 
z
" id="DejaVuSans-97"/>
      <path d="M 9.8125 72.90625 
L 19.671875 72.90625 
L 19.671875 0 
L 9.8125 0 
z
" id="DejaVuSans-73"/>
      <path d="M 44.390625 34.1875 
Q 47.5625 33.109375 50.5625 29.59375 
Q 53.5625 26.078125 56.59375 19.921875 
L 66.609375 0 
L 56 0 
L 46.6875 18.703125 
Q 43.0625 26.03125 39.671875 28.421875 
Q 36.28125 30.8125 30.421875 30.8125 
L 19.671875 30.8125 
L 19.671875 0 
L 9.8125 0 
L 9.8125 72.90625 
L 32.078125 72.90625 
Q 44.578125 72.90625 50.734375 67.671875 
Q 56.890625 62.453125 56.890625 51.90625 
Q 56.890625 45.015625 53.6875 40.46875 
Q 50.484375 35.9375 44.390625 34.1875 
z
M 19.671875 64.796875 
L 19.671875 38.921875 
L 32.078125 38.921875 
Q 39.203125 38.921875 42.84375 42.21875 
Q 46.484375 45.515625 46.484375 51.90625 
Q 46.484375 58.296875 42.84375 61.546875 
Q 39.203125 64.796875 32.078125 64.796875 
z
" id="DejaVuSans-82"/>
      <path id="DejaVuSans-32"/>
      <path d="M 2.984375 54.6875 
L 12.5 54.6875 
L 29.59375 8.796875 
L 46.6875 54.6875 
L 56.203125 54.6875 
L 35.6875 0 
L 23.484375 0 
z
" id="DejaVuSans-118"/>
      <path d="M 45.40625 46.390625 
L 45.40625 75.984375 
L 54.390625 75.984375 
L 54.390625 0 
L 45.40625 0 
L 45.40625 8.203125 
Q 42.578125 3.328125 38.25 0.953125 
Q 33.9375 -1.421875 27.875 -1.421875 
Q 17.96875 -1.421875 11.734375 6.484375 
Q 5.515625 14.40625 5.515625 27.296875 
Q 5.515625 40.1875 11.734375 48.09375 
Q 17.96875 56 27.875 56 
Q 33.9375 56 38.25 53.625 
Q 42.578125 51.265625 45.40625 46.390625 
z
M 14.796875 27.296875 
Q 14.796875 17.390625 18.875 11.75 
Q 22.953125 6.109375 30.078125 6.109375 
Q 37.203125 6.109375 41.296875 11.75 
Q 45.40625 17.390625 45.40625 27.296875 
Q 45.40625 37.203125 41.296875 42.84375 
Q 37.203125 48.484375 30.078125 48.484375 
Q 22.953125 48.484375 18.875 42.84375 
Q 14.796875 37.203125 14.796875 27.296875 
z
" id="DejaVuSans-100"/>
      <path d="M 9.421875 54.6875 
L 18.40625 54.6875 
L 18.40625 0 
L 9.421875 0 
z
M 9.421875 75.984375 
L 18.40625 75.984375 
L 18.40625 64.59375 
L 9.421875 64.59375 
z
" id="DejaVuSans-105"/>
      <path d="M 45.40625 27.984375 
Q 45.40625 37.75 41.375 43.109375 
Q 37.359375 48.484375 30.078125 48.484375 
Q 22.859375 48.484375 18.828125 43.109375 
Q 14.796875 37.75 14.796875 27.984375 
Q 14.796875 18.265625 18.828125 12.890625 
Q 22.859375 7.515625 30.078125 7.515625 
Q 37.359375 7.515625 41.375 12.890625 
Q 45.40625 18.265625 45.40625 27.984375 
z
M 54.390625 6.78125 
Q 54.390625 -7.171875 48.1875 -13.984375 
Q 42 -20.796875 29.203125 -20.796875 
Q 24.46875 -20.796875 20.265625 -20.09375 
Q 16.0625 -19.390625 12.109375 -17.921875 
L 12.109375 -9.1875 
Q 16.0625 -11.328125 19.921875 -12.34375 
Q 23.78125 -13.375 27.78125 -13.375 
Q 36.625 -13.375 41.015625 -8.765625 
Q 45.40625 -4.15625 45.40625 5.171875 
L 45.40625 9.625 
Q 42.625 4.78125 38.28125 2.390625 
Q 33.9375 0 27.875 0 
Q 17.828125 0 11.671875 7.65625 
Q 5.515625 15.328125 5.515625 27.984375 
Q 5.515625 40.671875 11.671875 48.328125 
Q 17.828125 56 27.875 56 
Q 33.9375 56 38.28125 53.609375 
Q 42.625 51.21875 45.40625 46.390625 
L 45.40625 54.6875 
L 54.390625 54.6875 
z
" id="DejaVuSans-103"/>
      <path d="M 54.890625 33.015625 
L 54.890625 0 
L 45.90625 0 
L 45.90625 32.71875 
Q 45.90625 40.484375 42.875 44.328125 
Q 39.84375 48.1875 33.796875 48.1875 
Q 26.515625 48.1875 22.3125 43.546875 
Q 18.109375 38.921875 18.109375 30.90625 
L 18.109375 0 
L 9.078125 0 
L 9.078125 54.6875 
L 18.109375 54.6875 
L 18.109375 46.1875 
Q 21.34375 51.125 25.703125 53.5625 
Q 30.078125 56 35.796875 56 
Q 45.21875 56 50.046875 50.171875 
Q 54.890625 44.34375 54.890625 33.015625 
z
" id="DejaVuSans-110"/>
      <path d="M 30.609375 48.390625 
Q 23.390625 48.390625 19.1875 42.75 
Q 14.984375 37.109375 14.984375 27.296875 
Q 14.984375 17.484375 19.15625 11.84375 
Q 23.34375 6.203125 30.609375 6.203125 
Q 37.796875 6.203125 41.984375 11.859375 
Q 46.1875 17.53125 46.1875 27.296875 
Q 46.1875 37.015625 41.984375 42.703125 
Q 37.796875 48.390625 30.609375 48.390625 
z
M 30.609375 56 
Q 42.328125 56 49.015625 48.375 
Q 55.71875 40.765625 55.71875 27.296875 
Q 55.71875 13.875 49.015625 6.21875 
Q 42.328125 -1.421875 30.609375 -1.421875 
Q 18.84375 -1.421875 12.171875 6.21875 
Q 5.515625 13.875 5.515625 27.296875 
Q 5.515625 40.765625 12.171875 48.375 
Q 18.84375 56 30.609375 56 
z
" id="DejaVuSans-111"/>
      <path d="M 44.28125 53.078125 
L 44.28125 44.578125 
Q 40.484375 46.53125 36.375 47.5 
Q 32.28125 48.484375 27.875 48.484375 
Q 21.1875 48.484375 17.84375 46.4375 
Q 14.5 44.390625 14.5 40.28125 
Q 14.5 37.15625 16.890625 35.375 
Q 19.28125 33.59375 26.515625 31.984375 
L 29.59375 31.296875 
Q 39.15625 29.25 43.1875 25.515625 
Q 47.21875 21.78125 47.21875 15.09375 
Q 47.21875 7.46875 41.1875 3.015625 
Q 35.15625 -1.421875 24.609375 -1.421875 
Q 20.21875 -1.421875 15.453125 -0.5625 
Q 10.6875 0.296875 5.421875 2 
L 5.421875 11.28125 
Q 10.40625 8.6875 15.234375 7.390625 
Q 20.0625 6.109375 24.8125 6.109375 
Q 31.15625 6.109375 34.5625 8.28125 
Q 37.984375 10.453125 37.984375 14.40625 
Q 37.984375 18.0625 35.515625 20.015625 
Q 33.0625 21.96875 24.703125 23.78125 
L 21.578125 24.515625 
Q 13.234375 26.265625 9.515625 29.90625 
Q 5.8125 33.546875 5.8125 39.890625 
Q 5.8125 47.609375 11.28125 51.796875 
Q 16.75 56 26.8125 56 
Q 31.78125 56 36.171875 55.265625 
Q 40.578125 54.546875 44.28125 53.078125 
z
" id="DejaVuSans-115"/>
      <path d="M 56.203125 29.59375 
L 56.203125 25.203125 
L 14.890625 25.203125 
Q 15.484375 15.921875 20.484375 11.0625 
Q 25.484375 6.203125 34.421875 6.203125 
Q 39.59375 6.203125 44.453125 7.46875 
Q 49.3125 8.734375 54.109375 11.28125 
L 54.109375 2.78125 
Q 49.265625 0.734375 44.1875 -0.34375 
Q 39.109375 -1.421875 33.890625 -1.421875 
Q 20.796875 -1.421875 13.15625 6.1875 
Q 5.515625 13.8125 5.515625 26.8125 
Q 5.515625 40.234375 12.765625 48.109375 
Q 20.015625 56 32.328125 56 
Q 43.359375 56 49.78125 48.890625 
Q 56.203125 41.796875 56.203125 29.59375 
z
M 47.21875 32.234375 
Q 47.125 39.59375 43.09375 43.984375 
Q 39.0625 48.390625 32.421875 48.390625 
Q 24.90625 48.390625 20.390625 44.140625 
Q 15.875 39.890625 15.1875 32.171875 
z
" id="DejaVuSans-101"/>
     </defs>
     <g transform="translate(67.425 43.398438)scale(0.1 -0.1)">
      <use xlink:href="#DejaVuSans-70"/>
      <use x="57.378906" xlink:href="#DejaVuSans-97"/>
      <use x="118.658203" xlink:href="#DejaVuSans-73"/>
      <use x="148.150391" xlink:href="#DejaVuSans-82"/>
      <use x="217.632812" xlink:href="#DejaVuSans-32"/>
      <use x="249.419922" xlink:href="#DejaVuSans-118"/>
      <use x="308.599609" xlink:href="#DejaVuSans-50"/>
      <use x="372.222656" xlink:href="#DejaVuSans-32"/>
      <use x="404.009766" xlink:href="#DejaVuSans-100"/>
      <use x="467.486328" xlink:href="#DejaVuSans-105"/>
      <use x="495.269531" xlink:href="#DejaVuSans-97"/>
      <use x="556.548828" xlink:href="#DejaVuSans-103"/>
      <use x="620.025391" xlink:href="#DejaVuSans-110"/>
      <use x="683.404297" xlink:href="#DejaVuSans-111"/>
      <use x="744.585938" xlink:href="#DejaVuSans-115"/>
      <use x="796.685547" xlink:href="#DejaVuSans-101"/>
      <use x="858.208984" xlink:href="#DejaVuSans-100"/>
     </g>
    </g>
    <g id="line2d_29">
     <path d="M 39.425 54.576563 
L 59.425 54.576563 
" style="fill:none;stroke:#000000;stroke-dasharray:1.5,2.475;stroke-dashoffset:0;stroke-width:1.5;"/>
    </g>
    <g id="line2d_30"/>
    <g id="text_15">
     <!-- RCP database -->
     <defs>
      <path d="M 19.671875 64.796875 
L 19.671875 37.40625 
L 32.078125 37.40625 
Q 38.96875 37.40625 42.71875 40.96875 
Q 46.484375 44.53125 46.484375 51.125 
Q 46.484375 57.671875 42.71875 61.234375 
Q 38.96875 64.796875 32.078125 64.796875 
z
M 9.8125 72.90625 
L 32.078125 72.90625 
Q 44.34375 72.90625 50.609375 67.359375 
Q 56.890625 61.8125 56.890625 51.125 
Q 56.890625 40.328125 50.609375 34.8125 
Q 44.34375 29.296875 32.078125 29.296875 
L 19.671875 29.296875 
L 19.671875 0 
L 9.8125 0 
z
" id="DejaVuSans-80"/>
      <path d="M 18.3125 70.21875 
L 18.3125 54.6875 
L 36.8125 54.6875 
L 36.8125 47.703125 
L 18.3125 47.703125 
L 18.3125 18.015625 
Q 18.3125 11.328125 20.140625 9.421875 
Q 21.96875 7.515625 27.59375 7.515625 
L 36.8125 7.515625 
L 36.8125 0 
L 27.59375 0 
Q 17.1875 0 13.234375 3.875 
Q 9.28125 7.765625 9.28125 18.015625 
L 9.28125 47.703125 
L 2.6875 47.703125 
L 2.6875 54.6875 
L 9.28125 54.6875 
L 9.28125 70.21875 
z
" id="DejaVuSans-116"/>
      <path d="M 48.6875 27.296875 
Q 48.6875 37.203125 44.609375 42.84375 
Q 40.53125 48.484375 33.40625 48.484375 
Q 26.265625 48.484375 22.1875 42.84375 
Q 18.109375 37.203125 18.109375 27.296875 
Q 18.109375 17.390625 22.1875 11.75 
Q 26.265625 6.109375 33.40625 6.109375 
Q 40.53125 6.109375 44.609375 11.75 
Q 48.6875 17.390625 48.6875 27.296875 
z
M 18.109375 46.390625 
Q 20.953125 51.265625 25.265625 53.625 
Q 29.59375 56 35.59375 56 
Q 45.5625 56 51.78125 48.09375 
Q 58.015625 40.1875 58.015625 27.296875 
Q 58.015625 14.40625 51.78125 6.484375 
Q 45.5625 -1.421875 35.59375 -1.421875 
Q 29.59375 -1.421875 25.265625 0.953125 
Q 20.953125 3.328125 18.109375 8.203125 
L 18.109375 0 
L 9.078125 0 
L 9.078125 75.984375 
L 18.109375 75.984375 
z
" id="DejaVuSans-98"/>
     </defs>
     <g transform="translate(67.425 58.076563)scale(0.1 -0.1)">
      <use xlink:href="#DejaVuSans-82"/>
      <use x="69.404297" xlink:href="#DejaVuSans-67"/>
      <use x="139.228516" xlink:href="#DejaVuSans-80"/>
      <use x="199.53125" xlink:href="#DejaVuSans-32"/>
      <use x="231.318359" xlink:href="#DejaVuSans-100"/>
      <use x="294.794922" xlink:href="#DejaVuSans-97"/>
      <use x="356.074219" xlink:href="#DejaVuSans-116"/>
      <use x="395.283203" xlink:href="#DejaVuSans-97"/>
      <use x="456.5625" xlink:href="#DejaVuSans-98"/>
      <use x="520.039062" xlink:href="#DejaVuSans-97"/>
      <use x="581.318359" xlink:href="#DejaVuSans-115"/>
      <use x="633.417969" xlink:href="#DejaVuSans-101"/>
     </g>
    </g>
    <g id="line2d_31">
     <path d="M 39.425 69.254688 
L 59.425 69.254688 
" style="fill:none;stroke:#0000ff;stroke-linecap:square;stroke-width:1.5;"/>
    </g>
    <g id="line2d_32"/>
    <g id="text_16">
     <!-- RCP3PD -->
     <defs>
      <path d="M 40.578125 39.3125 
Q 47.65625 37.796875 51.625 33 
Q 55.609375 28.21875 55.609375 21.1875 
Q 55.609375 10.40625 48.1875 4.484375 
Q 40.765625 -1.421875 27.09375 -1.421875 
Q 22.515625 -1.421875 17.65625 -0.515625 
Q 12.796875 0.390625 7.625 2.203125 
L 7.625 11.71875 
Q 11.71875 9.328125 16.59375 8.109375 
Q 21.484375 6.890625 26.8125 6.890625 
Q 36.078125 6.890625 40.9375 10.546875 
Q 45.796875 14.203125 45.796875 21.1875 
Q 45.796875 27.640625 41.28125 31.265625 
Q 36.765625 34.90625 28.71875 34.90625 
L 20.21875 34.90625 
L 20.21875 43.015625 
L 29.109375 43.015625 
Q 36.375 43.015625 40.234375 45.921875 
Q 44.09375 48.828125 44.09375 54.296875 
Q 44.09375 59.90625 40.109375 62.90625 
Q 36.140625 65.921875 28.71875 65.921875 
Q 24.65625 65.921875 20.015625 65.03125 
Q 15.375 64.15625 9.8125 62.3125 
L 9.8125 71.09375 
Q 15.4375 72.65625 20.34375 73.4375 
Q 25.25 74.21875 29.59375 74.21875 
Q 40.828125 74.21875 47.359375 69.109375 
Q 53.90625 64.015625 53.90625 55.328125 
Q 53.90625 49.265625 50.4375 45.09375 
Q 46.96875 40.921875 40.578125 39.3125 
z
" id="DejaVuSans-51"/>
      <path d="M 19.671875 64.796875 
L 19.671875 8.109375 
L 31.59375 8.109375 
Q 46.6875 8.109375 53.6875 14.9375 
Q 60.6875 21.78125 60.6875 36.53125 
Q 60.6875 51.171875 53.6875 57.984375 
Q 46.6875 64.796875 31.59375 64.796875 
z
M 9.8125 72.90625 
L 30.078125 72.90625 
Q 51.265625 72.90625 61.171875 64.09375 
Q 71.09375 55.28125 71.09375 36.53125 
Q 71.09375 17.671875 61.125 8.828125 
Q 51.171875 0 30.078125 0 
L 9.8125 0 
z
" id="DejaVuSans-68"/>
     </defs>
     <g transform="translate(67.425 72.754688)scale(0.1 -0.1)">
      <use xlink:href="#DejaVuSans-82"/>
      <use x="69.404297" xlink:href="#DejaVuSans-67"/>
      <use x="139.228516" xlink:href="#DejaVuSans-80"/>
      <use x="199.53125" xlink:href="#DejaVuSans-51"/>
      <use x="263.154297" xlink:href="#DejaVuSans-80"/>
      <use x="323.457031" xlink:href="#DejaVuSans-68"/>
     </g>
    </g>
    <g id="line2d_33">
     <path d="M 39.425 83.932813 
L 59.425 83.932813 
" style="fill:none;stroke:#daa520;stroke-linecap:square;stroke-width:1.5;"/>
    </g>
    <g id="line2d_34"/>
    <g id="text_17">
     <!-- RCP45 -->
     <g transform="translate(67.425 87.432813)scale(0.1 -0.1)">
      <use xlink:href="#DejaVuSans-82"/>
      <use x="69.404297" xlink:href="#DejaVuSans-67"/>
      <use x="139.228516" xlink:href="#DejaVuSans-80"/>
      <use x="199.53125" xlink:href="#DejaVuSans-52"/>
      <use x="263.154297" xlink:href="#DejaVuSans-53"/>
     </g>
    </g>
    <g id="line2d_35">
     <path d="M 39.425 98.610938 
L 59.425 98.610938 
" style="fill:none;stroke:#808080;stroke-linecap:square;stroke-width:1.5;"/>
    </g>
    <g id="line2d_36"/>
    <g id="text_18">
     <!-- RCP6 -->
     <g transform="translate(67.425 102.110938)scale(0.1 -0.1)">
      <use xlink:href="#DejaVuSans-82"/>
      <use x="69.404297" xlink:href="#DejaVuSans-67"/>
      <use x="139.228516" xlink:href="#DejaVuSans-80"/>
      <use x="199.53125" xlink:href="#DejaVuSans-54"/>
     </g>
    </g>
    <g id="line2d_37">
     <path d="M 39.425 113.289063 
L 59.425 113.289063 
" style="fill:none;stroke:#ff0000;stroke-linecap:square;stroke-width:1.5;"/>
    </g>
    <g id="line2d_38"/>
    <g id="text_19">
     <!-- RCP85 -->
     <g transform="translate(67.425 116.789063)scale(0.1 -0.1)">
      <use xlink:href="#DejaVuSans-82"/>
      <use x="69.404297" xlink:href="#DejaVuSans-67"/>
      <use x="139.228516" xlink:href="#DejaVuSans-80"/>
      <use x="199.53125" xlink:href="#DejaVuSans-56"/>
      <use x="263.154297" xlink:href="#DejaVuSans-53"/>
     </g>
    </g>
   </g>
  </g>
  <g id="axes_2">
   <g id="patch_7">
    <path d="M 411.95 332.2 
L 746.9875 332.2 
L 746.9875 26.8 
L 411.95 26.8 
z
" style="fill:#ffffff;"/>
   </g>
   <g id="matplotlib.axis_3">
    <g id="xtick_7">
     <g id="line2d_39">
      <g>
       <use style="stroke:#000000;stroke-width:0.8;" x="411.95" xlink:href="#m9ca19440f4" y="332.2"/>
      </g>
     </g>
     <g id="text_20">
      <!-- 1900 -->
      <g transform="translate(399.225 346.798438)scale(0.1 -0.1)">
       <use xlink:href="#DejaVuSans-49"/>
       <use x="63.623047" xlink:href="#DejaVuSans-57"/>
       <use x="127.246094" xlink:href="#DejaVuSans-48"/>
       <use x="190.869141" xlink:href="#DejaVuSans-48"/>
      </g>
     </g>
    </g>
    <g id="xtick_8">
     <g id="line2d_40">
      <g>
       <use style="stroke:#000000;stroke-width:0.8;" x="478.9575" xlink:href="#m9ca19440f4" y="332.2"/>
      </g>
     </g>
     <g id="text_21">
      <!-- 1950 -->
      <g transform="translate(466.2325 346.798438)scale(0.1 -0.1)">
       <use xlink:href="#DejaVuSans-49"/>
       <use x="63.623047" xlink:href="#DejaVuSans-57"/>
       <use x="127.246094" xlink:href="#DejaVuSans-53"/>
       <use x="190.869141" xlink:href="#DejaVuSans-48"/>
      </g>
     </g>
    </g>
    <g id="xtick_9">
     <g id="line2d_41">
      <g>
       <use style="stroke:#000000;stroke-width:0.8;" x="545.965" xlink:href="#m9ca19440f4" y="332.2"/>
      </g>
     </g>
     <g id="text_22">
      <!-- 2000 -->
      <g transform="translate(533.24 346.798438)scale(0.1 -0.1)">
       <use xlink:href="#DejaVuSans-50"/>
       <use x="63.623047" xlink:href="#DejaVuSans-48"/>
       <use x="127.246094" xlink:href="#DejaVuSans-48"/>
       <use x="190.869141" xlink:href="#DejaVuSans-48"/>
      </g>
     </g>
    </g>
    <g id="xtick_10">
     <g id="line2d_42">
      <g>
       <use style="stroke:#000000;stroke-width:0.8;" x="612.9725" xlink:href="#m9ca19440f4" y="332.2"/>
      </g>
     </g>
     <g id="text_23">
      <!-- 2050 -->
      <g transform="translate(600.2475 346.798438)scale(0.1 -0.1)">
       <use xlink:href="#DejaVuSans-50"/>
       <use x="63.623047" xlink:href="#DejaVuSans-48"/>
       <use x="127.246094" xlink:href="#DejaVuSans-53"/>
       <use x="190.869141" xlink:href="#DejaVuSans-48"/>
      </g>
     </g>
    </g>
    <g id="xtick_11">
     <g id="line2d_43">
      <g>
       <use style="stroke:#000000;stroke-width:0.8;" x="679.98" xlink:href="#m9ca19440f4" y="332.2"/>
      </g>
     </g>
     <g id="text_24">
      <!-- 2100 -->
      <g transform="translate(667.255 346.798438)scale(0.1 -0.1)">
       <use xlink:href="#DejaVuSans-50"/>
       <use x="63.623047" xlink:href="#DejaVuSans-49"/>
       <use x="127.246094" xlink:href="#DejaVuSans-48"/>
       <use x="190.869141" xlink:href="#DejaVuSans-48"/>
      </g>
     </g>
    </g>
    <g id="xtick_12">
     <g id="line2d_44">
      <g>
       <use style="stroke:#000000;stroke-width:0.8;" x="746.9875" xlink:href="#m9ca19440f4" y="332.2"/>
      </g>
     </g>
     <g id="text_25">
      <!-- 2150 -->
      <g transform="translate(734.2625 346.798438)scale(0.1 -0.1)">
       <use xlink:href="#DejaVuSans-50"/>
       <use x="63.623047" xlink:href="#DejaVuSans-49"/>
       <use x="127.246094" xlink:href="#DejaVuSans-53"/>
       <use x="190.869141" xlink:href="#DejaVuSans-48"/>
      </g>
     </g>
    </g>
   </g>
   <g id="matplotlib.axis_4">
    <g id="ytick_7">
     <g id="line2d_45">
      <g>
       <use style="stroke:#000000;stroke-width:0.8;" x="411.95" xlink:href="#mec84fd8ef0" y="294.088217"/>
      </g>
     </g>
     <g id="text_26">
      <!-- 0.2 -->
      <defs>
       <path d="M 10.6875 12.40625 
L 21 12.40625 
L 21 0 
L 10.6875 0 
z
" id="DejaVuSans-46"/>
      </defs>
      <g transform="translate(389.046875 297.887435)scale(0.1 -0.1)">
       <use xlink:href="#DejaVuSans-48"/>
       <use x="63.623047" xlink:href="#DejaVuSans-46"/>
       <use x="95.410156" xlink:href="#DejaVuSans-50"/>
      </g>
     </g>
    </g>
    <g id="ytick_8">
     <g id="line2d_46">
      <g>
       <use style="stroke:#000000;stroke-width:0.8;" x="411.95" xlink:href="#mec84fd8ef0" y="247.81022"/>
      </g>
     </g>
     <g id="text_27">
      <!-- 0.4 -->
      <g transform="translate(389.046875 251.609439)scale(0.1 -0.1)">
       <use xlink:href="#DejaVuSans-48"/>
       <use x="63.623047" xlink:href="#DejaVuSans-46"/>
       <use x="95.410156" xlink:href="#DejaVuSans-52"/>
      </g>
     </g>
    </g>
    <g id="ytick_9">
     <g id="line2d_47">
      <g>
       <use style="stroke:#000000;stroke-width:0.8;" x="411.95" xlink:href="#mec84fd8ef0" y="201.532224"/>
      </g>
     </g>
     <g id="text_28">
      <!-- 0.6 -->
      <g transform="translate(389.046875 205.331443)scale(0.1 -0.1)">
       <use xlink:href="#DejaVuSans-48"/>
       <use x="63.623047" xlink:href="#DejaVuSans-46"/>
       <use x="95.410156" xlink:href="#DejaVuSans-54"/>
      </g>
     </g>
    </g>
    <g id="ytick_10">
     <g id="line2d_48">
      <g>
       <use style="stroke:#000000;stroke-width:0.8;" x="411.95" xlink:href="#mec84fd8ef0" y="155.254227"/>
      </g>
     </g>
     <g id="text_29">
      <!-- 0.8 -->
      <g transform="translate(389.046875 159.053446)scale(0.1 -0.1)">
       <use xlink:href="#DejaVuSans-48"/>
       <use x="63.623047" xlink:href="#DejaVuSans-46"/>
       <use x="95.410156" xlink:href="#DejaVuSans-56"/>
      </g>
     </g>
    </g>
    <g id="ytick_11">
     <g id="line2d_49">
      <g>
       <use style="stroke:#000000;stroke-width:0.8;" x="411.95" xlink:href="#mec84fd8ef0" y="108.976231"/>
      </g>
     </g>
     <g id="text_30">
      <!-- 1.0 -->
      <g transform="translate(389.046875 112.77545)scale(0.1 -0.1)">
       <use xlink:href="#DejaVuSans-49"/>
       <use x="63.623047" xlink:href="#DejaVuSans-46"/>
       <use x="95.410156" xlink:href="#DejaVuSans-48"/>
      </g>
     </g>
    </g>
    <g id="ytick_12">
     <g id="line2d_50">
      <g>
       <use style="stroke:#000000;stroke-width:0.8;" x="411.95" xlink:href="#mec84fd8ef0" y="62.698235"/>
      </g>
     </g>
     <g id="text_31">
      <!-- 1.2 -->
      <g transform="translate(389.046875 66.497453)scale(0.1 -0.1)">
       <use xlink:href="#DejaVuSans-49"/>
       <use x="63.623047" xlink:href="#DejaVuSans-46"/>
       <use x="95.410156" xlink:href="#DejaVuSans-50"/>
      </g>
     </g>
    </g>
   </g>
   <g id="line2d_51">
    <path clip-path="url(#p08f82ad5a5)" d="M 411.95 316.926647 
L 414.6303 315.776866 
L 419.9909 313.075916 
L 424.01135 310.92768 
L 429.37195 308.053408 
L 441.4333 300.622278 
L 450.81435 294.659869 
L 457.5151 290.83768 
L 470.9166 283.789934 
L 473.5969 282.266524 
L 477.61735 279.645425 
L 480.29765 277.645688 
L 482.97795 275.297466 
L 486.9984 271.437186 
L 491.01885 267.179681 
L 495.0393 262.511048 
L 499.05975 257.513062 
L 503.0802 252.233154 
L 515.14155 235.401058 
L 519.162 229.642207 
L 524.5226 221.17684 
L 525.86275 219.609712 
L 528.54305 216.972145 
L 532.5635 213.580081 
L 533.90365 212.48832 
L 535.2438 211.635466 
L 541.94455 209.188929 
L 543.2847 208.354316 
L 544.62485 207.665157 
L 545.965 207.477628 
L 547.30515 207.510806 
L 548.6453 207.354951 
L 549.98545 207.084226 
L 551.3256 207.052144 
L 552.66575 207.192068 
L 554.0059 207.110052 
L 555.34605 206.776787 
L 558.02635 205.772089 
L 562.0468 203.96545 
L 563.38695 203.776208 
L 564.7271 203.888948 
L 566.06725 204.274985 
L 567.4074 204.912165 
L 568.74755 205.783372 
L 570.0877 206.872478 
L 571.42785 208.164126 
L 572.768 209.644506 
L 578.1286 216.254092 
L 580.8089 219.078172 
L 583.4892 221.556922 
L 586.1695 223.770408 
L 588.8498 225.774148 
L 591.5301 227.586547 
L 594.2104 229.214182 
L 598.23085 231.340955 
L 603.59145 233.976994 
L 606.27175 235.661143 
L 610.2922 238.58275 
L 614.31265 241.816619 
L 618.3331 245.049397 
L 623.6937 249.098631 
L 629.0543 252.814727 
L 631.7346 254.339914 
L 634.4149 255.631854 
L 637.0952 256.741261 
L 639.7755 257.68029 
L 643.79595 258.822449 
L 649.15655 260.034489 
L 654.51715 261.061533 
L 669.2588 263.397871 
L 679.98 264.835546 
L 684.00045 265.326553 
L 689.36105 265.707864 
L 698.7421 266.071982 
L 710.80345 266.164515 
L 720.1845 266.116624 
L 746.9875 265.937866 
L 746.9875 265.937866 
" style="fill:none;stroke:#0000ff;stroke-linecap:square;stroke-width:1.5;"/>
   </g>
   <g id="line2d_52">
    <path clip-path="url(#p08f82ad5a5)" d="M 411.95 318.318182 
L 414.6303 317.392611 
L 421.33105 314.670203 
L 430.7121 310.51632 
L 441.4333 305.185481 
L 450.81435 300.377783 
L 458.85525 296.732641 
L 470.9166 291.60363 
L 474.93705 289.691895 
L 478.9575 287.471849 
L 481.6378 285.726667 
L 485.65825 282.695886 
L 489.6787 279.337186 
L 493.69915 275.689525 
L 499.05975 270.328031 
L 503.0802 266.039327 
L 513.8014 253.861746 
L 519.162 247.627228 
L 524.5226 240.698687 
L 525.86275 239.413922 
L 528.54305 237.250741 
L 532.5635 234.466321 
L 533.90365 233.569569 
L 535.2438 232.868585 
L 541.94455 230.85744 
L 544.62485 229.603943 
L 545.965 229.449594 
L 547.30515 229.476891 
L 551.3256 229.099485 
L 552.66575 229.214624 
L 554.0059 229.147149 
L 556.6862 228.501612 
L 559.3665 227.540252 
L 560.70665 226.988662 
L 562.0468 226.558168 
L 563.38695 226.402244 
L 564.7271 226.495142 
L 566.06725 226.813174 
L 567.4074 227.338015 
L 568.74755 228.055446 
L 570.0877 228.952029 
L 571.42785 230.014942 
L 574.10815 232.600209 
L 576.78845 235.378388 
L 579.46875 237.859768 
L 582.14905 240.024896 
L 584.82935 241.940002 
L 588.8498 244.462583 
L 592.87025 246.62915 
L 596.8907 248.464626 
L 604.9316 251.827888 
L 607.6119 253.301658 
L 611.63235 255.77958 
L 622.35355 262.689383 
L 627.71415 265.796157 
L 630.39445 267.160008 
L 633.07475 268.293995 
L 637.0952 269.700541 
L 641.11565 270.796915 
L 645.1361 271.655046 
L 651.83685 272.812637 
L 658.5376 273.732812 
L 677.2997 275.972508 
L 685.3406 276.761968 
L 692.04135 277.072265 
L 700.08225 277.2863 
L 717.5042 277.329624 
L 746.9875 277.160272 
L 746.9875 277.160272 
" style="fill:none;stroke:#0000ff;stroke-dasharray:1.5,2.475;stroke-dashoffset:0;stroke-width:1.5;"/>
   </g>
   <g id="line2d_53">
    <path clip-path="url(#p08f82ad5a5)" d="M 411.95 316.926647 
L 414.6303 315.776866 
L 419.9909 313.075916 
L 424.01135 310.92768 
L 429.37195 308.053408 
L 441.4333 300.622278 
L 450.81435 294.659869 
L 457.5151 290.83768 
L 470.9166 283.789934 
L 473.5969 282.266524 
L 477.61735 279.645425 
L 480.29765 277.645688 
L 482.97795 275.297466 
L 486.9984 271.437186 
L 491.01885 267.179681 
L 495.0393 262.511048 
L 499.05975 257.513062 
L 503.0802 252.233154 
L 515.14155 235.401058 
L 519.162 229.642207 
L 524.5226 221.17684 
L 525.86275 219.609712 
L 528.54305 216.972145 
L 532.5635 213.580081 
L 533.90365 212.48832 
L 535.2438 211.635466 
L 541.94455 209.188929 
L 543.2847 208.354316 
L 544.62485 207.665157 
L 545.965 207.477628 
L 547.30515 207.510806 
L 548.6453 207.354951 
L 549.98545 207.084226 
L 551.3256 207.052144 
L 552.66575 207.192068 
L 554.0059 207.110084 
L 558.02635 206.137184 
L 580.8089 200.311001 
L 587.50965 199.037863 
L 591.5301 198.51925 
L 596.8907 198.158629 
L 602.2513 198.010339 
L 606.27175 198.197958 
L 611.63235 198.772732 
L 615.6528 199.346036 
L 618.3331 199.888633 
L 622.35355 200.997102 
L 627.71415 202.771957 
L 631.7346 204.31718 
L 635.75505 206.135999 
L 642.4558 209.528217 
L 646.47625 211.774855 
L 650.4967 214.246825 
L 655.8573 217.523617 
L 658.5376 218.917669 
L 662.55805 220.708687 
L 666.5785 222.294985 
L 670.59895 223.676215 
L 677.2997 225.659528 
L 682.6603 227.159404 
L 686.68075 227.976955 
L 690.7012 228.538489 
L 697.40195 229.222791 
L 702.76255 229.531607 
L 716.16405 229.979558 
L 746.9875 230.332484 
L 746.9875 230.332484 
" style="fill:none;stroke:#daa520;stroke-linecap:square;stroke-width:1.5;"/>
   </g>
   <g id="line2d_54">
    <path clip-path="url(#p08f82ad5a5)" d="M 411.95 318.318182 
L 414.6303 317.392611 
L 421.33105 314.670203 
L 430.7121 310.51632 
L 441.4333 305.185481 
L 450.81435 300.377783 
L 458.85525 296.732641 
L 470.9166 291.60363 
L 474.93705 289.691895 
L 478.9575 287.471849 
L 481.6378 285.726667 
L 485.65825 282.695886 
L 489.6787 279.337186 
L 493.69915 275.689525 
L 499.05975 270.328031 
L 503.0802 266.039327 
L 513.8014 253.861746 
L 519.162 247.627228 
L 524.5226 240.698687 
L 525.86275 239.413922 
L 528.54305 237.250741 
L 532.5635 234.466321 
L 533.90365 233.569569 
L 535.2438 232.868585 
L 541.94455 230.85744 
L 544.62485 229.603943 
L 545.965 229.449594 
L 547.30515 229.476891 
L 551.3256 229.099485 
L 552.66575 229.214624 
L 554.0059 229.147184 
L 558.02635 228.346465 
L 580.8089 223.546116 
L 587.50965 222.495936 
L 591.5301 222.068013 
L 596.8907 221.770411 
L 602.2513 221.648022 
L 606.27175 221.802868 
L 611.63235 222.277176 
L 616.99295 222.956437 
L 621.0134 223.782083 
L 626.374 225.191759 
L 630.39445 226.401165 
L 634.4149 227.822471 
L 639.7755 229.994781 
L 645.1361 232.349919 
L 649.15655 234.317926 
L 655.8573 237.702867 
L 659.87775 239.362899 
L 665.23835 241.198369 
L 670.59895 242.74507 
L 677.2997 244.368558 
L 684.00045 245.848885 
L 688.0209 246.436173 
L 694.72165 247.085789 
L 700.08225 247.428783 
L 710.80345 247.791815 
L 718.84435 247.928981 
L 746.9875 248.190119 
L 746.9875 248.190119 
" style="fill:none;stroke:#daa520;stroke-dasharray:1.5,2.475;stroke-dashoffset:0;stroke-width:1.5;"/>
   </g>
   <g id="line2d_55">
    <path clip-path="url(#p08f82ad5a5)" d="M 411.95 316.926647 
L 414.6303 315.776866 
L 419.9909 313.075916 
L 424.01135 310.92768 
L 429.37195 308.053408 
L 441.4333 300.622278 
L 450.81435 294.659869 
L 457.5151 290.83768 
L 470.9166 283.789934 
L 473.5969 282.266524 
L 477.61735 279.645425 
L 480.29765 277.645688 
L 482.97795 275.297466 
L 486.9984 271.437186 
L 491.01885 267.179681 
L 495.0393 262.511048 
L 499.05975 257.513062 
L 503.0802 252.233154 
L 515.14155 235.401058 
L 519.162 229.642207 
L 524.5226 221.17684 
L 525.86275 219.609712 
L 528.54305 216.972145 
L 532.5635 213.580081 
L 533.90365 212.48832 
L 535.2438 211.635466 
L 541.94455 209.188929 
L 543.2847 208.354316 
L 544.62485 207.665157 
L 545.965 207.477628 
L 547.30515 207.510806 
L 548.6453 207.354951 
L 549.98545 207.084226 
L 551.3256 207.052144 
L 552.66575 207.192068 
L 554.0059 207.109684 
L 556.6862 206.447814 
L 563.38695 204.482905 
L 566.06725 204.04495 
L 568.74755 203.821525 
L 571.42785 203.788942 
L 578.1286 204.024328 
L 580.8089 203.801771 
L 583.4892 203.373483 
L 587.50965 202.436222 
L 591.5301 201.249827 
L 595.55055 199.829205 
L 599.571 198.173017 
L 606.27175 195.316183 
L 616.99295 191.142332 
L 621.0134 189.80613 
L 627.71415 187.83927 
L 630.39445 187.166707 
L 633.07475 186.652437 
L 637.0952 186.184036 
L 641.11565 185.93303 
L 643.79595 185.966083 
L 646.47625 186.27871 
L 649.15655 186.859807 
L 651.83685 187.672409 
L 654.51715 188.64794 
L 655.8573 189.26881 
L 657.19745 190.087749 
L 658.5376 191.091011 
L 659.87775 192.265135 
L 662.55805 195.085459 
L 665.23835 198.492235 
L 667.91865 202.378461 
L 671.9391 208.213505 
L 675.95955 213.542275 
L 678.63985 216.828118 
L 681.32015 219.83134 
L 684.00045 222.398699 
L 686.68075 224.440188 
L 689.36105 226.072466 
L 692.04135 227.390747 
L 694.72165 228.490466 
L 697.40195 229.392474 
L 700.08225 230.110741 
L 704.1027 230.930374 
L 710.80345 231.932855 
L 716.16405 232.475503 
L 726.88525 233.19212 
L 734.92615 233.496842 
L 746.9875 233.849977 
L 746.9875 233.849977 
" style="fill:none;stroke:#808080;stroke-linecap:square;stroke-width:1.5;"/>
   </g>
   <g id="line2d_56">
    <path clip-path="url(#p08f82ad5a5)" d="M 411.95 318.318182 
L 414.6303 317.392611 
L 421.33105 314.670203 
L 430.7121 310.51632 
L 441.4333 305.185481 
L 450.81435 300.377783 
L 458.85525 296.732641 
L 470.9166 291.60363 
L 474.93705 289.691895 
L 478.9575 287.471849 
L 481.6378 285.726667 
L 485.65825 282.695886 
L 489.6787 279.337186 
L 493.69915 275.689525 
L 499.05975 270.328031 
L 503.0802 266.039327 
L 513.8014 253.861746 
L 519.162 247.627228 
L 524.5226 240.698687 
L 525.86275 239.413922 
L 528.54305 237.250741 
L 532.5635 234.466321 
L 533.90365 233.569569 
L 535.2438 232.868585 
L 541.94455 230.85744 
L 544.62485 229.603943 
L 545.965 229.449594 
L 547.30515 229.476891 
L 551.3256 229.099485 
L 552.66575 229.214624 
L 554.0059 229.146855 
L 556.6862 228.602163 
L 563.38695 226.984361 
L 566.06725 226.623628 
L 568.74755 226.439574 
L 572.768 226.451798 
L 576.78845 226.628596 
L 579.46875 226.538083 
L 582.14905 226.265654 
L 586.1695 225.583887 
L 590.18995 224.665731 
L 594.2104 223.563181 
L 598.23085 222.255101 
L 610.2922 218.110765 
L 618.3331 215.583811 
L 623.6937 214.201605 
L 630.39445 212.682271 
L 634.4149 212.098379 
L 638.43535 211.784963 
L 642.4558 211.642642 
L 645.1361 211.790202 
L 647.8164 212.159158 
L 650.4967 212.744491 
L 654.51715 213.908992 
L 655.8573 214.423041 
L 657.19745 215.100912 
L 658.5376 215.931092 
L 661.2179 218.004155 
L 663.8982 220.585511 
L 666.5785 223.605479 
L 671.9391 230.055993 
L 675.95955 234.435775 
L 678.63985 237.132864 
L 681.32015 239.595656 
L 684.00045 241.699171 
L 686.68075 243.370747 
L 689.36105 244.706579 
L 692.04135 245.785019 
L 694.72165 246.68436 
L 697.40195 247.421811 
L 701.4224 248.255942 
L 705.44285 248.860391 
L 712.1436 249.629762 
L 717.5042 250.02425 
L 729.56555 250.630418 
L 746.9875 251.063526 
L 746.9875 251.063526 
" style="fill:none;stroke:#808080;stroke-dasharray:1.5,2.475;stroke-dashoffset:0;stroke-width:1.5;"/>
   </g>
   <g id="line2d_57">
    <path clip-path="url(#p08f82ad5a5)" d="M 411.95 316.926647 
L 414.6303 315.776866 
L 419.9909 313.075916 
L 424.01135 310.92768 
L 429.37195 308.053408 
L 441.4333 300.622278 
L 450.81435 294.659869 
L 457.5151 290.83768 
L 470.9166 283.789934 
L 473.5969 282.266524 
L 477.61735 279.645425 
L 480.29765 277.645688 
L 482.97795 275.297466 
L 486.9984 271.437186 
L 491.01885 267.179681 
L 495.0393 262.511048 
L 499.05975 257.513062 
L 503.0802 252.233154 
L 515.14155 235.401058 
L 519.162 229.642207 
L 524.5226 221.17684 
L 525.86275 219.609712 
L 528.54305 216.972145 
L 532.5635 213.580081 
L 533.90365 212.48832 
L 535.2438 211.635466 
L 541.94455 209.188929 
L 543.2847 208.354316 
L 544.62485 207.665157 
L 545.965 207.477628 
L 547.30515 207.510806 
L 548.6453 207.354951 
L 549.98545 207.084226 
L 551.3256 207.052144 
L 552.66575 207.192068 
L 554.0059 207.110315 
L 555.34605 206.738745 
L 556.6862 206.174588 
L 559.3665 204.578304 
L 562.0468 202.503783 
L 564.7271 199.917018 
L 567.4074 196.875568 
L 570.0877 193.470681 
L 574.10815 187.865928 
L 579.46875 179.951317 
L 586.1695 169.624226 
L 590.18995 163.15362 
L 592.87025 158.427801 
L 596.8907 150.782576 
L 600.91115 142.649108 
L 607.6119 128.467115 
L 618.3331 105.347699 
L 622.35355 97.686025 
L 626.374 90.578777 
L 629.0543 86.118526 
L 631.7346 82.106812 
L 634.4149 78.551623 
L 637.0952 75.388543 
L 639.7755 72.516519 
L 643.79595 68.593049 
L 647.8164 64.994451 
L 651.83685 61.742581 
L 665.23835 51.513621 
L 670.59895 47.668471 
L 673.27925 46.058394 
L 675.95955 44.672066 
L 678.63985 43.517897 
L 681.32015 42.566929 
L 684.00045 41.809204 
L 686.68075 41.256281 
L 689.36105 40.890358 
L 692.04135 40.699611 
L 694.72165 40.706098 
L 700.08225 41.03757 
L 705.44285 41.590533 
L 709.4633 42.221088 
L 724.20495 45.044187 
L 732.24585 46.766298 
L 738.9466 48.18508 
L 745.64735 49.639409 
L 746.9875 49.904516 
L 746.9875 49.904516 
" style="fill:none;stroke:#ff0000;stroke-linecap:square;stroke-width:1.5;"/>
   </g>
   <g id="line2d_58">
    <path clip-path="url(#p08f82ad5a5)" d="M 411.95 318.318182 
L 414.6303 317.392611 
L 421.33105 314.670203 
L 430.7121 310.51632 
L 441.4333 305.185481 
L 450.81435 300.377783 
L 458.85525 296.732641 
L 470.9166 291.60363 
L 474.93705 289.691895 
L 478.9575 287.471849 
L 481.6378 285.726667 
L 485.65825 282.695886 
L 489.6787 279.337186 
L 493.69915 275.689525 
L 499.05975 270.328031 
L 503.0802 266.039327 
L 513.8014 253.861746 
L 519.162 247.627228 
L 524.5226 240.698687 
L 525.86275 239.413922 
L 528.54305 237.250741 
L 532.5635 234.466321 
L 533.90365 233.569569 
L 535.2438 232.868585 
L 541.94455 230.85744 
L 544.62485 229.603943 
L 545.965 229.449594 
L 547.30515 229.476891 
L 551.3256 229.099485 
L 552.66575 229.214624 
L 554.0059 229.147366 
L 555.34605 228.841621 
L 556.6862 228.377351 
L 559.3665 227.063151 
L 562.0468 225.354227 
L 564.7271 223.221723 
L 567.4074 220.712038 
L 570.0877 217.899407 
L 574.10815 213.262416 
L 579.46875 206.698921 
L 586.1695 198.10674 
L 590.18995 192.706621 
L 592.87025 188.754288 
L 596.8907 182.344996 
L 600.91115 175.504939 
L 607.6119 163.523631 
L 619.67325 141.581613 
L 623.6937 135.187392 
L 627.71415 129.191258 
L 630.39445 125.522086 
L 633.07475 122.249464 
L 635.75505 119.35074 
L 638.43535 116.741917 
L 642.4558 113.212236 
L 646.47625 109.984703 
L 650.4967 107.053658 
L 659.87775 100.734907 
L 666.5785 96.303395 
L 670.59895 93.794526 
L 673.27925 92.377424 
L 675.95955 91.156333 
L 678.63985 90.139073 
L 682.6603 88.941468 
L 685.3406 88.366464 
L 688.0209 87.963059 
L 690.7012 87.715217 
L 693.3815 87.636891 
L 697.40195 87.777415 
L 702.76255 88.17006 
L 708.12315 88.788612 
L 720.1845 90.736846 
L 725.5451 91.751237 
L 733.586 93.2372 
L 740.28675 94.520489 
L 746.9875 95.760438 
L 746.9875 95.760438 
" style="fill:none;stroke:#ff0000;stroke-dasharray:1.5,2.475;stroke-dashoffset:0;stroke-width:1.5;"/>
   </g>
   <g id="patch_8">
    <path d="M 411.95 332.2 
L 411.95 26.8 
" style="fill:none;stroke:#000000;stroke-linecap:square;stroke-linejoin:miter;stroke-width:0.8;"/>
   </g>
   <g id="patch_9">
    <path d="M 746.9875 332.2 
L 746.9875 26.8 
" style="fill:none;stroke:#000000;stroke-linecap:square;stroke-linejoin:miter;stroke-width:0.8;"/>
   </g>
   <g id="patch_10">
    <path d="M 411.95 332.2 
L 746.9875 332.2 
" style="fill:none;stroke:#000000;stroke-linecap:square;stroke-linejoin:miter;stroke-width:0.8;"/>
   </g>
   <g id="patch_11">
    <path d="M 411.95 26.8 
L 746.9875 26.8 
" style="fill:none;stroke:#000000;stroke-linecap:square;stroke-linejoin:miter;stroke-width:0.8;"/>
   </g>
   <g id="text_32">
    <!-- CH4 -->
    <defs>
     <path d="M 9.8125 72.90625 
L 19.671875 72.90625 
L 19.671875 43.015625 
L 55.515625 43.015625 
L 55.515625 72.90625 
L 65.375 72.90625 
L 65.375 0 
L 55.515625 0 
L 55.515625 34.71875 
L 19.671875 34.71875 
L 19.671875 0 
L 9.8125 0 
z
" id="DejaVuSans-72"/>
    </defs>
    <g transform="translate(566.949375 20.8)scale(0.12 -0.12)">
     <use xlink:href="#DejaVuSans-67"/>
     <use x="69.824219" xlink:href="#DejaVuSans-72"/>
     <use x="145.019531" xlink:href="#DejaVuSans-52"/>
    </g>
   </g>
  </g>
  <g id="axes_3">
   <g id="patch_12">
    <path d="M 793.475 332.2 
L 1128.5125 332.2 
L 1128.5125 26.8 
L 793.475 26.8 
z
" style="fill:#ffffff;"/>
   </g>
   <g id="matplotlib.axis_5">
    <g id="xtick_13">
     <g id="line2d_59">
      <g>
       <use style="stroke:#000000;stroke-width:0.8;" x="793.475" xlink:href="#m9ca19440f4" y="332.2"/>
      </g>
     </g>
     <g id="text_33">
      <!-- 1900 -->
      <g transform="translate(780.75 346.798438)scale(0.1 -0.1)">
       <use xlink:href="#DejaVuSans-49"/>
       <use x="63.623047" xlink:href="#DejaVuSans-57"/>
       <use x="127.246094" xlink:href="#DejaVuSans-48"/>
       <use x="190.869141" xlink:href="#DejaVuSans-48"/>
      </g>
     </g>
    </g>
    <g id="xtick_14">
     <g id="line2d_60">
      <g>
       <use style="stroke:#000000;stroke-width:0.8;" x="860.4825" xlink:href="#m9ca19440f4" y="332.2"/>
      </g>
     </g>
     <g id="text_34">
      <!-- 1950 -->
      <g transform="translate(847.7575 346.798438)scale(0.1 -0.1)">
       <use xlink:href="#DejaVuSans-49"/>
       <use x="63.623047" xlink:href="#DejaVuSans-57"/>
       <use x="127.246094" xlink:href="#DejaVuSans-53"/>
       <use x="190.869141" xlink:href="#DejaVuSans-48"/>
      </g>
     </g>
    </g>
    <g id="xtick_15">
     <g id="line2d_61">
      <g>
       <use style="stroke:#000000;stroke-width:0.8;" x="927.49" xlink:href="#m9ca19440f4" y="332.2"/>
      </g>
     </g>
     <g id="text_35">
      <!-- 2000 -->
      <g transform="translate(914.765 346.798438)scale(0.1 -0.1)">
       <use xlink:href="#DejaVuSans-50"/>
       <use x="63.623047" xlink:href="#DejaVuSans-48"/>
       <use x="127.246094" xlink:href="#DejaVuSans-48"/>
       <use x="190.869141" xlink:href="#DejaVuSans-48"/>
      </g>
     </g>
    </g>
    <g id="xtick_16">
     <g id="line2d_62">
      <g>
       <use style="stroke:#000000;stroke-width:0.8;" x="994.4975" xlink:href="#m9ca19440f4" y="332.2"/>
      </g>
     </g>
     <g id="text_36">
      <!-- 2050 -->
      <g transform="translate(981.7725 346.798438)scale(0.1 -0.1)">
       <use xlink:href="#DejaVuSans-50"/>
       <use x="63.623047" xlink:href="#DejaVuSans-48"/>
       <use x="127.246094" xlink:href="#DejaVuSans-53"/>
       <use x="190.869141" xlink:href="#DejaVuSans-48"/>
      </g>
     </g>
    </g>
    <g id="xtick_17">
     <g id="line2d_63">
      <g>
       <use style="stroke:#000000;stroke-width:0.8;" x="1061.505" xlink:href="#m9ca19440f4" y="332.2"/>
      </g>
     </g>
     <g id="text_37">
      <!-- 2100 -->
      <g transform="translate(1048.78 346.798438)scale(0.1 -0.1)">
       <use xlink:href="#DejaVuSans-50"/>
       <use x="63.623047" xlink:href="#DejaVuSans-49"/>
       <use x="127.246094" xlink:href="#DejaVuSans-48"/>
       <use x="190.869141" xlink:href="#DejaVuSans-48"/>
      </g>
     </g>
    </g>
    <g id="xtick_18">
     <g id="line2d_64">
      <g>
       <use style="stroke:#000000;stroke-width:0.8;" x="1128.5125" xlink:href="#m9ca19440f4" y="332.2"/>
      </g>
     </g>
     <g id="text_38">
      <!-- 2150 -->
      <g transform="translate(1115.7875 346.798438)scale(0.1 -0.1)">
       <use xlink:href="#DejaVuSans-50"/>
       <use x="63.623047" xlink:href="#DejaVuSans-49"/>
       <use x="127.246094" xlink:href="#DejaVuSans-53"/>
       <use x="190.869141" xlink:href="#DejaVuSans-48"/>
      </g>
     </g>
    </g>
   </g>
   <g id="matplotlib.axis_6">
    <g id="ytick_13">
     <g id="line2d_65">
      <g>
       <use style="stroke:#000000;stroke-width:0.8;" x="793.475" xlink:href="#mec84fd8ef0" y="329.531703"/>
      </g>
     </g>
     <g id="text_39">
      <!-- 0.0 -->
      <g transform="translate(770.571875 333.330922)scale(0.1 -0.1)">
       <use xlink:href="#DejaVuSans-48"/>
       <use x="63.623047" xlink:href="#DejaVuSans-46"/>
       <use x="95.410156" xlink:href="#DejaVuSans-48"/>
      </g>
     </g>
    </g>
    <g id="ytick_14">
     <g id="line2d_66">
      <g>
       <use style="stroke:#000000;stroke-width:0.8;" x="793.475" xlink:href="#mec84fd8ef0" y="284.137431"/>
      </g>
     </g>
     <g id="text_40">
      <!-- 0.1 -->
      <g transform="translate(770.571875 287.936649)scale(0.1 -0.1)">
       <use xlink:href="#DejaVuSans-48"/>
       <use x="63.623047" xlink:href="#DejaVuSans-46"/>
       <use x="95.410156" xlink:href="#DejaVuSans-49"/>
      </g>
     </g>
    </g>
    <g id="ytick_15">
     <g id="line2d_67">
      <g>
       <use style="stroke:#000000;stroke-width:0.8;" x="793.475" xlink:href="#mec84fd8ef0" y="238.743158"/>
      </g>
     </g>
     <g id="text_41">
      <!-- 0.2 -->
      <g transform="translate(770.571875 242.542377)scale(0.1 -0.1)">
       <use xlink:href="#DejaVuSans-48"/>
       <use x="63.623047" xlink:href="#DejaVuSans-46"/>
       <use x="95.410156" xlink:href="#DejaVuSans-50"/>
      </g>
     </g>
    </g>
    <g id="ytick_16">
     <g id="line2d_68">
      <g>
       <use style="stroke:#000000;stroke-width:0.8;" x="793.475" xlink:href="#mec84fd8ef0" y="193.348885"/>
      </g>
     </g>
     <g id="text_42">
      <!-- 0.3 -->
      <g transform="translate(770.571875 197.148104)scale(0.1 -0.1)">
       <use xlink:href="#DejaVuSans-48"/>
       <use x="63.623047" xlink:href="#DejaVuSans-46"/>
       <use x="95.410156" xlink:href="#DejaVuSans-51"/>
      </g>
     </g>
    </g>
    <g id="ytick_17">
     <g id="line2d_69">
      <g>
       <use style="stroke:#000000;stroke-width:0.8;" x="793.475" xlink:href="#mec84fd8ef0" y="147.954613"/>
      </g>
     </g>
     <g id="text_43">
      <!-- 0.4 -->
      <g transform="translate(770.571875 151.753831)scale(0.1 -0.1)">
       <use xlink:href="#DejaVuSans-48"/>
       <use x="63.623047" xlink:href="#DejaVuSans-46"/>
       <use x="95.410156" xlink:href="#DejaVuSans-52"/>
      </g>
     </g>
    </g>
    <g id="ytick_18">
     <g id="line2d_70">
      <g>
       <use style="stroke:#000000;stroke-width:0.8;" x="793.475" xlink:href="#mec84fd8ef0" y="102.56034"/>
      </g>
     </g>
     <g id="text_44">
      <!-- 0.5 -->
      <g transform="translate(770.571875 106.359559)scale(0.1 -0.1)">
       <use xlink:href="#DejaVuSans-48"/>
       <use x="63.623047" xlink:href="#DejaVuSans-46"/>
       <use x="95.410156" xlink:href="#DejaVuSans-53"/>
      </g>
     </g>
    </g>
    <g id="ytick_19">
     <g id="line2d_71">
      <g>
       <use style="stroke:#000000;stroke-width:0.8;" x="793.475" xlink:href="#mec84fd8ef0" y="57.166067"/>
      </g>
     </g>
     <g id="text_45">
      <!-- 0.6 -->
      <g transform="translate(770.571875 60.965286)scale(0.1 -0.1)">
       <use xlink:href="#DejaVuSans-48"/>
       <use x="63.623047" xlink:href="#DejaVuSans-46"/>
       <use x="95.410156" xlink:href="#DejaVuSans-54"/>
      </g>
     </g>
    </g>
   </g>
   <g id="line2d_72">
    <path clip-path="url(#pbf813d9ac7)" d="M 793.475 316.801528 
L 804.1962 315.508177 
L 813.57725 313.848175 
L 817.5977 312.85372 
L 829.65905 309.950636 
L 851.10145 305.778595 
L 856.46205 304.355941 
L 861.82265 303.008403 
L 871.2037 300.646171 
L 877.90445 298.616157 
L 883.26505 296.338032 
L 885.94535 295.03891 
L 889.9658 292.842014 
L 893.98625 290.29188 
L 896.66655 288.342965 
L 899.34685 286.36978 
L 900.687 285.452606 
L 904.70745 282.002981 
L 906.0476 281.1613 
L 908.7279 279.211093 
L 910.06805 278.51714 
L 911.4082 277.197993 
L 912.74835 275.344574 
L 914.0885 273.966705 
L 915.42865 273.083304 
L 919.4491 270.989137 
L 923.46955 267.96541 
L 926.14985 265.8726 
L 928.83015 264.157239 
L 935.5309 258.999762 
L 946.2521 251.490395 
L 950.27255 248.947087 
L 954.293 246.603028 
L 960.99375 243.027011 
L 967.6945 239.672801 
L 974.39525 236.536649 
L 981.096 233.639652 
L 985.11645 232.056623 
L 989.1369 230.743396 
L 993.15735 229.7058 
L 997.1778 228.930308 
L 1002.5384 228.172298 
L 1007.899 227.681999 
L 1023.9808 226.799266 
L 1033.36185 226.421444 
L 1042.7429 226.250218 
L 1052.12395 226.298225 
L 1061.505 226.578022 
L 1097.68905 228.059988 
L 1128.5125 229.067365 
L 1128.5125 229.067365 
" style="fill:none;stroke:#0000ff;stroke-linecap:square;stroke-width:1.5;"/>
   </g>
   <g id="line2d_73">
    <path clip-path="url(#pbf813d9ac7)" d="M 793.475 318.318182 
L 802.85605 317.204675 
L 812.2371 315.517997 
L 814.9174 314.943765 
L 829.65905 311.201577 
L 851.10145 306.86896 
L 856.46205 305.39177 
L 861.82265 303.992664 
L 871.2037 301.540286 
L 877.90445 299.433056 
L 883.26505 297.06853 
L 885.94535 295.720284 
L 889.9658 293.440488 
L 893.98625 290.794444 
L 896.66655 288.772499 
L 899.34685 286.725478 
L 900.687 285.77412 
L 904.70745 282.19614 
L 906.0476 281.323208 
L 908.7279 279.300812 
L 910.06805 278.581194 
L 911.4082 277.213933 
L 912.74835 275.292116 
L 914.0885 273.863381 
L 915.42865 272.947497 
L 919.4491 270.776734 
L 923.46955 267.642841 
L 926.14985 265.473984 
L 928.83015 263.696526 
L 935.5309 258.353148 
L 946.2521 250.57557 
L 950.27255 247.942076 
L 954.293 245.515185 
L 960.99375 241.813359 
L 967.6945 238.341741 
L 974.39525 235.096327 
L 981.096 232.098853 
L 985.11645 230.461077 
L 989.1369 229.102536 
L 993.15735 228.029211 
L 997.1778 227.227035 
L 1002.5384 226.44299 
L 1007.899 225.935849 
L 1023.9808 225.022853 
L 1033.36185 224.632099 
L 1042.7429 224.455002 
L 1052.12395 224.50465 
L 1061.505 224.794029 
L 1097.68905 226.326812 
L 1128.5125 227.368806 
L 1128.5125 227.368806 
" style="fill:none;stroke:#0000ff;stroke-dasharray:1.5,2.475;stroke-dashoffset:0;stroke-width:1.5;"/>
   </g>
   <g id="line2d_74">
    <path clip-path="url(#pbf813d9ac7)" d="M 793.475 316.801528 
L 804.1962 315.508177 
L 813.57725 313.848175 
L 817.5977 312.85372 
L 829.65905 309.950636 
L 851.10145 305.778595 
L 856.46205 304.355941 
L 861.82265 303.008403 
L 871.2037 300.646171 
L 877.90445 298.616157 
L 883.26505 296.338032 
L 885.94535 295.03891 
L 889.9658 292.842014 
L 893.98625 290.29188 
L 896.66655 288.342965 
L 899.34685 286.36978 
L 900.687 285.452606 
L 904.70745 282.002981 
L 906.0476 281.1613 
L 908.7279 279.211093 
L 910.06805 278.51714 
L 911.4082 277.197993 
L 912.74835 275.344574 
L 914.0885 273.966705 
L 915.42865 273.083304 
L 919.4491 270.989137 
L 923.46955 267.96541 
L 926.14985 265.8726 
L 928.83015 264.157239 
L 935.5309 258.999762 
L 958.31345 242.637226 
L 977.07555 229.182679 
L 985.11645 223.71046 
L 991.8172 219.431774 
L 998.51795 215.430962 
L 1005.2187 211.683811 
L 1011.91945 208.178042 
L 1018.6202 204.93387 
L 1025.32095 201.949581 
L 1032.0217 199.244428 
L 1038.72245 196.80192 
L 1048.1035 193.629159 
L 1057.48455 190.686292 
L 1066.8656 187.982507 
L 1073.56635 186.306187 
L 1080.2671 184.857601 
L 1086.96785 183.625796 
L 1093.6686 182.600352 
L 1100.36935 181.771456 
L 1108.41025 181.023193 
L 1116.45115 180.529555 
L 1124.49205 180.276498 
L 1128.5125 180.238143 
L 1128.5125 180.238143 
" style="fill:none;stroke:#daa520;stroke-linecap:square;stroke-width:1.5;"/>
   </g>
   <g id="line2d_75">
    <path clip-path="url(#pbf813d9ac7)" d="M 793.475 318.318182 
L 802.85605 317.204675 
L 812.2371 315.517997 
L 814.9174 314.943765 
L 829.65905 311.201577 
L 851.10145 306.86896 
L 856.46205 305.39177 
L 861.82265 303.992664 
L 871.2037 301.540286 
L 877.90445 299.433056 
L 883.26505 297.06853 
L 885.94535 295.720284 
L 889.9658 293.440488 
L 893.98625 290.794444 
L 896.66655 288.772499 
L 899.34685 286.725478 
L 900.687 285.77412 
L 904.70745 282.19614 
L 906.0476 281.323208 
L 908.7279 279.300812 
L 910.06805 278.581194 
L 911.4082 277.213933 
L 912.74835 275.292116 
L 914.0885 273.863381 
L 915.42865 272.947497 
L 919.4491 270.776734 
L 923.46955 267.642841 
L 926.14985 265.473984 
L 928.83015 263.696526 
L 935.5309 258.353148 
L 959.6536 240.406826 
L 977.07555 227.488202 
L 985.11645 221.828571 
L 991.8172 217.4044 
L 998.51795 213.268369 
L 1005.2187 209.395307 
L 1011.91945 205.772367 
L 1018.6202 202.420313 
L 1025.32095 199.337257 
L 1032.0217 196.542944 
L 1038.72245 194.020239 
L 1048.1035 190.743767 
L 1057.48455 187.705133 
L 1065.52545 185.289037 
L 1072.2262 183.510176 
L 1078.92695 181.968805 
L 1085.6277 180.653496 
L 1092.32845 179.553362 
L 1099.0292 178.6581 
L 1105.72995 177.958016 
L 1113.77085 177.362648 
L 1121.81175 177.020289 
L 1128.5125 176.920389 
L 1128.5125 176.920389 
" style="fill:none;stroke:#daa520;stroke-dasharray:1.5,2.475;stroke-dashoffset:0;stroke-width:1.5;"/>
   </g>
   <g id="line2d_76">
    <path clip-path="url(#pbf813d9ac7)" d="M 793.475 316.801528 
L 804.1962 315.508177 
L 813.57725 313.848175 
L 817.5977 312.85372 
L 829.65905 309.950636 
L 851.10145 305.778595 
L 856.46205 304.355941 
L 861.82265 303.008403 
L 871.2037 300.646171 
L 877.90445 298.616157 
L 883.26505 296.338032 
L 885.94535 295.03891 
L 889.9658 292.842014 
L 893.98625 290.29188 
L 896.66655 288.342965 
L 899.34685 286.36978 
L 900.687 285.452606 
L 904.70745 282.002981 
L 906.0476 281.1613 
L 908.7279 279.211093 
L 910.06805 278.51714 
L 911.4082 277.197993 
L 912.74835 275.344574 
L 914.0885 273.966705 
L 915.42865 273.083304 
L 919.4491 270.989137 
L 923.46955 267.96541 
L 926.14985 265.8726 
L 928.83015 264.157239 
L 935.5309 258.999762 
L 940.8915 255.029725 
L 947.59225 249.931282 
L 952.95285 246.149275 
L 963.67405 238.796945 
L 969.03465 234.768205 
L 974.39525 230.491575 
L 979.75585 225.974931 
L 986.4566 220.023457 
L 993.15735 213.804309 
L 1001.19825 206.019213 
L 1009.23915 197.900981 
L 1021.3005 185.326519 
L 1032.0217 174.12653 
L 1040.0626 165.994147 
L 1046.76335 159.565173 
L 1053.4641 153.474885 
L 1060.16485 147.745585 
L 1065.52545 143.441282 
L 1069.5459 140.483732 
L 1073.56635 137.770056 
L 1077.5868 135.292206 
L 1081.60725 133.042299 
L 1085.6277 131.012832 
L 1089.64815 129.196667 
L 1093.6686 127.586997 
L 1097.68905 126.177348 
L 1101.7095 124.961541 
L 1105.72995 123.933655 
L 1109.7504 123.088087 
L 1113.77085 122.419419 
L 1117.7913 121.922508 
L 1123.1519 121.518652 
L 1128.5125 121.39771 
L 1128.5125 121.39771 
" style="fill:none;stroke:#808080;stroke-linecap:square;stroke-width:1.5;"/>
   </g>
   <g id="line2d_77">
    <path clip-path="url(#pbf813d9ac7)" d="M 793.475 318.318182 
L 802.85605 317.204675 
L 812.2371 315.517997 
L 814.9174 314.943765 
L 829.65905 311.201577 
L 851.10145 306.86896 
L 856.46205 305.39177 
L 861.82265 303.992664 
L 871.2037 301.540286 
L 877.90445 299.433056 
L 883.26505 297.06853 
L 885.94535 295.720284 
L 889.9658 293.440488 
L 893.98625 290.794444 
L 896.66655 288.772499 
L 899.34685 286.725478 
L 900.687 285.77412 
L 904.70745 282.19614 
L 906.0476 281.323208 
L 908.7279 279.300812 
L 910.06805 278.581194 
L 911.4082 277.213933 
L 912.74835 275.292116 
L 914.0885 273.863381 
L 915.42865 272.947497 
L 919.4491 270.776734 
L 923.46955 267.642841 
L 926.14985 265.473984 
L 928.83015 263.696526 
L 935.5309 258.353148 
L 940.8915 254.240981 
L 947.59225 248.961173 
L 952.95285 245.045467 
L 963.67405 237.43539 
L 969.03465 233.266593 
L 974.39525 228.8422 
L 979.75585 224.170484 
L 986.4566 218.01626 
L 993.15735 211.587124 
L 1001.19825 203.541883 
L 1009.23915 195.155582 
L 1021.3005 182.17228 
L 1032.0217 170.61463 
L 1040.0626 162.226331 
L 1046.76335 155.597301 
L 1053.4641 149.319305 
L 1060.16485 143.415054 
L 1065.52545 138.980319 
L 1069.5459 135.933651 
L 1073.56635 133.138576 
L 1077.5868 130.5867 
L 1081.60725 128.269827 
L 1085.6277 126.18016 
L 1089.64815 124.310284 
L 1093.6686 122.653143 
L 1097.68905 121.202016 
L 1101.7095 119.950505 
L 1105.72995 118.892505 
L 1109.7504 118.022183 
L 1113.77085 117.333974 
L 1117.7913 116.822553 
L 1121.81175 116.482841 
L 1127.17235 116.28863 
L 1128.5125 116.282443 
L 1128.5125 116.282443 
" style="fill:none;stroke:#808080;stroke-dasharray:1.5,2.475;stroke-dashoffset:0;stroke-width:1.5;"/>
   </g>
   <g id="line2d_78">
    <path clip-path="url(#pbf813d9ac7)" d="M 793.475 316.801528 
L 804.1962 315.508177 
L 813.57725 313.848175 
L 817.5977 312.85372 
L 829.65905 309.950636 
L 851.10145 305.778595 
L 856.46205 304.355941 
L 861.82265 303.008403 
L 871.2037 300.646171 
L 877.90445 298.616157 
L 883.26505 296.338032 
L 885.94535 295.03891 
L 889.9658 292.842014 
L 893.98625 290.29188 
L 896.66655 288.342965 
L 899.34685 286.36978 
L 900.687 285.452606 
L 904.70745 282.002981 
L 906.0476 281.1613 
L 908.7279 279.211093 
L 910.06805 278.51714 
L 911.4082 277.197993 
L 912.74835 275.344574 
L 914.0885 273.966705 
L 915.42865 273.083304 
L 919.4491 270.989137 
L 923.46955 267.96541 
L 926.14985 265.8726 
L 928.83015 264.157239 
L 935.5309 258.999762 
L 940.8915 255.043988 
L 944.91195 251.872512 
L 948.9324 248.438522 
L 952.95285 244.743862 
L 958.31345 239.440009 
L 963.67405 233.785296 
L 969.03465 227.810663 
L 974.39525 221.529284 
L 979.75585 214.953847 
L 987.79675 204.683175 
L 1022.64065 159.928647 
L 1050.7838 124.82496 
L 1061.505 111.626904 
L 1068.20575 103.640883 
L 1074.9065 96.062748 
L 1081.60725 88.876414 
L 1088.308 82.059196 
L 1095.00875 75.589952 
L 1101.7095 69.449032 
L 1108.41025 63.618065 
L 1115.111 58.079911 
L 1121.81175 52.818545 
L 1128.5125 47.818944 
L 1128.5125 47.818944 
" style="fill:none;stroke:#ff0000;stroke-linecap:square;stroke-width:1.5;"/>
   </g>
   <g id="line2d_79">
    <path clip-path="url(#pbf813d9ac7)" d="M 793.475 318.318182 
L 802.85605 317.204675 
L 812.2371 315.517997 
L 814.9174 314.943765 
L 829.65905 311.201577 
L 851.10145 306.86896 
L 856.46205 305.39177 
L 861.82265 303.992664 
L 871.2037 301.540286 
L 877.90445 299.433056 
L 883.26505 297.06853 
L 885.94535 295.720284 
L 889.9658 293.440488 
L 893.98625 290.794444 
L 896.66655 288.772499 
L 899.34685 286.725478 
L 900.687 285.77412 
L 904.70745 282.19614 
L 906.0476 281.323208 
L 908.7279 279.300812 
L 910.06805 278.581194 
L 911.4082 277.213933 
L 912.74835 275.292116 
L 914.0885 273.863381 
L 915.42865 272.947497 
L 919.4491 270.776734 
L 923.46955 267.642841 
L 926.14985 265.473984 
L 928.83015 263.696526 
L 935.5309 258.353148 
L 940.8915 254.255756 
L 944.91195 250.971331 
L 948.9324 247.415625 
L 952.95285 243.590685 
L 956.9733 239.509904 
L 962.3339 233.744268 
L 967.6945 227.644181 
L 973.0551 221.226407 
L 978.4157 214.50224 
L 985.11645 205.721644 
L 1025.32095 152.510677 
L 1053.4641 116.381512 
L 1064.1853 102.894909 
L 1070.88605 94.848543 
L 1077.5868 87.221983 
L 1084.28755 79.990998 
L 1090.9883 73.132554 
L 1097.68905 66.625231 
L 1104.3898 60.44909 
L 1111.09055 54.585535 
L 1117.7913 49.017205 
L 1124.49205 43.727869 
L 1128.5125 40.681818 
L 1128.5125 40.681818 
" style="fill:none;stroke:#ff0000;stroke-dasharray:1.5,2.475;stroke-dashoffset:0;stroke-width:1.5;"/>
   </g>
   <g id="patch_13">
    <path d="M 793.475 332.2 
L 793.475 26.8 
" style="fill:none;stroke:#000000;stroke-linecap:square;stroke-linejoin:miter;stroke-width:0.8;"/>
   </g>
   <g id="patch_14">
    <path d="M 1128.5125 332.2 
L 1128.5125 26.8 
" style="fill:none;stroke:#000000;stroke-linecap:square;stroke-linejoin:miter;stroke-width:0.8;"/>
   </g>
   <g id="patch_15">
    <path d="M 793.475 332.2 
L 1128.5125 332.2 
" style="fill:none;stroke:#000000;stroke-linecap:square;stroke-linejoin:miter;stroke-width:0.8;"/>
   </g>
   <g id="patch_16">
    <path d="M 793.475 26.8 
L 1128.5125 26.8 
" style="fill:none;stroke:#000000;stroke-linecap:square;stroke-linejoin:miter;stroke-width:0.8;"/>
   </g>
   <g id="text_46">
    <!-- N2O -->
    <defs>
     <path d="M 9.8125 72.90625 
L 23.09375 72.90625 
L 55.421875 11.921875 
L 55.421875 72.90625 
L 64.984375 72.90625 
L 64.984375 0 
L 51.703125 0 
L 19.390625 60.984375 
L 19.390625 0 
L 9.8125 0 
z
" id="DejaVuSans-78"/>
    </defs>
    <g transform="translate(947.964375 20.8)scale(0.12 -0.12)">
     <use xlink:href="#DejaVuSans-78"/>
     <use x="74.804688" xlink:href="#DejaVuSans-50"/>
     <use x="138.427734" xlink:href="#DejaVuSans-79"/>
    </g>
   </g>
  </g>
 </g>
 <defs>
  <clipPath id="p254cf525f9">
   <rect height="305.4" width="335.0375" x="30.425" y="26.8"/>
  </clipPath>
  <clipPath id="p08f82ad5a5">
   <rect height="305.4" width="335.0375" x="411.95" y="26.8"/>
  </clipPath>
  <clipPath id="pbf813d9ac7">
   <rect height="305.4" width="335.0375" x="793.475" y="26.8"/>
  </clipPath>
 </defs>
</svg>
