<?xml version="1.0" encoding="utf-8" standalone="no"?>
<!DOCTYPE svg PUBLIC "-//W3C//DTD SVG 1.1//EN"
  "http://www.w3.org/Graphics/SVG/1.1/DTD/svg11.dtd">
<!-- Created with matplotlib (https://matplotlib.org/) -->
<svg height="351.59625pt" version="1.1" viewBox="0 0 1144.7625 351.59625" width="1144.7625pt" xmlns="http://www.w3.org/2000/svg" xmlns:xlink="http://www.w3.org/1999/xlink">
 <defs>
  <style type="text/css">
*{stroke-linecap:butt;stroke-linejoin:round;}
  </style>
 </defs>
 <g id="figure_1">
  <g id="patch_1">
   <path d="M 0 351.59625 
L 1144.7625 351.59625 
L 1144.7625 0 
L 0 0 
z
" style="fill:#ffffff;"/>
  </g>
  <g id="axes_1">
   <g id="patch_2">
    <path d="M 20.5625 327.718125 
L 357.620833 327.718125 
L 357.620833 22.318125 
L 20.5625 22.318125 
z
" style="fill:#ffffff;"/>
   </g>
   <g id="matplotlib.axis_1">
    <g id="xtick_1">
     <g id="line2d_1">
      <defs>
       <path d="M 0 0 
L 0 3.5 
" id="m09a873acc5" style="stroke:#000000;stroke-width:0.8;"/>
      </defs>
      <g>
       <use style="stroke:#000000;stroke-width:0.8;" x="20.5625" xlink:href="#m09a873acc5" y="327.718125"/>
      </g>
     </g>
     <g id="text_1">
      <!-- 1900 -->
      <defs>
       <path d="M 12.40625 8.296875 
L 28.515625 8.296875 
L 28.515625 63.921875 
L 10.984375 60.40625 
L 10.984375 69.390625 
L 28.421875 72.90625 
L 38.28125 72.90625 
L 38.28125 8.296875 
L 54.390625 8.296875 
L 54.390625 0 
L 12.40625 0 
z
" id="DejaVuSans-49"/>
       <path d="M 10.984375 1.515625 
L 10.984375 10.5 
Q 14.703125 8.734375 18.5 7.8125 
Q 22.3125 6.890625 25.984375 6.890625 
Q 35.75 6.890625 40.890625 13.453125 
Q 46.046875 20.015625 46.78125 33.40625 
Q 43.953125 29.203125 39.59375 26.953125 
Q 35.25 24.703125 29.984375 24.703125 
Q 19.046875 24.703125 12.671875 31.3125 
Q 6.296875 37.9375 6.296875 49.421875 
Q 6.296875 60.640625 12.9375 67.421875 
Q 19.578125 74.21875 30.609375 74.21875 
Q 43.265625 74.21875 49.921875 64.515625 
Q 56.59375 54.828125 56.59375 36.375 
Q 56.59375 19.140625 48.40625 8.859375 
Q 40.234375 -1.421875 26.421875 -1.421875 
Q 22.703125 -1.421875 18.890625 -0.6875 
Q 15.09375 0.046875 10.984375 1.515625 
z
M 30.609375 32.421875 
Q 37.25 32.421875 41.125 36.953125 
Q 45.015625 41.5 45.015625 49.421875 
Q 45.015625 57.28125 41.125 61.84375 
Q 37.25 66.40625 30.609375 66.40625 
Q 23.96875 66.40625 20.09375 61.84375 
Q 16.21875 57.28125 16.21875 49.421875 
Q 16.21875 41.5 20.09375 36.953125 
Q 23.96875 32.421875 30.609375 32.421875 
z
" id="DejaVuSans-57"/>
       <path d="M 31.78125 66.40625 
Q 24.171875 66.40625 20.328125 58.90625 
Q 16.5 51.421875 16.5 36.375 
Q 16.5 21.390625 20.328125 13.890625 
Q 24.171875 6.390625 31.78125 6.390625 
Q 39.453125 6.390625 43.28125 13.890625 
Q 47.125 21.390625 47.125 36.375 
Q 47.125 51.421875 43.28125 58.90625 
Q 39.453125 66.40625 31.78125 66.40625 
z
M 31.78125 74.21875 
Q 44.046875 74.21875 50.515625 64.515625 
Q 56.984375 54.828125 56.984375 36.375 
Q 56.984375 17.96875 50.515625 8.265625 
Q 44.046875 -1.421875 31.78125 -1.421875 
Q 19.53125 -1.421875 13.0625 8.265625 
Q 6.59375 17.96875 6.59375 36.375 
Q 6.59375 54.828125 13.0625 64.515625 
Q 19.53125 74.21875 31.78125 74.21875 
z
" id="DejaVuSans-48"/>
      </defs>
      <g transform="translate(7.8375 342.316562)scale(0.1 -0.1)">
       <use xlink:href="#DejaVuSans-49"/>
       <use x="63.623047" xlink:href="#DejaVuSans-57"/>
       <use x="127.246094" xlink:href="#DejaVuSans-48"/>
       <use x="190.869141" xlink:href="#DejaVuSans-48"/>
      </g>
     </g>
    </g>
    <g id="xtick_2">
     <g id="line2d_2">
      <g>
       <use style="stroke:#000000;stroke-width:0.8;" x="87.974167" xlink:href="#m09a873acc5" y="327.718125"/>
      </g>
     </g>
     <g id="text_2">
      <!-- 1950 -->
      <defs>
       <path d="M 10.796875 72.90625 
L 49.515625 72.90625 
L 49.515625 64.59375 
L 19.828125 64.59375 
L 19.828125 46.734375 
Q 21.96875 47.46875 24.109375 47.828125 
Q 26.265625 48.1875 28.421875 48.1875 
Q 40.625 48.1875 47.75 41.5 
Q 54.890625 34.8125 54.890625 23.390625 
Q 54.890625 11.625 47.5625 5.09375 
Q 40.234375 -1.421875 26.90625 -1.421875 
Q 22.3125 -1.421875 17.546875 -0.640625 
Q 12.796875 0.140625 7.71875 1.703125 
L 7.71875 11.625 
Q 12.109375 9.234375 16.796875 8.0625 
Q 21.484375 6.890625 26.703125 6.890625 
Q 35.15625 6.890625 40.078125 11.328125 
Q 45.015625 15.765625 45.015625 23.390625 
Q 45.015625 31 40.078125 35.4375 
Q 35.15625 39.890625 26.703125 39.890625 
Q 22.75 39.890625 18.8125 39.015625 
Q 14.890625 38.140625 10.796875 36.28125 
z
" id="DejaVuSans-53"/>
      </defs>
      <g transform="translate(75.249167 342.316562)scale(0.1 -0.1)">
       <use xlink:href="#DejaVuSans-49"/>
       <use x="63.623047" xlink:href="#DejaVuSans-57"/>
       <use x="127.246094" xlink:href="#DejaVuSans-53"/>
       <use x="190.869141" xlink:href="#DejaVuSans-48"/>
      </g>
     </g>
    </g>
    <g id="xtick_3">
     <g id="line2d_3">
      <g>
       <use style="stroke:#000000;stroke-width:0.8;" x="155.385833" xlink:href="#m09a873acc5" y="327.718125"/>
      </g>
     </g>
     <g id="text_3">
      <!-- 2000 -->
      <defs>
       <path d="M 19.1875 8.296875 
L 53.609375 8.296875 
L 53.609375 0 
L 7.328125 0 
L 7.328125 8.296875 
Q 12.9375 14.109375 22.625 23.890625 
Q 32.328125 33.6875 34.8125 36.53125 
Q 39.546875 41.84375 41.421875 45.53125 
Q 43.3125 49.21875 43.3125 52.78125 
Q 43.3125 58.59375 39.234375 62.25 
Q 35.15625 65.921875 28.609375 65.921875 
Q 23.96875 65.921875 18.8125 64.3125 
Q 13.671875 62.703125 7.8125 59.421875 
L 7.8125 69.390625 
Q 13.765625 71.78125 18.9375 73 
Q 24.125 74.21875 28.421875 74.21875 
Q 39.75 74.21875 46.484375 68.546875 
Q 53.21875 62.890625 53.21875 53.421875 
Q 53.21875 48.921875 51.53125 44.890625 
Q 49.859375 40.875 45.40625 35.40625 
Q 44.1875 33.984375 37.640625 27.21875 
Q 31.109375 20.453125 19.1875 8.296875 
z
" id="DejaVuSans-50"/>
      </defs>
      <g transform="translate(142.660833 342.316562)scale(0.1 -0.1)">
       <use xlink:href="#DejaVuSans-50"/>
       <use x="63.623047" xlink:href="#DejaVuSans-48"/>
       <use x="127.246094" xlink:href="#DejaVuSans-48"/>
       <use x="190.869141" xlink:href="#DejaVuSans-48"/>
      </g>
     </g>
    </g>
    <g id="xtick_4">
     <g id="line2d_4">
      <g>
       <use style="stroke:#000000;stroke-width:0.8;" x="222.7975" xlink:href="#m09a873acc5" y="327.718125"/>
      </g>
     </g>
     <g id="text_4">
      <!-- 2050 -->
      <g transform="translate(210.0725 342.316562)scale(0.1 -0.1)">
       <use xlink:href="#DejaVuSans-50"/>
       <use x="63.623047" xlink:href="#DejaVuSans-48"/>
       <use x="127.246094" xlink:href="#DejaVuSans-53"/>
       <use x="190.869141" xlink:href="#DejaVuSans-48"/>
      </g>
     </g>
    </g>
    <g id="xtick_5">
     <g id="line2d_5">
      <g>
       <use style="stroke:#000000;stroke-width:0.8;" x="290.209167" xlink:href="#m09a873acc5" y="327.718125"/>
      </g>
     </g>
     <g id="text_5">
      <!-- 2100 -->
      <g transform="translate(277.484167 342.316562)scale(0.1 -0.1)">
       <use xlink:href="#DejaVuSans-50"/>
       <use x="63.623047" xlink:href="#DejaVuSans-49"/>
       <use x="127.246094" xlink:href="#DejaVuSans-48"/>
       <use x="190.869141" xlink:href="#DejaVuSans-48"/>
      </g>
     </g>
    </g>
    <g id="xtick_6">
     <g id="line2d_6">
      <g>
       <use style="stroke:#000000;stroke-width:0.8;" x="357.620833" xlink:href="#m09a873acc5" y="327.718125"/>
      </g>
     </g>
     <g id="text_6">
      <!-- 2150 -->
      <g transform="translate(344.895833 342.316562)scale(0.1 -0.1)">
       <use xlink:href="#DejaVuSans-50"/>
       <use x="63.623047" xlink:href="#DejaVuSans-49"/>
       <use x="127.246094" xlink:href="#DejaVuSans-53"/>
       <use x="190.869141" xlink:href="#DejaVuSans-48"/>
      </g>
     </g>
    </g>
   </g>
   <g id="matplotlib.axis_2">
    <g id="ytick_1">
     <g id="line2d_7">
      <defs>
       <path d="M 0 0 
L -3.5 0 
" id="m9293eacb06" style="stroke:#000000;stroke-width:0.8;"/>
      </defs>
      <g>
       <use style="stroke:#000000;stroke-width:0.8;" x="20.5625" xlink:href="#m9293eacb06" y="313.836307"/>
      </g>
     </g>
     <g id="text_7">
      <!-- 0 -->
      <g transform="translate(7.2 317.635526)scale(0.1 -0.1)">
       <use xlink:href="#DejaVuSans-48"/>
      </g>
     </g>
    </g>
    <g id="ytick_2">
     <g id="line2d_8">
      <g>
       <use style="stroke:#000000;stroke-width:0.8;" x="20.5625" xlink:href="#m9293eacb06" y="254.45329"/>
      </g>
     </g>
     <g id="text_8">
      <!-- 2 -->
      <g transform="translate(7.2 258.252509)scale(0.1 -0.1)">
       <use xlink:href="#DejaVuSans-50"/>
      </g>
     </g>
    </g>
    <g id="ytick_3">
     <g id="line2d_9">
      <g>
       <use style="stroke:#000000;stroke-width:0.8;" x="20.5625" xlink:href="#m9293eacb06" y="195.070273"/>
      </g>
     </g>
     <g id="text_9">
      <!-- 4 -->
      <defs>
       <path d="M 37.796875 64.3125 
L 12.890625 25.390625 
L 37.796875 25.390625 
z
M 35.203125 72.90625 
L 47.609375 72.90625 
L 47.609375 25.390625 
L 58.015625 25.390625 
L 58.015625 17.1875 
L 47.609375 17.1875 
L 47.609375 0 
L 37.796875 0 
L 37.796875 17.1875 
L 4.890625 17.1875 
L 4.890625 26.703125 
z
" id="DejaVuSans-52"/>
      </defs>
      <g transform="translate(7.2 198.869492)scale(0.1 -0.1)">
       <use xlink:href="#DejaVuSans-52"/>
      </g>
     </g>
    </g>
    <g id="ytick_4">
     <g id="line2d_10">
      <g>
       <use style="stroke:#000000;stroke-width:0.8;" x="20.5625" xlink:href="#m9293eacb06" y="135.687256"/>
      </g>
     </g>
     <g id="text_10">
      <!-- 6 -->
      <defs>
       <path d="M 33.015625 40.375 
Q 26.375 40.375 22.484375 35.828125 
Q 18.609375 31.296875 18.609375 23.390625 
Q 18.609375 15.53125 22.484375 10.953125 
Q 26.375 6.390625 33.015625 6.390625 
Q 39.65625 6.390625 43.53125 10.953125 
Q 47.40625 15.53125 47.40625 23.390625 
Q 47.40625 31.296875 43.53125 35.828125 
Q 39.65625 40.375 33.015625 40.375 
z
M 52.59375 71.296875 
L 52.59375 62.3125 
Q 48.875 64.0625 45.09375 64.984375 
Q 41.3125 65.921875 37.59375 65.921875 
Q 27.828125 65.921875 22.671875 59.328125 
Q 17.53125 52.734375 16.796875 39.40625 
Q 19.671875 43.65625 24.015625 45.921875 
Q 28.375 48.1875 33.59375 48.1875 
Q 44.578125 48.1875 50.953125 41.515625 
Q 57.328125 34.859375 57.328125 23.390625 
Q 57.328125 12.15625 50.6875 5.359375 
Q 44.046875 -1.421875 33.015625 -1.421875 
Q 20.359375 -1.421875 13.671875 8.265625 
Q 6.984375 17.96875 6.984375 36.375 
Q 6.984375 53.65625 15.1875 63.9375 
Q 23.390625 74.21875 37.203125 74.21875 
Q 40.921875 74.21875 44.703125 73.484375 
Q 48.484375 72.75 52.59375 71.296875 
z
" id="DejaVuSans-54"/>
      </defs>
      <g transform="translate(7.2 139.486475)scale(0.1 -0.1)">
       <use xlink:href="#DejaVuSans-54"/>
      </g>
     </g>
    </g>
    <g id="ytick_5">
     <g id="line2d_11">
      <g>
       <use style="stroke:#000000;stroke-width:0.8;" x="20.5625" xlink:href="#m9293eacb06" y="76.304239"/>
      </g>
     </g>
     <g id="text_11">
      <!-- 8 -->
      <defs>
       <path d="M 31.78125 34.625 
Q 24.75 34.625 20.71875 30.859375 
Q 16.703125 27.09375 16.703125 20.515625 
Q 16.703125 13.921875 20.71875 10.15625 
Q 24.75 6.390625 31.78125 6.390625 
Q 38.8125 6.390625 42.859375 10.171875 
Q 46.921875 13.96875 46.921875 20.515625 
Q 46.921875 27.09375 42.890625 30.859375 
Q 38.875 34.625 31.78125 34.625 
z
M 21.921875 38.8125 
Q 15.578125 40.375 12.03125 44.71875 
Q 8.5 49.078125 8.5 55.328125 
Q 8.5 64.0625 14.71875 69.140625 
Q 20.953125 74.21875 31.78125 74.21875 
Q 42.671875 74.21875 48.875 69.140625 
Q 55.078125 64.0625 55.078125 55.328125 
Q 55.078125 49.078125 51.53125 44.71875 
Q 48 40.375 41.703125 38.8125 
Q 48.828125 37.15625 52.796875 32.3125 
Q 56.78125 27.484375 56.78125 20.515625 
Q 56.78125 9.90625 50.3125 4.234375 
Q 43.84375 -1.421875 31.78125 -1.421875 
Q 19.734375 -1.421875 13.25 4.234375 
Q 6.78125 9.90625 6.78125 20.515625 
Q 6.78125 27.484375 10.78125 32.3125 
Q 14.796875 37.15625 21.921875 38.8125 
z
M 18.3125 54.390625 
Q 18.3125 48.734375 21.84375 45.5625 
Q 25.390625 42.390625 31.78125 42.390625 
Q 38.140625 42.390625 41.71875 45.5625 
Q 45.3125 48.734375 45.3125 54.390625 
Q 45.3125 60.0625 41.71875 63.234375 
Q 38.140625 66.40625 31.78125 66.40625 
Q 25.390625 66.40625 21.84375 63.234375 
Q 18.3125 60.0625 18.3125 54.390625 
z
" id="DejaVuSans-56"/>
      </defs>
      <g transform="translate(7.2 80.103458)scale(0.1 -0.1)">
       <use xlink:href="#DejaVuSans-56"/>
      </g>
     </g>
    </g>
   </g>
   <g id="line2d_12">
    <path clip-path="url(#pcdec26cd7a)" d="M 20.5625 303.676122 
L 27.303667 302.668836 
L 34.044833 301.530959 
L 40.786 300.604512 
L 52.9201 298.914877 
L 67.750667 296.312948 
L 70.447133 295.995513 
L 74.491833 295.797423 
L 78.536533 295.889835 
L 82.581233 295.929456 
L 86.625933 295.731446 
L 89.3224 295.41512 
L 93.3671 294.718693 
L 100.108267 293.113626 
L 105.5012 291.615269 
L 108.197667 290.973016 
L 112.242367 289.448007 
L 114.938833 288.258166 
L 116.287067 287.819821 
L 117.6353 287.174485 
L 118.983533 286.405614 
L 123.028233 284.880913 
L 127.072933 282.535596 
L 128.421167 281.643475 
L 129.7694 280.981727 
L 131.117633 280.468175 
L 135.162333 278.320261 
L 136.510567 277.601708 
L 140.555267 274.930246 
L 143.251733 273.755978 
L 145.9482 272.943929 
L 147.296433 272.32371 
L 151.341133 270.033963 
L 154.0376 268.148148 
L 156.734067 266.758384 
L 172.912867 255.748679 
L 182.3505 249.247968 
L 186.3952 246.654945 
L 190.4399 244.407528 
L 194.4846 242.489276 
L 198.5293 240.912812 
L 202.574 239.702153 
L 206.6187 238.785413 
L 210.6634 238.186311 
L 216.056333 237.734494 
L 222.7975 237.422423 
L 228.190433 237.436531 
L 234.9316 237.726331 
L 240.324533 238.131561 
L 245.717467 238.788394 
L 253.806867 240.028894 
L 282.119767 244.570095 
L 300.995033 247.188332 
L 334.700867 251.816202 
L 344.1385 252.952823 
L 357.620833 254.496871 
L 357.620833 254.496871 
" style="fill:none;stroke:#0000ff;stroke-linecap:square;stroke-width:1.5;"/>
   </g>
   <g id="line2d_13">
    <path clip-path="url(#pcdec26cd7a)" d="M 20.5625 303.409042 
L 27.303667 302.431584 
L 34.044833 301.327445 
L 40.786 300.428524 
L 52.9201 298.789295 
L 69.0989 296.085657 
L 73.1436 295.803707 
L 75.840067 295.765299 
L 82.581233 295.893357 
L 86.625933 295.701315 
L 89.3224 295.394543 
L 93.3671 294.719153 
L 100.108267 293.162683 
L 105.5012 291.709797 
L 108.197667 291.087221 
L 113.5906 288.985858 
L 117.6353 287.405481 
L 118.983533 286.660165 
L 123.028233 285.182644 
L 127.072933 282.910626 
L 128.421167 282.046354 
L 129.7694 281.404958 
L 131.117633 280.907628 
L 135.162333 278.827607 
L 136.510567 278.131891 
L 140.555267 275.545514 
L 143.251733 274.40876 
L 145.9482 273.62287 
L 147.296433 273.0229 
L 151.341133 270.80759 
L 154.0376 268.983248 
L 156.734067 267.639262 
L 174.2611 256.089081 
L 183.698733 249.858274 
L 187.743433 247.46904 
L 191.788133 245.40597 
L 195.832833 243.667532 
L 198.5293 242.691741 
L 202.574 241.525655 
L 206.6187 240.642846 
L 210.6634 240.065996 
L 216.056333 239.631013 
L 222.7975 239.330597 
L 228.190433 239.344178 
L 236.279833 239.699962 
L 241.672767 240.147612 
L 247.0657 240.830155 
L 256.503333 242.267301 
L 275.3786 245.230745 
L 284.816233 246.5914 
L 299.6468 248.563142 
L 345.486733 254.45699 
L 357.620833 255.79129 
L 357.620833 255.79129 
" style="fill:none;stroke:#0000ff;stroke-dasharray:1.5,2.475;stroke-dashoffset:0;stroke-width:1.5;"/>
   </g>
   <g id="line2d_14">
    <path clip-path="url(#pcdec26cd7a)" d="M 20.5625 303.676122 
L 27.303667 302.668836 
L 34.044833 301.530959 
L 40.786 300.604512 
L 52.9201 298.914877 
L 67.750667 296.312948 
L 70.447133 295.995513 
L 74.491833 295.797423 
L 78.536533 295.889835 
L 82.581233 295.929456 
L 86.625933 295.731446 
L 89.3224 295.41512 
L 93.3671 294.718693 
L 100.108267 293.113626 
L 105.5012 291.615269 
L 108.197667 290.973016 
L 112.242367 289.448007 
L 114.938833 288.258166 
L 116.287067 287.819821 
L 117.6353 287.174485 
L 118.983533 286.405614 
L 123.028233 284.880913 
L 127.072933 282.535596 
L 128.421167 281.643475 
L 129.7694 280.981727 
L 131.117633 280.468175 
L 135.162333 278.320261 
L 136.510567 277.601708 
L 140.555267 274.930246 
L 143.251733 273.755978 
L 145.9482 272.943929 
L 147.296433 272.32371 
L 151.341133 270.033963 
L 154.0376 268.148148 
L 156.734067 266.758384 
L 181.002267 250.526664 
L 191.788133 243.172945 
L 213.359867 227.999753 
L 222.7975 221.810729 
L 226.8422 219.311078 
L 230.8869 217.073346 
L 236.279833 214.370199 
L 240.324533 212.576477 
L 244.369233 211.068239 
L 248.413933 209.795751 
L 252.458633 208.71305 
L 256.503333 207.920213 
L 260.548033 207.44144 
L 264.592733 207.201664 
L 271.3339 206.836856 
L 279.4233 206.191593 
L 302.343267 203.875944 
L 313.129133 203.512131 
L 319.8703 203.497155 
L 357.620833 203.599113 
L 357.620833 203.599113 
" style="fill:none;stroke:#daa520;stroke-linecap:square;stroke-width:1.5;"/>
   </g>
   <g id="line2d_15">
    <path clip-path="url(#pcdec26cd7a)" d="M 20.5625 303.409042 
L 27.303667 302.431584 
L 34.044833 301.327445 
L 40.786 300.428524 
L 52.9201 298.789295 
L 69.0989 296.085657 
L 73.1436 295.803707 
L 75.840067 295.765299 
L 82.581233 295.893357 
L 86.625933 295.701315 
L 89.3224 295.394543 
L 93.3671 294.719153 
L 100.108267 293.162683 
L 105.5012 291.709797 
L 108.197667 291.087221 
L 113.5906 288.985858 
L 117.6353 287.405481 
L 118.983533 286.660165 
L 123.028233 285.182644 
L 127.072933 282.910626 
L 128.421167 282.046354 
L 129.7694 281.404958 
L 131.117633 280.907628 
L 135.162333 278.827607 
L 136.510567 278.131891 
L 140.555267 275.545514 
L 143.251733 274.40876 
L 145.9482 273.62287 
L 147.296433 273.0229 
L 151.341133 270.80759 
L 154.0376 268.983248 
L 156.734067 267.639262 
L 178.3058 253.707537 
L 191.788133 244.869717 
L 213.359867 230.269093 
L 222.7975 224.326451 
L 226.8422 221.928558 
L 230.8869 219.783083 
L 236.279833 217.192932 
L 240.324533 215.4751 
L 244.369233 214.031261 
L 248.413933 212.813553 
L 252.458633 211.777768 
L 256.503333 211.019459 
L 260.548033 210.561613 
L 264.592733 210.332344 
L 271.3339 209.983564 
L 279.4233 209.366734 
L 302.343267 207.15396 
L 313.129133 206.806433 
L 319.8703 206.792127 
L 357.620833 206.889515 
L 357.620833 206.889515 
" style="fill:none;stroke:#daa520;stroke-dasharray:1.5,2.475;stroke-dashoffset:0;stroke-width:1.5;"/>
   </g>
   <g id="line2d_16">
    <path clip-path="url(#pcdec26cd7a)" d="M 20.5625 303.676122 
L 27.303667 302.668836 
L 34.044833 301.530959 
L 40.786 300.604512 
L 52.9201 298.914877 
L 67.750667 296.312948 
L 70.447133 295.995513 
L 74.491833 295.797423 
L 78.536533 295.889835 
L 82.581233 295.929456 
L 86.625933 295.731446 
L 89.3224 295.41512 
L 93.3671 294.718693 
L 100.108267 293.113626 
L 105.5012 291.615269 
L 108.197667 290.973016 
L 112.242367 289.448007 
L 114.938833 288.258166 
L 116.287067 287.819821 
L 117.6353 287.174485 
L 118.983533 286.405614 
L 123.028233 284.880913 
L 127.072933 282.535596 
L 128.421167 281.643475 
L 129.7694 280.981727 
L 131.117633 280.468175 
L 135.162333 278.320261 
L 136.510567 277.601708 
L 140.555267 274.930246 
L 143.251733 273.755978 
L 145.9482 272.943929 
L 147.296433 272.32371 
L 151.341133 270.033963 
L 154.0376 268.148148 
L 156.734067 266.758384 
L 168.868167 258.701945 
L 175.609333 254.395501 
L 182.3505 250.333985 
L 195.832833 242.657453 
L 202.574 238.782519 
L 207.966933 235.353641 
L 214.7081 230.816288 
L 220.101033 226.912795 
L 226.8422 221.681325 
L 233.583367 216.13605 
L 240.324533 210.206401 
L 248.413933 202.793989 
L 268.637433 183.525593 
L 272.682133 180.216549 
L 276.726833 177.272142 
L 284.816233 171.887413 
L 291.5574 167.671897 
L 296.950333 164.52553 
L 300.995033 162.402464 
L 305.039733 160.499134 
L 310.432667 158.192241 
L 315.8256 156.156244 
L 321.218533 154.442393 
L 326.611467 152.938894 
L 332.0044 151.687491 
L 337.397333 150.706705 
L 342.790267 149.899979 
L 348.1832 149.352708 
L 354.924367 148.981808 
L 357.620833 148.922315 
L 357.620833 148.922315 
" style="fill:none;stroke:#808080;stroke-linecap:square;stroke-width:1.5;"/>
   </g>
   <g id="line2d_17">
    <path clip-path="url(#pcdec26cd7a)" d="M 20.5625 303.409042 
L 27.303667 302.431584 
L 34.044833 301.327445 
L 40.786 300.428524 
L 52.9201 298.789295 
L 69.0989 296.085657 
L 73.1436 295.803707 
L 75.840067 295.765299 
L 82.581233 295.893357 
L 86.625933 295.701315 
L 89.3224 295.394543 
L 93.3671 294.719153 
L 100.108267 293.162683 
L 105.5012 291.709797 
L 108.197667 291.087221 
L 113.5906 288.985858 
L 117.6353 287.405481 
L 118.983533 286.660165 
L 123.028233 285.182644 
L 127.072933 282.910626 
L 128.421167 282.046354 
L 129.7694 281.404958 
L 131.117633 280.907628 
L 135.162333 278.827607 
L 136.510567 278.131891 
L 140.555267 275.545514 
L 143.251733 274.40876 
L 145.9482 273.62287 
L 147.296433 273.0229 
L 151.341133 270.80759 
L 154.0376 268.983248 
L 156.734067 267.639262 
L 168.868167 259.852661 
L 175.609333 255.693929 
L 182.3505 251.774192 
L 195.832833 244.372753 
L 202.574 240.640503 
L 207.966933 237.340114 
L 214.7081 232.976104 
L 220.101033 229.224997 
L 226.8422 224.202586 
L 233.583367 218.885396 
L 240.324533 213.207411 
L 248.413933 206.12172 
L 268.637433 187.772412 
L 272.682133 184.632265 
L 276.726833 181.841177 
L 284.816233 176.744561 
L 291.5574 172.761662 
L 296.950333 169.793052 
L 300.995033 167.791998 
L 305.039733 165.999507 
L 310.432667 163.82885 
L 315.8256 161.914811 
L 321.218533 160.304907 
L 326.611467 158.893581 
L 332.0044 157.719594 
L 337.397333 156.799941 
L 342.790267 156.043796 
L 348.1832 155.530994 
L 354.924367 155.183526 
L 357.620833 155.127798 
L 357.620833 155.127798 
" style="fill:none;stroke:#808080;stroke-dasharray:1.5,2.475;stroke-dashoffset:0;stroke-width:1.5;"/>
   </g>
   <g id="line2d_18">
    <path clip-path="url(#pcdec26cd7a)" d="M 20.5625 303.676122 
L 27.303667 302.668836 
L 34.044833 301.530959 
L 40.786 300.604512 
L 52.9201 298.914877 
L 67.750667 296.312948 
L 70.447133 295.995513 
L 74.491833 295.797423 
L 78.536533 295.889835 
L 82.581233 295.929456 
L 86.625933 295.731446 
L 89.3224 295.41512 
L 93.3671 294.718693 
L 100.108267 293.113626 
L 105.5012 291.615269 
L 108.197667 290.973016 
L 112.242367 289.448007 
L 114.938833 288.258166 
L 116.287067 287.819821 
L 117.6353 287.174485 
L 118.983533 286.405614 
L 123.028233 284.880913 
L 127.072933 282.535596 
L 128.421167 281.643475 
L 129.7694 280.981727 
L 131.117633 280.468175 
L 135.162333 278.320261 
L 136.510567 277.601708 
L 140.555267 274.930246 
L 143.251733 273.755978 
L 145.9482 272.943929 
L 147.296433 272.32371 
L 151.341133 270.033963 
L 154.0376 268.148148 
L 156.734067 266.758384 
L 171.564633 256.627121 
L 175.609333 253.474416 
L 181.002267 248.946899 
L 187.743433 242.918762 
L 193.136367 237.788152 
L 199.877533 231.102999 
L 203.922233 226.845257 
L 209.315167 220.826304 
L 214.7081 214.513289 
L 220.101033 207.826942 
L 226.8422 198.985567 
L 233.583367 189.773507 
L 243.021 176.313674 
L 267.2892 141.894309 
L 275.3786 130.888524 
L 286.164467 116.630723 
L 294.253867 106.359866 
L 302.343267 96.3954 
L 311.7809 85.23179 
L 319.8703 75.988917 
L 330.656167 64.073815 
L 340.0938 54.050829 
L 348.1832 45.679072 
L 357.620833 36.199943 
L 357.620833 36.199943 
" style="fill:none;stroke:#ff0000;stroke-linecap:square;stroke-width:1.5;"/>
   </g>
   <g id="line2d_19">
    <path clip-path="url(#pcdec26cd7a)" d="M 20.5625 303.409042 
L 27.303667 302.431584 
L 34.044833 301.327445 
L 40.786 300.428524 
L 52.9201 298.789295 
L 69.0989 296.085657 
L 73.1436 295.803707 
L 75.840067 295.765299 
L 82.581233 295.893357 
L 86.625933 295.701315 
L 89.3224 295.394543 
L 93.3671 294.719153 
L 100.108267 293.162683 
L 105.5012 291.709797 
L 108.197667 291.087221 
L 113.5906 288.985858 
L 117.6353 287.405481 
L 118.983533 286.660165 
L 123.028233 285.182644 
L 127.072933 282.910626 
L 128.421167 282.046354 
L 129.7694 281.404958 
L 131.117633 280.907628 
L 135.162333 278.827607 
L 136.510567 278.131891 
L 140.555267 275.545514 
L 143.251733 274.40876 
L 145.9482 273.62287 
L 147.296433 273.0229 
L 151.341133 270.80759 
L 154.0376 268.983248 
L 156.734067 267.639262 
L 171.564633 257.84887 
L 175.609333 254.805155 
L 181.002267 250.43667 
L 187.743433 244.625261 
L 194.4846 238.418952 
L 201.225767 231.914923 
L 206.6187 226.308608 
L 213.359867 218.87153 
L 218.7528 212.569213 
L 224.145733 205.909411 
L 230.8869 197.27028 
L 237.628067 188.25421 
L 257.851567 160.911122 
L 268.637433 146.820435 
L 276.726833 136.63625 
L 286.164467 125.121194 
L 294.253867 115.687184 
L 302.343267 106.591989 
L 310.432667 97.897641 
L 318.522067 89.512875 
L 329.307933 78.823599 
L 337.397333 71.163793 
L 346.834967 62.510532 
L 356.2726 54.22444 
L 357.620833 53.058297 
L 357.620833 53.058297 
" style="fill:none;stroke:#ff0000;stroke-dasharray:1.5,2.475;stroke-dashoffset:0;stroke-width:1.5;"/>
   </g>
   <g id="line2d_20">
    <path clip-path="url(#pcdec26cd7a)" style="fill:none;stroke:#000000;stroke-linecap:square;stroke-width:1.5;"/>
   </g>
   <g id="line2d_21">
    <path clip-path="url(#pcdec26cd7a)" style="fill:none;stroke:#000000;stroke-dasharray:1.5,2.475;stroke-dashoffset:0;stroke-width:1.5;"/>
   </g>
   <g id="line2d_22">
    <path clip-path="url(#pcdec26cd7a)" style="fill:none;stroke:#0000ff;stroke-linecap:square;stroke-width:1.5;"/>
   </g>
   <g id="line2d_23">
    <path clip-path="url(#pcdec26cd7a)" style="fill:none;stroke:#daa520;stroke-linecap:square;stroke-width:1.5;"/>
   </g>
   <g id="line2d_24">
    <path clip-path="url(#pcdec26cd7a)" style="fill:none;stroke:#808080;stroke-linecap:square;stroke-width:1.5;"/>
   </g>
   <g id="line2d_25">
    <path clip-path="url(#pcdec26cd7a)" style="fill:none;stroke:#ff0000;stroke-linecap:square;stroke-width:1.5;"/>
   </g>
   <g id="patch_3">
    <path d="M 20.5625 327.718125 
L 20.5625 22.318125 
" style="fill:none;stroke:#000000;stroke-linecap:square;stroke-linejoin:miter;stroke-width:0.8;"/>
   </g>
   <g id="patch_4">
    <path d="M 357.620833 327.718125 
L 357.620833 22.318125 
" style="fill:none;stroke:#000000;stroke-linecap:square;stroke-linejoin:miter;stroke-width:0.8;"/>
   </g>
   <g id="patch_5">
    <path d="M 20.5625 327.718125 
L 357.620833 327.718125 
" style="fill:none;stroke:#000000;stroke-linecap:square;stroke-linejoin:miter;stroke-width:0.8;"/>
   </g>
   <g id="patch_6">
    <path d="M 20.5625 22.318125 
L 357.620833 22.318125 
" style="fill:none;stroke:#000000;stroke-linecap:square;stroke-linejoin:miter;stroke-width:0.8;"/>
   </g>
   <g id="text_12">
    <!-- CO2 -->
    <defs>
     <path d="M 64.40625 67.28125 
L 64.40625 56.890625 
Q 59.421875 61.53125 53.78125 63.8125 
Q 48.140625 66.109375 41.796875 66.109375 
Q 29.296875 66.109375 22.65625 58.46875 
Q 16.015625 50.828125 16.015625 36.375 
Q 16.015625 21.96875 22.65625 14.328125 
Q 29.296875 6.6875 41.796875 6.6875 
Q 48.140625 6.6875 53.78125 8.984375 
Q 59.421875 11.28125 64.40625 15.921875 
L 64.40625 5.609375 
Q 59.234375 2.09375 53.4375 0.328125 
Q 47.65625 -1.421875 41.21875 -1.421875 
Q 24.65625 -1.421875 15.125 8.703125 
Q 5.609375 18.84375 5.609375 36.375 
Q 5.609375 53.953125 15.125 64.078125 
Q 24.65625 74.21875 41.21875 74.21875 
Q 47.75 74.21875 53.53125 72.484375 
Q 59.328125 70.75 64.40625 67.28125 
z
" id="DejaVuSans-67"/>
     <path d="M 39.40625 66.21875 
Q 28.65625 66.21875 22.328125 58.203125 
Q 16.015625 50.203125 16.015625 36.375 
Q 16.015625 22.609375 22.328125 14.59375 
Q 28.65625 6.59375 39.40625 6.59375 
Q 50.140625 6.59375 56.421875 14.59375 
Q 62.703125 22.609375 62.703125 36.375 
Q 62.703125 50.203125 56.421875 58.203125 
Q 50.140625 66.21875 39.40625 66.21875 
z
M 39.40625 74.21875 
Q 54.734375 74.21875 63.90625 63.9375 
Q 73.09375 53.65625 73.09375 36.375 
Q 73.09375 19.140625 63.90625 8.859375 
Q 54.734375 -1.421875 39.40625 -1.421875 
Q 24.03125 -1.421875 14.8125 8.828125 
Q 5.609375 19.09375 5.609375 36.375 
Q 5.609375 53.65625 14.8125 63.9375 
Q 24.03125 74.21875 39.40625 74.21875 
z
" id="DejaVuSans-79"/>
    </defs>
    <g transform="translate(176.361354 16.318125)scale(0.12 -0.12)">
     <use xlink:href="#DejaVuSans-67"/>
     <use x="69.824219" xlink:href="#DejaVuSans-79"/>
     <use x="148.535156" xlink:href="#DejaVuSans-50"/>
    </g>
   </g>
   <g id="legend_1">
    <g id="line2d_26">
     <path d="M 29.5625 35.416562 
L 49.5625 35.416562 
" style="fill:none;stroke:#000000;stroke-linecap:square;stroke-width:1.5;"/>
    </g>
    <g id="line2d_27"/>
    <g id="text_13">
     <!-- FaIR v2 diagnosed -->
     <defs>
      <path d="M 9.8125 72.90625 
L 51.703125 72.90625 
L 51.703125 64.59375 
L 19.671875 64.59375 
L 19.671875 43.109375 
L 48.578125 43.109375 
L 48.578125 34.8125 
L 19.671875 34.8125 
L 19.671875 0 
L 9.8125 0 
z
" id="DejaVuSans-70"/>
      <path d="M 34.28125 27.484375 
Q 23.390625 27.484375 19.1875 25 
Q 14.984375 22.515625 14.984375 16.5 
Q 14.984375 11.71875 18.140625 8.90625 
Q 21.296875 6.109375 26.703125 6.109375 
Q 34.1875 6.109375 38.703125 11.40625 
Q 43.21875 16.703125 43.21875 25.484375 
L 43.21875 27.484375 
z
M 52.203125 31.203125 
L 52.203125 0 
L 43.21875 0 
L 43.21875 8.296875 
Q 40.140625 3.328125 35.546875 0.953125 
Q 30.953125 -1.421875 24.3125 -1.421875 
Q 15.921875 -1.421875 10.953125 3.296875 
Q 6 8.015625 6 15.921875 
Q 6 25.140625 12.171875 29.828125 
Q 18.359375 34.515625 30.609375 34.515625 
L 43.21875 34.515625 
L 43.21875 35.40625 
Q 43.21875 41.609375 39.140625 45 
Q 35.0625 48.390625 27.6875 48.390625 
Q 23 48.390625 18.546875 47.265625 
Q 14.109375 46.140625 10.015625 43.890625 
L 10.015625 52.203125 
Q 14.9375 54.109375 19.578125 55.046875 
Q 24.21875 56 28.609375 56 
Q 40.484375 56 46.34375 49.84375 
Q 52.203125 43.703125 52.203125 31.203125 
z
" id="DejaVuSans-97"/>
      <path d="M 9.8125 72.90625 
L 19.671875 72.90625 
L 19.671875 0 
L 9.8125 0 
z
" id="DejaVuSans-73"/>
      <path d="M 44.390625 34.1875 
Q 47.5625 33.109375 50.5625 29.59375 
Q 53.5625 26.078125 56.59375 19.921875 
L 66.609375 0 
L 56 0 
L 46.6875 18.703125 
Q 43.0625 26.03125 39.671875 28.421875 
Q 36.28125 30.8125 30.421875 30.8125 
L 19.671875 30.8125 
L 19.671875 0 
L 9.8125 0 
L 9.8125 72.90625 
L 32.078125 72.90625 
Q 44.578125 72.90625 50.734375 67.671875 
Q 56.890625 62.453125 56.890625 51.90625 
Q 56.890625 45.015625 53.6875 40.46875 
Q 50.484375 35.9375 44.390625 34.1875 
z
M 19.671875 64.796875 
L 19.671875 38.921875 
L 32.078125 38.921875 
Q 39.203125 38.921875 42.84375 42.21875 
Q 46.484375 45.515625 46.484375 51.90625 
Q 46.484375 58.296875 42.84375 61.546875 
Q 39.203125 64.796875 32.078125 64.796875 
z
" id="DejaVuSans-82"/>
      <path id="DejaVuSans-32"/>
      <path d="M 2.984375 54.6875 
L 12.5 54.6875 
L 29.59375 8.796875 
L 46.6875 54.6875 
L 56.203125 54.6875 
L 35.6875 0 
L 23.484375 0 
z
" id="DejaVuSans-118"/>
      <path d="M 45.40625 46.390625 
L 45.40625 75.984375 
L 54.390625 75.984375 
L 54.390625 0 
L 45.40625 0 
L 45.40625 8.203125 
Q 42.578125 3.328125 38.25 0.953125 
Q 33.9375 -1.421875 27.875 -1.421875 
Q 17.96875 -1.421875 11.734375 6.484375 
Q 5.515625 14.40625 5.515625 27.296875 
Q 5.515625 40.1875 11.734375 48.09375 
Q 17.96875 56 27.875 56 
Q 33.9375 56 38.25 53.625 
Q 42.578125 51.265625 45.40625 46.390625 
z
M 14.796875 27.296875 
Q 14.796875 17.390625 18.875 11.75 
Q 22.953125 6.109375 30.078125 6.109375 
Q 37.203125 6.109375 41.296875 11.75 
Q 45.40625 17.390625 45.40625 27.296875 
Q 45.40625 37.203125 41.296875 42.84375 
Q 37.203125 48.484375 30.078125 48.484375 
Q 22.953125 48.484375 18.875 42.84375 
Q 14.796875 37.203125 14.796875 27.296875 
z
" id="DejaVuSans-100"/>
      <path d="M 9.421875 54.6875 
L 18.40625 54.6875 
L 18.40625 0 
L 9.421875 0 
z
M 9.421875 75.984375 
L 18.40625 75.984375 
L 18.40625 64.59375 
L 9.421875 64.59375 
z
" id="DejaVuSans-105"/>
      <path d="M 45.40625 27.984375 
Q 45.40625 37.75 41.375 43.109375 
Q 37.359375 48.484375 30.078125 48.484375 
Q 22.859375 48.484375 18.828125 43.109375 
Q 14.796875 37.75 14.796875 27.984375 
Q 14.796875 18.265625 18.828125 12.890625 
Q 22.859375 7.515625 30.078125 7.515625 
Q 37.359375 7.515625 41.375 12.890625 
Q 45.40625 18.265625 45.40625 27.984375 
z
M 54.390625 6.78125 
Q 54.390625 -7.171875 48.1875 -13.984375 
Q 42 -20.796875 29.203125 -20.796875 
Q 24.46875 -20.796875 20.265625 -20.09375 
Q 16.0625 -19.390625 12.109375 -17.921875 
L 12.109375 -9.1875 
Q 16.0625 -11.328125 19.921875 -12.34375 
Q 23.78125 -13.375 27.78125 -13.375 
Q 36.625 -13.375 41.015625 -8.765625 
Q 45.40625 -4.15625 45.40625 5.171875 
L 45.40625 9.625 
Q 42.625 4.78125 38.28125 2.390625 
Q 33.9375 0 27.875 0 
Q 17.828125 0 11.671875 7.65625 
Q 5.515625 15.328125 5.515625 27.984375 
Q 5.515625 40.671875 11.671875 48.328125 
Q 17.828125 56 27.875 56 
Q 33.9375 56 38.28125 53.609375 
Q 42.625 51.21875 45.40625 46.390625 
L 45.40625 54.6875 
L 54.390625 54.6875 
z
" id="DejaVuSans-103"/>
      <path d="M 54.890625 33.015625 
L 54.890625 0 
L 45.90625 0 
L 45.90625 32.71875 
Q 45.90625 40.484375 42.875 44.328125 
Q 39.84375 48.1875 33.796875 48.1875 
Q 26.515625 48.1875 22.3125 43.546875 
Q 18.109375 38.921875 18.109375 30.90625 
L 18.109375 0 
L 9.078125 0 
L 9.078125 54.6875 
L 18.109375 54.6875 
L 18.109375 46.1875 
Q 21.34375 51.125 25.703125 53.5625 
Q 30.078125 56 35.796875 56 
Q 45.21875 56 50.046875 50.171875 
Q 54.890625 44.34375 54.890625 33.015625 
z
" id="DejaVuSans-110"/>
      <path d="M 30.609375 48.390625 
Q 23.390625 48.390625 19.1875 42.75 
Q 14.984375 37.109375 14.984375 27.296875 
Q 14.984375 17.484375 19.15625 11.84375 
Q 23.34375 6.203125 30.609375 6.203125 
Q 37.796875 6.203125 41.984375 11.859375 
Q 46.1875 17.53125 46.1875 27.296875 
Q 46.1875 37.015625 41.984375 42.703125 
Q 37.796875 48.390625 30.609375 48.390625 
z
M 30.609375 56 
Q 42.328125 56 49.015625 48.375 
Q 55.71875 40.765625 55.71875 27.296875 
Q 55.71875 13.875 49.015625 6.21875 
Q 42.328125 -1.421875 30.609375 -1.421875 
Q 18.84375 -1.421875 12.171875 6.21875 
Q 5.515625 13.875 5.515625 27.296875 
Q 5.515625 40.765625 12.171875 48.375 
Q 18.84375 56 30.609375 56 
z
" id="DejaVuSans-111"/>
      <path d="M 44.28125 53.078125 
L 44.28125 44.578125 
Q 40.484375 46.53125 36.375 47.5 
Q 32.28125 48.484375 27.875 48.484375 
Q 21.1875 48.484375 17.84375 46.4375 
Q 14.5 44.390625 14.5 40.28125 
Q 14.5 37.15625 16.890625 35.375 
Q 19.28125 33.59375 26.515625 31.984375 
L 29.59375 31.296875 
Q 39.15625 29.25 43.1875 25.515625 
Q 47.21875 21.78125 47.21875 15.09375 
Q 47.21875 7.46875 41.1875 3.015625 
Q 35.15625 -1.421875 24.609375 -1.421875 
Q 20.21875 -1.421875 15.453125 -0.5625 
Q 10.6875 0.296875 5.421875 2 
L 5.421875 11.28125 
Q 10.40625 8.6875 15.234375 7.390625 
Q 20.0625 6.109375 24.8125 6.109375 
Q 31.15625 6.109375 34.5625 8.28125 
Q 37.984375 10.453125 37.984375 14.40625 
Q 37.984375 18.0625 35.515625 20.015625 
Q 33.0625 21.96875 24.703125 23.78125 
L 21.578125 24.515625 
Q 13.234375 26.265625 9.515625 29.90625 
Q 5.8125 33.546875 5.8125 39.890625 
Q 5.8125 47.609375 11.28125 51.796875 
Q 16.75 56 26.8125 56 
Q 31.78125 56 36.171875 55.265625 
Q 40.578125 54.546875 44.28125 53.078125 
z
" id="DejaVuSans-115"/>
      <path d="M 56.203125 29.59375 
L 56.203125 25.203125 
L 14.890625 25.203125 
Q 15.484375 15.921875 20.484375 11.0625 
Q 25.484375 6.203125 34.421875 6.203125 
Q 39.59375 6.203125 44.453125 7.46875 
Q 49.3125 8.734375 54.109375 11.28125 
L 54.109375 2.78125 
Q 49.265625 0.734375 44.1875 -0.34375 
Q 39.109375 -1.421875 33.890625 -1.421875 
Q 20.796875 -1.421875 13.15625 6.1875 
Q 5.515625 13.8125 5.515625 26.8125 
Q 5.515625 40.234375 12.765625 48.109375 
Q 20.015625 56 32.328125 56 
Q 43.359375 56 49.78125 48.890625 
Q 56.203125 41.796875 56.203125 29.59375 
z
M 47.21875 32.234375 
Q 47.125 39.59375 43.09375 43.984375 
Q 39.0625 48.390625 32.421875 48.390625 
Q 24.90625 48.390625 20.390625 44.140625 
Q 15.875 39.890625 15.1875 32.171875 
z
" id="DejaVuSans-101"/>
     </defs>
     <g transform="translate(57.5625 38.916562)scale(0.1 -0.1)">
      <use xlink:href="#DejaVuSans-70"/>
      <use x="57.378906" xlink:href="#DejaVuSans-97"/>
      <use x="118.658203" xlink:href="#DejaVuSans-73"/>
      <use x="148.150391" xlink:href="#DejaVuSans-82"/>
      <use x="217.632812" xlink:href="#DejaVuSans-32"/>
      <use x="249.419922" xlink:href="#DejaVuSans-118"/>
      <use x="308.599609" xlink:href="#DejaVuSans-50"/>
      <use x="372.222656" xlink:href="#DejaVuSans-32"/>
      <use x="404.009766" xlink:href="#DejaVuSans-100"/>
      <use x="467.486328" xlink:href="#DejaVuSans-105"/>
      <use x="495.269531" xlink:href="#DejaVuSans-97"/>
      <use x="556.548828" xlink:href="#DejaVuSans-103"/>
      <use x="620.025391" xlink:href="#DejaVuSans-110"/>
      <use x="683.404297" xlink:href="#DejaVuSans-111"/>
      <use x="744.585938" xlink:href="#DejaVuSans-115"/>
      <use x="796.685547" xlink:href="#DejaVuSans-101"/>
      <use x="858.208984" xlink:href="#DejaVuSans-100"/>
     </g>
    </g>
    <g id="line2d_28">
     <path d="M 29.5625 50.094687 
L 49.5625 50.094687 
" style="fill:none;stroke:#000000;stroke-dasharray:1.5,2.475;stroke-dashoffset:0;stroke-width:1.5;"/>
    </g>
    <g id="line2d_29"/>
    <g id="text_14">
     <!-- RCP database -->
     <defs>
      <path d="M 19.671875 64.796875 
L 19.671875 37.40625 
L 32.078125 37.40625 
Q 38.96875 37.40625 42.71875 40.96875 
Q 46.484375 44.53125 46.484375 51.125 
Q 46.484375 57.671875 42.71875 61.234375 
Q 38.96875 64.796875 32.078125 64.796875 
z
M 9.8125 72.90625 
L 32.078125 72.90625 
Q 44.34375 72.90625 50.609375 67.359375 
Q 56.890625 61.8125 56.890625 51.125 
Q 56.890625 40.328125 50.609375 34.8125 
Q 44.34375 29.296875 32.078125 29.296875 
L 19.671875 29.296875 
L 19.671875 0 
L 9.8125 0 
z
" id="DejaVuSans-80"/>
      <path d="M 18.3125 70.21875 
L 18.3125 54.6875 
L 36.8125 54.6875 
L 36.8125 47.703125 
L 18.3125 47.703125 
L 18.3125 18.015625 
Q 18.3125 11.328125 20.140625 9.421875 
Q 21.96875 7.515625 27.59375 7.515625 
L 36.8125 7.515625 
L 36.8125 0 
L 27.59375 0 
Q 17.1875 0 13.234375 3.875 
Q 9.28125 7.765625 9.28125 18.015625 
L 9.28125 47.703125 
L 2.6875 47.703125 
L 2.6875 54.6875 
L 9.28125 54.6875 
L 9.28125 70.21875 
z
" id="DejaVuSans-116"/>
      <path d="M 48.6875 27.296875 
Q 48.6875 37.203125 44.609375 42.84375 
Q 40.53125 48.484375 33.40625 48.484375 
Q 26.265625 48.484375 22.1875 42.84375 
Q 18.109375 37.203125 18.109375 27.296875 
Q 18.109375 17.390625 22.1875 11.75 
Q 26.265625 6.109375 33.40625 6.109375 
Q 40.53125 6.109375 44.609375 11.75 
Q 48.6875 17.390625 48.6875 27.296875 
z
M 18.109375 46.390625 
Q 20.953125 51.265625 25.265625 53.625 
Q 29.59375 56 35.59375 56 
Q 45.5625 56 51.78125 48.09375 
Q 58.015625 40.1875 58.015625 27.296875 
Q 58.015625 14.40625 51.78125 6.484375 
Q 45.5625 -1.421875 35.59375 -1.421875 
Q 29.59375 -1.421875 25.265625 0.953125 
Q 20.953125 3.328125 18.109375 8.203125 
L 18.109375 0 
L 9.078125 0 
L 9.078125 75.984375 
L 18.109375 75.984375 
z
" id="DejaVuSans-98"/>
     </defs>
     <g transform="translate(57.5625 53.594687)scale(0.1 -0.1)">
      <use xlink:href="#DejaVuSans-82"/>
      <use x="69.404297" xlink:href="#DejaVuSans-67"/>
      <use x="139.228516" xlink:href="#DejaVuSans-80"/>
      <use x="199.53125" xlink:href="#DejaVuSans-32"/>
      <use x="231.318359" xlink:href="#DejaVuSans-100"/>
      <use x="294.794922" xlink:href="#DejaVuSans-97"/>
      <use x="356.074219" xlink:href="#DejaVuSans-116"/>
      <use x="395.283203" xlink:href="#DejaVuSans-97"/>
      <use x="456.5625" xlink:href="#DejaVuSans-98"/>
      <use x="520.039062" xlink:href="#DejaVuSans-97"/>
      <use x="581.318359" xlink:href="#DejaVuSans-115"/>
      <use x="633.417969" xlink:href="#DejaVuSans-101"/>
     </g>
    </g>
    <g id="line2d_30">
     <path d="M 29.5625 64.772812 
L 49.5625 64.772812 
" style="fill:none;stroke:#0000ff;stroke-linecap:square;stroke-width:1.5;"/>
    </g>
    <g id="line2d_31"/>
    <g id="text_15">
     <!-- RCP3PD -->
     <defs>
      <path d="M 40.578125 39.3125 
Q 47.65625 37.796875 51.625 33 
Q 55.609375 28.21875 55.609375 21.1875 
Q 55.609375 10.40625 48.1875 4.484375 
Q 40.765625 -1.421875 27.09375 -1.421875 
Q 22.515625 -1.421875 17.65625 -0.515625 
Q 12.796875 0.390625 7.625 2.203125 
L 7.625 11.71875 
Q 11.71875 9.328125 16.59375 8.109375 
Q 21.484375 6.890625 26.8125 6.890625 
Q 36.078125 6.890625 40.9375 10.546875 
Q 45.796875 14.203125 45.796875 21.1875 
Q 45.796875 27.640625 41.28125 31.265625 
Q 36.765625 34.90625 28.71875 34.90625 
L 20.21875 34.90625 
L 20.21875 43.015625 
L 29.109375 43.015625 
Q 36.375 43.015625 40.234375 45.921875 
Q 44.09375 48.828125 44.09375 54.296875 
Q 44.09375 59.90625 40.109375 62.90625 
Q 36.140625 65.921875 28.71875 65.921875 
Q 24.65625 65.921875 20.015625 65.03125 
Q 15.375 64.15625 9.8125 62.3125 
L 9.8125 71.09375 
Q 15.4375 72.65625 20.34375 73.4375 
Q 25.25 74.21875 29.59375 74.21875 
Q 40.828125 74.21875 47.359375 69.109375 
Q 53.90625 64.015625 53.90625 55.328125 
Q 53.90625 49.265625 50.4375 45.09375 
Q 46.96875 40.921875 40.578125 39.3125 
z
" id="DejaVuSans-51"/>
      <path d="M 19.671875 64.796875 
L 19.671875 8.109375 
L 31.59375 8.109375 
Q 46.6875 8.109375 53.6875 14.9375 
Q 60.6875 21.78125 60.6875 36.53125 
Q 60.6875 51.171875 53.6875 57.984375 
Q 46.6875 64.796875 31.59375 64.796875 
z
M 9.8125 72.90625 
L 30.078125 72.90625 
Q 51.265625 72.90625 61.171875 64.09375 
Q 71.09375 55.28125 71.09375 36.53125 
Q 71.09375 17.671875 61.125 8.828125 
Q 51.171875 0 30.078125 0 
L 9.8125 0 
z
" id="DejaVuSans-68"/>
     </defs>
     <g transform="translate(57.5625 68.272812)scale(0.1 -0.1)">
      <use xlink:href="#DejaVuSans-82"/>
      <use x="69.404297" xlink:href="#DejaVuSans-67"/>
      <use x="139.228516" xlink:href="#DejaVuSans-80"/>
      <use x="199.53125" xlink:href="#DejaVuSans-51"/>
      <use x="263.154297" xlink:href="#DejaVuSans-80"/>
      <use x="323.457031" xlink:href="#DejaVuSans-68"/>
     </g>
    </g>
    <g id="line2d_32">
     <path d="M 29.5625 79.450937 
L 49.5625 79.450937 
" style="fill:none;stroke:#daa520;stroke-linecap:square;stroke-width:1.5;"/>
    </g>
    <g id="line2d_33"/>
    <g id="text_16">
     <!-- RCP45 -->
     <g transform="translate(57.5625 82.950937)scale(0.1 -0.1)">
      <use xlink:href="#DejaVuSans-82"/>
      <use x="69.404297" xlink:href="#DejaVuSans-67"/>
      <use x="139.228516" xlink:href="#DejaVuSans-80"/>
      <use x="199.53125" xlink:href="#DejaVuSans-52"/>
      <use x="263.154297" xlink:href="#DejaVuSans-53"/>
     </g>
    </g>
    <g id="line2d_34">
     <path d="M 29.5625 94.129062 
L 49.5625 94.129062 
" style="fill:none;stroke:#808080;stroke-linecap:square;stroke-width:1.5;"/>
    </g>
    <g id="line2d_35"/>
    <g id="text_17">
     <!-- RCP6 -->
     <g transform="translate(57.5625 97.629062)scale(0.1 -0.1)">
      <use xlink:href="#DejaVuSans-82"/>
      <use x="69.404297" xlink:href="#DejaVuSans-67"/>
      <use x="139.228516" xlink:href="#DejaVuSans-80"/>
      <use x="199.53125" xlink:href="#DejaVuSans-54"/>
     </g>
    </g>
    <g id="line2d_36">
     <path d="M 29.5625 108.807187 
L 49.5625 108.807187 
" style="fill:none;stroke:#ff0000;stroke-linecap:square;stroke-width:1.5;"/>
    </g>
    <g id="line2d_37"/>
    <g id="text_18">
     <!-- RCP85 -->
     <g transform="translate(57.5625 112.307187)scale(0.1 -0.1)">
      <use xlink:href="#DejaVuSans-82"/>
      <use x="69.404297" xlink:href="#DejaVuSans-67"/>
      <use x="139.228516" xlink:href="#DejaVuSans-80"/>
      <use x="199.53125" xlink:href="#DejaVuSans-56"/>
      <use x="263.154297" xlink:href="#DejaVuSans-53"/>
     </g>
    </g>
   </g>
  </g>
  <g id="axes_2">
   <g id="patch_7">
    <path d="M 404.170833 327.718125 
L 741.229167 327.718125 
L 741.229167 22.318125 
L 404.170833 22.318125 
z
" style="fill:#ffffff;"/>
   </g>
   <g id="matplotlib.axis_3">
    <g id="xtick_7">
     <g id="line2d_38">
      <g>
       <use style="stroke:#000000;stroke-width:0.8;" x="404.170833" xlink:href="#m09a873acc5" y="327.718125"/>
      </g>
     </g>
     <g id="text_19">
      <!-- 1900 -->
      <g transform="translate(391.445833 342.316562)scale(0.1 -0.1)">
       <use xlink:href="#DejaVuSans-49"/>
       <use x="63.623047" xlink:href="#DejaVuSans-57"/>
       <use x="127.246094" xlink:href="#DejaVuSans-48"/>
       <use x="190.869141" xlink:href="#DejaVuSans-48"/>
      </g>
     </g>
    </g>
    <g id="xtick_8">
     <g id="line2d_39">
      <g>
       <use style="stroke:#000000;stroke-width:0.8;" x="471.5825" xlink:href="#m09a873acc5" y="327.718125"/>
      </g>
     </g>
     <g id="text_20">
      <!-- 1950 -->
      <g transform="translate(458.8575 342.316562)scale(0.1 -0.1)">
       <use xlink:href="#DejaVuSans-49"/>
       <use x="63.623047" xlink:href="#DejaVuSans-57"/>
       <use x="127.246094" xlink:href="#DejaVuSans-53"/>
       <use x="190.869141" xlink:href="#DejaVuSans-48"/>
      </g>
     </g>
    </g>
    <g id="xtick_9">
     <g id="line2d_40">
      <g>
       <use style="stroke:#000000;stroke-width:0.8;" x="538.994167" xlink:href="#m09a873acc5" y="327.718125"/>
      </g>
     </g>
     <g id="text_21">
      <!-- 2000 -->
      <g transform="translate(526.269167 342.316562)scale(0.1 -0.1)">
       <use xlink:href="#DejaVuSans-50"/>
       <use x="63.623047" xlink:href="#DejaVuSans-48"/>
       <use x="127.246094" xlink:href="#DejaVuSans-48"/>
       <use x="190.869141" xlink:href="#DejaVuSans-48"/>
      </g>
     </g>
    </g>
    <g id="xtick_10">
     <g id="line2d_41">
      <g>
       <use style="stroke:#000000;stroke-width:0.8;" x="606.405833" xlink:href="#m09a873acc5" y="327.718125"/>
      </g>
     </g>
     <g id="text_22">
      <!-- 2050 -->
      <g transform="translate(593.680833 342.316562)scale(0.1 -0.1)">
       <use xlink:href="#DejaVuSans-50"/>
       <use x="63.623047" xlink:href="#DejaVuSans-48"/>
       <use x="127.246094" xlink:href="#DejaVuSans-53"/>
       <use x="190.869141" xlink:href="#DejaVuSans-48"/>
      </g>
     </g>
    </g>
    <g id="xtick_11">
     <g id="line2d_42">
      <g>
       <use style="stroke:#000000;stroke-width:0.8;" x="673.8175" xlink:href="#m09a873acc5" y="327.718125"/>
      </g>
     </g>
     <g id="text_23">
      <!-- 2100 -->
      <g transform="translate(661.0925 342.316562)scale(0.1 -0.1)">
       <use xlink:href="#DejaVuSans-50"/>
       <use x="63.623047" xlink:href="#DejaVuSans-49"/>
       <use x="127.246094" xlink:href="#DejaVuSans-48"/>
       <use x="190.869141" xlink:href="#DejaVuSans-48"/>
      </g>
     </g>
    </g>
    <g id="xtick_12">
     <g id="line2d_43">
      <g>
       <use style="stroke:#000000;stroke-width:0.8;" x="741.229167" xlink:href="#m09a873acc5" y="327.718125"/>
      </g>
     </g>
     <g id="text_24">
      <!-- 2150 -->
      <g transform="translate(728.504167 342.316562)scale(0.1 -0.1)">
       <use xlink:href="#DejaVuSans-50"/>
       <use x="63.623047" xlink:href="#DejaVuSans-49"/>
       <use x="127.246094" xlink:href="#DejaVuSans-53"/>
       <use x="190.869141" xlink:href="#DejaVuSans-48"/>
      </g>
     </g>
    </g>
   </g>
   <g id="matplotlib.axis_4">
    <g id="ytick_6">
     <g id="line2d_44">
      <g>
       <use style="stroke:#000000;stroke-width:0.8;" x="404.170833" xlink:href="#m9293eacb06" y="289.166476"/>
      </g>
     </g>
     <g id="text_25">
      <!-- 0.2 -->
      <defs>
       <path d="M 10.6875 12.40625 
L 21 12.40625 
L 21 0 
L 10.6875 0 
z
" id="DejaVuSans-46"/>
      </defs>
      <g transform="translate(381.267708 292.965695)scale(0.1 -0.1)">
       <use xlink:href="#DejaVuSans-48"/>
       <use x="63.623047" xlink:href="#DejaVuSans-46"/>
       <use x="95.410156" xlink:href="#DejaVuSans-50"/>
      </g>
     </g>
    </g>
    <g id="ytick_7">
     <g id="line2d_45">
      <g>
       <use style="stroke:#000000;stroke-width:0.8;" x="404.170833" xlink:href="#m9293eacb06" y="242.04836"/>
      </g>
     </g>
     <g id="text_26">
      <!-- 0.4 -->
      <g transform="translate(381.267708 245.847578)scale(0.1 -0.1)">
       <use xlink:href="#DejaVuSans-48"/>
       <use x="63.623047" xlink:href="#DejaVuSans-46"/>
       <use x="95.410156" xlink:href="#DejaVuSans-52"/>
      </g>
     </g>
    </g>
    <g id="ytick_8">
     <g id="line2d_46">
      <g>
       <use style="stroke:#000000;stroke-width:0.8;" x="404.170833" xlink:href="#m9293eacb06" y="194.930243"/>
      </g>
     </g>
     <g id="text_27">
      <!-- 0.6 -->
      <g transform="translate(381.267708 198.729461)scale(0.1 -0.1)">
       <use xlink:href="#DejaVuSans-48"/>
       <use x="63.623047" xlink:href="#DejaVuSans-46"/>
       <use x="95.410156" xlink:href="#DejaVuSans-54"/>
      </g>
     </g>
    </g>
    <g id="ytick_9">
     <g id="line2d_47">
      <g>
       <use style="stroke:#000000;stroke-width:0.8;" x="404.170833" xlink:href="#m9293eacb06" y="147.812126"/>
      </g>
     </g>
     <g id="text_28">
      <!-- 0.8 -->
      <g transform="translate(381.267708 151.611345)scale(0.1 -0.1)">
       <use xlink:href="#DejaVuSans-48"/>
       <use x="63.623047" xlink:href="#DejaVuSans-46"/>
       <use x="95.410156" xlink:href="#DejaVuSans-56"/>
      </g>
     </g>
    </g>
    <g id="ytick_10">
     <g id="line2d_48">
      <g>
       <use style="stroke:#000000;stroke-width:0.8;" x="404.170833" xlink:href="#m9293eacb06" y="100.694009"/>
      </g>
     </g>
     <g id="text_29">
      <!-- 1.0 -->
      <g transform="translate(381.267708 104.493228)scale(0.1 -0.1)">
       <use xlink:href="#DejaVuSans-49"/>
       <use x="63.623047" xlink:href="#DejaVuSans-46"/>
       <use x="95.410156" xlink:href="#DejaVuSans-48"/>
      </g>
     </g>
    </g>
    <g id="ytick_11">
     <g id="line2d_49">
      <g>
       <use style="stroke:#000000;stroke-width:0.8;" x="404.170833" xlink:href="#m9293eacb06" y="53.575892"/>
      </g>
     </g>
     <g id="text_30">
      <!-- 1.2 -->
      <g transform="translate(381.267708 57.375111)scale(0.1 -0.1)">
       <use xlink:href="#DejaVuSans-49"/>
       <use x="63.623047" xlink:href="#DejaVuSans-46"/>
       <use x="95.410156" xlink:href="#DejaVuSans-50"/>
      </g>
     </g>
    </g>
   </g>
   <g id="line2d_50">
    <path clip-path="url(#p0fe3019b85)" d="M 404.170833 312.110673 
L 406.8673 310.932414 
L 412.260233 308.167064 
L 416.304933 305.970051 
L 421.697867 303.033809 
L 433.831967 295.459114 
L 443.2696 289.397843 
L 450.010767 285.51944 
L 463.4931 278.381784 
L 466.189567 276.841172 
L 470.234267 274.192256 
L 472.930733 272.172773 
L 475.6272 269.80295 
L 479.6719 265.910768 
L 483.7166 261.623064 
L 487.7613 256.92703 
L 491.806 251.905962 
L 495.8507 246.608267 
L 507.9848 229.759774 
L 512.0295 224.007734 
L 517.422433 215.562274 
L 518.770667 214.000023 
L 521.467133 211.371451 
L 525.511833 207.992345 
L 526.860067 206.905074 
L 528.2083 206.055833 
L 534.949467 203.620159 
L 536.2977 202.789416 
L 537.645933 202.103515 
L 538.994167 201.916883 
L 540.3424 201.949902 
L 541.690633 201.794794 
L 543.038867 201.525374 
L 544.3871 201.493447 
L 545.735333 201.632695 
L 547.083567 201.551075 
L 548.4318 201.219427 
L 551.128267 200.219679 
L 555.172967 198.422225 
L 556.5212 198.233966 
L 557.869433 198.34612 
L 559.217667 198.730161 
L 560.5659 199.364082 
L 561.914133 200.230906 
L 563.262367 201.314652 
L 564.6106 202.60012 
L 565.958833 204.073658 
L 571.351767 210.656012 
L 574.048233 213.470217 
L 576.7447 215.941227 
L 579.441167 218.148563 
L 582.137633 220.147379 
L 584.8341 221.955867 
L 587.530567 223.580441 
L 591.575267 225.703877 
L 596.9682 228.336854 
L 599.664667 230.019689 
L 603.709367 232.940247 
L 607.754067 236.174842 
L 611.798767 239.410416 
L 617.1917 243.466215 
L 622.584633 247.191481 
L 625.2811 248.721339 
L 627.977567 250.017661 
L 630.674033 251.131147 
L 633.3705 252.073861 
L 637.4152 253.220792 
L 642.808133 254.438248 
L 648.201067 255.470171 
L 663.031633 257.818613 
L 673.8175 259.264444 
L 677.8622 259.758363 
L 683.255133 260.141979 
L 692.692767 260.508335 
L 704.826867 260.601443 
L 714.2645 260.553255 
L 741.229167 260.37339 
L 741.229167 260.37339 
" style="fill:none;stroke:#0000ff;stroke-linecap:square;stroke-width:1.5;"/>
   </g>
   <g id="line2d_51">
    <path clip-path="url(#p0fe3019b85)" d="M 404.170833 313.836307 
L 406.8673 312.893933 
L 413.608467 310.122103 
L 423.0461 305.892812 
L 433.831967 300.465198 
L 443.2696 295.570222 
L 451.359 291.858907 
L 463.4931 286.636785 
L 467.5378 284.690345 
L 471.5825 282.429997 
L 474.278967 280.653133 
L 478.323667 277.567332 
L 482.368367 274.147659 
L 486.413067 270.433778 
L 491.806 264.974954 
L 495.8507 260.608393 
L 506.636567 248.209744 
L 512.0295 241.862045 
L 517.422433 234.807726 
L 518.770667 233.499637 
L 521.467133 231.297186 
L 525.511833 228.462218 
L 526.860067 227.549187 
L 528.2083 226.835477 
L 534.949467 224.787822 
L 537.645933 223.511569 
L 538.994167 223.354419 
L 540.3424 223.382211 
L 544.3871 222.997954 
L 545.735333 223.115183 
L 547.083567 223.046483 
L 549.780033 222.389228 
L 552.4765 221.410415 
L 553.824733 220.848811 
L 555.172967 220.410502 
L 556.5212 220.251747 
L 557.869433 220.346332 
L 559.217667 220.670137 
L 560.5659 221.204506 
L 561.914133 221.934962 
L 563.262367 222.847821 
L 564.6106 223.93003 
L 565.958833 225.169818 
L 571.351767 230.697567 
L 574.048233 233.055902 
L 576.7447 235.12427 
L 579.441167 236.970058 
L 583.485867 239.414603 
L 587.530567 241.504631 
L 591.575267 243.274338 
L 596.9682 245.466503 
L 599.664667 246.866284 
L 603.709367 249.293076 
L 609.1023 252.894045 
L 614.495233 256.366118 
L 619.888167 259.591798 
L 622.584633 261.088774 
L 625.2811 262.350446 
L 629.3258 263.895751 
L 633.3705 265.112244 
L 637.4152 266.056117 
L 642.808133 267.057494 
L 649.5493 268.089541 
L 667.076333 270.294556 
L 679.210433 271.525691 
L 685.9516 271.841621 
L 694.041 272.059542 
L 711.568033 272.103652 
L 741.229167 271.931225 
L 741.229167 271.931225 
" style="fill:none;stroke:#0000ff;stroke-dasharray:1.5,2.475;stroke-dashoffset:0;stroke-width:1.5;"/>
   </g>
   <g id="line2d_52">
    <path clip-path="url(#p0fe3019b85)" d="M 404.170833 312.110673 
L 406.8673 310.932414 
L 412.260233 308.167064 
L 416.304933 305.970051 
L 421.697867 303.033809 
L 433.831967 295.459114 
L 443.2696 289.397843 
L 450.010767 285.51944 
L 463.4931 278.381784 
L 466.189567 276.841172 
L 470.234267 274.192256 
L 472.930733 272.172773 
L 475.6272 269.80295 
L 479.6719 265.910768 
L 483.7166 261.623064 
L 487.7613 256.92703 
L 491.806 251.905962 
L 495.8507 246.608267 
L 507.9848 229.759774 
L 512.0295 224.007734 
L 517.422433 215.562274 
L 518.770667 214.000023 
L 521.467133 211.371451 
L 525.511833 207.992345 
L 526.860067 206.905074 
L 528.2083 206.055833 
L 534.949467 203.620159 
L 536.2977 202.789416 
L 537.645933 202.103515 
L 538.994167 201.916883 
L 540.3424 201.949902 
L 541.690633 201.794794 
L 543.038867 201.525374 
L 544.3871 201.493447 
L 545.735333 201.632695 
L 547.083567 201.551107 
L 551.128267 200.582962 
L 574.048233 194.787424 
L 580.7894 193.521452 
L 584.8341 193.005804 
L 590.227033 192.64726 
L 595.619967 192.499828 
L 599.664667 192.686363 
L 605.0576 193.257834 
L 609.1023 193.827876 
L 611.798767 194.367415 
L 615.843467 195.469731 
L 621.2364 197.234995 
L 625.2811 198.772138 
L 629.3258 200.581783 
L 636.066967 203.957896 
L 640.111667 206.194625 
L 644.156367 208.656421 
L 649.5493 211.920961 
L 652.245767 213.310245 
L 656.290467 215.095541 
L 660.335167 216.677158 
L 664.379867 218.054617 
L 671.121033 220.033024 
L 676.513967 221.529598 
L 680.558667 222.345501 
L 684.603367 222.905966 
L 691.344533 223.589035 
L 696.737467 223.89732 
L 710.2198 224.344529 
L 741.229167 224.696894 
L 741.229167 224.696894 
" style="fill:none;stroke:#daa520;stroke-linecap:square;stroke-width:1.5;"/>
   </g>
   <g id="line2d_53">
    <path clip-path="url(#p0fe3019b85)" d="M 404.170833 313.836307 
L 406.8673 312.893933 
L 413.608467 310.122103 
L 423.0461 305.892812 
L 433.831967 300.465198 
L 443.2696 295.570222 
L 451.359 291.858907 
L 463.4931 286.636785 
L 467.5378 284.690345 
L 471.5825 282.429997 
L 474.278967 280.653133 
L 478.323667 277.567332 
L 482.368367 274.147659 
L 486.413067 270.433778 
L 491.806 264.974954 
L 495.8507 260.608393 
L 506.636567 248.209744 
L 512.0295 241.862045 
L 517.422433 234.807726 
L 518.770667 233.499637 
L 521.467133 231.297186 
L 525.511833 228.462218 
L 526.860067 227.549187 
L 528.2083 226.835477 
L 534.949467 224.787822 
L 537.645933 223.511569 
L 538.994167 223.354419 
L 540.3424 223.382211 
L 544.3871 222.997954 
L 545.735333 223.115183 
L 547.083567 223.046518 
L 551.128267 222.231264 
L 574.048233 217.34377 
L 580.7894 216.274526 
L 584.8341 215.838834 
L 590.227033 215.535829 
L 595.619967 215.411218 
L 599.664667 215.568875 
L 605.0576 216.051794 
L 610.450533 216.743386 
L 614.495233 217.584021 
L 619.888167 219.019288 
L 623.932867 220.250649 
L 627.977567 221.697757 
L 633.3705 223.909503 
L 638.763433 226.307396 
L 642.808133 228.311129 
L 649.5493 231.75752 
L 653.594 233.447687 
L 658.986933 235.316479 
L 663.031633 236.526644 
L 668.424567 237.90688 
L 677.8622 240.051418 
L 681.9069 240.649368 
L 687.299833 241.194398 
L 692.692767 241.592237 
L 700.782167 241.892929 
L 711.568033 242.156613 
L 741.229167 242.435154 
L 741.229167 242.435154 
" style="fill:none;stroke:#daa520;stroke-dasharray:1.5,2.475;stroke-dashoffset:0;stroke-width:1.5;"/>
   </g>
   <g id="line2d_54">
    <path clip-path="url(#p0fe3019b85)" d="M 404.170833 312.110673 
L 406.8673 310.932414 
L 412.260233 308.167064 
L 416.304933 305.970051 
L 421.697867 303.033809 
L 433.831967 295.459114 
L 443.2696 289.397843 
L 450.010767 285.51944 
L 463.4931 278.381784 
L 466.189567 276.841172 
L 470.234267 274.192256 
L 472.930733 272.172773 
L 475.6272 269.80295 
L 479.6719 265.910768 
L 483.7166 261.623064 
L 487.7613 256.92703 
L 491.806 251.905962 
L 495.8507 246.608267 
L 507.9848 229.759774 
L 512.0295 224.007734 
L 517.422433 215.562274 
L 518.770667 214.000023 
L 521.467133 211.371451 
L 525.511833 207.992345 
L 526.860067 206.905074 
L 528.2083 206.055833 
L 534.949467 203.620159 
L 536.2977 202.789416 
L 537.645933 202.103515 
L 538.994167 201.916883 
L 540.3424 201.949902 
L 541.690633 201.794794 
L 543.038867 201.525374 
L 544.3871 201.493447 
L 545.735333 201.632695 
L 547.083567 201.550709 
L 549.780033 200.892062 
L 556.5212 198.937012 
L 559.217667 198.501313 
L 561.914133 198.279047 
L 564.6106 198.246634 
L 571.351767 198.480798 
L 574.048233 198.259395 
L 576.7447 197.833345 
L 580.7894 196.901048 
L 584.8341 195.72107 
L 588.8788 194.30832 
L 592.9235 192.661566 
L 599.664667 189.82162 
L 610.450533 185.673765 
L 614.495233 184.346196 
L 621.2364 182.392304 
L 623.932867 181.724244 
L 626.629333 181.21344 
L 630.674033 180.748213 
L 634.718733 180.498915 
L 637.4152 180.531742 
L 640.111667 180.842244 
L 642.808133 181.41941 
L 645.5046 182.226557 
L 648.201067 183.195605 
L 649.5493 183.812388 
L 650.897533 184.625983 
L 652.245767 185.622772 
L 653.594 186.789426 
L 656.290467 189.592293 
L 658.986933 192.978945 
L 661.6834 196.843596 
L 665.7281 202.649267 
L 669.7728 207.954691 
L 672.469267 211.227942 
L 675.165733 214.220939 
L 677.8622 216.780579 
L 680.558667 218.816628 
L 683.255133 220.445018 
L 685.9516 221.760464 
L 688.648067 222.858033 
L 691.344533 223.758424 
L 694.041 224.475501 
L 698.0857 225.293881 
L 704.826867 226.294985 
L 710.2198 226.836958 
L 721.005667 227.552765 
L 729.095067 227.85717 
L 741.229167 228.209956 
L 741.229167 228.209956 
" style="fill:none;stroke:#808080;stroke-linecap:square;stroke-width:1.5;"/>
   </g>
   <g id="line2d_55">
    <path clip-path="url(#p0fe3019b85)" d="M 404.170833 313.836307 
L 406.8673 312.893933 
L 413.608467 310.122103 
L 423.0461 305.892812 
L 433.831967 300.465198 
L 443.2696 295.570222 
L 451.359 291.858907 
L 463.4931 286.636785 
L 467.5378 284.690345 
L 471.5825 282.429997 
L 474.278967 280.653133 
L 478.323667 277.567332 
L 482.368367 274.147659 
L 486.413067 270.433778 
L 491.806 264.974954 
L 495.8507 260.608393 
L 506.636567 248.209744 
L 512.0295 241.862045 
L 517.422433 234.807726 
L 518.770667 233.499637 
L 521.467133 231.297186 
L 525.511833 228.462218 
L 526.860067 227.549187 
L 528.2083 226.835477 
L 534.949467 224.787822 
L 537.645933 223.511569 
L 538.994167 223.354419 
L 540.3424 223.382211 
L 544.3871 222.997954 
L 545.735333 223.115183 
L 547.083567 223.046184 
L 549.780033 222.491603 
L 556.5212 220.844432 
L 559.217667 220.477151 
L 561.914133 220.289755 
L 565.958833 220.302201 
L 570.003533 220.482209 
L 572.7 220.390053 
L 575.396467 220.112678 
L 579.441167 219.418534 
L 583.485867 218.483711 
L 587.530567 217.361145 
L 591.575267 216.029318 
L 603.709367 211.809747 
L 611.798767 209.236919 
L 617.1917 207.829621 
L 623.932867 206.282705 
L 627.977567 205.688213 
L 632.022267 205.369108 
L 636.066967 205.224204 
L 638.763433 205.374442 
L 641.4599 205.750096 
L 644.156367 206.346055 
L 648.201067 207.531696 
L 649.5493 208.055077 
L 650.897533 208.745253 
L 652.245767 209.590505 
L 654.942233 211.701201 
L 657.6387 214.329419 
L 660.335167 217.404211 
L 665.7281 223.971826 
L 669.7728 228.431118 
L 672.469267 231.177169 
L 675.165733 233.68467 
L 677.8622 235.826372 
L 680.558667 237.528293 
L 683.255133 238.888376 
L 685.9516 239.986393 
L 688.648067 240.902061 
L 691.344533 241.6529 
L 695.389233 242.502173 
L 699.433933 243.117594 
L 706.1751 243.900933 
L 711.568033 244.302582 
L 723.702133 244.919754 
L 739.880933 245.351568 
L 741.229167 245.360725 
L 741.229167 245.360725 
" style="fill:none;stroke:#808080;stroke-dasharray:1.5,2.475;stroke-dashoffset:0;stroke-width:1.5;"/>
   </g>
   <g id="line2d_56">
    <path clip-path="url(#p0fe3019b85)" d="M 404.170833 312.110673 
L 406.8673 310.932414 
L 412.260233 308.167064 
L 416.304933 305.970051 
L 421.697867 303.033809 
L 433.831967 295.459114 
L 443.2696 289.397843 
L 450.010767 285.51944 
L 463.4931 278.381784 
L 466.189567 276.841172 
L 470.234267 274.192256 
L 472.930733 272.172773 
L 475.6272 269.80295 
L 479.6719 265.910768 
L 483.7166 261.623064 
L 487.7613 256.92703 
L 491.806 251.905962 
L 495.8507 246.608267 
L 507.9848 229.759774 
L 512.0295 224.007734 
L 517.422433 215.562274 
L 518.770667 214.000023 
L 521.467133 211.371451 
L 525.511833 207.992345 
L 526.860067 206.905074 
L 528.2083 206.055833 
L 534.949467 203.620159 
L 536.2977 202.789416 
L 537.645933 202.103515 
L 538.994167 201.916883 
L 540.3424 201.949902 
L 541.690633 201.794794 
L 543.038867 201.525374 
L 544.3871 201.493447 
L 545.735333 201.632695 
L 547.083567 201.551337 
L 548.4318 201.181571 
L 549.780033 200.620182 
L 552.4765 199.031922 
L 555.172967 196.968248 
L 557.869433 194.395642 
L 560.5659 191.371692 
L 563.262367 187.987425 
L 567.307067 182.418784 
L 572.7 174.559189 
L 579.441167 164.309592 
L 583.485867 157.890052 
L 586.182333 153.202428 
L 590.227033 145.620121 
L 594.271733 137.554424 
L 601.0129 123.490262 
L 611.798767 100.552596 
L 615.843467 92.945901 
L 619.888167 85.886444 
L 622.584633 81.454396 
L 625.2811 77.46676 
L 627.977567 73.931821 
L 630.674033 70.785852 
L 633.3705 67.928593 
L 637.4152 64.02405 
L 641.4599 60.441494 
L 645.5046 57.202989 
L 658.986933 47.008594 
L 664.379867 43.17332 
L 667.076333 41.566846 
L 669.7728 40.183362 
L 672.469267 39.031377 
L 675.165733 38.082082 
L 677.8622 37.325606 
L 680.558667 36.773549 
L 683.255133 36.408177 
L 685.9516 36.217711 
L 688.648067 36.224188 
L 694.041 36.555169 
L 699.433933 37.107283 
L 703.478633 37.73682 
L 718.3092 40.554743 
L 726.3986 42.273205 
L 733.139767 43.688705 
L 739.880933 45.139418 
L 741.229167 45.403838 
L 741.229167 45.403838 
" style="fill:none;stroke:#ff0000;stroke-linecap:square;stroke-width:1.5;"/>
   </g>
   <g id="line2d_57">
    <path clip-path="url(#p0fe3019b85)" d="M 404.170833 313.836307 
L 406.8673 312.893933 
L 413.608467 310.122103 
L 423.0461 305.892812 
L 433.831967 300.465198 
L 443.2696 295.570222 
L 451.359 291.858907 
L 463.4931 286.636785 
L 467.5378 284.690345 
L 471.5825 282.429997 
L 474.278967 280.653133 
L 478.323667 277.567332 
L 482.368367 274.147659 
L 486.413067 270.433778 
L 491.806 264.974954 
L 495.8507 260.608393 
L 506.636567 248.209744 
L 512.0295 241.862045 
L 517.422433 234.807726 
L 518.770667 233.499637 
L 521.467133 231.297186 
L 525.511833 228.462218 
L 526.860067 227.549187 
L 528.2083 226.835477 
L 534.949467 224.787822 
L 537.645933 223.511569 
L 538.994167 223.354419 
L 540.3424 223.382211 
L 544.3871 222.997954 
L 545.735333 223.115183 
L 547.083567 223.046704 
L 548.4318 222.735409 
L 549.780033 222.262711 
L 552.4765 220.924653 
L 555.172967 219.184706 
L 557.869433 217.013489 
L 560.5659 214.458243 
L 563.262367 211.594552 
L 567.307067 206.873383 
L 572.7 200.190735 
L 579.441167 191.442574 
L 583.485867 185.944422 
L 586.182333 181.920339 
L 590.227033 175.394695 
L 594.271733 168.430465 
L 599.664667 158.712702 
L 606.405833 146.108486 
L 610.450533 138.55998 
L 613.147 133.891302 
L 617.1917 127.381001 
L 621.2364 121.276015 
L 623.932867 117.540234 
L 626.629333 114.208201 
L 629.3258 111.256854 
L 632.022267 108.600672 
L 636.066967 105.006914 
L 640.111667 101.720788 
L 644.156367 98.736534 
L 653.594 92.303074 
L 660.335167 87.791113 
L 664.379867 85.236699 
L 667.076333 83.793871 
L 669.7728 82.550613 
L 672.469267 81.514886 
L 676.513967 80.29554 
L 679.210433 79.710097 
L 681.9069 79.299369 
L 684.603367 79.047027 
L 687.299833 78.96728 
L 691.344533 79.110354 
L 696.737467 79.510128 
L 702.1304 80.139909 
L 714.2645 82.123511 
L 719.657433 83.156316 
L 727.746833 84.669255 
L 734.488 85.975841 
L 741.229167 87.2383 
L 741.229167 87.2383 
" style="fill:none;stroke:#ff0000;stroke-dasharray:1.5,2.475;stroke-dashoffset:0;stroke-width:1.5;"/>
   </g>
   <g id="patch_8">
    <path d="M 404.170833 327.718125 
L 404.170833 22.318125 
" style="fill:none;stroke:#000000;stroke-linecap:square;stroke-linejoin:miter;stroke-width:0.8;"/>
   </g>
   <g id="patch_9">
    <path d="M 741.229167 327.718125 
L 741.229167 22.318125 
" style="fill:none;stroke:#000000;stroke-linecap:square;stroke-linejoin:miter;stroke-width:0.8;"/>
   </g>
   <g id="patch_10">
    <path d="M 404.170833 327.718125 
L 741.229167 327.718125 
" style="fill:none;stroke:#000000;stroke-linecap:square;stroke-linejoin:miter;stroke-width:0.8;"/>
   </g>
   <g id="patch_11">
    <path d="M 404.170833 22.318125 
L 741.229167 22.318125 
" style="fill:none;stroke:#000000;stroke-linecap:square;stroke-linejoin:miter;stroke-width:0.8;"/>
   </g>
   <g id="text_31">
    <!-- CH4 -->
    <defs>
     <path d="M 9.8125 72.90625 
L 19.671875 72.90625 
L 19.671875 43.015625 
L 55.515625 43.015625 
L 55.515625 72.90625 
L 65.375 72.90625 
L 65.375 0 
L 55.515625 0 
L 55.515625 34.71875 
L 19.671875 34.71875 
L 19.671875 0 
L 9.8125 0 
z
" id="DejaVuSans-72"/>
    </defs>
    <g transform="translate(560.180625 16.318125)scale(0.12 -0.12)">
     <use xlink:href="#DejaVuSans-67"/>
     <use x="69.824219" xlink:href="#DejaVuSans-72"/>
     <use x="145.019531" xlink:href="#DejaVuSans-52"/>
    </g>
   </g>
  </g>
  <g id="axes_3">
   <g id="patch_12">
    <path d="M 787.779167 327.718125 
L 1124.8375 327.718125 
L 1124.8375 22.318125 
L 787.779167 22.318125 
z
" style="fill:#ffffff;"/>
   </g>
   <g id="matplotlib.axis_5">
    <g id="xtick_13">
     <g id="line2d_58">
      <g>
       <use style="stroke:#000000;stroke-width:0.8;" x="787.779167" xlink:href="#m09a873acc5" y="327.718125"/>
      </g>
     </g>
     <g id="text_32">
      <!-- 1900 -->
      <g transform="translate(775.054167 342.316562)scale(0.1 -0.1)">
       <use xlink:href="#DejaVuSans-49"/>
       <use x="63.623047" xlink:href="#DejaVuSans-57"/>
       <use x="127.246094" xlink:href="#DejaVuSans-48"/>
       <use x="190.869141" xlink:href="#DejaVuSans-48"/>
      </g>
     </g>
    </g>
    <g id="xtick_14">
     <g id="line2d_59">
      <g>
       <use style="stroke:#000000;stroke-width:0.8;" x="855.190833" xlink:href="#m09a873acc5" y="327.718125"/>
      </g>
     </g>
     <g id="text_33">
      <!-- 1950 -->
      <g transform="translate(842.465833 342.316562)scale(0.1 -0.1)">
       <use xlink:href="#DejaVuSans-49"/>
       <use x="63.623047" xlink:href="#DejaVuSans-57"/>
       <use x="127.246094" xlink:href="#DejaVuSans-53"/>
       <use x="190.869141" xlink:href="#DejaVuSans-48"/>
      </g>
     </g>
    </g>
    <g id="xtick_15">
     <g id="line2d_60">
      <g>
       <use style="stroke:#000000;stroke-width:0.8;" x="922.6025" xlink:href="#m09a873acc5" y="327.718125"/>
      </g>
     </g>
     <g id="text_34">
      <!-- 2000 -->
      <g transform="translate(909.8775 342.316562)scale(0.1 -0.1)">
       <use xlink:href="#DejaVuSans-50"/>
       <use x="63.623047" xlink:href="#DejaVuSans-48"/>
       <use x="127.246094" xlink:href="#DejaVuSans-48"/>
       <use x="190.869141" xlink:href="#DejaVuSans-48"/>
      </g>
     </g>
    </g>
    <g id="xtick_16">
     <g id="line2d_61">
      <g>
       <use style="stroke:#000000;stroke-width:0.8;" x="990.014167" xlink:href="#m09a873acc5" y="327.718125"/>
      </g>
     </g>
     <g id="text_35">
      <!-- 2050 -->
      <g transform="translate(977.289167 342.316562)scale(0.1 -0.1)">
       <use xlink:href="#DejaVuSans-50"/>
       <use x="63.623047" xlink:href="#DejaVuSans-48"/>
       <use x="127.246094" xlink:href="#DejaVuSans-53"/>
       <use x="190.869141" xlink:href="#DejaVuSans-48"/>
      </g>
     </g>
    </g>
    <g id="xtick_17">
     <g id="line2d_62">
      <g>
       <use style="stroke:#000000;stroke-width:0.8;" x="1057.425833" xlink:href="#m09a873acc5" y="327.718125"/>
      </g>
     </g>
     <g id="text_36">
      <!-- 2100 -->
      <g transform="translate(1044.700833 342.316562)scale(0.1 -0.1)">
       <use xlink:href="#DejaVuSans-50"/>
       <use x="63.623047" xlink:href="#DejaVuSans-49"/>
       <use x="127.246094" xlink:href="#DejaVuSans-48"/>
       <use x="190.869141" xlink:href="#DejaVuSans-48"/>
      </g>
     </g>
    </g>
    <g id="xtick_18">
     <g id="line2d_63">
      <g>
       <use style="stroke:#000000;stroke-width:0.8;" x="1124.8375" xlink:href="#m09a873acc5" y="327.718125"/>
      </g>
     </g>
     <g id="text_37">
      <!-- 2150 -->
      <g transform="translate(1112.1125 342.316562)scale(0.1 -0.1)">
       <use xlink:href="#DejaVuSans-50"/>
       <use x="63.623047" xlink:href="#DejaVuSans-49"/>
       <use x="127.246094" xlink:href="#DejaVuSans-53"/>
       <use x="190.869141" xlink:href="#DejaVuSans-48"/>
      </g>
     </g>
    </g>
   </g>
   <g id="matplotlib.axis_6">
    <g id="ytick_12">
     <g id="line2d_64">
      <g>
       <use style="stroke:#000000;stroke-width:0.8;" x="787.779167" xlink:href="#m9293eacb06" y="325.049828"/>
      </g>
     </g>
     <g id="text_38">
      <!-- 0.0 -->
      <g transform="translate(764.876042 328.849047)scale(0.1 -0.1)">
       <use xlink:href="#DejaVuSans-48"/>
       <use x="63.623047" xlink:href="#DejaVuSans-46"/>
       <use x="95.410156" xlink:href="#DejaVuSans-48"/>
      </g>
     </g>
    </g>
    <g id="ytick_13">
     <g id="line2d_65">
      <g>
       <use style="stroke:#000000;stroke-width:0.8;" x="787.779167" xlink:href="#m9293eacb06" y="279.655556"/>
      </g>
     </g>
     <g id="text_39">
      <!-- 0.1 -->
      <g transform="translate(764.876042 283.454774)scale(0.1 -0.1)">
       <use xlink:href="#DejaVuSans-48"/>
       <use x="63.623047" xlink:href="#DejaVuSans-46"/>
       <use x="95.410156" xlink:href="#DejaVuSans-49"/>
      </g>
     </g>
    </g>
    <g id="ytick_14">
     <g id="line2d_66">
      <g>
       <use style="stroke:#000000;stroke-width:0.8;" x="787.779167" xlink:href="#m9293eacb06" y="234.261283"/>
      </g>
     </g>
     <g id="text_40">
      <!-- 0.2 -->
      <g transform="translate(764.876042 238.060502)scale(0.1 -0.1)">
       <use xlink:href="#DejaVuSans-48"/>
       <use x="63.623047" xlink:href="#DejaVuSans-46"/>
       <use x="95.410156" xlink:href="#DejaVuSans-50"/>
      </g>
     </g>
    </g>
    <g id="ytick_15">
     <g id="line2d_67">
      <g>
       <use style="stroke:#000000;stroke-width:0.8;" x="787.779167" xlink:href="#m9293eacb06" y="188.86701"/>
      </g>
     </g>
     <g id="text_41">
      <!-- 0.3 -->
      <g transform="translate(764.876042 192.666229)scale(0.1 -0.1)">
       <use xlink:href="#DejaVuSans-48"/>
       <use x="63.623047" xlink:href="#DejaVuSans-46"/>
       <use x="95.410156" xlink:href="#DejaVuSans-51"/>
      </g>
     </g>
    </g>
    <g id="ytick_16">
     <g id="line2d_68">
      <g>
       <use style="stroke:#000000;stroke-width:0.8;" x="787.779167" xlink:href="#m9293eacb06" y="143.472738"/>
      </g>
     </g>
     <g id="text_42">
      <!-- 0.4 -->
      <g transform="translate(764.876042 147.271956)scale(0.1 -0.1)">
       <use xlink:href="#DejaVuSans-48"/>
       <use x="63.623047" xlink:href="#DejaVuSans-46"/>
       <use x="95.410156" xlink:href="#DejaVuSans-52"/>
      </g>
     </g>
    </g>
    <g id="ytick_17">
     <g id="line2d_69">
      <g>
       <use style="stroke:#000000;stroke-width:0.8;" x="787.779167" xlink:href="#m9293eacb06" y="98.078465"/>
      </g>
     </g>
     <g id="text_43">
      <!-- 0.5 -->
      <g transform="translate(764.876042 101.877684)scale(0.1 -0.1)">
       <use xlink:href="#DejaVuSans-48"/>
       <use x="63.623047" xlink:href="#DejaVuSans-46"/>
       <use x="95.410156" xlink:href="#DejaVuSans-53"/>
      </g>
     </g>
    </g>
    <g id="ytick_18">
     <g id="line2d_70">
      <g>
       <use style="stroke:#000000;stroke-width:0.8;" x="787.779167" xlink:href="#m9293eacb06" y="52.684192"/>
      </g>
     </g>
     <g id="text_44">
      <!-- 0.6 -->
      <g transform="translate(764.876042 56.483411)scale(0.1 -0.1)">
       <use xlink:href="#DejaVuSans-48"/>
       <use x="63.623047" xlink:href="#DejaVuSans-46"/>
       <use x="95.410156" xlink:href="#DejaVuSans-54"/>
      </g>
     </g>
    </g>
   </g>
   <g id="line2d_71">
    <path clip-path="url(#p1a22badaa6)" d="M 787.779167 312.802402 
L 798.565033 311.557198 
L 808.002667 309.958752 
L 812.047367 309.001044 
L 824.181467 306.204682 
L 845.7532 302.18458 
L 851.146133 300.813352 
L 856.539067 299.514346 
L 865.9767 297.23677 
L 872.717867 295.27908 
L 878.1108 293.081652 
L 880.807267 291.828329 
L 884.851967 289.708518 
L 888.896667 287.247294 
L 891.593133 285.365916 
L 894.2896 283.460749 
L 895.637833 282.575068 
L 899.682533 279.243192 
L 901.030767 278.430074 
L 903.727233 276.545798 
L 905.075467 275.875221 
L 906.4237 274.600388 
L 907.771933 272.808963 
L 909.120167 271.476979 
L 910.4684 270.622905 
L 914.5131 268.597977 
L 918.5578 265.673523 
L 921.254267 263.648941 
L 923.950733 261.989209 
L 930.6919 256.997407 
L 941.477767 249.725057 
L 946.8707 246.482619 
L 952.263633 243.573035 
L 959.0048 240.197813 
L 967.0942 236.417298 
L 973.835367 233.515165 
L 979.2283 231.36713 
L 983.273 230.002211 
L 987.3177 228.906794 
L 991.3624 228.073756 
L 996.755333 227.270911 
L 1002.148267 226.73101 
L 1008.889433 226.342421 
L 1027.7647 225.452341 
L 1037.202333 225.256334 
L 1046.639967 225.272295 
L 1056.0776 225.511381 
L 1114.051633 227.663466 
L 1124.8375 227.980642 
L 1124.8375 227.980642 
" style="fill:none;stroke:#0000ff;stroke-linecap:square;stroke-width:1.5;"/>
   </g>
   <g id="line2d_72">
    <path clip-path="url(#p1a22badaa6)" d="M 787.779167 313.836307 
L 797.2168 312.7228 
L 806.654433 311.036122 
L 809.3509 310.46189 
L 824.181467 306.719702 
L 845.7532 302.387085 
L 851.146133 300.909895 
L 856.539067 299.510789 
L 865.9767 297.058411 
L 872.717867 294.951181 
L 878.1108 292.586655 
L 880.807267 291.238409 
L 884.851967 288.958613 
L 888.896667 286.312569 
L 891.593133 284.290624 
L 894.2896 282.243603 
L 895.637833 281.292245 
L 899.682533 277.714265 
L 901.030767 276.841333 
L 903.727233 274.818937 
L 905.075467 274.099319 
L 906.4237 272.732058 
L 907.771933 270.810241 
L 909.120167 269.381506 
L 910.4684 268.465622 
L 914.5131 266.294859 
L 918.5578 263.160966 
L 921.254267 260.992109 
L 923.950733 259.214651 
L 930.6919 253.871273 
L 941.477767 246.093695 
L 945.522467 243.460201 
L 949.567167 241.03331 
L 956.308333 237.331484 
L 963.0495 233.859866 
L 969.790667 230.614452 
L 976.531833 227.616978 
L 980.576533 225.979202 
L 984.621233 224.620661 
L 988.665933 223.547336 
L 992.710633 222.74516 
L 998.103567 221.961115 
L 1003.4965 221.453974 
L 1019.6753 220.540978 
L 1029.112933 220.150224 
L 1038.550567 219.973127 
L 1047.9882 220.022775 
L 1057.425833 220.312154 
L 1093.828133 221.844937 
L 1124.8375 222.886931 
L 1124.8375 222.886931 
" style="fill:none;stroke:#0000ff;stroke-dasharray:1.5,2.475;stroke-dashoffset:0;stroke-width:1.5;"/>
   </g>
   <g id="line2d_73">
    <path clip-path="url(#p1a22badaa6)" d="M 787.779167 312.802402 
L 798.565033 311.557198 
L 808.002667 309.958752 
L 812.047367 309.001044 
L 824.181467 306.204682 
L 845.7532 302.18458 
L 851.146133 300.813352 
L 856.539067 299.514346 
L 865.9767 297.23677 
L 872.717867 295.27908 
L 878.1108 293.081652 
L 880.807267 291.828329 
L 884.851967 289.708518 
L 888.896667 287.247294 
L 891.593133 285.365916 
L 894.2896 283.460749 
L 895.637833 282.575068 
L 899.682533 279.243192 
L 901.030767 278.430074 
L 903.727233 276.545798 
L 905.075467 275.875221 
L 906.4237 274.600388 
L 907.771933 272.808963 
L 909.120167 271.476979 
L 910.4684 270.622905 
L 914.5131 268.597977 
L 918.5578 265.673523 
L 921.254267 263.648941 
L 923.950733 261.989209 
L 930.6919 256.997407 
L 953.611867 241.144986 
L 972.487133 228.092576 
L 980.576533 222.779527 
L 987.3177 218.623553 
L 994.058867 214.736107 
L 1000.800033 211.093939 
L 1007.5412 207.685348 
L 1014.282367 204.53021 
L 1021.023533 201.62707 
L 1027.7647 198.994854 
L 1034.505867 196.617696 
L 1043.9435 193.529112 
L 1053.381133 190.663604 
L 1062.818767 188.030289 
L 1069.559933 186.397369 
L 1076.3011 184.986109 
L 1083.042267 183.785915 
L 1089.783433 182.786695 
L 1096.5246 181.978937 
L 1104.614 181.249709 
L 1112.7034 180.768604 
L 1120.7928 180.521965 
L 1124.8375 180.484583 
L 1124.8375 180.484583 
" style="fill:none;stroke:#daa520;stroke-linecap:square;stroke-width:1.5;"/>
   </g>
   <g id="line2d_74">
    <path clip-path="url(#p1a22badaa6)" d="M 787.779167 313.836307 
L 797.2168 312.7228 
L 806.654433 311.036122 
L 809.3509 310.46189 
L 824.181467 306.719702 
L 845.7532 302.387085 
L 851.146133 300.909895 
L 856.539067 299.510789 
L 865.9767 297.058411 
L 872.717867 294.951181 
L 878.1108 292.586655 
L 880.807267 291.238409 
L 884.851967 288.958613 
L 888.896667 286.312569 
L 891.593133 284.290624 
L 894.2896 282.243603 
L 895.637833 281.292245 
L 899.682533 277.714265 
L 901.030767 276.841333 
L 903.727233 274.818937 
L 905.075467 274.099319 
L 906.4237 272.732058 
L 907.771933 270.810241 
L 909.120167 269.381506 
L 910.4684 268.465622 
L 914.5131 266.294859 
L 918.5578 263.160966 
L 921.254267 260.992109 
L 923.950733 259.214651 
L 930.6919 253.871273 
L 954.9601 235.924951 
L 972.487133 223.006327 
L 980.576533 217.346696 
L 987.3177 212.922525 
L 994.058867 208.786494 
L 1000.800033 204.913432 
L 1007.5412 201.290492 
L 1014.282367 197.938438 
L 1021.023533 194.855382 
L 1027.7647 192.061069 
L 1034.505867 189.538364 
L 1043.9435 186.261892 
L 1053.381133 183.223258 
L 1061.470533 180.807162 
L 1068.2117 179.028301 
L 1074.952867 177.48693 
L 1081.694033 176.171621 
L 1088.4352 175.071487 
L 1095.176367 174.176225 
L 1101.917533 173.476141 
L 1110.006933 172.880773 
L 1118.096333 172.538414 
L 1124.8375 172.438514 
L 1124.8375 172.438514 
" style="fill:none;stroke:#daa520;stroke-dasharray:1.5,2.475;stroke-dashoffset:0;stroke-width:1.5;"/>
   </g>
   <g id="line2d_75">
    <path clip-path="url(#p1a22badaa6)" d="M 787.779167 312.802402 
L 798.565033 311.557198 
L 808.002667 309.958752 
L 812.047367 309.001044 
L 824.181467 306.204682 
L 845.7532 302.18458 
L 851.146133 300.813352 
L 856.539067 299.514346 
L 865.9767 297.23677 
L 872.717867 295.27908 
L 878.1108 293.081652 
L 880.807267 291.828329 
L 884.851967 289.708518 
L 888.896667 287.247294 
L 891.593133 285.365916 
L 894.2896 283.460749 
L 895.637833 282.575068 
L 899.682533 279.243192 
L 901.030767 278.430074 
L 903.727233 276.545798 
L 905.075467 275.875221 
L 906.4237 274.600388 
L 907.771933 272.808963 
L 909.120167 271.476979 
L 910.4684 270.622905 
L 914.5131 268.597977 
L 918.5578 265.673523 
L 921.254267 263.648941 
L 923.950733 261.989209 
L 930.6919 256.997407 
L 936.084833 253.153295 
L 942.826 248.214535 
L 948.218933 244.549512 
L 959.0048 237.421062 
L 964.397733 233.51303 
L 969.790667 229.363026 
L 975.1836 224.978436 
L 981.924767 219.198357 
L 988.665933 213.15517 
L 996.755333 205.585862 
L 1004.844733 197.687411 
L 1016.978833 185.442963 
L 1029.112933 173.185163 
L 1037.202333 165.312572 
L 1043.9435 159.102936 
L 1050.684667 153.225003 
L 1057.425833 147.696581 
L 1061.470533 144.5686 
L 1065.515233 141.677433 
L 1069.559933 139.024101 
L 1073.604633 136.600878 
L 1077.649333 134.400186 
L 1081.694033 132.414794 
L 1085.738733 130.637819 
L 1089.783433 129.062683 
L 1093.828133 127.683123 
L 1097.872833 126.493152 
L 1101.917533 125.487026 
L 1105.962233 124.659301 
L 1110.006933 124.004708 
L 1115.399867 123.392598 
L 1120.7928 123.068093 
L 1124.8375 123.004442 
L 1124.8375 123.004442 
" style="fill:none;stroke:#808080;stroke-linecap:square;stroke-width:1.5;"/>
   </g>
   <g id="line2d_76">
    <path clip-path="url(#p1a22badaa6)" d="M 787.779167 313.836307 
L 797.2168 312.7228 
L 806.654433 311.036122 
L 809.3509 310.46189 
L 824.181467 306.719702 
L 845.7532 302.387085 
L 851.146133 300.909895 
L 856.539067 299.510789 
L 865.9767 297.058411 
L 872.717867 294.951181 
L 878.1108 292.586655 
L 880.807267 291.238409 
L 884.851967 288.958613 
L 888.896667 286.312569 
L 891.593133 284.290624 
L 894.2896 282.243603 
L 895.637833 281.292245 
L 899.682533 277.714265 
L 901.030767 276.841333 
L 903.727233 274.818937 
L 905.075467 274.099319 
L 906.4237 272.732058 
L 907.771933 270.810241 
L 909.120167 269.381506 
L 910.4684 268.465622 
L 914.5131 266.294859 
L 918.5578 263.160966 
L 921.254267 260.992109 
L 923.950733 259.214651 
L 930.6919 253.871273 
L 936.084833 249.759106 
L 942.826 244.479298 
L 948.218933 240.563592 
L 959.0048 232.953515 
L 964.397733 228.784718 
L 969.790667 224.360325 
L 975.1836 219.688609 
L 981.924767 213.534385 
L 988.665933 207.105249 
L 996.755333 199.060008 
L 1004.844733 190.673707 
L 1016.978833 177.690405 
L 1027.7647 166.132755 
L 1035.8541 157.744456 
L 1042.595267 151.115426 
L 1049.336433 144.83743 
L 1056.0776 138.933179 
L 1061.470533 134.498444 
L 1065.515233 131.451776 
L 1069.559933 128.656701 
L 1073.604633 126.104825 
L 1077.649333 123.787952 
L 1081.694033 121.698285 
L 1085.738733 119.828409 
L 1089.783433 118.171268 
L 1093.828133 116.720141 
L 1097.872833 115.46863 
L 1101.917533 114.41063 
L 1105.962233 113.540308 
L 1110.006933 112.852099 
L 1114.051633 112.340678 
L 1118.096333 112.000966 
L 1123.489267 111.806755 
L 1124.8375 111.800568 
L 1124.8375 111.800568 
" style="fill:none;stroke:#808080;stroke-dasharray:1.5,2.475;stroke-dashoffset:0;stroke-width:1.5;"/>
   </g>
   <g id="line2d_77">
    <path clip-path="url(#p1a22badaa6)" d="M 787.779167 312.802402 
L 798.565033 311.557198 
L 808.002667 309.958752 
L 812.047367 309.001044 
L 824.181467 306.204682 
L 845.7532 302.18458 
L 851.146133 300.813352 
L 856.539067 299.514346 
L 865.9767 297.23677 
L 872.717867 295.27908 
L 878.1108 293.081652 
L 880.807267 291.828329 
L 884.851967 289.708518 
L 888.896667 287.247294 
L 891.593133 285.365916 
L 894.2896 283.460749 
L 895.637833 282.575068 
L 899.682533 279.243192 
L 901.030767 278.430074 
L 903.727233 276.545798 
L 905.075467 275.875221 
L 906.4237 274.600388 
L 907.771933 272.808963 
L 909.120167 271.476979 
L 910.4684 270.622905 
L 914.5131 268.597977 
L 918.5578 265.673523 
L 921.254267 263.648941 
L 923.950733 261.989209 
L 930.6919 256.997407 
L 936.084833 253.167108 
L 940.129533 250.095233 
L 944.174233 246.768097 
L 948.218933 243.187254 
L 953.611867 238.04473 
L 959.0048 232.559361 
L 964.397733 226.760703 
L 969.790667 220.661097 
L 975.1836 214.272424 
L 983.273 204.28636 
L 1021.023533 157.39566 
L 1054.729367 116.636325 
L 1062.818767 107.142259 
L 1069.559933 99.632545 
L 1076.3011 92.507853 
L 1083.042267 85.746217 
L 1089.783433 79.327163 
L 1096.5246 73.231574 
L 1103.265767 67.441604 
L 1110.006933 61.940528 
L 1116.7481 56.712743 
L 1123.489267 51.743556 
L 1124.8375 50.779524 
L 1124.8375 50.779524 
" style="fill:none;stroke:#ff0000;stroke-linecap:square;stroke-width:1.5;"/>
   </g>
   <g id="line2d_78">
    <path clip-path="url(#p1a22badaa6)" d="M 787.779167 313.836307 
L 797.2168 312.7228 
L 806.654433 311.036122 
L 809.3509 310.46189 
L 824.181467 306.719702 
L 845.7532 302.387085 
L 851.146133 300.909895 
L 856.539067 299.510789 
L 865.9767 297.058411 
L 872.717867 294.951181 
L 878.1108 292.586655 
L 880.807267 291.238409 
L 884.851967 288.958613 
L 888.896667 286.312569 
L 891.593133 284.290624 
L 894.2896 282.243603 
L 895.637833 281.292245 
L 899.682533 277.714265 
L 901.030767 276.841333 
L 903.727233 274.818937 
L 905.075467 274.099319 
L 906.4237 272.732058 
L 907.771933 270.810241 
L 909.120167 269.381506 
L 910.4684 268.465622 
L 914.5131 266.294859 
L 918.5578 263.160966 
L 921.254267 260.992109 
L 923.950733 259.214651 
L 930.6919 253.871273 
L 936.084833 249.773881 
L 940.129533 246.489456 
L 944.174233 242.93375 
L 948.218933 239.10881 
L 952.263633 235.028029 
L 957.656567 229.262393 
L 963.0495 223.162306 
L 968.442433 216.744532 
L 973.835367 210.020365 
L 980.576533 201.239769 
L 1021.023533 148.028802 
L 1049.336433 111.899637 
L 1060.1223 98.413034 
L 1066.863467 90.366668 
L 1073.604633 82.740108 
L 1080.3458 75.509123 
L 1087.086967 68.650679 
L 1093.828133 62.143356 
L 1100.5693 55.967215 
L 1107.310467 50.10366 
L 1114.051633 44.53533 
L 1120.7928 39.245994 
L 1124.8375 36.199943 
L 1124.8375 36.199943 
" style="fill:none;stroke:#ff0000;stroke-dasharray:1.5,2.475;stroke-dashoffset:0;stroke-width:1.5;"/>
   </g>
   <g id="patch_13">
    <path d="M 787.779167 327.718125 
L 787.779167 22.318125 
" style="fill:none;stroke:#000000;stroke-linecap:square;stroke-linejoin:miter;stroke-width:0.8;"/>
   </g>
   <g id="patch_14">
    <path d="M 1124.8375 327.718125 
L 1124.8375 22.318125 
" style="fill:none;stroke:#000000;stroke-linecap:square;stroke-linejoin:miter;stroke-width:0.8;"/>
   </g>
   <g id="patch_15">
    <path d="M 787.779167 327.718125 
L 1124.8375 327.718125 
" style="fill:none;stroke:#000000;stroke-linecap:square;stroke-linejoin:miter;stroke-width:0.8;"/>
   </g>
   <g id="patch_16">
    <path d="M 787.779167 22.318125 
L 1124.8375 22.318125 
" style="fill:none;stroke:#000000;stroke-linecap:square;stroke-linejoin:miter;stroke-width:0.8;"/>
   </g>
   <g id="text_45">
    <!-- N2O -->
    <defs>
     <path d="M 9.8125 72.90625 
L 23.09375 72.90625 
L 55.421875 11.921875 
L 55.421875 72.90625 
L 64.984375 72.90625 
L 64.984375 0 
L 51.703125 0 
L 19.390625 60.984375 
L 19.390625 0 
L 9.8125 0 
z
" id="DejaVuSans-78"/>
    </defs>
    <g transform="translate(943.278958 16.318125)scale(0.12 -0.12)">
     <use xlink:href="#DejaVuSans-78"/>
     <use x="74.804688" xlink:href="#DejaVuSans-50"/>
     <use x="138.427734" xlink:href="#DejaVuSans-79"/>
    </g>
   </g>
  </g>
 </g>
 <defs>
  <clipPath id="pcdec26cd7a">
   <rect height="305.4" width="337.058333" x="20.5625" y="22.318125"/>
  </clipPath>
  <clipPath id="p0fe3019b85">
   <rect height="305.4" width="337.058333" x="404.170833" y="22.318125"/>
  </clipPath>
  <clipPath id="p1a22badaa6">
   <rect height="305.4" width="337.058333" x="787.779167" y="22.318125"/>
  </clipPath>
 </defs>
</svg>
