<?xml version="1.0" encoding="utf-8" standalone="no"?>
<!DOCTYPE svg PUBLIC "-//W3C//DTD SVG 1.1//EN"
  "http://www.w3.org/Graphics/SVG/1.1/DTD/svg11.dtd">
<!-- Created with matplotlib (https://matplotlib.org/) -->
<svg height="351.59625pt" version="1.1" viewBox="0 0 856.181732 351.59625" width="856.181732pt" xmlns="http://www.w3.org/2000/svg" xmlns:xlink="http://www.w3.org/1999/xlink">
 <defs>
  <style type="text/css">
*{stroke-linecap:butt;stroke-linejoin:round;}
  </style>
 </defs>
 <g id="figure_1">
  <g id="patch_1">
   <path d="M -0 351.59625 
L 856.181732 351.59625 
L 856.181732 0 
L -0 0 
z
" style="fill:#ffffff;"/>
  </g>
  <g id="axes_1">
   <g id="patch_2">
    <path d="M 48.982813 327.718125 
L 425.569232 327.718125 
L 425.569232 22.318125 
L 48.982813 22.318125 
z
" style="fill:#ffffff;"/>
   </g>
   <g id="PolyCollection_1">
    <defs>
     <path d="M 48.982812 -245.499688 
L 48.982812 -246.60156 
L 50.526199 -248.668237 
L 52.069586 -247.718259 
L 53.612973 -246.714056 
L 55.15636 -245.676405 
L 56.699747 -244.654521 
L 58.243134 -243.661684 
L 59.786521 -242.663633 
L 61.329908 -241.639547 
L 62.873295 -240.588127 
L 64.416682 -239.507645 
L 65.960069 -238.397497 
L 67.503456 -237.256154 
L 69.046843 -236.081864 
L 70.59023 -234.851994 
L 72.133617 -233.534682 
L 73.677004 -232.163678 
L 75.220391 -230.813543 
L 76.763778 -229.5197 
L 78.307165 -228.290363 
L 79.850552 -227.133011 
L 81.393939 -226.056037 
L 82.937326 -225.06854 
L 84.480713 -224.214578 
L 86.0241 -223.458773 
L 87.567487 -222.748962 
L 89.110874 -222.040788 
L 90.654261 -221.327795 
L 92.197648 -220.613526 
L 93.741034 -219.894281 
L 95.284421 -219.166168 
L 96.827808 -218.426566 
L 98.371195 -217.672579 
L 99.914582 -216.901377 
L 101.457969 -216.156289 
L 103.001356 -215.526487 
L 104.544743 -215.005165 
L 106.08813 -214.492071 
L 107.631517 -213.933673 
L 109.174904 -213.32204 
L 110.718291 -212.649208 
L 112.261678 -211.906815 
L 113.805065 -211.08696 
L 115.348452 -210.156859 
L 116.891839 -209.110942 
L 118.435226 -208.068164 
L 119.978613 -207.136363 
L 121.522 -206.254267 
L 123.065387 -205.360824 
L 124.608774 -204.403591 
L 126.152161 -203.323274 
L 127.695548 -202.20572 
L 129.238935 -201.157026 
L 130.782322 -200.161745 
L 132.325709 -199.162184 
L 133.869096 -198.140204 
L 135.412483 -197.087881 
L 136.95587 -196.006463 
L 138.499256 -194.891793 
L 140.042643 -193.747709 
L 141.58603 -192.576094 
L 143.129417 -191.377579 
L 144.672804 -190.153446 
L 146.216191 -188.902882 
L 147.759578 -187.600671 
L 149.302965 -186.196475 
L 150.846352 -184.686149 
L 152.389739 -183.14431 
L 153.933126 -181.664773 
L 155.476513 -180.185666 
L 157.0199 -178.63687 
L 158.563287 -177.130578 
L 160.106674 -175.758544 
L 161.650061 -174.466555 
L 163.193448 -173.223056 
L 164.736835 -172.055471 
L 166.280222 -170.905628 
L 167.823609 -169.672674 
L 169.366996 -168.307421 
L 170.910383 -166.799266 
L 172.45377 -165.144008 
L 173.997157 -163.326755 
L 175.540544 -161.330787 
L 177.083931 -159.143001 
L 178.627318 -156.696775 
L 180.170705 -158.246876 
L 181.714092 -160.288052 
L 183.257478 -160.489315 
L 184.800865 -160.688533 
L 186.344252 -158.634115 
L 187.887639 -158.565241 
L 189.431026 -160.658323 
L 190.974413 -160.711121 
L 192.5178 -160.865231 
L 194.061187 -161.10432 
L 195.604574 -164.50115 
L 197.147961 -167.874694 
L 198.691348 -171.218798 
L 200.234735 -174.561751 
L 201.778122 -180.165367 
L 203.321509 -183.764722 
L 204.864896 -185.111502 
L 206.408283 -188.461227 
L 207.95167 -191.813763 
L 209.495057 -197.418547 
L 211.038444 -190.893954 
L 212.581831 -182.121027 
L 214.125218 -175.335853 
L 215.668605 -168.529757 
L 217.211992 -163.966739 
L 218.755379 -157.396586 
L 220.298766 -148.568793 
L 221.842153 -141.752831 
L 223.38554 -134.952485 
L 224.928927 -130.410779 
L 226.472314 -125.78679 
L 228.0157 -119.159571 
L 229.559087 -112.495972 
L 231.102474 -103.282566 
L 232.645861 -93.619437 
L 234.189248 -88.520337 
L 235.732635 -83.873296 
L 237.276022 -77.277182 
L 238.819409 -70.694637 
L 240.362796 -64.060102 
L 241.906183 -64.154881 
L 243.44957 -64.523506 
L 244.992957 -60.709556 
L 246.536344 -56.704525 
L 248.079731 -56.933614 
L 249.623118 -57.381416 
L 251.166505 -53.475949 
L 252.709892 -51.538737 
L 254.253279 -51.885914 
L 255.796666 -52.512115 
L 257.340053 -58.636259 
L 258.88344 -63.205381 
L 260.426827 -65.777219 
L 261.970214 -68.439638 
L 263.513601 -69.289788 
L 265.056988 -70.366637 
L 266.600375 -71.441928 
L 268.143762 -74.727772 
L 269.687149 -78.229247 
L 271.230535 -77.493635 
L 272.773922 -76.20468 
L 274.317309 -79.148073 
L 275.860696 -84.41289 
L 277.404083 -87.84621 
L 278.94747 -89.439047 
L 280.490857 -91.11435 
L 282.034244 -92.800655 
L 283.577631 -96.752373 
L 285.121018 -100.888565 
L 286.664405 -100.738753 
L 288.207792 -100.735945 
L 289.751179 -104.971966 
L 291.294566 -109.494673 
L 292.837953 -112.021059 
L 294.38134 -114.526756 
L 295.924727 -117.07463 
L 297.468114 -119.628201 
L 299.011501 -122.167903 
L 300.554888 -122.394329 
L 302.098275 -122.321958 
L 303.641662 -124.033761 
L 305.185049 -125.766002 
L 306.728436 -127.452448 
L 308.271823 -126.90351 
L 309.81521 -126.189464 
L 311.358597 -127.532682 
L 312.901984 -128.94192 
L 314.445371 -130.328969 
L 315.988757 -131.6546 
L 317.532144 -135.201416 
L 319.075531 -137.719334 
L 320.618918 -135.924029 
L 322.162305 -133.832563 
L 323.705692 -135.980037 
L 325.249079 -138.397446 
L 326.792466 -141.073917 
L 328.335853 -146.255148 
L 329.87924 -149.645908 
L 331.422627 -153.242592 
L 332.966014 -159.254255 
L 334.509401 -154.871135 
L 336.052788 -153.117514 
L 337.596175 -151.986596 
L 339.139562 -147.011227 
L 340.682949 -142.283357 
L 342.226336 -140.132545 
L 343.769723 -138.511054 
L 345.31311 -135.144874 
L 346.856497 -131.979988 
L 348.399884 -131.160442 
L 349.943271 -136.881141 
L 351.486658 -142.783258 
L 353.030045 -146.731138 
L 354.573432 -150.104364 
L 356.116819 -155.468178 
L 357.660206 -159.908783 
L 359.203593 -165.517073 
L 360.746979 -173.813667 
L 362.290366 -182.024118 
L 363.833753 -188.307762 
L 365.37714 -189.978114 
L 366.920527 -194.058177 
L 368.463914 -198.309136 
L 370.007301 -200.321118 
L 371.550688 -201.827993 
L 373.094075 -203.050262 
L 374.637462 -206.898926 
L 376.180849 -211.390414 
L 377.724236 -213.886481 
L 379.267623 -225.328882 
L 380.81101 -244.24633 
L 382.354397 -255.001003 
L 383.897784 -260.347368 
L 385.441171 -248.659894 
L 386.984558 -221.113597 
L 388.527945 -207.001749 
L 390.071332 -201.922854 
L 391.614719 -194.302832 
L 393.158106 -190.074754 
L 394.701493 -187.687549 
L 396.24488 -209.574529 
L 397.788267 -208.070941 
L 399.331654 -191.801276 
L 400.875041 -209.156927 
L 402.418428 -231.944712 
L 403.961815 -235.05404 
L 405.505201 -262.119379 
L 407.048588 -307.381639 
L 408.591975 -315.396307 
L 410.135362 -291.966915 
L 411.678749 -266.731535 
L 413.222136 -274.532867 
L 414.765523 -277.368958 
L 416.30891 -250.768698 
L 417.852297 -227.929056 
L 419.395684 -227.489981 
L 420.939071 -234.024287 
L 422.482458 -234.354971 
L 424.025845 -234.785248 
L 425.569232 -232.780401 
L 425.569232 -103.605773 
L 425.569232 -103.605773 
L 424.025845 -106.76731 
L 422.482458 -107.330621 
L 420.939071 -107.553492 
L 419.395684 -101.261104 
L 417.852297 -101.819156 
L 416.30891 -124.742299 
L 414.765523 -151.884867 
L 413.222136 -149.657625 
L 411.678749 -142.332826 
L 410.135362 -167.982434 
L 408.591975 -192.505304 
L 407.048588 -185.861853 
L 405.505201 -141.766765 
L 403.961815 -115.321628 
L 402.418428 -112.780389 
L 400.875041 -90.764789 
L 399.331654 -74.09875 
L 397.788267 -91.364453 
L 396.24488 -94.106133 
L 394.701493 -73.806693 
L 393.158106 -77.798772 
L 391.614719 -83.526778 
L 390.071332 -92.559748 
L 388.527945 -99.425248 
L 386.984558 -115.394905 
L 385.441171 -145.347101 
L 383.897784 -159.642123 
L 382.354397 -157.311712 
L 380.81101 -149.122487 
L 379.267623 -132.625315 
L 377.724236 -123.520084 
L 376.180849 -123.234738 
L 374.637462 -120.992244 
L 373.094075 -119.405625 
L 371.550688 -120.328993 
L 370.007301 -120.948775 
L 368.463914 -121.028399 
L 366.920527 -118.79891 
L 365.37714 -116.615713 
L 363.833753 -116.849457 
L 362.290366 -112.503217 
L 360.746979 -106.112532 
L 359.203593 -99.5676 
L 357.660206 -95.599958 
L 356.116819 -92.679983 
L 354.573432 -88.775192 
L 353.030045 -86.944005 
L 351.486658 -84.418345 
L 349.943271 -79.991607 
L 348.399884 -75.749935 
L 346.856497 -77.89634 
L 345.31311 -82.368915 
L 343.769723 -86.962941 
L 342.226336 -89.822674 
L 340.682949 -93.174548 
L 339.139562 -99.0166 
L 337.596175 -105.102984 
L 336.052788 -107.233423 
L 334.509401 -109.939024 
L 332.966014 -115.155816 
L 331.422627 -109.979848 
L 329.87924 -107.095966 
L 328.335853 -104.443151 
L 326.792466 -99.964999 
L 325.249079 -97.95411 
L 323.705692 -96.190501 
L 322.162305 -94.641633 
L 320.618918 -97.290378 
L 319.075531 -99.7252 
L 317.532144 -97.815123 
L 315.988757 -94.829962 
L 314.445371 -94.123972 
L 312.901984 -93.373445 
L 311.358597 -92.565929 
L 309.81521 -91.809732 
L 308.271823 -93.124868 
L 306.728436 -94.298506 
L 305.185049 -93.246052 
L 303.641662 -92.151825 
L 302.098275 -91.076074 
L 300.554888 -91.76941 
L 299.011501 -92.210787 
L 297.468114 -90.356547 
L 295.924727 -88.494218 
L 294.38134 -86.649977 
L 292.837953 -84.816088 
L 291.294566 -82.967383 
L 289.751179 -79.0943 
L 288.207792 -75.471184 
L 286.664405 -76.092514 
L 285.121018 -76.917881 
L 283.577631 -73.428339 
L 282.034244 -70.079099 
L 280.490857 -68.979167 
L 278.94747 -67.881985 
L 277.404083 -66.876599 
L 275.860696 -64.021298 
L 274.317309 -59.302895 
L 272.773922 -56.857601 
L 271.230535 -58.626352 
L 269.687149 -59.876297 
L 268.143762 -56.899717 
L 266.600375 -54.14403 
L 265.056988 -53.545099 
L 263.513601 -52.864817 
L 261.970214 -52.426253 
L 260.426827 -50.309939 
L 258.88344 -48.159925 
L 257.340053 -43.975187 
L 255.796666 -38.193177 
L 254.253279 -37.859395 
L 252.709892 -37.759943 
L 251.166505 -39.918766 
L 249.623118 -44.074745 
L 248.079731 -43.896153 
L 246.536344 -43.90144 
L 244.992957 -48.081171 
L 243.44957 -52.094149 
L 241.906183 -51.929374 
L 240.362796 -52.034839 
L 238.819409 -58.830577 
L 237.276022 -65.573228 
L 235.732635 -72.356903 
L 234.189248 -77.178591 
L 232.645861 -82.436508 
L 231.102474 -92.435861 
L 229.559087 -101.859198 
L 228.0157 -108.732135 
L 226.472314 -115.554833 
L 224.928927 -120.366611 
L 223.38554 -125.068508 
L 221.842153 -132.017319 
L 220.298766 -138.98577 
L 218.755379 -147.987029 
L 217.211992 -154.730778 
L 215.668605 -159.453816 
L 214.125218 -166.408452 
L 212.581831 -173.349576 
L 211.038444 -182.294396 
L 209.495057 -188.986754 
L 207.95167 -183.546255 
L 206.408283 -180.345789 
L 204.864896 -177.151967 
L 203.321509 -175.974914 
L 201.778122 -172.555005 
L 200.234735 -167.118538 
L 198.691348 -163.929146 
L 197.147961 -160.738625 
L 195.604574 -157.521781 
L 194.061187 -154.275302 
L 192.5178 -154.10451 
L 190.974413 -154.058689 
L 189.431026 -154.226966 
L 187.887639 -152.277685 
L 186.344252 -152.468262 
L 184.800865 -154.658631 
L 183.257478 -154.607047 
L 181.714092 -154.553415 
L 180.170705 -152.646489 
L 178.627318 -151.208425 
L 177.083931 -153.76465 
L 175.540544 -156.073555 
L 173.997157 -158.179074 
L 172.45377 -160.120639 
L 170.910383 -161.900999 
L 169.366996 -163.532085 
L 167.823609 -165.022376 
L 166.280222 -166.379759 
L 164.736835 -167.637218 
L 163.193448 -168.875566 
L 161.650061 -170.131496 
L 160.106674 -171.507332 
L 158.563287 -172.976221 
L 157.0199 -174.578324 
L 155.476513 -176.294497 
L 153.933126 -177.890984 
L 152.389739 -179.438959 
L 150.846352 -181.09418 
L 149.302965 -182.679303 
L 147.759578 -184.176458 
L 146.216191 -185.56667 
L 144.672804 -186.914935 
L 143.129417 -188.232191 
L 141.58603 -189.500922 
L 140.042643 -190.755539 
L 138.499256 -191.984529 
L 136.95587 -193.178945 
L 135.412483 -194.345318 
L 133.869096 -195.477835 
L 132.325709 -196.580159 
L 130.782322 -197.640874 
L 129.238935 -198.696979 
L 127.695548 -199.847335 
L 126.152161 -201.114247 
L 124.608774 -202.316227 
L 123.065387 -203.368002 
L 121.522 -204.351844 
L 119.978613 -205.321084 
L 118.435226 -206.34846 
L 116.891839 -207.485776 
L 115.348452 -208.659668 
L 113.805065 -209.686859 
L 112.261678 -210.59956 
L 110.718291 -211.434127 
L 109.174904 -212.198136 
L 107.631517 -212.899122 
L 106.08813 -213.544457 
L 104.544743 -214.141201 
L 103.001356 -214.742273 
L 101.457969 -215.448127 
L 99.914582 -216.266331 
L 98.371195 -217.109127 
L 96.827808 -217.932742 
L 95.284421 -218.739644 
L 93.741034 -219.532865 
L 92.197648 -220.314608 
L 90.654261 -221.088462 
L 89.110874 -221.85745 
L 87.567487 -222.618677 
L 86.0241 -223.377462 
L 84.480713 -224.178479 
L 82.937326 -225.062836 
L 81.393939 -226.01124 
L 79.850552 -227.050711 
L 78.307165 -228.171462 
L 76.763778 -229.363971 
L 75.220391 -230.619614 
L 73.677004 -231.92987 
L 72.133617 -233.25843 
L 70.59023 -234.530482 
L 69.046843 -235.712791 
L 67.503456 -236.837246 
L 65.960069 -237.927326 
L 64.416682 -238.983801 
L 62.873295 -240.008845 
L 61.329908 -241.004027 
L 59.786521 -241.970968 
L 58.243134 -242.911079 
L 56.699747 -243.845326 
L 55.15636 -244.806979 
L 53.612973 -245.782588 
L 52.069586 -246.723959 
L 50.526199 -247.612346 
L 48.982812 -245.499688 
z
" id="ma480aa69ab"/>
    </defs>
    <g clip-path="url(#p4888777fc6)">
     <use style="fill:#0000ff;fill-opacity:0.2;" x="0" xlink:href="#ma480aa69ab" y="351.59625"/>
    </g>
   </g>
   <g id="matplotlib.axis_1">
    <g id="xtick_1">
     <g id="line2d_1">
      <defs>
       <path d="M 0 0 
L 0 3.5 
" id="m07f86ff19b" style="stroke:#000000;stroke-width:0.8;"/>
      </defs>
      <g>
       <use style="stroke:#000000;stroke-width:0.8;" x="101.457969" xlink:href="#m07f86ff19b" y="327.718125"/>
      </g>
     </g>
     <g id="text_1">
      <!-- 1800 -->
      <defs>
       <path d="M 12.40625 8.296875 
L 28.515625 8.296875 
L 28.515625 63.921875 
L 10.984375 60.40625 
L 10.984375 69.390625 
L 28.421875 72.90625 
L 38.28125 72.90625 
L 38.28125 8.296875 
L 54.390625 8.296875 
L 54.390625 0 
L 12.40625 0 
z
" id="DejaVuSans-49"/>
       <path d="M 31.78125 34.625 
Q 24.75 34.625 20.71875 30.859375 
Q 16.703125 27.09375 16.703125 20.515625 
Q 16.703125 13.921875 20.71875 10.15625 
Q 24.75 6.390625 31.78125 6.390625 
Q 38.8125 6.390625 42.859375 10.171875 
Q 46.921875 13.96875 46.921875 20.515625 
Q 46.921875 27.09375 42.890625 30.859375 
Q 38.875 34.625 31.78125 34.625 
z
M 21.921875 38.8125 
Q 15.578125 40.375 12.03125 44.71875 
Q 8.5 49.078125 8.5 55.328125 
Q 8.5 64.0625 14.71875 69.140625 
Q 20.953125 74.21875 31.78125 74.21875 
Q 42.671875 74.21875 48.875 69.140625 
Q 55.078125 64.0625 55.078125 55.328125 
Q 55.078125 49.078125 51.53125 44.71875 
Q 48 40.375 41.703125 38.8125 
Q 48.828125 37.15625 52.796875 32.3125 
Q 56.78125 27.484375 56.78125 20.515625 
Q 56.78125 9.90625 50.3125 4.234375 
Q 43.84375 -1.421875 31.78125 -1.421875 
Q 19.734375 -1.421875 13.25 4.234375 
Q 6.78125 9.90625 6.78125 20.515625 
Q 6.78125 27.484375 10.78125 32.3125 
Q 14.796875 37.15625 21.921875 38.8125 
z
M 18.3125 54.390625 
Q 18.3125 48.734375 21.84375 45.5625 
Q 25.390625 42.390625 31.78125 42.390625 
Q 38.140625 42.390625 41.71875 45.5625 
Q 45.3125 48.734375 45.3125 54.390625 
Q 45.3125 60.0625 41.71875 63.234375 
Q 38.140625 66.40625 31.78125 66.40625 
Q 25.390625 66.40625 21.84375 63.234375 
Q 18.3125 60.0625 18.3125 54.390625 
z
" id="DejaVuSans-56"/>
       <path d="M 31.78125 66.40625 
Q 24.171875 66.40625 20.328125 58.90625 
Q 16.5 51.421875 16.5 36.375 
Q 16.5 21.390625 20.328125 13.890625 
Q 24.171875 6.390625 31.78125 6.390625 
Q 39.453125 6.390625 43.28125 13.890625 
Q 47.125 21.390625 47.125 36.375 
Q 47.125 51.421875 43.28125 58.90625 
Q 39.453125 66.40625 31.78125 66.40625 
z
M 31.78125 74.21875 
Q 44.046875 74.21875 50.515625 64.515625 
Q 56.984375 54.828125 56.984375 36.375 
Q 56.984375 17.96875 50.515625 8.265625 
Q 44.046875 -1.421875 31.78125 -1.421875 
Q 19.53125 -1.421875 13.0625 8.265625 
Q 6.59375 17.96875 6.59375 36.375 
Q 6.59375 54.828125 13.0625 64.515625 
Q 19.53125 74.21875 31.78125 74.21875 
z
" id="DejaVuSans-48"/>
      </defs>
      <g transform="translate(88.732969 342.316562)scale(0.1 -0.1)">
       <use xlink:href="#DejaVuSans-49"/>
       <use x="63.623047" xlink:href="#DejaVuSans-56"/>
       <use x="127.246094" xlink:href="#DejaVuSans-48"/>
       <use x="190.869141" xlink:href="#DejaVuSans-48"/>
      </g>
     </g>
    </g>
    <g id="xtick_2">
     <g id="line2d_2">
      <g>
       <use style="stroke:#000000;stroke-width:0.8;" x="178.627318" xlink:href="#m07f86ff19b" y="327.718125"/>
      </g>
     </g>
     <g id="text_2">
      <!-- 1850 -->
      <defs>
       <path d="M 10.796875 72.90625 
L 49.515625 72.90625 
L 49.515625 64.59375 
L 19.828125 64.59375 
L 19.828125 46.734375 
Q 21.96875 47.46875 24.109375 47.828125 
Q 26.265625 48.1875 28.421875 48.1875 
Q 40.625 48.1875 47.75 41.5 
Q 54.890625 34.8125 54.890625 23.390625 
Q 54.890625 11.625 47.5625 5.09375 
Q 40.234375 -1.421875 26.90625 -1.421875 
Q 22.3125 -1.421875 17.546875 -0.640625 
Q 12.796875 0.140625 7.71875 1.703125 
L 7.71875 11.625 
Q 12.109375 9.234375 16.796875 8.0625 
Q 21.484375 6.890625 26.703125 6.890625 
Q 35.15625 6.890625 40.078125 11.328125 
Q 45.015625 15.765625 45.015625 23.390625 
Q 45.015625 31 40.078125 35.4375 
Q 35.15625 39.890625 26.703125 39.890625 
Q 22.75 39.890625 18.8125 39.015625 
Q 14.890625 38.140625 10.796875 36.28125 
z
" id="DejaVuSans-53"/>
      </defs>
      <g transform="translate(165.902318 342.316562)scale(0.1 -0.1)">
       <use xlink:href="#DejaVuSans-49"/>
       <use x="63.623047" xlink:href="#DejaVuSans-56"/>
       <use x="127.246094" xlink:href="#DejaVuSans-53"/>
       <use x="190.869141" xlink:href="#DejaVuSans-48"/>
      </g>
     </g>
    </g>
    <g id="xtick_3">
     <g id="line2d_3">
      <g>
       <use style="stroke:#000000;stroke-width:0.8;" x="255.796666" xlink:href="#m07f86ff19b" y="327.718125"/>
      </g>
     </g>
     <g id="text_3">
      <!-- 1900 -->
      <defs>
       <path d="M 10.984375 1.515625 
L 10.984375 10.5 
Q 14.703125 8.734375 18.5 7.8125 
Q 22.3125 6.890625 25.984375 6.890625 
Q 35.75 6.890625 40.890625 13.453125 
Q 46.046875 20.015625 46.78125 33.40625 
Q 43.953125 29.203125 39.59375 26.953125 
Q 35.25 24.703125 29.984375 24.703125 
Q 19.046875 24.703125 12.671875 31.3125 
Q 6.296875 37.9375 6.296875 49.421875 
Q 6.296875 60.640625 12.9375 67.421875 
Q 19.578125 74.21875 30.609375 74.21875 
Q 43.265625 74.21875 49.921875 64.515625 
Q 56.59375 54.828125 56.59375 36.375 
Q 56.59375 19.140625 48.40625 8.859375 
Q 40.234375 -1.421875 26.421875 -1.421875 
Q 22.703125 -1.421875 18.890625 -0.6875 
Q 15.09375 0.046875 10.984375 1.515625 
z
M 30.609375 32.421875 
Q 37.25 32.421875 41.125 36.953125 
Q 45.015625 41.5 45.015625 49.421875 
Q 45.015625 57.28125 41.125 61.84375 
Q 37.25 66.40625 30.609375 66.40625 
Q 23.96875 66.40625 20.09375 61.84375 
Q 16.21875 57.28125 16.21875 49.421875 
Q 16.21875 41.5 20.09375 36.953125 
Q 23.96875 32.421875 30.609375 32.421875 
z
" id="DejaVuSans-57"/>
      </defs>
      <g transform="translate(243.071666 342.316562)scale(0.1 -0.1)">
       <use xlink:href="#DejaVuSans-49"/>
       <use x="63.623047" xlink:href="#DejaVuSans-57"/>
       <use x="127.246094" xlink:href="#DejaVuSans-48"/>
       <use x="190.869141" xlink:href="#DejaVuSans-48"/>
      </g>
     </g>
    </g>
    <g id="xtick_4">
     <g id="line2d_4">
      <g>
       <use style="stroke:#000000;stroke-width:0.8;" x="332.966014" xlink:href="#m07f86ff19b" y="327.718125"/>
      </g>
     </g>
     <g id="text_4">
      <!-- 1950 -->
      <g transform="translate(320.241014 342.316562)scale(0.1 -0.1)">
       <use xlink:href="#DejaVuSans-49"/>
       <use x="63.623047" xlink:href="#DejaVuSans-57"/>
       <use x="127.246094" xlink:href="#DejaVuSans-53"/>
       <use x="190.869141" xlink:href="#DejaVuSans-48"/>
      </g>
     </g>
    </g>
    <g id="xtick_5">
     <g id="line2d_5">
      <g>
       <use style="stroke:#000000;stroke-width:0.8;" x="410.135362" xlink:href="#m07f86ff19b" y="327.718125"/>
      </g>
     </g>
     <g id="text_5">
      <!-- 2000 -->
      <defs>
       <path d="M 19.1875 8.296875 
L 53.609375 8.296875 
L 53.609375 0 
L 7.328125 0 
L 7.328125 8.296875 
Q 12.9375 14.109375 22.625 23.890625 
Q 32.328125 33.6875 34.8125 36.53125 
Q 39.546875 41.84375 41.421875 45.53125 
Q 43.3125 49.21875 43.3125 52.78125 
Q 43.3125 58.59375 39.234375 62.25 
Q 35.15625 65.921875 28.609375 65.921875 
Q 23.96875 65.921875 18.8125 64.3125 
Q 13.671875 62.703125 7.8125 59.421875 
L 7.8125 69.390625 
Q 13.765625 71.78125 18.9375 73 
Q 24.125 74.21875 28.421875 74.21875 
Q 39.75 74.21875 46.484375 68.546875 
Q 53.21875 62.890625 53.21875 53.421875 
Q 53.21875 48.921875 51.53125 44.890625 
Q 49.859375 40.875 45.40625 35.40625 
Q 44.1875 33.984375 37.640625 27.21875 
Q 31.109375 20.453125 19.1875 8.296875 
z
" id="DejaVuSans-50"/>
      </defs>
      <g transform="translate(397.410362 342.316562)scale(0.1 -0.1)">
       <use xlink:href="#DejaVuSans-50"/>
       <use x="63.623047" xlink:href="#DejaVuSans-48"/>
       <use x="127.246094" xlink:href="#DejaVuSans-48"/>
       <use x="190.869141" xlink:href="#DejaVuSans-48"/>
      </g>
     </g>
    </g>
   </g>
   <g id="matplotlib.axis_2">
    <g id="ytick_1">
     <g id="line2d_6">
      <defs>
       <path d="M 0 0 
L -3.5 0 
" id="m709ad8018e" style="stroke:#000000;stroke-width:0.8;"/>
      </defs>
      <g>
       <use style="stroke:#000000;stroke-width:0.8;" x="48.982813" xlink:href="#m709ad8018e" y="271.102731"/>
      </g>
     </g>
     <g id="text_6">
      <!-- −60 -->
      <defs>
       <path d="M 10.59375 35.5 
L 73.1875 35.5 
L 73.1875 27.203125 
L 10.59375 27.203125 
z
" id="DejaVuSans-8722"/>
       <path d="M 33.015625 40.375 
Q 26.375 40.375 22.484375 35.828125 
Q 18.609375 31.296875 18.609375 23.390625 
Q 18.609375 15.53125 22.484375 10.953125 
Q 26.375 6.390625 33.015625 6.390625 
Q 39.65625 6.390625 43.53125 10.953125 
Q 47.40625 15.53125 47.40625 23.390625 
Q 47.40625 31.296875 43.53125 35.828125 
Q 39.65625 40.375 33.015625 40.375 
z
M 52.59375 71.296875 
L 52.59375 62.3125 
Q 48.875 64.0625 45.09375 64.984375 
Q 41.3125 65.921875 37.59375 65.921875 
Q 27.828125 65.921875 22.671875 59.328125 
Q 17.53125 52.734375 16.796875 39.40625 
Q 19.671875 43.65625 24.015625 45.921875 
Q 28.375 48.1875 33.59375 48.1875 
Q 44.578125 48.1875 50.953125 41.515625 
Q 57.328125 34.859375 57.328125 23.390625 
Q 57.328125 12.15625 50.6875 5.359375 
Q 44.046875 -1.421875 33.015625 -1.421875 
Q 20.359375 -1.421875 13.671875 8.265625 
Q 6.984375 17.96875 6.984375 36.375 
Q 6.984375 53.65625 15.1875 63.9375 
Q 23.390625 74.21875 37.203125 74.21875 
Q 40.921875 74.21875 44.703125 73.484375 
Q 48.484375 72.75 52.59375 71.296875 
z
" id="DejaVuSans-54"/>
      </defs>
      <g transform="translate(20.878125 274.90195)scale(0.1 -0.1)">
       <use xlink:href="#DejaVuSans-8722"/>
       <use x="83.789062" xlink:href="#DejaVuSans-54"/>
       <use x="147.412109" xlink:href="#DejaVuSans-48"/>
      </g>
     </g>
    </g>
    <g id="ytick_2">
     <g id="line2d_7">
      <g>
       <use style="stroke:#000000;stroke-width:0.8;" x="48.982813" xlink:href="#m709ad8018e" y="211.340387"/>
      </g>
     </g>
     <g id="text_7">
      <!-- −40 -->
      <defs>
       <path d="M 37.796875 64.3125 
L 12.890625 25.390625 
L 37.796875 25.390625 
z
M 35.203125 72.90625 
L 47.609375 72.90625 
L 47.609375 25.390625 
L 58.015625 25.390625 
L 58.015625 17.1875 
L 47.609375 17.1875 
L 47.609375 0 
L 37.796875 0 
L 37.796875 17.1875 
L 4.890625 17.1875 
L 4.890625 26.703125 
z
" id="DejaVuSans-52"/>
      </defs>
      <g transform="translate(20.878125 215.139606)scale(0.1 -0.1)">
       <use xlink:href="#DejaVuSans-8722"/>
       <use x="83.789062" xlink:href="#DejaVuSans-52"/>
       <use x="147.412109" xlink:href="#DejaVuSans-48"/>
      </g>
     </g>
    </g>
    <g id="ytick_3">
     <g id="line2d_8">
      <g>
       <use style="stroke:#000000;stroke-width:0.8;" x="48.982813" xlink:href="#m709ad8018e" y="151.578044"/>
      </g>
     </g>
     <g id="text_8">
      <!-- −20 -->
      <g transform="translate(20.878125 155.377263)scale(0.1 -0.1)">
       <use xlink:href="#DejaVuSans-8722"/>
       <use x="83.789062" xlink:href="#DejaVuSans-50"/>
       <use x="147.412109" xlink:href="#DejaVuSans-48"/>
      </g>
     </g>
    </g>
    <g id="ytick_4">
     <g id="line2d_9">
      <g>
       <use style="stroke:#000000;stroke-width:0.8;" x="48.982813" xlink:href="#m709ad8018e" y="91.8157"/>
      </g>
     </g>
     <g id="text_9">
      <!-- 0 -->
      <g transform="translate(35.620313 95.614919)scale(0.1 -0.1)">
       <use xlink:href="#DejaVuSans-48"/>
      </g>
     </g>
    </g>
    <g id="ytick_5">
     <g id="line2d_10">
      <g>
       <use style="stroke:#000000;stroke-width:0.8;" x="48.982813" xlink:href="#m709ad8018e" y="32.053356"/>
      </g>
     </g>
     <g id="text_10">
      <!-- 20 -->
      <g transform="translate(29.257813 35.852575)scale(0.1 -0.1)">
       <use xlink:href="#DejaVuSans-50"/>
       <use x="63.623047" xlink:href="#DejaVuSans-48"/>
      </g>
     </g>
    </g>
    <g id="text_11">
     <!-- Emissions (MtCH4) -->
     <defs>
      <path d="M 9.8125 72.90625 
L 55.90625 72.90625 
L 55.90625 64.59375 
L 19.671875 64.59375 
L 19.671875 43.015625 
L 54.390625 43.015625 
L 54.390625 34.71875 
L 19.671875 34.71875 
L 19.671875 8.296875 
L 56.78125 8.296875 
L 56.78125 0 
L 9.8125 0 
z
" id="DejaVuSans-69"/>
      <path d="M 52 44.1875 
Q 55.375 50.25 60.0625 53.125 
Q 64.75 56 71.09375 56 
Q 79.640625 56 84.28125 50.015625 
Q 88.921875 44.046875 88.921875 33.015625 
L 88.921875 0 
L 79.890625 0 
L 79.890625 32.71875 
Q 79.890625 40.578125 77.09375 44.375 
Q 74.3125 48.1875 68.609375 48.1875 
Q 61.625 48.1875 57.5625 43.546875 
Q 53.515625 38.921875 53.515625 30.90625 
L 53.515625 0 
L 44.484375 0 
L 44.484375 32.71875 
Q 44.484375 40.625 41.703125 44.40625 
Q 38.921875 48.1875 33.109375 48.1875 
Q 26.21875 48.1875 22.15625 43.53125 
Q 18.109375 38.875 18.109375 30.90625 
L 18.109375 0 
L 9.078125 0 
L 9.078125 54.6875 
L 18.109375 54.6875 
L 18.109375 46.1875 
Q 21.1875 51.21875 25.484375 53.609375 
Q 29.78125 56 35.6875 56 
Q 41.65625 56 45.828125 52.96875 
Q 50 49.953125 52 44.1875 
z
" id="DejaVuSans-109"/>
      <path d="M 9.421875 54.6875 
L 18.40625 54.6875 
L 18.40625 0 
L 9.421875 0 
z
M 9.421875 75.984375 
L 18.40625 75.984375 
L 18.40625 64.59375 
L 9.421875 64.59375 
z
" id="DejaVuSans-105"/>
      <path d="M 44.28125 53.078125 
L 44.28125 44.578125 
Q 40.484375 46.53125 36.375 47.5 
Q 32.28125 48.484375 27.875 48.484375 
Q 21.1875 48.484375 17.84375 46.4375 
Q 14.5 44.390625 14.5 40.28125 
Q 14.5 37.15625 16.890625 35.375 
Q 19.28125 33.59375 26.515625 31.984375 
L 29.59375 31.296875 
Q 39.15625 29.25 43.1875 25.515625 
Q 47.21875 21.78125 47.21875 15.09375 
Q 47.21875 7.46875 41.1875 3.015625 
Q 35.15625 -1.421875 24.609375 -1.421875 
Q 20.21875 -1.421875 15.453125 -0.5625 
Q 10.6875 0.296875 5.421875 2 
L 5.421875 11.28125 
Q 10.40625 8.6875 15.234375 7.390625 
Q 20.0625 6.109375 24.8125 6.109375 
Q 31.15625 6.109375 34.5625 8.28125 
Q 37.984375 10.453125 37.984375 14.40625 
Q 37.984375 18.0625 35.515625 20.015625 
Q 33.0625 21.96875 24.703125 23.78125 
L 21.578125 24.515625 
Q 13.234375 26.265625 9.515625 29.90625 
Q 5.8125 33.546875 5.8125 39.890625 
Q 5.8125 47.609375 11.28125 51.796875 
Q 16.75 56 26.8125 56 
Q 31.78125 56 36.171875 55.265625 
Q 40.578125 54.546875 44.28125 53.078125 
z
" id="DejaVuSans-115"/>
      <path d="M 30.609375 48.390625 
Q 23.390625 48.390625 19.1875 42.75 
Q 14.984375 37.109375 14.984375 27.296875 
Q 14.984375 17.484375 19.15625 11.84375 
Q 23.34375 6.203125 30.609375 6.203125 
Q 37.796875 6.203125 41.984375 11.859375 
Q 46.1875 17.53125 46.1875 27.296875 
Q 46.1875 37.015625 41.984375 42.703125 
Q 37.796875 48.390625 30.609375 48.390625 
z
M 30.609375 56 
Q 42.328125 56 49.015625 48.375 
Q 55.71875 40.765625 55.71875 27.296875 
Q 55.71875 13.875 49.015625 6.21875 
Q 42.328125 -1.421875 30.609375 -1.421875 
Q 18.84375 -1.421875 12.171875 6.21875 
Q 5.515625 13.875 5.515625 27.296875 
Q 5.515625 40.765625 12.171875 48.375 
Q 18.84375 56 30.609375 56 
z
" id="DejaVuSans-111"/>
      <path d="M 54.890625 33.015625 
L 54.890625 0 
L 45.90625 0 
L 45.90625 32.71875 
Q 45.90625 40.484375 42.875 44.328125 
Q 39.84375 48.1875 33.796875 48.1875 
Q 26.515625 48.1875 22.3125 43.546875 
Q 18.109375 38.921875 18.109375 30.90625 
L 18.109375 0 
L 9.078125 0 
L 9.078125 54.6875 
L 18.109375 54.6875 
L 18.109375 46.1875 
Q 21.34375 51.125 25.703125 53.5625 
Q 30.078125 56 35.796875 56 
Q 45.21875 56 50.046875 50.171875 
Q 54.890625 44.34375 54.890625 33.015625 
z
" id="DejaVuSans-110"/>
      <path id="DejaVuSans-32"/>
      <path d="M 31 75.875 
Q 24.46875 64.65625 21.28125 53.65625 
Q 18.109375 42.671875 18.109375 31.390625 
Q 18.109375 20.125 21.3125 9.0625 
Q 24.515625 -2 31 -13.1875 
L 23.1875 -13.1875 
Q 15.875 -1.703125 12.234375 9.375 
Q 8.59375 20.453125 8.59375 31.390625 
Q 8.59375 42.28125 12.203125 53.3125 
Q 15.828125 64.359375 23.1875 75.875 
z
" id="DejaVuSans-40"/>
      <path d="M 9.8125 72.90625 
L 24.515625 72.90625 
L 43.109375 23.296875 
L 61.8125 72.90625 
L 76.515625 72.90625 
L 76.515625 0 
L 66.890625 0 
L 66.890625 64.015625 
L 48.09375 14.015625 
L 38.1875 14.015625 
L 19.390625 64.015625 
L 19.390625 0 
L 9.8125 0 
z
" id="DejaVuSans-77"/>
      <path d="M 18.3125 70.21875 
L 18.3125 54.6875 
L 36.8125 54.6875 
L 36.8125 47.703125 
L 18.3125 47.703125 
L 18.3125 18.015625 
Q 18.3125 11.328125 20.140625 9.421875 
Q 21.96875 7.515625 27.59375 7.515625 
L 36.8125 7.515625 
L 36.8125 0 
L 27.59375 0 
Q 17.1875 0 13.234375 3.875 
Q 9.28125 7.765625 9.28125 18.015625 
L 9.28125 47.703125 
L 2.6875 47.703125 
L 2.6875 54.6875 
L 9.28125 54.6875 
L 9.28125 70.21875 
z
" id="DejaVuSans-116"/>
      <path d="M 64.40625 67.28125 
L 64.40625 56.890625 
Q 59.421875 61.53125 53.78125 63.8125 
Q 48.140625 66.109375 41.796875 66.109375 
Q 29.296875 66.109375 22.65625 58.46875 
Q 16.015625 50.828125 16.015625 36.375 
Q 16.015625 21.96875 22.65625 14.328125 
Q 29.296875 6.6875 41.796875 6.6875 
Q 48.140625 6.6875 53.78125 8.984375 
Q 59.421875 11.28125 64.40625 15.921875 
L 64.40625 5.609375 
Q 59.234375 2.09375 53.4375 0.328125 
Q 47.65625 -1.421875 41.21875 -1.421875 
Q 24.65625 -1.421875 15.125 8.703125 
Q 5.609375 18.84375 5.609375 36.375 
Q 5.609375 53.953125 15.125 64.078125 
Q 24.65625 74.21875 41.21875 74.21875 
Q 47.75 74.21875 53.53125 72.484375 
Q 59.328125 70.75 64.40625 67.28125 
z
" id="DejaVuSans-67"/>
      <path d="M 9.8125 72.90625 
L 19.671875 72.90625 
L 19.671875 43.015625 
L 55.515625 43.015625 
L 55.515625 72.90625 
L 65.375 72.90625 
L 65.375 0 
L 55.515625 0 
L 55.515625 34.71875 
L 19.671875 34.71875 
L 19.671875 0 
L 9.8125 0 
z
" id="DejaVuSans-72"/>
      <path d="M 8.015625 75.875 
L 15.828125 75.875 
Q 23.140625 64.359375 26.78125 53.3125 
Q 30.421875 42.28125 30.421875 31.390625 
Q 30.421875 20.453125 26.78125 9.375 
Q 23.140625 -1.703125 15.828125 -13.1875 
L 8.015625 -13.1875 
Q 14.5 -2 17.703125 9.0625 
Q 20.90625 20.125 20.90625 31.390625 
Q 20.90625 42.671875 17.703125 53.65625 
Q 14.5 64.65625 8.015625 75.875 
z
" id="DejaVuSans-41"/>
     </defs>
     <g transform="translate(14.798438 222.065781)rotate(-90)scale(0.1 -0.1)">
      <use xlink:href="#DejaVuSans-69"/>
      <use x="63.183594" xlink:href="#DejaVuSans-109"/>
      <use x="160.595703" xlink:href="#DejaVuSans-105"/>
      <use x="188.378906" xlink:href="#DejaVuSans-115"/>
      <use x="240.478516" xlink:href="#DejaVuSans-115"/>
      <use x="292.578125" xlink:href="#DejaVuSans-105"/>
      <use x="320.361328" xlink:href="#DejaVuSans-111"/>
      <use x="381.542969" xlink:href="#DejaVuSans-110"/>
      <use x="444.921875" xlink:href="#DejaVuSans-115"/>
      <use x="497.021484" xlink:href="#DejaVuSans-32"/>
      <use x="528.808594" xlink:href="#DejaVuSans-40"/>
      <use x="567.822266" xlink:href="#DejaVuSans-77"/>
      <use x="654.101562" xlink:href="#DejaVuSans-116"/>
      <use x="693.310547" xlink:href="#DejaVuSans-67"/>
      <use x="763.134766" xlink:href="#DejaVuSans-72"/>
      <use x="838.330078" xlink:href="#DejaVuSans-52"/>
      <use x="901.953125" xlink:href="#DejaVuSans-41"/>
     </g>
    </g>
   </g>
   <g id="line2d_11">
    <path clip-path="url(#p4888777fc6)" d="M 48.982812 105.644684 
L 50.526199 103.549851 
L 53.612973 105.433357 
L 65.960069 113.47819 
L 70.59023 116.935467 
L 78.307165 123.376463 
L 81.393939 125.566768 
L 84.480713 127.396342 
L 89.110874 129.630166 
L 98.371195 134.153482 
L 101.457969 135.728764 
L 104.544743 136.942941 
L 107.631517 138.08387 
L 110.718291 139.441978 
L 113.805065 141.079958 
L 116.891839 143.137515 
L 119.978613 145.193286 
L 124.608774 148.0398 
L 130.782322 152.46097 
L 135.412483 155.62333 
L 140.042643 159.063372 
L 144.672804 162.762383 
L 147.759578 165.389619 
L 150.846352 168.390614 
L 158.563287 176.140979 
L 161.650061 178.898134 
L 164.736835 181.385917 
L 167.823609 183.852026 
L 170.910383 186.816271 
L 173.997157 190.377031 
L 175.540544 192.414481 
L 177.083931 194.644439 
L 178.627318 197.129685 
L 180.170705 195.623231 
L 181.714092 193.636303 
L 184.800865 193.355633 
L 186.344252 195.462807 
L 187.887639 195.590256 
L 189.431026 193.571298 
L 192.5178 193.511641 
L 194.061187 193.335735 
L 200.234735 180.101387 
L 201.778122 174.558014 
L 203.321509 171.023362 
L 204.864896 169.736652 
L 207.95167 163.144908 
L 209.495057 157.599925 
L 211.038444 164.189644 
L 212.581831 173.029063 
L 215.668605 186.740633 
L 217.211992 191.366575 
L 218.755379 198.010171 
L 220.298766 206.908229 
L 223.38554 220.648378 
L 226.472314 229.956251 
L 229.559087 243.409511 
L 232.645861 262.488861 
L 234.189248 267.668634 
L 235.732635 272.398638 
L 240.362796 292.493966 
L 241.906183 292.483438 
L 243.44957 292.211452 
L 246.536344 300.209624 
L 248.079731 300.022319 
L 249.623118 299.655199 
L 251.166505 303.650444 
L 252.709892 305.684757 
L 254.253279 305.430316 
L 255.796666 304.903992 
L 257.340053 298.899503 
L 258.88344 294.483364 
L 261.970214 289.652483 
L 263.513601 288.997132 
L 266.600375 287.221723 
L 269.687149 280.809808 
L 271.230535 281.739746 
L 272.773922 283.215603 
L 274.317309 280.457537 
L 275.860696 275.414741 
L 277.404083 272.223679 
L 280.490857 269.40904 
L 282.034244 267.934797 
L 285.121018 260.34027 
L 286.664405 260.758721 
L 288.207792 261.010774 
L 291.294566 252.761657 
L 299.011501 241.511345 
L 300.554888 241.563591 
L 302.098275 241.897981 
L 306.728436 237.550521 
L 308.271823 238.360551 
L 309.81521 239.331367 
L 315.988757 234.934127 
L 317.532144 231.650177 
L 319.075531 229.418263 
L 320.618918 231.480036 
L 322.162305 233.8262 
L 323.705692 231.941326 
L 325.249079 229.806355 
L 326.792466 227.417225 
L 328.335853 222.549655 
L 331.422627 216.248009 
L 332.966014 210.59773 
L 334.509401 215.359316 
L 336.052788 217.522935 
L 337.596175 219.103429 
L 340.682949 229.784076 
L 342.226336 232.483213 
L 343.769723 234.665589 
L 346.856497 242.398055 
L 348.399884 243.821676 
L 351.486658 233.503957 
L 353.030045 230.260471 
L 354.573432 227.625719 
L 356.116819 223.004023 
L 357.660206 219.352962 
L 359.203593 214.644384 
L 362.290366 199.953466 
L 363.833753 194.618677 
L 365.37714 193.871257 
L 368.463914 187.32218 
L 370.007301 186.301125 
L 371.550688 185.762676 
L 373.094075 185.515017 
L 374.637462 182.715434 
L 376.180849 179.313218 
L 377.724236 177.958069 
L 379.267623 167.672028 
L 380.81101 150.110934 
L 382.354397 140.721667 
L 383.897784 136.538623 
L 385.441171 149.262084 
L 386.984558 177.972457 
L 388.527945 193.161587 
L 390.071332 199.236493 
L 391.614719 207.695445 
L 393.158106 212.839669 
L 394.701493 216.173554 
L 396.24488 195.188781 
L 397.788267 197.03921 
L 399.331654 213.423719 
L 400.875041 196.414244 
L 402.418428 174.179559 
L 403.961815 171.607471 
L 405.505201 145.085256 
L 407.048588 100.51905 
L 408.591975 93.342312 
L 411.678749 142.969529 
L 413.222136 135.433488 
L 414.765523 132.95061 
L 416.30891 159.793387 
L 417.852297 182.748861 
L 419.395684 183.22483 
L 420.939071 176.758593 
L 422.482458 176.692035 
L 424.025845 176.831391 
L 425.569232 179.407977 
L 425.569232 179.407977 
" style="fill:none;stroke:#0000ff;stroke-linecap:square;stroke-width:1.5;"/>
   </g>
   <g id="line2d_12">
    <path clip-path="url(#p4888777fc6)" style="fill:none;stroke:#0000ff;stroke-linecap:square;stroke-width:1.5;"/>
   </g>
   <g id="patch_3">
    <path d="M 48.982813 327.718125 
L 48.982813 22.318125 
" style="fill:none;stroke:#000000;stroke-linecap:square;stroke-linejoin:miter;stroke-width:0.8;"/>
   </g>
   <g id="patch_4">
    <path d="M 425.569232 327.718125 
L 425.569232 22.318125 
" style="fill:none;stroke:#000000;stroke-linecap:square;stroke-linejoin:miter;stroke-width:0.8;"/>
   </g>
   <g id="patch_5">
    <path d="M 48.982812 327.718125 
L 425.569232 327.718125 
" style="fill:none;stroke:#000000;stroke-linecap:square;stroke-linejoin:miter;stroke-width:0.8;"/>
   </g>
   <g id="patch_6">
    <path d="M 48.982812 22.318125 
L 425.569232 22.318125 
" style="fill:none;stroke:#000000;stroke-linecap:square;stroke-linejoin:miter;stroke-width:0.8;"/>
   </g>
   <g id="text_12">
    <!-- CH4 -->
    <g transform="translate(224.756647 16.318125)scale(0.12 -0.12)">
     <use xlink:href="#DejaVuSans-67"/>
     <use x="69.824219" xlink:href="#DejaVuSans-72"/>
     <use x="145.019531" xlink:href="#DejaVuSans-52"/>
    </g>
   </g>
   <g id="legend_1">
    <g id="line2d_13">
     <path d="M 57.982813 35.416562 
L 77.982813 35.416562 
" style="fill:none;stroke:#0000ff;stroke-linecap:square;stroke-width:1.5;"/>
    </g>
    <g id="line2d_14"/>
    <g id="text_13">
     <!-- FaIR v2 -->
     <defs>
      <path d="M 9.8125 72.90625 
L 51.703125 72.90625 
L 51.703125 64.59375 
L 19.671875 64.59375 
L 19.671875 43.109375 
L 48.578125 43.109375 
L 48.578125 34.8125 
L 19.671875 34.8125 
L 19.671875 0 
L 9.8125 0 
z
" id="DejaVuSans-70"/>
      <path d="M 34.28125 27.484375 
Q 23.390625 27.484375 19.1875 25 
Q 14.984375 22.515625 14.984375 16.5 
Q 14.984375 11.71875 18.140625 8.90625 
Q 21.296875 6.109375 26.703125 6.109375 
Q 34.1875 6.109375 38.703125 11.40625 
Q 43.21875 16.703125 43.21875 25.484375 
L 43.21875 27.484375 
z
M 52.203125 31.203125 
L 52.203125 0 
L 43.21875 0 
L 43.21875 8.296875 
Q 40.140625 3.328125 35.546875 0.953125 
Q 30.953125 -1.421875 24.3125 -1.421875 
Q 15.921875 -1.421875 10.953125 3.296875 
Q 6 8.015625 6 15.921875 
Q 6 25.140625 12.171875 29.828125 
Q 18.359375 34.515625 30.609375 34.515625 
L 43.21875 34.515625 
L 43.21875 35.40625 
Q 43.21875 41.609375 39.140625 45 
Q 35.0625 48.390625 27.6875 48.390625 
Q 23 48.390625 18.546875 47.265625 
Q 14.109375 46.140625 10.015625 43.890625 
L 10.015625 52.203125 
Q 14.9375 54.109375 19.578125 55.046875 
Q 24.21875 56 28.609375 56 
Q 40.484375 56 46.34375 49.84375 
Q 52.203125 43.703125 52.203125 31.203125 
z
" id="DejaVuSans-97"/>
      <path d="M 9.8125 72.90625 
L 19.671875 72.90625 
L 19.671875 0 
L 9.8125 0 
z
" id="DejaVuSans-73"/>
      <path d="M 44.390625 34.1875 
Q 47.5625 33.109375 50.5625 29.59375 
Q 53.5625 26.078125 56.59375 19.921875 
L 66.609375 0 
L 56 0 
L 46.6875 18.703125 
Q 43.0625 26.03125 39.671875 28.421875 
Q 36.28125 30.8125 30.421875 30.8125 
L 19.671875 30.8125 
L 19.671875 0 
L 9.8125 0 
L 9.8125 72.90625 
L 32.078125 72.90625 
Q 44.578125 72.90625 50.734375 67.671875 
Q 56.890625 62.453125 56.890625 51.90625 
Q 56.890625 45.015625 53.6875 40.46875 
Q 50.484375 35.9375 44.390625 34.1875 
z
M 19.671875 64.796875 
L 19.671875 38.921875 
L 32.078125 38.921875 
Q 39.203125 38.921875 42.84375 42.21875 
Q 46.484375 45.515625 46.484375 51.90625 
Q 46.484375 58.296875 42.84375 61.546875 
Q 39.203125 64.796875 32.078125 64.796875 
z
" id="DejaVuSans-82"/>
      <path d="M 2.984375 54.6875 
L 12.5 54.6875 
L 29.59375 8.796875 
L 46.6875 54.6875 
L 56.203125 54.6875 
L 35.6875 0 
L 23.484375 0 
z
" id="DejaVuSans-118"/>
     </defs>
     <g transform="translate(85.982813 38.916562)scale(0.1 -0.1)">
      <use xlink:href="#DejaVuSans-70"/>
      <use x="57.378906" xlink:href="#DejaVuSans-97"/>
      <use x="118.658203" xlink:href="#DejaVuSans-73"/>
      <use x="148.150391" xlink:href="#DejaVuSans-82"/>
      <use x="217.632812" xlink:href="#DejaVuSans-32"/>
      <use x="249.419922" xlink:href="#DejaVuSans-118"/>
      <use x="308.599609" xlink:href="#DejaVuSans-50"/>
     </g>
    </g>
   </g>
  </g>
  <g id="axes_2">
   <g id="patch_7">
    <path d="M 472.395313 327.718125 
L 848.981732 327.718125 
L 848.981732 22.318125 
L 472.395313 22.318125 
z
" style="fill:#ffffff;"/>
   </g>
   <g id="PolyCollection_2">
    <defs>
     <path d="M 472.395313 -277.341709 
L 472.395313 -277.364208 
L 473.938699 -280.623989 
L 475.482086 -280.256071 
L 477.025473 -279.902662 
L 478.56886 -279.554568 
L 480.112247 -279.205627 
L 481.655634 -278.855838 
L 483.199021 -278.514522 
L 484.742408 -278.191078 
L 486.285795 -277.879446 
L 487.829182 -277.567301 
L 489.372569 -277.245321 
L 490.915956 -276.935177 
L 492.459343 -276.649402 
L 494.00273 -276.369558 
L 495.546117 -276.092591 
L 497.089504 -275.809202 
L 498.632891 -275.531769 
L 500.176278 -275.272772 
L 501.719665 -275.035473 
L 503.263052 -274.798301 
L 504.806439 -274.545719 
L 506.349826 -274.308671 
L 507.893213 -274.081069 
L 509.4366 -273.878527 
L 510.979987 -273.670179 
L 512.523374 -273.455971 
L 514.066761 -273.248281 
L 515.610148 -273.059587 
L 517.153534 -272.886938 
L 518.696921 -272.714925 
L 520.240308 -272.54044 
L 521.783695 -272.372777 
L 523.327082 -272.218203 
L 524.870469 -272.083033 
L 526.413856 -271.954993 
L 527.957243 -271.821706 
L 529.50063 -271.695545 
L 531.044017 -271.582777 
L 532.587404 -271.480395 
L 534.130791 -271.388478 
L 535.674178 -271.294672 
L 537.217565 -271.211378 
L 538.760952 -271.132457 
L 540.304339 -271.06415 
L 541.847726 -271.006531 
L 543.391113 -270.950361 
L 544.9345 -270.904956 
L 546.477887 -270.867283 
L 548.021274 -270.834284 
L 549.564661 -270.815305 
L 551.108048 -270.801126 
L 552.651435 -270.801093 
L 554.194822 -270.796664 
L 555.738209 -270.800213 
L 557.281596 -270.808682 
L 558.824983 -270.828311 
L 560.36837 -270.86228 
L 561.911756 -270.895156 
L 563.455143 -270.933124 
L 564.99853 -270.982421 
L 566.541917 -271.049337 
L 568.085304 -271.118464 
L 569.628691 -271.192904 
L 571.172078 -271.266466 
L 572.715465 -271.345337 
L 574.258852 -271.448181 
L 575.802239 -271.556533 
L 577.345626 -271.667309 
L 578.889013 -271.783613 
L 580.4324 -271.905466 
L 581.975787 -272.045319 
L 583.519174 -272.203299 
L 585.062561 -272.354673 
L 586.605948 -272.564611 
L 588.149335 -273.812351 
L 589.692722 -276.451435 
L 591.236109 -277.91128 
L 592.779496 -275.621485 
L 594.322883 -269.068989 
L 595.86627 -260.977538 
L 597.409657 -256.035947 
L 598.953044 -254.671909 
L 600.496431 -254.370819 
L 602.039818 -261.89052 
L 603.583205 -277.186302 
L 605.126592 -282.850459 
L 606.669978 -283.103014 
L 608.213365 -283.383641 
L 609.756752 -283.715251 
L 611.300139 -283.725273 
L 612.843526 -283.737958 
L 614.386913 -283.763379 
L 615.9303 -283.790777 
L 617.473687 -283.813498 
L 619.017074 -282.679062 
L 620.560461 -285.045811 
L 622.103848 -285.098032 
L 623.647235 -285.145778 
L 625.190622 -285.182154 
L 626.734009 -285.270577 
L 628.277396 -285.498064 
L 629.820783 -285.681344 
L 631.36417 -285.884629 
L 632.907557 -278.321488 
L 634.450944 -264.699077 
L 635.994331 -267.514838 
L 637.537718 -273.635079 
L 639.081105 -273.125032 
L 640.624492 -264.895827 
L 642.167879 -255.774148 
L 643.711266 -262.982565 
L 645.254653 -270.341433 
L 646.79804 -270.04997 
L 648.341427 -269.737073 
L 649.884814 -268.289439 
L 651.4282 -270.185985 
L 652.971587 -269.992168 
L 654.514974 -269.866848 
L 656.058361 -269.767103 
L 657.601748 -268.680046 
L 659.145135 -260.798586 
L 660.688522 -252.92312 
L 662.231909 -260.548681 
L 663.775296 -268.257649 
L 665.318683 -268.178296 
L 666.86207 -268.03788 
L 668.405457 -260.073419 
L 669.948844 -251.991213 
L 671.492231 -251.56543 
L 673.035618 -251.1024 
L 674.579005 -258.379671 
L 676.122392 -257.935553 
L 677.665779 -249.71437 
L 679.209166 -256.96475 
L 680.752553 -264.172752 
L 682.29594 -263.483767 
L 683.839327 -262.64227 
L 685.382714 -261.684773 
L 686.926101 -260.645308 
L 688.469488 -259.561447 
L 690.012875 -266.239047 
L 691.556262 -273.01285 
L 693.099649 -272.152481 
L 694.643035 -271.398734 
L 696.186422 -270.682252 
L 697.729809 -277.684621 
L 699.273196 -276.946675 
L 700.816583 -268.420283 
L 702.35997 -275.360971 
L 703.903357 -282.373343 
L 705.446744 -289.468253 
L 706.990131 -296.656565 
L 708.533518 -288.412917 
L 710.076905 -287.922284 
L 711.620292 -295.212595 
L 713.163679 -287.008409 
L 714.707066 -278.727915 
L 716.250453 -278.087192 
L 717.79384 -277.347192 
L 719.337227 -284.312202 
L 720.880614 -283.547297 
L 722.424001 -267.255362 
L 723.967388 -266.414751 
L 725.510775 -265.655682 
L 727.054162 -257.240772 
L 728.597549 -264.411484 
L 730.140936 -271.755361 
L 731.684323 -271.490804 
L 733.22771 -271.277875 
L 734.771097 -271.06591 
L 736.314484 -263.036113 
L 737.857871 -254.840758 
L 739.401257 -254.197294 
L 740.944644 -253.35213 
L 742.488031 -258.528437 
L 744.031418 -260.928727 
L 745.574805 -253.409758 
L 747.118192 -251.530619 
L 748.661579 -247.838633 
L 750.204966 -235.433918 
L 751.748353 -222.887601 
L 753.29174 -211.067904 
L 754.835127 -200.843002 
L 756.378514 -185.312867 
L 757.921901 -171.588677 
L 759.465288 -174.126386 
L 761.008675 -177.655275 
L 762.552062 -166.458781 
L 764.095449 -163.329927 
L 765.638836 -168.167853 
L 767.182223 -157.566998 
L 768.72561 -154.534632 
L 770.268997 -166.737477 
L 771.812384 -170.834896 
L 773.355771 -157.294709 
L 774.899158 -140.317448 
L 776.442545 -143.779639 
L 777.985932 -152.373832 
L 779.529319 -144.994043 
L 781.072706 -127.459652 
L 782.616093 -112.218263 
L 784.159479 -110.940911 
L 785.702866 -117.321813 
L 787.246253 -116.876486 
L 788.78964 -138.823939 
L 790.333027 -128.425277 
L 791.876414 -137.451102 
L 793.419801 -153.21001 
L 794.963188 -142.319472 
L 796.506575 -149.271563 
L 798.049962 -155.304497 
L 799.593349 -155.763661 
L 801.136736 -113.304754 
L 802.680123 -107.031729 
L 804.22351 -182.966268 
L 805.766897 -180.349844 
L 807.310284 -123.73744 
L 808.853671 -100.35399 
L 810.397058 -134.145396 
L 811.940445 -131.078139 
L 813.483832 -47.960678 
L 815.027219 -202.862435 
L 816.570606 -315.396307 
L 818.113993 -198.915004 
L 819.65738 -104.12906 
L 821.200767 -38.391686 
L 822.744154 -65.231879 
L 824.287541 -69.942052 
L 825.830928 -116.416804 
L 827.374315 -134.833042 
L 828.917701 -108.362719 
L 830.461088 -129.761424 
L 832.004475 -139.974711 
L 833.547862 -105.096756 
L 835.091249 -117.761408 
L 836.634636 -153.894156 
L 838.178023 -157.730646 
L 839.72141 -132.106631 
L 841.264797 -142.813756 
L 842.808184 -148.128263 
L 844.351571 -124.443682 
L 845.894958 -124.528194 
L 847.438345 -124.685381 
L 848.981732 -124.797511 
L 848.981732 -123.816241 
L 848.981732 -123.816241 
L 847.438345 -123.731414 
L 845.894958 -123.600657 
L 844.351571 -123.541725 
L 842.808184 -147.251221 
L 841.264797 -141.959426 
L 839.72141 -131.273661 
L 838.178023 -156.920124 
L 836.634636 -153.106162 
L 835.091249 -116.993053 
L 833.547862 -104.345876 
L 832.004475 -139.243372 
L 830.461088 -129.051403 
L 828.917701 -107.672938 
L 827.374315 -134.160104 
L 825.830928 -115.756794 
L 824.287541 -69.292805 
L 822.744154 -64.591524 
L 821.200767 -37.759943 
L 819.65738 -103.507513 
L 818.113993 -198.308362 
L 816.570606 -314.810628 
L 815.027219 -202.296496 
L 813.483832 -47.407006 
L 811.940445 -130.538258 
L 810.397058 -133.624203 
L 808.853671 -99.843741 
L 807.310284 -123.237801 
L 805.766897 -179.863122 
L 804.22351 -182.493416 
L 802.680123 -106.57077 
L 801.136736 -112.85428 
L 799.593349 -155.324339 
L 798.049962 -154.877005 
L 796.506575 -148.85524 
L 794.963188 -141.913387 
L 793.419801 -152.813749 
L 791.876414 -137.064421 
L 790.333027 -128.047528 
L 788.78964 -138.454502 
L 787.246253 -116.51515 
L 785.702866 -116.96835 
L 784.159479 -110.594728 
L 782.616093 -111.878747 
L 781.072706 -127.126598 
L 779.529319 -144.667437 
L 777.985932 -152.054127 
L 776.442545 -143.465903 
L 774.899158 -140.00857 
L 773.355771 -156.99055 
L 771.812384 -170.53588 
L 770.268997 -166.443513 
L 768.72561 -154.245005 
L 767.182223 -157.281321 
L 765.638836 -167.886361 
L 764.095449 -163.052541 
L 762.552062 -166.1853 
L 761.008675 -177.385932 
L 759.465288 -173.861104 
L 757.921901 -171.327012 
L 756.378514 -185.054867 
L 754.835127 -200.589079 
L 753.29174 -210.818226 
L 751.748353 -222.642148 
L 750.204966 -235.192674 
L 748.661579 -247.60158 
L 747.118192 -251.297505 
L 745.574805 -253.180153 
L 744.031418 -260.702438 
L 742.488031 -258.30522 
L 740.944644 -253.131565 
L 739.401257 -253.979195 
L 737.857871 -254.625118 
L 736.314484 -262.823156 
L 734.771097 -270.856036 
L 733.22771 -271.071251 
L 731.684323 -271.287418 
L 730.140936 -271.555203 
L 728.597549 -264.214317 
L 727.054162 -257.046188 
L 725.510775 -265.463721 
L 723.967388 -266.22558 
L 722.424001 -267.068973 
L 720.880614 -283.364133 
L 719.337227 -284.132631 
L 717.79384 -277.170975 
L 716.250453 -277.914142 
L 714.707066 -278.558021 
L 713.163679 -286.841876 
L 711.620292 -295.049807 
L 710.076905 -287.763178 
L 708.533518 -288.257306 
L 706.990131 -296.504645 
L 705.446744 -289.319965 
L 703.903357 -282.228289 
L 702.35997 -275.218757 
L 700.816583 -268.280519 
L 699.273196 -276.809212 
L 697.729809 -277.549609 
L 696.186422 -270.549507 
L 694.643035 -271.268086 
L 693.099649 -272.023927 
L 691.556262 -272.886388 
L 690.012875 -266.114455 
L 688.469488 -259.438369 
L 686.926101 -260.523667 
L 685.382714 -261.564712 
L 683.839327 -262.523785 
L 682.29594 -263.366853 
L 680.752553 -264.057403 
L 679.209166 -256.85074 
L 677.665779 -249.601306 
L 676.122392 -257.823487 
L 674.579005 -258.268767 
L 673.035618 -250.992386 
L 671.492231 -251.456097 
L 669.948844 -251.882561 
L 668.405457 -259.965621 
L 666.86207 -267.931275 
L 665.318683 -268.073052 
L 663.775296 -268.153765 
L 662.231909 -260.445983 
L 660.688522 -252.821268 
L 659.145135 -260.697586 
L 657.601748 -268.580236 
L 656.058361 -269.66865 
L 654.514974 -269.769751 
L 652.971587 -269.896427 
L 651.4282 -270.091599 
L 649.884814 -268.196438 
L 648.341427 -269.645482 
L 646.79804 -269.959788 
L 645.254653 -270.252657 
L 643.711266 -262.895007 
L 642.167879 -255.687457 
L 640.624492 -264.809993 
L 639.081105 -273.040386 
L 637.537718 -273.551785 
L 635.994331 -267.432725 
L 634.450944 -264.617805 
L 632.907557 -278.241063 
L 631.36417 -285.805388 
L 629.820783 -285.603452 
L 628.277396 -285.421521 
L 626.734009 -285.195381 
L 625.190622 -285.108304 
L 623.647235 -285.073274 
L 622.103848 -285.026873 
L 620.560461 -284.975995 
L 619.017074 -282.610589 
L 617.473687 -283.746367 
L 615.9303 -283.724987 
L 614.386913 -283.698929 
L 612.843526 -283.674848 
L 611.300139 -283.6635 
L 609.756752 -283.654816 
L 608.213365 -283.324542 
L 606.669978 -283.045251 
L 605.126592 -282.794031 
L 603.583205 -277.131038 
L 602.039818 -261.835917 
L 600.496431 -254.316376 
L 598.953044 -254.617459 
L 597.409657 -255.981513 
L 595.86627 -260.923245 
L 594.322883 -269.015106 
L 592.779496 -275.568318 
L 591.236109 -277.859012 
L 589.692722 -276.400076 
L 588.149335 -273.761807 
L 586.605948 -272.514791 
L 585.062561 -272.305539 
L 583.519174 -272.154834 
L 581.975787 -271.99751 
L 580.4324 -271.858297 
L 578.889013 -271.737071 
L 577.345626 -271.62138 
L 575.802239 -271.511205 
L 574.258852 -271.403439 
L 572.715465 -271.30117 
L 571.172078 -271.22286 
L 569.628691 -271.149847 
L 568.085304 -271.075944 
L 566.541917 -271.007343 
L 564.99853 -270.94094 
L 563.455143 -270.892144 
L 561.911756 -270.854662 
L 560.36837 -270.822261 
L 558.824983 -270.788756 
L 557.281596 -270.769582 
L 555.738209 -270.761556 
L 554.194822 -270.758442 
L 552.651435 -270.763297 
L 551.108048 -270.763745 
L 549.564661 -270.778331 
L 548.021274 -270.797707 
L 546.477887 -270.831095 
L 544.9345 -270.869148 
L 543.391113 -270.914927 
L 541.847726 -270.971459 
L 540.304339 -271.029428 
L 538.760952 -271.098078 
L 537.217565 -271.177335 
L 535.674178 -271.260959 
L 534.130791 -271.355088 
L 532.587404 -271.447323 
L 531.044017 -271.550016 
L 529.50063 -271.66309 
L 527.957243 -271.789551 
L 526.413856 -271.923135 
L 524.870469 -272.051465 
L 523.327082 -272.186921 
L 521.783695 -272.341778 
L 520.240308 -272.509718 
L 518.696921 -272.684478 
L 517.153534 -272.856763 
L 515.610148 -273.029681 
L 514.066761 -273.21864 
L 512.523374 -273.426594 
L 510.979987 -273.641064 
L 509.4366 -273.849672 
L 507.893213 -274.052473 
L 506.349826 -274.280331 
L 504.806439 -274.517636 
L 503.263052 -274.770473 
L 501.719665 -275.007899 
L 500.176278 -275.245453 
L 498.632891 -275.504705 
L 497.089504 -275.782392 
L 495.546117 -276.066036 
L 494.00273 -276.343261 
L 492.459343 -276.623362 
L 490.915956 -276.909397 
L 489.372569 -277.219802 
L 487.829182 -277.542045 
L 486.285795 -277.854457 
L 484.742408 -278.166357 
L 483.199021 -278.490073 
L 481.655634 -278.831664 
L 480.112247 -279.181732 
L 478.56886 -279.530957 
L 477.025473 -279.879339 
L 475.482086 -280.233043 
L 473.938699 -280.601261 
L 472.395313 -277.341709 
z
" id="m6cbbc86443"/>
    </defs>
    <g clip-path="url(#p9e6a10b3b5)">
     <use style="fill:#0000ff;fill-opacity:0.2;" x="0" xlink:href="#m6cbbc86443" y="351.59625"/>
    </g>
   </g>
   <g id="matplotlib.axis_3">
    <g id="xtick_6">
     <g id="line2d_15">
      <g>
       <use style="stroke:#000000;stroke-width:0.8;" x="524.870469" xlink:href="#m07f86ff19b" y="327.718125"/>
      </g>
     </g>
     <g id="text_14">
      <!-- 1800 -->
      <g transform="translate(512.145469 342.316562)scale(0.1 -0.1)">
       <use xlink:href="#DejaVuSans-49"/>
       <use x="63.623047" xlink:href="#DejaVuSans-56"/>
       <use x="127.246094" xlink:href="#DejaVuSans-48"/>
       <use x="190.869141" xlink:href="#DejaVuSans-48"/>
      </g>
     </g>
    </g>
    <g id="xtick_7">
     <g id="line2d_16">
      <g>
       <use style="stroke:#000000;stroke-width:0.8;" x="602.039818" xlink:href="#m07f86ff19b" y="327.718125"/>
      </g>
     </g>
     <g id="text_15">
      <!-- 1850 -->
      <g transform="translate(589.314818 342.316562)scale(0.1 -0.1)">
       <use xlink:href="#DejaVuSans-49"/>
       <use x="63.623047" xlink:href="#DejaVuSans-56"/>
       <use x="127.246094" xlink:href="#DejaVuSans-53"/>
       <use x="190.869141" xlink:href="#DejaVuSans-48"/>
      </g>
     </g>
    </g>
    <g id="xtick_8">
     <g id="line2d_17">
      <g>
       <use style="stroke:#000000;stroke-width:0.8;" x="679.209166" xlink:href="#m07f86ff19b" y="327.718125"/>
      </g>
     </g>
     <g id="text_16">
      <!-- 1900 -->
      <g transform="translate(666.484166 342.316562)scale(0.1 -0.1)">
       <use xlink:href="#DejaVuSans-49"/>
       <use x="63.623047" xlink:href="#DejaVuSans-57"/>
       <use x="127.246094" xlink:href="#DejaVuSans-48"/>
       <use x="190.869141" xlink:href="#DejaVuSans-48"/>
      </g>
     </g>
    </g>
    <g id="xtick_9">
     <g id="line2d_18">
      <g>
       <use style="stroke:#000000;stroke-width:0.8;" x="756.378514" xlink:href="#m07f86ff19b" y="327.718125"/>
      </g>
     </g>
     <g id="text_17">
      <!-- 1950 -->
      <g transform="translate(743.653514 342.316562)scale(0.1 -0.1)">
       <use xlink:href="#DejaVuSans-49"/>
       <use x="63.623047" xlink:href="#DejaVuSans-57"/>
       <use x="127.246094" xlink:href="#DejaVuSans-53"/>
       <use x="190.869141" xlink:href="#DejaVuSans-48"/>
      </g>
     </g>
    </g>
    <g id="xtick_10">
     <g id="line2d_19">
      <g>
       <use style="stroke:#000000;stroke-width:0.8;" x="833.547862" xlink:href="#m07f86ff19b" y="327.718125"/>
      </g>
     </g>
     <g id="text_18">
      <!-- 2000 -->
      <g transform="translate(820.822862 342.316562)scale(0.1 -0.1)">
       <use xlink:href="#DejaVuSans-50"/>
       <use x="63.623047" xlink:href="#DejaVuSans-48"/>
       <use x="127.246094" xlink:href="#DejaVuSans-48"/>
       <use x="190.869141" xlink:href="#DejaVuSans-48"/>
      </g>
     </g>
    </g>
   </g>
   <g id="matplotlib.axis_4">
    <g id="ytick_6">
     <g id="line2d_20">
      <g>
       <use style="stroke:#000000;stroke-width:0.8;" x="472.395313" xlink:href="#m709ad8018e" y="268.487896"/>
      </g>
     </g>
     <g id="text_19">
      <!-- −3 -->
      <defs>
       <path d="M 40.578125 39.3125 
Q 47.65625 37.796875 51.625 33 
Q 55.609375 28.21875 55.609375 21.1875 
Q 55.609375 10.40625 48.1875 4.484375 
Q 40.765625 -1.421875 27.09375 -1.421875 
Q 22.515625 -1.421875 17.65625 -0.515625 
Q 12.796875 0.390625 7.625 2.203125 
L 7.625 11.71875 
Q 11.71875 9.328125 16.59375 8.109375 
Q 21.484375 6.890625 26.8125 6.890625 
Q 36.078125 6.890625 40.9375 10.546875 
Q 45.796875 14.203125 45.796875 21.1875 
Q 45.796875 27.640625 41.28125 31.265625 
Q 36.765625 34.90625 28.71875 34.90625 
L 20.21875 34.90625 
L 20.21875 43.015625 
L 29.109375 43.015625 
Q 36.375 43.015625 40.234375 45.921875 
Q 44.09375 48.828125 44.09375 54.296875 
Q 44.09375 59.90625 40.109375 62.90625 
Q 36.140625 65.921875 28.71875 65.921875 
Q 24.65625 65.921875 20.015625 65.03125 
Q 15.375 64.15625 9.8125 62.3125 
L 9.8125 71.09375 
Q 15.4375 72.65625 20.34375 73.4375 
Q 25.25 74.21875 29.59375 74.21875 
Q 40.828125 74.21875 47.359375 69.109375 
Q 53.90625 64.015625 53.90625 55.328125 
Q 53.90625 49.265625 50.4375 45.09375 
Q 46.96875 40.921875 40.578125 39.3125 
z
" id="DejaVuSans-51"/>
      </defs>
      <g transform="translate(450.653125 272.287114)scale(0.1 -0.1)">
       <use xlink:href="#DejaVuSans-8722"/>
       <use x="83.789062" xlink:href="#DejaVuSans-51"/>
      </g>
     </g>
    </g>
    <g id="ytick_7">
     <g id="line2d_21">
      <g>
       <use style="stroke:#000000;stroke-width:0.8;" x="472.395313" xlink:href="#m709ad8018e" y="206.300063"/>
      </g>
     </g>
     <g id="text_20">
      <!-- −2 -->
      <g transform="translate(450.653125 210.099282)scale(0.1 -0.1)">
       <use xlink:href="#DejaVuSans-8722"/>
       <use x="83.789062" xlink:href="#DejaVuSans-50"/>
      </g>
     </g>
    </g>
    <g id="ytick_8">
     <g id="line2d_22">
      <g>
       <use style="stroke:#000000;stroke-width:0.8;" x="472.395313" xlink:href="#m709ad8018e" y="144.112231"/>
      </g>
     </g>
     <g id="text_21">
      <!-- −1 -->
      <g transform="translate(450.653125 147.91145)scale(0.1 -0.1)">
       <use xlink:href="#DejaVuSans-8722"/>
       <use x="83.789062" xlink:href="#DejaVuSans-49"/>
      </g>
     </g>
    </g>
    <g id="ytick_9">
     <g id="line2d_23">
      <g>
       <use style="stroke:#000000;stroke-width:0.8;" x="472.395313" xlink:href="#m709ad8018e" y="81.924399"/>
      </g>
     </g>
     <g id="text_22">
      <!-- 0 -->
      <g transform="translate(459.032813 85.723618)scale(0.1 -0.1)">
       <use xlink:href="#DejaVuSans-48"/>
      </g>
     </g>
    </g>
    <g id="text_23">
     <!-- Emissions (MtN2O-N2) -->
     <defs>
      <path d="M 9.8125 72.90625 
L 23.09375 72.90625 
L 55.421875 11.921875 
L 55.421875 72.90625 
L 64.984375 72.90625 
L 64.984375 0 
L 51.703125 0 
L 19.390625 60.984375 
L 19.390625 0 
L 9.8125 0 
z
" id="DejaVuSans-78"/>
      <path d="M 39.40625 66.21875 
Q 28.65625 66.21875 22.328125 58.203125 
Q 16.015625 50.203125 16.015625 36.375 
Q 16.015625 22.609375 22.328125 14.59375 
Q 28.65625 6.59375 39.40625 6.59375 
Q 50.140625 6.59375 56.421875 14.59375 
Q 62.703125 22.609375 62.703125 36.375 
Q 62.703125 50.203125 56.421875 58.203125 
Q 50.140625 66.21875 39.40625 66.21875 
z
M 39.40625 74.21875 
Q 54.734375 74.21875 63.90625 63.9375 
Q 73.09375 53.65625 73.09375 36.375 
Q 73.09375 19.140625 63.90625 8.859375 
Q 54.734375 -1.421875 39.40625 -1.421875 
Q 24.03125 -1.421875 14.8125 8.828125 
Q 5.609375 19.09375 5.609375 36.375 
Q 5.609375 53.65625 14.8125 63.9375 
Q 24.03125 74.21875 39.40625 74.21875 
z
" id="DejaVuSans-79"/>
      <path d="M 4.890625 31.390625 
L 31.203125 31.390625 
L 31.203125 23.390625 
L 4.890625 23.390625 
z
" id="DejaVuSans-45"/>
     </defs>
     <g transform="translate(444.573438 231.218125)rotate(-90)scale(0.1 -0.1)">
      <use xlink:href="#DejaVuSans-69"/>
      <use x="63.183594" xlink:href="#DejaVuSans-109"/>
      <use x="160.595703" xlink:href="#DejaVuSans-105"/>
      <use x="188.378906" xlink:href="#DejaVuSans-115"/>
      <use x="240.478516" xlink:href="#DejaVuSans-115"/>
      <use x="292.578125" xlink:href="#DejaVuSans-105"/>
      <use x="320.361328" xlink:href="#DejaVuSans-111"/>
      <use x="381.542969" xlink:href="#DejaVuSans-110"/>
      <use x="444.921875" xlink:href="#DejaVuSans-115"/>
      <use x="497.021484" xlink:href="#DejaVuSans-32"/>
      <use x="528.808594" xlink:href="#DejaVuSans-40"/>
      <use x="567.822266" xlink:href="#DejaVuSans-77"/>
      <use x="654.101562" xlink:href="#DejaVuSans-116"/>
      <use x="693.310547" xlink:href="#DejaVuSans-78"/>
      <use x="768.115234" xlink:href="#DejaVuSans-50"/>
      <use x="831.738281" xlink:href="#DejaVuSans-79"/>
      <use x="910.480469" xlink:href="#DejaVuSans-45"/>
      <use x="946.564453" xlink:href="#DejaVuSans-78"/>
      <use x="1021.369141" xlink:href="#DejaVuSans-50"/>
      <use x="1084.992188" xlink:href="#DejaVuSans-41"/>
     </g>
    </g>
   </g>
   <g id="line2d_24">
    <path clip-path="url(#p9e6a10b3b5)" d="M 472.395313 74.254258 
L 473.938699 70.9947 
L 483.199021 73.10585 
L 492.459343 74.97253 
L 503.263052 76.825383 
L 509.4366 77.746162 
L 518.696921 78.911322 
L 524.870469 79.54431 
L 535.674178 80.334768 
L 544.9345 80.726528 
L 552.651435 80.832332 
L 560.36837 80.773312 
L 568.085304 80.519549 
L 577.345626 79.97398 
L 585.062561 79.289687 
L 586.605948 79.080405 
L 588.149335 77.833358 
L 589.692722 75.195053 
L 591.236109 73.736076 
L 592.779496 76.026727 
L 594.322883 82.579902 
L 595.86627 90.671739 
L 597.409657 95.613461 
L 598.953044 96.977514 
L 600.496431 97.278597 
L 602.039818 89.759053 
L 603.583205 74.463908 
L 605.126592 68.800862 
L 609.756752 67.939869 
L 617.473687 67.84794 
L 619.017074 68.983637 
L 620.560461 66.618148 
L 626.734009 66.398418 
L 631.36417 65.788134 
L 632.907557 73.352369 
L 634.450944 86.975561 
L 635.994331 84.160586 
L 637.537718 78.041446 
L 639.081105 78.552744 
L 640.624492 86.783042 
L 642.167879 95.905499 
L 645.254653 81.340096 
L 648.341427 81.946955 
L 649.884814 83.395837 
L 651.4282 81.500538 
L 654.514974 81.822168 
L 656.058361 81.923158 
L 657.601748 83.011459 
L 660.688522 98.770243 
L 663.775296 83.437584 
L 666.86207 83.659836 
L 669.948844 99.708354 
L 673.035618 100.598406 
L 674.579005 93.321954 
L 676.122392 93.76714 
L 677.665779 101.989235 
L 680.752553 87.532961 
L 682.29594 88.223382 
L 685.382714 90.02526 
L 688.469488 92.151334 
L 691.556262 78.702966 
L 694.643035 80.320688 
L 696.186422 81.038968 
L 697.729809 74.038552 
L 699.273196 74.778587 
L 700.816583 83.306921 
L 706.990131 55.081078 
L 708.533518 63.327841 
L 710.076905 63.821425 
L 711.620292 56.534228 
L 714.707066 73.024833 
L 717.79384 74.410827 
L 719.337227 67.448617 
L 720.880614 68.216494 
L 722.424001 84.511053 
L 725.510775 86.115298 
L 727.054162 94.532332 
L 730.140936 80.022309 
L 734.771097 80.719607 
L 737.857871 96.949347 
L 739.401257 97.594776 
L 740.944644 98.441906 
L 742.488031 93.267727 
L 744.031418 90.869894 
L 745.574805 98.391487 
L 747.118192 100.273414 
L 748.661579 103.968518 
L 753.29174 140.749113 
L 754.835127 150.977308 
L 756.378514 166.510577 
L 757.921901 180.237572 
L 759.465288 177.702664 
L 761.008675 174.176908 
L 762.552062 185.376542 
L 764.095449 188.50837 
L 765.638836 183.673583 
L 767.182223 194.277584 
L 768.72561 197.31293 
L 770.268997 185.11339 
L 771.812384 181.019779 
L 773.355771 194.563785 
L 774.899158 211.544535 
L 776.442545 208.085991 
L 777.985932 199.496274 
L 779.529319 206.88114 
L 781.072706 224.420025 
L 782.616093 239.665883 
L 784.159479 240.94784 
L 785.702866 234.571953 
L 787.246253 235.022607 
L 788.78964 213.080545 
L 790.333027 223.484716 
L 791.876414 214.464782 
L 793.419801 198.712081 
L 794.963188 209.608873 
L 796.506575 202.663289 
L 798.049962 196.63737 
L 799.593349 196.185455 
L 801.136736 238.651171 
L 802.680123 244.930592 
L 804.22351 169.003521 
L 805.766897 171.628254 
L 807.310284 228.247951 
L 808.853671 251.637329 
L 810.397058 217.852526 
L 811.940445 220.933528 
L 813.483832 304.060128 
L 815.027219 149.166159 
L 816.570606 36.644194 
L 818.113993 153.136803 
L 819.65738 247.93046 
L 821.200767 313.673142 
L 822.744154 286.837497 
L 824.287541 282.132089 
L 825.830928 235.663238 
L 827.374315 217.253764 
L 828.917701 243.734347 
L 830.461088 222.349319 
L 832.004475 212.150366 
L 833.547862 247.041405 
L 835.091249 234.388507 
L 836.634636 198.268982 
L 838.178023 194.447587 
L 839.72141 220.086583 
L 841.264797 209.393742 
L 842.808184 204.0944 
L 844.351571 227.794329 
L 848.981732 227.485875 
L 848.981732 227.485875 
" style="fill:none;stroke:#0000ff;stroke-linecap:square;stroke-width:1.5;"/>
   </g>
   <g id="patch_8">
    <path d="M 472.395313 327.718125 
L 472.395313 22.318125 
" style="fill:none;stroke:#000000;stroke-linecap:square;stroke-linejoin:miter;stroke-width:0.8;"/>
   </g>
   <g id="patch_9">
    <path d="M 848.981732 327.718125 
L 848.981732 22.318125 
" style="fill:none;stroke:#000000;stroke-linecap:square;stroke-linejoin:miter;stroke-width:0.8;"/>
   </g>
   <g id="patch_10">
    <path d="M 472.395313 327.718125 
L 848.981732 327.718125 
" style="fill:none;stroke:#000000;stroke-linecap:square;stroke-linejoin:miter;stroke-width:0.8;"/>
   </g>
   <g id="patch_11">
    <path d="M 472.395313 22.318125 
L 848.981732 22.318125 
" style="fill:none;stroke:#000000;stroke-linecap:square;stroke-linejoin:miter;stroke-width:0.8;"/>
   </g>
   <g id="text_24">
    <!-- N2O -->
    <g transform="translate(647.659147 16.318125)scale(0.12 -0.12)">
     <use xlink:href="#DejaVuSans-78"/>
     <use x="74.804688" xlink:href="#DejaVuSans-50"/>
     <use x="138.427734" xlink:href="#DejaVuSans-79"/>
    </g>
   </g>
  </g>
 </g>
 <defs>
  <clipPath id="p4888777fc6">
   <rect height="305.4" width="376.58642" x="48.982813" y="22.318125"/>
  </clipPath>
  <clipPath id="p9e6a10b3b5">
   <rect height="305.4" width="376.58642" x="472.395313" y="22.318125"/>
  </clipPath>
 </defs>
</svg>
