<?xml version="1.0" encoding="utf-8" standalone="no"?>
<!DOCTYPE svg PUBLIC "-//W3C//DTD SVG 1.1//EN"
  "http://www.w3.org/Graphics/SVG/1.1/DTD/svg11.dtd">
<!-- Created with matplotlib (https://matplotlib.org/) -->
<svg height="351.59625pt" version="1.1" viewBox="0 0 856.494232 351.59625" width="856.494232pt" xmlns="http://www.w3.org/2000/svg" xmlns:xlink="http://www.w3.org/1999/xlink">
 <defs>
  <style type="text/css">
*{stroke-linecap:butt;stroke-linejoin:round;}
  </style>
 </defs>
 <g id="figure_1">
  <g id="patch_1">
   <path d="M 0 351.59625 
L 856.494232 351.59625 
L 856.494232 0 
L 0 0 
z
" style="fill:#ffffff;"/>
  </g>
  <g id="axes_1">
   <g id="patch_2">
    <path d="M 48.982813 327.718125 
L 425.819232 327.718125 
L 425.819232 22.318125 
L 48.982813 22.318125 
z
" style="fill:#ffffff;"/>
   </g>
   <g id="PolyCollection_1">
    <defs>
     <path d="M 48.982812 -250.078129 
L 48.982812 -251.142821 
L 50.527224 -253.275426 
L 52.071636 -252.301485 
L 53.616047 -251.27156 
L 55.160459 -250.20816 
L 56.70487 -249.161296 
L 58.249282 -248.143744 
L 59.793693 -247.12117 
L 61.338105 -246.072263 
L 62.882516 -244.995312 
L 64.426928 -243.888984 
L 65.97134 -242.751568 
L 67.515751 -241.581394 
L 69.060163 -240.37735 
L 70.604574 -239.115476 
L 72.148986 -237.763535 
L 73.693397 -236.356109 
L 75.237809 -234.970049 
L 76.78222 -233.641955 
L 78.326632 -232.379947 
L 79.871044 -231.191888 
L 81.415455 -230.086758 
L 82.959867 -229.073791 
L 84.504278 -228.196594 
L 86.04869 -227.420229 
L 87.593101 -226.691199 
L 89.137513 -225.963941 
L 90.681924 -225.232033 
L 92.226336 -224.498828 
L 93.770748 -223.760888 
L 95.315159 -223.013663 
L 96.859571 -222.254725 
L 98.403982 -221.480832 
L 99.948394 -220.689295 
L 101.492805 -219.925006 
L 103.037217 -219.279517 
L 104.581628 -218.746002 
L 106.12604 -218.220828 
L 107.670452 -217.648717 
L 109.214863 -217.022141 
L 110.759275 -216.332616 
L 112.303686 -215.571271 
L 113.848098 -214.7305 
L 115.392509 -213.769913 
L 116.936921 -212.681957 
L 118.481332 -211.59647 
L 120.025744 -210.635468 
L 121.570156 -209.736912 
L 123.114567 -208.825867 
L 124.658979 -207.838601 
L 126.20339 -206.702896 
L 127.747802 -205.535652 
L 129.292213 -204.456143 
L 130.836625 -203.440389 
L 132.381036 -202.426916 
L 133.925448 -201.390689 
L 135.46986 -200.320349 
L 137.014271 -199.213518 
L 138.558683 -198.074494 
L 140.103094 -196.903581 
L 141.647506 -195.705311 
L 143.191917 -194.476334 
L 144.736329 -193.218849 
L 146.28074 -191.937392 
L 147.825152 -190.599257 
L 149.369564 -189.145579 
L 150.913975 -187.571514 
L 152.458387 -185.950298 
L 154.002798 -184.426475 
L 155.54721 -182.909245 
L 157.091621 -181.327505 
L 158.636033 -179.784216 
L 160.180444 -178.371337 
L 161.724856 -177.034069 
L 163.269268 -175.773271 
L 164.813679 -174.583996 
L 166.358091 -173.401691 
L 167.902502 -172.137976 
L 169.446914 -170.734763 
L 170.991325 -169.18628 
L 172.535737 -167.489777 
L 174.080148 -165.632361 
L 175.62456 -163.588183 
L 177.168972 -161.346478 
L 178.713383 -158.838727 
L 180.257795 -160.440323 
L 181.802206 -162.544079 
L 183.346618 -162.753063 
L 184.891029 -162.959713 
L 186.435441 -160.850202 
L 187.979852 -160.766565 
L 189.524264 -162.883482 
L 191.068676 -162.902619 
L 192.613087 -163.050495 
L 194.157499 -163.307656 
L 195.70191 -166.82067 
L 197.246322 -170.311522 
L 198.790733 -173.758077 
L 200.335145 -177.203359 
L 201.879556 -182.98581 
L 203.423968 -186.706283 
L 204.96838 -188.101798 
L 206.512791 -191.557993 
L 208.057203 -195.017471 
L 209.601614 -200.800996 
L 211.146026 -194.09033 
L 212.690437 -185.05985 
L 214.234849 -178.076407 
L 215.77926 -171.069119 
L 217.323672 -166.373841 
L 218.868084 -159.60747 
L 220.412495 -150.50958 
L 221.956907 -143.489386 
L 223.501318 -136.488716 
L 225.04573 -131.815659 
L 226.590141 -127.062491 
L 228.134553 -120.243449 
L 229.678964 -113.378495 
L 231.223376 -103.80627 
L 232.767788 -93.784437 
L 234.312199 -88.517314 
L 235.856611 -83.727434 
L 237.401022 -76.912255 
L 238.945434 -70.124593 
L 240.489845 -63.290749 
L 242.034257 -63.387642 
L 243.578668 -63.762327 
L 245.12308 -59.84934 
L 246.667492 -55.739304 
L 248.211903 -56.038419 
L 249.756315 -56.531 
L 251.300726 -52.511928 
L 252.845138 -50.503376 
L 254.389549 -50.864838 
L 255.933961 -51.531813 
L 257.478372 -57.85878 
L 259.022784 -62.562702 
L 260.567196 -65.152955 
L 262.111607 -67.789339 
L 263.656019 -68.640937 
L 265.20043 -69.731698 
L 266.744842 -70.896421 
L 268.289253 -74.305945 
L 269.833665 -77.929062 
L 271.378076 -77.194997 
L 272.922488 -75.885831 
L 274.4669 -78.922167 
L 276.011311 -84.294264 
L 277.555723 -87.780591 
L 279.100134 -89.427742 
L 280.644546 -91.180986 
L 282.188957 -92.956659 
L 283.733369 -97.033675 
L 285.27778 -101.320153 
L 286.822192 -101.136881 
L 288.366604 -101.118243 
L 289.911015 -105.446672 
L 291.455427 -110.109921 
L 292.999838 -112.684339 
L 294.54425 -115.235603 
L 296.088661 -117.796744 
L 297.633073 -120.388561 
L 299.177484 -122.985846 
L 300.721896 -123.185794 
L 302.266308 -123.080743 
L 303.810719 -124.82268 
L 305.355131 -126.575596 
L 306.899542 -128.277594 
L 308.443954 -127.687607 
L 309.988365 -126.920851 
L 311.532777 -128.282528 
L 313.077188 -129.686481 
L 314.6216 -131.064235 
L 316.166012 -132.374785 
L 317.710423 -135.98521 
L 319.254835 -138.532753 
L 320.799246 -136.642306 
L 322.343658 -134.457827 
L 323.888069 -136.640786 
L 325.432481 -139.085493 
L 326.976892 -141.802684 
L 328.521304 -147.108197 
L 330.065716 -150.526632 
L 331.610127 -154.168164 
L 333.154539 -160.29275 
L 334.69895 -155.740456 
L 336.243362 -153.865855 
L 337.787773 -152.636086 
L 339.332185 -147.448372 
L 340.876596 -142.511434 
L 342.421008 -140.2037 
L 343.96542 -138.460984 
L 345.509831 -134.977888 
L 347.054243 -131.67045 
L 348.598654 -130.781085 
L 350.143066 -136.576842 
L 351.687477 -142.539211 
L 353.231889 -146.461601 
L 354.7763 -149.727523 
L 356.320712 -155.104603 
L 357.865124 -159.456476 
L 359.409535 -165.071418 
L 360.953947 -173.577178 
L 362.498358 -181.878515 
L 364.04277 -188.107272 
L 365.587181 -189.718873 
L 367.131593 -194.065112 
L 368.676004 -198.388369 
L 370.220416 -200.347344 
L 371.764828 -201.729906 
L 373.309239 -202.81706 
L 374.853651 -206.617531 
L 376.398062 -211.183468 
L 377.942474 -213.608179 
L 379.486885 -225.314166 
L 381.031297 -244.543097 
L 382.575708 -255.470958 
L 384.12012 -260.538969 
L 385.664532 -248.041069 
L 387.208943 -219.434595 
L 388.753355 -204.76059 
L 390.297766 -199.490291 
L 391.842178 -191.765049 
L 393.386589 -187.312414 
L 394.931001 -184.808587 
L 396.475412 -207.163891 
L 398.019824 -205.437052 
L 399.564236 -188.250375 
L 401.108647 -205.976033 
L 402.653059 -229.425379 
L 404.19747 -232.792092 
L 405.741882 -260.650933 
L 407.286293 -307.235703 
L 408.830705 -315.396307 
L 410.375116 -291.204525 
L 411.919528 -265.261784 
L 413.46394 -273.107296 
L 415.008351 -275.878478 
L 416.552763 -248.456331 
L 418.097174 -225.016054 
L 419.641586 -224.598017 
L 421.185997 -231.444184 
L 422.730409 -231.868934 
L 424.27482 -232.212753 
L 425.819232 -230.193369 
L 425.819232 -116.159298 
L 425.819232 -116.159298 
L 424.27482 -119.309542 
L 422.730409 -119.843575 
L 421.185997 -120.060839 
L 419.641586 -113.59409 
L 418.097174 -114.075567 
L 416.552763 -137.774332 
L 415.008351 -165.697585 
L 413.46394 -163.404877 
L 411.919528 -155.895007 
L 410.375116 -182.487644 
L 408.830705 -207.762954 
L 407.286293 -201.081313 
L 405.741882 -155.747923 
L 404.19747 -128.850599 
L 402.653059 -126.522757 
L 401.108647 -103.968352 
L 399.564236 -86.593344 
L 398.019824 -103.696539 
L 396.475412 -105.988926 
L 394.931001 -85.113746 
L 393.386589 -89.334629 
L 391.842178 -95.30489 
L 390.297766 -104.764138 
L 388.753355 -111.725007 
L 387.208943 -128.219087 
L 385.664532 -158.605839 
L 384.12012 -172.57534 
L 382.575708 -169.346658 
L 381.031297 -160.878358 
L 379.486885 -143.923885 
L 377.942474 -134.302129 
L 376.398062 -133.816809 
L 374.853651 -131.073615 
L 373.309239 -128.973304 
L 371.764828 -129.647453 
L 370.220416 -129.938698 
L 368.676004 -129.616924 
L 367.131593 -126.802846 
L 365.587181 -124.0849 
L 364.04277 -124.094864 
L 362.498358 -119.529109 
L 360.953947 -112.872687 
L 359.409535 -106.009216 
L 357.865124 -101.971565 
L 356.320712 -99.186687 
L 354.7763 -95.566689 
L 353.231889 -93.91057 
L 351.687477 -91.387927 
L 350.143066 -86.729058 
L 348.598654 -82.158365 
L 347.054243 -84.266191 
L 345.509831 -88.780219 
L 343.96542 -93.436332 
L 342.421008 -96.291441 
L 340.876596 -99.61962 
L 339.332185 -105.504591 
L 337.787773 -111.625142 
L 336.243362 -113.737392 
L 334.69895 -116.436686 
L 333.154539 -121.725749 
L 331.610127 -116.292684 
L 330.065716 -113.283726 
L 328.521304 -110.499524 
L 326.976892 -105.851775 
L 325.432481 -103.67988 
L 323.888069 -101.767462 
L 322.343658 -100.130341 
L 320.799246 -102.823823 
L 319.254835 -105.22868 
L 317.710423 -103.193106 
L 316.166012 -100.071527 
L 314.6216 -99.224646 
L 313.077188 -98.333933 
L 311.532777 -97.419597 
L 309.988365 -96.571432 
L 308.443954 -97.827515 
L 306.899542 -98.922747 
L 305.355131 -97.739529 
L 303.810719 -96.500925 
L 302.266308 -95.278156 
L 300.721896 -95.911322 
L 299.177484 -96.264137 
L 297.633073 -94.215632 
L 296.088661 -92.180958 
L 294.54425 -90.154529 
L 292.999838 -88.163921 
L 291.455427 -86.147705 
L 289.911015 -82.059982 
L 288.366604 -78.239391 
L 286.822192 -78.789938 
L 285.27778 -79.532073 
L 283.733369 -75.850801 
L 282.188957 -72.34277 
L 280.644546 -71.116789 
L 279.100134 -69.919098 
L 277.555723 -68.807439 
L 276.011311 -65.758737 
L 274.4669 -60.812818 
L 272.922488 -58.224618 
L 271.378076 -59.985238 
L 269.833665 -61.207703 
L 268.289253 -58.061307 
L 266.744842 -55.127203 
L 265.20043 -54.507513 
L 263.656019 -53.651762 
L 262.111607 -53.134689 
L 260.567196 -50.949143 
L 259.022784 -48.658673 
L 257.478372 -44.308709 
L 255.933961 -38.293506 
L 254.389549 -37.905401 
L 252.845138 -37.759943 
L 251.300726 -39.96027 
L 249.756315 -44.202905 
L 248.211903 -43.997074 
L 246.667492 -43.97638 
L 245.12308 -48.236681 
L 243.578668 -52.268072 
L 242.034257 -52.097719 
L 240.489845 -52.169655 
L 238.945434 -59.191639 
L 237.401022 -66.11683 
L 235.856611 -73.078287 
L 234.312199 -78.023277 
L 232.767788 -83.433562 
L 231.223376 -93.683533 
L 229.678964 -103.377364 
L 228.134553 -110.427021 
L 226.590141 -117.428015 
L 225.04573 -122.365963 
L 223.501318 -127.188471 
L 221.956907 -134.325665 
L 220.412495 -141.4798 
L 218.868084 -150.721969 
L 217.323672 -157.645119 
L 215.77926 -162.48768 
L 214.234849 -169.631075 
L 212.690437 -176.755318 
L 211.146026 -185.934672 
L 209.601614 -192.809584 
L 208.057203 -187.182899 
L 206.512791 -183.865767 
L 204.96838 -180.547286 
L 203.423968 -179.304616 
L 201.879556 -175.761544 
L 200.335145 -170.138035 
L 198.790733 -166.835378 
L 197.246322 -163.528836 
L 195.70191 -160.195299 
L 194.157499 -156.840214 
L 192.613087 -156.668982 
L 191.068676 -156.655472 
L 189.524264 -156.774482 
L 187.979852 -154.76168 
L 186.435441 -154.958054 
L 184.891029 -157.19496 
L 183.346618 -157.126301 
L 181.802206 -157.054944 
L 180.257795 -155.077832 
L 178.713383 -153.585248 
L 177.168972 -156.195582 
L 175.62456 -158.552448 
L 174.080148 -160.711673 
L 172.535737 -162.688058 
L 170.991325 -164.502282 
L 169.446914 -166.166145 
L 167.902502 -167.681171 
L 166.358091 -169.056073 
L 164.813679 -170.338154 
L 163.269268 -171.615468 
L 161.724856 -172.959066 
L 160.180444 -174.380701 
L 158.636033 -175.877053 
L 157.091621 -177.516405 
L 155.54721 -179.19984 
L 154.002798 -180.814852 
L 152.458387 -182.415778 
L 150.913975 -184.126029 
L 149.369564 -185.772587 
L 147.825152 -187.30737 
L 146.28074 -188.73218 
L 144.736329 -190.104035 
L 143.191917 -191.449211 
L 141.647506 -192.766081 
L 140.103094 -194.050765 
L 138.558683 -195.308138 
L 137.014271 -196.533818 
L 135.46986 -197.724438 
L 133.925448 -198.877408 
L 132.381036 -200.000722 
L 130.836625 -201.092609 
L 129.292213 -202.188642 
L 127.747802 -203.357909 
L 126.20339 -204.629535 
L 124.658979 -205.859792 
L 123.114567 -206.938178 
L 121.570156 -207.934347 
L 120.025744 -208.921586 
L 118.481332 -209.969374 
L 116.936921 -211.15188 
L 115.392509 -212.328385 
L 113.848098 -213.373681 
L 112.303686 -214.304117 
L 110.759275 -215.15471 
L 109.214863 -215.932539 
L 107.670452 -216.64544 
L 106.12604 -217.301332 
L 104.581628 -217.907341 
L 103.037217 -218.517976 
L 101.492805 -219.237065 
L 99.948394 -220.072502 
L 98.403982 -220.933212 
L 96.859571 -221.774505 
L 95.315159 -222.598906 
L 93.770748 -223.409364 
L 92.226336 -224.208281 
L 90.681924 -224.999259 
L 89.137513 -225.785982 
L 87.593101 -226.564523 
L 86.04869 -227.341157 
L 84.504278 -228.161499 
L 82.959867 -229.068247 
L 81.415455 -230.043167 
L 79.871044 -231.111907 
L 78.326632 -232.26431 
L 76.78222 -233.49034 
L 75.237809 -234.781449 
L 73.693397 -236.128724 
L 72.148986 -237.494849 
L 70.604574 -238.802663 
L 69.060163 -240.018187 
L 67.515751 -241.173693 
L 65.97134 -242.293854 
L 64.426928 -243.379567 
L 62.882516 -244.432607 
L 61.338105 -245.454836 
L 59.793693 -246.448183 
L 58.249282 -247.413981 
L 56.70487 -248.373888 
L 55.160459 -249.361161 
L 53.616047 -250.363421 
L 52.071636 -251.332615 
L 50.527224 -252.252481 
L 48.982812 -250.078129 
z
" id="m82a9791d0f"/>
    </defs>
    <g clip-path="url(#pfe19118837)">
     <use style="fill:#0000ff;fill-opacity:0.2;" x="0" xlink:href="#m82a9791d0f" y="351.59625"/>
    </g>
   </g>
   <g id="matplotlib.axis_1">
    <g id="xtick_1">
     <g id="line2d_1">
      <defs>
       <path d="M 0 0 
L 0 3.5 
" id="m6f6715c833" style="stroke:#000000;stroke-width:0.8;"/>
      </defs>
      <g>
       <use style="stroke:#000000;stroke-width:0.8;" x="101.492805" xlink:href="#m6f6715c833" y="327.718125"/>
      </g>
     </g>
     <g id="text_1">
      <!-- 1800 -->
      <defs>
       <path d="M 12.40625 8.296875 
L 28.515625 8.296875 
L 28.515625 63.921875 
L 10.984375 60.40625 
L 10.984375 69.390625 
L 28.421875 72.90625 
L 38.28125 72.90625 
L 38.28125 8.296875 
L 54.390625 8.296875 
L 54.390625 0 
L 12.40625 0 
z
" id="DejaVuSans-49"/>
       <path d="M 31.78125 34.625 
Q 24.75 34.625 20.71875 30.859375 
Q 16.703125 27.09375 16.703125 20.515625 
Q 16.703125 13.921875 20.71875 10.15625 
Q 24.75 6.390625 31.78125 6.390625 
Q 38.8125 6.390625 42.859375 10.171875 
Q 46.921875 13.96875 46.921875 20.515625 
Q 46.921875 27.09375 42.890625 30.859375 
Q 38.875 34.625 31.78125 34.625 
z
M 21.921875 38.8125 
Q 15.578125 40.375 12.03125 44.71875 
Q 8.5 49.078125 8.5 55.328125 
Q 8.5 64.0625 14.71875 69.140625 
Q 20.953125 74.21875 31.78125 74.21875 
Q 42.671875 74.21875 48.875 69.140625 
Q 55.078125 64.0625 55.078125 55.328125 
Q 55.078125 49.078125 51.53125 44.71875 
Q 48 40.375 41.703125 38.8125 
Q 48.828125 37.15625 52.796875 32.3125 
Q 56.78125 27.484375 56.78125 20.515625 
Q 56.78125 9.90625 50.3125 4.234375 
Q 43.84375 -1.421875 31.78125 -1.421875 
Q 19.734375 -1.421875 13.25 4.234375 
Q 6.78125 9.90625 6.78125 20.515625 
Q 6.78125 27.484375 10.78125 32.3125 
Q 14.796875 37.15625 21.921875 38.8125 
z
M 18.3125 54.390625 
Q 18.3125 48.734375 21.84375 45.5625 
Q 25.390625 42.390625 31.78125 42.390625 
Q 38.140625 42.390625 41.71875 45.5625 
Q 45.3125 48.734375 45.3125 54.390625 
Q 45.3125 60.0625 41.71875 63.234375 
Q 38.140625 66.40625 31.78125 66.40625 
Q 25.390625 66.40625 21.84375 63.234375 
Q 18.3125 60.0625 18.3125 54.390625 
z
" id="DejaVuSans-56"/>
       <path d="M 31.78125 66.40625 
Q 24.171875 66.40625 20.328125 58.90625 
Q 16.5 51.421875 16.5 36.375 
Q 16.5 21.390625 20.328125 13.890625 
Q 24.171875 6.390625 31.78125 6.390625 
Q 39.453125 6.390625 43.28125 13.890625 
Q 47.125 21.390625 47.125 36.375 
Q 47.125 51.421875 43.28125 58.90625 
Q 39.453125 66.40625 31.78125 66.40625 
z
M 31.78125 74.21875 
Q 44.046875 74.21875 50.515625 64.515625 
Q 56.984375 54.828125 56.984375 36.375 
Q 56.984375 17.96875 50.515625 8.265625 
Q 44.046875 -1.421875 31.78125 -1.421875 
Q 19.53125 -1.421875 13.0625 8.265625 
Q 6.59375 17.96875 6.59375 36.375 
Q 6.59375 54.828125 13.0625 64.515625 
Q 19.53125 74.21875 31.78125 74.21875 
z
" id="DejaVuSans-48"/>
      </defs>
      <g transform="translate(88.767805 342.316562)scale(0.1 -0.1)">
       <use xlink:href="#DejaVuSans-49"/>
       <use x="63.623047" xlink:href="#DejaVuSans-56"/>
       <use x="127.246094" xlink:href="#DejaVuSans-48"/>
       <use x="190.869141" xlink:href="#DejaVuSans-48"/>
      </g>
     </g>
    </g>
    <g id="xtick_2">
     <g id="line2d_2">
      <g>
       <use style="stroke:#000000;stroke-width:0.8;" x="178.713383" xlink:href="#m6f6715c833" y="327.718125"/>
      </g>
     </g>
     <g id="text_2">
      <!-- 1850 -->
      <defs>
       <path d="M 10.796875 72.90625 
L 49.515625 72.90625 
L 49.515625 64.59375 
L 19.828125 64.59375 
L 19.828125 46.734375 
Q 21.96875 47.46875 24.109375 47.828125 
Q 26.265625 48.1875 28.421875 48.1875 
Q 40.625 48.1875 47.75 41.5 
Q 54.890625 34.8125 54.890625 23.390625 
Q 54.890625 11.625 47.5625 5.09375 
Q 40.234375 -1.421875 26.90625 -1.421875 
Q 22.3125 -1.421875 17.546875 -0.640625 
Q 12.796875 0.140625 7.71875 1.703125 
L 7.71875 11.625 
Q 12.109375 9.234375 16.796875 8.0625 
Q 21.484375 6.890625 26.703125 6.890625 
Q 35.15625 6.890625 40.078125 11.328125 
Q 45.015625 15.765625 45.015625 23.390625 
Q 45.015625 31 40.078125 35.4375 
Q 35.15625 39.890625 26.703125 39.890625 
Q 22.75 39.890625 18.8125 39.015625 
Q 14.890625 38.140625 10.796875 36.28125 
z
" id="DejaVuSans-53"/>
      </defs>
      <g transform="translate(165.988383 342.316562)scale(0.1 -0.1)">
       <use xlink:href="#DejaVuSans-49"/>
       <use x="63.623047" xlink:href="#DejaVuSans-56"/>
       <use x="127.246094" xlink:href="#DejaVuSans-53"/>
       <use x="190.869141" xlink:href="#DejaVuSans-48"/>
      </g>
     </g>
    </g>
    <g id="xtick_3">
     <g id="line2d_3">
      <g>
       <use style="stroke:#000000;stroke-width:0.8;" x="255.933961" xlink:href="#m6f6715c833" y="327.718125"/>
      </g>
     </g>
     <g id="text_3">
      <!-- 1900 -->
      <defs>
       <path d="M 10.984375 1.515625 
L 10.984375 10.5 
Q 14.703125 8.734375 18.5 7.8125 
Q 22.3125 6.890625 25.984375 6.890625 
Q 35.75 6.890625 40.890625 13.453125 
Q 46.046875 20.015625 46.78125 33.40625 
Q 43.953125 29.203125 39.59375 26.953125 
Q 35.25 24.703125 29.984375 24.703125 
Q 19.046875 24.703125 12.671875 31.3125 
Q 6.296875 37.9375 6.296875 49.421875 
Q 6.296875 60.640625 12.9375 67.421875 
Q 19.578125 74.21875 30.609375 74.21875 
Q 43.265625 74.21875 49.921875 64.515625 
Q 56.59375 54.828125 56.59375 36.375 
Q 56.59375 19.140625 48.40625 8.859375 
Q 40.234375 -1.421875 26.421875 -1.421875 
Q 22.703125 -1.421875 18.890625 -0.6875 
Q 15.09375 0.046875 10.984375 1.515625 
z
M 30.609375 32.421875 
Q 37.25 32.421875 41.125 36.953125 
Q 45.015625 41.5 45.015625 49.421875 
Q 45.015625 57.28125 41.125 61.84375 
Q 37.25 66.40625 30.609375 66.40625 
Q 23.96875 66.40625 20.09375 61.84375 
Q 16.21875 57.28125 16.21875 49.421875 
Q 16.21875 41.5 20.09375 36.953125 
Q 23.96875 32.421875 30.609375 32.421875 
z
" id="DejaVuSans-57"/>
      </defs>
      <g transform="translate(243.208961 342.316562)scale(0.1 -0.1)">
       <use xlink:href="#DejaVuSans-49"/>
       <use x="63.623047" xlink:href="#DejaVuSans-57"/>
       <use x="127.246094" xlink:href="#DejaVuSans-48"/>
       <use x="190.869141" xlink:href="#DejaVuSans-48"/>
      </g>
     </g>
    </g>
    <g id="xtick_4">
     <g id="line2d_4">
      <g>
       <use style="stroke:#000000;stroke-width:0.8;" x="333.154539" xlink:href="#m6f6715c833" y="327.718125"/>
      </g>
     </g>
     <g id="text_4">
      <!-- 1950 -->
      <g transform="translate(320.429539 342.316562)scale(0.1 -0.1)">
       <use xlink:href="#DejaVuSans-49"/>
       <use x="63.623047" xlink:href="#DejaVuSans-57"/>
       <use x="127.246094" xlink:href="#DejaVuSans-53"/>
       <use x="190.869141" xlink:href="#DejaVuSans-48"/>
      </g>
     </g>
    </g>
    <g id="xtick_5">
     <g id="line2d_5">
      <g>
       <use style="stroke:#000000;stroke-width:0.8;" x="410.375116" xlink:href="#m6f6715c833" y="327.718125"/>
      </g>
     </g>
     <g id="text_5">
      <!-- 2000 -->
      <defs>
       <path d="M 19.1875 8.296875 
L 53.609375 8.296875 
L 53.609375 0 
L 7.328125 0 
L 7.328125 8.296875 
Q 12.9375 14.109375 22.625 23.890625 
Q 32.328125 33.6875 34.8125 36.53125 
Q 39.546875 41.84375 41.421875 45.53125 
Q 43.3125 49.21875 43.3125 52.78125 
Q 43.3125 58.59375 39.234375 62.25 
Q 35.15625 65.921875 28.609375 65.921875 
Q 23.96875 65.921875 18.8125 64.3125 
Q 13.671875 62.703125 7.8125 59.421875 
L 7.8125 69.390625 
Q 13.765625 71.78125 18.9375 73 
Q 24.125 74.21875 28.421875 74.21875 
Q 39.75 74.21875 46.484375 68.546875 
Q 53.21875 62.890625 53.21875 53.421875 
Q 53.21875 48.921875 51.53125 44.890625 
Q 49.859375 40.875 45.40625 35.40625 
Q 44.1875 33.984375 37.640625 27.21875 
Q 31.109375 20.453125 19.1875 8.296875 
z
" id="DejaVuSans-50"/>
      </defs>
      <g transform="translate(397.650116 342.316562)scale(0.1 -0.1)">
       <use xlink:href="#DejaVuSans-50"/>
       <use x="63.623047" xlink:href="#DejaVuSans-48"/>
       <use x="127.246094" xlink:href="#DejaVuSans-48"/>
       <use x="190.869141" xlink:href="#DejaVuSans-48"/>
      </g>
     </g>
    </g>
   </g>
   <g id="matplotlib.axis_2">
    <g id="ytick_1">
     <g id="line2d_6">
      <defs>
       <path d="M 0 0 
L -3.5 0 
" id="mcedecb8845" style="stroke:#000000;stroke-width:0.8;"/>
      </defs>
      <g>
       <use style="stroke:#000000;stroke-width:0.8;" x="48.982813" xlink:href="#mcedecb8845" y="271.36629"/>
      </g>
     </g>
     <g id="text_6">
      <!-- −60 -->
      <defs>
       <path d="M 10.59375 35.5 
L 73.1875 35.5 
L 73.1875 27.203125 
L 10.59375 27.203125 
z
" id="DejaVuSans-8722"/>
       <path d="M 33.015625 40.375 
Q 26.375 40.375 22.484375 35.828125 
Q 18.609375 31.296875 18.609375 23.390625 
Q 18.609375 15.53125 22.484375 10.953125 
Q 26.375 6.390625 33.015625 6.390625 
Q 39.65625 6.390625 43.53125 10.953125 
Q 47.40625 15.53125 47.40625 23.390625 
Q 47.40625 31.296875 43.53125 35.828125 
Q 39.65625 40.375 33.015625 40.375 
z
M 52.59375 71.296875 
L 52.59375 62.3125 
Q 48.875 64.0625 45.09375 64.984375 
Q 41.3125 65.921875 37.59375 65.921875 
Q 27.828125 65.921875 22.671875 59.328125 
Q 17.53125 52.734375 16.796875 39.40625 
Q 19.671875 43.65625 24.015625 45.921875 
Q 28.375 48.1875 33.59375 48.1875 
Q 44.578125 48.1875 50.953125 41.515625 
Q 57.328125 34.859375 57.328125 23.390625 
Q 57.328125 12.15625 50.6875 5.359375 
Q 44.046875 -1.421875 33.015625 -1.421875 
Q 20.359375 -1.421875 13.671875 8.265625 
Q 6.984375 17.96875 6.984375 36.375 
Q 6.984375 53.65625 15.1875 63.9375 
Q 23.390625 74.21875 37.203125 74.21875 
Q 40.921875 74.21875 44.703125 73.484375 
Q 48.484375 72.75 52.59375 71.296875 
z
" id="DejaVuSans-54"/>
      </defs>
      <g transform="translate(20.878125 275.165509)scale(0.1 -0.1)">
       <use xlink:href="#DejaVuSans-8722"/>
       <use x="83.789062" xlink:href="#DejaVuSans-54"/>
       <use x="147.412109" xlink:href="#DejaVuSans-48"/>
      </g>
     </g>
    </g>
    <g id="ytick_2">
     <g id="line2d_7">
      <g>
       <use style="stroke:#000000;stroke-width:0.8;" x="48.982813" xlink:href="#mcedecb8845" y="209.839139"/>
      </g>
     </g>
     <g id="text_7">
      <!-- −40 -->
      <defs>
       <path d="M 37.796875 64.3125 
L 12.890625 25.390625 
L 37.796875 25.390625 
z
M 35.203125 72.90625 
L 47.609375 72.90625 
L 47.609375 25.390625 
L 58.015625 25.390625 
L 58.015625 17.1875 
L 47.609375 17.1875 
L 47.609375 0 
L 37.796875 0 
L 37.796875 17.1875 
L 4.890625 17.1875 
L 4.890625 26.703125 
z
" id="DejaVuSans-52"/>
      </defs>
      <g transform="translate(20.878125 213.638358)scale(0.1 -0.1)">
       <use xlink:href="#DejaVuSans-8722"/>
       <use x="83.789062" xlink:href="#DejaVuSans-52"/>
       <use x="147.412109" xlink:href="#DejaVuSans-48"/>
      </g>
     </g>
    </g>
    <g id="ytick_3">
     <g id="line2d_8">
      <g>
       <use style="stroke:#000000;stroke-width:0.8;" x="48.982813" xlink:href="#mcedecb8845" y="148.311989"/>
      </g>
     </g>
     <g id="text_8">
      <!-- −20 -->
      <g transform="translate(20.878125 152.111207)scale(0.1 -0.1)">
       <use xlink:href="#DejaVuSans-8722"/>
       <use x="83.789062" xlink:href="#DejaVuSans-50"/>
       <use x="147.412109" xlink:href="#DejaVuSans-48"/>
      </g>
     </g>
    </g>
    <g id="ytick_4">
     <g id="line2d_9">
      <g>
       <use style="stroke:#000000;stroke-width:0.8;" x="48.982813" xlink:href="#mcedecb8845" y="86.784838"/>
      </g>
     </g>
     <g id="text_9">
      <!-- 0 -->
      <g transform="translate(35.620313 90.584057)scale(0.1 -0.1)">
       <use xlink:href="#DejaVuSans-48"/>
      </g>
     </g>
    </g>
    <g id="ytick_5">
     <g id="line2d_10">
      <g>
       <use style="stroke:#000000;stroke-width:0.8;" x="48.982813" xlink:href="#mcedecb8845" y="25.257687"/>
      </g>
     </g>
     <g id="text_10">
      <!-- 20 -->
      <g transform="translate(29.257813 29.056906)scale(0.1 -0.1)">
       <use xlink:href="#DejaVuSans-50"/>
       <use x="63.623047" xlink:href="#DejaVuSans-48"/>
      </g>
     </g>
    </g>
    <g id="text_11">
     <!-- Emissions (MtCH4) -->
     <defs>
      <path d="M 9.8125 72.90625 
L 55.90625 72.90625 
L 55.90625 64.59375 
L 19.671875 64.59375 
L 19.671875 43.015625 
L 54.390625 43.015625 
L 54.390625 34.71875 
L 19.671875 34.71875 
L 19.671875 8.296875 
L 56.78125 8.296875 
L 56.78125 0 
L 9.8125 0 
z
" id="DejaVuSans-69"/>
      <path d="M 52 44.1875 
Q 55.375 50.25 60.0625 53.125 
Q 64.75 56 71.09375 56 
Q 79.640625 56 84.28125 50.015625 
Q 88.921875 44.046875 88.921875 33.015625 
L 88.921875 0 
L 79.890625 0 
L 79.890625 32.71875 
Q 79.890625 40.578125 77.09375 44.375 
Q 74.3125 48.1875 68.609375 48.1875 
Q 61.625 48.1875 57.5625 43.546875 
Q 53.515625 38.921875 53.515625 30.90625 
L 53.515625 0 
L 44.484375 0 
L 44.484375 32.71875 
Q 44.484375 40.625 41.703125 44.40625 
Q 38.921875 48.1875 33.109375 48.1875 
Q 26.21875 48.1875 22.15625 43.53125 
Q 18.109375 38.875 18.109375 30.90625 
L 18.109375 0 
L 9.078125 0 
L 9.078125 54.6875 
L 18.109375 54.6875 
L 18.109375 46.1875 
Q 21.1875 51.21875 25.484375 53.609375 
Q 29.78125 56 35.6875 56 
Q 41.65625 56 45.828125 52.96875 
Q 50 49.953125 52 44.1875 
z
" id="DejaVuSans-109"/>
      <path d="M 9.421875 54.6875 
L 18.40625 54.6875 
L 18.40625 0 
L 9.421875 0 
z
M 9.421875 75.984375 
L 18.40625 75.984375 
L 18.40625 64.59375 
L 9.421875 64.59375 
z
" id="DejaVuSans-105"/>
      <path d="M 44.28125 53.078125 
L 44.28125 44.578125 
Q 40.484375 46.53125 36.375 47.5 
Q 32.28125 48.484375 27.875 48.484375 
Q 21.1875 48.484375 17.84375 46.4375 
Q 14.5 44.390625 14.5 40.28125 
Q 14.5 37.15625 16.890625 35.375 
Q 19.28125 33.59375 26.515625 31.984375 
L 29.59375 31.296875 
Q 39.15625 29.25 43.1875 25.515625 
Q 47.21875 21.78125 47.21875 15.09375 
Q 47.21875 7.46875 41.1875 3.015625 
Q 35.15625 -1.421875 24.609375 -1.421875 
Q 20.21875 -1.421875 15.453125 -0.5625 
Q 10.6875 0.296875 5.421875 2 
L 5.421875 11.28125 
Q 10.40625 8.6875 15.234375 7.390625 
Q 20.0625 6.109375 24.8125 6.109375 
Q 31.15625 6.109375 34.5625 8.28125 
Q 37.984375 10.453125 37.984375 14.40625 
Q 37.984375 18.0625 35.515625 20.015625 
Q 33.0625 21.96875 24.703125 23.78125 
L 21.578125 24.515625 
Q 13.234375 26.265625 9.515625 29.90625 
Q 5.8125 33.546875 5.8125 39.890625 
Q 5.8125 47.609375 11.28125 51.796875 
Q 16.75 56 26.8125 56 
Q 31.78125 56 36.171875 55.265625 
Q 40.578125 54.546875 44.28125 53.078125 
z
" id="DejaVuSans-115"/>
      <path d="M 30.609375 48.390625 
Q 23.390625 48.390625 19.1875 42.75 
Q 14.984375 37.109375 14.984375 27.296875 
Q 14.984375 17.484375 19.15625 11.84375 
Q 23.34375 6.203125 30.609375 6.203125 
Q 37.796875 6.203125 41.984375 11.859375 
Q 46.1875 17.53125 46.1875 27.296875 
Q 46.1875 37.015625 41.984375 42.703125 
Q 37.796875 48.390625 30.609375 48.390625 
z
M 30.609375 56 
Q 42.328125 56 49.015625 48.375 
Q 55.71875 40.765625 55.71875 27.296875 
Q 55.71875 13.875 49.015625 6.21875 
Q 42.328125 -1.421875 30.609375 -1.421875 
Q 18.84375 -1.421875 12.171875 6.21875 
Q 5.515625 13.875 5.515625 27.296875 
Q 5.515625 40.765625 12.171875 48.375 
Q 18.84375 56 30.609375 56 
z
" id="DejaVuSans-111"/>
      <path d="M 54.890625 33.015625 
L 54.890625 0 
L 45.90625 0 
L 45.90625 32.71875 
Q 45.90625 40.484375 42.875 44.328125 
Q 39.84375 48.1875 33.796875 48.1875 
Q 26.515625 48.1875 22.3125 43.546875 
Q 18.109375 38.921875 18.109375 30.90625 
L 18.109375 0 
L 9.078125 0 
L 9.078125 54.6875 
L 18.109375 54.6875 
L 18.109375 46.1875 
Q 21.34375 51.125 25.703125 53.5625 
Q 30.078125 56 35.796875 56 
Q 45.21875 56 50.046875 50.171875 
Q 54.890625 44.34375 54.890625 33.015625 
z
" id="DejaVuSans-110"/>
      <path id="DejaVuSans-32"/>
      <path d="M 31 75.875 
Q 24.46875 64.65625 21.28125 53.65625 
Q 18.109375 42.671875 18.109375 31.390625 
Q 18.109375 20.125 21.3125 9.0625 
Q 24.515625 -2 31 -13.1875 
L 23.1875 -13.1875 
Q 15.875 -1.703125 12.234375 9.375 
Q 8.59375 20.453125 8.59375 31.390625 
Q 8.59375 42.28125 12.203125 53.3125 
Q 15.828125 64.359375 23.1875 75.875 
z
" id="DejaVuSans-40"/>
      <path d="M 9.8125 72.90625 
L 24.515625 72.90625 
L 43.109375 23.296875 
L 61.8125 72.90625 
L 76.515625 72.90625 
L 76.515625 0 
L 66.890625 0 
L 66.890625 64.015625 
L 48.09375 14.015625 
L 38.1875 14.015625 
L 19.390625 64.015625 
L 19.390625 0 
L 9.8125 0 
z
" id="DejaVuSans-77"/>
      <path d="M 18.3125 70.21875 
L 18.3125 54.6875 
L 36.8125 54.6875 
L 36.8125 47.703125 
L 18.3125 47.703125 
L 18.3125 18.015625 
Q 18.3125 11.328125 20.140625 9.421875 
Q 21.96875 7.515625 27.59375 7.515625 
L 36.8125 7.515625 
L 36.8125 0 
L 27.59375 0 
Q 17.1875 0 13.234375 3.875 
Q 9.28125 7.765625 9.28125 18.015625 
L 9.28125 47.703125 
L 2.6875 47.703125 
L 2.6875 54.6875 
L 9.28125 54.6875 
L 9.28125 70.21875 
z
" id="DejaVuSans-116"/>
      <path d="M 64.40625 67.28125 
L 64.40625 56.890625 
Q 59.421875 61.53125 53.78125 63.8125 
Q 48.140625 66.109375 41.796875 66.109375 
Q 29.296875 66.109375 22.65625 58.46875 
Q 16.015625 50.828125 16.015625 36.375 
Q 16.015625 21.96875 22.65625 14.328125 
Q 29.296875 6.6875 41.796875 6.6875 
Q 48.140625 6.6875 53.78125 8.984375 
Q 59.421875 11.28125 64.40625 15.921875 
L 64.40625 5.609375 
Q 59.234375 2.09375 53.4375 0.328125 
Q 47.65625 -1.421875 41.21875 -1.421875 
Q 24.65625 -1.421875 15.125 8.703125 
Q 5.609375 18.84375 5.609375 36.375 
Q 5.609375 53.953125 15.125 64.078125 
Q 24.65625 74.21875 41.21875 74.21875 
Q 47.75 74.21875 53.53125 72.484375 
Q 59.328125 70.75 64.40625 67.28125 
z
" id="DejaVuSans-67"/>
      <path d="M 9.8125 72.90625 
L 19.671875 72.90625 
L 19.671875 43.015625 
L 55.515625 43.015625 
L 55.515625 72.90625 
L 65.375 72.90625 
L 65.375 0 
L 55.515625 0 
L 55.515625 34.71875 
L 19.671875 34.71875 
L 19.671875 0 
L 9.8125 0 
z
" id="DejaVuSans-72"/>
      <path d="M 8.015625 75.875 
L 15.828125 75.875 
Q 23.140625 64.359375 26.78125 53.3125 
Q 30.421875 42.28125 30.421875 31.390625 
Q 30.421875 20.453125 26.78125 9.375 
Q 23.140625 -1.703125 15.828125 -13.1875 
L 8.015625 -13.1875 
Q 14.5 -2 17.703125 9.0625 
Q 20.90625 20.125 20.90625 31.390625 
Q 20.90625 42.671875 17.703125 53.65625 
Q 14.5 64.65625 8.015625 75.875 
z
" id="DejaVuSans-41"/>
     </defs>
     <g transform="translate(14.798438 222.065781)rotate(-90)scale(0.1 -0.1)">
      <use xlink:href="#DejaVuSans-69"/>
      <use x="63.183594" xlink:href="#DejaVuSans-109"/>
      <use x="160.595703" xlink:href="#DejaVuSans-105"/>
      <use x="188.378906" xlink:href="#DejaVuSans-115"/>
      <use x="240.478516" xlink:href="#DejaVuSans-115"/>
      <use x="292.578125" xlink:href="#DejaVuSans-105"/>
      <use x="320.361328" xlink:href="#DejaVuSans-111"/>
      <use x="381.542969" xlink:href="#DejaVuSans-110"/>
      <use x="444.921875" xlink:href="#DejaVuSans-115"/>
      <use x="497.021484" xlink:href="#DejaVuSans-32"/>
      <use x="528.808594" xlink:href="#DejaVuSans-40"/>
      <use x="567.822266" xlink:href="#DejaVuSans-77"/>
      <use x="654.101562" xlink:href="#DejaVuSans-116"/>
      <use x="693.310547" xlink:href="#DejaVuSans-67"/>
      <use x="763.134766" xlink:href="#DejaVuSans-72"/>
      <use x="838.330078" xlink:href="#DejaVuSans-52"/>
      <use x="901.953125" xlink:href="#DejaVuSans-41"/>
     </g>
    </g>
   </g>
   <g id="line2d_11">
    <path clip-path="url(#pfe19118837)" d="M 48.982812 101.022211 
L 50.527224 98.865525 
L 53.616047 100.804653 
L 65.97134 109.086999 
L 70.604574 112.646364 
L 78.326632 119.277578 
L 81.415455 121.532578 
L 84.504278 123.416201 
L 89.137513 125.716046 
L 98.403982 130.373136 
L 101.492805 131.995029 
L 104.581628 133.245169 
L 107.670452 134.419914 
L 110.759275 135.818267 
L 113.848098 137.504768 
L 116.936921 139.623252 
L 120.025744 141.739913 
L 124.658979 144.67076 
L 130.836625 149.222911 
L 135.46986 152.478964 
L 140.103094 156.020886 
L 144.736329 159.829417 
L 147.825152 162.534426 
L 150.913975 165.624232 
L 158.636033 173.603789 
L 161.724856 176.442448 
L 164.813679 179.003801 
L 167.902502 181.54289 
L 170.991325 184.594893 
L 174.080148 188.261103 
L 175.62456 190.358888 
L 177.168972 192.654877 
L 178.713383 195.2137 
L 180.257795 193.66296 
L 181.802206 191.617582 
L 184.891029 191.329099 
L 186.435441 193.498733 
L 187.979852 193.630174 
L 189.524264 191.551845 
L 192.613087 191.490983 
L 194.157499 191.310179 
L 200.335145 177.686221 
L 201.879556 171.979473 
L 203.423968 168.34078 
L 204.96838 167.016393 
L 208.057203 160.230604 
L 209.601614 154.522209 
L 211.146026 161.306882 
L 212.690437 170.40769 
L 215.77926 184.524906 
L 217.323672 189.287879 
L 218.868084 196.128138 
L 220.412495 205.289452 
L 223.501318 219.436434 
L 226.590141 229.020502 
L 229.678964 242.872633 
L 232.767788 262.51696 
L 234.312199 267.850511 
L 235.856611 272.721075 
L 240.489845 293.412435 
L 242.034257 293.402436 
L 243.578668 293.123287 
L 246.667492 301.359308 
L 248.211903 301.167252 
L 249.756315 300.790095 
L 251.300726 304.904091 
L 252.845138 306.999214 
L 254.389549 306.738057 
L 255.933961 306.197097 
L 257.478372 300.016359 
L 259.022784 295.471058 
L 262.111607 290.500295 
L 263.656019 289.827163 
L 266.744842 288.002799 
L 269.833665 281.40535 
L 271.378076 282.364747 
L 272.922488 283.88616 
L 274.4669 281.048646 
L 276.011311 275.859001 
L 277.555723 272.575875 
L 280.644546 269.682688 
L 282.188957 268.167231 
L 285.27778 260.353269 
L 286.822192 260.786517 
L 288.366604 261.048377 
L 291.455427 252.560618 
L 299.177484 240.9918 
L 300.721896 241.048472 
L 302.266308 241.395596 
L 306.899542 236.928585 
L 308.443954 237.765504 
L 309.988365 238.767902 
L 316.166012 234.25207 
L 317.710423 230.873743 
L 319.254835 228.578473 
L 320.799246 230.70351 
L 322.343658 233.121046 
L 323.888069 231.182434 
L 325.432481 228.98632 
L 326.976892 226.528573 
L 328.521304 221.519314 
L 331.610127 215.036069 
L 333.154539 209.221422 
L 334.69895 214.126363 
L 336.243362 216.356983 
L 337.787773 217.987664 
L 340.876596 228.991651 
L 342.421008 231.775002 
L 343.96542 234.026744 
L 347.054243 241.998292 
L 348.598654 243.469686 
L 351.687477 232.859675 
L 353.231889 229.526929 
L 354.7763 226.820615 
L 356.320712 222.068553 
L 357.865124 218.316454 
L 359.409535 213.476467 
L 362.498358 198.368227 
L 364.04277 192.88478 
L 365.587181 192.124635 
L 368.676004 185.401485 
L 370.220416 184.360587 
L 371.764828 183.816252 
L 373.309239 183.570887 
L 374.853651 180.69859 
L 376.398062 177.206638 
L 377.942474 175.822646 
L 379.486885 165.244715 
L 381.031297 147.177953 
L 382.575708 137.524297 
L 384.12012 133.229077 
L 385.664532 146.338899 
L 387.208943 175.907959 
L 388.753355 191.556147 
L 390.297766 197.820734 
L 391.842178 206.540026 
L 393.386589 211.847105 
L 394.931001 215.290261 
L 396.475412 193.696161 
L 398.019824 195.608717 
L 399.564236 212.481906 
L 401.108647 194.976126 
L 402.653059 172.092365 
L 404.19747 169.452115 
L 405.741882 142.154723 
L 407.286293 96.281657 
L 408.830705 88.902765 
L 411.919528 140.010891 
L 413.46394 132.259243 
L 415.008351 129.710688 
L 416.552763 157.353381 
L 418.097174 180.993055 
L 419.641586 181.489579 
L 421.185997 174.83974 
L 422.730409 174.779338 
L 424.27482 174.931698 
L 425.819232 177.594055 
L 425.819232 177.594055 
" style="fill:none;stroke:#0000ff;stroke-linecap:square;stroke-width:1.5;"/>
   </g>
   <g id="line2d_12">
    <path clip-path="url(#pfe19118837)" style="fill:none;stroke:#0000ff;stroke-linecap:square;stroke-width:1.5;"/>
   </g>
   <g id="patch_3">
    <path d="M 48.982813 327.718125 
L 48.982813 22.318125 
" style="fill:none;stroke:#000000;stroke-linecap:square;stroke-linejoin:miter;stroke-width:0.8;"/>
   </g>
   <g id="patch_4">
    <path d="M 425.819232 327.718125 
L 425.819232 22.318125 
" style="fill:none;stroke:#000000;stroke-linecap:square;stroke-linejoin:miter;stroke-width:0.8;"/>
   </g>
   <g id="patch_5">
    <path d="M 48.982812 327.718125 
L 425.819232 327.718125 
" style="fill:none;stroke:#000000;stroke-linecap:square;stroke-linejoin:miter;stroke-width:0.8;"/>
   </g>
   <g id="patch_6">
    <path d="M 48.982812 22.318125 
L 425.819232 22.318125 
" style="fill:none;stroke:#000000;stroke-linecap:square;stroke-linejoin:miter;stroke-width:0.8;"/>
   </g>
   <g id="text_12">
    <!-- CH4 -->
    <g transform="translate(224.881647 16.318125)scale(0.12 -0.12)">
     <use xlink:href="#DejaVuSans-67"/>
     <use x="69.824219" xlink:href="#DejaVuSans-72"/>
     <use x="145.019531" xlink:href="#DejaVuSans-52"/>
    </g>
   </g>
   <g id="legend_1">
    <g id="line2d_13">
     <path d="M 57.982813 35.416562 
L 77.982813 35.416562 
" style="fill:none;stroke:#0000ff;stroke-linecap:square;stroke-width:1.5;"/>
    </g>
    <g id="line2d_14"/>
    <g id="text_13">
     <!-- FaIR v2 -->
     <defs>
      <path d="M 9.8125 72.90625 
L 51.703125 72.90625 
L 51.703125 64.59375 
L 19.671875 64.59375 
L 19.671875 43.109375 
L 48.578125 43.109375 
L 48.578125 34.8125 
L 19.671875 34.8125 
L 19.671875 0 
L 9.8125 0 
z
" id="DejaVuSans-70"/>
      <path d="M 34.28125 27.484375 
Q 23.390625 27.484375 19.1875 25 
Q 14.984375 22.515625 14.984375 16.5 
Q 14.984375 11.71875 18.140625 8.90625 
Q 21.296875 6.109375 26.703125 6.109375 
Q 34.1875 6.109375 38.703125 11.40625 
Q 43.21875 16.703125 43.21875 25.484375 
L 43.21875 27.484375 
z
M 52.203125 31.203125 
L 52.203125 0 
L 43.21875 0 
L 43.21875 8.296875 
Q 40.140625 3.328125 35.546875 0.953125 
Q 30.953125 -1.421875 24.3125 -1.421875 
Q 15.921875 -1.421875 10.953125 3.296875 
Q 6 8.015625 6 15.921875 
Q 6 25.140625 12.171875 29.828125 
Q 18.359375 34.515625 30.609375 34.515625 
L 43.21875 34.515625 
L 43.21875 35.40625 
Q 43.21875 41.609375 39.140625 45 
Q 35.0625 48.390625 27.6875 48.390625 
Q 23 48.390625 18.546875 47.265625 
Q 14.109375 46.140625 10.015625 43.890625 
L 10.015625 52.203125 
Q 14.9375 54.109375 19.578125 55.046875 
Q 24.21875 56 28.609375 56 
Q 40.484375 56 46.34375 49.84375 
Q 52.203125 43.703125 52.203125 31.203125 
z
" id="DejaVuSans-97"/>
      <path d="M 9.8125 72.90625 
L 19.671875 72.90625 
L 19.671875 0 
L 9.8125 0 
z
" id="DejaVuSans-73"/>
      <path d="M 44.390625 34.1875 
Q 47.5625 33.109375 50.5625 29.59375 
Q 53.5625 26.078125 56.59375 19.921875 
L 66.609375 0 
L 56 0 
L 46.6875 18.703125 
Q 43.0625 26.03125 39.671875 28.421875 
Q 36.28125 30.8125 30.421875 30.8125 
L 19.671875 30.8125 
L 19.671875 0 
L 9.8125 0 
L 9.8125 72.90625 
L 32.078125 72.90625 
Q 44.578125 72.90625 50.734375 67.671875 
Q 56.890625 62.453125 56.890625 51.90625 
Q 56.890625 45.015625 53.6875 40.46875 
Q 50.484375 35.9375 44.390625 34.1875 
z
M 19.671875 64.796875 
L 19.671875 38.921875 
L 32.078125 38.921875 
Q 39.203125 38.921875 42.84375 42.21875 
Q 46.484375 45.515625 46.484375 51.90625 
Q 46.484375 58.296875 42.84375 61.546875 
Q 39.203125 64.796875 32.078125 64.796875 
z
" id="DejaVuSans-82"/>
      <path d="M 2.984375 54.6875 
L 12.5 54.6875 
L 29.59375 8.796875 
L 46.6875 54.6875 
L 56.203125 54.6875 
L 35.6875 0 
L 23.484375 0 
z
" id="DejaVuSans-118"/>
     </defs>
     <g transform="translate(85.982813 38.916562)scale(0.1 -0.1)">
      <use xlink:href="#DejaVuSans-70"/>
      <use x="57.378906" xlink:href="#DejaVuSans-97"/>
      <use x="118.658203" xlink:href="#DejaVuSans-73"/>
      <use x="148.150391" xlink:href="#DejaVuSans-82"/>
      <use x="217.632812" xlink:href="#DejaVuSans-32"/>
      <use x="249.419922" xlink:href="#DejaVuSans-118"/>
      <use x="308.599609" xlink:href="#DejaVuSans-50"/>
     </g>
    </g>
   </g>
  </g>
  <g id="axes_2">
   <g id="patch_7">
    <path d="M 472.457813 327.718125 
L 849.294232 327.718125 
L 849.294232 22.318125 
L 472.457813 22.318125 
z
" style="fill:#ffffff;"/>
   </g>
   <g id="PolyCollection_2">
    <defs>
     <path d="M 472.457813 -277.360947 
L 472.457813 -277.381136 
L 474.002224 -280.64072 
L 475.546636 -280.272795 
L 477.091047 -279.919379 
L 478.635459 -279.571278 
L 480.17987 -279.22233 
L 481.724282 -278.872535 
L 483.268693 -278.531212 
L 484.813105 -278.207762 
L 486.357516 -277.896123 
L 487.901928 -277.583971 
L 489.44634 -277.261985 
L 490.990751 -276.951835 
L 492.535163 -276.666052 
L 494.079574 -276.386201 
L 495.623986 -276.109226 
L 497.168397 -275.82583 
L 498.712809 -275.548391 
L 500.25722 -275.289385 
L 501.801632 -275.052077 
L 503.346044 -274.814896 
L 504.890455 -274.562306 
L 506.434867 -274.325248 
L 507.979278 -274.097637 
L 509.52369 -273.895084 
L 511.068101 -273.686725 
L 512.612513 -273.472507 
L 514.156924 -273.264805 
L 515.701336 -273.0761 
L 517.245748 -272.903438 
L 518.790159 -272.731412 
L 520.334571 -272.556915 
L 521.878982 -272.389239 
L 523.423394 -272.23465 
L 524.967805 -272.099464 
L 526.512217 -271.971409 
L 528.056628 -271.838105 
L 529.60104 -271.711927 
L 531.145452 -271.599141 
L 532.689863 -271.496741 
L 534.234275 -271.404804 
L 535.778686 -271.310978 
L 537.323098 -271.227663 
L 538.867509 -271.148721 
L 540.411921 -271.080391 
L 541.956332 -271.022749 
L 543.500744 -270.966551 
L 545.045156 -270.921112 
L 546.589567 -270.883406 
L 548.133979 -270.850372 
L 549.67839 -270.831357 
L 551.222802 -270.817141 
L 552.767213 -270.817069 
L 554.311625 -270.8126 
L 555.856036 -270.816108 
L 557.400448 -270.824536 
L 558.94486 -270.844121 
L 560.489271 -270.878045 
L 562.033683 -270.910875 
L 563.578094 -270.948795 
L 565.122506 -270.998044 
L 566.666917 -271.064909 
L 568.211329 -271.133984 
L 569.75574 -271.20837 
L 571.300152 -271.281878 
L 572.844564 -271.360693 
L 574.388975 -271.463479 
L 575.933387 -271.571771 
L 577.477798 -271.682487 
L 579.02221 -271.798728 
L 580.566621 -271.920517 
L 582.111033 -272.060305 
L 583.655444 -272.218216 
L 585.199856 -272.369519 
L 586.744268 -272.579381 
L 588.288679 -273.826986 
L 589.833091 -276.465852 
L 591.377502 -277.925557 
L 592.921914 -275.635828 
L 594.466325 -269.083641 
L 596.010737 -260.992602 
L 597.555148 -256.05127 
L 599.09956 -254.687305 
L 600.643972 -254.386231 
L 602.188383 -261.905514 
L 603.732795 -277.200425 
L 605.277206 -282.864201 
L 606.821618 -283.116661 
L 608.366029 -283.397193 
L 609.910441 -283.728708 
L 611.454852 -283.738653 
L 612.999264 -283.751264 
L 614.543676 -283.776611 
L 616.088087 -283.803937 
L 617.632499 -283.826587 
L 619.17691 -282.692146 
L 620.721322 -285.058703 
L 622.265733 -285.110858 
L 623.810145 -285.15854 
L 625.354556 -285.194854 
L 626.898968 -285.283214 
L 628.44338 -285.510633 
L 629.987791 -285.693849 
L 631.532203 -285.897071 
L 633.076614 -278.334298 
L 634.621026 -264.712593 
L 636.165437 -267.528167 
L 637.709849 -273.648031 
L 639.25426 -273.137967 
L 640.798672 -264.909172 
L 642.343084 -255.787963 
L 643.887495 -262.995961 
L 645.431907 -270.354393 
L 646.976318 -270.062907 
L 648.52073 -269.749991 
L 650.065141 -268.3024 
L 651.609553 -270.198812 
L 653.153964 -270.004975 
L 654.698376 -269.879633 
L 656.242788 -269.779866 
L 657.787199 -268.692842 
L 659.331611 -260.811793 
L 660.876022 -252.936744 
L 662.420434 -260.561875 
L 663.964845 -268.270404 
L 665.509257 -268.191037 
L 667.053668 -268.050612 
L 668.59808 -260.086575 
L 670.142492 -252.004804 
L 671.686903 -251.579038 
L 673.231315 -251.116026 
L 674.775726 -258.392851 
L 676.320138 -257.94861 
L 677.864549 -249.72773 
L 679.408961 -256.977611 
L 680.953372 -264.185065 
L 682.497784 -263.495913 
L 684.042196 -262.654254 
L 685.586607 -261.6966 
L 687.131019 -260.656979 
L 688.67543 -259.573111 
L 690.219842 -266.250372 
L 691.764253 -273.023843 
L 693.308665 -272.163576 
L 694.853076 -271.409931 
L 696.397488 -270.693555 
L 697.9419 -277.695613 
L 699.486311 -276.957801 
L 701.030723 -268.43196 
L 702.575134 -275.372185 
L 704.119546 -282.384078 
L 705.663957 -289.478494 
L 707.208369 -296.666295 
L 708.75278 -288.422973 
L 710.297192 -287.932239 
L 711.841604 -295.222023 
L 713.386015 -287.018146 
L 714.930427 -278.737982 
L 716.474838 -278.097184 
L 718.01925 -277.357117 
L 719.563661 -284.321491 
L 721.108073 -283.555954 
L 722.652484 -267.264253 
L 724.196896 -266.423173 
L 725.741308 -265.663622 
L 727.285719 -257.248641 
L 728.830131 -264.418492 
L 730.374542 -271.761413 
L 731.918954 -271.496229 
L 733.463365 -271.282657 
L 735.007777 -271.070035 
L 736.552188 -263.040002 
L 738.0966 -254.844495 
L 739.641012 -254.20054 
L 741.185423 -253.354889 
L 742.729835 -258.530364 
L 744.274246 -260.929871 
L 745.818658 -253.410551 
L 747.363069 -251.53073 
L 748.907481 -247.838047 
L 750.451892 -235.433001 
L 751.996304 -222.886341 
L 753.540716 -211.066241 
L 755.085127 -200.84083 
L 756.629539 -185.31047 
L 758.17395 -171.58605 
L 759.718362 -174.122714 
L 761.262773 -177.650377 
L 762.807185 -166.453355 
L 764.351596 -163.323618 
L 765.896008 -168.160195 
L 767.44042 -157.558726 
L 768.984831 -154.52542 
L 770.529243 -166.726447 
L 772.073654 -170.822232 
L 773.618066 -157.28125 
L 775.162477 -140.303553 
L 776.706889 -143.764728 
L 778.2513 -152.357438 
L 779.795712 -144.976898 
L 781.340124 -127.442986 
L 782.884535 -112.201967 
L 784.428947 -110.924223 
L 785.973358 -117.304286 
L 787.51777 -116.85852 
L 789.062181 -138.804363 
L 790.606593 -128.405824 
L 792.151004 -137.430709 
L 793.695416 -153.188331 
L 795.239828 -142.297971 
L 796.784239 -149.249272 
L 798.328651 -155.281462 
L 799.873062 -155.740233 
L 801.417474 -113.283339 
L 802.961885 -107.010678 
L 804.506297 -182.941284 
L 806.050708 -180.32986 
L 807.59512 -123.726953 
L 809.139532 -100.350231 
L 810.683943 -134.143989 
L 812.228355 -131.075197 
L 813.772766 -47.964099 
L 815.317178 -202.861117 
L 816.861589 -315.396307 
L 818.406001 -198.932512 
L 819.950412 -104.156669 
L 821.494824 -38.424197 
L 823.039236 -65.264181 
L 824.583647 -69.975324 
L 826.128059 -116.448979 
L 827.67247 -134.866117 
L 829.216882 -108.395721 
L 830.761293 -129.788493 
L 832.305705 -139.99986 
L 833.850116 -105.123911 
L 835.394528 -117.787996 
L 836.93894 -153.918933 
L 838.483351 -157.755372 
L 840.027763 -132.132894 
L 841.572174 -142.839597 
L 843.116586 -148.153985 
L 844.660997 -124.470745 
L 846.205409 -124.555175 
L 847.74982 -124.712275 
L 849.294232 -124.824316 
L 849.294232 -123.789185 
L 849.294232 -123.789185 
L 847.74982 -123.70343 
L 846.205409 -123.571812 
L 844.660997 -123.512079 
L 843.116586 -147.221326 
L 841.572174 -141.932558 
L 840.027763 -131.249918 
L 838.483351 -156.897729 
L 836.93894 -153.086626 
L 835.394528 -116.97769 
L 833.850116 -104.33289 
L 832.305705 -139.229849 
L 830.761293 -129.039865 
L 829.216882 -107.663896 
L 827.67247 -134.150996 
L 826.128059 -115.749938 
L 824.583647 -69.289435 
L 823.039236 -64.589252 
L 821.494824 -37.759943 
L 819.950412 -103.504994 
L 818.406001 -198.302242 
L 816.861589 -314.800246 
L 815.317178 -202.293738 
L 813.772766 -47.413456 
L 812.228355 -130.541205 
L 810.683943 -133.627991 
L 809.139532 -99.850222 
L 807.59512 -123.243982 
L 806.050708 -179.867415 
L 804.506297 -182.498695 
L 802.961885 -106.58101 
L 801.417474 -112.865276 
L 799.873062 -155.334697 
L 798.328651 -154.888654 
L 796.784239 -148.868345 
L 795.239828 -141.927872 
L 793.695416 -152.828599 
L 792.151004 -137.080328 
L 790.606593 -128.06412 
L 789.062181 -138.470725 
L 787.51777 -116.532732 
L 785.973358 -116.986091 
L 784.428947 -110.61298 
L 782.884535 -111.897086 
L 781.340124 -127.144271 
L 779.795712 -144.684323 
L 778.2513 -152.070766 
L 776.706889 -143.483134 
L 775.162477 -140.026094 
L 773.618066 -157.007265 
L 772.073654 -170.55198 
L 770.529243 -166.459945 
L 768.984831 -154.262191 
L 767.44042 -157.298432 
L 765.896008 -167.902997 
L 764.351596 -163.069531 
L 762.807185 -166.202212 
L 761.262773 -177.402337 
L 759.718362 -173.877793 
L 758.17395 -171.343923 
L 756.629539 -185.071127 
L 755.085127 -200.604602 
L 753.540716 -210.833301 
L 751.996304 -222.656692 
L 750.451892 -235.206647 
L 748.907481 -247.61499 
L 747.363069 -251.310814 
L 745.818658 -253.193449 
L 744.274246 -260.715413 
L 742.729835 -258.318402 
L 741.185423 -253.145092 
L 739.641012 -253.992739 
L 738.0966 -254.63869 
L 736.552188 -262.836355 
L 735.007777 -270.868886 
L 733.463365 -271.084179 
L 731.918954 -271.300424 
L 730.374542 -271.568284 
L 728.830131 -264.227875 
L 727.285719 -257.060203 
L 725.741308 -265.477357 
L 724.196896 -266.239253 
L 722.652484 -267.08268 
L 721.108073 -283.377061 
L 719.563661 -284.145738 
L 718.01925 -277.184657 
L 716.474838 -277.927976 
L 714.930427 -278.57201 
L 713.386015 -286.855629 
L 711.841604 -295.063354 
L 710.297192 -287.777329 
L 708.75278 -288.271635 
L 707.208369 -296.518749 
L 705.663957 -289.334654 
L 704.119546 -282.243531 
L 702.575134 -275.234524 
L 701.030723 -268.296784 
L 699.486311 -276.825156 
L 697.9419 -277.56565 
L 696.397488 -270.566042 
L 694.853076 -271.284695 
L 693.308665 -272.040607 
L 691.764253 -272.90313 
L 690.219842 -266.131694 
L 688.67543 -259.456088 
L 687.131019 -260.541444 
L 685.586607 -261.582549 
L 684.042196 -262.541682 
L 682.497784 -263.384816 
L 680.953372 -264.075438 
L 679.408961 -256.869243 
L 677.864549 -249.620254 
L 676.320138 -257.84207 
L 674.775726 -258.287404 
L 673.231315 -251.011465 
L 671.686903 -251.475202 
L 670.142492 -251.901693 
L 668.59808 -259.984391 
L 667.053668 -267.949713 
L 665.509257 -268.091577 
L 663.964845 -268.172378 
L 662.420434 -260.46508 
L 660.876022 -252.840806 
L 659.331611 -260.716732 
L 657.787199 -268.598999 
L 656.242788 -269.687395 
L 654.698376 -269.78853 
L 653.153964 -269.915238 
L 651.609553 -270.110464 
L 650.065141 -268.215447 
L 648.52073 -269.664395 
L 646.976318 -269.978656 
L 645.431907 -270.271483 
L 643.887495 -262.91421 
L 642.343084 -255.707036 
L 640.798672 -264.829091 
L 639.25426 -273.059063 
L 637.709849 -273.570457 
L 636.165437 -267.451742 
L 634.621026 -264.636985 
L 633.076614 -278.259527 
L 631.532203 -285.823467 
L 629.987791 -285.621562 
L 628.44338 -285.43966 
L 626.898968 -285.213553 
L 625.354556 -285.126502 
L 623.810145 -285.091497 
L 622.265733 -285.045121 
L 620.721322 -284.994269 
L 619.17691 -282.629012 
L 617.632499 -283.76475 
L 616.088087 -283.743393 
L 614.543676 -283.717357 
L 612.999264 -283.693297 
L 611.454852 -283.681971 
L 609.910441 -283.673306 
L 608.366029 -283.343069 
L 606.821618 -283.063811 
L 605.277206 -282.812623 
L 603.732795 -277.149948 
L 602.188383 -261.855652 
L 600.643972 -254.336516 
L 599.09956 -254.637583 
L 597.555148 -256.001564 
L 596.010737 -260.943033 
L 594.466325 -269.034467 
L 592.921914 -275.587338 
L 591.377502 -277.877921 
L 589.833091 -276.419074 
L 588.288679 -273.780956 
L 586.744268 -272.534015 
L 585.199856 -272.324782 
L 583.655444 -272.174093 
L 582.111033 -272.016785 
L 580.566621 -271.877587 
L 579.02221 -271.756374 
L 577.477798 -271.640696 
L 575.933387 -271.530532 
L 574.388975 -271.422779 
L 572.844564 -271.320521 
L 571.300152 -271.242221 
L 569.75574 -271.169218 
L 568.211329 -271.095324 
L 566.666917 -271.026732 
L 565.122506 -270.960338 
L 563.578094 -270.911549 
L 562.033683 -270.874079 
L 560.489271 -270.841686 
L 558.94486 -270.808188 
L 557.400448 -270.789019 
L 555.856036 -270.780999 
L 554.311625 -270.777889 
L 552.767213 -270.782748 
L 551.222802 -270.783201 
L 549.67839 -270.797789 
L 548.133979 -270.817168 
L 546.589567 -270.850558 
L 545.045156 -270.888613 
L 543.500744 -270.934392 
L 541.956332 -270.990925 
L 540.411921 -271.048893 
L 538.867509 -271.117543 
L 537.323098 -271.196798 
L 535.778686 -271.28042 
L 534.234275 -271.374548 
L 532.689863 -271.46678 
L 531.145452 -271.56947 
L 529.60104 -271.68254 
L 528.056628 -271.808997 
L 526.512217 -271.942577 
L 524.967805 -272.070904 
L 523.423394 -272.206357 
L 521.878982 -272.361209 
L 520.334571 -272.529144 
L 518.790159 -272.703898 
L 517.245748 -272.876176 
L 515.701336 -273.049088 
L 514.156924 -273.238041 
L 512.612513 -273.445987 
L 511.068101 -273.660448 
L 509.52369 -273.869048 
L 507.979278 -274.07184 
L 506.434867 -274.29969 
L 504.890455 -274.536984 
L 503.346044 -274.78981 
L 501.801632 -275.027227 
L 500.25722 -275.264771 
L 498.712809 -275.524011 
L 497.168397 -275.801686 
L 495.623986 -276.085317 
L 494.079574 -276.362529 
L 492.535163 -276.642618 
L 490.990751 -276.92864 
L 489.44634 -277.23903 
L 487.901928 -277.561259 
L 486.357516 -277.873656 
L 484.813105 -278.185542 
L 483.268693 -278.509243 
L 481.724282 -278.850818 
L 480.17987 -279.20087 
L 478.635459 -279.550078 
L 477.091047 -279.898443 
L 475.546636 -280.252128 
L 474.002224 -280.620325 
L 472.457813 -277.360947 
z
" id="m44aabcc97b"/>
    </defs>
    <g clip-path="url(#p215d0a7cb5)">
     <use style="fill:#0000ff;fill-opacity:0.2;" x="0" xlink:href="#m44aabcc97b" y="351.59625"/>
    </g>
   </g>
   <g id="matplotlib.axis_3">
    <g id="xtick_6">
     <g id="line2d_15">
      <g>
       <use style="stroke:#000000;stroke-width:0.8;" x="524.967805" xlink:href="#m6f6715c833" y="327.718125"/>
      </g>
     </g>
     <g id="text_14">
      <!-- 1800 -->
      <g transform="translate(512.242805 342.316562)scale(0.1 -0.1)">
       <use xlink:href="#DejaVuSans-49"/>
       <use x="63.623047" xlink:href="#DejaVuSans-56"/>
       <use x="127.246094" xlink:href="#DejaVuSans-48"/>
       <use x="190.869141" xlink:href="#DejaVuSans-48"/>
      </g>
     </g>
    </g>
    <g id="xtick_7">
     <g id="line2d_16">
      <g>
       <use style="stroke:#000000;stroke-width:0.8;" x="602.188383" xlink:href="#m6f6715c833" y="327.718125"/>
      </g>
     </g>
     <g id="text_15">
      <!-- 1850 -->
      <g transform="translate(589.463383 342.316562)scale(0.1 -0.1)">
       <use xlink:href="#DejaVuSans-49"/>
       <use x="63.623047" xlink:href="#DejaVuSans-56"/>
       <use x="127.246094" xlink:href="#DejaVuSans-53"/>
       <use x="190.869141" xlink:href="#DejaVuSans-48"/>
      </g>
     </g>
    </g>
    <g id="xtick_8">
     <g id="line2d_17">
      <g>
       <use style="stroke:#000000;stroke-width:0.8;" x="679.408961" xlink:href="#m6f6715c833" y="327.718125"/>
      </g>
     </g>
     <g id="text_16">
      <!-- 1900 -->
      <g transform="translate(666.683961 342.316562)scale(0.1 -0.1)">
       <use xlink:href="#DejaVuSans-49"/>
       <use x="63.623047" xlink:href="#DejaVuSans-57"/>
       <use x="127.246094" xlink:href="#DejaVuSans-48"/>
       <use x="190.869141" xlink:href="#DejaVuSans-48"/>
      </g>
     </g>
    </g>
    <g id="xtick_9">
     <g id="line2d_18">
      <g>
       <use style="stroke:#000000;stroke-width:0.8;" x="756.629539" xlink:href="#m6f6715c833" y="327.718125"/>
      </g>
     </g>
     <g id="text_17">
      <!-- 1950 -->
      <g transform="translate(743.904539 342.316562)scale(0.1 -0.1)">
       <use xlink:href="#DejaVuSans-49"/>
       <use x="63.623047" xlink:href="#DejaVuSans-57"/>
       <use x="127.246094" xlink:href="#DejaVuSans-53"/>
       <use x="190.869141" xlink:href="#DejaVuSans-48"/>
      </g>
     </g>
    </g>
    <g id="xtick_10">
     <g id="line2d_19">
      <g>
       <use style="stroke:#000000;stroke-width:0.8;" x="833.850116" xlink:href="#m6f6715c833" y="327.718125"/>
      </g>
     </g>
     <g id="text_18">
      <!-- 2000 -->
      <g transform="translate(821.125116 342.316562)scale(0.1 -0.1)">
       <use xlink:href="#DejaVuSans-50"/>
       <use x="63.623047" xlink:href="#DejaVuSans-48"/>
       <use x="127.246094" xlink:href="#DejaVuSans-48"/>
       <use x="190.869141" xlink:href="#DejaVuSans-48"/>
      </g>
     </g>
    </g>
   </g>
   <g id="matplotlib.axis_4">
    <g id="ytick_6">
     <g id="line2d_20">
      <g>
       <use style="stroke:#000000;stroke-width:0.8;" x="472.457813" xlink:href="#mcedecb8845" y="268.458249"/>
      </g>
     </g>
     <g id="text_19">
      <!-- −3 -->
      <defs>
       <path d="M 40.578125 39.3125 
Q 47.65625 37.796875 51.625 33 
Q 55.609375 28.21875 55.609375 21.1875 
Q 55.609375 10.40625 48.1875 4.484375 
Q 40.765625 -1.421875 27.09375 -1.421875 
Q 22.515625 -1.421875 17.65625 -0.515625 
Q 12.796875 0.390625 7.625 2.203125 
L 7.625 11.71875 
Q 11.71875 9.328125 16.59375 8.109375 
Q 21.484375 6.890625 26.8125 6.890625 
Q 36.078125 6.890625 40.9375 10.546875 
Q 45.796875 14.203125 45.796875 21.1875 
Q 45.796875 27.640625 41.28125 31.265625 
Q 36.765625 34.90625 28.71875 34.90625 
L 20.21875 34.90625 
L 20.21875 43.015625 
L 29.109375 43.015625 
Q 36.375 43.015625 40.234375 45.921875 
Q 44.09375 48.828125 44.09375 54.296875 
Q 44.09375 59.90625 40.109375 62.90625 
Q 36.140625 65.921875 28.71875 65.921875 
Q 24.65625 65.921875 20.015625 65.03125 
Q 15.375 64.15625 9.8125 62.3125 
L 9.8125 71.09375 
Q 15.4375 72.65625 20.34375 73.4375 
Q 25.25 74.21875 29.59375 74.21875 
Q 40.828125 74.21875 47.359375 69.109375 
Q 53.90625 64.015625 53.90625 55.328125 
Q 53.90625 49.265625 50.4375 45.09375 
Q 46.96875 40.921875 40.578125 39.3125 
z
" id="DejaVuSans-51"/>
      </defs>
      <g transform="translate(450.715625 272.257468)scale(0.1 -0.1)">
       <use xlink:href="#DejaVuSans-8722"/>
       <use x="83.789062" xlink:href="#DejaVuSans-51"/>
      </g>
     </g>
    </g>
    <g id="ytick_7">
     <g id="line2d_21">
      <g>
       <use style="stroke:#000000;stroke-width:0.8;" x="472.457813" xlink:href="#mcedecb8845" y="206.27375"/>
      </g>
     </g>
     <g id="text_20">
      <!-- −2 -->
      <g transform="translate(450.715625 210.072969)scale(0.1 -0.1)">
       <use xlink:href="#DejaVuSans-8722"/>
       <use x="83.789062" xlink:href="#DejaVuSans-50"/>
      </g>
     </g>
    </g>
    <g id="ytick_8">
     <g id="line2d_22">
      <g>
       <use style="stroke:#000000;stroke-width:0.8;" x="472.457813" xlink:href="#mcedecb8845" y="144.089251"/>
      </g>
     </g>
     <g id="text_21">
      <!-- −1 -->
      <g transform="translate(450.715625 147.888469)scale(0.1 -0.1)">
       <use xlink:href="#DejaVuSans-8722"/>
       <use x="83.789062" xlink:href="#DejaVuSans-49"/>
      </g>
     </g>
    </g>
    <g id="ytick_9">
     <g id="line2d_23">
      <g>
       <use style="stroke:#000000;stroke-width:0.8;" x="472.457813" xlink:href="#mcedecb8845" y="81.904751"/>
      </g>
     </g>
     <g id="text_22">
      <!-- 0 -->
      <g transform="translate(459.095313 85.70397)scale(0.1 -0.1)">
       <use xlink:href="#DejaVuSans-48"/>
      </g>
     </g>
    </g>
    <g id="text_23">
     <!-- Emissions (MtN2O-N2) -->
     <defs>
      <path d="M 9.8125 72.90625 
L 23.09375 72.90625 
L 55.421875 11.921875 
L 55.421875 72.90625 
L 64.984375 72.90625 
L 64.984375 0 
L 51.703125 0 
L 19.390625 60.984375 
L 19.390625 0 
L 9.8125 0 
z
" id="DejaVuSans-78"/>
      <path d="M 39.40625 66.21875 
Q 28.65625 66.21875 22.328125 58.203125 
Q 16.015625 50.203125 16.015625 36.375 
Q 16.015625 22.609375 22.328125 14.59375 
Q 28.65625 6.59375 39.40625 6.59375 
Q 50.140625 6.59375 56.421875 14.59375 
Q 62.703125 22.609375 62.703125 36.375 
Q 62.703125 50.203125 56.421875 58.203125 
Q 50.140625 66.21875 39.40625 66.21875 
z
M 39.40625 74.21875 
Q 54.734375 74.21875 63.90625 63.9375 
Q 73.09375 53.65625 73.09375 36.375 
Q 73.09375 19.140625 63.90625 8.859375 
Q 54.734375 -1.421875 39.40625 -1.421875 
Q 24.03125 -1.421875 14.8125 8.828125 
Q 5.609375 19.09375 5.609375 36.375 
Q 5.609375 53.65625 14.8125 63.9375 
Q 24.03125 74.21875 39.40625 74.21875 
z
" id="DejaVuSans-79"/>
      <path d="M 4.890625 31.390625 
L 31.203125 31.390625 
L 31.203125 23.390625 
L 4.890625 23.390625 
z
" id="DejaVuSans-45"/>
     </defs>
     <g transform="translate(444.635938 231.218125)rotate(-90)scale(0.1 -0.1)">
      <use xlink:href="#DejaVuSans-69"/>
      <use x="63.183594" xlink:href="#DejaVuSans-109"/>
      <use x="160.595703" xlink:href="#DejaVuSans-105"/>
      <use x="188.378906" xlink:href="#DejaVuSans-115"/>
      <use x="240.478516" xlink:href="#DejaVuSans-115"/>
      <use x="292.578125" xlink:href="#DejaVuSans-105"/>
      <use x="320.361328" xlink:href="#DejaVuSans-111"/>
      <use x="381.542969" xlink:href="#DejaVuSans-110"/>
      <use x="444.921875" xlink:href="#DejaVuSans-115"/>
      <use x="497.021484" xlink:href="#DejaVuSans-32"/>
      <use x="528.808594" xlink:href="#DejaVuSans-40"/>
      <use x="567.822266" xlink:href="#DejaVuSans-77"/>
      <use x="654.101562" xlink:href="#DejaVuSans-116"/>
      <use x="693.310547" xlink:href="#DejaVuSans-78"/>
      <use x="768.115234" xlink:href="#DejaVuSans-50"/>
      <use x="831.738281" xlink:href="#DejaVuSans-79"/>
      <use x="910.480469" xlink:href="#DejaVuSans-45"/>
      <use x="946.564453" xlink:href="#DejaVuSans-78"/>
      <use x="1021.369141" xlink:href="#DejaVuSans-50"/>
      <use x="1084.992188" xlink:href="#DejaVuSans-41"/>
     </g>
    </g>
   </g>
   <g id="line2d_24">
    <path clip-path="url(#p215d0a7cb5)" d="M 472.457813 74.235021 
L 474.002224 70.975638 
L 483.268693 73.086675 
L 492.535163 74.953255 
L 503.346044 76.806009 
L 509.52369 77.726738 
L 518.790159 78.891836 
L 524.967805 79.52479 
L 535.778686 80.315205 
L 545.045156 80.706945 
L 552.767213 80.812743 
L 560.489271 80.753726 
L 568.211329 80.499977 
L 577.477798 79.954437 
L 585.199856 79.270181 
L 586.744268 79.06091 
L 588.288679 77.813929 
L 589.833091 75.175766 
L 591.377502 73.716867 
L 592.921914 76.007395 
L 594.466325 82.560219 
L 596.010737 90.651622 
L 597.555148 95.59308 
L 599.09956 96.957059 
L 600.643972 97.258127 
L 602.188383 89.738986 
L 603.732795 74.44466 
L 605.277206 68.781918 
L 609.910441 67.920971 
L 617.632499 67.829047 
L 619.17691 68.964682 
L 620.721322 66.599321 
L 626.898968 66.379602 
L 631.532203 65.769351 
L 633.076614 73.333181 
L 634.621026 86.955643 
L 636.165437 84.140819 
L 637.709849 78.022006 
L 639.25426 78.533277 
L 640.798672 86.763134 
L 642.343084 95.885102 
L 645.431907 81.32048 
L 648.52073 81.927306 
L 650.065141 83.376111 
L 651.609553 81.480913 
L 654.698376 81.802526 
L 656.242788 81.90351 
L 657.787199 82.991754 
L 660.876022 98.749692 
L 663.964845 83.417856 
L 667.053668 83.640096 
L 670.142492 99.687753 
L 673.231315 100.577758 
L 674.775726 93.301696 
L 676.320138 93.746858 
L 677.864549 101.968512 
L 680.953372 87.513013 
L 682.497784 88.203397 
L 685.586607 90.005178 
L 688.67543 92.131139 
L 691.764253 78.683491 
L 694.853076 80.301126 
L 696.397488 81.019368 
L 697.9419 74.019327 
L 699.486311 74.759322 
L 701.030723 83.287199 
L 707.208369 55.062869 
L 708.75278 63.30919 
L 710.297192 63.802748 
L 711.841604 56.515941 
L 714.930427 73.005663 
L 718.01925 74.391582 
L 719.563661 67.429745 
L 721.108073 68.197581 
L 722.652484 84.491267 
L 725.741308 86.095426 
L 727.285719 94.512009 
L 730.374542 80.002763 
L 735.007777 80.700024 
L 738.0966 96.928894 
L 739.641012 97.574289 
L 741.185423 98.421374 
L 742.729835 93.247471 
L 744.274246 90.849767 
L 745.818658 98.370957 
L 747.363069 100.252783 
L 748.907481 103.947689 
L 753.540716 140.726312 
L 755.085127 150.95396 
L 756.629539 166.486396 
L 758.17395 180.212656 
L 759.718362 177.677883 
L 761.262773 174.152316 
L 762.807185 185.35135 
L 764.351596 188.48301 
L 765.896008 183.648482 
L 767.44042 194.251915 
L 768.984831 197.287098 
L 770.529243 185.088212 
L 772.073654 180.994821 
L 773.618066 194.538101 
L 775.162477 211.517941 
L 776.706889 208.059581 
L 778.2513 199.470325 
L 779.795712 206.854795 
L 781.340124 224.39274 
L 782.884535 239.637781 
L 784.428947 240.919669 
L 785.973358 234.544124 
L 787.51777 234.994754 
L 789.062181 213.053868 
L 790.606593 223.457482 
L 792.151004 214.43803 
L 793.695416 198.686174 
L 795.239828 209.582382 
L 796.784239 202.63717 
L 798.328651 196.611574 
L 799.873062 196.159684 
L 801.417474 238.623124 
L 802.961885 244.902208 
L 804.506297 168.979206 
L 806.050708 171.603799 
L 807.59512 228.220462 
L 809.139532 251.608586 
L 810.683943 217.825593 
L 812.228355 220.90643 
L 813.772766 304.028575 
L 815.317178 149.142907 
L 816.861589 36.626973 
L 818.406001 153.113339 
L 819.950412 247.901915 
L 821.494824 313.641074 
L 823.039236 286.806867 
L 824.583647 282.101712 
L 826.128059 235.635351 
L 827.67247 217.226864 
L 829.216882 243.706028 
L 830.761293 222.322145 
L 832.305705 212.123739 
L 833.850116 247.012908 
L 835.394528 234.360688 
L 836.93894 198.243099 
L 838.483351 194.421909 
L 840.027763 220.059531 
L 841.572174 209.367263 
L 843.116586 204.068205 
L 844.660997 227.766864 
L 849.294232 227.458426 
L 849.294232 227.458426 
" style="fill:none;stroke:#0000ff;stroke-linecap:square;stroke-width:1.5;"/>
   </g>
   <g id="patch_8">
    <path d="M 472.457813 327.718125 
L 472.457813 22.318125 
" style="fill:none;stroke:#000000;stroke-linecap:square;stroke-linejoin:miter;stroke-width:0.8;"/>
   </g>
   <g id="patch_9">
    <path d="M 849.294232 327.718125 
L 849.294232 22.318125 
" style="fill:none;stroke:#000000;stroke-linecap:square;stroke-linejoin:miter;stroke-width:0.8;"/>
   </g>
   <g id="patch_10">
    <path d="M 472.457813 327.718125 
L 849.294232 327.718125 
" style="fill:none;stroke:#000000;stroke-linecap:square;stroke-linejoin:miter;stroke-width:0.8;"/>
   </g>
   <g id="patch_11">
    <path d="M 472.457813 22.318125 
L 849.294232 22.318125 
" style="fill:none;stroke:#000000;stroke-linecap:square;stroke-linejoin:miter;stroke-width:0.8;"/>
   </g>
   <g id="text_24">
    <!-- N2O -->
    <g transform="translate(647.846647 16.318125)scale(0.12 -0.12)">
     <use xlink:href="#DejaVuSans-78"/>
     <use x="74.804688" xlink:href="#DejaVuSans-50"/>
     <use x="138.427734" xlink:href="#DejaVuSans-79"/>
    </g>
   </g>
  </g>
 </g>
 <defs>
  <clipPath id="pfe19118837">
   <rect height="305.4" width="376.83642" x="48.982813" y="22.318125"/>
  </clipPath>
  <clipPath id="p215d0a7cb5">
   <rect height="305.4" width="376.83642" x="472.457813" y="22.318125"/>
  </clipPath>
 </defs>
</svg>
