<?xml version="1.0" encoding="utf-8" standalone="no"?>
<!DOCTYPE svg PUBLIC "-//W3C//DTD SVG 1.1//EN"
  "http://www.w3.org/Graphics/SVG/1.1/DTD/svg11.dtd">
<!-- Created with matplotlib (https://matplotlib.org/) -->
<svg height="351.59625pt" version="1.1" viewBox="0 0 1144.9375 351.59625" width="1144.9375pt" xmlns="http://www.w3.org/2000/svg" xmlns:xlink="http://www.w3.org/1999/xlink">
 <defs>
  <style type="text/css">
*{stroke-linecap:butt;stroke-linejoin:round;}
  </style>
 </defs>
 <g id="figure_1">
  <g id="patch_1">
   <path d="M 0 351.59625 
L 1144.9375 351.59625 
L 1144.9375 0 
L 0 0 
z
" style="fill:#ffffff;"/>
  </g>
  <g id="axes_1">
   <g id="patch_2">
    <path d="M 26.925 327.718125 
L 361.9625 327.718125 
L 361.9625 22.318125 
L 26.925 22.318125 
z
" style="fill:#ffffff;"/>
   </g>
   <g id="matplotlib.axis_1">
    <g id="xtick_1">
     <g id="line2d_1">
      <defs>
       <path d="M 0 0 
L 0 3.5 
" id="m05ee42bd6a" style="stroke:#000000;stroke-width:0.8;"/>
      </defs>
      <g>
       <use style="stroke:#000000;stroke-width:0.8;" x="26.925" xlink:href="#m05ee42bd6a" y="327.718125"/>
      </g>
     </g>
     <g id="text_1">
      <!-- 1900 -->
      <defs>
       <path d="M 12.40625 8.296875 
L 28.515625 8.296875 
L 28.515625 63.921875 
L 10.984375 60.40625 
L 10.984375 69.390625 
L 28.421875 72.90625 
L 38.28125 72.90625 
L 38.28125 8.296875 
L 54.390625 8.296875 
L 54.390625 0 
L 12.40625 0 
z
" id="DejaVuSans-49"/>
       <path d="M 10.984375 1.515625 
L 10.984375 10.5 
Q 14.703125 8.734375 18.5 7.8125 
Q 22.3125 6.890625 25.984375 6.890625 
Q 35.75 6.890625 40.890625 13.453125 
Q 46.046875 20.015625 46.78125 33.40625 
Q 43.953125 29.203125 39.59375 26.953125 
Q 35.25 24.703125 29.984375 24.703125 
Q 19.046875 24.703125 12.671875 31.3125 
Q 6.296875 37.9375 6.296875 49.421875 
Q 6.296875 60.640625 12.9375 67.421875 
Q 19.578125 74.21875 30.609375 74.21875 
Q 43.265625 74.21875 49.921875 64.515625 
Q 56.59375 54.828125 56.59375 36.375 
Q 56.59375 19.140625 48.40625 8.859375 
Q 40.234375 -1.421875 26.421875 -1.421875 
Q 22.703125 -1.421875 18.890625 -0.6875 
Q 15.09375 0.046875 10.984375 1.515625 
z
M 30.609375 32.421875 
Q 37.25 32.421875 41.125 36.953125 
Q 45.015625 41.5 45.015625 49.421875 
Q 45.015625 57.28125 41.125 61.84375 
Q 37.25 66.40625 30.609375 66.40625 
Q 23.96875 66.40625 20.09375 61.84375 
Q 16.21875 57.28125 16.21875 49.421875 
Q 16.21875 41.5 20.09375 36.953125 
Q 23.96875 32.421875 30.609375 32.421875 
z
" id="DejaVuSans-57"/>
       <path d="M 31.78125 66.40625 
Q 24.171875 66.40625 20.328125 58.90625 
Q 16.5 51.421875 16.5 36.375 
Q 16.5 21.390625 20.328125 13.890625 
Q 24.171875 6.390625 31.78125 6.390625 
Q 39.453125 6.390625 43.28125 13.890625 
Q 47.125 21.390625 47.125 36.375 
Q 47.125 51.421875 43.28125 58.90625 
Q 39.453125 66.40625 31.78125 66.40625 
z
M 31.78125 74.21875 
Q 44.046875 74.21875 50.515625 64.515625 
Q 56.984375 54.828125 56.984375 36.375 
Q 56.984375 17.96875 50.515625 8.265625 
Q 44.046875 -1.421875 31.78125 -1.421875 
Q 19.53125 -1.421875 13.0625 8.265625 
Q 6.59375 17.96875 6.59375 36.375 
Q 6.59375 54.828125 13.0625 64.515625 
Q 19.53125 74.21875 31.78125 74.21875 
z
" id="DejaVuSans-48"/>
      </defs>
      <g transform="translate(14.2 342.316562)scale(0.1 -0.1)">
       <use xlink:href="#DejaVuSans-49"/>
       <use x="63.623047" xlink:href="#DejaVuSans-57"/>
       <use x="127.246094" xlink:href="#DejaVuSans-48"/>
       <use x="190.869141" xlink:href="#DejaVuSans-48"/>
      </g>
     </g>
    </g>
    <g id="xtick_2">
     <g id="line2d_2">
      <g>
       <use style="stroke:#000000;stroke-width:0.8;" x="93.9325" xlink:href="#m05ee42bd6a" y="327.718125"/>
      </g>
     </g>
     <g id="text_2">
      <!-- 1950 -->
      <defs>
       <path d="M 10.796875 72.90625 
L 49.515625 72.90625 
L 49.515625 64.59375 
L 19.828125 64.59375 
L 19.828125 46.734375 
Q 21.96875 47.46875 24.109375 47.828125 
Q 26.265625 48.1875 28.421875 48.1875 
Q 40.625 48.1875 47.75 41.5 
Q 54.890625 34.8125 54.890625 23.390625 
Q 54.890625 11.625 47.5625 5.09375 
Q 40.234375 -1.421875 26.90625 -1.421875 
Q 22.3125 -1.421875 17.546875 -0.640625 
Q 12.796875 0.140625 7.71875 1.703125 
L 7.71875 11.625 
Q 12.109375 9.234375 16.796875 8.0625 
Q 21.484375 6.890625 26.703125 6.890625 
Q 35.15625 6.890625 40.078125 11.328125 
Q 45.015625 15.765625 45.015625 23.390625 
Q 45.015625 31 40.078125 35.4375 
Q 35.15625 39.890625 26.703125 39.890625 
Q 22.75 39.890625 18.8125 39.015625 
Q 14.890625 38.140625 10.796875 36.28125 
z
" id="DejaVuSans-53"/>
      </defs>
      <g transform="translate(81.2075 342.316562)scale(0.1 -0.1)">
       <use xlink:href="#DejaVuSans-49"/>
       <use x="63.623047" xlink:href="#DejaVuSans-57"/>
       <use x="127.246094" xlink:href="#DejaVuSans-53"/>
       <use x="190.869141" xlink:href="#DejaVuSans-48"/>
      </g>
     </g>
    </g>
    <g id="xtick_3">
     <g id="line2d_3">
      <g>
       <use style="stroke:#000000;stroke-width:0.8;" x="160.94" xlink:href="#m05ee42bd6a" y="327.718125"/>
      </g>
     </g>
     <g id="text_3">
      <!-- 2000 -->
      <defs>
       <path d="M 19.1875 8.296875 
L 53.609375 8.296875 
L 53.609375 0 
L 7.328125 0 
L 7.328125 8.296875 
Q 12.9375 14.109375 22.625 23.890625 
Q 32.328125 33.6875 34.8125 36.53125 
Q 39.546875 41.84375 41.421875 45.53125 
Q 43.3125 49.21875 43.3125 52.78125 
Q 43.3125 58.59375 39.234375 62.25 
Q 35.15625 65.921875 28.609375 65.921875 
Q 23.96875 65.921875 18.8125 64.3125 
Q 13.671875 62.703125 7.8125 59.421875 
L 7.8125 69.390625 
Q 13.765625 71.78125 18.9375 73 
Q 24.125 74.21875 28.421875 74.21875 
Q 39.75 74.21875 46.484375 68.546875 
Q 53.21875 62.890625 53.21875 53.421875 
Q 53.21875 48.921875 51.53125 44.890625 
Q 49.859375 40.875 45.40625 35.40625 
Q 44.1875 33.984375 37.640625 27.21875 
Q 31.109375 20.453125 19.1875 8.296875 
z
" id="DejaVuSans-50"/>
      </defs>
      <g transform="translate(148.215 342.316562)scale(0.1 -0.1)">
       <use xlink:href="#DejaVuSans-50"/>
       <use x="63.623047" xlink:href="#DejaVuSans-48"/>
       <use x="127.246094" xlink:href="#DejaVuSans-48"/>
       <use x="190.869141" xlink:href="#DejaVuSans-48"/>
      </g>
     </g>
    </g>
    <g id="xtick_4">
     <g id="line2d_4">
      <g>
       <use style="stroke:#000000;stroke-width:0.8;" x="227.9475" xlink:href="#m05ee42bd6a" y="327.718125"/>
      </g>
     </g>
     <g id="text_4">
      <!-- 2050 -->
      <g transform="translate(215.2225 342.316562)scale(0.1 -0.1)">
       <use xlink:href="#DejaVuSans-50"/>
       <use x="63.623047" xlink:href="#DejaVuSans-48"/>
       <use x="127.246094" xlink:href="#DejaVuSans-53"/>
       <use x="190.869141" xlink:href="#DejaVuSans-48"/>
      </g>
     </g>
    </g>
    <g id="xtick_5">
     <g id="line2d_5">
      <g>
       <use style="stroke:#000000;stroke-width:0.8;" x="294.955" xlink:href="#m05ee42bd6a" y="327.718125"/>
      </g>
     </g>
     <g id="text_5">
      <!-- 2100 -->
      <g transform="translate(282.23 342.316562)scale(0.1 -0.1)">
       <use xlink:href="#DejaVuSans-50"/>
       <use x="63.623047" xlink:href="#DejaVuSans-49"/>
       <use x="127.246094" xlink:href="#DejaVuSans-48"/>
       <use x="190.869141" xlink:href="#DejaVuSans-48"/>
      </g>
     </g>
    </g>
    <g id="xtick_6">
     <g id="line2d_6">
      <g>
       <use style="stroke:#000000;stroke-width:0.8;" x="361.9625" xlink:href="#m05ee42bd6a" y="327.718125"/>
      </g>
     </g>
     <g id="text_6">
      <!-- 2150 -->
      <g transform="translate(349.2375 342.316562)scale(0.1 -0.1)">
       <use xlink:href="#DejaVuSans-50"/>
       <use x="63.623047" xlink:href="#DejaVuSans-49"/>
       <use x="127.246094" xlink:href="#DejaVuSans-53"/>
       <use x="190.869141" xlink:href="#DejaVuSans-48"/>
      </g>
     </g>
    </g>
   </g>
   <g id="matplotlib.axis_2">
    <g id="ytick_1">
     <g id="line2d_7">
      <defs>
       <path d="M 0 0 
L -3.5 0 
" id="m030c0e4df4" style="stroke:#000000;stroke-width:0.8;"/>
      </defs>
      <g>
       <use style="stroke:#000000;stroke-width:0.8;" x="26.925" xlink:href="#m030c0e4df4" y="313.836307"/>
      </g>
     </g>
     <g id="text_7">
      <!-- 0 -->
      <g transform="translate(13.5625 317.635526)scale(0.1 -0.1)">
       <use xlink:href="#DejaVuSans-48"/>
      </g>
     </g>
    </g>
    <g id="ytick_2">
     <g id="line2d_8">
      <g>
       <use style="stroke:#000000;stroke-width:0.8;" x="26.925" xlink:href="#m030c0e4df4" y="256.914945"/>
      </g>
     </g>
     <g id="text_8">
      <!-- 2 -->
      <g transform="translate(13.5625 260.714164)scale(0.1 -0.1)">
       <use xlink:href="#DejaVuSans-50"/>
      </g>
     </g>
    </g>
    <g id="ytick_3">
     <g id="line2d_9">
      <g>
       <use style="stroke:#000000;stroke-width:0.8;" x="26.925" xlink:href="#m030c0e4df4" y="199.993584"/>
      </g>
     </g>
     <g id="text_9">
      <!-- 4 -->
      <defs>
       <path d="M 37.796875 64.3125 
L 12.890625 25.390625 
L 37.796875 25.390625 
z
M 35.203125 72.90625 
L 47.609375 72.90625 
L 47.609375 25.390625 
L 58.015625 25.390625 
L 58.015625 17.1875 
L 47.609375 17.1875 
L 47.609375 0 
L 37.796875 0 
L 37.796875 17.1875 
L 4.890625 17.1875 
L 4.890625 26.703125 
z
" id="DejaVuSans-52"/>
      </defs>
      <g transform="translate(13.5625 203.792803)scale(0.1 -0.1)">
       <use xlink:href="#DejaVuSans-52"/>
      </g>
     </g>
    </g>
    <g id="ytick_4">
     <g id="line2d_10">
      <g>
       <use style="stroke:#000000;stroke-width:0.8;" x="26.925" xlink:href="#m030c0e4df4" y="143.072223"/>
      </g>
     </g>
     <g id="text_10">
      <!-- 6 -->
      <defs>
       <path d="M 33.015625 40.375 
Q 26.375 40.375 22.484375 35.828125 
Q 18.609375 31.296875 18.609375 23.390625 
Q 18.609375 15.53125 22.484375 10.953125 
Q 26.375 6.390625 33.015625 6.390625 
Q 39.65625 6.390625 43.53125 10.953125 
Q 47.40625 15.53125 47.40625 23.390625 
Q 47.40625 31.296875 43.53125 35.828125 
Q 39.65625 40.375 33.015625 40.375 
z
M 52.59375 71.296875 
L 52.59375 62.3125 
Q 48.875 64.0625 45.09375 64.984375 
Q 41.3125 65.921875 37.59375 65.921875 
Q 27.828125 65.921875 22.671875 59.328125 
Q 17.53125 52.734375 16.796875 39.40625 
Q 19.671875 43.65625 24.015625 45.921875 
Q 28.375 48.1875 33.59375 48.1875 
Q 44.578125 48.1875 50.953125 41.515625 
Q 57.328125 34.859375 57.328125 23.390625 
Q 57.328125 12.15625 50.6875 5.359375 
Q 44.046875 -1.421875 33.015625 -1.421875 
Q 20.359375 -1.421875 13.671875 8.265625 
Q 6.984375 17.96875 6.984375 36.375 
Q 6.984375 53.65625 15.1875 63.9375 
Q 23.390625 74.21875 37.203125 74.21875 
Q 40.921875 74.21875 44.703125 73.484375 
Q 48.484375 72.75 52.59375 71.296875 
z
" id="DejaVuSans-54"/>
      </defs>
      <g transform="translate(13.5625 146.871441)scale(0.1 -0.1)">
       <use xlink:href="#DejaVuSans-54"/>
      </g>
     </g>
    </g>
    <g id="ytick_5">
     <g id="line2d_11">
      <g>
       <use style="stroke:#000000;stroke-width:0.8;" x="26.925" xlink:href="#m030c0e4df4" y="86.150861"/>
      </g>
     </g>
     <g id="text_11">
      <!-- 8 -->
      <defs>
       <path d="M 31.78125 34.625 
Q 24.75 34.625 20.71875 30.859375 
Q 16.703125 27.09375 16.703125 20.515625 
Q 16.703125 13.921875 20.71875 10.15625 
Q 24.75 6.390625 31.78125 6.390625 
Q 38.8125 6.390625 42.859375 10.171875 
Q 46.921875 13.96875 46.921875 20.515625 
Q 46.921875 27.09375 42.890625 30.859375 
Q 38.875 34.625 31.78125 34.625 
z
M 21.921875 38.8125 
Q 15.578125 40.375 12.03125 44.71875 
Q 8.5 49.078125 8.5 55.328125 
Q 8.5 64.0625 14.71875 69.140625 
Q 20.953125 74.21875 31.78125 74.21875 
Q 42.671875 74.21875 48.875 69.140625 
Q 55.078125 64.0625 55.078125 55.328125 
Q 55.078125 49.078125 51.53125 44.71875 
Q 48 40.375 41.703125 38.8125 
Q 48.828125 37.15625 52.796875 32.3125 
Q 56.78125 27.484375 56.78125 20.515625 
Q 56.78125 9.90625 50.3125 4.234375 
Q 43.84375 -1.421875 31.78125 -1.421875 
Q 19.734375 -1.421875 13.25 4.234375 
Q 6.78125 9.90625 6.78125 20.515625 
Q 6.78125 27.484375 10.78125 32.3125 
Q 14.796875 37.15625 21.921875 38.8125 
z
M 18.3125 54.390625 
Q 18.3125 48.734375 21.84375 45.5625 
Q 25.390625 42.390625 31.78125 42.390625 
Q 38.140625 42.390625 41.71875 45.5625 
Q 45.3125 48.734375 45.3125 54.390625 
Q 45.3125 60.0625 41.71875 63.234375 
Q 38.140625 66.40625 31.78125 66.40625 
Q 25.390625 66.40625 21.84375 63.234375 
Q 18.3125 60.0625 18.3125 54.390625 
z
" id="DejaVuSans-56"/>
      </defs>
      <g transform="translate(13.5625 89.95008)scale(0.1 -0.1)">
       <use xlink:href="#DejaVuSans-56"/>
      </g>
     </g>
    </g>
    <g id="ytick_6">
     <g id="line2d_12">
      <g>
       <use style="stroke:#000000;stroke-width:0.8;" x="26.925" xlink:href="#m030c0e4df4" y="29.2295"/>
      </g>
     </g>
     <g id="text_12">
      <!-- 10 -->
      <g transform="translate(7.2 33.028718)scale(0.1 -0.1)">
       <use xlink:href="#DejaVuSans-49"/>
       <use x="63.623047" xlink:href="#DejaVuSans-48"/>
      </g>
     </g>
    </g>
   </g>
   <g id="line2d_13">
    <path clip-path="url(#p65128187ba)" d="M 26.925 304.460435 
L 33.62575 303.528613 
L 40.3265 302.475476 
L 47.02725 301.617625 
L 59.0886 300.05217 
L 75.1704 297.46721 
L 79.19085 297.197428 
L 83.2113 297.197428 
L 88.5719 297.283221 
L 92.59235 297.099434 
L 95.27265 296.805796 
L 99.2931 296.15917 
L 105.99385 294.668085 
L 111.35445 293.275131 
L 114.03475 292.67776 
L 119.39535 290.660105 
L 123.4158 289.140997 
L 124.75595 288.42434 
L 128.7764 287.002405 
L 132.79685 284.81314 
L 134.137 283.979732 
L 135.47715 283.361303 
L 136.8173 282.881232 
L 140.83775 280.872054 
L 142.1779 280.199443 
L 146.19835 277.696705 
L 148.87865 276.595558 
L 151.55895 275.833699 
L 152.8991 275.251606 
L 156.91955 273.101053 
L 159.59985 271.328017 
L 162.28015 270.020285 
L 178.36195 259.627365 
L 189.08315 252.607094 
L 193.1036 250.250692 
L 197.12405 248.212601 
L 201.1445 246.492769 
L 203.8248 245.526436 
L 207.84525 244.370707 
L 211.8657 243.495044 
L 215.88615 242.922544 
L 221.24675 242.490663 
L 227.9475 242.192298 
L 233.3081 242.205788 
L 241.349 242.55913 
L 246.7096 243.003565 
L 252.0702 243.680915 
L 261.45125 245.105981 
L 280.21335 248.03962 
L 289.5944 249.384408 
L 304.33605 251.330742 
L 348.561 256.978604 
L 361.9625 258.441902 
L 361.9625 258.441902 
" style="fill:none;stroke:#0000ff;stroke-linecap:square;stroke-width:1.5;"/>
   </g>
   <g id="line2d_14">
    <path clip-path="url(#p65128187ba)" d="M 26.925 303.841292 
L 33.62575 302.904354 
L 40.3265 301.845985 
L 47.02725 300.984328 
L 59.0886 299.413052 
L 75.1704 296.82149 
L 79.19085 296.551228 
L 83.2113 296.551228 
L 88.5719 296.637162 
L 92.59235 296.453081 
L 95.27265 296.159025 
L 99.2931 295.511633 
L 105.99385 294.019685 
L 111.35445 292.627027 
L 114.03475 292.030258 
L 119.39535 290.016005 
L 123.4158 288.50114 
L 124.75595 287.786721 
L 128.7764 286.370449 
L 132.79685 284.192615 
L 134.137 283.36417 
L 135.47715 282.749363 
L 136.8173 282.272649 
L 140.83775 280.278853 
L 142.1779 279.611977 
L 146.19835 277.132815 
L 148.87865 276.043184 
L 151.55895 275.289872 
L 152.8991 274.714773 
L 156.91955 272.591296 
L 159.59985 270.842581 
L 162.28015 269.554308 
L 179.7021 258.482927 
L 189.08315 252.51041 
L 193.1036 250.220219 
L 197.12405 248.242671 
L 201.1445 246.576299 
L 203.8248 245.640958 
L 207.84525 244.523211 
L 211.8657 243.676998 
L 215.88615 243.124061 
L 221.24675 242.707109 
L 227.9475 242.419147 
L 233.3081 242.432165 
L 241.349 242.7732 
L 246.7096 243.202293 
L 253.41035 244.038528 
L 262.7914 245.444426 
L 273.5126 247.061012 
L 294.955 250.113341 
L 313.7171 252.473363 
L 325.77845 254.025648 
L 344.54055 256.329817 
L 361.9625 258.19748 
L 361.9625 258.19748 
" style="fill:none;stroke:#0000ff;stroke-dasharray:1.5,2.475;stroke-dashoffset:0;stroke-width:1.5;"/>
   </g>
   <g id="line2d_15">
    <path clip-path="url(#p65128187ba)" d="M 26.925 304.460435 
L 33.62575 303.528613 
L 40.3265 302.475476 
L 47.02725 301.617625 
L 59.0886 300.05217 
L 75.1704 297.46721 
L 79.19085 297.197428 
L 83.2113 297.197428 
L 88.5719 297.283221 
L 92.59235 297.099434 
L 95.27265 296.805796 
L 99.2931 296.15917 
L 105.99385 294.668085 
L 111.35445 293.275131 
L 114.03475 292.67776 
L 119.39535 290.660105 
L 123.4158 289.140997 
L 124.75595 288.42434 
L 128.7764 287.002405 
L 132.79685 284.81314 
L 134.137 283.979732 
L 135.47715 283.361303 
L 136.8173 282.881232 
L 140.83775 280.872054 
L 142.1779 280.199443 
L 146.19835 277.696705 
L 148.87865 276.595558 
L 151.55895 275.833699 
L 152.8991 275.251606 
L 156.91955 273.101053 
L 159.59985 271.328017 
L 162.28015 270.020285 
L 197.12405 247.681953 
L 219.9066 232.293636 
L 229.28765 226.371073 
L 233.3081 224.037255 
L 238.6687 221.280042 
L 244.0293 218.815155 
L 248.04975 217.257772 
L 252.0702 215.957982 
L 256.09065 214.837925 
L 260.1111 213.965456 
L 264.13155 213.400814 
L 268.152 213.09791 
L 276.1929 212.687584 
L 284.2338 212.059311 
L 307.01635 209.802576 
L 317.73755 209.447725 
L 324.4383 209.433116 
L 361.9625 209.532571 
L 361.9625 209.532571 
" style="fill:none;stroke:#daa520;stroke-linecap:square;stroke-width:1.5;"/>
   </g>
   <g id="line2d_16">
    <path clip-path="url(#p65128187ba)" d="M 26.925 303.841292 
L 33.62575 302.904354 
L 40.3265 301.845985 
L 47.02725 300.984328 
L 59.0886 299.413052 
L 75.1704 296.82149 
L 79.19085 296.551228 
L 83.2113 296.551228 
L 88.5719 296.637162 
L 92.59235 296.453081 
L 95.27265 296.159025 
L 99.2931 295.511633 
L 105.99385 294.019685 
L 111.35445 292.627027 
L 114.03475 292.030258 
L 119.39535 290.016005 
L 123.4158 288.50114 
L 124.75595 287.786721 
L 128.7764 286.370449 
L 132.79685 284.192615 
L 134.137 283.36417 
L 135.47715 282.749363 
L 136.8173 282.272649 
L 140.83775 280.278853 
L 142.1779 279.611977 
L 146.19835 277.132815 
L 148.87865 276.043184 
L 151.55895 275.289872 
L 152.8991 274.714773 
L 156.91955 272.591296 
L 159.59985 270.842581 
L 162.28015 269.554308 
L 185.0627 255.36161 
L 197.12405 247.728649 
L 218.56645 233.733277 
L 227.9475 228.03698 
L 231.96795 225.73849 
L 235.9884 223.681952 
L 241.349 221.199173 
L 245.36945 219.552552 
L 249.3899 218.168566 
L 254.7505 216.648353 
L 258.77095 215.734421 
L 262.7914 215.104515 
L 266.81185 214.748105 
L 284.2338 213.697402 
L 307.01635 211.576355 
L 317.73755 211.243234 
L 324.4383 211.229522 
L 361.9625 211.322873 
L 361.9625 211.322873 
" style="fill:none;stroke:#daa520;stroke-dasharray:1.5,2.475;stroke-dashoffset:0;stroke-width:1.5;"/>
   </g>
   <g id="line2d_17">
    <path clip-path="url(#p65128187ba)" d="M 26.925 304.460435 
L 33.62575 303.528613 
L 40.3265 302.475476 
L 47.02725 301.617625 
L 59.0886 300.05217 
L 75.1704 297.46721 
L 79.19085 297.197428 
L 83.2113 297.197428 
L 88.5719 297.283221 
L 92.59235 297.099434 
L 95.27265 296.805796 
L 99.2931 296.15917 
L 105.99385 294.668085 
L 111.35445 293.275131 
L 114.03475 292.67776 
L 119.39535 290.660105 
L 123.4158 289.140997 
L 124.75595 288.42434 
L 128.7764 287.002405 
L 132.79685 284.81314 
L 134.137 283.979732 
L 135.47715 283.361303 
L 136.8173 282.881232 
L 140.83775 280.872054 
L 142.1779 280.199443 
L 146.19835 277.696705 
L 148.87865 276.595558 
L 151.55895 275.833699 
L 152.8991 275.251606 
L 156.91955 273.101053 
L 159.59985 271.328017 
L 162.28015 270.020285 
L 175.68165 261.585685 
L 183.72255 256.773752 
L 190.4233 253.025877 
L 207.84525 243.492278 
L 213.20585 240.213056 
L 219.9066 235.863981 
L 225.2672 232.113436 
L 231.96795 227.073636 
L 237.32855 222.821277 
L 242.68915 218.295315 
L 250.73005 211.205888 
L 256.09065 206.221689 
L 272.17245 191.004414 
L 276.1929 187.603189 
L 280.21335 184.577402 
L 285.57395 180.929261 
L 292.2747 176.573336 
L 298.97545 172.470274 
L 302.9959 170.205194 
L 307.01635 168.151526 
L 312.37695 165.717704 
L 317.73755 163.523173 
L 321.758 162.078202 
L 327.1186 160.415771 
L 332.4792 158.954314 
L 337.8398 157.766859 
L 344.54055 156.608344 
L 349.90115 155.912842 
L 355.26175 155.496659 
L 360.62235 155.256764 
L 361.9625 155.239208 
L 361.9625 155.239208 
" style="fill:none;stroke:#808080;stroke-linecap:square;stroke-width:1.5;"/>
   </g>
   <g id="line2d_18">
    <path clip-path="url(#p65128187ba)" d="M 26.925 303.841292 
L 33.62575 302.904354 
L 40.3265 301.845985 
L 47.02725 300.984328 
L 59.0886 299.413052 
L 75.1704 296.82149 
L 79.19085 296.551228 
L 83.2113 296.551228 
L 88.5719 296.637162 
L 92.59235 296.453081 
L 95.27265 296.159025 
L 99.2931 295.511633 
L 105.99385 294.019685 
L 111.35445 292.627027 
L 114.03475 292.030258 
L 119.39535 290.016005 
L 123.4158 288.50114 
L 124.75595 287.786721 
L 128.7764 286.370449 
L 132.79685 284.192615 
L 134.137 283.36417 
L 135.47715 282.749363 
L 136.8173 282.272649 
L 140.83775 280.278853 
L 142.1779 279.611977 
L 146.19835 277.132815 
L 148.87865 276.043184 
L 151.55895 275.289872 
L 152.8991 274.714773 
L 156.91955 272.591296 
L 159.59985 270.842581 
L 162.28015 269.554308 
L 174.3415 262.090492 
L 181.04225 258.104155 
L 187.743 254.346907 
L 202.48465 246.559211 
L 207.84525 243.674752 
L 213.20585 240.511177 
L 219.9066 236.328071 
L 225.2672 232.732463 
L 231.96795 227.91825 
L 238.6687 222.821478 
L 245.36945 217.378868 
L 253.41035 210.586905 
L 273.5126 192.998248 
L 277.53305 189.988272 
L 281.5535 187.312885 
L 289.5944 182.427544 
L 296.29515 178.609751 
L 301.65575 175.764201 
L 305.6762 173.846099 
L 311.0368 171.589227 
L 316.3974 169.562047 
L 321.758 167.800834 
L 327.1186 166.315173 
L 332.4792 165.011409 
L 337.8398 163.953659 
L 344.54055 162.923078 
L 349.90115 162.305028 
L 355.26175 161.935424 
L 361.9625 161.706879 
L 361.9625 161.706879 
" style="fill:none;stroke:#808080;stroke-dasharray:1.5,2.475;stroke-dashoffset:0;stroke-width:1.5;"/>
   </g>
   <g id="line2d_19">
    <path clip-path="url(#p65128187ba)" d="M 26.925 304.460435 
L 33.62575 303.528613 
L 40.3265 302.475476 
L 47.02725 301.617625 
L 59.0886 300.05217 
L 75.1704 297.46721 
L 79.19085 297.197428 
L 83.2113 297.197428 
L 88.5719 297.283221 
L 92.59235 297.099434 
L 95.27265 296.805796 
L 99.2931 296.15917 
L 105.99385 294.668085 
L 111.35445 293.275131 
L 114.03475 292.67776 
L 119.39535 290.660105 
L 123.4158 289.140997 
L 124.75595 288.42434 
L 128.7764 287.002405 
L 132.79685 284.81314 
L 134.137 283.979732 
L 135.47715 283.361303 
L 136.8173 282.881232 
L 140.83775 280.872054 
L 142.1779 280.199443 
L 146.19835 277.696705 
L 148.87865 276.595558 
L 151.55895 275.833699 
L 152.8991 275.251606 
L 156.91955 273.101053 
L 159.59985 271.328017 
L 162.28015 270.020285 
L 175.68165 261.398231 
L 179.7021 258.49555 
L 185.0627 254.277582 
L 190.4233 249.780188 
L 195.7839 245.022216 
L 202.48465 238.740684 
L 207.84525 233.43978 
L 213.20585 227.727366 
L 218.56645 221.699687 
L 223.92705 215.315211 
L 229.28765 208.528936 
L 235.9884 199.662071 
L 241.349 192.230569 
L 256.09065 171.12348 
L 266.81185 155.740554 
L 278.8732 138.731422 
L 290.93455 122.187309 
L 300.3156 109.74586 
L 308.3565 99.361017 
L 320.41785 84.299689 
L 329.7989 72.989819 
L 339.17995 61.946634 
L 352.58145 46.623619 
L 361.9625 36.199943 
L 361.9625 36.199943 
" style="fill:none;stroke:#ff0000;stroke-linecap:square;stroke-width:1.5;"/>
   </g>
   <g id="line2d_20">
    <path clip-path="url(#p65128187ba)" d="M 26.925 303.841292 
L 33.62575 302.904354 
L 40.3265 301.845985 
L 47.02725 300.984328 
L 59.0886 299.413052 
L 75.1704 296.82149 
L 79.19085 296.551228 
L 83.2113 296.551228 
L 88.5719 296.637162 
L 92.59235 296.453081 
L 95.27265 296.159025 
L 99.2931 295.511633 
L 105.99385 294.019685 
L 111.35445 292.627027 
L 114.03475 292.030258 
L 119.39535 290.016005 
L 123.4158 288.50114 
L 124.75595 287.786721 
L 128.7764 286.370449 
L 132.79685 284.192615 
L 134.137 283.36417 
L 135.47715 282.749363 
L 136.8173 282.272649 
L 140.83775 280.278853 
L 142.1779 279.611977 
L 146.19835 277.132815 
L 148.87865 276.043184 
L 151.55895 275.289872 
L 152.8991 274.714773 
L 156.91955 272.591296 
L 159.59985 270.842581 
L 162.28015 269.554308 
L 177.0218 260.169766 
L 181.04225 257.252224 
L 186.40285 253.06483 
L 193.1036 247.494326 
L 199.80435 241.545293 
L 206.5051 235.310881 
L 211.8657 229.936969 
L 218.56645 222.808186 
L 223.92705 216.767125 
L 229.28765 210.383397 
L 235.9884 202.102392 
L 242.68915 193.460073 
L 262.7914 167.250462 
L 273.5126 153.743888 
L 281.5535 143.981877 
L 290.93455 132.944165 
L 298.97545 123.90123 
L 307.01635 115.183066 
L 315.05725 106.849133 
L 323.09815 98.811948 
L 333.81935 88.565784 
L 341.86025 81.223506 
L 351.2413 72.928957 
L 361.9625 63.868553 
L 361.9625 63.868553 
" style="fill:none;stroke:#ff0000;stroke-dasharray:1.5,2.475;stroke-dashoffset:0;stroke-width:1.5;"/>
   </g>
   <g id="line2d_21">
    <path clip-path="url(#p65128187ba)" style="fill:none;stroke:#000000;stroke-linecap:square;stroke-width:1.5;"/>
   </g>
   <g id="line2d_22">
    <path clip-path="url(#p65128187ba)" style="fill:none;stroke:#000000;stroke-dasharray:1.5,2.475;stroke-dashoffset:0;stroke-width:1.5;"/>
   </g>
   <g id="line2d_23">
    <path clip-path="url(#p65128187ba)" style="fill:none;stroke:#0000ff;stroke-linecap:square;stroke-width:1.5;"/>
   </g>
   <g id="line2d_24">
    <path clip-path="url(#p65128187ba)" style="fill:none;stroke:#daa520;stroke-linecap:square;stroke-width:1.5;"/>
   </g>
   <g id="line2d_25">
    <path clip-path="url(#p65128187ba)" style="fill:none;stroke:#808080;stroke-linecap:square;stroke-width:1.5;"/>
   </g>
   <g id="line2d_26">
    <path clip-path="url(#p65128187ba)" style="fill:none;stroke:#ff0000;stroke-linecap:square;stroke-width:1.5;"/>
   </g>
   <g id="patch_3">
    <path d="M 26.925 327.718125 
L 26.925 22.318125 
" style="fill:none;stroke:#000000;stroke-linecap:square;stroke-linejoin:miter;stroke-width:0.8;"/>
   </g>
   <g id="patch_4">
    <path d="M 361.9625 327.718125 
L 361.9625 22.318125 
" style="fill:none;stroke:#000000;stroke-linecap:square;stroke-linejoin:miter;stroke-width:0.8;"/>
   </g>
   <g id="patch_5">
    <path d="M 26.925 327.718125 
L 361.9625 327.718125 
" style="fill:none;stroke:#000000;stroke-linecap:square;stroke-linejoin:miter;stroke-width:0.8;"/>
   </g>
   <g id="patch_6">
    <path d="M 26.925 22.318125 
L 361.9625 22.318125 
" style="fill:none;stroke:#000000;stroke-linecap:square;stroke-linejoin:miter;stroke-width:0.8;"/>
   </g>
   <g id="text_13">
    <!-- CO2 -->
    <defs>
     <path d="M 64.40625 67.28125 
L 64.40625 56.890625 
Q 59.421875 61.53125 53.78125 63.8125 
Q 48.140625 66.109375 41.796875 66.109375 
Q 29.296875 66.109375 22.65625 58.46875 
Q 16.015625 50.828125 16.015625 36.375 
Q 16.015625 21.96875 22.65625 14.328125 
Q 29.296875 6.6875 41.796875 6.6875 
Q 48.140625 6.6875 53.78125 8.984375 
Q 59.421875 11.28125 64.40625 15.921875 
L 64.40625 5.609375 
Q 59.234375 2.09375 53.4375 0.328125 
Q 47.65625 -1.421875 41.21875 -1.421875 
Q 24.65625 -1.421875 15.125 8.703125 
Q 5.609375 18.84375 5.609375 36.375 
Q 5.609375 53.953125 15.125 64.078125 
Q 24.65625 74.21875 41.21875 74.21875 
Q 47.75 74.21875 53.53125 72.484375 
Q 59.328125 70.75 64.40625 67.28125 
z
" id="DejaVuSans-67"/>
     <path d="M 39.40625 66.21875 
Q 28.65625 66.21875 22.328125 58.203125 
Q 16.015625 50.203125 16.015625 36.375 
Q 16.015625 22.609375 22.328125 14.59375 
Q 28.65625 6.59375 39.40625 6.59375 
Q 50.140625 6.59375 56.421875 14.59375 
Q 62.703125 22.609375 62.703125 36.375 
Q 62.703125 50.203125 56.421875 58.203125 
Q 50.140625 66.21875 39.40625 66.21875 
z
M 39.40625 74.21875 
Q 54.734375 74.21875 63.90625 63.9375 
Q 73.09375 53.65625 73.09375 36.375 
Q 73.09375 19.140625 63.90625 8.859375 
Q 54.734375 -1.421875 39.40625 -1.421875 
Q 24.03125 -1.421875 14.8125 8.828125 
Q 5.609375 19.09375 5.609375 36.375 
Q 5.609375 53.65625 14.8125 63.9375 
Q 24.03125 74.21875 39.40625 74.21875 
z
" id="DejaVuSans-79"/>
    </defs>
    <g transform="translate(181.713438 16.318125)scale(0.12 -0.12)">
     <use xlink:href="#DejaVuSans-67"/>
     <use x="69.824219" xlink:href="#DejaVuSans-79"/>
     <use x="148.535156" xlink:href="#DejaVuSans-50"/>
    </g>
   </g>
   <g id="legend_1">
    <g id="line2d_27">
     <path d="M 35.925 35.416562 
L 55.925 35.416562 
" style="fill:none;stroke:#000000;stroke-linecap:square;stroke-width:1.5;"/>
    </g>
    <g id="line2d_28"/>
    <g id="text_14">
     <!-- FaIR v2 diagnosed -->
     <defs>
      <path d="M 9.8125 72.90625 
L 51.703125 72.90625 
L 51.703125 64.59375 
L 19.671875 64.59375 
L 19.671875 43.109375 
L 48.578125 43.109375 
L 48.578125 34.8125 
L 19.671875 34.8125 
L 19.671875 0 
L 9.8125 0 
z
" id="DejaVuSans-70"/>
      <path d="M 34.28125 27.484375 
Q 23.390625 27.484375 19.1875 25 
Q 14.984375 22.515625 14.984375 16.5 
Q 14.984375 11.71875 18.140625 8.90625 
Q 21.296875 6.109375 26.703125 6.109375 
Q 34.1875 6.109375 38.703125 11.40625 
Q 43.21875 16.703125 43.21875 25.484375 
L 43.21875 27.484375 
z
M 52.203125 31.203125 
L 52.203125 0 
L 43.21875 0 
L 43.21875 8.296875 
Q 40.140625 3.328125 35.546875 0.953125 
Q 30.953125 -1.421875 24.3125 -1.421875 
Q 15.921875 -1.421875 10.953125 3.296875 
Q 6 8.015625 6 15.921875 
Q 6 25.140625 12.171875 29.828125 
Q 18.359375 34.515625 30.609375 34.515625 
L 43.21875 34.515625 
L 43.21875 35.40625 
Q 43.21875 41.609375 39.140625 45 
Q 35.0625 48.390625 27.6875 48.390625 
Q 23 48.390625 18.546875 47.265625 
Q 14.109375 46.140625 10.015625 43.890625 
L 10.015625 52.203125 
Q 14.9375 54.109375 19.578125 55.046875 
Q 24.21875 56 28.609375 56 
Q 40.484375 56 46.34375 49.84375 
Q 52.203125 43.703125 52.203125 31.203125 
z
" id="DejaVuSans-97"/>
      <path d="M 9.8125 72.90625 
L 19.671875 72.90625 
L 19.671875 0 
L 9.8125 0 
z
" id="DejaVuSans-73"/>
      <path d="M 44.390625 34.1875 
Q 47.5625 33.109375 50.5625 29.59375 
Q 53.5625 26.078125 56.59375 19.921875 
L 66.609375 0 
L 56 0 
L 46.6875 18.703125 
Q 43.0625 26.03125 39.671875 28.421875 
Q 36.28125 30.8125 30.421875 30.8125 
L 19.671875 30.8125 
L 19.671875 0 
L 9.8125 0 
L 9.8125 72.90625 
L 32.078125 72.90625 
Q 44.578125 72.90625 50.734375 67.671875 
Q 56.890625 62.453125 56.890625 51.90625 
Q 56.890625 45.015625 53.6875 40.46875 
Q 50.484375 35.9375 44.390625 34.1875 
z
M 19.671875 64.796875 
L 19.671875 38.921875 
L 32.078125 38.921875 
Q 39.203125 38.921875 42.84375 42.21875 
Q 46.484375 45.515625 46.484375 51.90625 
Q 46.484375 58.296875 42.84375 61.546875 
Q 39.203125 64.796875 32.078125 64.796875 
z
" id="DejaVuSans-82"/>
      <path id="DejaVuSans-32"/>
      <path d="M 2.984375 54.6875 
L 12.5 54.6875 
L 29.59375 8.796875 
L 46.6875 54.6875 
L 56.203125 54.6875 
L 35.6875 0 
L 23.484375 0 
z
" id="DejaVuSans-118"/>
      <path d="M 45.40625 46.390625 
L 45.40625 75.984375 
L 54.390625 75.984375 
L 54.390625 0 
L 45.40625 0 
L 45.40625 8.203125 
Q 42.578125 3.328125 38.25 0.953125 
Q 33.9375 -1.421875 27.875 -1.421875 
Q 17.96875 -1.421875 11.734375 6.484375 
Q 5.515625 14.40625 5.515625 27.296875 
Q 5.515625 40.1875 11.734375 48.09375 
Q 17.96875 56 27.875 56 
Q 33.9375 56 38.25 53.625 
Q 42.578125 51.265625 45.40625 46.390625 
z
M 14.796875 27.296875 
Q 14.796875 17.390625 18.875 11.75 
Q 22.953125 6.109375 30.078125 6.109375 
Q 37.203125 6.109375 41.296875 11.75 
Q 45.40625 17.390625 45.40625 27.296875 
Q 45.40625 37.203125 41.296875 42.84375 
Q 37.203125 48.484375 30.078125 48.484375 
Q 22.953125 48.484375 18.875 42.84375 
Q 14.796875 37.203125 14.796875 27.296875 
z
" id="DejaVuSans-100"/>
      <path d="M 9.421875 54.6875 
L 18.40625 54.6875 
L 18.40625 0 
L 9.421875 0 
z
M 9.421875 75.984375 
L 18.40625 75.984375 
L 18.40625 64.59375 
L 9.421875 64.59375 
z
" id="DejaVuSans-105"/>
      <path d="M 45.40625 27.984375 
Q 45.40625 37.75 41.375 43.109375 
Q 37.359375 48.484375 30.078125 48.484375 
Q 22.859375 48.484375 18.828125 43.109375 
Q 14.796875 37.75 14.796875 27.984375 
Q 14.796875 18.265625 18.828125 12.890625 
Q 22.859375 7.515625 30.078125 7.515625 
Q 37.359375 7.515625 41.375 12.890625 
Q 45.40625 18.265625 45.40625 27.984375 
z
M 54.390625 6.78125 
Q 54.390625 -7.171875 48.1875 -13.984375 
Q 42 -20.796875 29.203125 -20.796875 
Q 24.46875 -20.796875 20.265625 -20.09375 
Q 16.0625 -19.390625 12.109375 -17.921875 
L 12.109375 -9.1875 
Q 16.0625 -11.328125 19.921875 -12.34375 
Q 23.78125 -13.375 27.78125 -13.375 
Q 36.625 -13.375 41.015625 -8.765625 
Q 45.40625 -4.15625 45.40625 5.171875 
L 45.40625 9.625 
Q 42.625 4.78125 38.28125 2.390625 
Q 33.9375 0 27.875 0 
Q 17.828125 0 11.671875 7.65625 
Q 5.515625 15.328125 5.515625 27.984375 
Q 5.515625 40.671875 11.671875 48.328125 
Q 17.828125 56 27.875 56 
Q 33.9375 56 38.28125 53.609375 
Q 42.625 51.21875 45.40625 46.390625 
L 45.40625 54.6875 
L 54.390625 54.6875 
z
" id="DejaVuSans-103"/>
      <path d="M 54.890625 33.015625 
L 54.890625 0 
L 45.90625 0 
L 45.90625 32.71875 
Q 45.90625 40.484375 42.875 44.328125 
Q 39.84375 48.1875 33.796875 48.1875 
Q 26.515625 48.1875 22.3125 43.546875 
Q 18.109375 38.921875 18.109375 30.90625 
L 18.109375 0 
L 9.078125 0 
L 9.078125 54.6875 
L 18.109375 54.6875 
L 18.109375 46.1875 
Q 21.34375 51.125 25.703125 53.5625 
Q 30.078125 56 35.796875 56 
Q 45.21875 56 50.046875 50.171875 
Q 54.890625 44.34375 54.890625 33.015625 
z
" id="DejaVuSans-110"/>
      <path d="M 30.609375 48.390625 
Q 23.390625 48.390625 19.1875 42.75 
Q 14.984375 37.109375 14.984375 27.296875 
Q 14.984375 17.484375 19.15625 11.84375 
Q 23.34375 6.203125 30.609375 6.203125 
Q 37.796875 6.203125 41.984375 11.859375 
Q 46.1875 17.53125 46.1875 27.296875 
Q 46.1875 37.015625 41.984375 42.703125 
Q 37.796875 48.390625 30.609375 48.390625 
z
M 30.609375 56 
Q 42.328125 56 49.015625 48.375 
Q 55.71875 40.765625 55.71875 27.296875 
Q 55.71875 13.875 49.015625 6.21875 
Q 42.328125 -1.421875 30.609375 -1.421875 
Q 18.84375 -1.421875 12.171875 6.21875 
Q 5.515625 13.875 5.515625 27.296875 
Q 5.515625 40.765625 12.171875 48.375 
Q 18.84375 56 30.609375 56 
z
" id="DejaVuSans-111"/>
      <path d="M 44.28125 53.078125 
L 44.28125 44.578125 
Q 40.484375 46.53125 36.375 47.5 
Q 32.28125 48.484375 27.875 48.484375 
Q 21.1875 48.484375 17.84375 46.4375 
Q 14.5 44.390625 14.5 40.28125 
Q 14.5 37.15625 16.890625 35.375 
Q 19.28125 33.59375 26.515625 31.984375 
L 29.59375 31.296875 
Q 39.15625 29.25 43.1875 25.515625 
Q 47.21875 21.78125 47.21875 15.09375 
Q 47.21875 7.46875 41.1875 3.015625 
Q 35.15625 -1.421875 24.609375 -1.421875 
Q 20.21875 -1.421875 15.453125 -0.5625 
Q 10.6875 0.296875 5.421875 2 
L 5.421875 11.28125 
Q 10.40625 8.6875 15.234375 7.390625 
Q 20.0625 6.109375 24.8125 6.109375 
Q 31.15625 6.109375 34.5625 8.28125 
Q 37.984375 10.453125 37.984375 14.40625 
Q 37.984375 18.0625 35.515625 20.015625 
Q 33.0625 21.96875 24.703125 23.78125 
L 21.578125 24.515625 
Q 13.234375 26.265625 9.515625 29.90625 
Q 5.8125 33.546875 5.8125 39.890625 
Q 5.8125 47.609375 11.28125 51.796875 
Q 16.75 56 26.8125 56 
Q 31.78125 56 36.171875 55.265625 
Q 40.578125 54.546875 44.28125 53.078125 
z
" id="DejaVuSans-115"/>
      <path d="M 56.203125 29.59375 
L 56.203125 25.203125 
L 14.890625 25.203125 
Q 15.484375 15.921875 20.484375 11.0625 
Q 25.484375 6.203125 34.421875 6.203125 
Q 39.59375 6.203125 44.453125 7.46875 
Q 49.3125 8.734375 54.109375 11.28125 
L 54.109375 2.78125 
Q 49.265625 0.734375 44.1875 -0.34375 
Q 39.109375 -1.421875 33.890625 -1.421875 
Q 20.796875 -1.421875 13.15625 6.1875 
Q 5.515625 13.8125 5.515625 26.8125 
Q 5.515625 40.234375 12.765625 48.109375 
Q 20.015625 56 32.328125 56 
Q 43.359375 56 49.78125 48.890625 
Q 56.203125 41.796875 56.203125 29.59375 
z
M 47.21875 32.234375 
Q 47.125 39.59375 43.09375 43.984375 
Q 39.0625 48.390625 32.421875 48.390625 
Q 24.90625 48.390625 20.390625 44.140625 
Q 15.875 39.890625 15.1875 32.171875 
z
" id="DejaVuSans-101"/>
     </defs>
     <g transform="translate(63.925 38.916562)scale(0.1 -0.1)">
      <use xlink:href="#DejaVuSans-70"/>
      <use x="57.378906" xlink:href="#DejaVuSans-97"/>
      <use x="118.658203" xlink:href="#DejaVuSans-73"/>
      <use x="148.150391" xlink:href="#DejaVuSans-82"/>
      <use x="217.632812" xlink:href="#DejaVuSans-32"/>
      <use x="249.419922" xlink:href="#DejaVuSans-118"/>
      <use x="308.599609" xlink:href="#DejaVuSans-50"/>
      <use x="372.222656" xlink:href="#DejaVuSans-32"/>
      <use x="404.009766" xlink:href="#DejaVuSans-100"/>
      <use x="467.486328" xlink:href="#DejaVuSans-105"/>
      <use x="495.269531" xlink:href="#DejaVuSans-97"/>
      <use x="556.548828" xlink:href="#DejaVuSans-103"/>
      <use x="620.025391" xlink:href="#DejaVuSans-110"/>
      <use x="683.404297" xlink:href="#DejaVuSans-111"/>
      <use x="744.585938" xlink:href="#DejaVuSans-115"/>
      <use x="796.685547" xlink:href="#DejaVuSans-101"/>
      <use x="858.208984" xlink:href="#DejaVuSans-100"/>
     </g>
    </g>
    <g id="line2d_29">
     <path d="M 35.925 50.094687 
L 55.925 50.094687 
" style="fill:none;stroke:#000000;stroke-dasharray:1.5,2.475;stroke-dashoffset:0;stroke-width:1.5;"/>
    </g>
    <g id="line2d_30"/>
    <g id="text_15">
     <!-- RCP database -->
     <defs>
      <path d="M 19.671875 64.796875 
L 19.671875 37.40625 
L 32.078125 37.40625 
Q 38.96875 37.40625 42.71875 40.96875 
Q 46.484375 44.53125 46.484375 51.125 
Q 46.484375 57.671875 42.71875 61.234375 
Q 38.96875 64.796875 32.078125 64.796875 
z
M 9.8125 72.90625 
L 32.078125 72.90625 
Q 44.34375 72.90625 50.609375 67.359375 
Q 56.890625 61.8125 56.890625 51.125 
Q 56.890625 40.328125 50.609375 34.8125 
Q 44.34375 29.296875 32.078125 29.296875 
L 19.671875 29.296875 
L 19.671875 0 
L 9.8125 0 
z
" id="DejaVuSans-80"/>
      <path d="M 18.3125 70.21875 
L 18.3125 54.6875 
L 36.8125 54.6875 
L 36.8125 47.703125 
L 18.3125 47.703125 
L 18.3125 18.015625 
Q 18.3125 11.328125 20.140625 9.421875 
Q 21.96875 7.515625 27.59375 7.515625 
L 36.8125 7.515625 
L 36.8125 0 
L 27.59375 0 
Q 17.1875 0 13.234375 3.875 
Q 9.28125 7.765625 9.28125 18.015625 
L 9.28125 47.703125 
L 2.6875 47.703125 
L 2.6875 54.6875 
L 9.28125 54.6875 
L 9.28125 70.21875 
z
" id="DejaVuSans-116"/>
      <path d="M 48.6875 27.296875 
Q 48.6875 37.203125 44.609375 42.84375 
Q 40.53125 48.484375 33.40625 48.484375 
Q 26.265625 48.484375 22.1875 42.84375 
Q 18.109375 37.203125 18.109375 27.296875 
Q 18.109375 17.390625 22.1875 11.75 
Q 26.265625 6.109375 33.40625 6.109375 
Q 40.53125 6.109375 44.609375 11.75 
Q 48.6875 17.390625 48.6875 27.296875 
z
M 18.109375 46.390625 
Q 20.953125 51.265625 25.265625 53.625 
Q 29.59375 56 35.59375 56 
Q 45.5625 56 51.78125 48.09375 
Q 58.015625 40.1875 58.015625 27.296875 
Q 58.015625 14.40625 51.78125 6.484375 
Q 45.5625 -1.421875 35.59375 -1.421875 
Q 29.59375 -1.421875 25.265625 0.953125 
Q 20.953125 3.328125 18.109375 8.203125 
L 18.109375 0 
L 9.078125 0 
L 9.078125 75.984375 
L 18.109375 75.984375 
z
" id="DejaVuSans-98"/>
     </defs>
     <g transform="translate(63.925 53.594687)scale(0.1 -0.1)">
      <use xlink:href="#DejaVuSans-82"/>
      <use x="69.404297" xlink:href="#DejaVuSans-67"/>
      <use x="139.228516" xlink:href="#DejaVuSans-80"/>
      <use x="199.53125" xlink:href="#DejaVuSans-32"/>
      <use x="231.318359" xlink:href="#DejaVuSans-100"/>
      <use x="294.794922" xlink:href="#DejaVuSans-97"/>
      <use x="356.074219" xlink:href="#DejaVuSans-116"/>
      <use x="395.283203" xlink:href="#DejaVuSans-97"/>
      <use x="456.5625" xlink:href="#DejaVuSans-98"/>
      <use x="520.039062" xlink:href="#DejaVuSans-97"/>
      <use x="581.318359" xlink:href="#DejaVuSans-115"/>
      <use x="633.417969" xlink:href="#DejaVuSans-101"/>
     </g>
    </g>
    <g id="line2d_31">
     <path d="M 35.925 64.772812 
L 55.925 64.772812 
" style="fill:none;stroke:#0000ff;stroke-linecap:square;stroke-width:1.5;"/>
    </g>
    <g id="line2d_32"/>
    <g id="text_16">
     <!-- RCP3PD -->
     <defs>
      <path d="M 40.578125 39.3125 
Q 47.65625 37.796875 51.625 33 
Q 55.609375 28.21875 55.609375 21.1875 
Q 55.609375 10.40625 48.1875 4.484375 
Q 40.765625 -1.421875 27.09375 -1.421875 
Q 22.515625 -1.421875 17.65625 -0.515625 
Q 12.796875 0.390625 7.625 2.203125 
L 7.625 11.71875 
Q 11.71875 9.328125 16.59375 8.109375 
Q 21.484375 6.890625 26.8125 6.890625 
Q 36.078125 6.890625 40.9375 10.546875 
Q 45.796875 14.203125 45.796875 21.1875 
Q 45.796875 27.640625 41.28125 31.265625 
Q 36.765625 34.90625 28.71875 34.90625 
L 20.21875 34.90625 
L 20.21875 43.015625 
L 29.109375 43.015625 
Q 36.375 43.015625 40.234375 45.921875 
Q 44.09375 48.828125 44.09375 54.296875 
Q 44.09375 59.90625 40.109375 62.90625 
Q 36.140625 65.921875 28.71875 65.921875 
Q 24.65625 65.921875 20.015625 65.03125 
Q 15.375 64.15625 9.8125 62.3125 
L 9.8125 71.09375 
Q 15.4375 72.65625 20.34375 73.4375 
Q 25.25 74.21875 29.59375 74.21875 
Q 40.828125 74.21875 47.359375 69.109375 
Q 53.90625 64.015625 53.90625 55.328125 
Q 53.90625 49.265625 50.4375 45.09375 
Q 46.96875 40.921875 40.578125 39.3125 
z
" id="DejaVuSans-51"/>
      <path d="M 19.671875 64.796875 
L 19.671875 8.109375 
L 31.59375 8.109375 
Q 46.6875 8.109375 53.6875 14.9375 
Q 60.6875 21.78125 60.6875 36.53125 
Q 60.6875 51.171875 53.6875 57.984375 
Q 46.6875 64.796875 31.59375 64.796875 
z
M 9.8125 72.90625 
L 30.078125 72.90625 
Q 51.265625 72.90625 61.171875 64.09375 
Q 71.09375 55.28125 71.09375 36.53125 
Q 71.09375 17.671875 61.125 8.828125 
Q 51.171875 0 30.078125 0 
L 9.8125 0 
z
" id="DejaVuSans-68"/>
     </defs>
     <g transform="translate(63.925 68.272812)scale(0.1 -0.1)">
      <use xlink:href="#DejaVuSans-82"/>
      <use x="69.404297" xlink:href="#DejaVuSans-67"/>
      <use x="139.228516" xlink:href="#DejaVuSans-80"/>
      <use x="199.53125" xlink:href="#DejaVuSans-51"/>
      <use x="263.154297" xlink:href="#DejaVuSans-80"/>
      <use x="323.457031" xlink:href="#DejaVuSans-68"/>
     </g>
    </g>
    <g id="line2d_33">
     <path d="M 35.925 79.450937 
L 55.925 79.450937 
" style="fill:none;stroke:#daa520;stroke-linecap:square;stroke-width:1.5;"/>
    </g>
    <g id="line2d_34"/>
    <g id="text_17">
     <!-- RCP45 -->
     <g transform="translate(63.925 82.950937)scale(0.1 -0.1)">
      <use xlink:href="#DejaVuSans-82"/>
      <use x="69.404297" xlink:href="#DejaVuSans-67"/>
      <use x="139.228516" xlink:href="#DejaVuSans-80"/>
      <use x="199.53125" xlink:href="#DejaVuSans-52"/>
      <use x="263.154297" xlink:href="#DejaVuSans-53"/>
     </g>
    </g>
    <g id="line2d_35">
     <path d="M 35.925 94.129062 
L 55.925 94.129062 
" style="fill:none;stroke:#808080;stroke-linecap:square;stroke-width:1.5;"/>
    </g>
    <g id="line2d_36"/>
    <g id="text_18">
     <!-- RCP6 -->
     <g transform="translate(63.925 97.629062)scale(0.1 -0.1)">
      <use xlink:href="#DejaVuSans-82"/>
      <use x="69.404297" xlink:href="#DejaVuSans-67"/>
      <use x="139.228516" xlink:href="#DejaVuSans-80"/>
      <use x="199.53125" xlink:href="#DejaVuSans-54"/>
     </g>
    </g>
    <g id="line2d_37">
     <path d="M 35.925 108.807187 
L 55.925 108.807187 
" style="fill:none;stroke:#ff0000;stroke-linecap:square;stroke-width:1.5;"/>
    </g>
    <g id="line2d_38"/>
    <g id="text_19">
     <!-- RCP85 -->
     <g transform="translate(63.925 112.307187)scale(0.1 -0.1)">
      <use xlink:href="#DejaVuSans-82"/>
      <use x="69.404297" xlink:href="#DejaVuSans-67"/>
      <use x="139.228516" xlink:href="#DejaVuSans-80"/>
      <use x="199.53125" xlink:href="#DejaVuSans-56"/>
      <use x="263.154297" xlink:href="#DejaVuSans-53"/>
     </g>
    </g>
   </g>
  </g>
  <g id="axes_2">
   <g id="patch_7">
    <path d="M 408.45 327.718125 
L 743.4875 327.718125 
L 743.4875 22.318125 
L 408.45 22.318125 
z
" style="fill:#ffffff;"/>
   </g>
   <g id="matplotlib.axis_3">
    <g id="xtick_7">
     <g id="line2d_39">
      <g>
       <use style="stroke:#000000;stroke-width:0.8;" x="408.45" xlink:href="#m05ee42bd6a" y="327.718125"/>
      </g>
     </g>
     <g id="text_20">
      <!-- 1900 -->
      <g transform="translate(395.725 342.316562)scale(0.1 -0.1)">
       <use xlink:href="#DejaVuSans-49"/>
       <use x="63.623047" xlink:href="#DejaVuSans-57"/>
       <use x="127.246094" xlink:href="#DejaVuSans-48"/>
       <use x="190.869141" xlink:href="#DejaVuSans-48"/>
      </g>
     </g>
    </g>
    <g id="xtick_8">
     <g id="line2d_40">
      <g>
       <use style="stroke:#000000;stroke-width:0.8;" x="475.4575" xlink:href="#m05ee42bd6a" y="327.718125"/>
      </g>
     </g>
     <g id="text_21">
      <!-- 1950 -->
      <g transform="translate(462.7325 342.316562)scale(0.1 -0.1)">
       <use xlink:href="#DejaVuSans-49"/>
       <use x="63.623047" xlink:href="#DejaVuSans-57"/>
       <use x="127.246094" xlink:href="#DejaVuSans-53"/>
       <use x="190.869141" xlink:href="#DejaVuSans-48"/>
      </g>
     </g>
    </g>
    <g id="xtick_9">
     <g id="line2d_41">
      <g>
       <use style="stroke:#000000;stroke-width:0.8;" x="542.465" xlink:href="#m05ee42bd6a" y="327.718125"/>
      </g>
     </g>
     <g id="text_22">
      <!-- 2000 -->
      <g transform="translate(529.74 342.316562)scale(0.1 -0.1)">
       <use xlink:href="#DejaVuSans-50"/>
       <use x="63.623047" xlink:href="#DejaVuSans-48"/>
       <use x="127.246094" xlink:href="#DejaVuSans-48"/>
       <use x="190.869141" xlink:href="#DejaVuSans-48"/>
      </g>
     </g>
    </g>
    <g id="xtick_10">
     <g id="line2d_42">
      <g>
       <use style="stroke:#000000;stroke-width:0.8;" x="609.4725" xlink:href="#m05ee42bd6a" y="327.718125"/>
      </g>
     </g>
     <g id="text_23">
      <!-- 2050 -->
      <g transform="translate(596.7475 342.316562)scale(0.1 -0.1)">
       <use xlink:href="#DejaVuSans-50"/>
       <use x="63.623047" xlink:href="#DejaVuSans-48"/>
       <use x="127.246094" xlink:href="#DejaVuSans-53"/>
       <use x="190.869141" xlink:href="#DejaVuSans-48"/>
      </g>
     </g>
    </g>
    <g id="xtick_11">
     <g id="line2d_43">
      <g>
       <use style="stroke:#000000;stroke-width:0.8;" x="676.48" xlink:href="#m05ee42bd6a" y="327.718125"/>
      </g>
     </g>
     <g id="text_24">
      <!-- 2100 -->
      <g transform="translate(663.755 342.316562)scale(0.1 -0.1)">
       <use xlink:href="#DejaVuSans-50"/>
       <use x="63.623047" xlink:href="#DejaVuSans-49"/>
       <use x="127.246094" xlink:href="#DejaVuSans-48"/>
       <use x="190.869141" xlink:href="#DejaVuSans-48"/>
      </g>
     </g>
    </g>
    <g id="xtick_12">
     <g id="line2d_44">
      <g>
       <use style="stroke:#000000;stroke-width:0.8;" x="743.4875" xlink:href="#m05ee42bd6a" y="327.718125"/>
      </g>
     </g>
     <g id="text_25">
      <!-- 2150 -->
      <g transform="translate(730.7625 342.316562)scale(0.1 -0.1)">
       <use xlink:href="#DejaVuSans-50"/>
       <use x="63.623047" xlink:href="#DejaVuSans-49"/>
       <use x="127.246094" xlink:href="#DejaVuSans-53"/>
       <use x="190.869141" xlink:href="#DejaVuSans-48"/>
      </g>
     </g>
    </g>
   </g>
   <g id="matplotlib.axis_4">
    <g id="ytick_7">
     <g id="line2d_45">
      <g>
       <use style="stroke:#000000;stroke-width:0.8;" x="408.45" xlink:href="#m030c0e4df4" y="289.689946"/>
      </g>
     </g>
     <g id="text_26">
      <!-- 0.2 -->
      <defs>
       <path d="M 10.6875 12.40625 
L 21 12.40625 
L 21 0 
L 10.6875 0 
z
" id="DejaVuSans-46"/>
      </defs>
      <g transform="translate(385.546875 293.489165)scale(0.1 -0.1)">
       <use xlink:href="#DejaVuSans-48"/>
       <use x="63.623047" xlink:href="#DejaVuSans-46"/>
       <use x="95.410156" xlink:href="#DejaVuSans-50"/>
      </g>
     </g>
    </g>
    <g id="ytick_8">
     <g id="line2d_46">
      <g>
       <use style="stroke:#000000;stroke-width:0.8;" x="408.45" xlink:href="#m030c0e4df4" y="243.571629"/>
      </g>
     </g>
     <g id="text_27">
      <!-- 0.4 -->
      <g transform="translate(385.546875 247.370848)scale(0.1 -0.1)">
       <use xlink:href="#DejaVuSans-48"/>
       <use x="63.623047" xlink:href="#DejaVuSans-46"/>
       <use x="95.410156" xlink:href="#DejaVuSans-52"/>
      </g>
     </g>
    </g>
    <g id="ytick_9">
     <g id="line2d_47">
      <g>
       <use style="stroke:#000000;stroke-width:0.8;" x="408.45" xlink:href="#m030c0e4df4" y="197.453313"/>
      </g>
     </g>
     <g id="text_28">
      <!-- 0.6 -->
      <g transform="translate(385.546875 201.252531)scale(0.1 -0.1)">
       <use xlink:href="#DejaVuSans-48"/>
       <use x="63.623047" xlink:href="#DejaVuSans-46"/>
       <use x="95.410156" xlink:href="#DejaVuSans-54"/>
      </g>
     </g>
    </g>
    <g id="ytick_10">
     <g id="line2d_48">
      <g>
       <use style="stroke:#000000;stroke-width:0.8;" x="408.45" xlink:href="#m030c0e4df4" y="151.334996"/>
      </g>
     </g>
     <g id="text_29">
      <!-- 0.8 -->
      <g transform="translate(385.546875 155.134215)scale(0.1 -0.1)">
       <use xlink:href="#DejaVuSans-48"/>
       <use x="63.623047" xlink:href="#DejaVuSans-46"/>
       <use x="95.410156" xlink:href="#DejaVuSans-56"/>
      </g>
     </g>
    </g>
    <g id="ytick_11">
     <g id="line2d_49">
      <g>
       <use style="stroke:#000000;stroke-width:0.8;" x="408.45" xlink:href="#m030c0e4df4" y="105.216679"/>
      </g>
     </g>
     <g id="text_30">
      <!-- 1.0 -->
      <g transform="translate(385.546875 109.015898)scale(0.1 -0.1)">
       <use xlink:href="#DejaVuSans-49"/>
       <use x="63.623047" xlink:href="#DejaVuSans-46"/>
       <use x="95.410156" xlink:href="#DejaVuSans-48"/>
      </g>
     </g>
    </g>
    <g id="ytick_12">
     <g id="line2d_50">
      <g>
       <use style="stroke:#000000;stroke-width:0.8;" x="408.45" xlink:href="#m030c0e4df4" y="59.098363"/>
      </g>
     </g>
     <g id="text_31">
      <!-- 1.2 -->
      <g transform="translate(385.546875 62.897582)scale(0.1 -0.1)">
       <use xlink:href="#DejaVuSans-49"/>
       <use x="63.623047" xlink:href="#DejaVuSans-46"/>
       <use x="95.410156" xlink:href="#DejaVuSans-50"/>
      </g>
     </g>
    </g>
   </g>
   <g id="line2d_51">
    <path clip-path="url(#pfad772ed33)" d="M 408.45 312.438889 
L 411.1303 311.293317 
L 416.4909 308.602476 
L 420.51135 306.462487 
L 425.87195 303.599518 
L 437.9333 296.198852 
L 447.31435 290.261945 
L 454.0151 286.456492 
L 467.4166 279.440191 
L 470.0969 277.923653 
L 474.11735 275.314422 
L 476.79765 273.323769 
L 479.47795 270.986236 
L 483.4984 267.143552 
L 487.51885 262.90544 
L 491.5393 258.257986 
L 495.55975 253.282486 
L 499.5802 248.026021 
L 511.64155 231.265356 
L 515.662 225.529386 
L 521.0226 217.095821 
L 522.36275 215.534315 
L 525.04305 212.906013 
L 529.0635 209.525479 
L 530.40365 208.437334 
L 531.7438 207.587271 
L 538.44455 205.148577 
L 539.7847 204.316583 
L 541.12485 203.629565 
L 542.465 203.442615 
L 543.80515 203.475691 
L 545.1453 203.320316 
L 546.48545 203.050423 
L 547.8256 203.018439 
L 549.16575 203.157934 
L 550.5059 203.07617 
L 551.84605 202.743925 
L 554.52635 201.742272 
L 558.5468 199.941 
L 559.88695 199.752311 
L 561.2271 199.864722 
L 562.56725 200.249625 
L 563.9074 200.884921 
L 565.24755 201.753522 
L 566.5877 202.839323 
L 567.92785 204.126986 
L 569.268 205.602713 
L 574.6286 212.190437 
L 577.3089 215.004663 
L 579.9892 217.474526 
L 582.6695 219.679895 
L 585.3498 221.676146 
L 588.0301 223.48166 
L 590.7104 225.103024 
L 594.73085 227.221483 
L 600.09145 229.847036 
L 602.77175 231.524386 
L 606.7922 234.434024 
L 610.81265 237.654404 
L 614.8331 240.873464 
L 620.1937 244.905223 
L 625.5543 248.605031 
L 628.2346 250.123471 
L 630.9149 251.409672 
L 633.5952 252.514133 
L 636.2755 253.448965 
L 640.29595 254.586006 
L 645.65655 255.792598 
L 651.01715 256.815016 
L 665.7588 259.140796 
L 676.48 260.571955 
L 680.50045 261.060734 
L 685.86105 261.440313 
L 695.2421 261.802776 
L 707.30345 261.89489 
L 716.6845 261.847216 
L 743.4875 261.66927 
L 743.4875 261.66927 
" style="fill:none;stroke:#0000ff;stroke-linecap:square;stroke-width:1.5;"/>
   </g>
   <g id="line2d_52">
    <path clip-path="url(#pfad772ed33)" d="M 408.45 313.836307 
L 411.1303 312.913929 
L 417.83105 310.200915 
L 427.2121 306.061365 
L 437.9333 300.74892 
L 447.31435 295.95781 
L 455.35525 292.325246 
L 467.4166 287.213932 
L 471.43705 285.308793 
L 475.4575 283.096408 
L 478.1378 281.357247 
L 482.15825 278.336924 
L 486.1787 274.989813 
L 490.19915 271.354737 
L 495.55975 266.011744 
L 499.5802 261.737837 
L 510.3014 249.602275 
L 515.662 243.389268 
L 521.0226 236.484634 
L 522.36275 235.204302 
L 525.04305 233.048585 
L 529.0635 230.273772 
L 530.40365 229.380115 
L 531.7438 228.681549 
L 538.44455 226.677344 
L 541.12485 225.428172 
L 542.465 225.274355 
L 543.80515 225.301558 
L 547.8256 224.925454 
L 549.16575 225.040197 
L 550.5059 224.972954 
L 553.1862 224.329645 
L 555.8665 223.371601 
L 557.20665 222.821915 
L 558.5468 222.392906 
L 559.88695 222.23752 
L 561.2271 222.330098 
L 562.56725 222.647032 
L 563.9074 223.170062 
L 565.24755 223.885018 
L 566.5877 224.778507 
L 567.92785 225.837753 
L 570.60815 228.4141 
L 573.28845 231.182693 
L 575.96875 233.655511 
L 578.64905 235.813168 
L 581.32935 237.721666 
L 585.3498 240.235543 
L 589.37025 242.394634 
L 593.3907 244.223777 
L 601.4316 247.575435 
L 604.1119 249.044119 
L 608.13235 251.513492 
L 618.85355 258.399452 
L 624.21415 261.495506 
L 626.89445 262.854652 
L 629.57475 263.984726 
L 633.5952 265.386419 
L 637.61565 266.47901 
L 641.6361 267.33418 
L 648.33685 268.487776 
L 655.0376 269.404777 
L 673.7997 271.636744 
L 681.8406 272.423481 
L 688.54135 272.732707 
L 696.58225 272.946004 
L 714.0042 272.989178 
L 743.4875 272.82041 
L 743.4875 272.82041 
" style="fill:none;stroke:#0000ff;stroke-dasharray:1.5,2.475;stroke-dashoffset:0;stroke-width:1.5;"/>
   </g>
   <g id="line2d_53">
    <path clip-path="url(#pfad772ed33)" d="M 408.45 312.438889 
L 411.1303 311.293317 
L 416.4909 308.602476 
L 420.51135 306.462487 
L 425.87195 303.599518 
L 437.9333 296.198852 
L 447.31435 290.261945 
L 454.0151 286.456492 
L 467.4166 279.440191 
L 470.0969 277.923653 
L 474.11735 275.314422 
L 476.79765 273.323769 
L 479.47795 270.986236 
L 483.4984 267.143552 
L 487.51885 262.90544 
L 491.5393 258.257986 
L 495.55975 253.282486 
L 499.5802 248.026021 
L 511.64155 231.265356 
L 515.662 225.529386 
L 521.0226 217.095821 
L 522.36275 215.534315 
L 525.04305 212.906013 
L 529.0635 209.525479 
L 530.40365 208.437334 
L 531.7438 207.587271 
L 538.44455 205.148577 
L 539.7847 204.316583 
L 541.12485 203.629565 
L 542.465 203.442615 
L 543.80515 203.475691 
L 545.1453 203.320316 
L 546.48545 203.050423 
L 547.8256 203.018439 
L 549.16575 203.157934 
L 550.5059 203.076202 
L 554.52635 202.106266 
L 577.3089 196.296956 
L 584.00965 195.027299 
L 588.0301 194.510082 
L 593.3907 194.150424 
L 598.7513 194.002529 
L 602.77175 194.189649 
L 608.13235 194.762884 
L 612.1528 195.334637 
L 614.8331 195.875752 
L 618.85355 196.981151 
L 624.21415 198.750972 
L 628.2346 200.291696 
L 632.25505 202.105085 
L 638.9558 205.486792 
L 642.97625 207.726205 
L 646.9967 210.189991 
L 652.3573 213.455568 
L 655.0376 214.844728 
L 659.05805 216.629357 
L 663.0785 218.209901 
L 667.09895 219.586051 
L 673.7997 221.561958 
L 679.1603 223.056148 
L 683.18075 223.870571 
L 687.2012 224.429944 
L 693.90195 225.111599 
L 699.26255 225.419217 
L 712.66405 225.865423 
L 743.4875 226.216971 
L 743.4875 226.216971 
" style="fill:none;stroke:#daa520;stroke-linecap:square;stroke-width:1.5;"/>
   </g>
   <g id="line2d_54">
    <path clip-path="url(#pfad772ed33)" d="M 408.45 313.836307 
L 411.1303 312.913929 
L 417.83105 310.200915 
L 427.2121 306.061365 
L 437.9333 300.74892 
L 447.31435 295.95781 
L 455.35525 292.325246 
L 467.4166 287.213932 
L 471.43705 285.308793 
L 475.4575 283.096408 
L 478.1378 281.357247 
L 482.15825 278.336924 
L 486.1787 274.989813 
L 490.19915 271.354737 
L 495.55975 266.011744 
L 499.5802 261.737837 
L 510.3014 249.602275 
L 515.662 243.389268 
L 521.0226 236.484634 
L 522.36275 235.204302 
L 525.04305 233.048585 
L 529.0635 230.273772 
L 530.40365 229.380115 
L 531.7438 228.681549 
L 538.44455 226.677344 
L 541.12485 225.428172 
L 542.465 225.274355 
L 543.80515 225.301558 
L 547.8256 224.925454 
L 549.16575 225.040197 
L 550.5059 224.972988 
L 554.52635 224.175033 
L 577.3089 219.391247 
L 584.00965 218.344691 
L 588.0301 217.918244 
L 593.3907 217.621669 
L 598.7513 217.499702 
L 602.77175 217.654014 
L 608.13235 218.126685 
L 613.49295 218.803603 
L 617.5134 219.6264 
L 622.874 221.031212 
L 626.89445 222.236445 
L 630.9149 223.652847 
L 636.2755 225.817662 
L 641.6361 228.164673 
L 645.65655 230.125889 
L 652.3573 233.499151 
L 656.37775 235.153455 
L 661.73835 236.982592 
L 667.09895 238.523956 
L 673.7997 240.141842 
L 680.50045 241.617061 
L 684.5209 242.202323 
L 691.22165 242.849698 
L 696.58225 243.191508 
L 707.30345 243.553288 
L 715.34435 243.68998 
L 743.4875 243.950217 
L 743.4875 243.950217 
" style="fill:none;stroke:#daa520;stroke-dasharray:1.5,2.475;stroke-dashoffset:0;stroke-width:1.5;"/>
   </g>
   <g id="line2d_55">
    <path clip-path="url(#pfad772ed33)" d="M 408.45 312.438889 
L 411.1303 311.293317 
L 416.4909 308.602476 
L 420.51135 306.462487 
L 425.87195 303.599518 
L 437.9333 296.198852 
L 447.31435 290.261945 
L 454.0151 286.456492 
L 467.4166 279.440191 
L 470.0969 277.923653 
L 474.11735 275.314422 
L 476.79765 273.323769 
L 479.47795 270.986236 
L 483.4984 267.143552 
L 487.51885 262.90544 
L 491.5393 258.257986 
L 495.55975 253.282486 
L 499.5802 248.026021 
L 511.64155 231.265356 
L 515.662 225.529386 
L 521.0226 217.095821 
L 522.36275 215.534315 
L 525.04305 212.906013 
L 529.0635 209.525479 
L 530.40365 208.437334 
L 531.7438 207.587271 
L 538.44455 205.148577 
L 539.7847 204.316583 
L 541.12485 203.629565 
L 542.465 203.442615 
L 543.80515 203.475691 
L 545.1453 203.320316 
L 546.48545 203.050423 
L 547.8256 203.018439 
L 549.16575 203.157934 
L 550.5059 203.075803 
L 553.1862 202.415954 
L 559.88695 200.456932 
L 562.56725 200.020266 
L 565.24755 199.797495 
L 567.92785 199.765008 
L 574.6286 199.999705 
L 577.3089 199.777799 
L 579.9892 199.350759 
L 584.00965 198.4162 
L 588.0301 197.233168 
L 592.05055 195.816487 
L 596.071 194.164775 
L 602.77175 191.315352 
L 613.49295 187.151607 
L 617.5134 185.818452 
L 624.21415 183.855911 
L 626.89445 183.184777 
L 629.57475 182.671584 
L 633.5952 182.204152 
L 637.61565 181.95366 
L 640.29595 181.986645 
L 642.97625 182.29863 
L 645.65655 182.878522 
L 648.33685 183.689406 
L 651.01715 184.662829 
L 652.3573 185.282332 
L 653.69745 186.099436 
L 655.0376 187.100404 
L 656.37775 188.271777 
L 659.05805 191.08521 
L 661.73835 194.48314 
L 664.41865 198.358604 
L 668.4391 204.176211 
L 672.45955 209.487798 
L 675.13985 212.762484 
L 677.82015 215.755153 
L 680.50045 218.313236 
L 683.18075 220.347187 
L 685.86105 221.973338 
L 688.54135 223.286608 
L 691.22165 224.382106 
L 693.90195 225.280624 
L 696.58225 225.996094 
L 700.6027 226.812517 
L 707.30345 227.811046 
L 712.66405 228.351541 
L 723.38525 229.065305 
L 731.42615 229.368809 
L 743.4875 229.720528 
L 743.4875 229.720528 
" style="fill:none;stroke:#808080;stroke-linecap:square;stroke-width:1.5;"/>
   </g>
   <g id="line2d_56">
    <path clip-path="url(#pfad772ed33)" d="M 408.45 313.836307 
L 411.1303 312.913929 
L 417.83105 310.200915 
L 427.2121 306.061365 
L 437.9333 300.74892 
L 447.31435 295.95781 
L 455.35525 292.325246 
L 467.4166 287.213932 
L 471.43705 285.308793 
L 475.4575 283.096408 
L 478.1378 281.357247 
L 482.15825 278.336924 
L 486.1787 274.989813 
L 490.19915 271.354737 
L 495.55975 266.011744 
L 499.5802 261.737837 
L 510.3014 249.602275 
L 515.662 243.389268 
L 521.0226 236.484634 
L 522.36275 235.204302 
L 525.04305 233.048585 
L 529.0635 230.273772 
L 530.40365 229.380115 
L 531.7438 228.681549 
L 538.44455 226.677344 
L 541.12485 225.428172 
L 542.465 225.274355 
L 543.80515 225.301558 
L 547.8256 224.925454 
L 549.16575 225.040197 
L 550.5059 224.972661 
L 553.1862 224.429848 
L 559.88695 222.817628 
L 562.56725 222.45814 
L 565.24755 222.274721 
L 569.268 222.286903 
L 573.28845 222.463091 
L 575.96875 222.372891 
L 578.64905 222.101401 
L 582.6695 221.421986 
L 586.68995 220.506999 
L 590.7104 219.408253 
L 594.73085 218.104687 
L 606.7922 213.974651 
L 614.8331 211.456415 
L 620.1937 210.078979 
L 626.89445 208.564887 
L 630.9149 207.98301 
L 634.93535 207.670676 
L 638.9558 207.528846 
L 641.6361 207.675896 
L 644.3164 208.043579 
L 646.9967 208.626893 
L 651.01715 209.787375 
L 652.3573 210.29965 
L 653.69745 210.975182 
L 655.0376 211.802499 
L 657.7179 213.868408 
L 660.3982 216.440858 
L 663.0785 219.450405 
L 668.4391 225.878662 
L 672.45955 230.243332 
L 675.13985 232.931114 
L 677.82015 235.385409 
L 680.50045 237.481666 
L 683.18075 239.147474 
L 685.86105 240.478697 
L 688.54135 241.553416 
L 691.22165 242.449654 
L 693.90195 243.184561 
L 697.9224 244.015813 
L 701.94285 244.618176 
L 708.6436 245.384893 
L 714.0042 245.778019 
L 727.4057 246.423685 
L 743.4875 246.81371 
L 743.4875 246.81371 
" style="fill:none;stroke:#808080;stroke-dasharray:1.5,2.475;stroke-dashoffset:0;stroke-width:1.5;"/>
   </g>
   <g id="line2d_57">
    <path clip-path="url(#pfad772ed33)" d="M 408.45 312.438889 
L 411.1303 311.293317 
L 416.4909 308.602476 
L 420.51135 306.462487 
L 425.87195 303.599518 
L 437.9333 296.198852 
L 447.31435 290.261945 
L 454.0151 286.456492 
L 467.4166 279.440191 
L 470.0969 277.923653 
L 474.11735 275.314422 
L 476.79765 273.323769 
L 479.47795 270.986236 
L 483.4984 267.143552 
L 487.51885 262.90544 
L 491.5393 258.257986 
L 495.55975 253.282486 
L 499.5802 248.026021 
L 511.64155 231.265356 
L 515.662 225.529386 
L 521.0226 217.095821 
L 522.36275 215.534315 
L 525.04305 212.906013 
L 529.0635 209.525479 
L 530.40365 208.437334 
L 531.7438 207.587271 
L 538.44455 205.148577 
L 539.7847 204.316583 
L 541.12485 203.629565 
L 542.465 203.442615 
L 543.80515 203.475691 
L 545.1453 203.320316 
L 546.48545 203.050423 
L 547.8256 203.018439 
L 549.16575 203.157934 
L 550.5059 203.076432 
L 551.84605 202.705999 
L 553.1862 202.143557 
L 555.8665 200.552049 
L 558.5468 198.483567 
L 561.2271 195.904059 
L 563.9074 192.870741 
L 566.5877 189.474426 
L 570.60815 183.882511 
L 575.96875 175.983179 
L 582.6695 165.670638 
L 586.68995 159.205829 
L 589.37025 154.482536 
L 593.3907 146.838216 
L 597.41115 138.70119 
L 604.1119 124.501155 
L 614.8331 101.317254 
L 618.85355 93.623874 
L 622.874 86.482339 
L 625.5543 81.998106 
L 628.2346 77.963162 
L 630.9149 74.38605 
L 633.5952 71.202394 
L 636.2755 68.310803 
L 640.29595 64.359223 
L 644.3164 60.733422 
L 648.33685 57.455787 
L 661.73835 47.138285 
L 667.09895 43.256846 
L 669.77925 41.631077 
L 672.45955 40.230999 
L 675.13985 39.065216 
L 677.82015 38.104563 
L 680.50045 37.339045 
L 683.18075 36.780395 
L 685.86105 36.410661 
L 688.54135 36.217923 
L 691.22165 36.224477 
L 696.58225 36.559408 
L 701.94285 37.118114 
L 705.9633 37.755173 
L 720.70495 40.606832 
L 728.74585 42.345916 
L 735.4466 43.778427 
L 742.14735 45.246593 
L 743.4875 45.514197 
L 743.4875 45.514197 
" style="fill:none;stroke:#ff0000;stroke-linecap:square;stroke-width:1.5;"/>
   </g>
   <g id="line2d_58">
    <path clip-path="url(#pfad772ed33)" d="M 408.45 313.836307 
L 411.1303 312.913929 
L 417.83105 310.200915 
L 427.2121 306.061365 
L 437.9333 300.74892 
L 447.31435 295.95781 
L 455.35525 292.325246 
L 467.4166 287.213932 
L 471.43705 285.308793 
L 475.4575 283.096408 
L 478.1378 281.357247 
L 482.15825 278.336924 
L 486.1787 274.989813 
L 490.19915 271.354737 
L 495.55975 266.011744 
L 499.5802 261.737837 
L 510.3014 249.602275 
L 515.662 243.389268 
L 521.0226 236.484634 
L 522.36275 235.204302 
L 525.04305 233.048585 
L 529.0635 230.273772 
L 530.40365 229.380115 
L 531.7438 228.681549 
L 538.44455 226.677344 
L 541.12485 225.428172 
L 542.465 225.274355 
L 543.80515 225.301558 
L 547.8256 224.925454 
L 549.16575 225.040197 
L 550.5059 224.973171 
L 551.84605 224.668481 
L 553.1862 224.205813 
L 555.8665 222.896147 
L 558.5468 221.19312 
L 561.2271 219.067974 
L 563.9074 216.566948 
L 566.5877 213.764022 
L 570.60815 209.143031 
L 575.96875 202.602183 
L 582.6695 194.039649 
L 586.68995 188.658162 
L 589.37025 184.719467 
L 593.3907 178.33229 
L 597.41115 171.515834 
L 604.1119 159.575867 
L 616.17325 137.709558 
L 620.1937 131.3374 
L 624.21415 125.361956 
L 626.89445 121.705444 
L 629.57475 118.444114 
L 632.25505 115.555391 
L 634.93535 112.955571 
L 638.9558 109.438069 
L 642.97625 106.221671 
L 646.9967 103.30074 
L 656.37775 97.003791 
L 663.0785 92.58757 
L 667.09895 90.087358 
L 669.77925 88.675146 
L 672.45955 87.458268 
L 675.13985 86.444518 
L 679.1603 85.251046 
L 681.8406 84.678026 
L 684.5209 84.276012 
L 687.2012 84.029026 
L 689.8815 83.95097 
L 693.90195 84.091009 
L 700.6027 84.610301 
L 704.62315 85.098717 
L 716.6845 87.040229 
L 722.0451 88.051119 
L 730.086 89.531955 
L 736.78675 90.810816 
L 743.4875 92.046487 
L 743.4875 92.046487 
" style="fill:none;stroke:#ff0000;stroke-dasharray:1.5,2.475;stroke-dashoffset:0;stroke-width:1.5;"/>
   </g>
   <g id="patch_8">
    <path d="M 408.45 327.718125 
L 408.45 22.318125 
" style="fill:none;stroke:#000000;stroke-linecap:square;stroke-linejoin:miter;stroke-width:0.8;"/>
   </g>
   <g id="patch_9">
    <path d="M 743.4875 327.718125 
L 743.4875 22.318125 
" style="fill:none;stroke:#000000;stroke-linecap:square;stroke-linejoin:miter;stroke-width:0.8;"/>
   </g>
   <g id="patch_10">
    <path d="M 408.45 327.718125 
L 743.4875 327.718125 
" style="fill:none;stroke:#000000;stroke-linecap:square;stroke-linejoin:miter;stroke-width:0.8;"/>
   </g>
   <g id="patch_11">
    <path d="M 408.45 22.318125 
L 743.4875 22.318125 
" style="fill:none;stroke:#000000;stroke-linecap:square;stroke-linejoin:miter;stroke-width:0.8;"/>
   </g>
   <g id="text_32">
    <!-- CH4 -->
    <defs>
     <path d="M 9.8125 72.90625 
L 19.671875 72.90625 
L 19.671875 43.015625 
L 55.515625 43.015625 
L 55.515625 72.90625 
L 65.375 72.90625 
L 65.375 0 
L 55.515625 0 
L 55.515625 34.71875 
L 19.671875 34.71875 
L 19.671875 0 
L 9.8125 0 
z
" id="DejaVuSans-72"/>
    </defs>
    <g transform="translate(563.449375 16.318125)scale(0.12 -0.12)">
     <use xlink:href="#DejaVuSans-67"/>
     <use x="69.824219" xlink:href="#DejaVuSans-72"/>
     <use x="145.019531" xlink:href="#DejaVuSans-52"/>
    </g>
   </g>
  </g>
  <g id="axes_3">
   <g id="patch_12">
    <path d="M 789.975 327.718125 
L 1125.0125 327.718125 
L 1125.0125 22.318125 
L 789.975 22.318125 
z
" style="fill:#ffffff;"/>
   </g>
   <g id="matplotlib.axis_5">
    <g id="xtick_13">
     <g id="line2d_59">
      <g>
       <use style="stroke:#000000;stroke-width:0.8;" x="789.975" xlink:href="#m05ee42bd6a" y="327.718125"/>
      </g>
     </g>
     <g id="text_33">
      <!-- 1900 -->
      <g transform="translate(777.25 342.316562)scale(0.1 -0.1)">
       <use xlink:href="#DejaVuSans-49"/>
       <use x="63.623047" xlink:href="#DejaVuSans-57"/>
       <use x="127.246094" xlink:href="#DejaVuSans-48"/>
       <use x="190.869141" xlink:href="#DejaVuSans-48"/>
      </g>
     </g>
    </g>
    <g id="xtick_14">
     <g id="line2d_60">
      <g>
       <use style="stroke:#000000;stroke-width:0.8;" x="856.9825" xlink:href="#m05ee42bd6a" y="327.718125"/>
      </g>
     </g>
     <g id="text_34">
      <!-- 1950 -->
      <g transform="translate(844.2575 342.316562)scale(0.1 -0.1)">
       <use xlink:href="#DejaVuSans-49"/>
       <use x="63.623047" xlink:href="#DejaVuSans-57"/>
       <use x="127.246094" xlink:href="#DejaVuSans-53"/>
       <use x="190.869141" xlink:href="#DejaVuSans-48"/>
      </g>
     </g>
    </g>
    <g id="xtick_15">
     <g id="line2d_61">
      <g>
       <use style="stroke:#000000;stroke-width:0.8;" x="923.99" xlink:href="#m05ee42bd6a" y="327.718125"/>
      </g>
     </g>
     <g id="text_35">
      <!-- 2000 -->
      <g transform="translate(911.265 342.316562)scale(0.1 -0.1)">
       <use xlink:href="#DejaVuSans-50"/>
       <use x="63.623047" xlink:href="#DejaVuSans-48"/>
       <use x="127.246094" xlink:href="#DejaVuSans-48"/>
       <use x="190.869141" xlink:href="#DejaVuSans-48"/>
      </g>
     </g>
    </g>
    <g id="xtick_16">
     <g id="line2d_62">
      <g>
       <use style="stroke:#000000;stroke-width:0.8;" x="990.9975" xlink:href="#m05ee42bd6a" y="327.718125"/>
      </g>
     </g>
     <g id="text_36">
      <!-- 2050 -->
      <g transform="translate(978.2725 342.316562)scale(0.1 -0.1)">
       <use xlink:href="#DejaVuSans-50"/>
       <use x="63.623047" xlink:href="#DejaVuSans-48"/>
       <use x="127.246094" xlink:href="#DejaVuSans-53"/>
       <use x="190.869141" xlink:href="#DejaVuSans-48"/>
      </g>
     </g>
    </g>
    <g id="xtick_17">
     <g id="line2d_63">
      <g>
       <use style="stroke:#000000;stroke-width:0.8;" x="1058.005" xlink:href="#m05ee42bd6a" y="327.718125"/>
      </g>
     </g>
     <g id="text_37">
      <!-- 2100 -->
      <g transform="translate(1045.28 342.316562)scale(0.1 -0.1)">
       <use xlink:href="#DejaVuSans-50"/>
       <use x="63.623047" xlink:href="#DejaVuSans-49"/>
       <use x="127.246094" xlink:href="#DejaVuSans-48"/>
       <use x="190.869141" xlink:href="#DejaVuSans-48"/>
      </g>
     </g>
    </g>
    <g id="xtick_18">
     <g id="line2d_64">
      <g>
       <use style="stroke:#000000;stroke-width:0.8;" x="1125.0125" xlink:href="#m05ee42bd6a" y="327.718125"/>
      </g>
     </g>
     <g id="text_38">
      <!-- 2150 -->
      <g transform="translate(1112.2875 342.316562)scale(0.1 -0.1)">
       <use xlink:href="#DejaVuSans-50"/>
       <use x="63.623047" xlink:href="#DejaVuSans-49"/>
       <use x="127.246094" xlink:href="#DejaVuSans-53"/>
       <use x="190.869141" xlink:href="#DejaVuSans-48"/>
      </g>
     </g>
    </g>
   </g>
   <g id="matplotlib.axis_6">
    <g id="ytick_13">
     <g id="line2d_65">
      <g>
       <use style="stroke:#000000;stroke-width:0.8;" x="789.975" xlink:href="#m030c0e4df4" y="325.049828"/>
      </g>
     </g>
     <g id="text_39">
      <!-- 0.0 -->
      <g transform="translate(767.071875 328.849047)scale(0.1 -0.1)">
       <use xlink:href="#DejaVuSans-48"/>
       <use x="63.623047" xlink:href="#DejaVuSans-46"/>
       <use x="95.410156" xlink:href="#DejaVuSans-48"/>
      </g>
     </g>
    </g>
    <g id="ytick_14">
     <g id="line2d_66">
      <g>
       <use style="stroke:#000000;stroke-width:0.8;" x="789.975" xlink:href="#m030c0e4df4" y="279.655556"/>
      </g>
     </g>
     <g id="text_40">
      <!-- 0.1 -->
      <g transform="translate(767.071875 283.454774)scale(0.1 -0.1)">
       <use xlink:href="#DejaVuSans-48"/>
       <use x="63.623047" xlink:href="#DejaVuSans-46"/>
       <use x="95.410156" xlink:href="#DejaVuSans-49"/>
      </g>
     </g>
    </g>
    <g id="ytick_15">
     <g id="line2d_67">
      <g>
       <use style="stroke:#000000;stroke-width:0.8;" x="789.975" xlink:href="#m030c0e4df4" y="234.261283"/>
      </g>
     </g>
     <g id="text_41">
      <!-- 0.2 -->
      <g transform="translate(767.071875 238.060502)scale(0.1 -0.1)">
       <use xlink:href="#DejaVuSans-48"/>
       <use x="63.623047" xlink:href="#DejaVuSans-46"/>
       <use x="95.410156" xlink:href="#DejaVuSans-50"/>
      </g>
     </g>
    </g>
    <g id="ytick_16">
     <g id="line2d_68">
      <g>
       <use style="stroke:#000000;stroke-width:0.8;" x="789.975" xlink:href="#m030c0e4df4" y="188.86701"/>
      </g>
     </g>
     <g id="text_42">
      <!-- 0.3 -->
      <g transform="translate(767.071875 192.666229)scale(0.1 -0.1)">
       <use xlink:href="#DejaVuSans-48"/>
       <use x="63.623047" xlink:href="#DejaVuSans-46"/>
       <use x="95.410156" xlink:href="#DejaVuSans-51"/>
      </g>
     </g>
    </g>
    <g id="ytick_17">
     <g id="line2d_69">
      <g>
       <use style="stroke:#000000;stroke-width:0.8;" x="789.975" xlink:href="#m030c0e4df4" y="143.472738"/>
      </g>
     </g>
     <g id="text_43">
      <!-- 0.4 -->
      <g transform="translate(767.071875 147.271956)scale(0.1 -0.1)">
       <use xlink:href="#DejaVuSans-48"/>
       <use x="63.623047" xlink:href="#DejaVuSans-46"/>
       <use x="95.410156" xlink:href="#DejaVuSans-52"/>
      </g>
     </g>
    </g>
    <g id="ytick_18">
     <g id="line2d_70">
      <g>
       <use style="stroke:#000000;stroke-width:0.8;" x="789.975" xlink:href="#m030c0e4df4" y="98.078465"/>
      </g>
     </g>
     <g id="text_44">
      <!-- 0.5 -->
      <g transform="translate(767.071875 101.877684)scale(0.1 -0.1)">
       <use xlink:href="#DejaVuSans-48"/>
       <use x="63.623047" xlink:href="#DejaVuSans-46"/>
       <use x="95.410156" xlink:href="#DejaVuSans-53"/>
      </g>
     </g>
    </g>
    <g id="ytick_19">
     <g id="line2d_71">
      <g>
       <use style="stroke:#000000;stroke-width:0.8;" x="789.975" xlink:href="#m030c0e4df4" y="52.684192"/>
      </g>
     </g>
     <g id="text_45">
      <!-- 0.6 -->
      <g transform="translate(767.071875 56.483411)scale(0.1 -0.1)">
       <use xlink:href="#DejaVuSans-48"/>
       <use x="63.623047" xlink:href="#DejaVuSans-46"/>
       <use x="95.410156" xlink:href="#DejaVuSans-54"/>
      </g>
     </g>
    </g>
   </g>
   <g id="line2d_72">
    <path clip-path="url(#pfb80166ff4)" d="M 789.975 312.348896 
L 800.6962 311.057599 
L 810.07725 309.399983 
L 814.0977 308.406822 
L 826.15905 305.506938 
L 847.60145 301.337977 
L 852.96205 299.915961 
L 858.32265 298.568836 
L 867.7037 296.20687 
L 874.40445 294.17662 
L 879.76505 291.897718 
L 882.44535 290.59791 
L 886.4658 288.399449 
L 890.48625 285.846861 
L 893.16655 283.895607 
L 895.84685 281.919645 
L 897.187 281.001039 
L 901.20745 277.545226 
L 902.5476 276.701842 
L 905.2279 274.747399 
L 906.56805 274.05184 
L 907.9082 272.729498 
L 909.24835 270.871274 
L 910.5885 269.489593 
L 911.92865 268.60364 
L 915.9491 266.503087 
L 919.96955 263.4693 
L 922.64985 261.368947 
L 925.33015 259.647046 
L 932.0309 254.467968 
L 942.7521 246.921922 
L 946.77255 244.364778 
L 950.793 242.007331 
L 957.49375 238.409709 
L 965.53465 234.383443 
L 972.2354 231.274065 
L 978.93615 228.403149 
L 982.9566 226.891795 
L 986.97705 225.661978 
L 990.9975 224.707207 
L 995.01795 223.996846 
L 1000.37855 223.301503 
L 1005.73915 222.873021 
L 1027.18155 221.77294 
L 1036.5626 221.538979 
L 1045.94365 221.524172 
L 1055.3247 221.738304 
L 1072.74665 222.494028 
L 1102.22995 223.622372 
L 1125.0125 224.351994 
L 1125.0125 224.351994 
" style="fill:none;stroke:#0000ff;stroke-linecap:square;stroke-width:1.5;"/>
   </g>
   <g id="line2d_73">
    <path clip-path="url(#pfb80166ff4)" d="M 789.975 313.836307 
L 799.35605 312.7228 
L 808.7371 311.036122 
L 811.4174 310.46189 
L 826.15905 306.719702 
L 847.60145 302.387085 
L 852.96205 300.909895 
L 858.32265 299.510789 
L 867.7037 297.058411 
L 874.40445 294.951181 
L 879.76505 292.586655 
L 882.44535 291.238409 
L 886.4658 288.958613 
L 890.48625 286.312569 
L 893.16655 284.290624 
L 895.84685 282.243603 
L 897.187 281.292245 
L 901.20745 277.714265 
L 902.5476 276.841333 
L 905.2279 274.818937 
L 906.56805 274.099319 
L 907.9082 272.732058 
L 909.24835 270.810241 
L 910.5885 269.381506 
L 911.92865 268.465622 
L 915.9491 266.294859 
L 919.96955 263.160966 
L 922.64985 260.992109 
L 925.33015 259.214651 
L 932.0309 253.871273 
L 942.7521 246.093695 
L 946.77255 243.460201 
L 950.793 241.03331 
L 957.49375 237.331484 
L 964.1945 233.859866 
L 970.89525 230.614452 
L 977.596 227.616978 
L 981.61645 225.979202 
L 985.6369 224.620661 
L 989.65735 223.547336 
L 993.6778 222.74516 
L 999.0384 221.961115 
L 1004.399 221.453974 
L 1020.4808 220.540978 
L 1029.86185 220.150224 
L 1039.2429 219.973127 
L 1048.62395 220.022775 
L 1058.005 220.312154 
L 1094.18905 221.844937 
L 1125.0125 222.886931 
L 1125.0125 222.886931 
" style="fill:none;stroke:#0000ff;stroke-dasharray:1.5,2.475;stroke-dashoffset:0;stroke-width:1.5;"/>
   </g>
   <g id="line2d_74">
    <path clip-path="url(#pfb80166ff4)" d="M 789.975 312.348896 
L 800.6962 311.057599 
L 810.07725 309.399983 
L 814.0977 308.406822 
L 826.15905 305.506938 
L 847.60145 301.337977 
L 852.96205 299.915961 
L 858.32265 298.568836 
L 867.7037 296.20687 
L 874.40445 294.17662 
L 879.76505 291.897718 
L 882.44535 290.59791 
L 886.4658 288.399449 
L 890.48625 285.846861 
L 893.16655 283.895607 
L 895.84685 281.919645 
L 897.187 281.001039 
L 901.20745 277.545226 
L 902.5476 276.701842 
L 905.2279 274.747399 
L 906.56805 274.05184 
L 907.9082 272.729498 
L 909.24835 270.871274 
L 910.5885 269.489593 
L 911.92865 268.60364 
L 915.9491 266.503087 
L 919.96955 263.4693 
L 922.64985 261.368947 
L 925.33015 259.647046 
L 932.0309 254.467968 
L 953.4733 238.992677 
L 973.57555 224.468209 
L 981.61645 218.951606 
L 988.3172 214.635841 
L 995.01795 210.598462 
L 1001.7187 206.815397 
L 1008.41945 203.274561 
L 1015.1202 199.996672 
L 1021.82095 196.980292 
L 1028.5217 194.245153 
L 1035.22245 191.774838 
L 1044.6035 188.564917 
L 1053.98455 185.586529 
L 1063.3656 182.849213 
L 1070.06635 181.151672 
L 1076.7671 179.684482 
L 1083.46785 178.436663 
L 1090.1686 177.39775 
L 1096.86935 176.557876 
L 1104.91025 175.799634 
L 1112.95115 175.299375 
L 1120.99205 175.042914 
L 1125.0125 175.004042 
L 1125.0125 175.004042 
" style="fill:none;stroke:#daa520;stroke-linecap:square;stroke-width:1.5;"/>
   </g>
   <g id="line2d_75">
    <path clip-path="url(#pfb80166ff4)" d="M 789.975 313.836307 
L 799.35605 312.7228 
L 808.7371 311.036122 
L 811.4174 310.46189 
L 826.15905 306.719702 
L 847.60145 302.387085 
L 852.96205 300.909895 
L 858.32265 299.510789 
L 867.7037 297.058411 
L 874.40445 294.951181 
L 879.76505 292.586655 
L 882.44535 291.238409 
L 886.4658 288.958613 
L 890.48625 286.312569 
L 893.16655 284.290624 
L 895.84685 282.243603 
L 897.187 281.292245 
L 901.20745 277.714265 
L 902.5476 276.841333 
L 905.2279 274.818937 
L 906.56805 274.099319 
L 907.9082 272.732058 
L 909.24835 270.810241 
L 910.5885 269.381506 
L 911.92865 268.465622 
L 915.9491 266.294859 
L 919.96955 263.160966 
L 922.64985 260.992109 
L 925.33015 259.214651 
L 932.0309 253.871273 
L 956.1536 235.924951 
L 973.57555 223.006327 
L 981.61645 217.346696 
L 988.3172 212.922525 
L 995.01795 208.786494 
L 1001.7187 204.913432 
L 1008.41945 201.290492 
L 1015.1202 197.938438 
L 1021.82095 194.855382 
L 1028.5217 192.061069 
L 1035.22245 189.538364 
L 1044.6035 186.261892 
L 1053.98455 183.223258 
L 1062.02545 180.807162 
L 1068.7262 179.028301 
L 1075.42695 177.48693 
L 1082.1277 176.171621 
L 1088.82845 175.071487 
L 1095.5292 174.176225 
L 1102.22995 173.476141 
L 1110.27085 172.880773 
L 1118.31175 172.538414 
L 1125.0125 172.438514 
L 1125.0125 172.438514 
" style="fill:none;stroke:#daa520;stroke-dasharray:1.5,2.475;stroke-dashoffset:0;stroke-width:1.5;"/>
   </g>
   <g id="line2d_76">
    <path clip-path="url(#pfb80166ff4)" d="M 789.975 312.348896 
L 800.6962 311.057599 
L 810.07725 309.399983 
L 814.0977 308.406822 
L 826.15905 305.506938 
L 847.60145 301.337977 
L 852.96205 299.915961 
L 858.32265 298.568836 
L 867.7037 296.20687 
L 874.40445 294.17662 
L 879.76505 291.897718 
L 882.44535 290.59791 
L 886.4658 288.399449 
L 890.48625 285.846861 
L 893.16655 283.895607 
L 895.84685 281.919645 
L 897.187 281.001039 
L 901.20745 277.545226 
L 902.5476 276.701842 
L 905.2279 274.747399 
L 906.56805 274.05184 
L 907.9082 272.729498 
L 909.24835 270.871274 
L 910.5885 269.489593 
L 911.92865 268.60364 
L 915.9491 266.503087 
L 919.96955 263.4693 
L 922.64985 261.368947 
L 925.33015 259.647046 
L 932.0309 254.467968 
L 937.3915 250.479315 
L 944.09225 245.354413 
L 949.45285 241.550915 
L 960.17405 234.152241 
L 965.53465 230.095535 
L 970.89525 225.787217 
L 976.25585 221.234856 
L 982.9566 215.232777 
L 989.65735 208.956418 
L 997.69825 201.093432 
L 1005.73915 192.886498 
L 1017.8005 180.159449 
L 1029.86185 167.412811 
L 1037.90275 159.223058 
L 1044.6035 152.761404 
L 1051.30425 146.643361 
L 1058.005 140.887692 
L 1062.02545 137.630512 
L 1066.0459 134.619523 
L 1070.06635 131.855878 
L 1074.0868 129.331617 
L 1078.10725 127.038919 
L 1082.1277 124.970321 
L 1086.14815 123.118711 
L 1090.1686 121.477287 
L 1094.18905 120.039569 
L 1098.2095 118.799357 
L 1102.22995 117.750696 
L 1106.2504 116.88794 
L 1110.27085 116.205619 
L 1114.2913 115.698525 
L 1118.31175 115.36166 
L 1123.67235 115.169078 
L 1125.0125 115.16294 
L 1125.0125 115.16294 
" style="fill:none;stroke:#808080;stroke-linecap:square;stroke-width:1.5;"/>
   </g>
   <g id="line2d_77">
    <path clip-path="url(#pfb80166ff4)" d="M 789.975 313.836307 
L 799.35605 312.7228 
L 808.7371 311.036122 
L 811.4174 310.46189 
L 826.15905 306.719702 
L 847.60145 302.387085 
L 852.96205 300.909895 
L 858.32265 299.510789 
L 867.7037 297.058411 
L 874.40445 294.951181 
L 879.76505 292.586655 
L 882.44535 291.238409 
L 886.4658 288.958613 
L 890.48625 286.312569 
L 893.16655 284.290624 
L 895.84685 282.243603 
L 897.187 281.292245 
L 901.20745 277.714265 
L 902.5476 276.841333 
L 905.2279 274.818937 
L 906.56805 274.099319 
L 907.9082 272.732058 
L 909.24835 270.810241 
L 910.5885 269.381506 
L 911.92865 268.465622 
L 915.9491 266.294859 
L 919.96955 263.160966 
L 922.64985 260.992109 
L 925.33015 259.214651 
L 932.0309 253.871273 
L 937.3915 249.759106 
L 944.09225 244.479298 
L 949.45285 240.563592 
L 960.17405 232.953515 
L 965.53465 228.784718 
L 970.89525 224.360325 
L 976.25585 219.688609 
L 982.9566 213.534385 
L 989.65735 207.105249 
L 997.69825 199.060008 
L 1005.73915 190.673707 
L 1017.8005 177.690405 
L 1028.5217 166.132755 
L 1036.5626 157.744456 
L 1043.26335 151.115426 
L 1049.9641 144.83743 
L 1056.66485 138.933179 
L 1062.02545 134.498444 
L 1066.0459 131.451776 
L 1070.06635 128.656701 
L 1074.0868 126.104825 
L 1078.10725 123.787952 
L 1082.1277 121.698285 
L 1086.14815 119.828409 
L 1090.1686 118.171268 
L 1094.18905 116.720141 
L 1098.2095 115.46863 
L 1102.22995 114.41063 
L 1106.2504 113.540308 
L 1110.27085 112.852099 
L 1114.2913 112.340678 
L 1118.31175 112.000966 
L 1123.67235 111.806755 
L 1125.0125 111.800568 
L 1125.0125 111.800568 
" style="fill:none;stroke:#808080;stroke-dasharray:1.5,2.475;stroke-dashoffset:0;stroke-width:1.5;"/>
   </g>
   <g id="line2d_78">
    <path clip-path="url(#pfb80166ff4)" d="M 789.975 312.348896 
L 800.6962 311.057599 
L 810.07725 309.399983 
L 814.0977 308.406822 
L 826.15905 305.506938 
L 847.60145 301.337977 
L 852.96205 299.915961 
L 858.32265 298.568836 
L 867.7037 296.20687 
L 874.40445 294.17662 
L 879.76505 291.897718 
L 882.44535 290.59791 
L 886.4658 288.399449 
L 890.48625 285.846861 
L 893.16655 283.895607 
L 895.84685 281.919645 
L 897.187 281.001039 
L 901.20745 277.545226 
L 902.5476 276.701842 
L 905.2279 274.747399 
L 906.56805 274.05184 
L 907.9082 272.729498 
L 909.24835 270.871274 
L 910.5885 269.489593 
L 911.92865 268.60364 
L 915.9491 266.503087 
L 919.96955 263.4693 
L 922.64985 261.368947 
L 925.33015 259.647046 
L 932.0309 254.467968 
L 937.3915 250.493649 
L 941.41195 247.306056 
L 945.4324 243.85336 
L 949.45285 240.13711 
L 953.4733 236.169863 
L 958.8339 230.560362 
L 964.1945 224.619975 
L 969.5551 218.364135 
L 974.9157 211.802888 
L 981.61645 203.224624 
L 997.69825 182.189523 
L 1015.1202 159.536247 
L 1032.54215 137.389619 
L 1062.02545 100.238329 
L 1068.7262 92.319804 
L 1075.42695 84.804735 
L 1082.1277 77.670415 
L 1088.82845 70.895525 
L 1095.5292 64.460134 
L 1102.22995 58.345661 
L 1108.9307 52.534683 
L 1115.63145 47.010911 
L 1122.3322 41.75903 
L 1125.0125 39.731161 
L 1125.0125 39.731161 
" style="fill:none;stroke:#ff0000;stroke-linecap:square;stroke-width:1.5;"/>
   </g>
   <g id="line2d_79">
    <path clip-path="url(#pfb80166ff4)" d="M 789.975 313.836307 
L 799.35605 312.7228 
L 808.7371 311.036122 
L 811.4174 310.46189 
L 826.15905 306.719702 
L 847.60145 302.387085 
L 852.96205 300.909895 
L 858.32265 299.510789 
L 867.7037 297.058411 
L 874.40445 294.951181 
L 879.76505 292.586655 
L 882.44535 291.238409 
L 886.4658 288.958613 
L 890.48625 286.312569 
L 893.16655 284.290624 
L 895.84685 282.243603 
L 897.187 281.292245 
L 901.20745 277.714265 
L 902.5476 276.841333 
L 905.2279 274.818937 
L 906.56805 274.099319 
L 907.9082 272.732058 
L 909.24835 270.810241 
L 910.5885 269.381506 
L 911.92865 268.465622 
L 915.9491 266.294859 
L 919.96955 263.160966 
L 922.64985 260.992109 
L 925.33015 259.214651 
L 932.0309 253.871273 
L 937.3915 249.773881 
L 941.41195 246.489456 
L 945.4324 242.93375 
L 949.45285 239.10881 
L 953.4733 235.028029 
L 958.8339 229.262393 
L 964.1945 223.162306 
L 969.5551 216.744532 
L 974.9157 210.020365 
L 981.61645 201.239769 
L 1021.82095 148.028802 
L 1049.9641 111.899637 
L 1060.6853 98.413034 
L 1067.38605 90.366668 
L 1074.0868 82.740108 
L 1080.78755 75.509123 
L 1087.4883 68.650679 
L 1094.18905 62.143356 
L 1100.8898 55.967215 
L 1107.59055 50.10366 
L 1114.2913 44.53533 
L 1120.99205 39.245994 
L 1125.0125 36.199943 
L 1125.0125 36.199943 
" style="fill:none;stroke:#ff0000;stroke-dasharray:1.5,2.475;stroke-dashoffset:0;stroke-width:1.5;"/>
   </g>
   <g id="patch_13">
    <path d="M 789.975 327.718125 
L 789.975 22.318125 
" style="fill:none;stroke:#000000;stroke-linecap:square;stroke-linejoin:miter;stroke-width:0.8;"/>
   </g>
   <g id="patch_14">
    <path d="M 1125.0125 327.718125 
L 1125.0125 22.318125 
" style="fill:none;stroke:#000000;stroke-linecap:square;stroke-linejoin:miter;stroke-width:0.8;"/>
   </g>
   <g id="patch_15">
    <path d="M 789.975 327.718125 
L 1125.0125 327.718125 
" style="fill:none;stroke:#000000;stroke-linecap:square;stroke-linejoin:miter;stroke-width:0.8;"/>
   </g>
   <g id="patch_16">
    <path d="M 789.975 22.318125 
L 1125.0125 22.318125 
" style="fill:none;stroke:#000000;stroke-linecap:square;stroke-linejoin:miter;stroke-width:0.8;"/>
   </g>
   <g id="text_46">
    <!-- N2O -->
    <defs>
     <path d="M 9.8125 72.90625 
L 23.09375 72.90625 
L 55.421875 11.921875 
L 55.421875 72.90625 
L 64.984375 72.90625 
L 64.984375 0 
L 51.703125 0 
L 19.390625 60.984375 
L 19.390625 0 
L 9.8125 0 
z
" id="DejaVuSans-78"/>
    </defs>
    <g transform="translate(944.464375 16.318125)scale(0.12 -0.12)">
     <use xlink:href="#DejaVuSans-78"/>
     <use x="74.804688" xlink:href="#DejaVuSans-50"/>
     <use x="138.427734" xlink:href="#DejaVuSans-79"/>
    </g>
   </g>
  </g>
 </g>
 <defs>
  <clipPath id="p65128187ba">
   <rect height="305.4" width="335.0375" x="26.925" y="22.318125"/>
  </clipPath>
  <clipPath id="pfad772ed33">
   <rect height="305.4" width="335.0375" x="408.45" y="22.318125"/>
  </clipPath>
  <clipPath id="pfb80166ff4">
   <rect height="305.4" width="335.0375" x="789.975" y="22.318125"/>
  </clipPath>
 </defs>
</svg>
