<?xml version="1.0" encoding="utf-8" standalone="no"?>
<!DOCTYPE svg PUBLIC "-//W3C//DTD SVG 1.1//EN"
  "http://www.w3.org/Graphics/SVG/1.1/DTD/svg11.dtd">
<!-- Created with matplotlib (https://matplotlib.org/) -->
<svg height="360pt" version="1.1" viewBox="0 0 1152 360" width="1152pt" xmlns="http://www.w3.org/2000/svg" xmlns:xlink="http://www.w3.org/1999/xlink">
 <defs>
  <style type="text/css">
*{stroke-linecap:butt;stroke-linejoin:round;}
  </style>
 </defs>
 <g id="figure_1">
  <g id="patch_1">
   <path d="M 0 360 
L 1152 360 
L 1152 0 
L 0 0 
z
" style="fill:#ffffff;"/>
  </g>
  <g id="axes_1">
   <g id="patch_2">
    <path d="M 47.8 318.2 
L 381.443358 318.2 
L 381.443358 26.8 
L 47.8 26.8 
z
" style="fill:#ffffff;"/>
   </g>
   <g id="matplotlib.axis_1">
    <g id="xtick_1">
     <g id="line2d_1">
      <defs>
       <path d="M 0 0 
L 0 3.5 
" id="mcb384dad90" style="stroke:#000000;stroke-width:0.8;"/>
      </defs>
      <g>
       <use style="stroke:#000000;stroke-width:0.8;" x="62.965607" xlink:href="#mcb384dad90" y="318.2"/>
      </g>
     </g>
     <g id="text_1">
      <!-- 0 -->
      <defs>
       <path d="M 31.78125 66.40625 
Q 24.171875 66.40625 20.328125 58.90625 
Q 16.5 51.421875 16.5 36.375 
Q 16.5 21.390625 20.328125 13.890625 
Q 24.171875 6.390625 31.78125 6.390625 
Q 39.453125 6.390625 43.28125 13.890625 
Q 47.125 21.390625 47.125 36.375 
Q 47.125 51.421875 43.28125 58.90625 
Q 39.453125 66.40625 31.78125 66.40625 
z
M 31.78125 74.21875 
Q 44.046875 74.21875 50.515625 64.515625 
Q 56.984375 54.828125 56.984375 36.375 
Q 56.984375 17.96875 50.515625 8.265625 
Q 44.046875 -1.421875 31.78125 -1.421875 
Q 19.53125 -1.421875 13.0625 8.265625 
Q 6.59375 17.96875 6.59375 36.375 
Q 6.59375 54.828125 13.0625 64.515625 
Q 19.53125 74.21875 31.78125 74.21875 
z
" id="DejaVuSans-48"/>
      </defs>
      <g transform="translate(59.784357 332.798438)scale(0.1 -0.1)">
       <use xlink:href="#DejaVuSans-48"/>
      </g>
     </g>
    </g>
    <g id="xtick_2">
     <g id="line2d_2">
      <g>
       <use style="stroke:#000000;stroke-width:0.8;" x="105.404785" xlink:href="#mcb384dad90" y="318.2"/>
      </g>
     </g>
     <g id="text_2">
      <!-- 200 -->
      <defs>
       <path d="M 19.1875 8.296875 
L 53.609375 8.296875 
L 53.609375 0 
L 7.328125 0 
L 7.328125 8.296875 
Q 12.9375 14.109375 22.625 23.890625 
Q 32.328125 33.6875 34.8125 36.53125 
Q 39.546875 41.84375 41.421875 45.53125 
Q 43.3125 49.21875 43.3125 52.78125 
Q 43.3125 58.59375 39.234375 62.25 
Q 35.15625 65.921875 28.609375 65.921875 
Q 23.96875 65.921875 18.8125 64.3125 
Q 13.671875 62.703125 7.8125 59.421875 
L 7.8125 69.390625 
Q 13.765625 71.78125 18.9375 73 
Q 24.125 74.21875 28.421875 74.21875 
Q 39.75 74.21875 46.484375 68.546875 
Q 53.21875 62.890625 53.21875 53.421875 
Q 53.21875 48.921875 51.53125 44.890625 
Q 49.859375 40.875 45.40625 35.40625 
Q 44.1875 33.984375 37.640625 27.21875 
Q 31.109375 20.453125 19.1875 8.296875 
z
" id="DejaVuSans-50"/>
      </defs>
      <g transform="translate(95.861035 332.798438)scale(0.1 -0.1)">
       <use xlink:href="#DejaVuSans-50"/>
       <use x="63.623047" xlink:href="#DejaVuSans-48"/>
       <use x="127.246094" xlink:href="#DejaVuSans-48"/>
      </g>
     </g>
    </g>
    <g id="xtick_3">
     <g id="line2d_3">
      <g>
       <use style="stroke:#000000;stroke-width:0.8;" x="147.843962" xlink:href="#mcb384dad90" y="318.2"/>
      </g>
     </g>
     <g id="text_3">
      <!-- 400 -->
      <defs>
       <path d="M 37.796875 64.3125 
L 12.890625 25.390625 
L 37.796875 25.390625 
z
M 35.203125 72.90625 
L 47.609375 72.90625 
L 47.609375 25.390625 
L 58.015625 25.390625 
L 58.015625 17.1875 
L 47.609375 17.1875 
L 47.609375 0 
L 37.796875 0 
L 37.796875 17.1875 
L 4.890625 17.1875 
L 4.890625 26.703125 
z
" id="DejaVuSans-52"/>
      </defs>
      <g transform="translate(138.300212 332.798438)scale(0.1 -0.1)">
       <use xlink:href="#DejaVuSans-52"/>
       <use x="63.623047" xlink:href="#DejaVuSans-48"/>
       <use x="127.246094" xlink:href="#DejaVuSans-48"/>
      </g>
     </g>
    </g>
    <g id="xtick_4">
     <g id="line2d_4">
      <g>
       <use style="stroke:#000000;stroke-width:0.8;" x="190.28314" xlink:href="#mcb384dad90" y="318.2"/>
      </g>
     </g>
     <g id="text_4">
      <!-- 600 -->
      <defs>
       <path d="M 33.015625 40.375 
Q 26.375 40.375 22.484375 35.828125 
Q 18.609375 31.296875 18.609375 23.390625 
Q 18.609375 15.53125 22.484375 10.953125 
Q 26.375 6.390625 33.015625 6.390625 
Q 39.65625 6.390625 43.53125 10.953125 
Q 47.40625 15.53125 47.40625 23.390625 
Q 47.40625 31.296875 43.53125 35.828125 
Q 39.65625 40.375 33.015625 40.375 
z
M 52.59375 71.296875 
L 52.59375 62.3125 
Q 48.875 64.0625 45.09375 64.984375 
Q 41.3125 65.921875 37.59375 65.921875 
Q 27.828125 65.921875 22.671875 59.328125 
Q 17.53125 52.734375 16.796875 39.40625 
Q 19.671875 43.65625 24.015625 45.921875 
Q 28.375 48.1875 33.59375 48.1875 
Q 44.578125 48.1875 50.953125 41.515625 
Q 57.328125 34.859375 57.328125 23.390625 
Q 57.328125 12.15625 50.6875 5.359375 
Q 44.046875 -1.421875 33.015625 -1.421875 
Q 20.359375 -1.421875 13.671875 8.265625 
Q 6.984375 17.96875 6.984375 36.375 
Q 6.984375 53.65625 15.1875 63.9375 
Q 23.390625 74.21875 37.203125 74.21875 
Q 40.921875 74.21875 44.703125 73.484375 
Q 48.484375 72.75 52.59375 71.296875 
z
" id="DejaVuSans-54"/>
      </defs>
      <g transform="translate(180.73939 332.798438)scale(0.1 -0.1)">
       <use xlink:href="#DejaVuSans-54"/>
       <use x="63.623047" xlink:href="#DejaVuSans-48"/>
       <use x="127.246094" xlink:href="#DejaVuSans-48"/>
      </g>
     </g>
    </g>
    <g id="xtick_5">
     <g id="line2d_5">
      <g>
       <use style="stroke:#000000;stroke-width:0.8;" x="232.722317" xlink:href="#mcb384dad90" y="318.2"/>
      </g>
     </g>
     <g id="text_5">
      <!-- 800 -->
      <defs>
       <path d="M 31.78125 34.625 
Q 24.75 34.625 20.71875 30.859375 
Q 16.703125 27.09375 16.703125 20.515625 
Q 16.703125 13.921875 20.71875 10.15625 
Q 24.75 6.390625 31.78125 6.390625 
Q 38.8125 6.390625 42.859375 10.171875 
Q 46.921875 13.96875 46.921875 20.515625 
Q 46.921875 27.09375 42.890625 30.859375 
Q 38.875 34.625 31.78125 34.625 
z
M 21.921875 38.8125 
Q 15.578125 40.375 12.03125 44.71875 
Q 8.5 49.078125 8.5 55.328125 
Q 8.5 64.0625 14.71875 69.140625 
Q 20.953125 74.21875 31.78125 74.21875 
Q 42.671875 74.21875 48.875 69.140625 
Q 55.078125 64.0625 55.078125 55.328125 
Q 55.078125 49.078125 51.53125 44.71875 
Q 48 40.375 41.703125 38.8125 
Q 48.828125 37.15625 52.796875 32.3125 
Q 56.78125 27.484375 56.78125 20.515625 
Q 56.78125 9.90625 50.3125 4.234375 
Q 43.84375 -1.421875 31.78125 -1.421875 
Q 19.734375 -1.421875 13.25 4.234375 
Q 6.78125 9.90625 6.78125 20.515625 
Q 6.78125 27.484375 10.78125 32.3125 
Q 14.796875 37.15625 21.921875 38.8125 
z
M 18.3125 54.390625 
Q 18.3125 48.734375 21.84375 45.5625 
Q 25.390625 42.390625 31.78125 42.390625 
Q 38.140625 42.390625 41.71875 45.5625 
Q 45.3125 48.734375 45.3125 54.390625 
Q 45.3125 60.0625 41.71875 63.234375 
Q 38.140625 66.40625 31.78125 66.40625 
Q 25.390625 66.40625 21.84375 63.234375 
Q 18.3125 60.0625 18.3125 54.390625 
z
" id="DejaVuSans-56"/>
      </defs>
      <g transform="translate(223.178567 332.798438)scale(0.1 -0.1)">
       <use xlink:href="#DejaVuSans-56"/>
       <use x="63.623047" xlink:href="#DejaVuSans-48"/>
       <use x="127.246094" xlink:href="#DejaVuSans-48"/>
      </g>
     </g>
    </g>
    <g id="xtick_6">
     <g id="line2d_6">
      <g>
       <use style="stroke:#000000;stroke-width:0.8;" x="275.161494" xlink:href="#mcb384dad90" y="318.2"/>
      </g>
     </g>
     <g id="text_6">
      <!-- 1000 -->
      <defs>
       <path d="M 12.40625 8.296875 
L 28.515625 8.296875 
L 28.515625 63.921875 
L 10.984375 60.40625 
L 10.984375 69.390625 
L 28.421875 72.90625 
L 38.28125 72.90625 
L 38.28125 8.296875 
L 54.390625 8.296875 
L 54.390625 0 
L 12.40625 0 
z
" id="DejaVuSans-49"/>
      </defs>
      <g transform="translate(262.436494 332.798438)scale(0.1 -0.1)">
       <use xlink:href="#DejaVuSans-49"/>
       <use x="63.623047" xlink:href="#DejaVuSans-48"/>
       <use x="127.246094" xlink:href="#DejaVuSans-48"/>
       <use x="190.869141" xlink:href="#DejaVuSans-48"/>
      </g>
     </g>
    </g>
    <g id="xtick_7">
     <g id="line2d_7">
      <g>
       <use style="stroke:#000000;stroke-width:0.8;" x="317.600672" xlink:href="#mcb384dad90" y="318.2"/>
      </g>
     </g>
     <g id="text_7">
      <!-- 1200 -->
      <g transform="translate(304.875672 332.798438)scale(0.1 -0.1)">
       <use xlink:href="#DejaVuSans-49"/>
       <use x="63.623047" xlink:href="#DejaVuSans-50"/>
       <use x="127.246094" xlink:href="#DejaVuSans-48"/>
       <use x="190.869141" xlink:href="#DejaVuSans-48"/>
      </g>
     </g>
    </g>
    <g id="xtick_8">
     <g id="line2d_8">
      <g>
       <use style="stroke:#000000;stroke-width:0.8;" x="360.039849" xlink:href="#mcb384dad90" y="318.2"/>
      </g>
     </g>
     <g id="text_8">
      <!-- 1400 -->
      <g transform="translate(347.314849 332.798438)scale(0.1 -0.1)">
       <use xlink:href="#DejaVuSans-49"/>
       <use x="63.623047" xlink:href="#DejaVuSans-52"/>
       <use x="127.246094" xlink:href="#DejaVuSans-48"/>
       <use x="190.869141" xlink:href="#DejaVuSans-48"/>
      </g>
     </g>
    </g>
    <g id="text_9">
     <!-- atmospheric concentration (ppm) -->
     <defs>
      <path d="M 34.28125 27.484375 
Q 23.390625 27.484375 19.1875 25 
Q 14.984375 22.515625 14.984375 16.5 
Q 14.984375 11.71875 18.140625 8.90625 
Q 21.296875 6.109375 26.703125 6.109375 
Q 34.1875 6.109375 38.703125 11.40625 
Q 43.21875 16.703125 43.21875 25.484375 
L 43.21875 27.484375 
z
M 52.203125 31.203125 
L 52.203125 0 
L 43.21875 0 
L 43.21875 8.296875 
Q 40.140625 3.328125 35.546875 0.953125 
Q 30.953125 -1.421875 24.3125 -1.421875 
Q 15.921875 -1.421875 10.953125 3.296875 
Q 6 8.015625 6 15.921875 
Q 6 25.140625 12.171875 29.828125 
Q 18.359375 34.515625 30.609375 34.515625 
L 43.21875 34.515625 
L 43.21875 35.40625 
Q 43.21875 41.609375 39.140625 45 
Q 35.0625 48.390625 27.6875 48.390625 
Q 23 48.390625 18.546875 47.265625 
Q 14.109375 46.140625 10.015625 43.890625 
L 10.015625 52.203125 
Q 14.9375 54.109375 19.578125 55.046875 
Q 24.21875 56 28.609375 56 
Q 40.484375 56 46.34375 49.84375 
Q 52.203125 43.703125 52.203125 31.203125 
z
" id="DejaVuSans-97"/>
      <path d="M 18.3125 70.21875 
L 18.3125 54.6875 
L 36.8125 54.6875 
L 36.8125 47.703125 
L 18.3125 47.703125 
L 18.3125 18.015625 
Q 18.3125 11.328125 20.140625 9.421875 
Q 21.96875 7.515625 27.59375 7.515625 
L 36.8125 7.515625 
L 36.8125 0 
L 27.59375 0 
Q 17.1875 0 13.234375 3.875 
Q 9.28125 7.765625 9.28125 18.015625 
L 9.28125 47.703125 
L 2.6875 47.703125 
L 2.6875 54.6875 
L 9.28125 54.6875 
L 9.28125 70.21875 
z
" id="DejaVuSans-116"/>
      <path d="M 52 44.1875 
Q 55.375 50.25 60.0625 53.125 
Q 64.75 56 71.09375 56 
Q 79.640625 56 84.28125 50.015625 
Q 88.921875 44.046875 88.921875 33.015625 
L 88.921875 0 
L 79.890625 0 
L 79.890625 32.71875 
Q 79.890625 40.578125 77.09375 44.375 
Q 74.3125 48.1875 68.609375 48.1875 
Q 61.625 48.1875 57.5625 43.546875 
Q 53.515625 38.921875 53.515625 30.90625 
L 53.515625 0 
L 44.484375 0 
L 44.484375 32.71875 
Q 44.484375 40.625 41.703125 44.40625 
Q 38.921875 48.1875 33.109375 48.1875 
Q 26.21875 48.1875 22.15625 43.53125 
Q 18.109375 38.875 18.109375 30.90625 
L 18.109375 0 
L 9.078125 0 
L 9.078125 54.6875 
L 18.109375 54.6875 
L 18.109375 46.1875 
Q 21.1875 51.21875 25.484375 53.609375 
Q 29.78125 56 35.6875 56 
Q 41.65625 56 45.828125 52.96875 
Q 50 49.953125 52 44.1875 
z
" id="DejaVuSans-109"/>
      <path d="M 30.609375 48.390625 
Q 23.390625 48.390625 19.1875 42.75 
Q 14.984375 37.109375 14.984375 27.296875 
Q 14.984375 17.484375 19.15625 11.84375 
Q 23.34375 6.203125 30.609375 6.203125 
Q 37.796875 6.203125 41.984375 11.859375 
Q 46.1875 17.53125 46.1875 27.296875 
Q 46.1875 37.015625 41.984375 42.703125 
Q 37.796875 48.390625 30.609375 48.390625 
z
M 30.609375 56 
Q 42.328125 56 49.015625 48.375 
Q 55.71875 40.765625 55.71875 27.296875 
Q 55.71875 13.875 49.015625 6.21875 
Q 42.328125 -1.421875 30.609375 -1.421875 
Q 18.84375 -1.421875 12.171875 6.21875 
Q 5.515625 13.875 5.515625 27.296875 
Q 5.515625 40.765625 12.171875 48.375 
Q 18.84375 56 30.609375 56 
z
" id="DejaVuSans-111"/>
      <path d="M 44.28125 53.078125 
L 44.28125 44.578125 
Q 40.484375 46.53125 36.375 47.5 
Q 32.28125 48.484375 27.875 48.484375 
Q 21.1875 48.484375 17.84375 46.4375 
Q 14.5 44.390625 14.5 40.28125 
Q 14.5 37.15625 16.890625 35.375 
Q 19.28125 33.59375 26.515625 31.984375 
L 29.59375 31.296875 
Q 39.15625 29.25 43.1875 25.515625 
Q 47.21875 21.78125 47.21875 15.09375 
Q 47.21875 7.46875 41.1875 3.015625 
Q 35.15625 -1.421875 24.609375 -1.421875 
Q 20.21875 -1.421875 15.453125 -0.5625 
Q 10.6875 0.296875 5.421875 2 
L 5.421875 11.28125 
Q 10.40625 8.6875 15.234375 7.390625 
Q 20.0625 6.109375 24.8125 6.109375 
Q 31.15625 6.109375 34.5625 8.28125 
Q 37.984375 10.453125 37.984375 14.40625 
Q 37.984375 18.0625 35.515625 20.015625 
Q 33.0625 21.96875 24.703125 23.78125 
L 21.578125 24.515625 
Q 13.234375 26.265625 9.515625 29.90625 
Q 5.8125 33.546875 5.8125 39.890625 
Q 5.8125 47.609375 11.28125 51.796875 
Q 16.75 56 26.8125 56 
Q 31.78125 56 36.171875 55.265625 
Q 40.578125 54.546875 44.28125 53.078125 
z
" id="DejaVuSans-115"/>
      <path d="M 18.109375 8.203125 
L 18.109375 -20.796875 
L 9.078125 -20.796875 
L 9.078125 54.6875 
L 18.109375 54.6875 
L 18.109375 46.390625 
Q 20.953125 51.265625 25.265625 53.625 
Q 29.59375 56 35.59375 56 
Q 45.5625 56 51.78125 48.09375 
Q 58.015625 40.1875 58.015625 27.296875 
Q 58.015625 14.40625 51.78125 6.484375 
Q 45.5625 -1.421875 35.59375 -1.421875 
Q 29.59375 -1.421875 25.265625 0.953125 
Q 20.953125 3.328125 18.109375 8.203125 
z
M 48.6875 27.296875 
Q 48.6875 37.203125 44.609375 42.84375 
Q 40.53125 48.484375 33.40625 48.484375 
Q 26.265625 48.484375 22.1875 42.84375 
Q 18.109375 37.203125 18.109375 27.296875 
Q 18.109375 17.390625 22.1875 11.75 
Q 26.265625 6.109375 33.40625 6.109375 
Q 40.53125 6.109375 44.609375 11.75 
Q 48.6875 17.390625 48.6875 27.296875 
z
" id="DejaVuSans-112"/>
      <path d="M 54.890625 33.015625 
L 54.890625 0 
L 45.90625 0 
L 45.90625 32.71875 
Q 45.90625 40.484375 42.875 44.328125 
Q 39.84375 48.1875 33.796875 48.1875 
Q 26.515625 48.1875 22.3125 43.546875 
Q 18.109375 38.921875 18.109375 30.90625 
L 18.109375 0 
L 9.078125 0 
L 9.078125 75.984375 
L 18.109375 75.984375 
L 18.109375 46.1875 
Q 21.34375 51.125 25.703125 53.5625 
Q 30.078125 56 35.796875 56 
Q 45.21875 56 50.046875 50.171875 
Q 54.890625 44.34375 54.890625 33.015625 
z
" id="DejaVuSans-104"/>
      <path d="M 56.203125 29.59375 
L 56.203125 25.203125 
L 14.890625 25.203125 
Q 15.484375 15.921875 20.484375 11.0625 
Q 25.484375 6.203125 34.421875 6.203125 
Q 39.59375 6.203125 44.453125 7.46875 
Q 49.3125 8.734375 54.109375 11.28125 
L 54.109375 2.78125 
Q 49.265625 0.734375 44.1875 -0.34375 
Q 39.109375 -1.421875 33.890625 -1.421875 
Q 20.796875 -1.421875 13.15625 6.1875 
Q 5.515625 13.8125 5.515625 26.8125 
Q 5.515625 40.234375 12.765625 48.109375 
Q 20.015625 56 32.328125 56 
Q 43.359375 56 49.78125 48.890625 
Q 56.203125 41.796875 56.203125 29.59375 
z
M 47.21875 32.234375 
Q 47.125 39.59375 43.09375 43.984375 
Q 39.0625 48.390625 32.421875 48.390625 
Q 24.90625 48.390625 20.390625 44.140625 
Q 15.875 39.890625 15.1875 32.171875 
z
" id="DejaVuSans-101"/>
      <path d="M 41.109375 46.296875 
Q 39.59375 47.171875 37.8125 47.578125 
Q 36.03125 48 33.890625 48 
Q 26.265625 48 22.1875 43.046875 
Q 18.109375 38.09375 18.109375 28.8125 
L 18.109375 0 
L 9.078125 0 
L 9.078125 54.6875 
L 18.109375 54.6875 
L 18.109375 46.1875 
Q 20.953125 51.171875 25.484375 53.578125 
Q 30.03125 56 36.53125 56 
Q 37.453125 56 38.578125 55.875 
Q 39.703125 55.765625 41.0625 55.515625 
z
" id="DejaVuSans-114"/>
      <path d="M 9.421875 54.6875 
L 18.40625 54.6875 
L 18.40625 0 
L 9.421875 0 
z
M 9.421875 75.984375 
L 18.40625 75.984375 
L 18.40625 64.59375 
L 9.421875 64.59375 
z
" id="DejaVuSans-105"/>
      <path d="M 48.78125 52.59375 
L 48.78125 44.1875 
Q 44.96875 46.296875 41.140625 47.34375 
Q 37.3125 48.390625 33.40625 48.390625 
Q 24.65625 48.390625 19.8125 42.84375 
Q 14.984375 37.3125 14.984375 27.296875 
Q 14.984375 17.28125 19.8125 11.734375 
Q 24.65625 6.203125 33.40625 6.203125 
Q 37.3125 6.203125 41.140625 7.25 
Q 44.96875 8.296875 48.78125 10.40625 
L 48.78125 2.09375 
Q 45.015625 0.34375 40.984375 -0.53125 
Q 36.96875 -1.421875 32.421875 -1.421875 
Q 20.0625 -1.421875 12.78125 6.34375 
Q 5.515625 14.109375 5.515625 27.296875 
Q 5.515625 40.671875 12.859375 48.328125 
Q 20.21875 56 33.015625 56 
Q 37.15625 56 41.109375 55.140625 
Q 45.0625 54.296875 48.78125 52.59375 
z
" id="DejaVuSans-99"/>
      <path id="DejaVuSans-32"/>
      <path d="M 54.890625 33.015625 
L 54.890625 0 
L 45.90625 0 
L 45.90625 32.71875 
Q 45.90625 40.484375 42.875 44.328125 
Q 39.84375 48.1875 33.796875 48.1875 
Q 26.515625 48.1875 22.3125 43.546875 
Q 18.109375 38.921875 18.109375 30.90625 
L 18.109375 0 
L 9.078125 0 
L 9.078125 54.6875 
L 18.109375 54.6875 
L 18.109375 46.1875 
Q 21.34375 51.125 25.703125 53.5625 
Q 30.078125 56 35.796875 56 
Q 45.21875 56 50.046875 50.171875 
Q 54.890625 44.34375 54.890625 33.015625 
z
" id="DejaVuSans-110"/>
      <path d="M 31 75.875 
Q 24.46875 64.65625 21.28125 53.65625 
Q 18.109375 42.671875 18.109375 31.390625 
Q 18.109375 20.125 21.3125 9.0625 
Q 24.515625 -2 31 -13.1875 
L 23.1875 -13.1875 
Q 15.875 -1.703125 12.234375 9.375 
Q 8.59375 20.453125 8.59375 31.390625 
Q 8.59375 42.28125 12.203125 53.3125 
Q 15.828125 64.359375 23.1875 75.875 
z
" id="DejaVuSans-40"/>
      <path d="M 8.015625 75.875 
L 15.828125 75.875 
Q 23.140625 64.359375 26.78125 53.3125 
Q 30.421875 42.28125 30.421875 31.390625 
Q 30.421875 20.453125 26.78125 9.375 
Q 23.140625 -1.703125 15.828125 -13.1875 
L 8.015625 -13.1875 
Q 14.5 -2 17.703125 9.0625 
Q 20.90625 20.125 20.90625 31.390625 
Q 20.90625 42.671875 17.703125 53.65625 
Q 14.5 64.65625 8.015625 75.875 
z
" id="DejaVuSans-41"/>
     </defs>
     <g transform="translate(130.52246 346.476562)scale(0.1 -0.1)">
      <use xlink:href="#DejaVuSans-97"/>
      <use x="61.279297" xlink:href="#DejaVuSans-116"/>
      <use x="100.488281" xlink:href="#DejaVuSans-109"/>
      <use x="197.900391" xlink:href="#DejaVuSans-111"/>
      <use x="259.082031" xlink:href="#DejaVuSans-115"/>
      <use x="311.181641" xlink:href="#DejaVuSans-112"/>
      <use x="374.658203" xlink:href="#DejaVuSans-104"/>
      <use x="438.037109" xlink:href="#DejaVuSans-101"/>
      <use x="499.560547" xlink:href="#DejaVuSans-114"/>
      <use x="540.673828" xlink:href="#DejaVuSans-105"/>
      <use x="568.457031" xlink:href="#DejaVuSans-99"/>
      <use x="623.4375" xlink:href="#DejaVuSans-32"/>
      <use x="655.224609" xlink:href="#DejaVuSans-99"/>
      <use x="710.205078" xlink:href="#DejaVuSans-111"/>
      <use x="771.386719" xlink:href="#DejaVuSans-110"/>
      <use x="834.765625" xlink:href="#DejaVuSans-99"/>
      <use x="889.746094" xlink:href="#DejaVuSans-101"/>
      <use x="951.269531" xlink:href="#DejaVuSans-110"/>
      <use x="1014.648438" xlink:href="#DejaVuSans-116"/>
      <use x="1053.857422" xlink:href="#DejaVuSans-114"/>
      <use x="1094.970703" xlink:href="#DejaVuSans-97"/>
      <use x="1156.25" xlink:href="#DejaVuSans-116"/>
      <use x="1195.458984" xlink:href="#DejaVuSans-105"/>
      <use x="1223.242188" xlink:href="#DejaVuSans-111"/>
      <use x="1284.423828" xlink:href="#DejaVuSans-110"/>
      <use x="1347.802734" xlink:href="#DejaVuSans-32"/>
      <use x="1379.589844" xlink:href="#DejaVuSans-40"/>
      <use x="1418.603516" xlink:href="#DejaVuSans-112"/>
      <use x="1482.080078" xlink:href="#DejaVuSans-112"/>
      <use x="1545.556641" xlink:href="#DejaVuSans-109"/>
      <use x="1642.96875" xlink:href="#DejaVuSans-41"/>
     </g>
    </g>
   </g>
   <g id="matplotlib.axis_2">
    <g id="ytick_1">
     <g id="line2d_9">
      <defs>
       <path d="M 0 0 
L -3.5 0 
" id="m41b4ef07be" style="stroke:#000000;stroke-width:0.8;"/>
      </defs>
      <g>
       <use style="stroke:#000000;stroke-width:0.8;" x="47.8" xlink:href="#m41b4ef07be" y="291.679789"/>
      </g>
     </g>
     <g id="text_10">
      <!-- 0.0 -->
      <defs>
       <path d="M 10.6875 12.40625 
L 21 12.40625 
L 21 0 
L 10.6875 0 
z
" id="DejaVuSans-46"/>
      </defs>
      <g transform="translate(24.896875 295.479008)scale(0.1 -0.1)">
       <use xlink:href="#DejaVuSans-48"/>
       <use x="63.623047" xlink:href="#DejaVuSans-46"/>
       <use x="95.410156" xlink:href="#DejaVuSans-48"/>
      </g>
     </g>
    </g>
    <g id="ytick_2">
     <g id="line2d_10">
      <g>
       <use style="stroke:#000000;stroke-width:0.8;" x="47.8" xlink:href="#m41b4ef07be" y="248.00586"/>
      </g>
     </g>
     <g id="text_11">
      <!-- 0.5 -->
      <defs>
       <path d="M 10.796875 72.90625 
L 49.515625 72.90625 
L 49.515625 64.59375 
L 19.828125 64.59375 
L 19.828125 46.734375 
Q 21.96875 47.46875 24.109375 47.828125 
Q 26.265625 48.1875 28.421875 48.1875 
Q 40.625 48.1875 47.75 41.5 
Q 54.890625 34.8125 54.890625 23.390625 
Q 54.890625 11.625 47.5625 5.09375 
Q 40.234375 -1.421875 26.90625 -1.421875 
Q 22.3125 -1.421875 17.546875 -0.640625 
Q 12.796875 0.140625 7.71875 1.703125 
L 7.71875 11.625 
Q 12.109375 9.234375 16.796875 8.0625 
Q 21.484375 6.890625 26.703125 6.890625 
Q 35.15625 6.890625 40.078125 11.328125 
Q 45.015625 15.765625 45.015625 23.390625 
Q 45.015625 31 40.078125 35.4375 
Q 35.15625 39.890625 26.703125 39.890625 
Q 22.75 39.890625 18.8125 39.015625 
Q 14.890625 38.140625 10.796875 36.28125 
z
" id="DejaVuSans-53"/>
      </defs>
      <g transform="translate(24.896875 251.805079)scale(0.1 -0.1)">
       <use xlink:href="#DejaVuSans-48"/>
       <use x="63.623047" xlink:href="#DejaVuSans-46"/>
       <use x="95.410156" xlink:href="#DejaVuSans-53"/>
      </g>
     </g>
    </g>
    <g id="ytick_3">
     <g id="line2d_11">
      <g>
       <use style="stroke:#000000;stroke-width:0.8;" x="47.8" xlink:href="#m41b4ef07be" y="204.331932"/>
      </g>
     </g>
     <g id="text_12">
      <!-- 1.0 -->
      <g transform="translate(24.896875 208.131151)scale(0.1 -0.1)">
       <use xlink:href="#DejaVuSans-49"/>
       <use x="63.623047" xlink:href="#DejaVuSans-46"/>
       <use x="95.410156" xlink:href="#DejaVuSans-48"/>
      </g>
     </g>
    </g>
    <g id="ytick_4">
     <g id="line2d_12">
      <g>
       <use style="stroke:#000000;stroke-width:0.8;" x="47.8" xlink:href="#m41b4ef07be" y="160.658003"/>
      </g>
     </g>
     <g id="text_13">
      <!-- 1.5 -->
      <g transform="translate(24.896875 164.457222)scale(0.1 -0.1)">
       <use xlink:href="#DejaVuSans-49"/>
       <use x="63.623047" xlink:href="#DejaVuSans-46"/>
       <use x="95.410156" xlink:href="#DejaVuSans-53"/>
      </g>
     </g>
    </g>
    <g id="ytick_5">
     <g id="line2d_13">
      <g>
       <use style="stroke:#000000;stroke-width:0.8;" x="47.8" xlink:href="#m41b4ef07be" y="116.984075"/>
      </g>
     </g>
     <g id="text_14">
      <!-- 2.0 -->
      <g transform="translate(24.896875 120.783294)scale(0.1 -0.1)">
       <use xlink:href="#DejaVuSans-50"/>
       <use x="63.623047" xlink:href="#DejaVuSans-46"/>
       <use x="95.410156" xlink:href="#DejaVuSans-48"/>
      </g>
     </g>
    </g>
    <g id="ytick_6">
     <g id="line2d_14">
      <g>
       <use style="stroke:#000000;stroke-width:0.8;" x="47.8" xlink:href="#m41b4ef07be" y="73.310146"/>
      </g>
     </g>
     <g id="text_15">
      <!-- 2.5 -->
      <g transform="translate(24.896875 77.109365)scale(0.1 -0.1)">
       <use xlink:href="#DejaVuSans-50"/>
       <use x="63.623047" xlink:href="#DejaVuSans-46"/>
       <use x="95.410156" xlink:href="#DejaVuSans-53"/>
      </g>
     </g>
    </g>
    <g id="ytick_7">
     <g id="line2d_15">
      <g>
       <use style="stroke:#000000;stroke-width:0.8;" x="47.8" xlink:href="#m41b4ef07be" y="29.636218"/>
      </g>
     </g>
     <g id="text_16">
      <!-- 3.0 -->
      <defs>
       <path d="M 40.578125 39.3125 
Q 47.65625 37.796875 51.625 33 
Q 55.609375 28.21875 55.609375 21.1875 
Q 55.609375 10.40625 48.1875 4.484375 
Q 40.765625 -1.421875 27.09375 -1.421875 
Q 22.515625 -1.421875 17.65625 -0.515625 
Q 12.796875 0.390625 7.625 2.203125 
L 7.625 11.71875 
Q 11.71875 9.328125 16.59375 8.109375 
Q 21.484375 6.890625 26.8125 6.890625 
Q 36.078125 6.890625 40.9375 10.546875 
Q 45.796875 14.203125 45.796875 21.1875 
Q 45.796875 27.640625 41.28125 31.265625 
Q 36.765625 34.90625 28.71875 34.90625 
L 20.21875 34.90625 
L 20.21875 43.015625 
L 29.109375 43.015625 
Q 36.375 43.015625 40.234375 45.921875 
Q 44.09375 48.828125 44.09375 54.296875 
Q 44.09375 59.90625 40.109375 62.90625 
Q 36.140625 65.921875 28.71875 65.921875 
Q 24.65625 65.921875 20.015625 65.03125 
Q 15.375 64.15625 9.8125 62.3125 
L 9.8125 71.09375 
Q 15.4375 72.65625 20.34375 73.4375 
Q 25.25 74.21875 29.59375 74.21875 
Q 40.828125 74.21875 47.359375 69.109375 
Q 53.90625 64.015625 53.90625 55.328125 
Q 53.90625 49.265625 50.4375 45.09375 
Q 46.96875 40.921875 40.578125 39.3125 
z
" id="DejaVuSans-51"/>
      </defs>
      <g transform="translate(24.896875 33.435436)scale(0.1 -0.1)">
       <use xlink:href="#DejaVuSans-51"/>
       <use x="63.623047" xlink:href="#DejaVuSans-46"/>
       <use x="95.410156" xlink:href="#DejaVuSans-48"/>
      </g>
     </g>
    </g>
    <g id="text_17">
     <!-- % deviation from Etminan -->
     <defs>
      <path d="M 72.703125 32.078125 
Q 68.453125 32.078125 66.03125 28.46875 
Q 63.625 24.859375 63.625 18.40625 
Q 63.625 12.0625 66.03125 8.421875 
Q 68.453125 4.78125 72.703125 4.78125 
Q 76.859375 4.78125 79.265625 8.421875 
Q 81.6875 12.0625 81.6875 18.40625 
Q 81.6875 24.8125 79.265625 28.4375 
Q 76.859375 32.078125 72.703125 32.078125 
z
M 72.703125 38.28125 
Q 80.421875 38.28125 84.953125 32.90625 
Q 89.5 27.546875 89.5 18.40625 
Q 89.5 9.28125 84.9375 3.921875 
Q 80.375 -1.421875 72.703125 -1.421875 
Q 64.890625 -1.421875 60.34375 3.921875 
Q 55.8125 9.28125 55.8125 18.40625 
Q 55.8125 27.59375 60.375 32.9375 
Q 64.9375 38.28125 72.703125 38.28125 
z
M 22.3125 68.015625 
Q 18.109375 68.015625 15.6875 64.375 
Q 13.28125 60.75 13.28125 54.390625 
Q 13.28125 47.953125 15.671875 44.328125 
Q 18.0625 40.71875 22.3125 40.71875 
Q 26.5625 40.71875 28.96875 44.328125 
Q 31.390625 47.953125 31.390625 54.390625 
Q 31.390625 60.6875 28.953125 64.34375 
Q 26.515625 68.015625 22.3125 68.015625 
z
M 66.40625 74.21875 
L 74.21875 74.21875 
L 28.609375 -1.421875 
L 20.796875 -1.421875 
z
M 22.3125 74.21875 
Q 30.03125 74.21875 34.609375 68.875 
Q 39.203125 63.53125 39.203125 54.390625 
Q 39.203125 45.171875 34.640625 39.84375 
Q 30.078125 34.515625 22.3125 34.515625 
Q 14.546875 34.515625 10.03125 39.859375 
Q 5.515625 45.21875 5.515625 54.390625 
Q 5.515625 63.484375 10.046875 68.84375 
Q 14.59375 74.21875 22.3125 74.21875 
z
" id="DejaVuSans-37"/>
      <path d="M 45.40625 46.390625 
L 45.40625 75.984375 
L 54.390625 75.984375 
L 54.390625 0 
L 45.40625 0 
L 45.40625 8.203125 
Q 42.578125 3.328125 38.25 0.953125 
Q 33.9375 -1.421875 27.875 -1.421875 
Q 17.96875 -1.421875 11.734375 6.484375 
Q 5.515625 14.40625 5.515625 27.296875 
Q 5.515625 40.1875 11.734375 48.09375 
Q 17.96875 56 27.875 56 
Q 33.9375 56 38.25 53.625 
Q 42.578125 51.265625 45.40625 46.390625 
z
M 14.796875 27.296875 
Q 14.796875 17.390625 18.875 11.75 
Q 22.953125 6.109375 30.078125 6.109375 
Q 37.203125 6.109375 41.296875 11.75 
Q 45.40625 17.390625 45.40625 27.296875 
Q 45.40625 37.203125 41.296875 42.84375 
Q 37.203125 48.484375 30.078125 48.484375 
Q 22.953125 48.484375 18.875 42.84375 
Q 14.796875 37.203125 14.796875 27.296875 
z
" id="DejaVuSans-100"/>
      <path d="M 2.984375 54.6875 
L 12.5 54.6875 
L 29.59375 8.796875 
L 46.6875 54.6875 
L 56.203125 54.6875 
L 35.6875 0 
L 23.484375 0 
z
" id="DejaVuSans-118"/>
      <path d="M 37.109375 75.984375 
L 37.109375 68.5 
L 28.515625 68.5 
Q 23.6875 68.5 21.796875 66.546875 
Q 19.921875 64.59375 19.921875 59.515625 
L 19.921875 54.6875 
L 34.71875 54.6875 
L 34.71875 47.703125 
L 19.921875 47.703125 
L 19.921875 0 
L 10.890625 0 
L 10.890625 47.703125 
L 2.296875 47.703125 
L 2.296875 54.6875 
L 10.890625 54.6875 
L 10.890625 58.5 
Q 10.890625 67.625 15.140625 71.796875 
Q 19.390625 75.984375 28.609375 75.984375 
z
" id="DejaVuSans-102"/>
      <path d="M 9.8125 72.90625 
L 55.90625 72.90625 
L 55.90625 64.59375 
L 19.671875 64.59375 
L 19.671875 43.015625 
L 54.390625 43.015625 
L 54.390625 34.71875 
L 19.671875 34.71875 
L 19.671875 8.296875 
L 56.78125 8.296875 
L 56.78125 0 
L 9.8125 0 
z
" id="DejaVuSans-69"/>
     </defs>
     <g transform="translate(18.817188 237.782813)rotate(-90)scale(0.1 -0.1)">
      <use xlink:href="#DejaVuSans-37"/>
      <use x="95.019531" xlink:href="#DejaVuSans-32"/>
      <use x="126.806641" xlink:href="#DejaVuSans-100"/>
      <use x="190.283203" xlink:href="#DejaVuSans-101"/>
      <use x="251.806641" xlink:href="#DejaVuSans-118"/>
      <use x="310.986328" xlink:href="#DejaVuSans-105"/>
      <use x="338.769531" xlink:href="#DejaVuSans-97"/>
      <use x="400.048828" xlink:href="#DejaVuSans-116"/>
      <use x="439.257812" xlink:href="#DejaVuSans-105"/>
      <use x="467.041016" xlink:href="#DejaVuSans-111"/>
      <use x="528.222656" xlink:href="#DejaVuSans-110"/>
      <use x="591.601562" xlink:href="#DejaVuSans-32"/>
      <use x="623.388672" xlink:href="#DejaVuSans-102"/>
      <use x="658.59375" xlink:href="#DejaVuSans-114"/>
      <use x="699.675781" xlink:href="#DejaVuSans-111"/>
      <use x="760.857422" xlink:href="#DejaVuSans-109"/>
      <use x="858.269531" xlink:href="#DejaVuSans-32"/>
      <use x="890.056641" xlink:href="#DejaVuSans-69"/>
      <use x="953.240234" xlink:href="#DejaVuSans-116"/>
      <use x="992.449219" xlink:href="#DejaVuSans-109"/>
      <use x="1089.861328" xlink:href="#DejaVuSans-105"/>
      <use x="1117.644531" xlink:href="#DejaVuSans-110"/>
      <use x="1181.023438" xlink:href="#DejaVuSans-97"/>
      <use x="1242.302734" xlink:href="#DejaVuSans-110"/>
     </g>
    </g>
   </g>
   <g id="line2d_16">
    <path clip-path="url(#p3240ff1d28)" d="M 121.967009 304.954545 
L 123.314118 304.322633 
L 123.160276 304.314453 
L 123.101922 304.294369 
L 123.20802 304.215706 
L 123.632411 303.968519 
L 124.650952 303.377511 
L 126.30608 302.598916 
L 127.266266 301.977843 
L 128.157489 301.439172 
L 128.809991 301.031881 
L 128.772857 300.875828 
L 128.85243 300.644855 
L 129.260907 300.370575 
L 133.114385 298.272419 
L 134.374828 297.589932 
L 135.054385 297.224862 
L 135.578509 296.868725 
L 137.390662 296.004896 
L 138.672325 295.147104 
L 144.618585 292.509681 
L 149.441547 290.744297 
L 154.668912 288.879402 
L 156.132365 288.134053 
L 156.675767 287.653693 
L 156.896797 287.233179 
L 156.633996 287.155634 
L 155.05765 287.251466 
L 152.494772 287.600533 
L 147.661752 288.585998 
L 147.661752 288.585998 
" style="fill:none;stroke:#0000ff;stroke-linecap:square;stroke-width:1.5;"/>
   </g>
   <g id="line2d_17">
    <path clip-path="url(#p3240ff1d28)" d="M 121.967009 304.954545 
L 123.314118 304.322633 
L 123.160276 304.314453 
L 123.101922 304.294369 
L 123.20802 304.215706 
L 123.632411 303.968519 
L 124.650952 303.377511 
L 126.30608 302.598916 
L 127.266266 301.977843 
L 128.157489 301.439172 
L 128.809991 301.031881 
L 128.772857 300.875828 
L 128.85243 300.644855 
L 129.260907 300.370575 
L 133.114385 298.272419 
L 134.374828 297.589932 
L 135.054385 297.224862 
L 135.578509 296.868725 
L 137.390662 296.004896 
L 138.672325 295.147104 
L 144.618585 292.509256 
L 155.820164 288.19379 
L 171.355065 282.336587 
L 174.220371 280.98545 
L 175.460024 280.203084 
L 175.841529 279.67331 
L 176.49283 279.006201 
L 178.238742 277.519351 
L 178.263575 277.189601 
L 178.178493 277.026903 
L 178.178493 277.026903 
" style="fill:none;stroke:#daa520;stroke-linecap:square;stroke-width:1.5;"/>
   </g>
   <g id="line2d_18">
    <path clip-path="url(#p3240ff1d28)" d="M 121.967009 304.954545 
L 123.314118 304.322633 
L 123.160276 304.314453 
L 123.101922 304.294369 
L 123.20802 304.215706 
L 123.632411 303.968519 
L 124.650952 303.377511 
L 126.30608 302.598916 
L 127.266266 301.977843 
L 128.157489 301.439172 
L 128.809991 301.031881 
L 128.772857 300.875828 
L 128.85243 300.644855 
L 129.260907 300.370575 
L 133.114385 298.272419 
L 134.374828 297.589932 
L 135.054385 297.224862 
L 135.578509 296.868725 
L 137.390662 296.004896 
L 138.672325 295.147104 
L 144.618585 292.504793 
L 154.386386 288.384906 
L 161.874286 285.074664 
L 181.474086 276.503914 
L 188.087585 273.361824 
L 193.799593 270.439569 
L 197.84766 268.129952 
L 204.377855 264.07749 
L 210.890344 259.744084 
L 217.42223 255.055722 
L 222.536653 251.222167 
L 222.536653 251.222167 
" style="fill:none;stroke:#808080;stroke-linecap:square;stroke-width:1.5;"/>
   </g>
   <g id="line2d_19">
    <path clip-path="url(#p3240ff1d28)" d="M 121.967009 304.954545 
L 123.314118 304.322633 
L 123.160276 304.314453 
L 123.101922 304.294369 
L 123.20802 304.215706 
L 123.632411 303.968519 
L 124.650952 303.377511 
L 126.30608 302.598916 
L 127.266266 301.977843 
L 128.157489 301.439172 
L 128.809991 301.031881 
L 128.772857 300.875828 
L 128.85243 300.644855 
L 129.260907 300.370575 
L 133.114385 298.272419 
L 134.374828 297.589932 
L 135.054385 297.224862 
L 135.578509 296.868725 
L 137.390662 296.004896 
L 138.672325 295.147104 
L 144.618585 292.505213 
L 177.666564 279.21117 
L 185.369411 275.849575 
L 192.514698 272.498842 
L 198.620426 269.397821 
L 204.98932 265.888756 
L 209.996553 262.924643 
L 215.113343 259.681944 
L 220.313882 256.151452 
L 225.644419 252.284285 
L 231.102367 248.052848 
L 236.631419 243.468722 
L 242.229692 238.514413 
L 247.953059 233.125265 
L 253.756037 227.319199 
L 259.600166 221.112901 
L 265.499409 214.47841 
L 271.48634 207.373256 
L 277.520922 199.824165 
L 283.56216 191.866416 
L 289.659057 183.427941 
L 295.835803 174.457296 
L 302.038056 165.011055 
L 308.244191 155.111321 
L 314.530091 144.628798 
L 320.882515 133.562107 
L 327.238397 122.002275 
L 333.61813 109.905132 
L 340.085479 97.135709 
L 346.592635 83.76363 
L 353.096736 69.863696 
L 359.644656 55.32813 
L 366.277751 40.045455 
L 366.277751 40.045455 
" style="fill:none;stroke:#ff0000;stroke-linecap:square;stroke-width:1.5;"/>
   </g>
   <g id="line2d_20">
    <path clip-path="url(#p3240ff1d28)" d="M 62.965607 291.679789 
" style="fill:none;stroke:#0000ff;stroke-linecap:square;stroke-width:1.5;"/>
   </g>
   <g id="line2d_21">
    <path clip-path="url(#p3240ff1d28)" d="M 62.965607 291.679789 
" style="fill:none;stroke:#daa520;stroke-linecap:square;stroke-width:1.5;"/>
   </g>
   <g id="line2d_22">
    <path clip-path="url(#p3240ff1d28)" d="M 62.965607 291.679789 
" style="fill:none;stroke:#808080;stroke-linecap:square;stroke-width:1.5;"/>
   </g>
   <g id="line2d_23">
    <path clip-path="url(#p3240ff1d28)" d="M 62.965607 291.679789 
" style="fill:none;stroke:#ff0000;stroke-linecap:square;stroke-width:1.5;"/>
   </g>
   <g id="patch_3">
    <path d="M 47.8 318.2 
L 47.8 26.8 
" style="fill:none;stroke:#000000;stroke-linecap:square;stroke-linejoin:miter;stroke-width:0.8;"/>
   </g>
   <g id="patch_4">
    <path d="M 381.443358 318.2 
L 381.443358 26.8 
" style="fill:none;stroke:#000000;stroke-linecap:square;stroke-linejoin:miter;stroke-width:0.8;"/>
   </g>
   <g id="patch_5">
    <path d="M 47.8 318.2 
L 381.443358 318.2 
" style="fill:none;stroke:#000000;stroke-linecap:square;stroke-linejoin:miter;stroke-width:0.8;"/>
   </g>
   <g id="patch_6">
    <path d="M 47.8 26.8 
L 381.443358 26.8 
" style="fill:none;stroke:#000000;stroke-linecap:square;stroke-linejoin:miter;stroke-width:0.8;"/>
   </g>
   <g id="text_18">
    <!-- CO2 -->
    <defs>
     <path d="M 64.40625 67.28125 
L 64.40625 56.890625 
Q 59.421875 61.53125 53.78125 63.8125 
Q 48.140625 66.109375 41.796875 66.109375 
Q 29.296875 66.109375 22.65625 58.46875 
Q 16.015625 50.828125 16.015625 36.375 
Q 16.015625 21.96875 22.65625 14.328125 
Q 29.296875 6.6875 41.796875 6.6875 
Q 48.140625 6.6875 53.78125 8.984375 
Q 59.421875 11.28125 64.40625 15.921875 
L 64.40625 5.609375 
Q 59.234375 2.09375 53.4375 0.328125 
Q 47.65625 -1.421875 41.21875 -1.421875 
Q 24.65625 -1.421875 15.125 8.703125 
Q 5.609375 18.84375 5.609375 36.375 
Q 5.609375 53.953125 15.125 64.078125 
Q 24.65625 74.21875 41.21875 74.21875 
Q 47.75 74.21875 53.53125 72.484375 
Q 59.328125 70.75 64.40625 67.28125 
z
" id="DejaVuSans-67"/>
     <path d="M 39.40625 66.21875 
Q 28.65625 66.21875 22.328125 58.203125 
Q 16.015625 50.203125 16.015625 36.375 
Q 16.015625 22.609375 22.328125 14.59375 
Q 28.65625 6.59375 39.40625 6.59375 
Q 50.140625 6.59375 56.421875 14.59375 
Q 62.703125 22.609375 62.703125 36.375 
Q 62.703125 50.203125 56.421875 58.203125 
Q 50.140625 66.21875 39.40625 66.21875 
z
M 39.40625 74.21875 
Q 54.734375 74.21875 63.90625 63.9375 
Q 73.09375 53.65625 73.09375 36.375 
Q 73.09375 19.140625 63.90625 8.859375 
Q 54.734375 -1.421875 39.40625 -1.421875 
Q 24.03125 -1.421875 14.8125 8.828125 
Q 5.609375 19.09375 5.609375 36.375 
Q 5.609375 53.65625 14.8125 63.9375 
Q 24.03125 74.21875 39.40625 74.21875 
z
" id="DejaVuSans-79"/>
    </defs>
    <g transform="translate(201.891366 20.8)scale(0.12 -0.12)">
     <use xlink:href="#DejaVuSans-67"/>
     <use x="69.824219" xlink:href="#DejaVuSans-79"/>
     <use x="148.535156" xlink:href="#DejaVuSans-50"/>
    </g>
   </g>
   <g id="legend_1">
    <g id="line2d_24">
     <path d="M 56.8 39.898438 
L 76.8 39.898438 
" style="fill:none;stroke:#0000ff;stroke-linecap:square;stroke-width:1.5;"/>
    </g>
    <g id="line2d_25"/>
    <g id="text_19">
     <!-- RCP3PD -->
     <defs>
      <path d="M 44.390625 34.1875 
Q 47.5625 33.109375 50.5625 29.59375 
Q 53.5625 26.078125 56.59375 19.921875 
L 66.609375 0 
L 56 0 
L 46.6875 18.703125 
Q 43.0625 26.03125 39.671875 28.421875 
Q 36.28125 30.8125 30.421875 30.8125 
L 19.671875 30.8125 
L 19.671875 0 
L 9.8125 0 
L 9.8125 72.90625 
L 32.078125 72.90625 
Q 44.578125 72.90625 50.734375 67.671875 
Q 56.890625 62.453125 56.890625 51.90625 
Q 56.890625 45.015625 53.6875 40.46875 
Q 50.484375 35.9375 44.390625 34.1875 
z
M 19.671875 64.796875 
L 19.671875 38.921875 
L 32.078125 38.921875 
Q 39.203125 38.921875 42.84375 42.21875 
Q 46.484375 45.515625 46.484375 51.90625 
Q 46.484375 58.296875 42.84375 61.546875 
Q 39.203125 64.796875 32.078125 64.796875 
z
" id="DejaVuSans-82"/>
      <path d="M 19.671875 64.796875 
L 19.671875 37.40625 
L 32.078125 37.40625 
Q 38.96875 37.40625 42.71875 40.96875 
Q 46.484375 44.53125 46.484375 51.125 
Q 46.484375 57.671875 42.71875 61.234375 
Q 38.96875 64.796875 32.078125 64.796875 
z
M 9.8125 72.90625 
L 32.078125 72.90625 
Q 44.34375 72.90625 50.609375 67.359375 
Q 56.890625 61.8125 56.890625 51.125 
Q 56.890625 40.328125 50.609375 34.8125 
Q 44.34375 29.296875 32.078125 29.296875 
L 19.671875 29.296875 
L 19.671875 0 
L 9.8125 0 
z
" id="DejaVuSans-80"/>
      <path d="M 19.671875 64.796875 
L 19.671875 8.109375 
L 31.59375 8.109375 
Q 46.6875 8.109375 53.6875 14.9375 
Q 60.6875 21.78125 60.6875 36.53125 
Q 60.6875 51.171875 53.6875 57.984375 
Q 46.6875 64.796875 31.59375 64.796875 
z
M 9.8125 72.90625 
L 30.078125 72.90625 
Q 51.265625 72.90625 61.171875 64.09375 
Q 71.09375 55.28125 71.09375 36.53125 
Q 71.09375 17.671875 61.125 8.828125 
Q 51.171875 0 30.078125 0 
L 9.8125 0 
z
" id="DejaVuSans-68"/>
     </defs>
     <g transform="translate(84.8 43.398438)scale(0.1 -0.1)">
      <use xlink:href="#DejaVuSans-82"/>
      <use x="69.404297" xlink:href="#DejaVuSans-67"/>
      <use x="139.228516" xlink:href="#DejaVuSans-80"/>
      <use x="199.53125" xlink:href="#DejaVuSans-51"/>
      <use x="263.154297" xlink:href="#DejaVuSans-80"/>
      <use x="323.457031" xlink:href="#DejaVuSans-68"/>
     </g>
    </g>
    <g id="line2d_26">
     <path d="M 56.8 54.576563 
L 76.8 54.576563 
" style="fill:none;stroke:#daa520;stroke-linecap:square;stroke-width:1.5;"/>
    </g>
    <g id="line2d_27"/>
    <g id="text_20">
     <!-- RCP45 -->
     <g transform="translate(84.8 58.076563)scale(0.1 -0.1)">
      <use xlink:href="#DejaVuSans-82"/>
      <use x="69.404297" xlink:href="#DejaVuSans-67"/>
      <use x="139.228516" xlink:href="#DejaVuSans-80"/>
      <use x="199.53125" xlink:href="#DejaVuSans-52"/>
      <use x="263.154297" xlink:href="#DejaVuSans-53"/>
     </g>
    </g>
    <g id="line2d_28">
     <path d="M 56.8 69.254688 
L 76.8 69.254688 
" style="fill:none;stroke:#808080;stroke-linecap:square;stroke-width:1.5;"/>
    </g>
    <g id="line2d_29"/>
    <g id="text_21">
     <!-- RCP6 -->
     <g transform="translate(84.8 72.754688)scale(0.1 -0.1)">
      <use xlink:href="#DejaVuSans-82"/>
      <use x="69.404297" xlink:href="#DejaVuSans-67"/>
      <use x="139.228516" xlink:href="#DejaVuSans-80"/>
      <use x="199.53125" xlink:href="#DejaVuSans-54"/>
     </g>
    </g>
    <g id="line2d_30">
     <path d="M 56.8 83.932813 
L 76.8 83.932813 
" style="fill:none;stroke:#ff0000;stroke-linecap:square;stroke-width:1.5;"/>
    </g>
    <g id="line2d_31"/>
    <g id="text_22">
     <!-- RCP85 -->
     <g transform="translate(84.8 87.432813)scale(0.1 -0.1)">
      <use xlink:href="#DejaVuSans-82"/>
      <use x="69.404297" xlink:href="#DejaVuSans-67"/>
      <use x="139.228516" xlink:href="#DejaVuSans-80"/>
      <use x="199.53125" xlink:href="#DejaVuSans-56"/>
      <use x="263.154297" xlink:href="#DejaVuSans-53"/>
     </g>
    </g>
   </g>
  </g>
  <g id="axes_2">
   <g id="patch_7">
    <path d="M 423.493358 318.2 
L 757.136716 318.2 
L 757.136716 26.8 
L 423.493358 26.8 
z
" style="fill:#ffffff;"/>
   </g>
   <g id="matplotlib.axis_3">
    <g id="xtick_9">
     <g id="line2d_32">
      <g>
       <use style="stroke:#000000;stroke-width:0.8;" x="466.187234" xlink:href="#mcb384dad90" y="318.2"/>
      </g>
     </g>
     <g id="text_23">
      <!-- 1000 -->
      <g transform="translate(453.462234 332.798438)scale(0.1 -0.1)">
       <use xlink:href="#DejaVuSans-49"/>
       <use x="63.623047" xlink:href="#DejaVuSans-48"/>
       <use x="127.246094" xlink:href="#DejaVuSans-48"/>
       <use x="190.869141" xlink:href="#DejaVuSans-48"/>
      </g>
     </g>
    </g>
    <g id="xtick_10">
     <g id="line2d_33">
      <g>
       <use style="stroke:#000000;stroke-width:0.8;" x="515.679659" xlink:href="#mcb384dad90" y="318.2"/>
      </g>
     </g>
     <g id="text_24">
      <!-- 1500 -->
      <g transform="translate(502.954659 332.798438)scale(0.1 -0.1)">
       <use xlink:href="#DejaVuSans-49"/>
       <use x="63.623047" xlink:href="#DejaVuSans-53"/>
       <use x="127.246094" xlink:href="#DejaVuSans-48"/>
       <use x="190.869141" xlink:href="#DejaVuSans-48"/>
      </g>
     </g>
    </g>
    <g id="xtick_11">
     <g id="line2d_34">
      <g>
       <use style="stroke:#000000;stroke-width:0.8;" x="565.172083" xlink:href="#mcb384dad90" y="318.2"/>
      </g>
     </g>
     <g id="text_25">
      <!-- 2000 -->
      <g transform="translate(552.447083 332.798438)scale(0.1 -0.1)">
       <use xlink:href="#DejaVuSans-50"/>
       <use x="63.623047" xlink:href="#DejaVuSans-48"/>
       <use x="127.246094" xlink:href="#DejaVuSans-48"/>
       <use x="190.869141" xlink:href="#DejaVuSans-48"/>
      </g>
     </g>
    </g>
    <g id="xtick_12">
     <g id="line2d_35">
      <g>
       <use style="stroke:#000000;stroke-width:0.8;" x="614.664507" xlink:href="#mcb384dad90" y="318.2"/>
      </g>
     </g>
     <g id="text_26">
      <!-- 2500 -->
      <g transform="translate(601.939507 332.798438)scale(0.1 -0.1)">
       <use xlink:href="#DejaVuSans-50"/>
       <use x="63.623047" xlink:href="#DejaVuSans-53"/>
       <use x="127.246094" xlink:href="#DejaVuSans-48"/>
       <use x="190.869141" xlink:href="#DejaVuSans-48"/>
      </g>
     </g>
    </g>
    <g id="xtick_13">
     <g id="line2d_36">
      <g>
       <use style="stroke:#000000;stroke-width:0.8;" x="664.156932" xlink:href="#mcb384dad90" y="318.2"/>
      </g>
     </g>
     <g id="text_27">
      <!-- 3000 -->
      <g transform="translate(651.431932 332.798438)scale(0.1 -0.1)">
       <use xlink:href="#DejaVuSans-51"/>
       <use x="63.623047" xlink:href="#DejaVuSans-48"/>
       <use x="127.246094" xlink:href="#DejaVuSans-48"/>
       <use x="190.869141" xlink:href="#DejaVuSans-48"/>
      </g>
     </g>
    </g>
    <g id="xtick_14">
     <g id="line2d_37">
      <g>
       <use style="stroke:#000000;stroke-width:0.8;" x="713.649356" xlink:href="#mcb384dad90" y="318.2"/>
      </g>
     </g>
     <g id="text_28">
      <!-- 3500 -->
      <g transform="translate(700.924356 332.798438)scale(0.1 -0.1)">
       <use xlink:href="#DejaVuSans-51"/>
       <use x="63.623047" xlink:href="#DejaVuSans-53"/>
       <use x="127.246094" xlink:href="#DejaVuSans-48"/>
       <use x="190.869141" xlink:href="#DejaVuSans-48"/>
      </g>
     </g>
    </g>
    <g id="text_29">
     <!-- atmospheric concentration (ppb) -->
     <defs>
      <path d="M 48.6875 27.296875 
Q 48.6875 37.203125 44.609375 42.84375 
Q 40.53125 48.484375 33.40625 48.484375 
Q 26.265625 48.484375 22.1875 42.84375 
Q 18.109375 37.203125 18.109375 27.296875 
Q 18.109375 17.390625 22.1875 11.75 
Q 26.265625 6.109375 33.40625 6.109375 
Q 40.53125 6.109375 44.609375 11.75 
Q 48.6875 17.390625 48.6875 27.296875 
z
M 18.109375 46.390625 
Q 20.953125 51.265625 25.265625 53.625 
Q 29.59375 56 35.59375 56 
Q 45.5625 56 51.78125 48.09375 
Q 58.015625 40.1875 58.015625 27.296875 
Q 58.015625 14.40625 51.78125 6.484375 
Q 45.5625 -1.421875 35.59375 -1.421875 
Q 29.59375 -1.421875 25.265625 0.953125 
Q 20.953125 3.328125 18.109375 8.203125 
L 18.109375 0 
L 9.078125 0 
L 9.078125 75.984375 
L 18.109375 75.984375 
z
" id="DejaVuSans-98"/>
     </defs>
     <g transform="translate(507.911912 346.476562)scale(0.1 -0.1)">
      <use xlink:href="#DejaVuSans-97"/>
      <use x="61.279297" xlink:href="#DejaVuSans-116"/>
      <use x="100.488281" xlink:href="#DejaVuSans-109"/>
      <use x="197.900391" xlink:href="#DejaVuSans-111"/>
      <use x="259.082031" xlink:href="#DejaVuSans-115"/>
      <use x="311.181641" xlink:href="#DejaVuSans-112"/>
      <use x="374.658203" xlink:href="#DejaVuSans-104"/>
      <use x="438.037109" xlink:href="#DejaVuSans-101"/>
      <use x="499.560547" xlink:href="#DejaVuSans-114"/>
      <use x="540.673828" xlink:href="#DejaVuSans-105"/>
      <use x="568.457031" xlink:href="#DejaVuSans-99"/>
      <use x="623.4375" xlink:href="#DejaVuSans-32"/>
      <use x="655.224609" xlink:href="#DejaVuSans-99"/>
      <use x="710.205078" xlink:href="#DejaVuSans-111"/>
      <use x="771.386719" xlink:href="#DejaVuSans-110"/>
      <use x="834.765625" xlink:href="#DejaVuSans-99"/>
      <use x="889.746094" xlink:href="#DejaVuSans-101"/>
      <use x="951.269531" xlink:href="#DejaVuSans-110"/>
      <use x="1014.648438" xlink:href="#DejaVuSans-116"/>
      <use x="1053.857422" xlink:href="#DejaVuSans-114"/>
      <use x="1094.970703" xlink:href="#DejaVuSans-97"/>
      <use x="1156.25" xlink:href="#DejaVuSans-116"/>
      <use x="1195.458984" xlink:href="#DejaVuSans-105"/>
      <use x="1223.242188" xlink:href="#DejaVuSans-111"/>
      <use x="1284.423828" xlink:href="#DejaVuSans-110"/>
      <use x="1347.802734" xlink:href="#DejaVuSans-32"/>
      <use x="1379.589844" xlink:href="#DejaVuSans-40"/>
      <use x="1418.603516" xlink:href="#DejaVuSans-112"/>
      <use x="1482.080078" xlink:href="#DejaVuSans-112"/>
      <use x="1545.556641" xlink:href="#DejaVuSans-98"/>
      <use x="1609.033203" xlink:href="#DejaVuSans-41"/>
     </g>
    </g>
   </g>
   <g id="matplotlib.axis_4">
    <g id="ytick_8">
     <g id="line2d_38">
      <g>
       <use style="stroke:#000000;stroke-width:0.8;" x="423.493358" xlink:href="#m41b4ef07be" y="293.511384"/>
      </g>
     </g>
     <g id="text_30">
      <!-- −0.5 -->
      <defs>
       <path d="M 10.59375 35.5 
L 73.1875 35.5 
L 73.1875 27.203125 
L 10.59375 27.203125 
z
" id="DejaVuSans-8722"/>
      </defs>
      <g transform="translate(392.210545 297.310603)scale(0.1 -0.1)">
       <use xlink:href="#DejaVuSans-8722"/>
       <use x="83.789062" xlink:href="#DejaVuSans-48"/>
       <use x="147.412109" xlink:href="#DejaVuSans-46"/>
       <use x="179.199219" xlink:href="#DejaVuSans-53"/>
      </g>
     </g>
    </g>
    <g id="ytick_9">
     <g id="line2d_39">
      <g>
       <use style="stroke:#000000;stroke-width:0.8;" x="423.493358" xlink:href="#m41b4ef07be" y="244.190636"/>
      </g>
     </g>
     <g id="text_31">
      <!-- 0.0 -->
      <g transform="translate(400.590233 247.989855)scale(0.1 -0.1)">
       <use xlink:href="#DejaVuSans-48"/>
       <use x="63.623047" xlink:href="#DejaVuSans-46"/>
       <use x="95.410156" xlink:href="#DejaVuSans-48"/>
      </g>
     </g>
    </g>
    <g id="ytick_10">
     <g id="line2d_40">
      <g>
       <use style="stroke:#000000;stroke-width:0.8;" x="423.493358" xlink:href="#m41b4ef07be" y="194.869889"/>
      </g>
     </g>
     <g id="text_32">
      <!-- 0.5 -->
      <g transform="translate(400.590233 198.669108)scale(0.1 -0.1)">
       <use xlink:href="#DejaVuSans-48"/>
       <use x="63.623047" xlink:href="#DejaVuSans-46"/>
       <use x="95.410156" xlink:href="#DejaVuSans-53"/>
      </g>
     </g>
    </g>
    <g id="ytick_11">
     <g id="line2d_41">
      <g>
       <use style="stroke:#000000;stroke-width:0.8;" x="423.493358" xlink:href="#m41b4ef07be" y="145.549141"/>
      </g>
     </g>
     <g id="text_33">
      <!-- 1.0 -->
      <g transform="translate(400.590233 149.34836)scale(0.1 -0.1)">
       <use xlink:href="#DejaVuSans-49"/>
       <use x="63.623047" xlink:href="#DejaVuSans-46"/>
       <use x="95.410156" xlink:href="#DejaVuSans-48"/>
      </g>
     </g>
    </g>
    <g id="ytick_12">
     <g id="line2d_42">
      <g>
       <use style="stroke:#000000;stroke-width:0.8;" x="423.493358" xlink:href="#m41b4ef07be" y="96.228394"/>
      </g>
     </g>
     <g id="text_34">
      <!-- 1.5 -->
      <g transform="translate(400.590233 100.027612)scale(0.1 -0.1)">
       <use xlink:href="#DejaVuSans-49"/>
       <use x="63.623047" xlink:href="#DejaVuSans-46"/>
       <use x="95.410156" xlink:href="#DejaVuSans-53"/>
      </g>
     </g>
    </g>
    <g id="ytick_13">
     <g id="line2d_43">
      <g>
       <use style="stroke:#000000;stroke-width:0.8;" x="423.493358" xlink:href="#m41b4ef07be" y="46.907646"/>
      </g>
     </g>
     <g id="text_35">
      <!-- 2.0 -->
      <g transform="translate(400.590233 50.706865)scale(0.1 -0.1)">
       <use xlink:href="#DejaVuSans-50"/>
       <use x="63.623047" xlink:href="#DejaVuSans-46"/>
       <use x="95.410156" xlink:href="#DejaVuSans-48"/>
      </g>
     </g>
    </g>
   </g>
   <g id="line2d_44">
    <path clip-path="url(#p9ce351a438)" d="M 438.658965 304.954545 
L 444.15011 302.622742 
L 445.163069 302.162847 
L 445.623132 302.051329 
L 448.64217 300.057489 
L 452.62631 298.091245 
L 459.55525 296.297804 
L 463.415659 295.022291 
L 468.067947 293.456364 
L 471.928356 292.382181 
L 473.908053 291.750415 
L 476.481659 291.000682 
L 480.045113 289.69662 
L 482.371257 289.164265 
L 486.20692 288.408343 
L 490.636492 287.601344 
L 495.709466 286.634514 
L 504.37064 284.363418 
L 509.047674 282.899036 
L 513.798947 281.149863 
L 518.67395 279.122415 
L 520.406185 278.495852 
L 524.217102 276.789623 
L 527.924579 275.485548 
L 531.735001 273.574871 
L 532.810966 272.611574 
L 533.840409 271.253584 
L 534.846095 270.239276 
L 536.64465 269.071741 
L 538.084879 267.307277 
L 538.447164 266.524612 
L 538.923033 265.781438 
L 540.35089 264.210948 
L 540.527083 263.59464 
L 540.495903 262.934934 
L 540.927229 260.625315 
L 540.795579 259.871066 
L 540.872738 259.082358 
L 541.611719 257.639914 
L 542.715173 256.188051 
L 543.845985 254.740727 
L 544.025841 254.0457 
L 543.91868 253.373834 
L 543.55203 252.724442 
L 542.947807 252.096604 
L 542.12359 251.489185 
L 539.882583 250.330234 
L 536.948662 249.236261 
L 532.390805 247.647555 
L 528.665174 246.084377 
L 525.599465 244.55836 
L 522.213173 242.598323 
L 519.508769 240.745304 
L 516.634872 238.613444 
L 515.183893 237.888355 
L 512.685614 236.965628 
L 509.94807 236.236779 
L 505.529119 235.344967 
L 501.569517 234.770778 
L 497.687955 234.230727 
L 492.575605 233.381924 
L 491.575759 233.502685 
L 490.671008 233.819984 
L 490.314623 234.195868 
L 490.273148 234.70574 
L 490.435305 235.451631 
L 490.435305 235.451631 
" style="fill:none;stroke:#0000ff;stroke-linecap:square;stroke-width:1.5;"/>
   </g>
   <g id="line2d_45">
    <path clip-path="url(#p9ce351a438)" d="M 438.658965 304.954545 
L 444.15011 302.622742 
L 445.163069 302.162847 
L 445.623132 302.051329 
L 448.64217 300.057489 
L 452.62631 298.091245 
L 459.55525 296.297804 
L 463.415659 295.022291 
L 468.067947 293.456364 
L 471.928356 292.382181 
L 473.908053 291.750415 
L 476.481659 291.000682 
L 480.045113 289.69662 
L 482.371257 289.164265 
L 486.20692 288.408343 
L 490.636492 287.601344 
L 495.709466 286.634514 
L 504.37064 284.363418 
L 509.047674 282.899036 
L 513.798947 281.149863 
L 518.67395 279.122415 
L 520.406185 278.495852 
L 524.217102 276.789623 
L 527.924579 275.485548 
L 531.735001 273.574871 
L 532.810966 272.611574 
L 533.840409 271.253584 
L 534.846095 270.239276 
L 536.64465 269.071741 
L 538.084879 267.307277 
L 538.447164 266.524612 
L 538.923033 265.781438 
L 540.35089 264.210948 
L 540.527083 263.59464 
L 540.495903 262.934934 
L 540.927229 260.625315 
L 540.795579 259.871066 
L 540.872708 259.082358 
L 541.789496 256.915808 
L 547.069288 245.07821 
L 548.335582 241.314327 
L 548.930303 239.059048 
L 549.265792 236.845071 
L 549.545117 233.242326 
L 549.468097 231.156083 
L 549.123283 229.155046 
L 548.470924 226.608406 
L 548.025561 225.386222 
L 547.420239 224.198921 
L 546.274994 222.479217 
L 544.517885 220.289876 
L 542.967228 218.73351 
L 541.172662 217.252299 
L 538.606024 215.383864 
L 535.776721 213.647443 
L 528.858462 209.798751 
L 526.485815 208.018171 
L 524.59752 206.319777 
L 522.078505 203.791382 
L 521.3749 202.682904 
L 520.617538 201.026443 
L 520.110785 198.970039 
L 519.82264 197.512949 
L 519.802091 197.460054 
L 519.802091 197.460054 
" style="fill:none;stroke:#daa520;stroke-linecap:square;stroke-width:1.5;"/>
   </g>
   <g id="line2d_46">
    <path clip-path="url(#p9ce351a438)" d="M 438.658965 304.954545 
L 444.15011 302.622742 
L 445.163069 302.162847 
L 445.623132 302.051329 
L 448.64217 300.057489 
L 452.62631 298.091245 
L 459.55525 296.297804 
L 463.415659 295.022291 
L 468.067947 293.456364 
L 471.928356 292.382181 
L 473.908053 291.750415 
L 476.481659 291.000682 
L 480.045113 289.69662 
L 482.371257 289.164265 
L 486.20692 288.408343 
L 490.636492 287.601344 
L 495.709466 286.634514 
L 504.37064 284.363418 
L 509.047674 282.899036 
L 513.798947 281.149863 
L 518.67395 279.122415 
L 520.406185 278.495852 
L 524.217102 276.789623 
L 527.924579 275.485548 
L 531.735001 273.574871 
L 532.810966 272.611574 
L 533.840409 271.253584 
L 534.846095 270.239276 
L 536.64465 269.071741 
L 538.084879 267.307277 
L 538.447164 266.524612 
L 538.923033 265.781438 
L 540.35089 264.210948 
L 540.527083 263.59464 
L 540.495903 262.934934 
L 540.927229 260.625315 
L 540.795579 259.871066 
L 540.873084 259.082352 
L 541.496481 257.61239 
L 543.354734 253.715939 
L 543.77046 252.198141 
L 543.982763 250.733862 
L 544.013735 249.322459 
L 543.790049 245.897414 
L 544.00154 244.447484 
L 544.408942 242.939238 
L 545.302379 240.570421 
L 546.863954 237.215701 
L 548.845364 233.635807 
L 552.174293 227.882626 
L 555.278696 221.765834 
L 556.738356 218.578467 
L 558.395323 214.208324 
L 559.909177 209.698937 
L 560.504037 207.412452 
L 560.930899 205.114907 
L 561.310219 201.646667 
L 561.482591 198.151082 
L 561.303884 195.842881 
L 560.857403 193.56294 
L 560.150166 191.310543 
L 558.747105 187.972794 
L 558.129489 186.877845 
L 557.316616 185.803911 
L 556.32353 184.749387 
L 555.16515 183.712573 
L 552.399494 181.685669 
L 549.090361 179.711132 
L 543.443157 176.815427 
L 538.129234 173.958903 
L 533.33911 171.148593 
L 529.138391 168.393606 
L 526.826798 166.615903 
L 525.002131 164.918824 
L 523.551755 163.305905 
L 521.878644 161.046563 
L 520.62507 158.978303 
L 519.731712 157.09795 
L 518.727719 154.370637 
L 517.935197 151.742925 
L 516.875742 147.735551 
L 516.744627 147.564749 
L 516.744627 147.564749 
" style="fill:none;stroke:#808080;stroke-linecap:square;stroke-width:1.5;"/>
   </g>
   <g id="line2d_47">
    <path clip-path="url(#p9ce351a438)" d="M 438.658965 304.954545 
L 444.15011 302.622742 
L 445.163069 302.162847 
L 445.623132 302.051329 
L 448.64217 300.057489 
L 452.62631 298.091245 
L 459.55525 296.297804 
L 463.415659 295.022291 
L 468.067947 293.456364 
L 471.928356 292.382181 
L 473.908053 291.750415 
L 476.481659 291.000682 
L 480.045113 289.69662 
L 482.371257 289.164265 
L 486.20692 288.408343 
L 490.636492 287.601344 
L 495.709466 286.634514 
L 504.37064 284.363418 
L 509.047674 282.899036 
L 513.798947 281.149863 
L 518.67395 279.122415 
L 520.406185 278.495852 
L 524.217102 276.789623 
L 527.924579 275.485548 
L 531.735001 273.574871 
L 532.810966 272.611574 
L 533.840409 271.253584 
L 534.846095 270.239276 
L 536.64465 269.071741 
L 538.084879 267.307277 
L 538.447164 266.524612 
L 538.923033 265.781438 
L 540.35089 264.210948 
L 540.527083 263.59464 
L 540.495903 262.934934 
L 540.927229 260.625315 
L 540.795579 259.871066 
L 540.87249 259.082362 
L 541.222303 258.354924 
L 541.754198 257.610068 
L 543.264251 256.06774 
L 545.237891 254.449248 
L 547.71663 252.717607 
L 552.275208 249.888846 
L 578.239419 234.461063 
L 587.626558 228.692353 
L 598.653124 222.274027 
L 627.756976 205.460113 
L 645.670719 194.868311 
L 652.631858 190.492174 
L 659.232505 186.106822 
L 668.647003 179.492885 
L 674.696472 175.047556 
L 680.358267 170.640532 
L 685.453462 166.337432 
L 690.002252 162.147249 
L 694.124881 158.047657 
L 697.933264 154.014346 
L 703.242386 148.034841 
L 708.142235 142.119712 
L 712.643541 136.275752 
L 725.91737 118.439344 
L 730.240681 112.38968 
L 732.797965 108.454605 
L 735.012642 104.637946 
L 736.909677 100.934632 
L 738.463333 97.357072 
L 739.753442 93.884318 
L 740.730036 90.569896 
L 741.416011 87.412631 
L 741.837766 84.40366 
L 741.971109 81.552106 
L 741.850446 78.844971 
L 741.4366 74.963124 
L 740.845552 71.255461 
L 740.332454 68.886779 
L 739.292935 65.520188 
L 736.319569 57.10144 
L 734.5536 53.247343 
L 730.34705 44.221776 
L 728.662645 40.872258 
L 728.273506 40.045455 
L 728.273506 40.045455 
" style="fill:none;stroke:#ff0000;stroke-linecap:square;stroke-width:1.5;"/>
   </g>
   <g id="patch_8">
    <path d="M 423.493358 318.2 
L 423.493358 26.8 
" style="fill:none;stroke:#000000;stroke-linecap:square;stroke-linejoin:miter;stroke-width:0.8;"/>
   </g>
   <g id="patch_9">
    <path d="M 757.136716 318.2 
L 757.136716 26.8 
" style="fill:none;stroke:#000000;stroke-linecap:square;stroke-linejoin:miter;stroke-width:0.8;"/>
   </g>
   <g id="patch_10">
    <path d="M 423.493358 318.2 
L 757.136716 318.2 
" style="fill:none;stroke:#000000;stroke-linecap:square;stroke-linejoin:miter;stroke-width:0.8;"/>
   </g>
   <g id="patch_11">
    <path d="M 423.493358 26.8 
L 757.136716 26.8 
" style="fill:none;stroke:#000000;stroke-linecap:square;stroke-linejoin:miter;stroke-width:0.8;"/>
   </g>
   <g id="text_36">
    <!-- CH4 -->
    <defs>
     <path d="M 9.8125 72.90625 
L 19.671875 72.90625 
L 19.671875 43.015625 
L 55.515625 43.015625 
L 55.515625 72.90625 
L 65.375 72.90625 
L 65.375 0 
L 55.515625 0 
L 55.515625 34.71875 
L 19.671875 34.71875 
L 19.671875 0 
L 9.8125 0 
z
" id="DejaVuSans-72"/>
    </defs>
    <g transform="translate(577.795662 20.8)scale(0.12 -0.12)">
     <use xlink:href="#DejaVuSans-67"/>
     <use x="69.824219" xlink:href="#DejaVuSans-72"/>
     <use x="145.019531" xlink:href="#DejaVuSans-52"/>
    </g>
   </g>
  </g>
  <g id="axes_3">
   <g id="patch_12">
    <path d="M 799.186716 318.2 
L 1132.830074 318.2 
L 1132.830074 26.8 
L 799.186716 26.8 
z
" style="fill:#ffffff;"/>
   </g>
   <g id="matplotlib.axis_5">
    <g id="xtick_15">
     <g id="line2d_48">
      <g>
       <use style="stroke:#000000;stroke-width:0.8;" x="852.121301" xlink:href="#mcb384dad90" y="318.2"/>
      </g>
     </g>
     <g id="text_37">
      <!-- 300 -->
      <g transform="translate(842.577551 332.798438)scale(0.1 -0.1)">
       <use xlink:href="#DejaVuSans-51"/>
       <use x="63.623047" xlink:href="#DejaVuSans-48"/>
       <use x="127.246094" xlink:href="#DejaVuSans-48"/>
      </g>
     </g>
    </g>
    <g id="xtick_16">
     <g id="line2d_49">
      <g>
       <use style="stroke:#000000;stroke-width:0.8;" x="921.959381" xlink:href="#mcb384dad90" y="318.2"/>
      </g>
     </g>
     <g id="text_38">
      <!-- 350 -->
      <g transform="translate(912.415631 332.798438)scale(0.1 -0.1)">
       <use xlink:href="#DejaVuSans-51"/>
       <use x="63.623047" xlink:href="#DejaVuSans-53"/>
       <use x="127.246094" xlink:href="#DejaVuSans-48"/>
      </g>
     </g>
    </g>
    <g id="xtick_17">
     <g id="line2d_50">
      <g>
       <use style="stroke:#000000;stroke-width:0.8;" x="991.79746" xlink:href="#mcb384dad90" y="318.2"/>
      </g>
     </g>
     <g id="text_39">
      <!-- 400 -->
      <g transform="translate(982.25371 332.798438)scale(0.1 -0.1)">
       <use xlink:href="#DejaVuSans-52"/>
       <use x="63.623047" xlink:href="#DejaVuSans-48"/>
       <use x="127.246094" xlink:href="#DejaVuSans-48"/>
      </g>
     </g>
    </g>
    <g id="xtick_18">
     <g id="line2d_51">
      <g>
       <use style="stroke:#000000;stroke-width:0.8;" x="1061.63554" xlink:href="#mcb384dad90" y="318.2"/>
      </g>
     </g>
     <g id="text_40">
      <!-- 450 -->
      <g transform="translate(1052.09179 332.798438)scale(0.1 -0.1)">
       <use xlink:href="#DejaVuSans-52"/>
       <use x="63.623047" xlink:href="#DejaVuSans-53"/>
       <use x="127.246094" xlink:href="#DejaVuSans-48"/>
      </g>
     </g>
    </g>
    <g id="xtick_19">
     <g id="line2d_52">
      <g>
       <use style="stroke:#000000;stroke-width:0.8;" x="1131.47362" xlink:href="#mcb384dad90" y="318.2"/>
      </g>
     </g>
     <g id="text_41">
      <!-- 500 -->
      <g transform="translate(1121.92987 332.798438)scale(0.1 -0.1)">
       <use xlink:href="#DejaVuSans-53"/>
       <use x="63.623047" xlink:href="#DejaVuSans-48"/>
       <use x="127.246094" xlink:href="#DejaVuSans-48"/>
      </g>
     </g>
    </g>
    <g id="text_42">
     <!-- atmospheric concentration (ppb) -->
     <g transform="translate(883.60527 346.476562)scale(0.1 -0.1)">
      <use xlink:href="#DejaVuSans-97"/>
      <use x="61.279297" xlink:href="#DejaVuSans-116"/>
      <use x="100.488281" xlink:href="#DejaVuSans-109"/>
      <use x="197.900391" xlink:href="#DejaVuSans-111"/>
      <use x="259.082031" xlink:href="#DejaVuSans-115"/>
      <use x="311.181641" xlink:href="#DejaVuSans-112"/>
      <use x="374.658203" xlink:href="#DejaVuSans-104"/>
      <use x="438.037109" xlink:href="#DejaVuSans-101"/>
      <use x="499.560547" xlink:href="#DejaVuSans-114"/>
      <use x="540.673828" xlink:href="#DejaVuSans-105"/>
      <use x="568.457031" xlink:href="#DejaVuSans-99"/>
      <use x="623.4375" xlink:href="#DejaVuSans-32"/>
      <use x="655.224609" xlink:href="#DejaVuSans-99"/>
      <use x="710.205078" xlink:href="#DejaVuSans-111"/>
      <use x="771.386719" xlink:href="#DejaVuSans-110"/>
      <use x="834.765625" xlink:href="#DejaVuSans-99"/>
      <use x="889.746094" xlink:href="#DejaVuSans-101"/>
      <use x="951.269531" xlink:href="#DejaVuSans-110"/>
      <use x="1014.648438" xlink:href="#DejaVuSans-116"/>
      <use x="1053.857422" xlink:href="#DejaVuSans-114"/>
      <use x="1094.970703" xlink:href="#DejaVuSans-97"/>
      <use x="1156.25" xlink:href="#DejaVuSans-116"/>
      <use x="1195.458984" xlink:href="#DejaVuSans-105"/>
      <use x="1223.242188" xlink:href="#DejaVuSans-111"/>
      <use x="1284.423828" xlink:href="#DejaVuSans-110"/>
      <use x="1347.802734" xlink:href="#DejaVuSans-32"/>
      <use x="1379.589844" xlink:href="#DejaVuSans-40"/>
      <use x="1418.603516" xlink:href="#DejaVuSans-112"/>
      <use x="1482.080078" xlink:href="#DejaVuSans-112"/>
      <use x="1545.556641" xlink:href="#DejaVuSans-98"/>
      <use x="1609.033203" xlink:href="#DejaVuSans-41"/>
     </g>
    </g>
   </g>
   <g id="matplotlib.axis_6">
    <g id="ytick_14">
     <g id="line2d_53">
      <g>
       <use style="stroke:#000000;stroke-width:0.8;" x="799.186716" xlink:href="#m41b4ef07be" y="278.951224"/>
      </g>
     </g>
     <g id="text_43">
      <!-- −2 -->
      <g transform="translate(777.444528 282.750443)scale(0.1 -0.1)">
       <use xlink:href="#DejaVuSans-8722"/>
       <use x="83.789062" xlink:href="#DejaVuSans-50"/>
      </g>
     </g>
    </g>
    <g id="ytick_15">
     <g id="line2d_54">
      <g>
       <use style="stroke:#000000;stroke-width:0.8;" x="799.186716" xlink:href="#m41b4ef07be" y="238.269651"/>
      </g>
     </g>
     <g id="text_44">
      <!-- 0 -->
      <g transform="translate(785.824216 242.06887)scale(0.1 -0.1)">
       <use xlink:href="#DejaVuSans-48"/>
      </g>
     </g>
    </g>
    <g id="ytick_16">
     <g id="line2d_55">
      <g>
       <use style="stroke:#000000;stroke-width:0.8;" x="799.186716" xlink:href="#m41b4ef07be" y="197.588078"/>
      </g>
     </g>
     <g id="text_45">
      <!-- 2 -->
      <g transform="translate(785.824216 201.387297)scale(0.1 -0.1)">
       <use xlink:href="#DejaVuSans-50"/>
      </g>
     </g>
    </g>
    <g id="ytick_17">
     <g id="line2d_56">
      <g>
       <use style="stroke:#000000;stroke-width:0.8;" x="799.186716" xlink:href="#m41b4ef07be" y="156.906506"/>
      </g>
     </g>
     <g id="text_46">
      <!-- 4 -->
      <g transform="translate(785.824216 160.705725)scale(0.1 -0.1)">
       <use xlink:href="#DejaVuSans-52"/>
      </g>
     </g>
    </g>
    <g id="ytick_18">
     <g id="line2d_57">
      <g>
       <use style="stroke:#000000;stroke-width:0.8;" x="799.186716" xlink:href="#m41b4ef07be" y="116.224933"/>
      </g>
     </g>
     <g id="text_47">
      <!-- 6 -->
      <g transform="translate(785.824216 120.024152)scale(0.1 -0.1)">
       <use xlink:href="#DejaVuSans-54"/>
      </g>
     </g>
    </g>
    <g id="ytick_19">
     <g id="line2d_58">
      <g>
       <use style="stroke:#000000;stroke-width:0.8;" x="799.186716" xlink:href="#m41b4ef07be" y="75.54336"/>
      </g>
     </g>
     <g id="text_48">
      <!-- 8 -->
      <g transform="translate(785.824216 79.342579)scale(0.1 -0.1)">
       <use xlink:href="#DejaVuSans-56"/>
      </g>
     </g>
    </g>
    <g id="ytick_20">
     <g id="line2d_59">
      <g>
       <use style="stroke:#000000;stroke-width:0.8;" x="799.186716" xlink:href="#m41b4ef07be" y="34.861788"/>
      </g>
     </g>
     <g id="text_49">
      <!-- 10 -->
      <g transform="translate(779.461716 38.661006)scale(0.1 -0.1)">
       <use xlink:href="#DejaVuSans-49"/>
       <use x="63.623047" xlink:href="#DejaVuSans-48"/>
      </g>
     </g>
    </g>
   </g>
   <g id="line2d_60">
    <path clip-path="url(#p494eb299e5)" d="M 814.352323 304.954545 
L 816.480848 302.335255 
L 817.169507 301.872353 
L 817.758731 301.370435 
L 817.795969 301.123605 
L 819.157727 300.247889 
L 820.973518 298.938903 
L 822.370279 297.636822 
L 823.208336 296.80878 
L 823.80196 295.976719 
L 826.001859 292.940139 
L 827.957326 290.861829 
L 830.401658 288.315152 
L 832.14761 286.18859 
L 833.579291 284.605312 
L 834.382429 283.837215 
L 836.442652 282.004118 
L 837.350547 280.798252 
L 838.32828 279.327563 
L 840.493261 275.827282 
L 841.26148 274.508188 
L 846.848526 267.391199 
L 849.327778 264.722134 
L 857.435979 256.651649 
L 858.26356 255.639099 
L 860.868521 253.254108 
L 862.171001 252.462542 
L 865.369585 250.942857 
L 866.930466 249.795891 
L 869.294485 248.578815 
L 871.340741 247.719163 
L 873.432391 246.519614 
L 875.150408 246.028317 
L 879.274346 244.808037 
L 880.335424 244.503864 
L 882.260651 243.653883 
L 887.030061 241.169325 
L 887.937341 240.947422 
L 889.685249 240.857825 
L 891.345076 241.183886 
L 892.918333 241.864451 
L 897.28507 244.444917 
L 900.026425 245.594779 
L 903.260444 246.687462 
L 908.385707 248.278462 
L 909.262944 248.854109 
L 910.341914 249.875711 
L 911.149102 251.037567 
L 911.938734 252.561104 
L 912.449823 254.010241 
L 913.144935 256.477563 
L 913.932415 258.737277 
L 913.915249 259.548743 
L 913.658147 260.275982 
L 913.227107 260.902082 
L 912.314616 261.725774 
L 911.390966 262.375451 
L 911.006395 262.63451 
L 911.006395 262.63451 
" style="fill:none;stroke:#0000ff;stroke-linecap:square;stroke-width:1.5;"/>
   </g>
   <g id="line2d_61">
    <path clip-path="url(#p494eb299e5)" d="M 814.352323 304.954545 
L 816.480848 302.335255 
L 817.169507 301.872353 
L 817.758731 301.370435 
L 817.795969 301.123605 
L 819.157727 300.247889 
L 820.973518 298.938903 
L 822.370279 297.636822 
L 823.208336 296.80878 
L 823.80196 295.976719 
L 826.001859 292.940139 
L 827.957326 290.861829 
L 830.401658 288.315152 
L 832.14761 286.18859 
L 833.579291 284.605312 
L 834.382429 283.837215 
L 836.442652 282.004118 
L 837.350547 280.798252 
L 838.32828 279.327563 
L 840.493261 275.827282 
L 841.26148 274.508188 
L 846.848526 267.391199 
L 849.327778 264.722134 
L 857.435979 256.651649 
L 858.26356 255.639099 
L 860.868521 253.254108 
L 862.171001 252.462542 
L 865.369585 250.942857 
L 866.930466 249.795891 
L 869.294485 248.578815 
L 871.340741 247.719163 
L 873.432391 246.519614 
L 875.150408 246.028317 
L 879.274346 244.808037 
L 881.29891 244.125488 
L 888.095133 241.206018 
L 902.965323 234.797176 
L 907.951873 232.847571 
L 915.667612 230.199072 
L 919.327114 229.164867 
L 924.483566 227.914419 
L 926.921404 227.517745 
L 930.03547 227.269965 
L 932.995026 227.230085 
L 935.101985 227.406467 
L 937.761755 227.878411 
L 939.643975 228.353096 
L 941.41965 228.992818 
L 943.624592 230.070895 
L 945.675219 231.046969 
L 948.118658 231.870524 
L 950.439643 232.416641 
L 954.313771 233.049298 
L 956.86571 233.154827 
L 959.200998 233.124117 
L 963.153596 233.026622 
L 963.153596 233.026622 
" style="fill:none;stroke:#daa520;stroke-linecap:square;stroke-width:1.5;"/>
   </g>
   <g id="line2d_62">
    <path clip-path="url(#p494eb299e5)" d="M 814.352323 304.954545 
L 816.480848 302.335255 
L 817.169507 301.872353 
L 817.758731 301.370435 
L 817.795969 301.123605 
L 819.157727 300.247889 
L 820.973518 298.938903 
L 822.370279 297.636822 
L 823.208336 296.80878 
L 823.80196 295.976719 
L 826.001859 292.940139 
L 827.957326 290.861829 
L 830.401658 288.315152 
L 832.14761 286.18859 
L 833.579291 284.605312 
L 834.382429 283.837215 
L 836.442652 282.004118 
L 837.350547 280.798252 
L 838.32828 279.327563 
L 840.493261 275.827282 
L 841.26148 274.508188 
L 846.848526 267.391199 
L 849.327778 264.722134 
L 857.435979 256.651649 
L 858.26356 255.639099 
L 860.868521 253.254108 
L 862.171001 252.462542 
L 865.369585 250.942857 
L 866.930466 249.795891 
L 869.294485 248.578815 
L 871.340741 247.719163 
L 873.432391 246.519614 
L 875.150408 246.028317 
L 879.274346 244.808037 
L 881.308031 244.119269 
L 889.523462 240.763849 
L 893.382113 239.623774 
L 898.952874 238.201701 
L 902.974276 236.795768 
L 908.389968 234.632915 
L 914.231336 232.021332 
L 927.025519 226.119532 
L 935.29478 222.440331 
L 946.968313 217.586283 
L 953.004851 215.343796 
L 960.684456 212.720019 
L 965.292666 211.388975 
L 969.864462 210.328905 
L 974.400334 209.449025 
L 977.385353 209.108733 
L 980.316304 209.156528 
L 983.193618 209.541035 
L 986.018122 210.227476 
L 988.790736 211.149206 
L 992.843076 212.523422 
L 998.038038 213.988529 
L 1001.78256 214.80905 
L 1004.175282 215.148025 
L 1007.536561 215.310775 
L 1010.629061 215.214174 
L 1014.346486 214.884951 
L 1018.364439 214.237909 
L 1024.422571 212.964258 
L 1029.4571 211.734786 
L 1029.4571 211.734786 
" style="fill:none;stroke:#808080;stroke-linecap:square;stroke-width:1.5;"/>
   </g>
   <g id="line2d_63">
    <path clip-path="url(#p494eb299e5)" d="M 814.352323 304.954545 
L 816.480848 302.335255 
L 817.169507 301.872353 
L 817.758731 301.370435 
L 817.795969 301.123605 
L 819.157727 300.247889 
L 820.973518 298.938903 
L 822.370279 297.636822 
L 823.208336 296.80878 
L 823.80196 295.976719 
L 826.001859 292.940139 
L 827.957326 290.861829 
L 830.401658 288.315152 
L 832.14761 286.18859 
L 833.579291 284.605312 
L 834.382429 283.837215 
L 836.442652 282.004118 
L 837.350547 280.798252 
L 838.32828 279.327563 
L 840.493261 275.827282 
L 841.26148 274.508188 
L 846.848526 267.391199 
L 849.327778 264.722134 
L 857.435979 256.651649 
L 858.26356 255.639099 
L 860.868521 253.254108 
L 862.171001 252.462542 
L 865.369585 250.942857 
L 866.930466 249.795891 
L 869.294485 248.578815 
L 871.340741 247.719163 
L 873.432391 246.519614 
L 875.150408 246.028317 
L 879.274346 244.808037 
L 880.335424 244.503977 
L 882.297204 243.584418 
L 884.332202 242.326855 
L 886.447038 240.834316 
L 889.847971 238.092134 
L 894.820024 233.636626 
L 909.165897 220.146593 
L 915.555718 214.051666 
L 920.584255 208.883165 
L 925.810127 203.183501 
L 933.047629 194.916045 
L 938.566527 188.301708 
L 944.140961 181.326686 
L 955.416486 166.934415 
L 964.862477 155.488148 
L 970.541109 148.835897 
L 974.319266 144.694753 
L 979.973427 138.911151 
L 987.489708 131.671735 
L 995.012554 124.729569 
L 1006.335416 114.739414 
L 1029.345946 94.43255 
L 1035.103453 89.804275 
L 1040.832382 85.545125 
L 1046.505385 81.588562 
L 1052.032134 77.969185 
L 1057.407654 74.668403 
L 1064.346459 70.76009 
L 1079.048911 62.740204 
L 1086.701586 58.632257 
L 1102.336824 49.77677 
L 1112.744234 43.342564 
L 1117.664466 40.045455 
L 1117.664466 40.045455 
" style="fill:none;stroke:#ff0000;stroke-linecap:square;stroke-width:1.5;"/>
   </g>
   <g id="patch_13">
    <path d="M 799.186716 318.2 
L 799.186716 26.8 
" style="fill:none;stroke:#000000;stroke-linecap:square;stroke-linejoin:miter;stroke-width:0.8;"/>
   </g>
   <g id="patch_14">
    <path d="M 1132.830074 318.2 
L 1132.830074 26.8 
" style="fill:none;stroke:#000000;stroke-linecap:square;stroke-linejoin:miter;stroke-width:0.8;"/>
   </g>
   <g id="patch_15">
    <path d="M 799.186716 318.2 
L 1132.830074 318.2 
" style="fill:none;stroke:#000000;stroke-linecap:square;stroke-linejoin:miter;stroke-width:0.8;"/>
   </g>
   <g id="patch_16">
    <path d="M 799.186716 26.8 
L 1132.830074 26.8 
" style="fill:none;stroke:#000000;stroke-linecap:square;stroke-linejoin:miter;stroke-width:0.8;"/>
   </g>
   <g id="text_50">
    <!-- N2O -->
    <defs>
     <path d="M 9.8125 72.90625 
L 23.09375 72.90625 
L 55.421875 11.921875 
L 55.421875 72.90625 
L 64.984375 72.90625 
L 64.984375 0 
L 51.703125 0 
L 19.390625 60.984375 
L 19.390625 0 
L 9.8125 0 
z
" id="DejaVuSans-78"/>
    </defs>
    <g transform="translate(952.97902 20.8)scale(0.12 -0.12)">
     <use xlink:href="#DejaVuSans-78"/>
     <use x="74.804688" xlink:href="#DejaVuSans-50"/>
     <use x="138.427734" xlink:href="#DejaVuSans-79"/>
    </g>
   </g>
  </g>
 </g>
 <defs>
  <clipPath id="p3240ff1d28">
   <rect height="291.4" width="333.643358" x="47.8" y="26.8"/>
  </clipPath>
  <clipPath id="p9ce351a438">
   <rect height="291.4" width="333.643358" x="423.493358" y="26.8"/>
  </clipPath>
  <clipPath id="p494eb299e5">
   <rect height="291.4" width="333.643358" x="799.186716" y="26.8"/>
  </clipPath>
 </defs>
</svg>
