<?xml version="1.0" encoding="utf-8" standalone="no"?>
<!DOCTYPE svg PUBLIC "-//W3C//DTD SVG 1.1//EN"
  "http://www.w3.org/Graphics/SVG/1.1/DTD/svg11.dtd">
<!-- Created with matplotlib (https://matplotlib.org/) -->
<svg height="360pt" version="1.1" viewBox="0 0 1152 360" width="1152pt" xmlns="http://www.w3.org/2000/svg" xmlns:xlink="http://www.w3.org/1999/xlink">
 <defs>
  <style type="text/css">
*{stroke-linecap:butt;stroke-linejoin:round;}
  </style>
 </defs>
 <g id="figure_1">
  <g id="patch_1">
   <path d="M 0 360 
L 1152 360 
L 1152 0 
L 0 0 
z
" style="fill:#ffffff;"/>
  </g>
  <g id="axes_1">
   <g id="patch_2">
    <path d="M 47.8 318.2 
L 381.318358 318.2 
L 381.318358 26.8 
L 47.8 26.8 
z
" style="fill:#ffffff;"/>
   </g>
   <g id="matplotlib.axis_1">
    <g id="xtick_1">
     <g id="line2d_1">
      <defs>
       <path d="M 0 0 
L 0 3.5 
" id="m4de7a11ece" style="stroke:#000000;stroke-width:0.8;"/>
      </defs>
      <g>
       <use style="stroke:#000000;stroke-width:0.8;" x="62.959925" xlink:href="#m4de7a11ece" y="318.2"/>
      </g>
     </g>
     <g id="text_1">
      <!-- 0 -->
      <defs>
       <path d="M 31.78125 66.40625 
Q 24.171875 66.40625 20.328125 58.90625 
Q 16.5 51.421875 16.5 36.375 
Q 16.5 21.390625 20.328125 13.890625 
Q 24.171875 6.390625 31.78125 6.390625 
Q 39.453125 6.390625 43.28125 13.890625 
Q 47.125 21.390625 47.125 36.375 
Q 47.125 51.421875 43.28125 58.90625 
Q 39.453125 66.40625 31.78125 66.40625 
z
M 31.78125 74.21875 
Q 44.046875 74.21875 50.515625 64.515625 
Q 56.984375 54.828125 56.984375 36.375 
Q 56.984375 17.96875 50.515625 8.265625 
Q 44.046875 -1.421875 31.78125 -1.421875 
Q 19.53125 -1.421875 13.0625 8.265625 
Q 6.59375 17.96875 6.59375 36.375 
Q 6.59375 54.828125 13.0625 64.515625 
Q 19.53125 74.21875 31.78125 74.21875 
z
" id="DejaVuSans-48"/>
      </defs>
      <g transform="translate(59.778675 332.798438)scale(0.1 -0.1)">
       <use xlink:href="#DejaVuSans-48"/>
      </g>
     </g>
    </g>
    <g id="xtick_2">
     <g id="line2d_2">
      <g>
       <use style="stroke:#000000;stroke-width:0.8;" x="105.383203" xlink:href="#m4de7a11ece" y="318.2"/>
      </g>
     </g>
     <g id="text_2">
      <!-- 200 -->
      <defs>
       <path d="M 19.1875 8.296875 
L 53.609375 8.296875 
L 53.609375 0 
L 7.328125 0 
L 7.328125 8.296875 
Q 12.9375 14.109375 22.625 23.890625 
Q 32.328125 33.6875 34.8125 36.53125 
Q 39.546875 41.84375 41.421875 45.53125 
Q 43.3125 49.21875 43.3125 52.78125 
Q 43.3125 58.59375 39.234375 62.25 
Q 35.15625 65.921875 28.609375 65.921875 
Q 23.96875 65.921875 18.8125 64.3125 
Q 13.671875 62.703125 7.8125 59.421875 
L 7.8125 69.390625 
Q 13.765625 71.78125 18.9375 73 
Q 24.125 74.21875 28.421875 74.21875 
Q 39.75 74.21875 46.484375 68.546875 
Q 53.21875 62.890625 53.21875 53.421875 
Q 53.21875 48.921875 51.53125 44.890625 
Q 49.859375 40.875 45.40625 35.40625 
Q 44.1875 33.984375 37.640625 27.21875 
Q 31.109375 20.453125 19.1875 8.296875 
z
" id="DejaVuSans-50"/>
      </defs>
      <g transform="translate(95.839453 332.798438)scale(0.1 -0.1)">
       <use xlink:href="#DejaVuSans-50"/>
       <use x="63.623047" xlink:href="#DejaVuSans-48"/>
       <use x="127.246094" xlink:href="#DejaVuSans-48"/>
      </g>
     </g>
    </g>
    <g id="xtick_3">
     <g id="line2d_3">
      <g>
       <use style="stroke:#000000;stroke-width:0.8;" x="147.80648" xlink:href="#m4de7a11ece" y="318.2"/>
      </g>
     </g>
     <g id="text_3">
      <!-- 400 -->
      <defs>
       <path d="M 37.796875 64.3125 
L 12.890625 25.390625 
L 37.796875 25.390625 
z
M 35.203125 72.90625 
L 47.609375 72.90625 
L 47.609375 25.390625 
L 58.015625 25.390625 
L 58.015625 17.1875 
L 47.609375 17.1875 
L 47.609375 0 
L 37.796875 0 
L 37.796875 17.1875 
L 4.890625 17.1875 
L 4.890625 26.703125 
z
" id="DejaVuSans-52"/>
      </defs>
      <g transform="translate(138.26273 332.798438)scale(0.1 -0.1)">
       <use xlink:href="#DejaVuSans-52"/>
       <use x="63.623047" xlink:href="#DejaVuSans-48"/>
       <use x="127.246094" xlink:href="#DejaVuSans-48"/>
      </g>
     </g>
    </g>
    <g id="xtick_4">
     <g id="line2d_4">
      <g>
       <use style="stroke:#000000;stroke-width:0.8;" x="190.229758" xlink:href="#m4de7a11ece" y="318.2"/>
      </g>
     </g>
     <g id="text_4">
      <!-- 600 -->
      <defs>
       <path d="M 33.015625 40.375 
Q 26.375 40.375 22.484375 35.828125 
Q 18.609375 31.296875 18.609375 23.390625 
Q 18.609375 15.53125 22.484375 10.953125 
Q 26.375 6.390625 33.015625 6.390625 
Q 39.65625 6.390625 43.53125 10.953125 
Q 47.40625 15.53125 47.40625 23.390625 
Q 47.40625 31.296875 43.53125 35.828125 
Q 39.65625 40.375 33.015625 40.375 
z
M 52.59375 71.296875 
L 52.59375 62.3125 
Q 48.875 64.0625 45.09375 64.984375 
Q 41.3125 65.921875 37.59375 65.921875 
Q 27.828125 65.921875 22.671875 59.328125 
Q 17.53125 52.734375 16.796875 39.40625 
Q 19.671875 43.65625 24.015625 45.921875 
Q 28.375 48.1875 33.59375 48.1875 
Q 44.578125 48.1875 50.953125 41.515625 
Q 57.328125 34.859375 57.328125 23.390625 
Q 57.328125 12.15625 50.6875 5.359375 
Q 44.046875 -1.421875 33.015625 -1.421875 
Q 20.359375 -1.421875 13.671875 8.265625 
Q 6.984375 17.96875 6.984375 36.375 
Q 6.984375 53.65625 15.1875 63.9375 
Q 23.390625 74.21875 37.203125 74.21875 
Q 40.921875 74.21875 44.703125 73.484375 
Q 48.484375 72.75 52.59375 71.296875 
z
" id="DejaVuSans-54"/>
      </defs>
      <g transform="translate(180.686008 332.798438)scale(0.1 -0.1)">
       <use xlink:href="#DejaVuSans-54"/>
       <use x="63.623047" xlink:href="#DejaVuSans-48"/>
       <use x="127.246094" xlink:href="#DejaVuSans-48"/>
      </g>
     </g>
    </g>
    <g id="xtick_5">
     <g id="line2d_5">
      <g>
       <use style="stroke:#000000;stroke-width:0.8;" x="232.653036" xlink:href="#m4de7a11ece" y="318.2"/>
      </g>
     </g>
     <g id="text_5">
      <!-- 800 -->
      <defs>
       <path d="M 31.78125 34.625 
Q 24.75 34.625 20.71875 30.859375 
Q 16.703125 27.09375 16.703125 20.515625 
Q 16.703125 13.921875 20.71875 10.15625 
Q 24.75 6.390625 31.78125 6.390625 
Q 38.8125 6.390625 42.859375 10.171875 
Q 46.921875 13.96875 46.921875 20.515625 
Q 46.921875 27.09375 42.890625 30.859375 
Q 38.875 34.625 31.78125 34.625 
z
M 21.921875 38.8125 
Q 15.578125 40.375 12.03125 44.71875 
Q 8.5 49.078125 8.5 55.328125 
Q 8.5 64.0625 14.71875 69.140625 
Q 20.953125 74.21875 31.78125 74.21875 
Q 42.671875 74.21875 48.875 69.140625 
Q 55.078125 64.0625 55.078125 55.328125 
Q 55.078125 49.078125 51.53125 44.71875 
Q 48 40.375 41.703125 38.8125 
Q 48.828125 37.15625 52.796875 32.3125 
Q 56.78125 27.484375 56.78125 20.515625 
Q 56.78125 9.90625 50.3125 4.234375 
Q 43.84375 -1.421875 31.78125 -1.421875 
Q 19.734375 -1.421875 13.25 4.234375 
Q 6.78125 9.90625 6.78125 20.515625 
Q 6.78125 27.484375 10.78125 32.3125 
Q 14.796875 37.15625 21.921875 38.8125 
z
M 18.3125 54.390625 
Q 18.3125 48.734375 21.84375 45.5625 
Q 25.390625 42.390625 31.78125 42.390625 
Q 38.140625 42.390625 41.71875 45.5625 
Q 45.3125 48.734375 45.3125 54.390625 
Q 45.3125 60.0625 41.71875 63.234375 
Q 38.140625 66.40625 31.78125 66.40625 
Q 25.390625 66.40625 21.84375 63.234375 
Q 18.3125 60.0625 18.3125 54.390625 
z
" id="DejaVuSans-56"/>
      </defs>
      <g transform="translate(223.109286 332.798438)scale(0.1 -0.1)">
       <use xlink:href="#DejaVuSans-56"/>
       <use x="63.623047" xlink:href="#DejaVuSans-48"/>
       <use x="127.246094" xlink:href="#DejaVuSans-48"/>
      </g>
     </g>
    </g>
    <g id="xtick_6">
     <g id="line2d_6">
      <g>
       <use style="stroke:#000000;stroke-width:0.8;" x="275.076313" xlink:href="#m4de7a11ece" y="318.2"/>
      </g>
     </g>
     <g id="text_6">
      <!-- 1000 -->
      <defs>
       <path d="M 12.40625 8.296875 
L 28.515625 8.296875 
L 28.515625 63.921875 
L 10.984375 60.40625 
L 10.984375 69.390625 
L 28.421875 72.90625 
L 38.28125 72.90625 
L 38.28125 8.296875 
L 54.390625 8.296875 
L 54.390625 0 
L 12.40625 0 
z
" id="DejaVuSans-49"/>
      </defs>
      <g transform="translate(262.351313 332.798438)scale(0.1 -0.1)">
       <use xlink:href="#DejaVuSans-49"/>
       <use x="63.623047" xlink:href="#DejaVuSans-48"/>
       <use x="127.246094" xlink:href="#DejaVuSans-48"/>
       <use x="190.869141" xlink:href="#DejaVuSans-48"/>
      </g>
     </g>
    </g>
    <g id="xtick_7">
     <g id="line2d_7">
      <g>
       <use style="stroke:#000000;stroke-width:0.8;" x="317.499591" xlink:href="#m4de7a11ece" y="318.2"/>
      </g>
     </g>
     <g id="text_7">
      <!-- 1200 -->
      <g transform="translate(304.774591 332.798438)scale(0.1 -0.1)">
       <use xlink:href="#DejaVuSans-49"/>
       <use x="63.623047" xlink:href="#DejaVuSans-50"/>
       <use x="127.246094" xlink:href="#DejaVuSans-48"/>
       <use x="190.869141" xlink:href="#DejaVuSans-48"/>
      </g>
     </g>
    </g>
    <g id="xtick_8">
     <g id="line2d_8">
      <g>
       <use style="stroke:#000000;stroke-width:0.8;" x="359.922868" xlink:href="#m4de7a11ece" y="318.2"/>
      </g>
     </g>
     <g id="text_8">
      <!-- 1400 -->
      <g transform="translate(347.197868 332.798438)scale(0.1 -0.1)">
       <use xlink:href="#DejaVuSans-49"/>
       <use x="63.623047" xlink:href="#DejaVuSans-52"/>
       <use x="127.246094" xlink:href="#DejaVuSans-48"/>
       <use x="190.869141" xlink:href="#DejaVuSans-48"/>
      </g>
     </g>
    </g>
    <g id="text_9">
     <!-- atmospheric concentration (ppm) -->
     <defs>
      <path d="M 34.28125 27.484375 
Q 23.390625 27.484375 19.1875 25 
Q 14.984375 22.515625 14.984375 16.5 
Q 14.984375 11.71875 18.140625 8.90625 
Q 21.296875 6.109375 26.703125 6.109375 
Q 34.1875 6.109375 38.703125 11.40625 
Q 43.21875 16.703125 43.21875 25.484375 
L 43.21875 27.484375 
z
M 52.203125 31.203125 
L 52.203125 0 
L 43.21875 0 
L 43.21875 8.296875 
Q 40.140625 3.328125 35.546875 0.953125 
Q 30.953125 -1.421875 24.3125 -1.421875 
Q 15.921875 -1.421875 10.953125 3.296875 
Q 6 8.015625 6 15.921875 
Q 6 25.140625 12.171875 29.828125 
Q 18.359375 34.515625 30.609375 34.515625 
L 43.21875 34.515625 
L 43.21875 35.40625 
Q 43.21875 41.609375 39.140625 45 
Q 35.0625 48.390625 27.6875 48.390625 
Q 23 48.390625 18.546875 47.265625 
Q 14.109375 46.140625 10.015625 43.890625 
L 10.015625 52.203125 
Q 14.9375 54.109375 19.578125 55.046875 
Q 24.21875 56 28.609375 56 
Q 40.484375 56 46.34375 49.84375 
Q 52.203125 43.703125 52.203125 31.203125 
z
" id="DejaVuSans-97"/>
      <path d="M 18.3125 70.21875 
L 18.3125 54.6875 
L 36.8125 54.6875 
L 36.8125 47.703125 
L 18.3125 47.703125 
L 18.3125 18.015625 
Q 18.3125 11.328125 20.140625 9.421875 
Q 21.96875 7.515625 27.59375 7.515625 
L 36.8125 7.515625 
L 36.8125 0 
L 27.59375 0 
Q 17.1875 0 13.234375 3.875 
Q 9.28125 7.765625 9.28125 18.015625 
L 9.28125 47.703125 
L 2.6875 47.703125 
L 2.6875 54.6875 
L 9.28125 54.6875 
L 9.28125 70.21875 
z
" id="DejaVuSans-116"/>
      <path d="M 52 44.1875 
Q 55.375 50.25 60.0625 53.125 
Q 64.75 56 71.09375 56 
Q 79.640625 56 84.28125 50.015625 
Q 88.921875 44.046875 88.921875 33.015625 
L 88.921875 0 
L 79.890625 0 
L 79.890625 32.71875 
Q 79.890625 40.578125 77.09375 44.375 
Q 74.3125 48.1875 68.609375 48.1875 
Q 61.625 48.1875 57.5625 43.546875 
Q 53.515625 38.921875 53.515625 30.90625 
L 53.515625 0 
L 44.484375 0 
L 44.484375 32.71875 
Q 44.484375 40.625 41.703125 44.40625 
Q 38.921875 48.1875 33.109375 48.1875 
Q 26.21875 48.1875 22.15625 43.53125 
Q 18.109375 38.875 18.109375 30.90625 
L 18.109375 0 
L 9.078125 0 
L 9.078125 54.6875 
L 18.109375 54.6875 
L 18.109375 46.1875 
Q 21.1875 51.21875 25.484375 53.609375 
Q 29.78125 56 35.6875 56 
Q 41.65625 56 45.828125 52.96875 
Q 50 49.953125 52 44.1875 
z
" id="DejaVuSans-109"/>
      <path d="M 30.609375 48.390625 
Q 23.390625 48.390625 19.1875 42.75 
Q 14.984375 37.109375 14.984375 27.296875 
Q 14.984375 17.484375 19.15625 11.84375 
Q 23.34375 6.203125 30.609375 6.203125 
Q 37.796875 6.203125 41.984375 11.859375 
Q 46.1875 17.53125 46.1875 27.296875 
Q 46.1875 37.015625 41.984375 42.703125 
Q 37.796875 48.390625 30.609375 48.390625 
z
M 30.609375 56 
Q 42.328125 56 49.015625 48.375 
Q 55.71875 40.765625 55.71875 27.296875 
Q 55.71875 13.875 49.015625 6.21875 
Q 42.328125 -1.421875 30.609375 -1.421875 
Q 18.84375 -1.421875 12.171875 6.21875 
Q 5.515625 13.875 5.515625 27.296875 
Q 5.515625 40.765625 12.171875 48.375 
Q 18.84375 56 30.609375 56 
z
" id="DejaVuSans-111"/>
      <path d="M 44.28125 53.078125 
L 44.28125 44.578125 
Q 40.484375 46.53125 36.375 47.5 
Q 32.28125 48.484375 27.875 48.484375 
Q 21.1875 48.484375 17.84375 46.4375 
Q 14.5 44.390625 14.5 40.28125 
Q 14.5 37.15625 16.890625 35.375 
Q 19.28125 33.59375 26.515625 31.984375 
L 29.59375 31.296875 
Q 39.15625 29.25 43.1875 25.515625 
Q 47.21875 21.78125 47.21875 15.09375 
Q 47.21875 7.46875 41.1875 3.015625 
Q 35.15625 -1.421875 24.609375 -1.421875 
Q 20.21875 -1.421875 15.453125 -0.5625 
Q 10.6875 0.296875 5.421875 2 
L 5.421875 11.28125 
Q 10.40625 8.6875 15.234375 7.390625 
Q 20.0625 6.109375 24.8125 6.109375 
Q 31.15625 6.109375 34.5625 8.28125 
Q 37.984375 10.453125 37.984375 14.40625 
Q 37.984375 18.0625 35.515625 20.015625 
Q 33.0625 21.96875 24.703125 23.78125 
L 21.578125 24.515625 
Q 13.234375 26.265625 9.515625 29.90625 
Q 5.8125 33.546875 5.8125 39.890625 
Q 5.8125 47.609375 11.28125 51.796875 
Q 16.75 56 26.8125 56 
Q 31.78125 56 36.171875 55.265625 
Q 40.578125 54.546875 44.28125 53.078125 
z
" id="DejaVuSans-115"/>
      <path d="M 18.109375 8.203125 
L 18.109375 -20.796875 
L 9.078125 -20.796875 
L 9.078125 54.6875 
L 18.109375 54.6875 
L 18.109375 46.390625 
Q 20.953125 51.265625 25.265625 53.625 
Q 29.59375 56 35.59375 56 
Q 45.5625 56 51.78125 48.09375 
Q 58.015625 40.1875 58.015625 27.296875 
Q 58.015625 14.40625 51.78125 6.484375 
Q 45.5625 -1.421875 35.59375 -1.421875 
Q 29.59375 -1.421875 25.265625 0.953125 
Q 20.953125 3.328125 18.109375 8.203125 
z
M 48.6875 27.296875 
Q 48.6875 37.203125 44.609375 42.84375 
Q 40.53125 48.484375 33.40625 48.484375 
Q 26.265625 48.484375 22.1875 42.84375 
Q 18.109375 37.203125 18.109375 27.296875 
Q 18.109375 17.390625 22.1875 11.75 
Q 26.265625 6.109375 33.40625 6.109375 
Q 40.53125 6.109375 44.609375 11.75 
Q 48.6875 17.390625 48.6875 27.296875 
z
" id="DejaVuSans-112"/>
      <path d="M 54.890625 33.015625 
L 54.890625 0 
L 45.90625 0 
L 45.90625 32.71875 
Q 45.90625 40.484375 42.875 44.328125 
Q 39.84375 48.1875 33.796875 48.1875 
Q 26.515625 48.1875 22.3125 43.546875 
Q 18.109375 38.921875 18.109375 30.90625 
L 18.109375 0 
L 9.078125 0 
L 9.078125 75.984375 
L 18.109375 75.984375 
L 18.109375 46.1875 
Q 21.34375 51.125 25.703125 53.5625 
Q 30.078125 56 35.796875 56 
Q 45.21875 56 50.046875 50.171875 
Q 54.890625 44.34375 54.890625 33.015625 
z
" id="DejaVuSans-104"/>
      <path d="M 56.203125 29.59375 
L 56.203125 25.203125 
L 14.890625 25.203125 
Q 15.484375 15.921875 20.484375 11.0625 
Q 25.484375 6.203125 34.421875 6.203125 
Q 39.59375 6.203125 44.453125 7.46875 
Q 49.3125 8.734375 54.109375 11.28125 
L 54.109375 2.78125 
Q 49.265625 0.734375 44.1875 -0.34375 
Q 39.109375 -1.421875 33.890625 -1.421875 
Q 20.796875 -1.421875 13.15625 6.1875 
Q 5.515625 13.8125 5.515625 26.8125 
Q 5.515625 40.234375 12.765625 48.109375 
Q 20.015625 56 32.328125 56 
Q 43.359375 56 49.78125 48.890625 
Q 56.203125 41.796875 56.203125 29.59375 
z
M 47.21875 32.234375 
Q 47.125 39.59375 43.09375 43.984375 
Q 39.0625 48.390625 32.421875 48.390625 
Q 24.90625 48.390625 20.390625 44.140625 
Q 15.875 39.890625 15.1875 32.171875 
z
" id="DejaVuSans-101"/>
      <path d="M 41.109375 46.296875 
Q 39.59375 47.171875 37.8125 47.578125 
Q 36.03125 48 33.890625 48 
Q 26.265625 48 22.1875 43.046875 
Q 18.109375 38.09375 18.109375 28.8125 
L 18.109375 0 
L 9.078125 0 
L 9.078125 54.6875 
L 18.109375 54.6875 
L 18.109375 46.1875 
Q 20.953125 51.171875 25.484375 53.578125 
Q 30.03125 56 36.53125 56 
Q 37.453125 56 38.578125 55.875 
Q 39.703125 55.765625 41.0625 55.515625 
z
" id="DejaVuSans-114"/>
      <path d="M 9.421875 54.6875 
L 18.40625 54.6875 
L 18.40625 0 
L 9.421875 0 
z
M 9.421875 75.984375 
L 18.40625 75.984375 
L 18.40625 64.59375 
L 9.421875 64.59375 
z
" id="DejaVuSans-105"/>
      <path d="M 48.78125 52.59375 
L 48.78125 44.1875 
Q 44.96875 46.296875 41.140625 47.34375 
Q 37.3125 48.390625 33.40625 48.390625 
Q 24.65625 48.390625 19.8125 42.84375 
Q 14.984375 37.3125 14.984375 27.296875 
Q 14.984375 17.28125 19.8125 11.734375 
Q 24.65625 6.203125 33.40625 6.203125 
Q 37.3125 6.203125 41.140625 7.25 
Q 44.96875 8.296875 48.78125 10.40625 
L 48.78125 2.09375 
Q 45.015625 0.34375 40.984375 -0.53125 
Q 36.96875 -1.421875 32.421875 -1.421875 
Q 20.0625 -1.421875 12.78125 6.34375 
Q 5.515625 14.109375 5.515625 27.296875 
Q 5.515625 40.671875 12.859375 48.328125 
Q 20.21875 56 33.015625 56 
Q 37.15625 56 41.109375 55.140625 
Q 45.0625 54.296875 48.78125 52.59375 
z
" id="DejaVuSans-99"/>
      <path id="DejaVuSans-32"/>
      <path d="M 54.890625 33.015625 
L 54.890625 0 
L 45.90625 0 
L 45.90625 32.71875 
Q 45.90625 40.484375 42.875 44.328125 
Q 39.84375 48.1875 33.796875 48.1875 
Q 26.515625 48.1875 22.3125 43.546875 
Q 18.109375 38.921875 18.109375 30.90625 
L 18.109375 0 
L 9.078125 0 
L 9.078125 54.6875 
L 18.109375 54.6875 
L 18.109375 46.1875 
Q 21.34375 51.125 25.703125 53.5625 
Q 30.078125 56 35.796875 56 
Q 45.21875 56 50.046875 50.171875 
Q 54.890625 44.34375 54.890625 33.015625 
z
" id="DejaVuSans-110"/>
      <path d="M 31 75.875 
Q 24.46875 64.65625 21.28125 53.65625 
Q 18.109375 42.671875 18.109375 31.390625 
Q 18.109375 20.125 21.3125 9.0625 
Q 24.515625 -2 31 -13.1875 
L 23.1875 -13.1875 
Q 15.875 -1.703125 12.234375 9.375 
Q 8.59375 20.453125 8.59375 31.390625 
Q 8.59375 42.28125 12.203125 53.3125 
Q 15.828125 64.359375 23.1875 75.875 
z
" id="DejaVuSans-40"/>
      <path d="M 8.015625 75.875 
L 15.828125 75.875 
Q 23.140625 64.359375 26.78125 53.3125 
Q 30.421875 42.28125 30.421875 31.390625 
Q 30.421875 20.453125 26.78125 9.375 
Q 23.140625 -1.703125 15.828125 -13.1875 
L 8.015625 -13.1875 
Q 14.5 -2 17.703125 9.0625 
Q 20.90625 20.125 20.90625 31.390625 
Q 20.90625 42.671875 17.703125 53.65625 
Q 14.5 64.65625 8.015625 75.875 
z
" id="DejaVuSans-41"/>
     </defs>
     <g transform="translate(130.45996 346.476562)scale(0.1 -0.1)">
      <use xlink:href="#DejaVuSans-97"/>
      <use x="61.279297" xlink:href="#DejaVuSans-116"/>
      <use x="100.488281" xlink:href="#DejaVuSans-109"/>
      <use x="197.900391" xlink:href="#DejaVuSans-111"/>
      <use x="259.082031" xlink:href="#DejaVuSans-115"/>
      <use x="311.181641" xlink:href="#DejaVuSans-112"/>
      <use x="374.658203" xlink:href="#DejaVuSans-104"/>
      <use x="438.037109" xlink:href="#DejaVuSans-101"/>
      <use x="499.560547" xlink:href="#DejaVuSans-114"/>
      <use x="540.673828" xlink:href="#DejaVuSans-105"/>
      <use x="568.457031" xlink:href="#DejaVuSans-99"/>
      <use x="623.4375" xlink:href="#DejaVuSans-32"/>
      <use x="655.224609" xlink:href="#DejaVuSans-99"/>
      <use x="710.205078" xlink:href="#DejaVuSans-111"/>
      <use x="771.386719" xlink:href="#DejaVuSans-110"/>
      <use x="834.765625" xlink:href="#DejaVuSans-99"/>
      <use x="889.746094" xlink:href="#DejaVuSans-101"/>
      <use x="951.269531" xlink:href="#DejaVuSans-110"/>
      <use x="1014.648438" xlink:href="#DejaVuSans-116"/>
      <use x="1053.857422" xlink:href="#DejaVuSans-114"/>
      <use x="1094.970703" xlink:href="#DejaVuSans-97"/>
      <use x="1156.25" xlink:href="#DejaVuSans-116"/>
      <use x="1195.458984" xlink:href="#DejaVuSans-105"/>
      <use x="1223.242188" xlink:href="#DejaVuSans-111"/>
      <use x="1284.423828" xlink:href="#DejaVuSans-110"/>
      <use x="1347.802734" xlink:href="#DejaVuSans-32"/>
      <use x="1379.589844" xlink:href="#DejaVuSans-40"/>
      <use x="1418.603516" xlink:href="#DejaVuSans-112"/>
      <use x="1482.080078" xlink:href="#DejaVuSans-112"/>
      <use x="1545.556641" xlink:href="#DejaVuSans-109"/>
      <use x="1642.96875" xlink:href="#DejaVuSans-41"/>
     </g>
    </g>
   </g>
   <g id="matplotlib.axis_2">
    <g id="ytick_1">
     <g id="line2d_9">
      <defs>
       <path d="M 0 0 
L -3.5 0 
" id="m4cd990f63b" style="stroke:#000000;stroke-width:0.8;"/>
      </defs>
      <g>
       <use style="stroke:#000000;stroke-width:0.8;" x="47.8" xlink:href="#m4cd990f63b" y="290.265803"/>
      </g>
     </g>
     <g id="text_10">
      <!-- 0.0 -->
      <defs>
       <path d="M 10.6875 12.40625 
L 21 12.40625 
L 21 0 
L 10.6875 0 
z
" id="DejaVuSans-46"/>
      </defs>
      <g transform="translate(24.896875 294.065022)scale(0.1 -0.1)">
       <use xlink:href="#DejaVuSans-48"/>
       <use x="63.623047" xlink:href="#DejaVuSans-46"/>
       <use x="95.410156" xlink:href="#DejaVuSans-48"/>
      </g>
     </g>
    </g>
    <g id="ytick_2">
     <g id="line2d_10">
      <g>
       <use style="stroke:#000000;stroke-width:0.8;" x="47.8" xlink:href="#m4cd990f63b" y="251.34783"/>
      </g>
     </g>
     <g id="text_11">
      <!-- 0.5 -->
      <defs>
       <path d="M 10.796875 72.90625 
L 49.515625 72.90625 
L 49.515625 64.59375 
L 19.828125 64.59375 
L 19.828125 46.734375 
Q 21.96875 47.46875 24.109375 47.828125 
Q 26.265625 48.1875 28.421875 48.1875 
Q 40.625 48.1875 47.75 41.5 
Q 54.890625 34.8125 54.890625 23.390625 
Q 54.890625 11.625 47.5625 5.09375 
Q 40.234375 -1.421875 26.90625 -1.421875 
Q 22.3125 -1.421875 17.546875 -0.640625 
Q 12.796875 0.140625 7.71875 1.703125 
L 7.71875 11.625 
Q 12.109375 9.234375 16.796875 8.0625 
Q 21.484375 6.890625 26.703125 6.890625 
Q 35.15625 6.890625 40.078125 11.328125 
Q 45.015625 15.765625 45.015625 23.390625 
Q 45.015625 31 40.078125 35.4375 
Q 35.15625 39.890625 26.703125 39.890625 
Q 22.75 39.890625 18.8125 39.015625 
Q 14.890625 38.140625 10.796875 36.28125 
z
" id="DejaVuSans-53"/>
      </defs>
      <g transform="translate(24.896875 255.147049)scale(0.1 -0.1)">
       <use xlink:href="#DejaVuSans-48"/>
       <use x="63.623047" xlink:href="#DejaVuSans-46"/>
       <use x="95.410156" xlink:href="#DejaVuSans-53"/>
      </g>
     </g>
    </g>
    <g id="ytick_3">
     <g id="line2d_11">
      <g>
       <use style="stroke:#000000;stroke-width:0.8;" x="47.8" xlink:href="#m4cd990f63b" y="212.429857"/>
      </g>
     </g>
     <g id="text_12">
      <!-- 1.0 -->
      <g transform="translate(24.896875 216.229076)scale(0.1 -0.1)">
       <use xlink:href="#DejaVuSans-49"/>
       <use x="63.623047" xlink:href="#DejaVuSans-46"/>
       <use x="95.410156" xlink:href="#DejaVuSans-48"/>
      </g>
     </g>
    </g>
    <g id="ytick_4">
     <g id="line2d_12">
      <g>
       <use style="stroke:#000000;stroke-width:0.8;" x="47.8" xlink:href="#m4cd990f63b" y="173.511884"/>
      </g>
     </g>
     <g id="text_13">
      <!-- 1.5 -->
      <g transform="translate(24.896875 177.311103)scale(0.1 -0.1)">
       <use xlink:href="#DejaVuSans-49"/>
       <use x="63.623047" xlink:href="#DejaVuSans-46"/>
       <use x="95.410156" xlink:href="#DejaVuSans-53"/>
      </g>
     </g>
    </g>
    <g id="ytick_5">
     <g id="line2d_13">
      <g>
       <use style="stroke:#000000;stroke-width:0.8;" x="47.8" xlink:href="#m4cd990f63b" y="134.593911"/>
      </g>
     </g>
     <g id="text_14">
      <!-- 2.0 -->
      <g transform="translate(24.896875 138.39313)scale(0.1 -0.1)">
       <use xlink:href="#DejaVuSans-50"/>
       <use x="63.623047" xlink:href="#DejaVuSans-46"/>
       <use x="95.410156" xlink:href="#DejaVuSans-48"/>
      </g>
     </g>
    </g>
    <g id="ytick_6">
     <g id="line2d_14">
      <g>
       <use style="stroke:#000000;stroke-width:0.8;" x="47.8" xlink:href="#m4cd990f63b" y="95.675938"/>
      </g>
     </g>
     <g id="text_15">
      <!-- 2.5 -->
      <g transform="translate(24.896875 99.475157)scale(0.1 -0.1)">
       <use xlink:href="#DejaVuSans-50"/>
       <use x="63.623047" xlink:href="#DejaVuSans-46"/>
       <use x="95.410156" xlink:href="#DejaVuSans-53"/>
      </g>
     </g>
    </g>
    <g id="ytick_7">
     <g id="line2d_15">
      <g>
       <use style="stroke:#000000;stroke-width:0.8;" x="47.8" xlink:href="#m4cd990f63b" y="56.757965"/>
      </g>
     </g>
     <g id="text_16">
      <!-- 3.0 -->
      <defs>
       <path d="M 40.578125 39.3125 
Q 47.65625 37.796875 51.625 33 
Q 55.609375 28.21875 55.609375 21.1875 
Q 55.609375 10.40625 48.1875 4.484375 
Q 40.765625 -1.421875 27.09375 -1.421875 
Q 22.515625 -1.421875 17.65625 -0.515625 
Q 12.796875 0.390625 7.625 2.203125 
L 7.625 11.71875 
Q 11.71875 9.328125 16.59375 8.109375 
Q 21.484375 6.890625 26.8125 6.890625 
Q 36.078125 6.890625 40.9375 10.546875 
Q 45.796875 14.203125 45.796875 21.1875 
Q 45.796875 27.640625 41.28125 31.265625 
Q 36.765625 34.90625 28.71875 34.90625 
L 20.21875 34.90625 
L 20.21875 43.015625 
L 29.109375 43.015625 
Q 36.375 43.015625 40.234375 45.921875 
Q 44.09375 48.828125 44.09375 54.296875 
Q 44.09375 59.90625 40.109375 62.90625 
Q 36.140625 65.921875 28.71875 65.921875 
Q 24.65625 65.921875 20.015625 65.03125 
Q 15.375 64.15625 9.8125 62.3125 
L 9.8125 71.09375 
Q 15.4375 72.65625 20.34375 73.4375 
Q 25.25 74.21875 29.59375 74.21875 
Q 40.828125 74.21875 47.359375 69.109375 
Q 53.90625 64.015625 53.90625 55.328125 
Q 53.90625 49.265625 50.4375 45.09375 
Q 46.96875 40.921875 40.578125 39.3125 
z
" id="DejaVuSans-51"/>
      </defs>
      <g transform="translate(24.896875 60.557184)scale(0.1 -0.1)">
       <use xlink:href="#DejaVuSans-51"/>
       <use x="63.623047" xlink:href="#DejaVuSans-46"/>
       <use x="95.410156" xlink:href="#DejaVuSans-48"/>
      </g>
     </g>
    </g>
    <g id="text_17">
     <!-- % deviation from Etminan -->
     <defs>
      <path d="M 72.703125 32.078125 
Q 68.453125 32.078125 66.03125 28.46875 
Q 63.625 24.859375 63.625 18.40625 
Q 63.625 12.0625 66.03125 8.421875 
Q 68.453125 4.78125 72.703125 4.78125 
Q 76.859375 4.78125 79.265625 8.421875 
Q 81.6875 12.0625 81.6875 18.40625 
Q 81.6875 24.8125 79.265625 28.4375 
Q 76.859375 32.078125 72.703125 32.078125 
z
M 72.703125 38.28125 
Q 80.421875 38.28125 84.953125 32.90625 
Q 89.5 27.546875 89.5 18.40625 
Q 89.5 9.28125 84.9375 3.921875 
Q 80.375 -1.421875 72.703125 -1.421875 
Q 64.890625 -1.421875 60.34375 3.921875 
Q 55.8125 9.28125 55.8125 18.40625 
Q 55.8125 27.59375 60.375 32.9375 
Q 64.9375 38.28125 72.703125 38.28125 
z
M 22.3125 68.015625 
Q 18.109375 68.015625 15.6875 64.375 
Q 13.28125 60.75 13.28125 54.390625 
Q 13.28125 47.953125 15.671875 44.328125 
Q 18.0625 40.71875 22.3125 40.71875 
Q 26.5625 40.71875 28.96875 44.328125 
Q 31.390625 47.953125 31.390625 54.390625 
Q 31.390625 60.6875 28.953125 64.34375 
Q 26.515625 68.015625 22.3125 68.015625 
z
M 66.40625 74.21875 
L 74.21875 74.21875 
L 28.609375 -1.421875 
L 20.796875 -1.421875 
z
M 22.3125 74.21875 
Q 30.03125 74.21875 34.609375 68.875 
Q 39.203125 63.53125 39.203125 54.390625 
Q 39.203125 45.171875 34.640625 39.84375 
Q 30.078125 34.515625 22.3125 34.515625 
Q 14.546875 34.515625 10.03125 39.859375 
Q 5.515625 45.21875 5.515625 54.390625 
Q 5.515625 63.484375 10.046875 68.84375 
Q 14.59375 74.21875 22.3125 74.21875 
z
" id="DejaVuSans-37"/>
      <path d="M 45.40625 46.390625 
L 45.40625 75.984375 
L 54.390625 75.984375 
L 54.390625 0 
L 45.40625 0 
L 45.40625 8.203125 
Q 42.578125 3.328125 38.25 0.953125 
Q 33.9375 -1.421875 27.875 -1.421875 
Q 17.96875 -1.421875 11.734375 6.484375 
Q 5.515625 14.40625 5.515625 27.296875 
Q 5.515625 40.1875 11.734375 48.09375 
Q 17.96875 56 27.875 56 
Q 33.9375 56 38.25 53.625 
Q 42.578125 51.265625 45.40625 46.390625 
z
M 14.796875 27.296875 
Q 14.796875 17.390625 18.875 11.75 
Q 22.953125 6.109375 30.078125 6.109375 
Q 37.203125 6.109375 41.296875 11.75 
Q 45.40625 17.390625 45.40625 27.296875 
Q 45.40625 37.203125 41.296875 42.84375 
Q 37.203125 48.484375 30.078125 48.484375 
Q 22.953125 48.484375 18.875 42.84375 
Q 14.796875 37.203125 14.796875 27.296875 
z
" id="DejaVuSans-100"/>
      <path d="M 2.984375 54.6875 
L 12.5 54.6875 
L 29.59375 8.796875 
L 46.6875 54.6875 
L 56.203125 54.6875 
L 35.6875 0 
L 23.484375 0 
z
" id="DejaVuSans-118"/>
      <path d="M 37.109375 75.984375 
L 37.109375 68.5 
L 28.515625 68.5 
Q 23.6875 68.5 21.796875 66.546875 
Q 19.921875 64.59375 19.921875 59.515625 
L 19.921875 54.6875 
L 34.71875 54.6875 
L 34.71875 47.703125 
L 19.921875 47.703125 
L 19.921875 0 
L 10.890625 0 
L 10.890625 47.703125 
L 2.296875 47.703125 
L 2.296875 54.6875 
L 10.890625 54.6875 
L 10.890625 58.5 
Q 10.890625 67.625 15.140625 71.796875 
Q 19.390625 75.984375 28.609375 75.984375 
z
" id="DejaVuSans-102"/>
      <path d="M 9.8125 72.90625 
L 55.90625 72.90625 
L 55.90625 64.59375 
L 19.671875 64.59375 
L 19.671875 43.015625 
L 54.390625 43.015625 
L 54.390625 34.71875 
L 19.671875 34.71875 
L 19.671875 8.296875 
L 56.78125 8.296875 
L 56.78125 0 
L 9.8125 0 
z
" id="DejaVuSans-69"/>
     </defs>
     <g transform="translate(18.817188 237.782813)rotate(-90)scale(0.1 -0.1)">
      <use xlink:href="#DejaVuSans-37"/>
      <use x="95.019531" xlink:href="#DejaVuSans-32"/>
      <use x="126.806641" xlink:href="#DejaVuSans-100"/>
      <use x="190.283203" xlink:href="#DejaVuSans-101"/>
      <use x="251.806641" xlink:href="#DejaVuSans-118"/>
      <use x="310.986328" xlink:href="#DejaVuSans-105"/>
      <use x="338.769531" xlink:href="#DejaVuSans-97"/>
      <use x="400.048828" xlink:href="#DejaVuSans-116"/>
      <use x="439.257812" xlink:href="#DejaVuSans-105"/>
      <use x="467.041016" xlink:href="#DejaVuSans-111"/>
      <use x="528.222656" xlink:href="#DejaVuSans-110"/>
      <use x="591.601562" xlink:href="#DejaVuSans-32"/>
      <use x="623.388672" xlink:href="#DejaVuSans-102"/>
      <use x="658.59375" xlink:href="#DejaVuSans-114"/>
      <use x="699.675781" xlink:href="#DejaVuSans-111"/>
      <use x="760.857422" xlink:href="#DejaVuSans-109"/>
      <use x="858.269531" xlink:href="#DejaVuSans-32"/>
      <use x="890.056641" xlink:href="#DejaVuSans-69"/>
      <use x="953.240234" xlink:href="#DejaVuSans-116"/>
      <use x="992.449219" xlink:href="#DejaVuSans-109"/>
      <use x="1089.861328" xlink:href="#DejaVuSans-105"/>
      <use x="1117.644531" xlink:href="#DejaVuSans-110"/>
      <use x="1181.023438" xlink:href="#DejaVuSans-97"/>
      <use x="1242.302734" xlink:href="#DejaVuSans-110"/>
     </g>
    </g>
   </g>
   <g id="line2d_16">
    <path clip-path="url(#p0b19b49a41)" d="M 121.939222 304.954545 
L 123.285826 304.154217 
L 123.079013 304.180015 
L 123.094921 304.138947 
L 123.142647 304.099096 
L 123.837329 303.568147 
L 124.197927 303.308175 
L 125.539563 302.51535 
L 128.753126 300.308511 
L 128.758429 300.17253 
L 128.758429 300.023055 
L 129.03418 299.751343 
L 130.046506 299.103353 
L 131.89457 297.909692 
L 133.986568 296.496217 
L 136.200002 295.051874 
L 141.978052 291.517551 
L 147.466178 288.720991 
L 155.93782 284.610502 
L 156.634977 283.995649 
L 156.855923 283.588617 
L 156.593222 283.55776 
L 154.887893 283.903571 
L 152.23875 284.633905 
L 147.624338 286.167967 
L 147.624338 286.167967 
" style="fill:none;stroke:#0000ff;stroke-linecap:square;stroke-width:1.5;"/>
   </g>
   <g id="line2d_17">
    <path clip-path="url(#p0b19b49a41)" d="M 121.939222 304.954545 
L 123.285826 304.154217 
L 123.079013 304.180015 
L 123.094921 304.138947 
L 123.142647 304.099096 
L 123.837329 303.568147 
L 124.197927 303.308175 
L 125.539563 302.51535 
L 128.753126 300.308511 
L 128.758429 300.17253 
L 128.758429 300.023055 
L 129.03418 299.751343 
L 130.046506 299.103353 
L 131.89457 297.909692 
L 133.986568 296.496217 
L 136.200002 295.051874 
L 141.978052 291.517551 
L 149.215553 287.799517 
L 157.939234 283.573928 
L 172.072916 276.783033 
L 174.641115 275.298248 
L 175.568937 274.552928 
L 176.444615 273.517609 
L 178.205103 271.925037 
L 178.189637 271.624322 
L 178.129647 271.527047 
L 178.129647 271.527047 
" style="fill:none;stroke:#daa520;stroke-linecap:square;stroke-width:1.5;"/>
   </g>
   <g id="line2d_18">
    <path clip-path="url(#p0b19b49a41)" d="M 121.939222 304.954545 
L 123.285826 304.154217 
L 123.079013 304.180015 
L 123.094921 304.138947 
L 123.142647 304.099096 
L 123.837329 303.568147 
L 124.197927 303.308175 
L 125.539563 302.51535 
L 128.753126 300.308511 
L 128.758429 300.17253 
L 128.758429 300.023055 
L 129.03418 299.751343 
L 130.046506 299.103353 
L 131.89457 297.909692 
L 133.986568 296.496217 
L 136.200002 295.051874 
L 141.978052 291.517551 
L 186.116058 268.041085 
L 192.852306 264.166567 
L 197.791444 261.05752 
L 205.019185 256.14809 
L 211.384458 251.571251 
L 218.735927 245.949696 
L 222.471188 243.007603 
L 222.471188 243.007603 
" style="fill:none;stroke:#808080;stroke-linecap:square;stroke-width:1.5;"/>
   </g>
   <g id="line2d_19">
    <path clip-path="url(#p0b19b49a41)" d="M 121.939222 304.954545 
L 123.285826 304.154217 
L 123.079013 304.180015 
L 123.094921 304.138947 
L 123.142647 304.099096 
L 123.837329 303.568147 
L 124.197927 303.308175 
L 125.539563 302.51535 
L 128.753126 300.308511 
L 128.758429 300.17253 
L 128.758429 300.023055 
L 129.03418 299.751343 
L 130.046506 299.103353 
L 131.89457 297.909692 
L 133.986568 296.496217 
L 136.200002 295.051874 
L 141.978052 291.517551 
L 149.311633 287.74638 
L 181.365881 271.612879 
L 189.518438 267.258649 
L 197.01636 263.007895 
L 203.305654 259.199624 
L 209.935786 254.928197 
L 216.773148 250.201955 
L 222.005781 246.347356 
L 227.387132 242.165547 
L 232.86914 237.662297 
L 238.413521 232.84571 
L 244.049065 227.675974 
L 249.805689 222.109659 
L 255.622846 216.181686 
L 261.474216 209.902217 
L 267.405985 203.213683 
L 273.409689 196.115272 
L 279.447714 188.633319 
L 285.49617 180.785356 
L 291.621285 172.477703 
L 297.810205 163.70787 
L 304.009307 154.534829 
L 310.232504 144.930453 
L 316.541525 134.788065 
L 322.898589 124.146687 
L 329.250202 113.082388 
L 335.655544 101.485977 
L 342.141321 89.291295 
L 348.650876 76.584489 
L 355.152307 63.418764 
L 361.730651 49.613997 
L 366.158432 40.045455 
L 366.158432 40.045455 
" style="fill:none;stroke:#ff0000;stroke-linecap:square;stroke-width:1.5;"/>
   </g>
   <g id="line2d_20">
    <path clip-path="url(#p0b19b49a41)" d="M 62.959925 290.265803 
" style="fill:none;stroke:#0000ff;stroke-linecap:square;stroke-width:1.5;"/>
   </g>
   <g id="line2d_21">
    <path clip-path="url(#p0b19b49a41)" d="M 62.959925 290.265803 
" style="fill:none;stroke:#daa520;stroke-linecap:square;stroke-width:1.5;"/>
   </g>
   <g id="line2d_22">
    <path clip-path="url(#p0b19b49a41)" d="M 62.959925 290.265803 
" style="fill:none;stroke:#808080;stroke-linecap:square;stroke-width:1.5;"/>
   </g>
   <g id="line2d_23">
    <path clip-path="url(#p0b19b49a41)" d="M 62.959925 290.265803 
" style="fill:none;stroke:#ff0000;stroke-linecap:square;stroke-width:1.5;"/>
   </g>
   <g id="patch_3">
    <path d="M 47.8 318.2 
L 47.8 26.8 
" style="fill:none;stroke:#000000;stroke-linecap:square;stroke-linejoin:miter;stroke-width:0.8;"/>
   </g>
   <g id="patch_4">
    <path d="M 381.318358 318.2 
L 381.318358 26.8 
" style="fill:none;stroke:#000000;stroke-linecap:square;stroke-linejoin:miter;stroke-width:0.8;"/>
   </g>
   <g id="patch_5">
    <path d="M 47.8 318.2 
L 381.318358 318.2 
" style="fill:none;stroke:#000000;stroke-linecap:square;stroke-linejoin:miter;stroke-width:0.8;"/>
   </g>
   <g id="patch_6">
    <path d="M 47.8 26.8 
L 381.318358 26.8 
" style="fill:none;stroke:#000000;stroke-linecap:square;stroke-linejoin:miter;stroke-width:0.8;"/>
   </g>
   <g id="text_18">
    <!-- CO2 -->
    <defs>
     <path d="M 64.40625 67.28125 
L 64.40625 56.890625 
Q 59.421875 61.53125 53.78125 63.8125 
Q 48.140625 66.109375 41.796875 66.109375 
Q 29.296875 66.109375 22.65625 58.46875 
Q 16.015625 50.828125 16.015625 36.375 
Q 16.015625 21.96875 22.65625 14.328125 
Q 29.296875 6.6875 41.796875 6.6875 
Q 48.140625 6.6875 53.78125 8.984375 
Q 59.421875 11.28125 64.40625 15.921875 
L 64.40625 5.609375 
Q 59.234375 2.09375 53.4375 0.328125 
Q 47.65625 -1.421875 41.21875 -1.421875 
Q 24.65625 -1.421875 15.125 8.703125 
Q 5.609375 18.84375 5.609375 36.375 
Q 5.609375 53.953125 15.125 64.078125 
Q 24.65625 74.21875 41.21875 74.21875 
Q 47.75 74.21875 53.53125 72.484375 
Q 59.328125 70.75 64.40625 67.28125 
z
" id="DejaVuSans-67"/>
     <path d="M 39.40625 66.21875 
Q 28.65625 66.21875 22.328125 58.203125 
Q 16.015625 50.203125 16.015625 36.375 
Q 16.015625 22.609375 22.328125 14.59375 
Q 28.65625 6.59375 39.40625 6.59375 
Q 50.140625 6.59375 56.421875 14.59375 
Q 62.703125 22.609375 62.703125 36.375 
Q 62.703125 50.203125 56.421875 58.203125 
Q 50.140625 66.21875 39.40625 66.21875 
z
M 39.40625 74.21875 
Q 54.734375 74.21875 63.90625 63.9375 
Q 73.09375 53.65625 73.09375 36.375 
Q 73.09375 19.140625 63.90625 8.859375 
Q 54.734375 -1.421875 39.40625 -1.421875 
Q 24.03125 -1.421875 14.8125 8.828125 
Q 5.609375 19.09375 5.609375 36.375 
Q 5.609375 53.65625 14.8125 63.9375 
Q 24.03125 74.21875 39.40625 74.21875 
z
" id="DejaVuSans-79"/>
    </defs>
    <g transform="translate(201.828866 20.8)scale(0.12 -0.12)">
     <use xlink:href="#DejaVuSans-67"/>
     <use x="69.824219" xlink:href="#DejaVuSans-79"/>
     <use x="148.535156" xlink:href="#DejaVuSans-50"/>
    </g>
   </g>
   <g id="legend_1">
    <g id="line2d_24">
     <path d="M 56.8 39.898438 
L 76.8 39.898438 
" style="fill:none;stroke:#0000ff;stroke-linecap:square;stroke-width:1.5;"/>
    </g>
    <g id="line2d_25"/>
    <g id="text_19">
     <!-- RCP3PD -->
     <defs>
      <path d="M 44.390625 34.1875 
Q 47.5625 33.109375 50.5625 29.59375 
Q 53.5625 26.078125 56.59375 19.921875 
L 66.609375 0 
L 56 0 
L 46.6875 18.703125 
Q 43.0625 26.03125 39.671875 28.421875 
Q 36.28125 30.8125 30.421875 30.8125 
L 19.671875 30.8125 
L 19.671875 0 
L 9.8125 0 
L 9.8125 72.90625 
L 32.078125 72.90625 
Q 44.578125 72.90625 50.734375 67.671875 
Q 56.890625 62.453125 56.890625 51.90625 
Q 56.890625 45.015625 53.6875 40.46875 
Q 50.484375 35.9375 44.390625 34.1875 
z
M 19.671875 64.796875 
L 19.671875 38.921875 
L 32.078125 38.921875 
Q 39.203125 38.921875 42.84375 42.21875 
Q 46.484375 45.515625 46.484375 51.90625 
Q 46.484375 58.296875 42.84375 61.546875 
Q 39.203125 64.796875 32.078125 64.796875 
z
" id="DejaVuSans-82"/>
      <path d="M 19.671875 64.796875 
L 19.671875 37.40625 
L 32.078125 37.40625 
Q 38.96875 37.40625 42.71875 40.96875 
Q 46.484375 44.53125 46.484375 51.125 
Q 46.484375 57.671875 42.71875 61.234375 
Q 38.96875 64.796875 32.078125 64.796875 
z
M 9.8125 72.90625 
L 32.078125 72.90625 
Q 44.34375 72.90625 50.609375 67.359375 
Q 56.890625 61.8125 56.890625 51.125 
Q 56.890625 40.328125 50.609375 34.8125 
Q 44.34375 29.296875 32.078125 29.296875 
L 19.671875 29.296875 
L 19.671875 0 
L 9.8125 0 
z
" id="DejaVuSans-80"/>
      <path d="M 19.671875 64.796875 
L 19.671875 8.109375 
L 31.59375 8.109375 
Q 46.6875 8.109375 53.6875 14.9375 
Q 60.6875 21.78125 60.6875 36.53125 
Q 60.6875 51.171875 53.6875 57.984375 
Q 46.6875 64.796875 31.59375 64.796875 
z
M 9.8125 72.90625 
L 30.078125 72.90625 
Q 51.265625 72.90625 61.171875 64.09375 
Q 71.09375 55.28125 71.09375 36.53125 
Q 71.09375 17.671875 61.125 8.828125 
Q 51.171875 0 30.078125 0 
L 9.8125 0 
z
" id="DejaVuSans-68"/>
     </defs>
     <g transform="translate(84.8 43.398438)scale(0.1 -0.1)">
      <use xlink:href="#DejaVuSans-82"/>
      <use x="69.404297" xlink:href="#DejaVuSans-67"/>
      <use x="139.228516" xlink:href="#DejaVuSans-80"/>
      <use x="199.53125" xlink:href="#DejaVuSans-51"/>
      <use x="263.154297" xlink:href="#DejaVuSans-80"/>
      <use x="323.457031" xlink:href="#DejaVuSans-68"/>
     </g>
    </g>
    <g id="line2d_26">
     <path d="M 56.8 54.576563 
L 76.8 54.576563 
" style="fill:none;stroke:#daa520;stroke-linecap:square;stroke-width:1.5;"/>
    </g>
    <g id="line2d_27"/>
    <g id="text_20">
     <!-- RCP45 -->
     <g transform="translate(84.8 58.076563)scale(0.1 -0.1)">
      <use xlink:href="#DejaVuSans-82"/>
      <use x="69.404297" xlink:href="#DejaVuSans-67"/>
      <use x="139.228516" xlink:href="#DejaVuSans-80"/>
      <use x="199.53125" xlink:href="#DejaVuSans-52"/>
      <use x="263.154297" xlink:href="#DejaVuSans-53"/>
     </g>
    </g>
    <g id="line2d_28">
     <path d="M 56.8 69.254688 
L 76.8 69.254688 
" style="fill:none;stroke:#808080;stroke-linecap:square;stroke-width:1.5;"/>
    </g>
    <g id="line2d_29"/>
    <g id="text_21">
     <!-- RCP6 -->
     <g transform="translate(84.8 72.754688)scale(0.1 -0.1)">
      <use xlink:href="#DejaVuSans-82"/>
      <use x="69.404297" xlink:href="#DejaVuSans-67"/>
      <use x="139.228516" xlink:href="#DejaVuSans-80"/>
      <use x="199.53125" xlink:href="#DejaVuSans-54"/>
     </g>
    </g>
    <g id="line2d_30">
     <path d="M 56.8 83.932813 
L 76.8 83.932813 
" style="fill:none;stroke:#ff0000;stroke-linecap:square;stroke-width:1.5;"/>
    </g>
    <g id="line2d_31"/>
    <g id="text_22">
     <!-- RCP85 -->
     <g transform="translate(84.8 87.432813)scale(0.1 -0.1)">
      <use xlink:href="#DejaVuSans-82"/>
      <use x="69.404297" xlink:href="#DejaVuSans-67"/>
      <use x="139.228516" xlink:href="#DejaVuSans-80"/>
      <use x="199.53125" xlink:href="#DejaVuSans-56"/>
      <use x="263.154297" xlink:href="#DejaVuSans-53"/>
     </g>
    </g>
   </g>
  </g>
  <g id="axes_2">
   <g id="patch_7">
    <path d="M 423.493358 318.2 
L 757.011716 318.2 
L 757.011716 26.8 
L 423.493358 26.8 
z
" style="fill:#ffffff;"/>
   </g>
   <g id="matplotlib.axis_3">
    <g id="xtick_9">
     <g id="line2d_32">
      <g>
       <use style="stroke:#000000;stroke-width:0.8;" x="466.171239" xlink:href="#m4de7a11ece" y="318.2"/>
      </g>
     </g>
     <g id="text_23">
      <!-- 1000 -->
      <g transform="translate(453.446239 332.798438)scale(0.1 -0.1)">
       <use xlink:href="#DejaVuSans-49"/>
       <use x="63.623047" xlink:href="#DejaVuSans-48"/>
       <use x="127.246094" xlink:href="#DejaVuSans-48"/>
       <use x="190.869141" xlink:href="#DejaVuSans-48"/>
      </g>
     </g>
    </g>
    <g id="xtick_10">
     <g id="line2d_33">
      <g>
       <use style="stroke:#000000;stroke-width:0.8;" x="515.645121" xlink:href="#m4de7a11ece" y="318.2"/>
      </g>
     </g>
     <g id="text_24">
      <!-- 1500 -->
      <g transform="translate(502.920121 332.798438)scale(0.1 -0.1)">
       <use xlink:href="#DejaVuSans-49"/>
       <use x="63.623047" xlink:href="#DejaVuSans-53"/>
       <use x="127.246094" xlink:href="#DejaVuSans-48"/>
       <use x="190.869141" xlink:href="#DejaVuSans-48"/>
      </g>
     </g>
    </g>
    <g id="xtick_11">
     <g id="line2d_34">
      <g>
       <use style="stroke:#000000;stroke-width:0.8;" x="565.119003" xlink:href="#m4de7a11ece" y="318.2"/>
      </g>
     </g>
     <g id="text_25">
      <!-- 2000 -->
      <g transform="translate(552.394003 332.798438)scale(0.1 -0.1)">
       <use xlink:href="#DejaVuSans-50"/>
       <use x="63.623047" xlink:href="#DejaVuSans-48"/>
       <use x="127.246094" xlink:href="#DejaVuSans-48"/>
       <use x="190.869141" xlink:href="#DejaVuSans-48"/>
      </g>
     </g>
    </g>
    <g id="xtick_12">
     <g id="line2d_35">
      <g>
       <use style="stroke:#000000;stroke-width:0.8;" x="614.592885" xlink:href="#m4de7a11ece" y="318.2"/>
      </g>
     </g>
     <g id="text_26">
      <!-- 2500 -->
      <g transform="translate(601.867885 332.798438)scale(0.1 -0.1)">
       <use xlink:href="#DejaVuSans-50"/>
       <use x="63.623047" xlink:href="#DejaVuSans-53"/>
       <use x="127.246094" xlink:href="#DejaVuSans-48"/>
       <use x="190.869141" xlink:href="#DejaVuSans-48"/>
      </g>
     </g>
    </g>
    <g id="xtick_13">
     <g id="line2d_36">
      <g>
       <use style="stroke:#000000;stroke-width:0.8;" x="664.066767" xlink:href="#m4de7a11ece" y="318.2"/>
      </g>
     </g>
     <g id="text_27">
      <!-- 3000 -->
      <g transform="translate(651.341767 332.798438)scale(0.1 -0.1)">
       <use xlink:href="#DejaVuSans-51"/>
       <use x="63.623047" xlink:href="#DejaVuSans-48"/>
       <use x="127.246094" xlink:href="#DejaVuSans-48"/>
       <use x="190.869141" xlink:href="#DejaVuSans-48"/>
      </g>
     </g>
    </g>
    <g id="xtick_14">
     <g id="line2d_37">
      <g>
       <use style="stroke:#000000;stroke-width:0.8;" x="713.540648" xlink:href="#m4de7a11ece" y="318.2"/>
      </g>
     </g>
     <g id="text_28">
      <!-- 3500 -->
      <g transform="translate(700.815648 332.798438)scale(0.1 -0.1)">
       <use xlink:href="#DejaVuSans-51"/>
       <use x="63.623047" xlink:href="#DejaVuSans-53"/>
       <use x="127.246094" xlink:href="#DejaVuSans-48"/>
       <use x="190.869141" xlink:href="#DejaVuSans-48"/>
      </g>
     </g>
    </g>
    <g id="text_29">
     <!-- atmospheric concentration (ppb) -->
     <defs>
      <path d="M 48.6875 27.296875 
Q 48.6875 37.203125 44.609375 42.84375 
Q 40.53125 48.484375 33.40625 48.484375 
Q 26.265625 48.484375 22.1875 42.84375 
Q 18.109375 37.203125 18.109375 27.296875 
Q 18.109375 17.390625 22.1875 11.75 
Q 26.265625 6.109375 33.40625 6.109375 
Q 40.53125 6.109375 44.609375 11.75 
Q 48.6875 17.390625 48.6875 27.296875 
z
M 18.109375 46.390625 
Q 20.953125 51.265625 25.265625 53.625 
Q 29.59375 56 35.59375 56 
Q 45.5625 56 51.78125 48.09375 
Q 58.015625 40.1875 58.015625 27.296875 
Q 58.015625 14.40625 51.78125 6.484375 
Q 45.5625 -1.421875 35.59375 -1.421875 
Q 29.59375 -1.421875 25.265625 0.953125 
Q 20.953125 3.328125 18.109375 8.203125 
L 18.109375 0 
L 9.078125 0 
L 9.078125 75.984375 
L 18.109375 75.984375 
z
" id="DejaVuSans-98"/>
     </defs>
     <g transform="translate(507.849412 346.476562)scale(0.1 -0.1)">
      <use xlink:href="#DejaVuSans-97"/>
      <use x="61.279297" xlink:href="#DejaVuSans-116"/>
      <use x="100.488281" xlink:href="#DejaVuSans-109"/>
      <use x="197.900391" xlink:href="#DejaVuSans-111"/>
      <use x="259.082031" xlink:href="#DejaVuSans-115"/>
      <use x="311.181641" xlink:href="#DejaVuSans-112"/>
      <use x="374.658203" xlink:href="#DejaVuSans-104"/>
      <use x="438.037109" xlink:href="#DejaVuSans-101"/>
      <use x="499.560547" xlink:href="#DejaVuSans-114"/>
      <use x="540.673828" xlink:href="#DejaVuSans-105"/>
      <use x="568.457031" xlink:href="#DejaVuSans-99"/>
      <use x="623.4375" xlink:href="#DejaVuSans-32"/>
      <use x="655.224609" xlink:href="#DejaVuSans-99"/>
      <use x="710.205078" xlink:href="#DejaVuSans-111"/>
      <use x="771.386719" xlink:href="#DejaVuSans-110"/>
      <use x="834.765625" xlink:href="#DejaVuSans-99"/>
      <use x="889.746094" xlink:href="#DejaVuSans-101"/>
      <use x="951.269531" xlink:href="#DejaVuSans-110"/>
      <use x="1014.648438" xlink:href="#DejaVuSans-116"/>
      <use x="1053.857422" xlink:href="#DejaVuSans-114"/>
      <use x="1094.970703" xlink:href="#DejaVuSans-97"/>
      <use x="1156.25" xlink:href="#DejaVuSans-116"/>
      <use x="1195.458984" xlink:href="#DejaVuSans-105"/>
      <use x="1223.242188" xlink:href="#DejaVuSans-111"/>
      <use x="1284.423828" xlink:href="#DejaVuSans-110"/>
      <use x="1347.802734" xlink:href="#DejaVuSans-32"/>
      <use x="1379.589844" xlink:href="#DejaVuSans-40"/>
      <use x="1418.603516" xlink:href="#DejaVuSans-112"/>
      <use x="1482.080078" xlink:href="#DejaVuSans-112"/>
      <use x="1545.556641" xlink:href="#DejaVuSans-98"/>
      <use x="1609.033203" xlink:href="#DejaVuSans-41"/>
     </g>
    </g>
   </g>
   <g id="matplotlib.axis_4">
    <g id="ytick_8">
     <g id="line2d_38">
      <g>
       <use style="stroke:#000000;stroke-width:0.8;" x="423.493358" xlink:href="#m4cd990f63b" y="288.171524"/>
      </g>
     </g>
     <g id="text_30">
      <!-- −0.5 -->
      <defs>
       <path d="M 10.59375 35.5 
L 73.1875 35.5 
L 73.1875 27.203125 
L 10.59375 27.203125 
z
" id="DejaVuSans-8722"/>
      </defs>
      <g transform="translate(392.210545 291.970742)scale(0.1 -0.1)">
       <use xlink:href="#DejaVuSans-8722"/>
       <use x="83.789062" xlink:href="#DejaVuSans-48"/>
       <use x="147.412109" xlink:href="#DejaVuSans-46"/>
       <use x="179.199219" xlink:href="#DejaVuSans-53"/>
      </g>
     </g>
    </g>
    <g id="ytick_9">
     <g id="line2d_39">
      <g>
       <use style="stroke:#000000;stroke-width:0.8;" x="423.493358" xlink:href="#m4cd990f63b" y="241.434536"/>
      </g>
     </g>
     <g id="text_31">
      <!-- 0.0 -->
      <g transform="translate(400.590233 245.233755)scale(0.1 -0.1)">
       <use xlink:href="#DejaVuSans-48"/>
       <use x="63.623047" xlink:href="#DejaVuSans-46"/>
       <use x="95.410156" xlink:href="#DejaVuSans-48"/>
      </g>
     </g>
    </g>
    <g id="ytick_10">
     <g id="line2d_40">
      <g>
       <use style="stroke:#000000;stroke-width:0.8;" x="423.493358" xlink:href="#m4cd990f63b" y="194.697548"/>
      </g>
     </g>
     <g id="text_32">
      <!-- 0.5 -->
      <g transform="translate(400.590233 198.496767)scale(0.1 -0.1)">
       <use xlink:href="#DejaVuSans-48"/>
       <use x="63.623047" xlink:href="#DejaVuSans-46"/>
       <use x="95.410156" xlink:href="#DejaVuSans-53"/>
      </g>
     </g>
    </g>
    <g id="ytick_11">
     <g id="line2d_41">
      <g>
       <use style="stroke:#000000;stroke-width:0.8;" x="423.493358" xlink:href="#m4cd990f63b" y="147.960561"/>
      </g>
     </g>
     <g id="text_33">
      <!-- 1.0 -->
      <g transform="translate(400.590233 151.75978)scale(0.1 -0.1)">
       <use xlink:href="#DejaVuSans-49"/>
       <use x="63.623047" xlink:href="#DejaVuSans-46"/>
       <use x="95.410156" xlink:href="#DejaVuSans-48"/>
      </g>
     </g>
    </g>
    <g id="ytick_12">
     <g id="line2d_42">
      <g>
       <use style="stroke:#000000;stroke-width:0.8;" x="423.493358" xlink:href="#m4cd990f63b" y="101.223573"/>
      </g>
     </g>
     <g id="text_34">
      <!-- 1.5 -->
      <g transform="translate(400.590233 105.022792)scale(0.1 -0.1)">
       <use xlink:href="#DejaVuSans-49"/>
       <use x="63.623047" xlink:href="#DejaVuSans-46"/>
       <use x="95.410156" xlink:href="#DejaVuSans-53"/>
      </g>
     </g>
    </g>
    <g id="ytick_13">
     <g id="line2d_43">
      <g>
       <use style="stroke:#000000;stroke-width:0.8;" x="423.493358" xlink:href="#m4cd990f63b" y="54.486586"/>
      </g>
     </g>
     <g id="text_35">
      <!-- 2.0 -->
      <g transform="translate(400.590233 58.285804)scale(0.1 -0.1)">
       <use xlink:href="#DejaVuSans-50"/>
       <use x="63.623047" xlink:href="#DejaVuSans-46"/>
       <use x="95.410156" xlink:href="#DejaVuSans-48"/>
      </g>
     </g>
    </g>
   </g>
   <g id="line2d_44">
    <path clip-path="url(#pdf6eab5707)" d="M 438.653283 304.954545 
L 444.241813 302.300293 
L 445.154951 301.85344 
L 445.614841 301.716131 
L 448.632748 299.621822 
L 452.615395 297.492796 
L 460.605427 294.997308 
L 462.238065 294.37508 
L 465.082814 293.179664 
L 477.525495 288.815417 
L 480.023926 287.834977 
L 483.264465 286.948433 
L 497.042941 283.639771 
L 504.340339 281.414087 
L 509.015621 279.77582 
L 513.765113 277.867249 
L 518.638291 275.69195 
L 520.369877 275.008737 
L 526.118247 272.427345 
L 527.885454 271.772543 
L 531.694448 269.770377 
L 532.77001 268.80379 
L 533.799067 267.465656 
L 534.804376 266.454487 
L 536.602257 265.258972 
L 538.041947 263.515845 
L 538.404096 262.756337 
L 538.879787 262.028673 
L 540.307109 260.470315 
L 540.483236 259.877656 
L 540.452067 259.254043 
L 540.883232 257.044283 
L 540.751632 256.336003 
L 540.828762 255.584834 
L 541.567466 254.181765 
L 542.670506 252.752023 
L 543.800895 251.325376 
L 543.980683 250.657996 
L 543.873562 250.026536 
L 543.50705 249.429018 
L 542.903053 248.863535 
L 542.079145 248.328205 
L 539.838977 247.339877 
L 536.906156 246.448043 
L 532.350007 245.169713 
L 528.625771 243.876134 
L 525.561211 242.585955 
L 522.176188 240.902365 
L 519.472796 239.286432 
L 516.599977 237.416277 
L 515.149541 236.805357 
L 512.652198 236.062866 
L 509.915679 235.517821 
L 505.498384 234.910315 
L 501.540266 234.581851 
L 497.267939 234.238053 
L 492.717103 233.75533 
L 491.550252 233.936981 
L 490.64584 234.288888 
L 490.278674 234.70476 
L 490.27721 235.35521 
L 490.382431 235.790458 
L 490.410225 235.848007 
L 490.410225 235.848007 
" style="fill:none;stroke:#0000ff;stroke-linecap:square;stroke-width:1.5;"/>
   </g>
   <g id="line2d_45">
    <path clip-path="url(#pdf6eab5707)" d="M 438.653283 304.954545 
L 444.241813 302.300293 
L 445.154951 301.85344 
L 445.614841 301.716131 
L 448.632748 299.621822 
L 452.615395 297.492796 
L 460.605427 294.997308 
L 462.238065 294.37508 
L 465.082814 293.179664 
L 477.525495 288.815417 
L 480.023926 287.834977 
L 483.264465 286.948433 
L 497.042941 283.639771 
L 504.340339 281.414087 
L 509.015621 279.77582 
L 513.765113 277.867249 
L 518.638291 275.69195 
L 520.369877 275.008737 
L 526.118247 272.427345 
L 527.885454 271.772543 
L 531.694448 269.770377 
L 532.77001 268.80379 
L 533.799067 267.465656 
L 534.804376 266.454487 
L 536.602257 265.258972 
L 538.041947 263.515845 
L 538.404096 262.756337 
L 538.879787 262.028673 
L 540.307109 260.470315 
L 540.483236 259.877656 
L 540.452067 259.254043 
L 540.883232 257.044283 
L 540.751632 256.336003 
L 540.828732 255.584836 
L 541.745176 253.486893 
L 547.022991 242.012432 
L 548.288809 238.384437 
L 548.883307 236.218547 
L 549.218671 234.104308 
L 549.497892 230.676709 
L 549.420901 228.703387 
L 549.076216 226.823723 
L 548.424101 224.44189 
L 547.978905 223.30522 
L 547.37381 222.209381 
L 546.228994 220.635274 
L 544.472543 218.646121 
L 542.922467 217.247066 
L 541.128573 215.931527 
L 538.562897 214.287648 
L 535.734654 212.782799 
L 528.818987 209.483964 
L 526.447229 207.917627 
L 524.559642 206.405075 
L 522.041569 204.139205 
L 521.338229 203.12534 
L 520.58115 201.595128 
L 520.074587 199.673021 
L 519.78655 198.307424 
L 519.766008 198.258377 
L 519.766008 198.258377 
" style="fill:none;stroke:#daa520;stroke-linecap:square;stroke-width:1.5;"/>
   </g>
   <g id="line2d_46">
    <path clip-path="url(#pdf6eab5707)" d="M 438.653283 304.954545 
L 444.241813 302.300293 
L 445.154951 301.85344 
L 445.614841 301.716131 
L 448.632748 299.621822 
L 452.615395 297.492796 
L 460.605427 294.997308 
L 462.238065 294.37508 
L 465.082814 293.179664 
L 477.525495 288.815417 
L 480.023926 287.834977 
L 483.264465 286.948433 
L 497.042941 283.639771 
L 504.340339 281.414087 
L 509.015621 279.77582 
L 513.765113 277.867249 
L 518.638291 275.69195 
L 520.369877 275.008737 
L 526.118247 272.427345 
L 527.885454 271.772543 
L 531.694448 269.770377 
L 532.77001 268.80379 
L 533.799067 267.465656 
L 534.804376 266.454487 
L 536.602257 265.258972 
L 538.041947 263.515845 
L 538.404096 262.756337 
L 538.879787 262.028673 
L 540.307109 260.470315 
L 540.483236 259.877656 
L 540.452067 259.254043 
L 540.883232 257.044283 
L 540.751632 256.336003 
L 540.829108 255.584811 
L 541.452271 254.161323 
L 543.309827 250.378199 
L 543.725398 248.919639 
L 543.937621 247.521714 
L 543.968582 246.182725 
L 543.74498 242.947968 
L 543.956392 241.563672 
L 544.627475 239.366783 
L 545.612728 237.034277 
L 547.271607 233.721444 
L 549.351795 230.175605 
L 551.597979 226.429786 
L 554.197673 221.545245 
L 556.223065 217.47366 
L 557.54568 214.341403 
L 559.502302 208.966913 
L 560.174039 206.774375 
L 560.688597 204.577596 
L 561.157956 201.277577 
L 561.409748 197.9584 
L 561.376581 195.758488 
L 561.063035 193.599206 
L 560.481014 191.479397 
L 559.668831 189.394482 
L 558.696432 187.336333 
L 558.079048 186.327952 
L 557.266479 185.348816 
L 556.273765 184.396739 
L 555.115819 183.469458 
L 552.351199 181.681214 
L 549.043306 179.9698 
L 543.398217 177.501276 
L 538.086286 175.057159 
L 533.297956 172.634021 
L 529.098811 170.236315 
L 526.788084 168.669989 
L 524.964101 167.155718 
L 523.514268 165.702311 
L 521.841784 163.6483 
L 520.58868 161.753879 
L 519.695657 160.018903 
L 518.692039 157.487374 
L 517.899814 155.039265 
L 516.840756 151.29814 
L 516.70969 151.143229 
L 516.70969 151.143229 
" style="fill:none;stroke:#808080;stroke-linecap:square;stroke-width:1.5;"/>
   </g>
   <g id="line2d_47">
    <path clip-path="url(#pdf6eab5707)" d="M 438.653283 304.954545 
L 444.241813 302.300293 
L 445.154951 301.85344 
L 445.614841 301.716131 
L 448.632748 299.621822 
L 452.615395 297.492796 
L 460.605427 294.997308 
L 462.238065 294.37508 
L 465.082814 293.179664 
L 477.525495 288.815417 
L 480.023926 287.834977 
L 483.264465 286.948433 
L 497.042941 283.639771 
L 504.340339 281.414087 
L 509.015621 279.77582 
L 513.765113 277.867249 
L 518.638291 275.69195 
L 520.369877 275.008737 
L 526.118247 272.427345 
L 527.885454 271.772543 
L 531.694448 269.770377 
L 532.77001 268.80379 
L 533.799067 267.465656 
L 534.804376 266.454487 
L 536.602257 265.258972 
L 538.041947 263.515845 
L 538.404096 262.756337 
L 538.879787 262.028673 
L 540.307109 260.470315 
L 540.483236 259.877656 
L 540.452067 259.254043 
L 540.883232 257.044283 
L 540.751632 256.336003 
L 540.828514 255.58485 
L 541.178196 254.878382 
L 541.709891 254.14651 
L 543.219379 252.611227 
L 545.192279 250.981498 
L 547.670089 249.220561 
L 552.22696 246.320969 
L 578.181443 230.49192 
L 587.565066 224.602409 
L 598.5875 218.032148 
L 634.739946 196.639438 
L 645.58748 190.070775 
L 652.546011 185.639723 
L 659.144185 181.216794 
L 668.555156 174.571499 
L 677.506307 167.902931 
L 682.879586 163.562802 
L 687.69006 159.350447 
L 692.008675 155.256511 
L 695.961658 151.250912 
L 701.410978 145.351672 
L 706.459313 139.524914 
L 711.062858 133.793943 
L 722.888748 118.391622 
L 730.125758 108.583884 
L 732.682083 104.757179 
L 734.895931 101.055594 
L 736.792255 97.473333 
L 738.345329 94.023053 
L 739.634955 90.681912 
L 740.611183 87.502481 
L 741.296901 84.482788 
L 741.718498 81.613442 
L 741.85179 78.903986 
L 741.731173 76.34083 
L 741.317482 72.674295 
L 740.726655 69.179503 
L 740.21375 66.95182 
L 739.17462 63.797101 
L 736.202368 55.922302 
L 734.437061 52.332409 
L 730.232087 43.928872 
L 728.548313 40.81505 
L 728.15932 40.045455 
L 728.15932 40.045455 
" style="fill:none;stroke:#ff0000;stroke-linecap:square;stroke-width:1.5;"/>
   </g>
   <g id="patch_8">
    <path d="M 423.493358 318.2 
L 423.493358 26.8 
" style="fill:none;stroke:#000000;stroke-linecap:square;stroke-linejoin:miter;stroke-width:0.8;"/>
   </g>
   <g id="patch_9">
    <path d="M 757.011716 318.2 
L 757.011716 26.8 
" style="fill:none;stroke:#000000;stroke-linecap:square;stroke-linejoin:miter;stroke-width:0.8;"/>
   </g>
   <g id="patch_10">
    <path d="M 423.493358 318.2 
L 757.011716 318.2 
" style="fill:none;stroke:#000000;stroke-linecap:square;stroke-linejoin:miter;stroke-width:0.8;"/>
   </g>
   <g id="patch_11">
    <path d="M 423.493358 26.8 
L 757.011716 26.8 
" style="fill:none;stroke:#000000;stroke-linecap:square;stroke-linejoin:miter;stroke-width:0.8;"/>
   </g>
   <g id="text_36">
    <!-- CH4 -->
    <defs>
     <path d="M 9.8125 72.90625 
L 19.671875 72.90625 
L 19.671875 43.015625 
L 55.515625 43.015625 
L 55.515625 72.90625 
L 65.375 72.90625 
L 65.375 0 
L 55.515625 0 
L 55.515625 34.71875 
L 19.671875 34.71875 
L 19.671875 0 
L 9.8125 0 
z
" id="DejaVuSans-72"/>
    </defs>
    <g transform="translate(577.733162 20.8)scale(0.12 -0.12)">
     <use xlink:href="#DejaVuSans-67"/>
     <use x="69.824219" xlink:href="#DejaVuSans-72"/>
     <use x="145.019531" xlink:href="#DejaVuSans-52"/>
    </g>
   </g>
  </g>
  <g id="axes_3">
   <g id="patch_12">
    <path d="M 799.186716 318.2 
L 1132.705074 318.2 
L 1132.705074 26.8 
L 799.186716 26.8 
z
" style="fill:#ffffff;"/>
   </g>
   <g id="matplotlib.axis_5">
    <g id="xtick_15">
     <g id="line2d_48">
      <g>
       <use style="stroke:#000000;stroke-width:0.8;" x="852.101469" xlink:href="#m4de7a11ece" y="318.2"/>
      </g>
     </g>
     <g id="text_37">
      <!-- 300 -->
      <g transform="translate(842.557719 332.798438)scale(0.1 -0.1)">
       <use xlink:href="#DejaVuSans-51"/>
       <use x="63.623047" xlink:href="#DejaVuSans-48"/>
       <use x="127.246094" xlink:href="#DejaVuSans-48"/>
      </g>
     </g>
    </g>
    <g id="xtick_16">
     <g id="line2d_49">
      <g>
       <use style="stroke:#000000;stroke-width:0.8;" x="921.913384" xlink:href="#m4de7a11ece" y="318.2"/>
      </g>
     </g>
     <g id="text_38">
      <!-- 350 -->
      <g transform="translate(912.369634 332.798438)scale(0.1 -0.1)">
       <use xlink:href="#DejaVuSans-51"/>
       <use x="63.623047" xlink:href="#DejaVuSans-53"/>
       <use x="127.246094" xlink:href="#DejaVuSans-48"/>
      </g>
     </g>
    </g>
    <g id="xtick_17">
     <g id="line2d_50">
      <g>
       <use style="stroke:#000000;stroke-width:0.8;" x="991.725298" xlink:href="#m4de7a11ece" y="318.2"/>
      </g>
     </g>
     <g id="text_39">
      <!-- 400 -->
      <g transform="translate(982.181548 332.798438)scale(0.1 -0.1)">
       <use xlink:href="#DejaVuSans-52"/>
       <use x="63.623047" xlink:href="#DejaVuSans-48"/>
       <use x="127.246094" xlink:href="#DejaVuSans-48"/>
      </g>
     </g>
    </g>
    <g id="xtick_18">
     <g id="line2d_51">
      <g>
       <use style="stroke:#000000;stroke-width:0.8;" x="1061.537213" xlink:href="#m4de7a11ece" y="318.2"/>
      </g>
     </g>
     <g id="text_40">
      <!-- 450 -->
      <g transform="translate(1051.993463 332.798438)scale(0.1 -0.1)">
       <use xlink:href="#DejaVuSans-52"/>
       <use x="63.623047" xlink:href="#DejaVuSans-53"/>
       <use x="127.246094" xlink:href="#DejaVuSans-48"/>
      </g>
     </g>
    </g>
    <g id="xtick_19">
     <g id="line2d_52">
      <g>
       <use style="stroke:#000000;stroke-width:0.8;" x="1131.349128" xlink:href="#m4de7a11ece" y="318.2"/>
      </g>
     </g>
     <g id="text_41">
      <!-- 500 -->
      <g transform="translate(1121.805378 332.798438)scale(0.1 -0.1)">
       <use xlink:href="#DejaVuSans-53"/>
       <use x="63.623047" xlink:href="#DejaVuSans-48"/>
       <use x="127.246094" xlink:href="#DejaVuSans-48"/>
      </g>
     </g>
    </g>
    <g id="text_42">
     <!-- atmospheric concentration (ppb) -->
     <g transform="translate(883.54277 346.476562)scale(0.1 -0.1)">
      <use xlink:href="#DejaVuSans-97"/>
      <use x="61.279297" xlink:href="#DejaVuSans-116"/>
      <use x="100.488281" xlink:href="#DejaVuSans-109"/>
      <use x="197.900391" xlink:href="#DejaVuSans-111"/>
      <use x="259.082031" xlink:href="#DejaVuSans-115"/>
      <use x="311.181641" xlink:href="#DejaVuSans-112"/>
      <use x="374.658203" xlink:href="#DejaVuSans-104"/>
      <use x="438.037109" xlink:href="#DejaVuSans-101"/>
      <use x="499.560547" xlink:href="#DejaVuSans-114"/>
      <use x="540.673828" xlink:href="#DejaVuSans-105"/>
      <use x="568.457031" xlink:href="#DejaVuSans-99"/>
      <use x="623.4375" xlink:href="#DejaVuSans-32"/>
      <use x="655.224609" xlink:href="#DejaVuSans-99"/>
      <use x="710.205078" xlink:href="#DejaVuSans-111"/>
      <use x="771.386719" xlink:href="#DejaVuSans-110"/>
      <use x="834.765625" xlink:href="#DejaVuSans-99"/>
      <use x="889.746094" xlink:href="#DejaVuSans-101"/>
      <use x="951.269531" xlink:href="#DejaVuSans-110"/>
      <use x="1014.648438" xlink:href="#DejaVuSans-116"/>
      <use x="1053.857422" xlink:href="#DejaVuSans-114"/>
      <use x="1094.970703" xlink:href="#DejaVuSans-97"/>
      <use x="1156.25" xlink:href="#DejaVuSans-116"/>
      <use x="1195.458984" xlink:href="#DejaVuSans-105"/>
      <use x="1223.242188" xlink:href="#DejaVuSans-111"/>
      <use x="1284.423828" xlink:href="#DejaVuSans-110"/>
      <use x="1347.802734" xlink:href="#DejaVuSans-32"/>
      <use x="1379.589844" xlink:href="#DejaVuSans-40"/>
      <use x="1418.603516" xlink:href="#DejaVuSans-112"/>
      <use x="1482.080078" xlink:href="#DejaVuSans-112"/>
      <use x="1545.556641" xlink:href="#DejaVuSans-98"/>
      <use x="1609.033203" xlink:href="#DejaVuSans-41"/>
     </g>
    </g>
   </g>
   <g id="matplotlib.axis_6">
    <g id="ytick_14">
     <g id="line2d_53">
      <g>
       <use style="stroke:#000000;stroke-width:0.8;" x="799.186716" xlink:href="#m4cd990f63b" y="279.032567"/>
      </g>
     </g>
     <g id="text_43">
      <!-- −2 -->
      <g transform="translate(777.444528 282.831786)scale(0.1 -0.1)">
       <use xlink:href="#DejaVuSans-8722"/>
       <use x="83.789062" xlink:href="#DejaVuSans-50"/>
      </g>
     </g>
    </g>
    <g id="ytick_15">
     <g id="line2d_54">
      <g>
       <use style="stroke:#000000;stroke-width:0.8;" x="799.186716" xlink:href="#m4cd990f63b" y="238.898612"/>
      </g>
     </g>
     <g id="text_44">
      <!-- 0 -->
      <g transform="translate(785.824216 242.69783)scale(0.1 -0.1)">
       <use xlink:href="#DejaVuSans-48"/>
      </g>
     </g>
    </g>
    <g id="ytick_16">
     <g id="line2d_55">
      <g>
       <use style="stroke:#000000;stroke-width:0.8;" x="799.186716" xlink:href="#m4cd990f63b" y="198.764656"/>
      </g>
     </g>
     <g id="text_45">
      <!-- 2 -->
      <g transform="translate(785.824216 202.563875)scale(0.1 -0.1)">
       <use xlink:href="#DejaVuSans-50"/>
      </g>
     </g>
    </g>
    <g id="ytick_17">
     <g id="line2d_56">
      <g>
       <use style="stroke:#000000;stroke-width:0.8;" x="799.186716" xlink:href="#m4cd990f63b" y="158.630701"/>
      </g>
     </g>
     <g id="text_46">
      <!-- 4 -->
      <g transform="translate(785.824216 162.429919)scale(0.1 -0.1)">
       <use xlink:href="#DejaVuSans-52"/>
      </g>
     </g>
    </g>
    <g id="ytick_18">
     <g id="line2d_57">
      <g>
       <use style="stroke:#000000;stroke-width:0.8;" x="799.186716" xlink:href="#m4cd990f63b" y="118.496745"/>
      </g>
     </g>
     <g id="text_47">
      <!-- 6 -->
      <g transform="translate(785.824216 122.295964)scale(0.1 -0.1)">
       <use xlink:href="#DejaVuSans-54"/>
      </g>
     </g>
    </g>
    <g id="ytick_19">
     <g id="line2d_58">
      <g>
       <use style="stroke:#000000;stroke-width:0.8;" x="799.186716" xlink:href="#m4cd990f63b" y="78.36279"/>
      </g>
     </g>
     <g id="text_48">
      <!-- 8 -->
      <g transform="translate(785.824216 82.162008)scale(0.1 -0.1)">
       <use xlink:href="#DejaVuSans-56"/>
      </g>
     </g>
    </g>
    <g id="ytick_20">
     <g id="line2d_59">
      <g>
       <use style="stroke:#000000;stroke-width:0.8;" x="799.186716" xlink:href="#m4cd990f63b" y="38.228834"/>
      </g>
     </g>
     <g id="text_49">
      <!-- 10 -->
      <g transform="translate(779.461716 42.028053)scale(0.1 -0.1)">
       <use xlink:href="#DejaVuSans-49"/>
       <use x="63.623047" xlink:href="#DejaVuSans-48"/>
      </g>
     </g>
    </g>
   </g>
   <g id="line2d_60">
    <path clip-path="url(#pb2859ecc4b)" d="M 814.346641 304.954545 
L 816.474369 302.342922 
L 817.23388 301.827418 
L 817.755822 301.312775 
L 817.788997 301.130509 
L 819.150245 300.248886 
L 820.965355 298.933984 
L 822.361593 297.631385 
L 823.199336 296.803677 
L 823.792738 295.975181 
L 825.991813 292.951196 
L 827.946547 290.875718 
L 830.389964 288.331947 
L 832.135261 286.211643 
L 833.566406 284.631353 
L 834.369243 283.863322 
L 836.428694 282.028584 
L 837.336249 280.827364 
L 838.313616 279.363996 
L 840.477785 275.883212 
L 841.245716 274.572073 
L 846.830669 267.479805 
L 849.308992 264.815234 
L 857.414156 256.751042 
L 858.241427 255.741683 
L 860.845411 253.356096 
L 862.147404 252.558928 
L 865.344789 251.019955 
L 866.905086 249.869009 
L 869.268219 248.639069 
L 871.313708 247.765783 
L 873.404575 246.556605 
L 875.121948 246.050916 
L 879.244341 244.79683 
L 880.305022 244.483875 
L 882.229527 243.621933 
L 886.99715 241.11295 
L 888.788803 240.773342 
L 890.491865 240.87733 
L 892.107606 241.362255 
L 893.637576 242.173061 
L 895.829474 243.509033 
L 897.945459 244.533509 
L 900.653869 245.558175 
L 903.839344 246.541137 
L 907.858319 247.643603 
L 908.799202 248.145019 
L 909.971958 249.083275 
L 910.864671 250.183454 
L 911.725731 251.695971 
L 912.30517 253.14109 
L 913.522871 256.902812 
L 913.873299 258.027884 
L 913.88863 258.828765 
L 913.713695 259.451953 
L 913.245941 260.213656 
L 912.433261 260.971204 
L 910.964502 262.018169 
L 910.964502 262.018169 
" style="fill:none;stroke:#0000ff;stroke-linecap:square;stroke-width:1.5;"/>
   </g>
   <g id="line2d_61">
    <path clip-path="url(#pb2859ecc4b)" d="M 814.346641 304.954545 
L 816.474369 302.342922 
L 817.23388 301.827418 
L 817.755822 301.312775 
L 817.788997 301.130509 
L 819.150245 300.248886 
L 820.965355 298.933984 
L 822.361593 297.631385 
L 823.199336 296.803677 
L 823.792738 295.975181 
L 825.991813 292.951196 
L 827.946547 290.875718 
L 830.389964 288.331947 
L 832.135261 286.211643 
L 833.566406 284.631353 
L 834.369243 283.863322 
L 836.428694 282.028584 
L 837.336249 280.827364 
L 838.313616 279.363996 
L 840.477785 275.883212 
L 841.245716 274.572073 
L 846.830669 267.479805 
L 849.308992 264.815234 
L 857.414156 256.751042 
L 858.241427 255.741683 
L 860.845411 253.356096 
L 862.147404 252.558928 
L 865.344789 251.019955 
L 866.905086 249.869009 
L 869.268219 248.639069 
L 871.313708 247.765783 
L 873.404575 246.556605 
L 875.121948 246.050916 
L 879.244341 244.79683 
L 881.268147 244.098887 
L 888.061824 241.136458 
L 902.926442 234.636147 
L 907.911124 232.653936 
L 915.623973 229.950862 
L 919.282103 228.888179 
L 924.436624 227.59525 
L 926.873548 227.176111 
L 929.986448 226.896423 
L 932.944895 226.82384 
L 935.051065 226.974391 
L 937.709837 227.410631 
L 939.591352 227.858319 
L 941.366362 228.470169 
L 943.570478 229.510087 
L 945.620337 230.451102 
L 948.062861 231.237343 
L 950.382976 231.751142 
L 954.255652 232.33363 
L 956.806635 232.41022 
L 959.141048 232.354738 
L 963.092165 232.216077 
L 963.092165 232.216077 
" style="fill:none;stroke:#daa520;stroke-linecap:square;stroke-width:1.5;"/>
   </g>
   <g id="line2d_62">
    <path clip-path="url(#pb2859ecc4b)" d="M 814.346641 304.954545 
L 816.474369 302.342922 
L 817.23388 301.827418 
L 817.755822 301.312775 
L 817.788997 301.130509 
L 819.150245 300.248886 
L 820.965355 298.933984 
L 822.361593 297.631385 
L 823.199336 296.803677 
L 823.792738 295.975181 
L 825.991813 292.951196 
L 827.946547 290.875718 
L 830.389964 288.331947 
L 832.135261 286.211643 
L 833.566406 284.631353 
L 834.369243 283.863322 
L 836.428694 282.028584 
L 837.336249 280.827364 
L 838.313616 279.363996 
L 840.477785 275.883212 
L 841.245716 274.572073 
L 846.830669 267.479805 
L 849.308992 264.815234 
L 857.414156 256.751042 
L 858.241427 255.741683 
L 860.845411 253.356096 
L 862.147404 252.558928 
L 865.344789 251.019955 
L 866.905086 249.869009 
L 869.268219 248.639069 
L 871.313708 247.765783 
L 873.404575 246.556605 
L 875.121948 246.050916 
L 879.244341 244.79683 
L 881.277264 244.092641 
L 889.489617 240.683094 
L 893.346823 239.512219 
L 898.915496 238.043156 
L 902.935392 236.608552 
L 908.349054 234.410956 
L 914.188235 231.765957 
L 926.977624 225.794779 
L 935.243787 222.070015 
L 946.912947 217.148621 
L 952.947223 214.868493 
L 960.623951 212.194513 
L 965.230434 210.830576 
L 969.800518 209.734817 
L 974.33469 208.817602 
L 977.318591 208.44986 
L 980.248443 208.465992 
L 983.12468 208.815274 
L 985.948125 209.463368 
L 988.7197 210.34446 
L 992.770522 211.659179 
L 997.963538 213.052138 
L 1001.706657 213.823874 
L 1004.098483 214.134109 
L 1007.458503 214.26054 
L 1010.549844 214.133732 
L 1014.265876 213.771011 
L 1018.282323 213.091569 
L 1024.338186 211.773101 
L 1029.370829 210.508789 
L 1029.370829 210.508789 
" style="fill:none;stroke:#808080;stroke-linecap:square;stroke-width:1.5;"/>
   </g>
   <g id="line2d_63">
    <path clip-path="url(#pb2859ecc4b)" d="M 814.346641 304.954545 
L 816.474369 302.342922 
L 817.23388 301.827418 
L 817.755822 301.312775 
L 817.788997 301.130509 
L 819.150245 300.248886 
L 820.965355 298.933984 
L 822.361593 297.631385 
L 823.199336 296.803677 
L 823.792738 295.975181 
L 825.991813 292.951196 
L 827.946547 290.875718 
L 830.389964 288.331947 
L 832.135261 286.211643 
L 833.566406 284.631353 
L 834.369243 283.863322 
L 836.428694 282.028584 
L 837.336249 280.827364 
L 838.313616 279.363996 
L 840.477785 275.883212 
L 841.245716 274.572073 
L 846.830669 267.479805 
L 849.308992 264.815234 
L 857.414156 256.751042 
L 858.241427 255.741683 
L 860.845411 253.356096 
L 862.147404 252.558928 
L 865.344789 251.019955 
L 866.905086 249.869009 
L 869.268219 248.639069 
L 871.313708 247.765783 
L 873.404575 246.556605 
L 875.121948 246.050916 
L 879.244341 244.79683 
L 880.305022 244.483987 
L 882.266066 243.552943 
L 884.300302 242.287521 
L 886.414346 240.789307 
L 889.814005 238.042591 
L 894.784194 233.586504 
L 909.124693 220.104196 
L 915.51212 214.014316 
L 920.538773 208.854801 
L 925.762687 203.168874 
L 932.997477 194.925478 
L 938.514308 188.333618 
L 944.086653 181.385175 
L 955.357954 167.050529 
L 964.800407 155.64498 
L 970.476911 149.014413 
L 974.253652 144.884142 
L 979.905695 139.111675 
L 987.41916 131.881611 
L 994.939188 124.94525 
L 1006.257807 114.9586 
L 1029.259716 94.660803 
L 1035.015066 90.02957 
L 1040.741849 85.763371 
L 1046.412727 81.796789 
L 1051.937405 78.164942 
L 1057.310912 74.849514 
L 1064.247116 70.918255 
L 1078.94406 62.847604 
L 1086.593868 58.712978 
L 1102.223248 49.809691 
L 1112.626759 43.350925 
L 1117.545148 40.045455 
L 1117.545148 40.045455 
" style="fill:none;stroke:#ff0000;stroke-linecap:square;stroke-width:1.5;"/>
   </g>
   <g id="patch_13">
    <path d="M 799.186716 318.2 
L 799.186716 26.8 
" style="fill:none;stroke:#000000;stroke-linecap:square;stroke-linejoin:miter;stroke-width:0.8;"/>
   </g>
   <g id="patch_14">
    <path d="M 1132.705074 318.2 
L 1132.705074 26.8 
" style="fill:none;stroke:#000000;stroke-linecap:square;stroke-linejoin:miter;stroke-width:0.8;"/>
   </g>
   <g id="patch_15">
    <path d="M 799.186716 318.2 
L 1132.705074 318.2 
" style="fill:none;stroke:#000000;stroke-linecap:square;stroke-linejoin:miter;stroke-width:0.8;"/>
   </g>
   <g id="patch_16">
    <path d="M 799.186716 26.8 
L 1132.705074 26.8 
" style="fill:none;stroke:#000000;stroke-linecap:square;stroke-linejoin:miter;stroke-width:0.8;"/>
   </g>
   <g id="text_50">
    <!-- N2O -->
    <defs>
     <path d="M 9.8125 72.90625 
L 23.09375 72.90625 
L 55.421875 11.921875 
L 55.421875 72.90625 
L 64.984375 72.90625 
L 64.984375 0 
L 51.703125 0 
L 19.390625 60.984375 
L 19.390625 0 
L 9.8125 0 
z
" id="DejaVuSans-78"/>
    </defs>
    <g transform="translate(952.91652 20.8)scale(0.12 -0.12)">
     <use xlink:href="#DejaVuSans-78"/>
     <use x="74.804688" xlink:href="#DejaVuSans-50"/>
     <use x="138.427734" xlink:href="#DejaVuSans-79"/>
    </g>
   </g>
  </g>
 </g>
 <defs>
  <clipPath id="p0b19b49a41">
   <rect height="291.4" width="333.518358" x="47.8" y="26.8"/>
  </clipPath>
  <clipPath id="pdf6eab5707">
   <rect height="291.4" width="333.518358" x="423.493358" y="26.8"/>
  </clipPath>
  <clipPath id="pb2859ecc4b">
   <rect height="291.4" width="333.518358" x="799.186716" y="26.8"/>
  </clipPath>
 </defs>
</svg>
