<?xml version="1.0" encoding="utf-8" standalone="no"?>
<!DOCTYPE svg PUBLIC "-//W3C//DTD SVG 1.1//EN"
  "http://www.w3.org/Graphics/SVG/1.1/DTD/svg11.dtd">
<!-- Created with matplotlib (https://matplotlib.org/) -->
<svg height="351.59625pt" version="1.1" viewBox="0 0 856.181732 351.59625" width="856.181732pt" xmlns="http://www.w3.org/2000/svg" xmlns:xlink="http://www.w3.org/1999/xlink">
 <defs>
  <style type="text/css">
*{stroke-linecap:butt;stroke-linejoin:round;}
  </style>
 </defs>
 <g id="figure_1">
  <g id="patch_1">
   <path d="M -0 351.59625 
L 856.181732 351.59625 
L 856.181732 0 
L -0 0 
z
" style="fill:#ffffff;"/>
  </g>
  <g id="axes_1">
   <g id="patch_2">
    <path d="M 48.982813 327.718125 
L 425.569232 327.718125 
L 425.569232 22.318125 
L 48.982813 22.318125 
z
" style="fill:#ffffff;"/>
   </g>
   <g id="PolyCollection_1">
    <defs>
     <path d="M 48.982812 -194.852679 
L 48.982812 -195.618286 
L 50.526199 -197.348909 
L 52.069586 -196.633986 
L 53.612973 -195.873866 
L 55.15636 -195.084643 
L 56.699747 -194.306186 
L 58.243134 -193.549868 
L 59.786521 -192.78823 
L 61.329908 -192.004319 
L 62.873295 -191.197255 
L 64.416682 -190.365636 
L 65.960069 -189.508061 
L 67.503456 -188.623109 
L 69.046843 -187.709467 
L 70.59023 -186.749091 
L 72.133617 -185.715237 
L 73.677004 -184.635 
L 75.220391 -183.569367 
L 76.763778 -182.548341 
L 78.307165 -181.578293 
L 79.850552 -180.666807 
L 81.393939 -179.821829 
L 82.937326 -179.05124 
L 84.480713 -178.388024 
L 86.0241 -177.806539 
L 87.567487 -177.264902 
L 89.110874 -176.727935 
L 90.654261 -176.190727 
L 92.197648 -175.65511 
L 93.741034 -175.117061 
L 95.284421 -174.573048 
L 96.827808 -174.021523 
L 98.371195 -173.460393 
L 99.914582 -172.886642 
L 101.457969 -172.335293 
L 103.001356 -171.880207 
L 104.544743 -171.516851 
L 106.08813 -171.162299 
L 107.631517 -170.772432 
L 109.174904 -170.341601 
L 110.718291 -169.862541 
L 112.261678 -169.327364 
L 113.805065 -168.729191 
L 115.348452 -168.020967 
L 116.891839 -167.213569 
L 118.435226 -166.433766 
L 119.978613 -165.77341 
L 121.522 -165.157729 
L 123.065387 -164.509674 
L 124.608774 -163.777691 
L 126.152161 -162.920253 
L 127.695548 -162.06545 
L 129.238935 -161.32641 
L 130.782322 -160.644456 
L 132.325709 -159.925795 
L 133.869096 -159.155729 
L 135.412483 -158.345396 
L 136.95587 -157.508538 
L 138.499256 -156.650178 
L 140.042643 -155.769215 
L 141.58603 -154.869828 
L 143.129417 -153.953501 
L 144.672804 -153.018469 
L 146.216191 -152.062557 
L 147.759578 -151.063831 
L 149.302965 -149.957244 
L 150.846352 -148.757931 
L 152.389739 -147.574867 
L 153.933126 -146.460972 
L 155.476513 -145.319553 
L 157.0199 -144.106067 
L 158.563287 -142.970579 
L 160.106674 -141.972188 
L 161.650061 -141.015361 
L 163.193448 -140.087112 
L 164.736835 -139.198177 
L 166.280222 -138.321914 
L 167.823609 -137.387579 
L 169.366996 -136.346084 
L 170.910383 -135.195228 
L 172.45377 -133.938691 
L 173.997157 -132.554892 
L 175.540544 -131.026381 
L 177.083931 -129.334147 
L 178.627318 -127.419972 
L 180.170705 -128.763038 
L 181.714092 -130.52395 
L 183.257478 -130.798244 
L 184.800865 -131.069622 
L 186.344252 -129.497061 
L 187.887639 -129.495304 
L 189.431026 -131.2112 
L 190.974413 -131.346814 
L 192.5178 -131.624599 
L 194.061187 -131.99851 
L 195.604574 -134.92749 
L 197.147961 -137.786648 
L 198.691348 -140.591361 
L 200.234735 -143.415504 
L 201.778122 -148.114575 
L 203.321509 -151.192528 
L 204.864896 -152.407983 
L 206.408283 -155.251047 
L 207.95167 -158.104661 
L 209.495057 -162.808008 
L 211.038444 -157.629699 
L 212.581831 -150.592483 
L 214.125218 -145.152641 
L 215.668605 -139.694947 
L 217.211992 -136.087518 
L 218.755379 -130.852933 
L 220.298766 -123.75384 
L 221.842153 -118.307156 
L 223.38554 -112.890565 
L 224.928927 -109.329388 
L 226.472314 -105.708522 
L 228.0157 -100.459843 
L 229.559087 -95.140486 
L 231.102474 -87.499054 
L 232.645861 -79.629602 
L 234.189248 -75.742631 
L 235.732635 -72.248041 
L 237.276022 -67.050709 
L 238.819409 -61.830795 
L 240.362796 -56.526062 
L 241.906183 -56.724144 
L 243.44957 -57.186761 
L 244.992957 -54.274746 
L 246.536344 -51.206594 
L 248.079731 -51.60922 
L 249.623118 -52.114946 
L 251.166505 -48.998922 
L 252.709892 -47.496706 
L 254.253279 -47.975766 
L 255.796666 -48.722791 
L 257.340053 -53.966264 
L 258.88344 -57.9438 
L 260.426827 -60.142011 
L 261.970214 -62.454828 
L 263.513601 -63.581188 
L 265.056988 -64.951991 
L 266.600375 -66.217226 
L 268.143762 -69.206975 
L 269.687149 -72.382018 
L 271.230535 -72.118099 
L 272.773922 -71.372912 
L 274.317309 -74.072445 
L 275.860696 -78.560287 
L 277.404083 -81.654226 
L 278.94747 -83.444456 
L 280.490857 -85.296253 
L 282.034244 -87.115837 
L 283.577631 -90.725914 
L 285.121018 -94.490829 
L 286.664405 -94.716866 
L 288.207792 -94.987749 
L 289.751179 -98.778391 
L 291.294566 -102.927479 
L 292.837953 -105.404507 
L 294.38134 -107.844114 
L 295.924727 -110.325615 
L 297.468114 -112.824839 
L 299.011501 -115.296081 
L 300.554888 -115.810362 
L 302.098275 -116.06366 
L 303.641662 -117.829378 
L 305.185049 -119.634884 
L 306.728436 -121.33547 
L 308.271823 -121.244354 
L 309.81521 -121.052883 
L 311.358597 -122.543087 
L 312.901984 -124.068152 
L 314.445371 -125.526146 
L 315.988757 -126.902518 
L 317.532144 -130.096376 
L 319.075531 -132.477062 
L 320.618918 -131.346676 
L 322.162305 -129.889963 
L 323.705692 -131.915619 
L 325.249079 -134.269049 
L 326.792466 -136.873939 
L 328.335853 -141.535484 
L 329.87924 -144.726028 
L 331.422627 -148.076211 
L 332.966014 -153.37816 
L 334.509401 -150.226533 
L 336.052788 -149.236308 
L 337.596175 -148.813844 
L 339.139562 -145.286511 
L 340.682949 -142.042369 
L 342.226336 -141.022967 
L 343.769723 -140.486568 
L 345.31311 -138.510212 
L 346.856497 -136.601896 
L 348.399884 -136.582723 
L 349.943271 -141.75992 
L 351.486658 -147.031046 
L 353.030045 -150.758991 
L 354.573432 -153.503829 
L 356.116819 -158.196185 
L 357.660206 -163.154595 
L 359.203593 -169.20409 
L 360.746979 -177.16587 
L 362.290366 -184.409713 
L 363.833753 -190.12234 
L 365.37714 -192.707893 
L 366.920527 -197.361068 
L 368.463914 -201.836184 
L 370.007301 -204.171193 
L 371.550688 -205.629328 
L 373.094075 -207.117648 
L 374.637462 -211.325102 
L 376.180849 -216.431402 
L 377.724236 -219.547784 
L 379.267623 -229.993246 
L 380.81101 -246.583585 
L 382.354397 -256.030179 
L 383.897784 -259.152472 
L 385.441171 -249.523021 
L 386.984558 -229.243977 
L 388.527945 -219.675408 
L 390.071332 -216.723589 
L 391.614719 -211.386986 
L 393.158106 -208.791662 
L 394.701493 -207.692823 
L 396.24488 -226.129755 
L 397.788267 -222.022541 
L 399.331654 -207.117798 
L 400.875041 -223.223225 
L 402.418428 -244.47755 
L 403.961815 -248.458365 
L 405.505201 -271.127222 
L 407.048588 -308.423456 
L 408.591975 -315.396307 
L 410.135362 -296.547017 
L 411.678749 -276.096539 
L 413.222136 -282.454129 
L 414.765523 -284.757665 
L 416.30891 -263.089753 
L 417.852297 -244.326984 
L 419.395684 -243.840063 
L 420.939071 -249.039968 
L 422.482458 -249.520017 
L 424.025845 -250.37942 
L 425.569232 -249.649775 
L 425.569232 -144.453669 
L 425.569232 -144.453669 
L 424.025845 -146.387562 
L 422.482458 -146.299506 
L 420.939071 -146.347576 
L 419.395684 -141.244246 
L 417.852297 -141.7022 
L 416.30891 -160.508679 
L 414.765523 -182.56421 
L 413.222136 -180.820082 
L 411.678749 -174.930868 
L 410.135362 -195.980968 
L 408.591975 -215.942148 
L 407.048588 -210.344324 
L 405.505201 -174.181209 
L 403.961815 -152.659467 
L 402.418428 -150.280512 
L 400.875041 -130.859668 
L 399.331654 -115.462109 
L 397.788267 -130.094566 
L 396.24488 -133.446852 
L 394.701493 -116.678871 
L 393.158106 -119.579663 
L 391.614719 -123.932294 
L 390.071332 -130.975741 
L 388.527945 -135.957275 
L 386.984558 -147.959333 
L 385.441171 -170.619637 
L 383.897784 -181.766892 
L 382.354397 -179.402848 
L 380.81101 -172.211007 
L 379.267623 -158.186728 
L 377.724236 -150.019927 
L 376.180849 -149.104588 
L 374.637462 -146.229001 
L 373.094075 -143.93393 
L 371.550688 -144.053592 
L 370.007301 -144.040575 
L 368.463914 -143.540158 
L 366.920527 -141.003035 
L 365.37714 -138.428689 
L 363.833753 -137.701525 
L 362.290366 -133.513263 
L 360.746979 -127.799421 
L 359.203593 -121.498798 
L 357.660206 -117.007929 
L 356.116819 -113.38063 
L 354.573432 -109.624605 
L 353.030045 -107.632626 
L 351.486658 -104.945661 
L 349.943271 -100.70529 
L 348.399884 -96.588716 
L 346.856497 -97.703512 
L 345.31311 -100.685418 
L 343.769723 -103.746784 
L 342.226336 -105.30701 
L 340.682949 -107.302259 
L 339.139562 -111.412588 
L 337.596175 -115.706664 
L 336.052788 -116.86884 
L 334.509401 -118.536676 
L 332.966014 -122.333751 
L 331.422627 -117.621291 
L 329.87924 -114.857051 
L 328.335853 -112.254652 
L 326.792466 -108.154743 
L 325.249079 -106.06975 
L 323.705692 -104.197684 
L 322.162305 -102.567348 
L 320.618918 -104.415237 
L 319.075531 -106.00232 
L 317.532144 -104.082186 
L 315.988757 -101.313851 
L 314.445371 -100.346365 
L 312.901984 -99.338458 
L 311.358597 -98.256827 
L 309.81521 -97.16924 
L 308.271823 -97.788558 
L 306.728436 -98.296696 
L 305.185049 -96.995162 
L 303.641662 -95.620291 
L 302.098275 -94.266853 
L 300.554888 -94.442939 
L 299.011501 -94.3785 
L 297.468114 -92.370478 
L 295.924727 -90.352599 
L 294.38134 -88.34482 
L 292.837953 -86.364163 
L 291.294566 -84.339627 
L 289.751179 -80.66227 
L 288.207792 -77.284707 
L 286.664405 -77.39521 
L 285.121018 -77.627539 
L 283.577631 -74.309528 
L 282.034244 -71.140406 
L 280.490857 -69.734537 
L 278.94747 -68.295822 
L 277.404083 -66.894723 
L 275.860696 -64.246286 
L 274.317309 -60.097377 
L 272.773922 -57.74854 
L 271.230535 -58.834323 
L 269.687149 -59.426847 
L 268.143762 -56.602171 
L 266.600375 -53.958159 
L 265.056988 -53.030812 
L 263.513601 -51.861976 
L 261.970214 -50.957456 
L 260.426827 -49.18013 
L 258.88344 -47.283826 
L 257.340053 -43.582108 
L 255.796666 -38.56887 
L 254.253279 -38.039039 
L 252.709892 -37.759943 
L 251.166505 -39.389723 
L 249.623118 -42.638264 
L 248.079731 -42.319276 
L 246.536344 -42.098015 
L 244.992957 -45.369024 
L 243.44957 -48.332891 
L 241.906183 -47.954932 
L 240.362796 -47.901405 
L 238.819409 -53.268676 
L 237.276022 -58.639998 
L 235.732635 -63.94022 
L 234.189248 -67.522958 
L 232.645861 -71.485608 
L 231.102474 -79.677475 
L 229.559087 -87.607949 
L 228.0157 -93.057618 
L 226.472314 -98.454353 
L 224.928927 -102.199195 
L 223.38554 -105.891426 
L 221.842153 -111.422346 
L 220.298766 -116.972636 
L 218.755379 -124.179838 
L 217.211992 -129.547002 
L 215.668605 -133.258908 
L 214.125218 -138.814992 
L 212.581831 -144.362091 
L 211.038444 -151.523379 
L 209.495057 -156.839011 
L 207.95167 -152.26308 
L 206.408283 -149.513921 
L 204.864896 -146.777461 
L 203.321509 -145.683651 
L 201.778122 -142.730029 
L 200.234735 -138.15456 
L 198.691348 -135.436323 
L 197.147961 -132.72559 
L 195.604574 -129.986783 
L 194.061187 -127.206216 
L 192.5178 -126.809661 
L 190.974413 -126.594636 
L 189.431026 -126.653717 
L 187.887639 -125.062991 
L 186.344252 -125.127925 
L 184.800865 -126.799181 
L 183.257478 -126.631501 
L 181.714092 -126.462127 
L 180.170705 -124.800149 
L 178.627318 -123.536292 
L 177.083931 -125.52809 
L 175.540544 -127.308475 
L 173.997157 -128.924546 
L 172.45377 -130.391491 
L 170.910383 -131.735303 
L 169.366996 -132.959455 
L 167.823609 -134.07051 
L 166.280222 -135.078249 
L 164.736835 -136.025653 
L 163.193448 -136.983062 
L 161.650061 -137.971023 
L 160.106674 -138.937882 
L 158.563287 -139.976658 
L 157.0199 -141.194225 
L 155.476513 -142.52306 
L 153.933126 -143.76537 
L 152.389739 -144.889872 
L 150.846352 -146.194358 
L 149.302965 -147.481806 
L 147.759578 -148.629355 
L 146.216191 -149.693411 
L 144.672804 -150.71247 
L 143.129417 -151.704202 
L 141.58603 -152.671995 
L 140.042643 -153.626492 
L 138.499256 -154.569636 
L 136.95587 -155.49011 
L 135.412483 -156.392963 
L 133.869096 -157.262478 
L 132.325709 -158.086922 
L 130.782322 -158.832953 
L 129.238935 -159.502718 
L 127.695548 -160.257614 
L 126.152161 -161.265853 
L 124.608774 -162.28247 
L 123.065387 -163.094099 
L 121.522 -163.792115 
L 119.978613 -164.449693 
L 118.435226 -165.153452 
L 116.891839 -166.039019 
L 115.348452 -166.97145 
L 113.805065 -167.741506 
L 112.261678 -168.406039 
L 110.718291 -169.006315 
L 109.174904 -169.549708 
L 107.631517 -170.043364 
L 106.08813 -170.494025 
L 104.544743 -170.907363 
L 103.001356 -171.325703 
L 101.457969 -171.834713 
L 99.914582 -172.438039 
L 98.371195 -173.062589 
L 96.827808 -173.673105 
L 95.284421 -174.271944 
L 93.741034 -174.861623 
L 92.197648 -175.444175 
L 90.654261 -176.022652 
L 89.110874 -176.599984 
L 87.567487 -177.173647 
L 86.0241 -177.74916 
L 84.480713 -178.362513 
L 82.937326 -179.047264 
L 81.393939 -179.790378 
L 79.850552 -180.609427 
L 78.307165 -181.495416 
L 76.763778 -182.439235 
L 75.220391 -183.433271 
L 73.677004 -184.470582 
L 72.133617 -185.520921 
L 70.59023 -186.523005 
L 69.046843 -187.450234 
L 67.503456 -188.32911 
L 65.960069 -189.178608 
L 64.416682 -189.999241 
L 62.873295 -190.792541 
L 61.329908 -191.560261 
L 59.786521 -192.304102 
L 58.243134 -193.025681 
L 56.699747 -193.741759 
L 55.15636 -194.477429 
L 53.612973 -195.222201 
L 52.069586 -195.939606 
L 50.526199 -196.61444 
L 48.982812 -194.852679 
z
" id="mfb8b0076d4"/>
    </defs>
    <g clip-path="url(#pdcf73b45b5)">
     <use style="fill:#0000ff;fill-opacity:0.2;" x="0" xlink:href="#mfb8b0076d4" y="351.59625"/>
    </g>
   </g>
   <g id="matplotlib.axis_1">
    <g id="xtick_1">
     <g id="line2d_1">
      <defs>
       <path d="M 0 0 
L 0 3.5 
" id="m5b6d4cb19b" style="stroke:#000000;stroke-width:0.8;"/>
      </defs>
      <g>
       <use style="stroke:#000000;stroke-width:0.8;" x="101.457969" xlink:href="#m5b6d4cb19b" y="327.718125"/>
      </g>
     </g>
     <g id="text_1">
      <!-- 1800 -->
      <defs>
       <path d="M 12.40625 8.296875 
L 28.515625 8.296875 
L 28.515625 63.921875 
L 10.984375 60.40625 
L 10.984375 69.390625 
L 28.421875 72.90625 
L 38.28125 72.90625 
L 38.28125 8.296875 
L 54.390625 8.296875 
L 54.390625 0 
L 12.40625 0 
z
" id="DejaVuSans-49"/>
       <path d="M 31.78125 34.625 
Q 24.75 34.625 20.71875 30.859375 
Q 16.703125 27.09375 16.703125 20.515625 
Q 16.703125 13.921875 20.71875 10.15625 
Q 24.75 6.390625 31.78125 6.390625 
Q 38.8125 6.390625 42.859375 10.171875 
Q 46.921875 13.96875 46.921875 20.515625 
Q 46.921875 27.09375 42.890625 30.859375 
Q 38.875 34.625 31.78125 34.625 
z
M 21.921875 38.8125 
Q 15.578125 40.375 12.03125 44.71875 
Q 8.5 49.078125 8.5 55.328125 
Q 8.5 64.0625 14.71875 69.140625 
Q 20.953125 74.21875 31.78125 74.21875 
Q 42.671875 74.21875 48.875 69.140625 
Q 55.078125 64.0625 55.078125 55.328125 
Q 55.078125 49.078125 51.53125 44.71875 
Q 48 40.375 41.703125 38.8125 
Q 48.828125 37.15625 52.796875 32.3125 
Q 56.78125 27.484375 56.78125 20.515625 
Q 56.78125 9.90625 50.3125 4.234375 
Q 43.84375 -1.421875 31.78125 -1.421875 
Q 19.734375 -1.421875 13.25 4.234375 
Q 6.78125 9.90625 6.78125 20.515625 
Q 6.78125 27.484375 10.78125 32.3125 
Q 14.796875 37.15625 21.921875 38.8125 
z
M 18.3125 54.390625 
Q 18.3125 48.734375 21.84375 45.5625 
Q 25.390625 42.390625 31.78125 42.390625 
Q 38.140625 42.390625 41.71875 45.5625 
Q 45.3125 48.734375 45.3125 54.390625 
Q 45.3125 60.0625 41.71875 63.234375 
Q 38.140625 66.40625 31.78125 66.40625 
Q 25.390625 66.40625 21.84375 63.234375 
Q 18.3125 60.0625 18.3125 54.390625 
z
" id="DejaVuSans-56"/>
       <path d="M 31.78125 66.40625 
Q 24.171875 66.40625 20.328125 58.90625 
Q 16.5 51.421875 16.5 36.375 
Q 16.5 21.390625 20.328125 13.890625 
Q 24.171875 6.390625 31.78125 6.390625 
Q 39.453125 6.390625 43.28125 13.890625 
Q 47.125 21.390625 47.125 36.375 
Q 47.125 51.421875 43.28125 58.90625 
Q 39.453125 66.40625 31.78125 66.40625 
z
M 31.78125 74.21875 
Q 44.046875 74.21875 50.515625 64.515625 
Q 56.984375 54.828125 56.984375 36.375 
Q 56.984375 17.96875 50.515625 8.265625 
Q 44.046875 -1.421875 31.78125 -1.421875 
Q 19.53125 -1.421875 13.0625 8.265625 
Q 6.59375 17.96875 6.59375 36.375 
Q 6.59375 54.828125 13.0625 64.515625 
Q 19.53125 74.21875 31.78125 74.21875 
z
" id="DejaVuSans-48"/>
      </defs>
      <g transform="translate(88.732969 342.316562)scale(0.1 -0.1)">
       <use xlink:href="#DejaVuSans-49"/>
       <use x="63.623047" xlink:href="#DejaVuSans-56"/>
       <use x="127.246094" xlink:href="#DejaVuSans-48"/>
       <use x="190.869141" xlink:href="#DejaVuSans-48"/>
      </g>
     </g>
    </g>
    <g id="xtick_2">
     <g id="line2d_2">
      <g>
       <use style="stroke:#000000;stroke-width:0.8;" x="178.627318" xlink:href="#m5b6d4cb19b" y="327.718125"/>
      </g>
     </g>
     <g id="text_2">
      <!-- 1850 -->
      <defs>
       <path d="M 10.796875 72.90625 
L 49.515625 72.90625 
L 49.515625 64.59375 
L 19.828125 64.59375 
L 19.828125 46.734375 
Q 21.96875 47.46875 24.109375 47.828125 
Q 26.265625 48.1875 28.421875 48.1875 
Q 40.625 48.1875 47.75 41.5 
Q 54.890625 34.8125 54.890625 23.390625 
Q 54.890625 11.625 47.5625 5.09375 
Q 40.234375 -1.421875 26.90625 -1.421875 
Q 22.3125 -1.421875 17.546875 -0.640625 
Q 12.796875 0.140625 7.71875 1.703125 
L 7.71875 11.625 
Q 12.109375 9.234375 16.796875 8.0625 
Q 21.484375 6.890625 26.703125 6.890625 
Q 35.15625 6.890625 40.078125 11.328125 
Q 45.015625 15.765625 45.015625 23.390625 
Q 45.015625 31 40.078125 35.4375 
Q 35.15625 39.890625 26.703125 39.890625 
Q 22.75 39.890625 18.8125 39.015625 
Q 14.890625 38.140625 10.796875 36.28125 
z
" id="DejaVuSans-53"/>
      </defs>
      <g transform="translate(165.902318 342.316562)scale(0.1 -0.1)">
       <use xlink:href="#DejaVuSans-49"/>
       <use x="63.623047" xlink:href="#DejaVuSans-56"/>
       <use x="127.246094" xlink:href="#DejaVuSans-53"/>
       <use x="190.869141" xlink:href="#DejaVuSans-48"/>
      </g>
     </g>
    </g>
    <g id="xtick_3">
     <g id="line2d_3">
      <g>
       <use style="stroke:#000000;stroke-width:0.8;" x="255.796666" xlink:href="#m5b6d4cb19b" y="327.718125"/>
      </g>
     </g>
     <g id="text_3">
      <!-- 1900 -->
      <defs>
       <path d="M 10.984375 1.515625 
L 10.984375 10.5 
Q 14.703125 8.734375 18.5 7.8125 
Q 22.3125 6.890625 25.984375 6.890625 
Q 35.75 6.890625 40.890625 13.453125 
Q 46.046875 20.015625 46.78125 33.40625 
Q 43.953125 29.203125 39.59375 26.953125 
Q 35.25 24.703125 29.984375 24.703125 
Q 19.046875 24.703125 12.671875 31.3125 
Q 6.296875 37.9375 6.296875 49.421875 
Q 6.296875 60.640625 12.9375 67.421875 
Q 19.578125 74.21875 30.609375 74.21875 
Q 43.265625 74.21875 49.921875 64.515625 
Q 56.59375 54.828125 56.59375 36.375 
Q 56.59375 19.140625 48.40625 8.859375 
Q 40.234375 -1.421875 26.421875 -1.421875 
Q 22.703125 -1.421875 18.890625 -0.6875 
Q 15.09375 0.046875 10.984375 1.515625 
z
M 30.609375 32.421875 
Q 37.25 32.421875 41.125 36.953125 
Q 45.015625 41.5 45.015625 49.421875 
Q 45.015625 57.28125 41.125 61.84375 
Q 37.25 66.40625 30.609375 66.40625 
Q 23.96875 66.40625 20.09375 61.84375 
Q 16.21875 57.28125 16.21875 49.421875 
Q 16.21875 41.5 20.09375 36.953125 
Q 23.96875 32.421875 30.609375 32.421875 
z
" id="DejaVuSans-57"/>
      </defs>
      <g transform="translate(243.071666 342.316562)scale(0.1 -0.1)">
       <use xlink:href="#DejaVuSans-49"/>
       <use x="63.623047" xlink:href="#DejaVuSans-57"/>
       <use x="127.246094" xlink:href="#DejaVuSans-48"/>
       <use x="190.869141" xlink:href="#DejaVuSans-48"/>
      </g>
     </g>
    </g>
    <g id="xtick_4">
     <g id="line2d_4">
      <g>
       <use style="stroke:#000000;stroke-width:0.8;" x="332.966014" xlink:href="#m5b6d4cb19b" y="327.718125"/>
      </g>
     </g>
     <g id="text_4">
      <!-- 1950 -->
      <g transform="translate(320.241014 342.316562)scale(0.1 -0.1)">
       <use xlink:href="#DejaVuSans-49"/>
       <use x="63.623047" xlink:href="#DejaVuSans-57"/>
       <use x="127.246094" xlink:href="#DejaVuSans-53"/>
       <use x="190.869141" xlink:href="#DejaVuSans-48"/>
      </g>
     </g>
    </g>
    <g id="xtick_5">
     <g id="line2d_5">
      <g>
       <use style="stroke:#000000;stroke-width:0.8;" x="410.135362" xlink:href="#m5b6d4cb19b" y="327.718125"/>
      </g>
     </g>
     <g id="text_5">
      <!-- 2000 -->
      <defs>
       <path d="M 19.1875 8.296875 
L 53.609375 8.296875 
L 53.609375 0 
L 7.328125 0 
L 7.328125 8.296875 
Q 12.9375 14.109375 22.625 23.890625 
Q 32.328125 33.6875 34.8125 36.53125 
Q 39.546875 41.84375 41.421875 45.53125 
Q 43.3125 49.21875 43.3125 52.78125 
Q 43.3125 58.59375 39.234375 62.25 
Q 35.15625 65.921875 28.609375 65.921875 
Q 23.96875 65.921875 18.8125 64.3125 
Q 13.671875 62.703125 7.8125 59.421875 
L 7.8125 69.390625 
Q 13.765625 71.78125 18.9375 73 
Q 24.125 74.21875 28.421875 74.21875 
Q 39.75 74.21875 46.484375 68.546875 
Q 53.21875 62.890625 53.21875 53.421875 
Q 53.21875 48.921875 51.53125 44.890625 
Q 49.859375 40.875 45.40625 35.40625 
Q 44.1875 33.984375 37.640625 27.21875 
Q 31.109375 20.453125 19.1875 8.296875 
z
" id="DejaVuSans-50"/>
      </defs>
      <g transform="translate(397.410362 342.316562)scale(0.1 -0.1)">
       <use xlink:href="#DejaVuSans-50"/>
       <use x="63.623047" xlink:href="#DejaVuSans-48"/>
       <use x="127.246094" xlink:href="#DejaVuSans-48"/>
       <use x="190.869141" xlink:href="#DejaVuSans-48"/>
      </g>
     </g>
    </g>
   </g>
   <g id="matplotlib.axis_2">
    <g id="ytick_1">
     <g id="line2d_6">
      <defs>
       <path d="M 0 0 
L -3.5 0 
" id="m183260d11e" style="stroke:#000000;stroke-width:0.8;"/>
      </defs>
      <g>
       <use style="stroke:#000000;stroke-width:0.8;" x="48.982813" xlink:href="#m183260d11e" y="290.415467"/>
      </g>
     </g>
     <g id="text_6">
      <!-- −60 -->
      <defs>
       <path d="M 10.59375 35.5 
L 73.1875 35.5 
L 73.1875 27.203125 
L 10.59375 27.203125 
z
" id="DejaVuSans-8722"/>
       <path d="M 33.015625 40.375 
Q 26.375 40.375 22.484375 35.828125 
Q 18.609375 31.296875 18.609375 23.390625 
Q 18.609375 15.53125 22.484375 10.953125 
Q 26.375 6.390625 33.015625 6.390625 
Q 39.65625 6.390625 43.53125 10.953125 
Q 47.40625 15.53125 47.40625 23.390625 
Q 47.40625 31.296875 43.53125 35.828125 
Q 39.65625 40.375 33.015625 40.375 
z
M 52.59375 71.296875 
L 52.59375 62.3125 
Q 48.875 64.0625 45.09375 64.984375 
Q 41.3125 65.921875 37.59375 65.921875 
Q 27.828125 65.921875 22.671875 59.328125 
Q 17.53125 52.734375 16.796875 39.40625 
Q 19.671875 43.65625 24.015625 45.921875 
Q 28.375 48.1875 33.59375 48.1875 
Q 44.578125 48.1875 50.953125 41.515625 
Q 57.328125 34.859375 57.328125 23.390625 
Q 57.328125 12.15625 50.6875 5.359375 
Q 44.046875 -1.421875 33.015625 -1.421875 
Q 20.359375 -1.421875 13.671875 8.265625 
Q 6.984375 17.96875 6.984375 36.375 
Q 6.984375 53.65625 15.1875 63.9375 
Q 23.390625 74.21875 37.203125 74.21875 
Q 40.921875 74.21875 44.703125 73.484375 
Q 48.484375 72.75 52.59375 71.296875 
z
" id="DejaVuSans-54"/>
      </defs>
      <g transform="translate(20.878125 294.214686)scale(0.1 -0.1)">
       <use xlink:href="#DejaVuSans-8722"/>
       <use x="83.789062" xlink:href="#DejaVuSans-54"/>
       <use x="147.412109" xlink:href="#DejaVuSans-48"/>
      </g>
     </g>
    </g>
    <g id="ytick_2">
     <g id="line2d_7">
      <g>
       <use style="stroke:#000000;stroke-width:0.8;" x="48.982813" xlink:href="#m183260d11e" y="241.689791"/>
      </g>
     </g>
     <g id="text_7">
      <!-- −40 -->
      <defs>
       <path d="M 37.796875 64.3125 
L 12.890625 25.390625 
L 37.796875 25.390625 
z
M 35.203125 72.90625 
L 47.609375 72.90625 
L 47.609375 25.390625 
L 58.015625 25.390625 
L 58.015625 17.1875 
L 47.609375 17.1875 
L 47.609375 0 
L 37.796875 0 
L 37.796875 17.1875 
L 4.890625 17.1875 
L 4.890625 26.703125 
z
" id="DejaVuSans-52"/>
      </defs>
      <g transform="translate(20.878125 245.48901)scale(0.1 -0.1)">
       <use xlink:href="#DejaVuSans-8722"/>
       <use x="83.789062" xlink:href="#DejaVuSans-52"/>
       <use x="147.412109" xlink:href="#DejaVuSans-48"/>
      </g>
     </g>
    </g>
    <g id="ytick_3">
     <g id="line2d_8">
      <g>
       <use style="stroke:#000000;stroke-width:0.8;" x="48.982813" xlink:href="#m183260d11e" y="192.964115"/>
      </g>
     </g>
     <g id="text_8">
      <!-- −20 -->
      <g transform="translate(20.878125 196.763334)scale(0.1 -0.1)">
       <use xlink:href="#DejaVuSans-8722"/>
       <use x="83.789062" xlink:href="#DejaVuSans-50"/>
       <use x="147.412109" xlink:href="#DejaVuSans-48"/>
      </g>
     </g>
    </g>
    <g id="ytick_4">
     <g id="line2d_9">
      <g>
       <use style="stroke:#000000;stroke-width:0.8;" x="48.982813" xlink:href="#m183260d11e" y="144.238439"/>
      </g>
     </g>
     <g id="text_9">
      <!-- 0 -->
      <g transform="translate(35.620313 148.037658)scale(0.1 -0.1)">
       <use xlink:href="#DejaVuSans-48"/>
      </g>
     </g>
    </g>
    <g id="ytick_5">
     <g id="line2d_10">
      <g>
       <use style="stroke:#000000;stroke-width:0.8;" x="48.982813" xlink:href="#m183260d11e" y="95.512763"/>
      </g>
     </g>
     <g id="text_10">
      <!-- 20 -->
      <g transform="translate(29.257813 99.311982)scale(0.1 -0.1)">
       <use xlink:href="#DejaVuSans-50"/>
       <use x="63.623047" xlink:href="#DejaVuSans-48"/>
      </g>
     </g>
    </g>
    <g id="ytick_6">
     <g id="line2d_11">
      <g>
       <use style="stroke:#000000;stroke-width:0.8;" x="48.982813" xlink:href="#m183260d11e" y="46.787087"/>
      </g>
     </g>
     <g id="text_11">
      <!-- 40 -->
      <g transform="translate(29.257813 50.586306)scale(0.1 -0.1)">
       <use xlink:href="#DejaVuSans-52"/>
       <use x="63.623047" xlink:href="#DejaVuSans-48"/>
      </g>
     </g>
    </g>
    <g id="text_12">
     <!-- Emissions (MtCH4) -->
     <defs>
      <path d="M 9.8125 72.90625 
L 55.90625 72.90625 
L 55.90625 64.59375 
L 19.671875 64.59375 
L 19.671875 43.015625 
L 54.390625 43.015625 
L 54.390625 34.71875 
L 19.671875 34.71875 
L 19.671875 8.296875 
L 56.78125 8.296875 
L 56.78125 0 
L 9.8125 0 
z
" id="DejaVuSans-69"/>
      <path d="M 52 44.1875 
Q 55.375 50.25 60.0625 53.125 
Q 64.75 56 71.09375 56 
Q 79.640625 56 84.28125 50.015625 
Q 88.921875 44.046875 88.921875 33.015625 
L 88.921875 0 
L 79.890625 0 
L 79.890625 32.71875 
Q 79.890625 40.578125 77.09375 44.375 
Q 74.3125 48.1875 68.609375 48.1875 
Q 61.625 48.1875 57.5625 43.546875 
Q 53.515625 38.921875 53.515625 30.90625 
L 53.515625 0 
L 44.484375 0 
L 44.484375 32.71875 
Q 44.484375 40.625 41.703125 44.40625 
Q 38.921875 48.1875 33.109375 48.1875 
Q 26.21875 48.1875 22.15625 43.53125 
Q 18.109375 38.875 18.109375 30.90625 
L 18.109375 0 
L 9.078125 0 
L 9.078125 54.6875 
L 18.109375 54.6875 
L 18.109375 46.1875 
Q 21.1875 51.21875 25.484375 53.609375 
Q 29.78125 56 35.6875 56 
Q 41.65625 56 45.828125 52.96875 
Q 50 49.953125 52 44.1875 
z
" id="DejaVuSans-109"/>
      <path d="M 9.421875 54.6875 
L 18.40625 54.6875 
L 18.40625 0 
L 9.421875 0 
z
M 9.421875 75.984375 
L 18.40625 75.984375 
L 18.40625 64.59375 
L 9.421875 64.59375 
z
" id="DejaVuSans-105"/>
      <path d="M 44.28125 53.078125 
L 44.28125 44.578125 
Q 40.484375 46.53125 36.375 47.5 
Q 32.28125 48.484375 27.875 48.484375 
Q 21.1875 48.484375 17.84375 46.4375 
Q 14.5 44.390625 14.5 40.28125 
Q 14.5 37.15625 16.890625 35.375 
Q 19.28125 33.59375 26.515625 31.984375 
L 29.59375 31.296875 
Q 39.15625 29.25 43.1875 25.515625 
Q 47.21875 21.78125 47.21875 15.09375 
Q 47.21875 7.46875 41.1875 3.015625 
Q 35.15625 -1.421875 24.609375 -1.421875 
Q 20.21875 -1.421875 15.453125 -0.5625 
Q 10.6875 0.296875 5.421875 2 
L 5.421875 11.28125 
Q 10.40625 8.6875 15.234375 7.390625 
Q 20.0625 6.109375 24.8125 6.109375 
Q 31.15625 6.109375 34.5625 8.28125 
Q 37.984375 10.453125 37.984375 14.40625 
Q 37.984375 18.0625 35.515625 20.015625 
Q 33.0625 21.96875 24.703125 23.78125 
L 21.578125 24.515625 
Q 13.234375 26.265625 9.515625 29.90625 
Q 5.8125 33.546875 5.8125 39.890625 
Q 5.8125 47.609375 11.28125 51.796875 
Q 16.75 56 26.8125 56 
Q 31.78125 56 36.171875 55.265625 
Q 40.578125 54.546875 44.28125 53.078125 
z
" id="DejaVuSans-115"/>
      <path d="M 30.609375 48.390625 
Q 23.390625 48.390625 19.1875 42.75 
Q 14.984375 37.109375 14.984375 27.296875 
Q 14.984375 17.484375 19.15625 11.84375 
Q 23.34375 6.203125 30.609375 6.203125 
Q 37.796875 6.203125 41.984375 11.859375 
Q 46.1875 17.53125 46.1875 27.296875 
Q 46.1875 37.015625 41.984375 42.703125 
Q 37.796875 48.390625 30.609375 48.390625 
z
M 30.609375 56 
Q 42.328125 56 49.015625 48.375 
Q 55.71875 40.765625 55.71875 27.296875 
Q 55.71875 13.875 49.015625 6.21875 
Q 42.328125 -1.421875 30.609375 -1.421875 
Q 18.84375 -1.421875 12.171875 6.21875 
Q 5.515625 13.875 5.515625 27.296875 
Q 5.515625 40.765625 12.171875 48.375 
Q 18.84375 56 30.609375 56 
z
" id="DejaVuSans-111"/>
      <path d="M 54.890625 33.015625 
L 54.890625 0 
L 45.90625 0 
L 45.90625 32.71875 
Q 45.90625 40.484375 42.875 44.328125 
Q 39.84375 48.1875 33.796875 48.1875 
Q 26.515625 48.1875 22.3125 43.546875 
Q 18.109375 38.921875 18.109375 30.90625 
L 18.109375 0 
L 9.078125 0 
L 9.078125 54.6875 
L 18.109375 54.6875 
L 18.109375 46.1875 
Q 21.34375 51.125 25.703125 53.5625 
Q 30.078125 56 35.796875 56 
Q 45.21875 56 50.046875 50.171875 
Q 54.890625 44.34375 54.890625 33.015625 
z
" id="DejaVuSans-110"/>
      <path id="DejaVuSans-32"/>
      <path d="M 31 75.875 
Q 24.46875 64.65625 21.28125 53.65625 
Q 18.109375 42.671875 18.109375 31.390625 
Q 18.109375 20.125 21.3125 9.0625 
Q 24.515625 -2 31 -13.1875 
L 23.1875 -13.1875 
Q 15.875 -1.703125 12.234375 9.375 
Q 8.59375 20.453125 8.59375 31.390625 
Q 8.59375 42.28125 12.203125 53.3125 
Q 15.828125 64.359375 23.1875 75.875 
z
" id="DejaVuSans-40"/>
      <path d="M 9.8125 72.90625 
L 24.515625 72.90625 
L 43.109375 23.296875 
L 61.8125 72.90625 
L 76.515625 72.90625 
L 76.515625 0 
L 66.890625 0 
L 66.890625 64.015625 
L 48.09375 14.015625 
L 38.1875 14.015625 
L 19.390625 64.015625 
L 19.390625 0 
L 9.8125 0 
z
" id="DejaVuSans-77"/>
      <path d="M 18.3125 70.21875 
L 18.3125 54.6875 
L 36.8125 54.6875 
L 36.8125 47.703125 
L 18.3125 47.703125 
L 18.3125 18.015625 
Q 18.3125 11.328125 20.140625 9.421875 
Q 21.96875 7.515625 27.59375 7.515625 
L 36.8125 7.515625 
L 36.8125 0 
L 27.59375 0 
Q 17.1875 0 13.234375 3.875 
Q 9.28125 7.765625 9.28125 18.015625 
L 9.28125 47.703125 
L 2.6875 47.703125 
L 2.6875 54.6875 
L 9.28125 54.6875 
L 9.28125 70.21875 
z
" id="DejaVuSans-116"/>
      <path d="M 64.40625 67.28125 
L 64.40625 56.890625 
Q 59.421875 61.53125 53.78125 63.8125 
Q 48.140625 66.109375 41.796875 66.109375 
Q 29.296875 66.109375 22.65625 58.46875 
Q 16.015625 50.828125 16.015625 36.375 
Q 16.015625 21.96875 22.65625 14.328125 
Q 29.296875 6.6875 41.796875 6.6875 
Q 48.140625 6.6875 53.78125 8.984375 
Q 59.421875 11.28125 64.40625 15.921875 
L 64.40625 5.609375 
Q 59.234375 2.09375 53.4375 0.328125 
Q 47.65625 -1.421875 41.21875 -1.421875 
Q 24.65625 -1.421875 15.125 8.703125 
Q 5.609375 18.84375 5.609375 36.375 
Q 5.609375 53.953125 15.125 64.078125 
Q 24.65625 74.21875 41.21875 74.21875 
Q 47.75 74.21875 53.53125 72.484375 
Q 59.328125 70.75 64.40625 67.28125 
z
" id="DejaVuSans-67"/>
      <path d="M 9.8125 72.90625 
L 19.671875 72.90625 
L 19.671875 43.015625 
L 55.515625 43.015625 
L 55.515625 72.90625 
L 65.375 72.90625 
L 65.375 0 
L 55.515625 0 
L 55.515625 34.71875 
L 19.671875 34.71875 
L 19.671875 0 
L 9.8125 0 
z
" id="DejaVuSans-72"/>
      <path d="M 8.015625 75.875 
L 15.828125 75.875 
Q 23.140625 64.359375 26.78125 53.3125 
Q 30.421875 42.28125 30.421875 31.390625 
Q 30.421875 20.453125 26.78125 9.375 
Q 23.140625 -1.703125 15.828125 -13.1875 
L 8.015625 -13.1875 
Q 14.5 -2 17.703125 9.0625 
Q 20.90625 20.125 20.90625 31.390625 
Q 20.90625 42.671875 17.703125 53.65625 
Q 14.5 64.65625 8.015625 75.875 
z
" id="DejaVuSans-41"/>
     </defs>
     <g transform="translate(14.798438 222.065781)rotate(-90)scale(0.1 -0.1)">
      <use xlink:href="#DejaVuSans-69"/>
      <use x="63.183594" xlink:href="#DejaVuSans-109"/>
      <use x="160.595703" xlink:href="#DejaVuSans-105"/>
      <use x="188.378906" xlink:href="#DejaVuSans-115"/>
      <use x="240.478516" xlink:href="#DejaVuSans-115"/>
      <use x="292.578125" xlink:href="#DejaVuSans-105"/>
      <use x="320.361328" xlink:href="#DejaVuSans-111"/>
      <use x="381.542969" xlink:href="#DejaVuSans-110"/>
      <use x="444.921875" xlink:href="#DejaVuSans-115"/>
      <use x="497.021484" xlink:href="#DejaVuSans-32"/>
      <use x="528.808594" xlink:href="#DejaVuSans-40"/>
      <use x="567.822266" xlink:href="#DejaVuSans-77"/>
      <use x="654.101562" xlink:href="#DejaVuSans-116"/>
      <use x="693.310547" xlink:href="#DejaVuSans-67"/>
      <use x="763.134766" xlink:href="#DejaVuSans-72"/>
      <use x="838.330078" xlink:href="#DejaVuSans-52"/>
      <use x="901.953125" xlink:href="#DejaVuSans-41"/>
     </g>
    </g>
   </g>
   <g id="line2d_12">
    <path clip-path="url(#pdcf73b45b5)" d="M 48.982812 156.393769 
L 50.526199 154.647904 
L 55.15636 156.845897 
L 64.416682 161.432591 
L 69.046843 164.029886 
L 72.133617 165.988358 
L 76.763778 169.108114 
L 79.850552 170.961041 
L 82.937326 172.547223 
L 86.0241 173.815342 
L 103.001356 179.96299 
L 109.174904 181.609174 
L 112.261678 182.681377 
L 115.348452 184.045526 
L 118.435226 185.735415 
L 124.608774 188.475089 
L 127.695548 190.33217 
L 135.412483 194.105824 
L 141.58603 197.696976 
L 146.216191 200.590559 
L 149.302965 202.747763 
L 153.933126 206.334217 
L 160.106674 210.955724 
L 169.366996 216.754372 
L 172.45377 219.23861 
L 175.540544 222.234451 
L 177.083931 223.967068 
L 178.627318 225.917338 
L 180.170705 224.611076 
L 181.714092 222.891473 
L 184.800865 222.439571 
L 186.344252 224.055514 
L 187.887639 224.086101 
L 189.431026 222.407144 
L 190.974413 222.347795 
L 194.061187 221.73978 
L 198.691348 213.299101 
L 200.234735 210.52498 
L 201.778122 205.879918 
L 203.321509 202.867649 
L 204.864896 201.705304 
L 207.95167 196.118324 
L 209.495057 191.475159 
L 211.038444 196.718085 
L 212.581831 203.811841 
L 215.668605 214.803261 
L 217.211992 218.459897 
L 218.755379 223.750005 
L 220.298766 230.89164 
L 223.38554 241.850168 
L 226.472314 249.156216 
L 229.559087 259.852374 
L 232.645861 275.592608 
L 234.189248 279.492781 
L 235.732635 282.976691 
L 240.362796 298.834445 
L 241.906183 298.716048 
L 243.44957 298.322349 
L 246.536344 304.450472 
L 249.623118 303.721902 
L 251.166505 306.914134 
L 252.709892 308.48524 
L 254.253279 308.093436 
L 255.796666 307.438425 
L 257.340053 302.30325 
L 258.88344 298.450516 
L 261.970214 294.233715 
L 263.513601 293.235254 
L 266.600375 290.854819 
L 269.687149 285.00044 
L 271.230535 285.419521 
L 272.773922 286.316051 
L 274.317309 283.769841 
L 275.860696 279.443955 
L 277.404083 276.53543 
L 282.034244 271.604702 
L 285.121018 264.647868 
L 288.207792 264.537257 
L 289.751179 260.938053 
L 291.294566 256.999137 
L 299.011501 245.681703 
L 300.554888 245.366041 
L 302.098275 245.303626 
L 306.728436 240.604208 
L 309.81521 241.281021 
L 315.988757 236.290492 
L 317.532144 233.28883 
L 319.075531 231.11497 
L 320.618918 232.453648 
L 322.162305 234.06928 
L 323.705692 232.212147 
L 325.249079 230.078654 
L 326.792466 227.704719 
L 328.335853 223.293961 
L 331.422627 217.27963 
L 332.966014 212.240449 
L 334.509401 215.675498 
L 336.052788 216.949342 
L 337.596175 217.685436 
L 340.682949 225.13053 
L 342.226336 226.594579 
L 343.769723 227.587488 
L 346.856497 232.419733 
L 348.399884 232.912044 
L 351.486658 223.297554 
L 353.030045 219.984719 
L 354.573432 217.572312 
L 357.660206 208.882148 
L 359.203593 203.316944 
L 360.746979 196.011288 
L 362.290366 189.388064 
L 363.833753 184.319315 
L 365.37714 182.517521 
L 368.463914 175.164219 
L 370.007301 173.658317 
L 373.094075 171.924393 
L 374.637462 168.541565 
L 376.180849 164.464695 
L 377.724236 162.321761 
L 379.267623 152.951514 
L 380.81101 137.558351 
L 382.354397 129.085529 
L 383.897784 126.003765 
L 385.441171 136.046834 
L 386.984558 157.392798 
L 388.527945 168.077091 
L 390.071332 172.043785 
L 391.614719 178.228323 
L 393.158106 181.736174 
L 394.701493 183.846559 
L 396.24488 166.322186 
L 397.788267 169.454276 
L 399.331654 183.94116 
L 400.875041 168.120474 
L 402.418428 147.959089 
L 403.961815 144.906572 
L 405.505201 122.952444 
L 407.048588 86.383518 
L 408.591975 80.258577 
L 410.135362 99.762929 
L 411.678749 120.730291 
L 413.222136 114.733096 
L 414.765523 112.775338 
L 416.30891 134.777042 
L 417.852297 153.655542 
L 419.395684 154.165376 
L 420.939071 148.935753 
L 422.482458 148.639904 
L 424.025845 148.198668 
L 425.569232 149.522354 
L 425.569232 149.522354 
" style="fill:none;stroke:#0000ff;stroke-linecap:square;stroke-width:1.5;"/>
   </g>
   <g id="line2d_13">
    <path clip-path="url(#pdcf73b45b5)" style="fill:none;stroke:#0000ff;stroke-linecap:square;stroke-width:1.5;"/>
   </g>
   <g id="patch_3">
    <path d="M 48.982813 327.718125 
L 48.982813 22.318125 
" style="fill:none;stroke:#000000;stroke-linecap:square;stroke-linejoin:miter;stroke-width:0.8;"/>
   </g>
   <g id="patch_4">
    <path d="M 425.569232 327.718125 
L 425.569232 22.318125 
" style="fill:none;stroke:#000000;stroke-linecap:square;stroke-linejoin:miter;stroke-width:0.8;"/>
   </g>
   <g id="patch_5">
    <path d="M 48.982812 327.718125 
L 425.569232 327.718125 
" style="fill:none;stroke:#000000;stroke-linecap:square;stroke-linejoin:miter;stroke-width:0.8;"/>
   </g>
   <g id="patch_6">
    <path d="M 48.982812 22.318125 
L 425.569232 22.318125 
" style="fill:none;stroke:#000000;stroke-linecap:square;stroke-linejoin:miter;stroke-width:0.8;"/>
   </g>
   <g id="text_13">
    <!-- CH4 -->
    <g transform="translate(224.756647 16.318125)scale(0.12 -0.12)">
     <use xlink:href="#DejaVuSans-67"/>
     <use x="69.824219" xlink:href="#DejaVuSans-72"/>
     <use x="145.019531" xlink:href="#DejaVuSans-52"/>
    </g>
   </g>
   <g id="legend_1">
    <g id="line2d_14">
     <path d="M 57.982813 35.416562 
L 77.982813 35.416562 
" style="fill:none;stroke:#0000ff;stroke-linecap:square;stroke-width:1.5;"/>
    </g>
    <g id="line2d_15"/>
    <g id="text_14">
     <!-- FaIR v2 -->
     <defs>
      <path d="M 9.8125 72.90625 
L 51.703125 72.90625 
L 51.703125 64.59375 
L 19.671875 64.59375 
L 19.671875 43.109375 
L 48.578125 43.109375 
L 48.578125 34.8125 
L 19.671875 34.8125 
L 19.671875 0 
L 9.8125 0 
z
" id="DejaVuSans-70"/>
      <path d="M 34.28125 27.484375 
Q 23.390625 27.484375 19.1875 25 
Q 14.984375 22.515625 14.984375 16.5 
Q 14.984375 11.71875 18.140625 8.90625 
Q 21.296875 6.109375 26.703125 6.109375 
Q 34.1875 6.109375 38.703125 11.40625 
Q 43.21875 16.703125 43.21875 25.484375 
L 43.21875 27.484375 
z
M 52.203125 31.203125 
L 52.203125 0 
L 43.21875 0 
L 43.21875 8.296875 
Q 40.140625 3.328125 35.546875 0.953125 
Q 30.953125 -1.421875 24.3125 -1.421875 
Q 15.921875 -1.421875 10.953125 3.296875 
Q 6 8.015625 6 15.921875 
Q 6 25.140625 12.171875 29.828125 
Q 18.359375 34.515625 30.609375 34.515625 
L 43.21875 34.515625 
L 43.21875 35.40625 
Q 43.21875 41.609375 39.140625 45 
Q 35.0625 48.390625 27.6875 48.390625 
Q 23 48.390625 18.546875 47.265625 
Q 14.109375 46.140625 10.015625 43.890625 
L 10.015625 52.203125 
Q 14.9375 54.109375 19.578125 55.046875 
Q 24.21875 56 28.609375 56 
Q 40.484375 56 46.34375 49.84375 
Q 52.203125 43.703125 52.203125 31.203125 
z
" id="DejaVuSans-97"/>
      <path d="M 9.8125 72.90625 
L 19.671875 72.90625 
L 19.671875 0 
L 9.8125 0 
z
" id="DejaVuSans-73"/>
      <path d="M 44.390625 34.1875 
Q 47.5625 33.109375 50.5625 29.59375 
Q 53.5625 26.078125 56.59375 19.921875 
L 66.609375 0 
L 56 0 
L 46.6875 18.703125 
Q 43.0625 26.03125 39.671875 28.421875 
Q 36.28125 30.8125 30.421875 30.8125 
L 19.671875 30.8125 
L 19.671875 0 
L 9.8125 0 
L 9.8125 72.90625 
L 32.078125 72.90625 
Q 44.578125 72.90625 50.734375 67.671875 
Q 56.890625 62.453125 56.890625 51.90625 
Q 56.890625 45.015625 53.6875 40.46875 
Q 50.484375 35.9375 44.390625 34.1875 
z
M 19.671875 64.796875 
L 19.671875 38.921875 
L 32.078125 38.921875 
Q 39.203125 38.921875 42.84375 42.21875 
Q 46.484375 45.515625 46.484375 51.90625 
Q 46.484375 58.296875 42.84375 61.546875 
Q 39.203125 64.796875 32.078125 64.796875 
z
" id="DejaVuSans-82"/>
      <path d="M 2.984375 54.6875 
L 12.5 54.6875 
L 29.59375 8.796875 
L 46.6875 54.6875 
L 56.203125 54.6875 
L 35.6875 0 
L 23.484375 0 
z
" id="DejaVuSans-118"/>
     </defs>
     <g transform="translate(85.982813 38.916562)scale(0.1 -0.1)">
      <use xlink:href="#DejaVuSans-70"/>
      <use x="57.378906" xlink:href="#DejaVuSans-97"/>
      <use x="118.658203" xlink:href="#DejaVuSans-73"/>
      <use x="148.150391" xlink:href="#DejaVuSans-82"/>
      <use x="217.632812" xlink:href="#DejaVuSans-32"/>
      <use x="249.419922" xlink:href="#DejaVuSans-118"/>
      <use x="308.599609" xlink:href="#DejaVuSans-50"/>
     </g>
    </g>
   </g>
  </g>
  <g id="axes_2">
   <g id="patch_7">
    <path d="M 472.395313 327.718125 
L 848.981732 327.718125 
L 848.981732 22.318125 
L 472.395313 22.318125 
z
" style="fill:#ffffff;"/>
   </g>
   <g id="PolyCollection_2">
    <defs>
     <path d="M 472.395313 -277.250739 
L 472.395313 -277.274098 
L 473.938699 -280.532974 
L 475.482086 -280.165173 
L 477.025473 -279.811876 
L 478.56886 -279.463894 
L 480.112247 -279.115063 
L 481.655634 -278.765385 
L 483.199021 -278.424178 
L 484.742408 -278.100837 
L 486.285795 -277.789305 
L 487.829182 -277.47726 
L 489.372569 -277.155382 
L 490.915956 -276.845337 
L 492.459343 -276.559654 
L 494.00273 -276.279901 
L 495.546117 -276.003022 
L 497.089504 -275.719725 
L 498.632891 -275.442382 
L 500.176278 -275.183469 
L 501.719665 -274.946248 
L 503.263052 -274.709154 
L 504.806439 -274.456655 
L 506.349826 -274.219685 
L 507.893213 -273.992159 
L 509.4366 -273.789686 
L 510.979987 -273.581408 
L 512.523374 -273.367273 
L 514.066761 -273.159653 
L 515.610148 -272.971025 
L 517.153534 -272.798437 
L 518.696921 -272.626485 
L 520.240308 -272.452063 
L 521.783695 -272.284461 
L 523.327082 -272.129943 
L 524.870469 -271.994825 
L 526.413856 -271.866836 
L 527.957243 -271.7336 
L 529.50063 -271.607489 
L 531.044017 -271.494768 
L 532.587404 -271.39243 
L 534.130791 -271.300554 
L 535.674178 -271.20679 
L 537.217565 -271.123536 
L 538.760952 -271.044654 
L 540.304339 -270.976383 
L 541.847726 -270.918798 
L 543.391113 -270.862656 
L 544.9345 -270.817274 
L 546.477887 -270.779622 
L 548.021274 -270.746643 
L 549.564661 -270.72768 
L 551.108048 -270.713516 
L 552.651435 -270.713494 
L 554.194822 -270.709076 
L 555.738209 -270.712635 
L 557.281596 -270.721113 
L 558.824983 -270.740748 
L 560.36837 -270.774719 
L 561.911756 -270.807596 
L 563.455143 -270.845564 
L 564.99853 -270.894859 
L 566.541917 -270.961768 
L 568.085304 -271.030886 
L 569.628691 -271.105316 
L 571.172078 -271.178869 
L 572.715465 -271.257729 
L 574.258852 -271.360554 
L 575.802239 -271.468887 
L 577.345626 -271.579643 
L 578.889013 -271.695924 
L 580.4324 -271.817754 
L 581.975787 -271.957578 
L 583.519174 -272.115523 
L 585.062561 -272.266865 
L 586.605948 -272.476754 
L 588.149335 -273.724154 
L 589.692722 -276.362509 
L 591.236109 -277.821956 
L 592.779496 -275.532812 
L 594.322883 -268.982157 
L 595.86627 -260.892975 
L 597.409657 -255.952769 
L 598.953044 -254.589113 
L 600.496431 -254.288108 
L 602.039818 -261.805705 
L 603.583205 -277.097212 
L 605.126592 -282.759794 
L 606.669978 -283.012286 
L 608.213365 -283.292841 
L 609.756752 -283.624364 
L 611.300139 -283.634387 
L 612.843526 -283.64707 
L 614.386913 -283.672484 
L 615.9303 -283.699872 
L 617.473687 -283.722583 
L 619.017074 -282.588461 
L 620.560461 -284.954539 
L 622.103848 -285.006737 
L 623.647235 -285.054459 
L 625.190622 -285.090813 
L 626.734009 -285.179197 
L 628.277396 -285.406605 
L 629.820783 -285.589816 
L 631.36417 -285.793025 
L 632.907557 -278.231981 
L 634.450944 -264.61337 
L 635.994331 -267.428334 
L 637.537718 -273.546843 
L 639.081105 -273.036914 
L 640.624492 -264.809985 
L 642.167879 -255.69084 
L 643.711266 -262.897224 
L 645.254653 -270.254008 
L 646.79804 -269.962594 
L 648.341427 -269.649749 
L 649.884814 -268.202485 
L 651.4282 -270.098462 
L 652.971587 -269.904659 
L 654.514974 -269.779333 
L 656.058361 -269.679572 
L 657.601748 -268.592775 
L 659.145135 -260.713477 
L 660.688522 -252.840182 
L 662.231909 -260.463615 
L 663.775296 -268.170596 
L 665.318683 -268.091499 
L 666.86207 -267.951363 
L 668.405457 -259.989379 
L 669.948844 -251.909624 
L 671.492231 -251.484087 
L 673.035618 -251.021314 
L 674.579005 -258.296637 
L 676.122392 -257.852701 
L 677.665779 -249.633876 
L 679.209166 -256.882265 
L 680.752553 -264.088308 
L 682.29594 -263.399595 
L 683.839327 -262.558413 
L 685.382714 -261.601265 
L 686.926101 -260.562174 
L 688.469488 -259.478848 
L 690.012875 -266.154911 
L 691.556262 -272.927243 
L 693.099649 -272.067636 
L 694.643035 -271.314636 
L 696.186422 -270.598904 
L 697.729809 -277.599882 
L 699.273196 -276.862819 
L 700.816583 -268.339486 
L 702.35997 -275.278673 
L 703.903357 -282.28961 
L 705.446744 -289.383153 
L 706.990131 -296.570168 
L 708.533518 -288.329633 
L 710.076905 -287.839889 
L 711.620292 -295.128942 
L 713.163679 -286.927927 
L 714.707066 -278.650559 
L 716.250453 -278.010758 
L 717.79384 -277.271726 
L 719.337227 -284.235575 
L 720.880614 -283.471778 
L 722.424001 -267.185324 
L 723.967388 -266.345707 
L 725.510775 -265.587624 
L 727.054162 -257.175841 
L 728.597549 -264.345245 
L 730.140936 -271.687894 
L 731.684323 -271.424355 
L 733.22771 -271.212448 
L 734.771097 -271.001522 
L 736.314484 -262.974952 
L 737.857871 -254.78276 
L 739.401257 -254.140247 
L 740.944644 -253.296101 
L 742.488031 -258.47177 
L 744.031418 -260.872346 
L 745.574805 -253.355825 
L 747.118192 -251.477478 
L 748.661579 -247.786818 
L 750.204966 -235.385875 
L 751.748353 -222.843363 
L 753.29174 -211.027262 
L 754.835127 -200.805503 
L 756.378514 -185.27997 
L 757.921901 -171.559845 
L 759.465288 -174.097074 
L 761.008675 -177.625226 
L 762.552062 -166.4321 
L 764.095449 -163.304344 
L 765.638836 -168.141151 
L 767.182223 -157.543483 
L 768.72561 -154.512174 
L 770.268997 -166.711843 
L 771.812384 -170.808375 
L 773.355771 -157.272219 
L 774.899158 -140.299926 
L 776.442545 -143.76139 
L 777.985932 -152.353469 
L 779.529319 -144.976127 
L 781.072706 -127.447774 
L 782.616093 -112.211679 
L 784.159479 -110.935732 
L 785.702866 -117.31599 
L 787.246253 -116.872105 
L 788.78964 -138.814791 
L 790.333027 -128.420478 
L 791.876414 -137.44532 
L 793.419801 -153.201505 
L 794.963188 -142.315798 
L 796.506575 -149.267794 
L 798.049962 -155.301087 
L 799.593349 -155.762353 
L 801.136736 -113.317591 
L 802.680123 -107.048442 
L 804.22351 -182.964002 
L 805.766897 -180.351169 
L 807.310284 -123.757479 
L 808.853671 -100.383693 
L 810.397058 -134.172365 
L 811.940445 -131.107115 
L 813.483832 -48.017419 
L 815.027219 -202.882067 
L 816.570606 -315.396307 
L 818.113993 -198.964054 
L 819.65738 -104.217107 
L 821.200767 -38.506551 
L 822.744154 -65.346184 
L 824.287541 -70.056832 
L 825.830928 -116.518997 
L 827.374315 -134.92999 
L 828.917701 -108.463042 
L 830.461088 -129.848532 
L 832.004475 -140.050584 
L 833.547862 -105.174097 
L 835.091249 -117.828366 
L 836.634636 -153.943453 
L 838.178023 -157.769416 
L 839.72141 -132.142478 
L 841.264797 -142.837314 
L 842.808184 -148.140192 
L 844.351571 -124.451276 
L 845.894958 -124.525428 
L 847.438345 -124.671717 
L 848.981732 -124.772422 
L 848.981732 -123.820315 
L 848.981732 -123.820315 
L 847.438345 -123.730641 
L 845.894958 -123.595254 
L 844.351571 -123.531871 
L 842.808184 -147.231888 
L 841.264797 -141.940605 
L 839.72141 -131.256923 
L 838.178023 -156.895232 
L 836.634636 -153.081377 
L 835.091249 -116.977562 
L 833.547862 -104.333189 
L 832.004475 -139.220062 
L 830.461088 -129.030044 
L 828.917701 -107.656718 
L 827.374315 -134.135595 
L 825.830928 -115.736638 
L 824.287541 -69.285039 
L 822.744154 -64.584532 
L 821.200767 -37.759943 
L 819.65738 -103.488433 
L 818.113993 -198.261754 
L 816.570606 -314.730076 
L 815.027219 -202.246447 
L 813.483832 -47.399788 
L 811.940445 -130.507109 
L 810.397058 -133.591525 
L 808.853671 -99.819952 
L 807.310284 -123.206823 
L 805.766897 -179.815508 
L 804.22351 -182.444308 
L 802.680123 -106.542347 
L 801.136736 -112.823537 
L 799.593349 -155.281067 
L 798.049962 -154.832943 
L 796.506575 -148.812045 
L 794.963188 -141.871403 
L 793.419801 -152.768005 
L 791.876414 -137.022435 
L 790.333027 -128.007482 
L 788.78964 -138.410995 
L 787.246253 -116.477273 
L 785.702866 -116.929859 
L 784.159479 -110.557595 
L 782.616093 -111.840864 
L 781.072706 -127.084062 
L 779.529319 -144.619615 
L 777.985932 -152.003896 
L 776.442545 -143.41781 
L 774.899158 -139.961226 
L 773.355771 -156.938217 
L 771.812384 -170.479504 
L 770.268997 -166.388061 
L 768.72561 -154.192791 
L 767.182223 -157.22808 
L 765.638836 -167.829958 
L 764.095449 -162.997322 
L 762.552062 -166.129037 
L 761.008675 -177.32635 
L 759.465288 -173.802348 
L 757.921901 -171.268825 
L 756.378514 -184.992678 
L 754.835127 -200.522368 
L 753.29174 -210.748481 
L 751.748353 -222.568927 
L 750.204966 -235.115775 
L 748.661579 -247.521048 
L 747.118192 -251.215799 
L 745.574805 -253.097799 
L 744.031418 -260.617859 
L 742.488031 -258.221214 
L 740.944644 -253.048925 
L 739.401257 -253.896236 
L 737.857871 -254.541897 
L 736.314484 -262.737544 
L 734.771097 -270.768068 
L 733.22771 -270.983122 
L 731.684323 -271.19913 
L 730.140936 -271.466742 
L 728.597549 -264.127832 
L 727.054162 -256.961643 
L 725.510775 -265.376736 
L 723.967388 -266.138304 
L 722.424001 -266.981384 
L 720.880614 -283.27188 
L 719.337227 -284.04007 
L 717.79384 -277.080287 
L 716.250453 -277.823168 
L 714.707066 -278.466791 
L 713.163679 -286.748241 
L 711.620292 -294.953775 
L 710.076905 -287.669107 
L 708.533518 -288.163017 
L 706.990131 -296.407958 
L 705.446744 -289.225221 
L 703.903357 -282.135472 
L 702.35997 -275.127854 
L 700.816583 -268.19156 
L 699.273196 -276.71789 
L 697.729809 -277.458108 
L 696.186422 -270.459993 
L 694.643035 -271.178394 
L 693.099649 -271.934045 
L 691.556262 -272.796286 
L 690.012875 -266.026312 
L 688.469488 -259.352161 
L 686.926101 -260.437216 
L 685.382714 -261.478029 
L 683.839327 -262.436891 
L 682.29594 -263.279782 
L 680.752553 -263.970196 
L 679.209166 -256.765596 
L 677.665779 -249.518223 
L 676.122392 -257.738139 
L 674.579005 -258.183335 
L 673.035618 -250.90902 
L 671.492231 -251.372627 
L 669.948844 -251.798997 
L 668.405457 -259.879829 
L 666.86207 -267.843299 
L 665.318683 -267.985084 
L 663.775296 -268.065821 
L 662.231909 -260.360234 
L 660.688522 -252.737679 
L 659.145135 -260.611821 
L 657.601748 -268.492304 
L 656.058361 -269.580454 
L 654.514974 -269.681567 
L 652.971587 -269.808245 
L 651.4282 -270.0034 
L 649.884814 -268.108775 
L 648.341427 -269.55739 
L 646.79804 -269.871586 
L 645.254653 -270.16435 
L 643.711266 -262.808747 
L 642.167879 -255.603206 
L 640.624492 -264.723196 
L 639.081105 -272.951307 
L 637.537718 -273.462585 
L 635.994331 -267.345255 
L 634.450944 -264.531113 
L 632.907557 -278.150526 
L 631.36417 -285.712696 
L 629.820783 -285.510783 
L 628.277396 -285.328869 
L 626.734009 -285.10276 
L 625.190622 -285.015677 
L 623.647235 -284.980625 
L 622.103848 -284.934206 
L 620.560461 -284.883313 
L 619.017074 -282.518544 
L 617.473687 -283.654015 
L 615.9303 -283.632654 
L 614.386913 -283.606615 
L 612.843526 -283.582551 
L 611.300139 -283.571216 
L 609.756752 -283.562543 
L 608.213365 -283.232332 
L 606.669978 -282.953091 
L 605.126592 -282.701913 
L 603.583205 -277.040533 
L 602.039818 -261.749711 
L 600.496431 -254.232278 
L 598.953044 -254.533276 
L 597.409657 -255.896949 
L 595.86627 -260.837306 
L 594.322883 -268.926922 
L 592.779496 -275.478331 
L 591.236109 -277.768403 
L 589.692722 -276.309878 
L 588.149335 -273.672348 
L 586.605948 -272.425682 
L 585.062561 -272.216488 
L 583.519174 -272.065826 
L 581.975787 -271.908545 
L 580.4324 -271.769371 
L 578.889013 -271.648161 
L 577.345626 -271.532481 
L 575.802239 -271.422315 
L 574.258852 -271.31456 
L 572.715465 -271.2123 
L 571.172078 -271.133994 
L 569.628691 -271.060984 
L 568.085304 -270.987085 
L 566.541917 -270.918486 
L 564.99853 -270.852086 
L 563.455143 -270.803289 
L 561.911756 -270.765808 
L 560.36837 -270.733407 
L 558.824983 -270.699902 
L 557.281596 -270.680725 
L 555.738209 -270.672698 
L 554.194822 -270.669575 
L 552.651435 -270.67442 
L 551.108048 -270.674859 
L 549.564661 -270.689432 
L 548.021274 -270.708795 
L 546.477887 -270.742165 
L 544.9345 -270.7802 
L 543.391113 -270.825958 
L 541.847726 -270.882467 
L 540.304339 -270.940413 
L 538.760952 -271.009037 
L 537.217565 -271.088265 
L 535.674178 -271.171858 
L 534.130791 -271.265956 
L 532.587404 -271.358159 
L 531.044017 -271.460816 
L 529.50063 -271.573853 
L 527.957243 -271.700273 
L 526.413856 -271.833814 
L 524.870469 -271.962103 
L 523.327082 -272.097516 
L 521.783695 -272.252324 
L 520.240308 -272.420213 
L 518.696921 -272.594919 
L 517.153534 -272.767151 
L 515.610148 -272.940016 
L 514.066761 -273.128918 
L 512.523374 -273.336809 
L 510.979987 -273.551214 
L 509.4366 -273.75976 
L 507.893213 -273.9625 
L 506.349826 -274.19029 
L 504.806439 -274.427524 
L 503.263052 -274.680286 
L 501.719665 -274.917642 
L 500.176278 -275.155126 
L 498.632891 -275.414301 
L 497.089504 -275.691906 
L 495.546117 -275.975467 
L 494.00273 -276.25261 
L 492.459343 -276.532629 
L 490.915956 -276.81858 
L 489.372569 -277.128894 
L 487.829182 -277.451044 
L 486.285795 -277.763372 
L 484.742408 -278.075192 
L 483.199021 -278.398819 
L 481.655634 -278.74031 
L 480.112247 -279.090275 
L 478.56886 -279.439398 
L 477.025473 -279.787677 
L 475.482086 -280.141275 
L 473.938699 -280.509382 
L 472.395313 -277.250739 
z
" id="m32bc2a3085"/>
    </defs>
    <g clip-path="url(#p1e444b9e91)">
     <use style="fill:#0000ff;fill-opacity:0.2;" x="0" xlink:href="#m32bc2a3085" y="351.59625"/>
    </g>
   </g>
   <g id="matplotlib.axis_3">
    <g id="xtick_6">
     <g id="line2d_16">
      <g>
       <use style="stroke:#000000;stroke-width:0.8;" x="524.870469" xlink:href="#m5b6d4cb19b" y="327.718125"/>
      </g>
     </g>
     <g id="text_15">
      <!-- 1800 -->
      <g transform="translate(512.145469 342.316562)scale(0.1 -0.1)">
       <use xlink:href="#DejaVuSans-49"/>
       <use x="63.623047" xlink:href="#DejaVuSans-56"/>
       <use x="127.246094" xlink:href="#DejaVuSans-48"/>
       <use x="190.869141" xlink:href="#DejaVuSans-48"/>
      </g>
     </g>
    </g>
    <g id="xtick_7">
     <g id="line2d_17">
      <g>
       <use style="stroke:#000000;stroke-width:0.8;" x="602.039818" xlink:href="#m5b6d4cb19b" y="327.718125"/>
      </g>
     </g>
     <g id="text_16">
      <!-- 1850 -->
      <g transform="translate(589.314818 342.316562)scale(0.1 -0.1)">
       <use xlink:href="#DejaVuSans-49"/>
       <use x="63.623047" xlink:href="#DejaVuSans-56"/>
       <use x="127.246094" xlink:href="#DejaVuSans-53"/>
       <use x="190.869141" xlink:href="#DejaVuSans-48"/>
      </g>
     </g>
    </g>
    <g id="xtick_8">
     <g id="line2d_18">
      <g>
       <use style="stroke:#000000;stroke-width:0.8;" x="679.209166" xlink:href="#m5b6d4cb19b" y="327.718125"/>
      </g>
     </g>
     <g id="text_17">
      <!-- 1900 -->
      <g transform="translate(666.484166 342.316562)scale(0.1 -0.1)">
       <use xlink:href="#DejaVuSans-49"/>
       <use x="63.623047" xlink:href="#DejaVuSans-57"/>
       <use x="127.246094" xlink:href="#DejaVuSans-48"/>
       <use x="190.869141" xlink:href="#DejaVuSans-48"/>
      </g>
     </g>
    </g>
    <g id="xtick_9">
     <g id="line2d_19">
      <g>
       <use style="stroke:#000000;stroke-width:0.8;" x="756.378514" xlink:href="#m5b6d4cb19b" y="327.718125"/>
      </g>
     </g>
     <g id="text_18">
      <!-- 1950 -->
      <g transform="translate(743.653514 342.316562)scale(0.1 -0.1)">
       <use xlink:href="#DejaVuSans-49"/>
       <use x="63.623047" xlink:href="#DejaVuSans-57"/>
       <use x="127.246094" xlink:href="#DejaVuSans-53"/>
       <use x="190.869141" xlink:href="#DejaVuSans-48"/>
      </g>
     </g>
    </g>
    <g id="xtick_10">
     <g id="line2d_20">
      <g>
       <use style="stroke:#000000;stroke-width:0.8;" x="833.547862" xlink:href="#m5b6d4cb19b" y="327.718125"/>
      </g>
     </g>
     <g id="text_19">
      <!-- 2000 -->
      <g transform="translate(820.822862 342.316562)scale(0.1 -0.1)">
       <use xlink:href="#DejaVuSans-50"/>
       <use x="63.623047" xlink:href="#DejaVuSans-48"/>
       <use x="127.246094" xlink:href="#DejaVuSans-48"/>
       <use x="190.869141" xlink:href="#DejaVuSans-48"/>
      </g>
     </g>
    </g>
   </g>
   <g id="matplotlib.axis_4">
    <g id="ytick_7">
     <g id="line2d_21">
      <g>
       <use style="stroke:#000000;stroke-width:0.8;" x="472.395313" xlink:href="#m183260d11e" y="268.524539"/>
      </g>
     </g>
     <g id="text_20">
      <!-- −3 -->
      <defs>
       <path d="M 40.578125 39.3125 
Q 47.65625 37.796875 51.625 33 
Q 55.609375 28.21875 55.609375 21.1875 
Q 55.609375 10.40625 48.1875 4.484375 
Q 40.765625 -1.421875 27.09375 -1.421875 
Q 22.515625 -1.421875 17.65625 -0.515625 
Q 12.796875 0.390625 7.625 2.203125 
L 7.625 11.71875 
Q 11.71875 9.328125 16.59375 8.109375 
Q 21.484375 6.890625 26.8125 6.890625 
Q 36.078125 6.890625 40.9375 10.546875 
Q 45.796875 14.203125 45.796875 21.1875 
Q 45.796875 27.640625 41.28125 31.265625 
Q 36.765625 34.90625 28.71875 34.90625 
L 20.21875 34.90625 
L 20.21875 43.015625 
L 29.109375 43.015625 
Q 36.375 43.015625 40.234375 45.921875 
Q 44.09375 48.828125 44.09375 54.296875 
Q 44.09375 59.90625 40.109375 62.90625 
Q 36.140625 65.921875 28.71875 65.921875 
Q 24.65625 65.921875 20.015625 65.03125 
Q 15.375 64.15625 9.8125 62.3125 
L 9.8125 71.09375 
Q 15.4375 72.65625 20.34375 73.4375 
Q 25.25 74.21875 29.59375 74.21875 
Q 40.828125 74.21875 47.359375 69.109375 
Q 53.90625 64.015625 53.90625 55.328125 
Q 53.90625 49.265625 50.4375 45.09375 
Q 46.96875 40.921875 40.578125 39.3125 
z
" id="DejaVuSans-51"/>
      </defs>
      <g transform="translate(450.653125 272.323758)scale(0.1 -0.1)">
       <use xlink:href="#DejaVuSans-8722"/>
       <use x="83.789062" xlink:href="#DejaVuSans-51"/>
      </g>
     </g>
    </g>
    <g id="ytick_8">
     <g id="line2d_22">
      <g>
       <use style="stroke:#000000;stroke-width:0.8;" x="472.395313" xlink:href="#m183260d11e" y="206.354149"/>
      </g>
     </g>
     <g id="text_21">
      <!-- −2 -->
      <g transform="translate(450.653125 210.153368)scale(0.1 -0.1)">
       <use xlink:href="#DejaVuSans-8722"/>
       <use x="83.789062" xlink:href="#DejaVuSans-50"/>
      </g>
     </g>
    </g>
    <g id="ytick_9">
     <g id="line2d_23">
      <g>
       <use style="stroke:#000000;stroke-width:0.8;" x="472.395313" xlink:href="#m183260d11e" y="144.183759"/>
      </g>
     </g>
     <g id="text_22">
      <!-- −1 -->
      <g transform="translate(450.653125 147.982978)scale(0.1 -0.1)">
       <use xlink:href="#DejaVuSans-8722"/>
       <use x="83.789062" xlink:href="#DejaVuSans-49"/>
      </g>
     </g>
    </g>
    <g id="ytick_10">
     <g id="line2d_24">
      <g>
       <use style="stroke:#000000;stroke-width:0.8;" x="472.395313" xlink:href="#m183260d11e" y="82.013369"/>
      </g>
     </g>
     <g id="text_23">
      <!-- 0 -->
      <g transform="translate(459.032813 85.812587)scale(0.1 -0.1)">
       <use xlink:href="#DejaVuSans-48"/>
      </g>
     </g>
    </g>
    <g id="text_24">
     <!-- Emissions (MtN2O-N2) -->
     <defs>
      <path d="M 9.8125 72.90625 
L 23.09375 72.90625 
L 55.421875 11.921875 
L 55.421875 72.90625 
L 64.984375 72.90625 
L 64.984375 0 
L 51.703125 0 
L 19.390625 60.984375 
L 19.390625 0 
L 9.8125 0 
z
" id="DejaVuSans-78"/>
      <path d="M 39.40625 66.21875 
Q 28.65625 66.21875 22.328125 58.203125 
Q 16.015625 50.203125 16.015625 36.375 
Q 16.015625 22.609375 22.328125 14.59375 
Q 28.65625 6.59375 39.40625 6.59375 
Q 50.140625 6.59375 56.421875 14.59375 
Q 62.703125 22.609375 62.703125 36.375 
Q 62.703125 50.203125 56.421875 58.203125 
Q 50.140625 66.21875 39.40625 66.21875 
z
M 39.40625 74.21875 
Q 54.734375 74.21875 63.90625 63.9375 
Q 73.09375 53.65625 73.09375 36.375 
Q 73.09375 19.140625 63.90625 8.859375 
Q 54.734375 -1.421875 39.40625 -1.421875 
Q 24.03125 -1.421875 14.8125 8.828125 
Q 5.609375 19.09375 5.609375 36.375 
Q 5.609375 53.65625 14.8125 63.9375 
Q 24.03125 74.21875 39.40625 74.21875 
z
" id="DejaVuSans-79"/>
      <path d="M 4.890625 31.390625 
L 31.203125 31.390625 
L 31.203125 23.390625 
L 4.890625 23.390625 
z
" id="DejaVuSans-45"/>
     </defs>
     <g transform="translate(444.573438 231.218125)rotate(-90)scale(0.1 -0.1)">
      <use xlink:href="#DejaVuSans-69"/>
      <use x="63.183594" xlink:href="#DejaVuSans-109"/>
      <use x="160.595703" xlink:href="#DejaVuSans-105"/>
      <use x="188.378906" xlink:href="#DejaVuSans-115"/>
      <use x="240.478516" xlink:href="#DejaVuSans-115"/>
      <use x="292.578125" xlink:href="#DejaVuSans-105"/>
      <use x="320.361328" xlink:href="#DejaVuSans-111"/>
      <use x="381.542969" xlink:href="#DejaVuSans-110"/>
      <use x="444.921875" xlink:href="#DejaVuSans-115"/>
      <use x="497.021484" xlink:href="#DejaVuSans-32"/>
      <use x="528.808594" xlink:href="#DejaVuSans-40"/>
      <use x="567.822266" xlink:href="#DejaVuSans-77"/>
      <use x="654.101562" xlink:href="#DejaVuSans-116"/>
      <use x="693.310547" xlink:href="#DejaVuSans-78"/>
      <use x="768.115234" xlink:href="#DejaVuSans-50"/>
      <use x="831.738281" xlink:href="#DejaVuSans-79"/>
      <use x="910.480469" xlink:href="#DejaVuSans-45"/>
      <use x="946.564453" xlink:href="#DejaVuSans-78"/>
      <use x="1021.369141" xlink:href="#DejaVuSans-50"/>
      <use x="1084.992188" xlink:href="#DejaVuSans-41"/>
     </g>
    </g>
   </g>
   <g id="line2d_25">
    <path clip-path="url(#p1e444b9e91)" d="M 472.395313 74.345378 
L 473.938699 71.086735 
L 483.199021 73.197293 
L 492.459343 75.063449 
L 503.263052 76.915783 
L 509.4366 77.836303 
L 518.696921 79.001137 
L 524.870469 79.633948 
L 535.674178 80.424183 
L 544.9345 80.815834 
L 552.651435 80.921608 
L 560.36837 80.862605 
L 568.085304 80.608913 
L 577.345626 80.063497 
L 585.062561 79.379396 
L 586.605948 79.170172 
L 588.149335 77.923475 
L 589.692722 75.28591 
L 591.236109 73.827342 
L 592.779496 76.11735 
L 594.322883 82.668688 
L 595.86627 90.758255 
L 597.409657 95.698591 
L 598.953044 97.062261 
L 600.496431 97.36326 
L 602.039818 89.845826 
L 603.583205 74.55497 
L 605.126592 68.893512 
L 609.756752 68.032761 
L 617.473687 67.940858 
L 619.017074 69.076236 
L 620.560461 66.711411 
L 626.734009 66.491742 
L 631.36417 65.881629 
L 632.907557 73.443743 
L 634.450944 87.063114 
L 635.994331 84.248929 
L 637.537718 78.131504 
L 639.081105 78.64266 
L 640.624492 86.870649 
L 642.167879 95.990548 
L 645.254653 81.42923 
L 648.341427 82.035919 
L 649.884814 83.484394 
L 651.4282 81.589627 
L 654.514974 81.911166 
L 656.058361 82.012128 
L 657.601748 83.100124 
L 660.688522 98.854487 
L 663.775296 83.52613 
L 666.86207 83.748319 
L 669.948844 99.792336 
L 673.035618 100.682138 
L 674.579005 93.407727 
L 676.122392 93.852788 
L 677.665779 102.072577 
L 680.752553 87.620358 
L 682.29594 88.310585 
L 685.382714 90.111957 
L 688.469488 92.237436 
L 691.556262 78.792839 
L 694.643035 80.410107 
L 696.186422 81.128186 
L 697.729809 74.129734 
L 699.273196 74.869561 
L 700.816583 83.395503 
L 706.990131 55.177577 
L 708.533518 63.422026 
L 710.076905 63.915472 
L 711.620292 56.630319 
L 714.707066 73.116299 
L 717.79384 74.501904 
L 719.337227 67.541646 
L 720.880614 68.309309 
L 722.424001 84.599297 
L 725.510775 86.203093 
L 727.054162 94.617766 
L 730.140936 80.111812 
L 734.771097 80.808914 
L 737.857871 97.034103 
L 739.401257 97.679351 
L 740.944644 98.526243 
L 742.488031 93.353515 
L 744.031418 90.956354 
L 745.574805 98.475838 
L 747.118192 100.357238 
L 748.661579 104.051305 
L 753.29174 140.821583 
L 754.835127 151.04691 
L 756.378514 166.575822 
L 757.921901 180.298968 
L 759.465288 177.76477 
L 761.008675 174.240003 
L 762.552062 185.436496 
L 764.095449 188.567446 
L 765.638836 183.734014 
L 767.182223 194.335041 
L 768.72561 197.369536 
L 770.268997 185.173418 
L 771.812384 181.080955 
L 773.355771 194.621162 
L 774.899158 211.59715 
L 776.442545 208.139575 
L 777.985932 199.552268 
L 779.529319 206.935063 
L 781.072706 224.469028 
L 782.616093 239.71061 
L 784.159479 240.992207 
L 785.702866 234.618109 
L 787.246253 235.068636 
L 788.78964 213.132729 
L 790.333027 223.533982 
L 791.876414 214.516577 
L 793.419801 198.768295 
L 794.963188 209.66203 
L 796.506575 202.718394 
L 798.049962 196.694166 
L 799.593349 196.242377 
L 801.136736 238.696183 
L 802.680123 244.973843 
L 804.22351 169.068067 
L 805.766897 171.692064 
L 807.310284 228.295881 
L 808.853671 251.678699 
L 810.397058 217.903371 
L 811.940445 220.983509 
L 813.483832 304.086794 
L 815.027219 149.236269 
L 816.570606 36.745863 
L 818.113993 153.2058 
L 819.65738 247.972869 
L 821.200767 313.697112 
L 822.744154 286.868994 
L 824.287541 282.164906 
L 825.830928 235.709088 
L 827.374315 217.304777 
L 828.917701 243.777934 
L 830.461088 222.398903 
L 832.004475 212.202811 
L 833.547862 247.084064 
L 835.091249 234.434715 
L 836.634636 198.32532 
L 838.178023 194.504997 
L 839.72141 220.136802 
L 841.264797 209.44696 
L 842.808184 204.149104 
L 844.351571 227.842386 
L 848.981732 227.534019 
L 848.981732 227.534019 
" style="fill:none;stroke:#0000ff;stroke-linecap:square;stroke-width:1.5;"/>
   </g>
   <g id="patch_8">
    <path d="M 472.395313 327.718125 
L 472.395313 22.318125 
" style="fill:none;stroke:#000000;stroke-linecap:square;stroke-linejoin:miter;stroke-width:0.8;"/>
   </g>
   <g id="patch_9">
    <path d="M 848.981732 327.718125 
L 848.981732 22.318125 
" style="fill:none;stroke:#000000;stroke-linecap:square;stroke-linejoin:miter;stroke-width:0.8;"/>
   </g>
   <g id="patch_10">
    <path d="M 472.395313 327.718125 
L 848.981732 327.718125 
" style="fill:none;stroke:#000000;stroke-linecap:square;stroke-linejoin:miter;stroke-width:0.8;"/>
   </g>
   <g id="patch_11">
    <path d="M 472.395313 22.318125 
L 848.981732 22.318125 
" style="fill:none;stroke:#000000;stroke-linecap:square;stroke-linejoin:miter;stroke-width:0.8;"/>
   </g>
   <g id="text_25">
    <!-- N2O -->
    <g transform="translate(647.659147 16.318125)scale(0.12 -0.12)">
     <use xlink:href="#DejaVuSans-78"/>
     <use x="74.804688" xlink:href="#DejaVuSans-50"/>
     <use x="138.427734" xlink:href="#DejaVuSans-79"/>
    </g>
   </g>
  </g>
 </g>
 <defs>
  <clipPath id="pdcf73b45b5">
   <rect height="305.4" width="376.58642" x="48.982813" y="22.318125"/>
  </clipPath>
  <clipPath id="p1e444b9e91">
   <rect height="305.4" width="376.58642" x="472.395313" y="22.318125"/>
  </clipPath>
 </defs>
</svg>
