<?xml version="1.0" encoding="utf-8" standalone="no"?>
<!DOCTYPE svg PUBLIC "-//W3C//DTD SVG 1.1//EN"
  "http://www.w3.org/Graphics/SVG/1.1/DTD/svg11.dtd">
<!-- Created with matplotlib (https://matplotlib.org/) -->
<svg height="360pt" version="1.1" viewBox="0 0 1152 360" width="1152pt" xmlns="http://www.w3.org/2000/svg" xmlns:xlink="http://www.w3.org/1999/xlink">
 <defs>
  <style type="text/css">
*{stroke-linecap:butt;stroke-linejoin:round;}
  </style>
 </defs>
 <g id="figure_1">
  <g id="patch_1">
   <path d="M 0 360 
L 1152 360 
L 1152 0 
L 0 0 
z
" style="fill:#ffffff;"/>
  </g>
  <g id="axes_1">
   <g id="patch_2">
    <path d="M 46.55 318.2 
L 380.485025 318.2 
L 380.485025 26.8 
L 46.55 26.8 
z
" style="fill:#ffffff;"/>
   </g>
   <g id="matplotlib.axis_1">
    <g id="xtick_1">
     <g id="line2d_1">
      <defs>
       <path d="M 0 0 
L 0 3.5 
" id="m0c0a60eaca" style="stroke:#000000;stroke-width:0.8;"/>
      </defs>
      <g>
       <use style="stroke:#000000;stroke-width:0.8;" x="61.728865" xlink:href="#m0c0a60eaca" y="318.2"/>
      </g>
     </g>
     <g id="text_1">
      <!-- 0 -->
      <defs>
       <path d="M 31.78125 66.40625 
Q 24.171875 66.40625 20.328125 58.90625 
Q 16.5 51.421875 16.5 36.375 
Q 16.5 21.390625 20.328125 13.890625 
Q 24.171875 6.390625 31.78125 6.390625 
Q 39.453125 6.390625 43.28125 13.890625 
Q 47.125 21.390625 47.125 36.375 
Q 47.125 51.421875 43.28125 58.90625 
Q 39.453125 66.40625 31.78125 66.40625 
z
M 31.78125 74.21875 
Q 44.046875 74.21875 50.515625 64.515625 
Q 56.984375 54.828125 56.984375 36.375 
Q 56.984375 17.96875 50.515625 8.265625 
Q 44.046875 -1.421875 31.78125 -1.421875 
Q 19.53125 -1.421875 13.0625 8.265625 
Q 6.59375 17.96875 6.59375 36.375 
Q 6.59375 54.828125 13.0625 64.515625 
Q 19.53125 74.21875 31.78125 74.21875 
z
" id="DejaVuSans-48"/>
      </defs>
      <g transform="translate(58.547615 332.798438)scale(0.1 -0.1)">
       <use xlink:href="#DejaVuSans-48"/>
      </g>
     </g>
    </g>
    <g id="xtick_2">
     <g id="line2d_2">
      <g>
       <use style="stroke:#000000;stroke-width:0.8;" x="104.205142" xlink:href="#m0c0a60eaca" y="318.2"/>
      </g>
     </g>
     <g id="text_2">
      <!-- 200 -->
      <defs>
       <path d="M 19.1875 8.296875 
L 53.609375 8.296875 
L 53.609375 0 
L 7.328125 0 
L 7.328125 8.296875 
Q 12.9375 14.109375 22.625 23.890625 
Q 32.328125 33.6875 34.8125 36.53125 
Q 39.546875 41.84375 41.421875 45.53125 
Q 43.3125 49.21875 43.3125 52.78125 
Q 43.3125 58.59375 39.234375 62.25 
Q 35.15625 65.921875 28.609375 65.921875 
Q 23.96875 65.921875 18.8125 64.3125 
Q 13.671875 62.703125 7.8125 59.421875 
L 7.8125 69.390625 
Q 13.765625 71.78125 18.9375 73 
Q 24.125 74.21875 28.421875 74.21875 
Q 39.75 74.21875 46.484375 68.546875 
Q 53.21875 62.890625 53.21875 53.421875 
Q 53.21875 48.921875 51.53125 44.890625 
Q 49.859375 40.875 45.40625 35.40625 
Q 44.1875 33.984375 37.640625 27.21875 
Q 31.109375 20.453125 19.1875 8.296875 
z
" id="DejaVuSans-50"/>
      </defs>
      <g transform="translate(94.661392 332.798438)scale(0.1 -0.1)">
       <use xlink:href="#DejaVuSans-50"/>
       <use x="63.623047" xlink:href="#DejaVuSans-48"/>
       <use x="127.246094" xlink:href="#DejaVuSans-48"/>
      </g>
     </g>
    </g>
    <g id="xtick_3">
     <g id="line2d_3">
      <g>
       <use style="stroke:#000000;stroke-width:0.8;" x="146.681419" xlink:href="#m0c0a60eaca" y="318.2"/>
      </g>
     </g>
     <g id="text_3">
      <!-- 400 -->
      <defs>
       <path d="M 37.796875 64.3125 
L 12.890625 25.390625 
L 37.796875 25.390625 
z
M 35.203125 72.90625 
L 47.609375 72.90625 
L 47.609375 25.390625 
L 58.015625 25.390625 
L 58.015625 17.1875 
L 47.609375 17.1875 
L 47.609375 0 
L 37.796875 0 
L 37.796875 17.1875 
L 4.890625 17.1875 
L 4.890625 26.703125 
z
" id="DejaVuSans-52"/>
      </defs>
      <g transform="translate(137.137669 332.798438)scale(0.1 -0.1)">
       <use xlink:href="#DejaVuSans-52"/>
       <use x="63.623047" xlink:href="#DejaVuSans-48"/>
       <use x="127.246094" xlink:href="#DejaVuSans-48"/>
      </g>
     </g>
    </g>
    <g id="xtick_4">
     <g id="line2d_4">
      <g>
       <use style="stroke:#000000;stroke-width:0.8;" x="189.157696" xlink:href="#m0c0a60eaca" y="318.2"/>
      </g>
     </g>
     <g id="text_4">
      <!-- 600 -->
      <defs>
       <path d="M 33.015625 40.375 
Q 26.375 40.375 22.484375 35.828125 
Q 18.609375 31.296875 18.609375 23.390625 
Q 18.609375 15.53125 22.484375 10.953125 
Q 26.375 6.390625 33.015625 6.390625 
Q 39.65625 6.390625 43.53125 10.953125 
Q 47.40625 15.53125 47.40625 23.390625 
Q 47.40625 31.296875 43.53125 35.828125 
Q 39.65625 40.375 33.015625 40.375 
z
M 52.59375 71.296875 
L 52.59375 62.3125 
Q 48.875 64.0625 45.09375 64.984375 
Q 41.3125 65.921875 37.59375 65.921875 
Q 27.828125 65.921875 22.671875 59.328125 
Q 17.53125 52.734375 16.796875 39.40625 
Q 19.671875 43.65625 24.015625 45.921875 
Q 28.375 48.1875 33.59375 48.1875 
Q 44.578125 48.1875 50.953125 41.515625 
Q 57.328125 34.859375 57.328125 23.390625 
Q 57.328125 12.15625 50.6875 5.359375 
Q 44.046875 -1.421875 33.015625 -1.421875 
Q 20.359375 -1.421875 13.671875 8.265625 
Q 6.984375 17.96875 6.984375 36.375 
Q 6.984375 53.65625 15.1875 63.9375 
Q 23.390625 74.21875 37.203125 74.21875 
Q 40.921875 74.21875 44.703125 73.484375 
Q 48.484375 72.75 52.59375 71.296875 
z
" id="DejaVuSans-54"/>
      </defs>
      <g transform="translate(179.613946 332.798438)scale(0.1 -0.1)">
       <use xlink:href="#DejaVuSans-54"/>
       <use x="63.623047" xlink:href="#DejaVuSans-48"/>
       <use x="127.246094" xlink:href="#DejaVuSans-48"/>
      </g>
     </g>
    </g>
    <g id="xtick_5">
     <g id="line2d_5">
      <g>
       <use style="stroke:#000000;stroke-width:0.8;" x="231.633974" xlink:href="#m0c0a60eaca" y="318.2"/>
      </g>
     </g>
     <g id="text_5">
      <!-- 800 -->
      <defs>
       <path d="M 31.78125 34.625 
Q 24.75 34.625 20.71875 30.859375 
Q 16.703125 27.09375 16.703125 20.515625 
Q 16.703125 13.921875 20.71875 10.15625 
Q 24.75 6.390625 31.78125 6.390625 
Q 38.8125 6.390625 42.859375 10.171875 
Q 46.921875 13.96875 46.921875 20.515625 
Q 46.921875 27.09375 42.890625 30.859375 
Q 38.875 34.625 31.78125 34.625 
z
M 21.921875 38.8125 
Q 15.578125 40.375 12.03125 44.71875 
Q 8.5 49.078125 8.5 55.328125 
Q 8.5 64.0625 14.71875 69.140625 
Q 20.953125 74.21875 31.78125 74.21875 
Q 42.671875 74.21875 48.875 69.140625 
Q 55.078125 64.0625 55.078125 55.328125 
Q 55.078125 49.078125 51.53125 44.71875 
Q 48 40.375 41.703125 38.8125 
Q 48.828125 37.15625 52.796875 32.3125 
Q 56.78125 27.484375 56.78125 20.515625 
Q 56.78125 9.90625 50.3125 4.234375 
Q 43.84375 -1.421875 31.78125 -1.421875 
Q 19.734375 -1.421875 13.25 4.234375 
Q 6.78125 9.90625 6.78125 20.515625 
Q 6.78125 27.484375 10.78125 32.3125 
Q 14.796875 37.15625 21.921875 38.8125 
z
M 18.3125 54.390625 
Q 18.3125 48.734375 21.84375 45.5625 
Q 25.390625 42.390625 31.78125 42.390625 
Q 38.140625 42.390625 41.71875 45.5625 
Q 45.3125 48.734375 45.3125 54.390625 
Q 45.3125 60.0625 41.71875 63.234375 
Q 38.140625 66.40625 31.78125 66.40625 
Q 25.390625 66.40625 21.84375 63.234375 
Q 18.3125 60.0625 18.3125 54.390625 
z
" id="DejaVuSans-56"/>
      </defs>
      <g transform="translate(222.090224 332.798438)scale(0.1 -0.1)">
       <use xlink:href="#DejaVuSans-56"/>
       <use x="63.623047" xlink:href="#DejaVuSans-48"/>
       <use x="127.246094" xlink:href="#DejaVuSans-48"/>
      </g>
     </g>
    </g>
    <g id="xtick_6">
     <g id="line2d_6">
      <g>
       <use style="stroke:#000000;stroke-width:0.8;" x="274.110251" xlink:href="#m0c0a60eaca" y="318.2"/>
      </g>
     </g>
     <g id="text_6">
      <!-- 1000 -->
      <defs>
       <path d="M 12.40625 8.296875 
L 28.515625 8.296875 
L 28.515625 63.921875 
L 10.984375 60.40625 
L 10.984375 69.390625 
L 28.421875 72.90625 
L 38.28125 72.90625 
L 38.28125 8.296875 
L 54.390625 8.296875 
L 54.390625 0 
L 12.40625 0 
z
" id="DejaVuSans-49"/>
      </defs>
      <g transform="translate(261.385251 332.798438)scale(0.1 -0.1)">
       <use xlink:href="#DejaVuSans-49"/>
       <use x="63.623047" xlink:href="#DejaVuSans-48"/>
       <use x="127.246094" xlink:href="#DejaVuSans-48"/>
       <use x="190.869141" xlink:href="#DejaVuSans-48"/>
      </g>
     </g>
    </g>
    <g id="xtick_7">
     <g id="line2d_7">
      <g>
       <use style="stroke:#000000;stroke-width:0.8;" x="316.586528" xlink:href="#m0c0a60eaca" y="318.2"/>
      </g>
     </g>
     <g id="text_7">
      <!-- 1200 -->
      <g transform="translate(303.861528 332.798438)scale(0.1 -0.1)">
       <use xlink:href="#DejaVuSans-49"/>
       <use x="63.623047" xlink:href="#DejaVuSans-50"/>
       <use x="127.246094" xlink:href="#DejaVuSans-48"/>
       <use x="190.869141" xlink:href="#DejaVuSans-48"/>
      </g>
     </g>
    </g>
    <g id="xtick_8">
     <g id="line2d_8">
      <g>
       <use style="stroke:#000000;stroke-width:0.8;" x="359.062805" xlink:href="#m0c0a60eaca" y="318.2"/>
      </g>
     </g>
     <g id="text_8">
      <!-- 1400 -->
      <g transform="translate(346.337805 332.798438)scale(0.1 -0.1)">
       <use xlink:href="#DejaVuSans-49"/>
       <use x="63.623047" xlink:href="#DejaVuSans-52"/>
       <use x="127.246094" xlink:href="#DejaVuSans-48"/>
       <use x="190.869141" xlink:href="#DejaVuSans-48"/>
      </g>
     </g>
    </g>
    <g id="text_9">
     <!-- atmospheric concentration (ppm) -->
     <defs>
      <path d="M 34.28125 27.484375 
Q 23.390625 27.484375 19.1875 25 
Q 14.984375 22.515625 14.984375 16.5 
Q 14.984375 11.71875 18.140625 8.90625 
Q 21.296875 6.109375 26.703125 6.109375 
Q 34.1875 6.109375 38.703125 11.40625 
Q 43.21875 16.703125 43.21875 25.484375 
L 43.21875 27.484375 
z
M 52.203125 31.203125 
L 52.203125 0 
L 43.21875 0 
L 43.21875 8.296875 
Q 40.140625 3.328125 35.546875 0.953125 
Q 30.953125 -1.421875 24.3125 -1.421875 
Q 15.921875 -1.421875 10.953125 3.296875 
Q 6 8.015625 6 15.921875 
Q 6 25.140625 12.171875 29.828125 
Q 18.359375 34.515625 30.609375 34.515625 
L 43.21875 34.515625 
L 43.21875 35.40625 
Q 43.21875 41.609375 39.140625 45 
Q 35.0625 48.390625 27.6875 48.390625 
Q 23 48.390625 18.546875 47.265625 
Q 14.109375 46.140625 10.015625 43.890625 
L 10.015625 52.203125 
Q 14.9375 54.109375 19.578125 55.046875 
Q 24.21875 56 28.609375 56 
Q 40.484375 56 46.34375 49.84375 
Q 52.203125 43.703125 52.203125 31.203125 
z
" id="DejaVuSans-97"/>
      <path d="M 18.3125 70.21875 
L 18.3125 54.6875 
L 36.8125 54.6875 
L 36.8125 47.703125 
L 18.3125 47.703125 
L 18.3125 18.015625 
Q 18.3125 11.328125 20.140625 9.421875 
Q 21.96875 7.515625 27.59375 7.515625 
L 36.8125 7.515625 
L 36.8125 0 
L 27.59375 0 
Q 17.1875 0 13.234375 3.875 
Q 9.28125 7.765625 9.28125 18.015625 
L 9.28125 47.703125 
L 2.6875 47.703125 
L 2.6875 54.6875 
L 9.28125 54.6875 
L 9.28125 70.21875 
z
" id="DejaVuSans-116"/>
      <path d="M 52 44.1875 
Q 55.375 50.25 60.0625 53.125 
Q 64.75 56 71.09375 56 
Q 79.640625 56 84.28125 50.015625 
Q 88.921875 44.046875 88.921875 33.015625 
L 88.921875 0 
L 79.890625 0 
L 79.890625 32.71875 
Q 79.890625 40.578125 77.09375 44.375 
Q 74.3125 48.1875 68.609375 48.1875 
Q 61.625 48.1875 57.5625 43.546875 
Q 53.515625 38.921875 53.515625 30.90625 
L 53.515625 0 
L 44.484375 0 
L 44.484375 32.71875 
Q 44.484375 40.625 41.703125 44.40625 
Q 38.921875 48.1875 33.109375 48.1875 
Q 26.21875 48.1875 22.15625 43.53125 
Q 18.109375 38.875 18.109375 30.90625 
L 18.109375 0 
L 9.078125 0 
L 9.078125 54.6875 
L 18.109375 54.6875 
L 18.109375 46.1875 
Q 21.1875 51.21875 25.484375 53.609375 
Q 29.78125 56 35.6875 56 
Q 41.65625 56 45.828125 52.96875 
Q 50 49.953125 52 44.1875 
z
" id="DejaVuSans-109"/>
      <path d="M 30.609375 48.390625 
Q 23.390625 48.390625 19.1875 42.75 
Q 14.984375 37.109375 14.984375 27.296875 
Q 14.984375 17.484375 19.15625 11.84375 
Q 23.34375 6.203125 30.609375 6.203125 
Q 37.796875 6.203125 41.984375 11.859375 
Q 46.1875 17.53125 46.1875 27.296875 
Q 46.1875 37.015625 41.984375 42.703125 
Q 37.796875 48.390625 30.609375 48.390625 
z
M 30.609375 56 
Q 42.328125 56 49.015625 48.375 
Q 55.71875 40.765625 55.71875 27.296875 
Q 55.71875 13.875 49.015625 6.21875 
Q 42.328125 -1.421875 30.609375 -1.421875 
Q 18.84375 -1.421875 12.171875 6.21875 
Q 5.515625 13.875 5.515625 27.296875 
Q 5.515625 40.765625 12.171875 48.375 
Q 18.84375 56 30.609375 56 
z
" id="DejaVuSans-111"/>
      <path d="M 44.28125 53.078125 
L 44.28125 44.578125 
Q 40.484375 46.53125 36.375 47.5 
Q 32.28125 48.484375 27.875 48.484375 
Q 21.1875 48.484375 17.84375 46.4375 
Q 14.5 44.390625 14.5 40.28125 
Q 14.5 37.15625 16.890625 35.375 
Q 19.28125 33.59375 26.515625 31.984375 
L 29.59375 31.296875 
Q 39.15625 29.25 43.1875 25.515625 
Q 47.21875 21.78125 47.21875 15.09375 
Q 47.21875 7.46875 41.1875 3.015625 
Q 35.15625 -1.421875 24.609375 -1.421875 
Q 20.21875 -1.421875 15.453125 -0.5625 
Q 10.6875 0.296875 5.421875 2 
L 5.421875 11.28125 
Q 10.40625 8.6875 15.234375 7.390625 
Q 20.0625 6.109375 24.8125 6.109375 
Q 31.15625 6.109375 34.5625 8.28125 
Q 37.984375 10.453125 37.984375 14.40625 
Q 37.984375 18.0625 35.515625 20.015625 
Q 33.0625 21.96875 24.703125 23.78125 
L 21.578125 24.515625 
Q 13.234375 26.265625 9.515625 29.90625 
Q 5.8125 33.546875 5.8125 39.890625 
Q 5.8125 47.609375 11.28125 51.796875 
Q 16.75 56 26.8125 56 
Q 31.78125 56 36.171875 55.265625 
Q 40.578125 54.546875 44.28125 53.078125 
z
" id="DejaVuSans-115"/>
      <path d="M 18.109375 8.203125 
L 18.109375 -20.796875 
L 9.078125 -20.796875 
L 9.078125 54.6875 
L 18.109375 54.6875 
L 18.109375 46.390625 
Q 20.953125 51.265625 25.265625 53.625 
Q 29.59375 56 35.59375 56 
Q 45.5625 56 51.78125 48.09375 
Q 58.015625 40.1875 58.015625 27.296875 
Q 58.015625 14.40625 51.78125 6.484375 
Q 45.5625 -1.421875 35.59375 -1.421875 
Q 29.59375 -1.421875 25.265625 0.953125 
Q 20.953125 3.328125 18.109375 8.203125 
z
M 48.6875 27.296875 
Q 48.6875 37.203125 44.609375 42.84375 
Q 40.53125 48.484375 33.40625 48.484375 
Q 26.265625 48.484375 22.1875 42.84375 
Q 18.109375 37.203125 18.109375 27.296875 
Q 18.109375 17.390625 22.1875 11.75 
Q 26.265625 6.109375 33.40625 6.109375 
Q 40.53125 6.109375 44.609375 11.75 
Q 48.6875 17.390625 48.6875 27.296875 
z
" id="DejaVuSans-112"/>
      <path d="M 54.890625 33.015625 
L 54.890625 0 
L 45.90625 0 
L 45.90625 32.71875 
Q 45.90625 40.484375 42.875 44.328125 
Q 39.84375 48.1875 33.796875 48.1875 
Q 26.515625 48.1875 22.3125 43.546875 
Q 18.109375 38.921875 18.109375 30.90625 
L 18.109375 0 
L 9.078125 0 
L 9.078125 75.984375 
L 18.109375 75.984375 
L 18.109375 46.1875 
Q 21.34375 51.125 25.703125 53.5625 
Q 30.078125 56 35.796875 56 
Q 45.21875 56 50.046875 50.171875 
Q 54.890625 44.34375 54.890625 33.015625 
z
" id="DejaVuSans-104"/>
      <path d="M 56.203125 29.59375 
L 56.203125 25.203125 
L 14.890625 25.203125 
Q 15.484375 15.921875 20.484375 11.0625 
Q 25.484375 6.203125 34.421875 6.203125 
Q 39.59375 6.203125 44.453125 7.46875 
Q 49.3125 8.734375 54.109375 11.28125 
L 54.109375 2.78125 
Q 49.265625 0.734375 44.1875 -0.34375 
Q 39.109375 -1.421875 33.890625 -1.421875 
Q 20.796875 -1.421875 13.15625 6.1875 
Q 5.515625 13.8125 5.515625 26.8125 
Q 5.515625 40.234375 12.765625 48.109375 
Q 20.015625 56 32.328125 56 
Q 43.359375 56 49.78125 48.890625 
Q 56.203125 41.796875 56.203125 29.59375 
z
M 47.21875 32.234375 
Q 47.125 39.59375 43.09375 43.984375 
Q 39.0625 48.390625 32.421875 48.390625 
Q 24.90625 48.390625 20.390625 44.140625 
Q 15.875 39.890625 15.1875 32.171875 
z
" id="DejaVuSans-101"/>
      <path d="M 41.109375 46.296875 
Q 39.59375 47.171875 37.8125 47.578125 
Q 36.03125 48 33.890625 48 
Q 26.265625 48 22.1875 43.046875 
Q 18.109375 38.09375 18.109375 28.8125 
L 18.109375 0 
L 9.078125 0 
L 9.078125 54.6875 
L 18.109375 54.6875 
L 18.109375 46.1875 
Q 20.953125 51.171875 25.484375 53.578125 
Q 30.03125 56 36.53125 56 
Q 37.453125 56 38.578125 55.875 
Q 39.703125 55.765625 41.0625 55.515625 
z
" id="DejaVuSans-114"/>
      <path d="M 9.421875 54.6875 
L 18.40625 54.6875 
L 18.40625 0 
L 9.421875 0 
z
M 9.421875 75.984375 
L 18.40625 75.984375 
L 18.40625 64.59375 
L 9.421875 64.59375 
z
" id="DejaVuSans-105"/>
      <path d="M 48.78125 52.59375 
L 48.78125 44.1875 
Q 44.96875 46.296875 41.140625 47.34375 
Q 37.3125 48.390625 33.40625 48.390625 
Q 24.65625 48.390625 19.8125 42.84375 
Q 14.984375 37.3125 14.984375 27.296875 
Q 14.984375 17.28125 19.8125 11.734375 
Q 24.65625 6.203125 33.40625 6.203125 
Q 37.3125 6.203125 41.140625 7.25 
Q 44.96875 8.296875 48.78125 10.40625 
L 48.78125 2.09375 
Q 45.015625 0.34375 40.984375 -0.53125 
Q 36.96875 -1.421875 32.421875 -1.421875 
Q 20.0625 -1.421875 12.78125 6.34375 
Q 5.515625 14.109375 5.515625 27.296875 
Q 5.515625 40.671875 12.859375 48.328125 
Q 20.21875 56 33.015625 56 
Q 37.15625 56 41.109375 55.140625 
Q 45.0625 54.296875 48.78125 52.59375 
z
" id="DejaVuSans-99"/>
      <path id="DejaVuSans-32"/>
      <path d="M 54.890625 33.015625 
L 54.890625 0 
L 45.90625 0 
L 45.90625 32.71875 
Q 45.90625 40.484375 42.875 44.328125 
Q 39.84375 48.1875 33.796875 48.1875 
Q 26.515625 48.1875 22.3125 43.546875 
Q 18.109375 38.921875 18.109375 30.90625 
L 18.109375 0 
L 9.078125 0 
L 9.078125 54.6875 
L 18.109375 54.6875 
L 18.109375 46.1875 
Q 21.34375 51.125 25.703125 53.5625 
Q 30.078125 56 35.796875 56 
Q 45.21875 56 50.046875 50.171875 
Q 54.890625 44.34375 54.890625 33.015625 
z
" id="DejaVuSans-110"/>
      <path d="M 31 75.875 
Q 24.46875 64.65625 21.28125 53.65625 
Q 18.109375 42.671875 18.109375 31.390625 
Q 18.109375 20.125 21.3125 9.0625 
Q 24.515625 -2 31 -13.1875 
L 23.1875 -13.1875 
Q 15.875 -1.703125 12.234375 9.375 
Q 8.59375 20.453125 8.59375 31.390625 
Q 8.59375 42.28125 12.203125 53.3125 
Q 15.828125 64.359375 23.1875 75.875 
z
" id="DejaVuSans-40"/>
      <path d="M 8.015625 75.875 
L 15.828125 75.875 
Q 23.140625 64.359375 26.78125 53.3125 
Q 30.421875 42.28125 30.421875 31.390625 
Q 30.421875 20.453125 26.78125 9.375 
Q 23.140625 -1.703125 15.828125 -13.1875 
L 8.015625 -13.1875 
Q 14.5 -2 17.703125 9.0625 
Q 20.90625 20.125 20.90625 31.390625 
Q 20.90625 42.671875 17.703125 53.65625 
Q 14.5 64.65625 8.015625 75.875 
z
" id="DejaVuSans-41"/>
     </defs>
     <g transform="translate(129.418294 346.476562)scale(0.1 -0.1)">
      <use xlink:href="#DejaVuSans-97"/>
      <use x="61.279297" xlink:href="#DejaVuSans-116"/>
      <use x="100.488281" xlink:href="#DejaVuSans-109"/>
      <use x="197.900391" xlink:href="#DejaVuSans-111"/>
      <use x="259.082031" xlink:href="#DejaVuSans-115"/>
      <use x="311.181641" xlink:href="#DejaVuSans-112"/>
      <use x="374.658203" xlink:href="#DejaVuSans-104"/>
      <use x="438.037109" xlink:href="#DejaVuSans-101"/>
      <use x="499.560547" xlink:href="#DejaVuSans-114"/>
      <use x="540.673828" xlink:href="#DejaVuSans-105"/>
      <use x="568.457031" xlink:href="#DejaVuSans-99"/>
      <use x="623.4375" xlink:href="#DejaVuSans-32"/>
      <use x="655.224609" xlink:href="#DejaVuSans-99"/>
      <use x="710.205078" xlink:href="#DejaVuSans-111"/>
      <use x="771.386719" xlink:href="#DejaVuSans-110"/>
      <use x="834.765625" xlink:href="#DejaVuSans-99"/>
      <use x="889.746094" xlink:href="#DejaVuSans-101"/>
      <use x="951.269531" xlink:href="#DejaVuSans-110"/>
      <use x="1014.648438" xlink:href="#DejaVuSans-116"/>
      <use x="1053.857422" xlink:href="#DejaVuSans-114"/>
      <use x="1094.970703" xlink:href="#DejaVuSans-97"/>
      <use x="1156.25" xlink:href="#DejaVuSans-116"/>
      <use x="1195.458984" xlink:href="#DejaVuSans-105"/>
      <use x="1223.242188" xlink:href="#DejaVuSans-111"/>
      <use x="1284.423828" xlink:href="#DejaVuSans-110"/>
      <use x="1347.802734" xlink:href="#DejaVuSans-32"/>
      <use x="1379.589844" xlink:href="#DejaVuSans-40"/>
      <use x="1418.603516" xlink:href="#DejaVuSans-112"/>
      <use x="1482.080078" xlink:href="#DejaVuSans-112"/>
      <use x="1545.556641" xlink:href="#DejaVuSans-109"/>
      <use x="1642.96875" xlink:href="#DejaVuSans-41"/>
     </g>
    </g>
   </g>
   <g id="matplotlib.axis_2">
    <g id="ytick_1">
     <g id="line2d_9">
      <defs>
       <path d="M 0 0 
L -3.5 0 
" id="mfb5bcca3a1" style="stroke:#000000;stroke-width:0.8;"/>
      </defs>
      <g>
       <use style="stroke:#000000;stroke-width:0.8;" x="46.55" xlink:href="#mfb5bcca3a1" y="284.375217"/>
      </g>
     </g>
     <g id="text_10">
      <!-- −1 -->
      <defs>
       <path d="M 10.59375 35.5 
L 73.1875 35.5 
L 73.1875 27.203125 
L 10.59375 27.203125 
z
" id="DejaVuSans-8722"/>
      </defs>
      <g transform="translate(24.807813 288.174436)scale(0.1 -0.1)">
       <use xlink:href="#DejaVuSans-8722"/>
       <use x="83.789062" xlink:href="#DejaVuSans-49"/>
      </g>
     </g>
    </g>
    <g id="ytick_2">
     <g id="line2d_10">
      <g>
       <use style="stroke:#000000;stroke-width:0.8;" x="46.55" xlink:href="#mfb5bcca3a1" y="234.959856"/>
      </g>
     </g>
     <g id="text_11">
      <!-- 0 -->
      <g transform="translate(33.1875 238.759075)scale(0.1 -0.1)">
       <use xlink:href="#DejaVuSans-48"/>
      </g>
     </g>
    </g>
    <g id="ytick_3">
     <g id="line2d_11">
      <g>
       <use style="stroke:#000000;stroke-width:0.8;" x="46.55" xlink:href="#mfb5bcca3a1" y="185.544496"/>
      </g>
     </g>
     <g id="text_12">
      <!-- 1 -->
      <g transform="translate(33.1875 189.343714)scale(0.1 -0.1)">
       <use xlink:href="#DejaVuSans-49"/>
      </g>
     </g>
    </g>
    <g id="ytick_4">
     <g id="line2d_12">
      <g>
       <use style="stroke:#000000;stroke-width:0.8;" x="46.55" xlink:href="#mfb5bcca3a1" y="136.129135"/>
      </g>
     </g>
     <g id="text_13">
      <!-- 2 -->
      <g transform="translate(33.1875 139.928353)scale(0.1 -0.1)">
       <use xlink:href="#DejaVuSans-50"/>
      </g>
     </g>
    </g>
    <g id="ytick_5">
     <g id="line2d_13">
      <g>
       <use style="stroke:#000000;stroke-width:0.8;" x="46.55" xlink:href="#mfb5bcca3a1" y="86.713774"/>
      </g>
     </g>
     <g id="text_14">
      <!-- 3 -->
      <defs>
       <path d="M 40.578125 39.3125 
Q 47.65625 37.796875 51.625 33 
Q 55.609375 28.21875 55.609375 21.1875 
Q 55.609375 10.40625 48.1875 4.484375 
Q 40.765625 -1.421875 27.09375 -1.421875 
Q 22.515625 -1.421875 17.65625 -0.515625 
Q 12.796875 0.390625 7.625 2.203125 
L 7.625 11.71875 
Q 11.71875 9.328125 16.59375 8.109375 
Q 21.484375 6.890625 26.8125 6.890625 
Q 36.078125 6.890625 40.9375 10.546875 
Q 45.796875 14.203125 45.796875 21.1875 
Q 45.796875 27.640625 41.28125 31.265625 
Q 36.765625 34.90625 28.71875 34.90625 
L 20.21875 34.90625 
L 20.21875 43.015625 
L 29.109375 43.015625 
Q 36.375 43.015625 40.234375 45.921875 
Q 44.09375 48.828125 44.09375 54.296875 
Q 44.09375 59.90625 40.109375 62.90625 
Q 36.140625 65.921875 28.71875 65.921875 
Q 24.65625 65.921875 20.015625 65.03125 
Q 15.375 64.15625 9.8125 62.3125 
L 9.8125 71.09375 
Q 15.4375 72.65625 20.34375 73.4375 
Q 25.25 74.21875 29.59375 74.21875 
Q 40.828125 74.21875 47.359375 69.109375 
Q 53.90625 64.015625 53.90625 55.328125 
Q 53.90625 49.265625 50.4375 45.09375 
Q 46.96875 40.921875 40.578125 39.3125 
z
" id="DejaVuSans-51"/>
      </defs>
      <g transform="translate(33.1875 90.512993)scale(0.1 -0.1)">
       <use xlink:href="#DejaVuSans-51"/>
      </g>
     </g>
    </g>
    <g id="ytick_6">
     <g id="line2d_14">
      <g>
       <use style="stroke:#000000;stroke-width:0.8;" x="46.55" xlink:href="#mfb5bcca3a1" y="37.298413"/>
      </g>
     </g>
     <g id="text_15">
      <!-- 4 -->
      <g transform="translate(33.1875 41.097632)scale(0.1 -0.1)">
       <use xlink:href="#DejaVuSans-52"/>
      </g>
     </g>
    </g>
    <g id="text_16">
     <!-- % deviation from Etminan -->
     <defs>
      <path d="M 72.703125 32.078125 
Q 68.453125 32.078125 66.03125 28.46875 
Q 63.625 24.859375 63.625 18.40625 
Q 63.625 12.0625 66.03125 8.421875 
Q 68.453125 4.78125 72.703125 4.78125 
Q 76.859375 4.78125 79.265625 8.421875 
Q 81.6875 12.0625 81.6875 18.40625 
Q 81.6875 24.8125 79.265625 28.4375 
Q 76.859375 32.078125 72.703125 32.078125 
z
M 72.703125 38.28125 
Q 80.421875 38.28125 84.953125 32.90625 
Q 89.5 27.546875 89.5 18.40625 
Q 89.5 9.28125 84.9375 3.921875 
Q 80.375 -1.421875 72.703125 -1.421875 
Q 64.890625 -1.421875 60.34375 3.921875 
Q 55.8125 9.28125 55.8125 18.40625 
Q 55.8125 27.59375 60.375 32.9375 
Q 64.9375 38.28125 72.703125 38.28125 
z
M 22.3125 68.015625 
Q 18.109375 68.015625 15.6875 64.375 
Q 13.28125 60.75 13.28125 54.390625 
Q 13.28125 47.953125 15.671875 44.328125 
Q 18.0625 40.71875 22.3125 40.71875 
Q 26.5625 40.71875 28.96875 44.328125 
Q 31.390625 47.953125 31.390625 54.390625 
Q 31.390625 60.6875 28.953125 64.34375 
Q 26.515625 68.015625 22.3125 68.015625 
z
M 66.40625 74.21875 
L 74.21875 74.21875 
L 28.609375 -1.421875 
L 20.796875 -1.421875 
z
M 22.3125 74.21875 
Q 30.03125 74.21875 34.609375 68.875 
Q 39.203125 63.53125 39.203125 54.390625 
Q 39.203125 45.171875 34.640625 39.84375 
Q 30.078125 34.515625 22.3125 34.515625 
Q 14.546875 34.515625 10.03125 39.859375 
Q 5.515625 45.21875 5.515625 54.390625 
Q 5.515625 63.484375 10.046875 68.84375 
Q 14.59375 74.21875 22.3125 74.21875 
z
" id="DejaVuSans-37"/>
      <path d="M 45.40625 46.390625 
L 45.40625 75.984375 
L 54.390625 75.984375 
L 54.390625 0 
L 45.40625 0 
L 45.40625 8.203125 
Q 42.578125 3.328125 38.25 0.953125 
Q 33.9375 -1.421875 27.875 -1.421875 
Q 17.96875 -1.421875 11.734375 6.484375 
Q 5.515625 14.40625 5.515625 27.296875 
Q 5.515625 40.1875 11.734375 48.09375 
Q 17.96875 56 27.875 56 
Q 33.9375 56 38.25 53.625 
Q 42.578125 51.265625 45.40625 46.390625 
z
M 14.796875 27.296875 
Q 14.796875 17.390625 18.875 11.75 
Q 22.953125 6.109375 30.078125 6.109375 
Q 37.203125 6.109375 41.296875 11.75 
Q 45.40625 17.390625 45.40625 27.296875 
Q 45.40625 37.203125 41.296875 42.84375 
Q 37.203125 48.484375 30.078125 48.484375 
Q 22.953125 48.484375 18.875 42.84375 
Q 14.796875 37.203125 14.796875 27.296875 
z
" id="DejaVuSans-100"/>
      <path d="M 2.984375 54.6875 
L 12.5 54.6875 
L 29.59375 8.796875 
L 46.6875 54.6875 
L 56.203125 54.6875 
L 35.6875 0 
L 23.484375 0 
z
" id="DejaVuSans-118"/>
      <path d="M 37.109375 75.984375 
L 37.109375 68.5 
L 28.515625 68.5 
Q 23.6875 68.5 21.796875 66.546875 
Q 19.921875 64.59375 19.921875 59.515625 
L 19.921875 54.6875 
L 34.71875 54.6875 
L 34.71875 47.703125 
L 19.921875 47.703125 
L 19.921875 0 
L 10.890625 0 
L 10.890625 47.703125 
L 2.296875 47.703125 
L 2.296875 54.6875 
L 10.890625 54.6875 
L 10.890625 58.5 
Q 10.890625 67.625 15.140625 71.796875 
Q 19.390625 75.984375 28.609375 75.984375 
z
" id="DejaVuSans-102"/>
      <path d="M 9.8125 72.90625 
L 55.90625 72.90625 
L 55.90625 64.59375 
L 19.671875 64.59375 
L 19.671875 43.015625 
L 54.390625 43.015625 
L 54.390625 34.71875 
L 19.671875 34.71875 
L 19.671875 8.296875 
L 56.78125 8.296875 
L 56.78125 0 
L 9.8125 0 
z
" id="DejaVuSans-69"/>
     </defs>
     <g transform="translate(18.728125 237.782813)rotate(-90)scale(0.1 -0.1)">
      <use xlink:href="#DejaVuSans-37"/>
      <use x="95.019531" xlink:href="#DejaVuSans-32"/>
      <use x="126.806641" xlink:href="#DejaVuSans-100"/>
      <use x="190.283203" xlink:href="#DejaVuSans-101"/>
      <use x="251.806641" xlink:href="#DejaVuSans-118"/>
      <use x="310.986328" xlink:href="#DejaVuSans-105"/>
      <use x="338.769531" xlink:href="#DejaVuSans-97"/>
      <use x="400.048828" xlink:href="#DejaVuSans-116"/>
      <use x="439.257812" xlink:href="#DejaVuSans-105"/>
      <use x="467.041016" xlink:href="#DejaVuSans-111"/>
      <use x="528.222656" xlink:href="#DejaVuSans-110"/>
      <use x="591.601562" xlink:href="#DejaVuSans-32"/>
      <use x="623.388672" xlink:href="#DejaVuSans-102"/>
      <use x="658.59375" xlink:href="#DejaVuSans-114"/>
      <use x="699.675781" xlink:href="#DejaVuSans-111"/>
      <use x="760.857422" xlink:href="#DejaVuSans-109"/>
      <use x="858.269531" xlink:href="#DejaVuSans-32"/>
      <use x="890.056641" xlink:href="#DejaVuSans-69"/>
      <use x="953.240234" xlink:href="#DejaVuSans-116"/>
      <use x="992.449219" xlink:href="#DejaVuSans-109"/>
      <use x="1089.861328" xlink:href="#DejaVuSans-105"/>
      <use x="1117.644531" xlink:href="#DejaVuSans-110"/>
      <use x="1181.023438" xlink:href="#DejaVuSans-97"/>
      <use x="1242.302734" xlink:href="#DejaVuSans-110"/>
     </g>
    </g>
   </g>
   <g id="line2d_15">
    <path clip-path="url(#pa6495e88e3)" d="M 120.781845 40.045455 
L 123.192038 46.478377 
L 126.319354 54.695387 
L 130.250533 64.367491 
L 133.880662 73.193015 
L 135.382199 76.740827 
L 137.312214 81.209554 
L 150.189242 110.497943 
L 154.460533 119.588121 
L 155.750202 121.942387 
L 155.761114 121.947818 
L 155.742168 121.858519 
L 154.975384 120.053931 
L 146.499049 100.674874 
L 146.499049 100.674874 
" style="fill:none;stroke:#0000ff;stroke-linecap:square;stroke-width:1.5;"/>
   </g>
   <g id="line2d_16">
    <path clip-path="url(#pa6495e88e3)" d="M 120.781845 40.045455 
L 123.192038 46.478377 
L 126.319354 54.695387 
L 130.250533 64.367491 
L 133.880662 73.193015 
L 135.382199 76.740827 
L 137.312214 81.209554 
L 149.044944 107.871613 
L 155.204575 121.058495 
L 161.267363 133.509401 
L 167.121779 145.035858 
L 171.975206 154.122528 
L 174.532683 158.509724 
L 175.010531 159.11868 
L 176.662883 161.765613 
L 177.1273 162.370436 
L 177.107988 162.256731 
L 177.092261 162.066443 
L 177.042468 161.954664 
L 177.042468 161.954664 
" style="fill:none;stroke:#daa520;stroke-linecap:square;stroke-width:1.5;"/>
   </g>
   <g id="line2d_17">
    <path clip-path="url(#pa6495e88e3)" d="M 120.781845 40.045455 
L 123.192038 46.478377 
L 126.319354 54.695387 
L 130.250533 64.367491 
L 133.880662 73.193015 
L 135.382199 76.740827 
L 137.312214 81.209554 
L 148.253218 106.064714 
L 153.229562 116.691358 
L 159.586237 129.638719 
L 165.817513 141.82508 
L 171.748095 152.95757 
L 177.601787 163.499648 
L 183.147603 173.094129 
L 188.927879 182.67936 
L 194.378677 191.294886 
L 199.673788 199.218622 
L 205.360544 207.346162 
L 210.879245 214.86969 
L 216.680379 222.397808 
L 221.439406 228.33098 
L 221.439406 228.33098 
" style="fill:none;stroke:#808080;stroke-linecap:square;stroke-width:1.5;"/>
   </g>
   <g id="line2d_18">
    <path clip-path="url(#pa6495e88e3)" d="M 120.781845 40.045455 
L 123.192038 46.478377 
L 126.319354 54.695387 
L 130.250533 64.367491 
L 133.880662 73.193015 
L 135.382199 76.740827 
L 137.312214 81.209554 
L 148.789731 107.309498 
L 154.077854 118.635295 
L 159.416652 129.616955 
L 165.675844 141.971496 
L 171.872107 153.680018 
L 177.757491 164.355952 
L 184.239672 175.605428 
L 189.905375 185.011642 
L 195.952777 194.613795 
L 202.249928 204.131528 
L 208.888343 213.652412 
L 214.009606 220.63683 
L 219.214692 227.416643 
L 224.549888 234.041464 
L 230.012607 240.488614 
L 235.546493 246.673857 
L 241.14966 252.587559 
L 246.87803 258.280885 
L 252.686081 263.694914 
L 258.535319 268.785465 
L 264.439719 273.5621 
L 270.431884 278.050667 
L 276.471741 282.212489 
L 282.51826 286.016092 
L 288.620487 289.493306 
L 294.802633 292.650524 
L 298.940226 294.558214 
L 303.079391 296.30244 
L 307.221868 297.884692 
L 311.40816 299.320464 
L 315.627265 300.601709 
L 319.87124 301.723005 
L 324.1153 302.676006 
L 328.35182 303.4599 
L 332.617988 304.082563 
L 336.924849 304.542515 
L 341.259044 304.834329 
L 345.603836 304.954545 
L 349.945846 304.902386 
L 354.286284 304.678688 
L 358.667266 304.280995 
L 363.086732 303.705088 
L 365.30616 303.349617 
L 365.30616 303.349617 
" style="fill:none;stroke:#ff0000;stroke-linecap:square;stroke-width:1.5;"/>
   </g>
   <g id="line2d_19">
    <path clip-path="url(#pa6495e88e3)" d="M 61.728865 234.959856 
" style="fill:none;stroke:#0000ff;stroke-linecap:square;stroke-width:1.5;"/>
   </g>
   <g id="line2d_20">
    <path clip-path="url(#pa6495e88e3)" d="M 61.728865 234.959856 
" style="fill:none;stroke:#daa520;stroke-linecap:square;stroke-width:1.5;"/>
   </g>
   <g id="line2d_21">
    <path clip-path="url(#pa6495e88e3)" d="M 61.728865 234.959856 
" style="fill:none;stroke:#808080;stroke-linecap:square;stroke-width:1.5;"/>
   </g>
   <g id="line2d_22">
    <path clip-path="url(#pa6495e88e3)" d="M 61.728865 234.959856 
" style="fill:none;stroke:#ff0000;stroke-linecap:square;stroke-width:1.5;"/>
   </g>
   <g id="patch_3">
    <path d="M 46.55 318.2 
L 46.55 26.8 
" style="fill:none;stroke:#000000;stroke-linecap:square;stroke-linejoin:miter;stroke-width:0.8;"/>
   </g>
   <g id="patch_4">
    <path d="M 380.485025 318.2 
L 380.485025 26.8 
" style="fill:none;stroke:#000000;stroke-linecap:square;stroke-linejoin:miter;stroke-width:0.8;"/>
   </g>
   <g id="patch_5">
    <path d="M 46.55 318.2 
L 380.485025 318.2 
" style="fill:none;stroke:#000000;stroke-linecap:square;stroke-linejoin:miter;stroke-width:0.8;"/>
   </g>
   <g id="patch_6">
    <path d="M 46.55 26.8 
L 380.485025 26.8 
" style="fill:none;stroke:#000000;stroke-linecap:square;stroke-linejoin:miter;stroke-width:0.8;"/>
   </g>
   <g id="text_17">
    <!-- CO2 -->
    <defs>
     <path d="M 64.40625 67.28125 
L 64.40625 56.890625 
Q 59.421875 61.53125 53.78125 63.8125 
Q 48.140625 66.109375 41.796875 66.109375 
Q 29.296875 66.109375 22.65625 58.46875 
Q 16.015625 50.828125 16.015625 36.375 
Q 16.015625 21.96875 22.65625 14.328125 
Q 29.296875 6.6875 41.796875 6.6875 
Q 48.140625 6.6875 53.78125 8.984375 
Q 59.421875 11.28125 64.40625 15.921875 
L 64.40625 5.609375 
Q 59.234375 2.09375 53.4375 0.328125 
Q 47.65625 -1.421875 41.21875 -1.421875 
Q 24.65625 -1.421875 15.125 8.703125 
Q 5.609375 18.84375 5.609375 36.375 
Q 5.609375 53.953125 15.125 64.078125 
Q 24.65625 74.21875 41.21875 74.21875 
Q 47.75 74.21875 53.53125 72.484375 
Q 59.328125 70.75 64.40625 67.28125 
z
" id="DejaVuSans-67"/>
     <path d="M 39.40625 66.21875 
Q 28.65625 66.21875 22.328125 58.203125 
Q 16.015625 50.203125 16.015625 36.375 
Q 16.015625 22.609375 22.328125 14.59375 
Q 28.65625 6.59375 39.40625 6.59375 
Q 50.140625 6.59375 56.421875 14.59375 
Q 62.703125 22.609375 62.703125 36.375 
Q 62.703125 50.203125 56.421875 58.203125 
Q 50.140625 66.21875 39.40625 66.21875 
z
M 39.40625 74.21875 
Q 54.734375 74.21875 63.90625 63.9375 
Q 73.09375 53.65625 73.09375 36.375 
Q 73.09375 19.140625 63.90625 8.859375 
Q 54.734375 -1.421875 39.40625 -1.421875 
Q 24.03125 -1.421875 14.8125 8.828125 
Q 5.609375 19.09375 5.609375 36.375 
Q 5.609375 53.65625 14.8125 63.9375 
Q 24.03125 74.21875 39.40625 74.21875 
z
" id="DejaVuSans-79"/>
    </defs>
    <g transform="translate(200.7872 20.8)scale(0.12 -0.12)">
     <use xlink:href="#DejaVuSans-67"/>
     <use x="69.824219" xlink:href="#DejaVuSans-79"/>
     <use x="148.535156" xlink:href="#DejaVuSans-50"/>
    </g>
   </g>
   <g id="legend_1">
    <g id="line2d_23">
     <path d="M 55.55 39.898438 
L 75.55 39.898438 
" style="fill:none;stroke:#0000ff;stroke-linecap:square;stroke-width:1.5;"/>
    </g>
    <g id="line2d_24"/>
    <g id="text_18">
     <!-- RCP3PD -->
     <defs>
      <path d="M 44.390625 34.1875 
Q 47.5625 33.109375 50.5625 29.59375 
Q 53.5625 26.078125 56.59375 19.921875 
L 66.609375 0 
L 56 0 
L 46.6875 18.703125 
Q 43.0625 26.03125 39.671875 28.421875 
Q 36.28125 30.8125 30.421875 30.8125 
L 19.671875 30.8125 
L 19.671875 0 
L 9.8125 0 
L 9.8125 72.90625 
L 32.078125 72.90625 
Q 44.578125 72.90625 50.734375 67.671875 
Q 56.890625 62.453125 56.890625 51.90625 
Q 56.890625 45.015625 53.6875 40.46875 
Q 50.484375 35.9375 44.390625 34.1875 
z
M 19.671875 64.796875 
L 19.671875 38.921875 
L 32.078125 38.921875 
Q 39.203125 38.921875 42.84375 42.21875 
Q 46.484375 45.515625 46.484375 51.90625 
Q 46.484375 58.296875 42.84375 61.546875 
Q 39.203125 64.796875 32.078125 64.796875 
z
" id="DejaVuSans-82"/>
      <path d="M 19.671875 64.796875 
L 19.671875 37.40625 
L 32.078125 37.40625 
Q 38.96875 37.40625 42.71875 40.96875 
Q 46.484375 44.53125 46.484375 51.125 
Q 46.484375 57.671875 42.71875 61.234375 
Q 38.96875 64.796875 32.078125 64.796875 
z
M 9.8125 72.90625 
L 32.078125 72.90625 
Q 44.34375 72.90625 50.609375 67.359375 
Q 56.890625 61.8125 56.890625 51.125 
Q 56.890625 40.328125 50.609375 34.8125 
Q 44.34375 29.296875 32.078125 29.296875 
L 19.671875 29.296875 
L 19.671875 0 
L 9.8125 0 
z
" id="DejaVuSans-80"/>
      <path d="M 19.671875 64.796875 
L 19.671875 8.109375 
L 31.59375 8.109375 
Q 46.6875 8.109375 53.6875 14.9375 
Q 60.6875 21.78125 60.6875 36.53125 
Q 60.6875 51.171875 53.6875 57.984375 
Q 46.6875 64.796875 31.59375 64.796875 
z
M 9.8125 72.90625 
L 30.078125 72.90625 
Q 51.265625 72.90625 61.171875 64.09375 
Q 71.09375 55.28125 71.09375 36.53125 
Q 71.09375 17.671875 61.125 8.828125 
Q 51.171875 0 30.078125 0 
L 9.8125 0 
z
" id="DejaVuSans-68"/>
     </defs>
     <g transform="translate(83.55 43.398438)scale(0.1 -0.1)">
      <use xlink:href="#DejaVuSans-82"/>
      <use x="69.404297" xlink:href="#DejaVuSans-67"/>
      <use x="139.228516" xlink:href="#DejaVuSans-80"/>
      <use x="199.53125" xlink:href="#DejaVuSans-51"/>
      <use x="263.154297" xlink:href="#DejaVuSans-80"/>
      <use x="323.457031" xlink:href="#DejaVuSans-68"/>
     </g>
    </g>
    <g id="line2d_25">
     <path d="M 55.55 54.576563 
L 75.55 54.576563 
" style="fill:none;stroke:#daa520;stroke-linecap:square;stroke-width:1.5;"/>
    </g>
    <g id="line2d_26"/>
    <g id="text_19">
     <!-- RCP45 -->
     <defs>
      <path d="M 10.796875 72.90625 
L 49.515625 72.90625 
L 49.515625 64.59375 
L 19.828125 64.59375 
L 19.828125 46.734375 
Q 21.96875 47.46875 24.109375 47.828125 
Q 26.265625 48.1875 28.421875 48.1875 
Q 40.625 48.1875 47.75 41.5 
Q 54.890625 34.8125 54.890625 23.390625 
Q 54.890625 11.625 47.5625 5.09375 
Q 40.234375 -1.421875 26.90625 -1.421875 
Q 22.3125 -1.421875 17.546875 -0.640625 
Q 12.796875 0.140625 7.71875 1.703125 
L 7.71875 11.625 
Q 12.109375 9.234375 16.796875 8.0625 
Q 21.484375 6.890625 26.703125 6.890625 
Q 35.15625 6.890625 40.078125 11.328125 
Q 45.015625 15.765625 45.015625 23.390625 
Q 45.015625 31 40.078125 35.4375 
Q 35.15625 39.890625 26.703125 39.890625 
Q 22.75 39.890625 18.8125 39.015625 
Q 14.890625 38.140625 10.796875 36.28125 
z
" id="DejaVuSans-53"/>
     </defs>
     <g transform="translate(83.55 58.076563)scale(0.1 -0.1)">
      <use xlink:href="#DejaVuSans-82"/>
      <use x="69.404297" xlink:href="#DejaVuSans-67"/>
      <use x="139.228516" xlink:href="#DejaVuSans-80"/>
      <use x="199.53125" xlink:href="#DejaVuSans-52"/>
      <use x="263.154297" xlink:href="#DejaVuSans-53"/>
     </g>
    </g>
    <g id="line2d_27">
     <path d="M 55.55 69.254688 
L 75.55 69.254688 
" style="fill:none;stroke:#808080;stroke-linecap:square;stroke-width:1.5;"/>
    </g>
    <g id="line2d_28"/>
    <g id="text_20">
     <!-- RCP6 -->
     <g transform="translate(83.55 72.754688)scale(0.1 -0.1)">
      <use xlink:href="#DejaVuSans-82"/>
      <use x="69.404297" xlink:href="#DejaVuSans-67"/>
      <use x="139.228516" xlink:href="#DejaVuSans-80"/>
      <use x="199.53125" xlink:href="#DejaVuSans-54"/>
     </g>
    </g>
    <g id="line2d_29">
     <path d="M 55.55 83.932813 
L 75.55 83.932813 
" style="fill:none;stroke:#ff0000;stroke-linecap:square;stroke-width:1.5;"/>
    </g>
    <g id="line2d_30"/>
    <g id="text_21">
     <!-- RCP85 -->
     <g transform="translate(83.55 87.432813)scale(0.1 -0.1)">
      <use xlink:href="#DejaVuSans-82"/>
      <use x="69.404297" xlink:href="#DejaVuSans-67"/>
      <use x="139.228516" xlink:href="#DejaVuSans-80"/>
      <use x="199.53125" xlink:href="#DejaVuSans-56"/>
      <use x="263.154297" xlink:href="#DejaVuSans-53"/>
     </g>
    </g>
   </g>
  </g>
  <g id="axes_2">
   <g id="patch_7">
    <path d="M 422.660025 318.2 
L 756.595049 318.2 
L 756.595049 26.8 
L 422.660025 26.8 
z
" style="fill:#ffffff;"/>
   </g>
   <g id="matplotlib.axis_3">
    <g id="xtick_9">
     <g id="line2d_31">
      <g>
       <use style="stroke:#000000;stroke-width:0.8;" x="465.391224" xlink:href="#m0c0a60eaca" y="318.2"/>
      </g>
     </g>
     <g id="text_22">
      <!-- 1000 -->
      <g transform="translate(452.666224 332.798438)scale(0.1 -0.1)">
       <use xlink:href="#DejaVuSans-49"/>
       <use x="63.623047" xlink:href="#DejaVuSans-48"/>
       <use x="127.246094" xlink:href="#DejaVuSans-48"/>
       <use x="190.869141" xlink:href="#DejaVuSans-48"/>
      </g>
     </g>
    </g>
    <g id="xtick_10">
     <g id="line2d_32">
      <g>
       <use style="stroke:#000000;stroke-width:0.8;" x="514.926913" xlink:href="#m0c0a60eaca" y="318.2"/>
      </g>
     </g>
     <g id="text_23">
      <!-- 1500 -->
      <g transform="translate(502.201913 332.798438)scale(0.1 -0.1)">
       <use xlink:href="#DejaVuSans-49"/>
       <use x="63.623047" xlink:href="#DejaVuSans-53"/>
       <use x="127.246094" xlink:href="#DejaVuSans-48"/>
       <use x="190.869141" xlink:href="#DejaVuSans-48"/>
      </g>
     </g>
    </g>
    <g id="xtick_11">
     <g id="line2d_33">
      <g>
       <use style="stroke:#000000;stroke-width:0.8;" x="564.462603" xlink:href="#m0c0a60eaca" y="318.2"/>
      </g>
     </g>
     <g id="text_24">
      <!-- 2000 -->
      <g transform="translate(551.737603 332.798438)scale(0.1 -0.1)">
       <use xlink:href="#DejaVuSans-50"/>
       <use x="63.623047" xlink:href="#DejaVuSans-48"/>
       <use x="127.246094" xlink:href="#DejaVuSans-48"/>
       <use x="190.869141" xlink:href="#DejaVuSans-48"/>
      </g>
     </g>
    </g>
    <g id="xtick_12">
     <g id="line2d_34">
      <g>
       <use style="stroke:#000000;stroke-width:0.8;" x="613.998293" xlink:href="#m0c0a60eaca" y="318.2"/>
      </g>
     </g>
     <g id="text_25">
      <!-- 2500 -->
      <g transform="translate(601.273293 332.798438)scale(0.1 -0.1)">
       <use xlink:href="#DejaVuSans-50"/>
       <use x="63.623047" xlink:href="#DejaVuSans-53"/>
       <use x="127.246094" xlink:href="#DejaVuSans-48"/>
       <use x="190.869141" xlink:href="#DejaVuSans-48"/>
      </g>
     </g>
    </g>
    <g id="xtick_13">
     <g id="line2d_35">
      <g>
       <use style="stroke:#000000;stroke-width:0.8;" x="663.533983" xlink:href="#m0c0a60eaca" y="318.2"/>
      </g>
     </g>
     <g id="text_26">
      <!-- 3000 -->
      <g transform="translate(650.808983 332.798438)scale(0.1 -0.1)">
       <use xlink:href="#DejaVuSans-51"/>
       <use x="63.623047" xlink:href="#DejaVuSans-48"/>
       <use x="127.246094" xlink:href="#DejaVuSans-48"/>
       <use x="190.869141" xlink:href="#DejaVuSans-48"/>
      </g>
     </g>
    </g>
    <g id="xtick_14">
     <g id="line2d_36">
      <g>
       <use style="stroke:#000000;stroke-width:0.8;" x="713.069673" xlink:href="#m0c0a60eaca" y="318.2"/>
      </g>
     </g>
     <g id="text_27">
      <!-- 3500 -->
      <g transform="translate(700.344673 332.798438)scale(0.1 -0.1)">
       <use xlink:href="#DejaVuSans-51"/>
       <use x="63.623047" xlink:href="#DejaVuSans-53"/>
       <use x="127.246094" xlink:href="#DejaVuSans-48"/>
       <use x="190.869141" xlink:href="#DejaVuSans-48"/>
      </g>
     </g>
    </g>
    <g id="text_28">
     <!-- atmospheric concentration (ppb) -->
     <defs>
      <path d="M 48.6875 27.296875 
Q 48.6875 37.203125 44.609375 42.84375 
Q 40.53125 48.484375 33.40625 48.484375 
Q 26.265625 48.484375 22.1875 42.84375 
Q 18.109375 37.203125 18.109375 27.296875 
Q 18.109375 17.390625 22.1875 11.75 
Q 26.265625 6.109375 33.40625 6.109375 
Q 40.53125 6.109375 44.609375 11.75 
Q 48.6875 17.390625 48.6875 27.296875 
z
M 18.109375 46.390625 
Q 20.953125 51.265625 25.265625 53.625 
Q 29.59375 56 35.59375 56 
Q 45.5625 56 51.78125 48.09375 
Q 58.015625 40.1875 58.015625 27.296875 
Q 58.015625 14.40625 51.78125 6.484375 
Q 45.5625 -1.421875 35.59375 -1.421875 
Q 29.59375 -1.421875 25.265625 0.953125 
Q 20.953125 3.328125 18.109375 8.203125 
L 18.109375 0 
L 9.078125 0 
L 9.078125 75.984375 
L 18.109375 75.984375 
z
" id="DejaVuSans-98"/>
     </defs>
     <g transform="translate(507.224412 346.476562)scale(0.1 -0.1)">
      <use xlink:href="#DejaVuSans-97"/>
      <use x="61.279297" xlink:href="#DejaVuSans-116"/>
      <use x="100.488281" xlink:href="#DejaVuSans-109"/>
      <use x="197.900391" xlink:href="#DejaVuSans-111"/>
      <use x="259.082031" xlink:href="#DejaVuSans-115"/>
      <use x="311.181641" xlink:href="#DejaVuSans-112"/>
      <use x="374.658203" xlink:href="#DejaVuSans-104"/>
      <use x="438.037109" xlink:href="#DejaVuSans-101"/>
      <use x="499.560547" xlink:href="#DejaVuSans-114"/>
      <use x="540.673828" xlink:href="#DejaVuSans-105"/>
      <use x="568.457031" xlink:href="#DejaVuSans-99"/>
      <use x="623.4375" xlink:href="#DejaVuSans-32"/>
      <use x="655.224609" xlink:href="#DejaVuSans-99"/>
      <use x="710.205078" xlink:href="#DejaVuSans-111"/>
      <use x="771.386719" xlink:href="#DejaVuSans-110"/>
      <use x="834.765625" xlink:href="#DejaVuSans-99"/>
      <use x="889.746094" xlink:href="#DejaVuSans-101"/>
      <use x="951.269531" xlink:href="#DejaVuSans-110"/>
      <use x="1014.648438" xlink:href="#DejaVuSans-116"/>
      <use x="1053.857422" xlink:href="#DejaVuSans-114"/>
      <use x="1094.970703" xlink:href="#DejaVuSans-97"/>
      <use x="1156.25" xlink:href="#DejaVuSans-116"/>
      <use x="1195.458984" xlink:href="#DejaVuSans-105"/>
      <use x="1223.242188" xlink:href="#DejaVuSans-111"/>
      <use x="1284.423828" xlink:href="#DejaVuSans-110"/>
      <use x="1347.802734" xlink:href="#DejaVuSans-32"/>
      <use x="1379.589844" xlink:href="#DejaVuSans-40"/>
      <use x="1418.603516" xlink:href="#DejaVuSans-112"/>
      <use x="1482.080078" xlink:href="#DejaVuSans-112"/>
      <use x="1545.556641" xlink:href="#DejaVuSans-98"/>
      <use x="1609.033203" xlink:href="#DejaVuSans-41"/>
     </g>
    </g>
   </g>
   <g id="matplotlib.axis_4">
    <g id="ytick_7">
     <g id="line2d_37">
      <g>
       <use style="stroke:#000000;stroke-width:0.8;" x="422.660025" xlink:href="#mfb5bcca3a1" y="296.639946"/>
      </g>
     </g>
     <g id="text_29">
      <!-- −1.0 -->
      <defs>
       <path d="M 10.6875 12.40625 
L 21 12.40625 
L 21 0 
L 10.6875 0 
z
" id="DejaVuSans-46"/>
      </defs>
      <g transform="translate(391.377212 300.439165)scale(0.1 -0.1)">
       <use xlink:href="#DejaVuSans-8722"/>
       <use x="83.789062" xlink:href="#DejaVuSans-49"/>
       <use x="147.412109" xlink:href="#DejaVuSans-46"/>
       <use x="179.199219" xlink:href="#DejaVuSans-48"/>
      </g>
     </g>
    </g>
    <g id="ytick_8">
     <g id="line2d_38">
      <g>
       <use style="stroke:#000000;stroke-width:0.8;" x="422.660025" xlink:href="#mfb5bcca3a1" y="240.163509"/>
      </g>
     </g>
     <g id="text_30">
      <!-- −0.5 -->
      <g transform="translate(391.377212 243.962728)scale(0.1 -0.1)">
       <use xlink:href="#DejaVuSans-8722"/>
       <use x="83.789062" xlink:href="#DejaVuSans-48"/>
       <use x="147.412109" xlink:href="#DejaVuSans-46"/>
       <use x="179.199219" xlink:href="#DejaVuSans-53"/>
      </g>
     </g>
    </g>
    <g id="ytick_9">
     <g id="line2d_39">
      <g>
       <use style="stroke:#000000;stroke-width:0.8;" x="422.660025" xlink:href="#mfb5bcca3a1" y="183.687072"/>
      </g>
     </g>
     <g id="text_31">
      <!-- 0.0 -->
      <g transform="translate(399.7569 187.486291)scale(0.1 -0.1)">
       <use xlink:href="#DejaVuSans-48"/>
       <use x="63.623047" xlink:href="#DejaVuSans-46"/>
       <use x="95.410156" xlink:href="#DejaVuSans-48"/>
      </g>
     </g>
    </g>
    <g id="ytick_10">
     <g id="line2d_40">
      <g>
       <use style="stroke:#000000;stroke-width:0.8;" x="422.660025" xlink:href="#mfb5bcca3a1" y="127.210635"/>
      </g>
     </g>
     <g id="text_32">
      <!-- 0.5 -->
      <g transform="translate(399.7569 131.009853)scale(0.1 -0.1)">
       <use xlink:href="#DejaVuSans-48"/>
       <use x="63.623047" xlink:href="#DejaVuSans-46"/>
       <use x="95.410156" xlink:href="#DejaVuSans-53"/>
      </g>
     </g>
    </g>
    <g id="ytick_11">
     <g id="line2d_41">
      <g>
       <use style="stroke:#000000;stroke-width:0.8;" x="422.660025" xlink:href="#mfb5bcca3a1" y="70.734197"/>
      </g>
     </g>
     <g id="text_33">
      <!-- 1.0 -->
      <g transform="translate(399.7569 74.533416)scale(0.1 -0.1)">
       <use xlink:href="#DejaVuSans-49"/>
       <use x="63.623047" xlink:href="#DejaVuSans-46"/>
       <use x="95.410156" xlink:href="#DejaVuSans-48"/>
      </g>
     </g>
    </g>
   </g>
   <g id="line2d_42">
    <path clip-path="url(#p298cf3a771)" d="M 437.838889 40.045455 
L 441.265908 56.276233 
L 443.644467 66.673365 
L 447.979429 83.966107 
L 452.016587 99.222749 
L 455.063032 110.848177 
L 457.837031 120.87824 
L 461.453136 133.03871 
L 467.27358 150.98181 
L 470.617239 160.85126 
L 475.694647 174.698708 
L 485.42841 198.971847 
L 488.697766 206.765203 
L 493.626567 217.856812 
L 497.688493 226.181643 
L 502.072402 234.631308 
L 506.703989 242.85403 
L 509.874273 248.034104 
L 513.044557 252.898578 
L 519.657572 262.206805 
L 527.182538 271.852169 
L 530.996291 275.945435 
L 532.073197 276.577769 
L 533.103539 276.669617 
L 534.110105 277.100003 
L 535.910232 278.569035 
L 536.822927 278.78326 
L 537.35172 278.767883 
L 537.714321 278.427761 
L 538.190607 278.302498 
L 539.619712 278.658514 
L 539.796059 278.219819 
L 539.764851 277.422817 
L 539.911477 276.745467 
L 540.166338 276.208422 
L 540.196555 275.436293 
L 540.06479 274.382738 
L 540.142016 273.600022 
L 540.456023 273.246028 
L 540.881643 273.05254 
L 541.986061 273.020306 
L 542.621357 273.115476 
L 543.117863 273.016944 
L 543.297875 272.486278 
L 543.190621 271.567496 
L 542.823651 270.298424 
L 541.393961 266.809215 
L 539.150995 262.164723 
L 530.319366 244.71419 
L 526.840296 237.181062 
L 523.07063 228.421741 
L 520.033161 220.850218 
L 513.631664 204.237113 
L 508.260361 191.846024 
L 500.088597 172.882179 
L 496.526772 164.171305 
L 490.377303 148.742872 
L 489.614097 147.361436 
L 489.539704 147.316064 
L 489.518562 147.403512 
L 489.599167 148.577476 
L 489.660492 149.061206 
L 489.660492 149.061206 
" style="fill:none;stroke:#0000ff;stroke-linecap:square;stroke-width:1.5;"/>
   </g>
   <g id="line2d_43">
    <path clip-path="url(#p298cf3a771)" d="M 437.838889 40.045455 
L 441.265908 56.276233 
L 443.644467 66.673365 
L 447.979429 83.966107 
L 452.016587 99.222749 
L 455.063032 110.848177 
L 457.837031 120.87824 
L 461.453136 133.03871 
L 467.27358 150.98181 
L 470.617239 160.85126 
L 475.694647 174.698708 
L 485.42841 198.971847 
L 488.697766 206.765203 
L 493.626567 217.856812 
L 497.688493 226.181643 
L 502.072402 234.631308 
L 506.703989 242.85403 
L 509.874273 248.034104 
L 513.044557 252.898578 
L 519.657572 262.206805 
L 527.182538 271.852169 
L 530.996291 275.945435 
L 532.073197 276.577769 
L 533.103539 276.669617 
L 534.110105 277.100003 
L 535.910232 278.569035 
L 536.822927 278.78326 
L 537.35172 278.767883 
L 537.714321 278.427761 
L 538.190607 278.302498 
L 539.619712 278.658514 
L 539.796059 278.219819 
L 539.764851 277.422817 
L 539.911477 276.745467 
L 540.166338 276.208422 
L 540.196555 275.436293 
L 540.06479 274.382738 
L 540.141986 273.599978 
L 540.724288 272.820924 
L 542.361364 271.080076 
L 544.078132 269.362707 
L 545.470937 267.950306 
L 546.343984 266.623777 
L 547.374633 264.643056 
L 548.042245 262.998252 
L 548.450766 261.030013 
L 548.74585 258.13176 
L 548.833221 255.827222 
L 548.651554 253.239445 
L 548.095665 249.499894 
L 547.301092 245.578785 
L 546.337712 242.219289 
L 544.254915 236.086597 
L 542.238337 230.788073 
L 539.173524 223.481333 
L 535.041544 214.125418 
L 529.225341 201.231827 
L 526.176895 193.649915 
L 523.852571 187.311499 
L 521.121738 179.274493 
L 520.125318 175.416087 
L 519.666488 172.920112 
L 519.052949 168.634452 
L 519.052949 168.634452 
" style="fill:none;stroke:#daa520;stroke-linecap:square;stroke-width:1.5;"/>
   </g>
   <g id="line2d_44">
    <path clip-path="url(#p298cf3a771)" d="M 437.838889 40.045455 
L 441.265908 56.276233 
L 443.644467 66.673365 
L 447.979429 83.966107 
L 452.016587 99.222749 
L 455.063032 110.848177 
L 457.837031 120.87824 
L 461.453136 133.03871 
L 467.27358 150.98181 
L 470.617239 160.85126 
L 475.694647 174.698708 
L 485.42841 198.971847 
L 488.697766 206.765203 
L 493.626567 217.856812 
L 497.688493 226.181643 
L 502.072402 234.631308 
L 506.703989 242.85403 
L 509.874273 248.034104 
L 513.044557 252.898578 
L 519.657572 262.206805 
L 527.182538 271.852169 
L 530.996291 275.945435 
L 532.073197 276.577769 
L 533.103539 276.669617 
L 534.110105 277.100003 
L 535.910232 278.569035 
L 536.822927 278.78326 
L 537.35172 278.767883 
L 537.714321 278.427761 
L 538.190607 278.302498 
L 539.619712 278.658514 
L 539.796059 278.219819 
L 539.764851 277.422817 
L 539.911477 276.745467 
L 540.166338 276.208422 
L 540.196555 275.436293 
L 540.06479 274.382738 
L 540.142363 273.600529 
L 540.766305 272.851186 
L 542.326134 271.589892 
L 542.861823 270.610627 
L 543.17258 269.364207 
L 543.291426 267.900712 
L 543.240652 266.251927 
L 543.036525 263.641801 
L 543.141016 262.177293 
L 543.455706 260.949226 
L 543.945475 259.905874 
L 544.57553 258.995846 
L 545.711155 257.771715 
L 547.076458 256.708806 
L 548.675698 255.802598 
L 550.383193 254.881093 
L 551.97424 253.667379 
L 554.560568 251.270295 
L 555.555551 250.163233 
L 556.460598 248.890413 
L 557.679919 246.715889 
L 559.195097 243.51519 
L 559.790476 241.667136 
L 560.217712 239.593444 
L 560.597363 236.130282 
L 560.769886 232.377753 
L 560.591023 229.535827 
L 560.144151 226.390966 
L 559.436296 222.947099 
L 558.032009 217.3812 
L 557.413853 215.348827 
L 555.606315 210.599248 
L 553.135971 205.013238 
L 548.366823 195.148402 
L 540.875303 180.011198 
L 535.744475 168.967406 
L 531.127828 158.429981 
L 527.172146 148.750966 
L 524.257535 140.807515 
L 522.193591 134.450472 
L 520.251752 127.670308 
L 518.982509 122.443578 
L 517.65634 115.788481 
L 516.941005 111.326889 
L 516.082809 106.269404 
L 515.992812 105.977579 
L 515.992812 105.977579 
" style="fill:none;stroke:#808080;stroke-linecap:square;stroke-width:1.5;"/>
   </g>
   <g id="line2d_45">
    <path clip-path="url(#p298cf3a771)" d="M 437.838889 40.045455 
L 441.265908 56.276233 
L 443.644467 66.673365 
L 447.979429 83.966107 
L 452.016587 99.222749 
L 455.063032 110.848177 
L 457.837031 120.87824 
L 461.453136 133.03871 
L 467.27358 150.98181 
L 470.617239 160.85126 
L 475.694647 174.698708 
L 485.42841 198.971847 
L 488.697766 206.765203 
L 493.626567 217.856812 
L 497.688493 226.181643 
L 502.072402 234.631308 
L 506.703989 242.85403 
L 509.874273 248.034104 
L 513.044557 252.898578 
L 519.657572 262.206805 
L 527.182538 271.852169 
L 530.996291 275.945435 
L 532.073197 276.577769 
L 533.103539 276.669617 
L 534.110105 277.100003 
L 535.910232 278.569035 
L 536.822927 278.78326 
L 537.35172 278.767883 
L 537.714321 278.427761 
L 538.190607 278.302498 
L 539.619712 278.658514 
L 539.796059 278.219819 
L 539.764851 277.422817 
L 539.911477 276.745467 
L 540.166338 276.208422 
L 540.196555 275.436293 
L 540.06479 274.382738 
L 540.141768 273.599659 
L 540.491887 273.290619 
L 541.024247 273.228577 
L 541.720025 273.381797 
L 543.462185 274.115691 
L 545.690221 275.389817 
L 551.554455 279.235085 
L 556.900584 282.69269 
L 560.762505 285.011241 
L 564.762056 287.210088 
L 568.900585 289.281621 
L 573.171334 291.207638 
L 577.541363 292.945945 
L 584.431807 295.324646 
L 592.259407 297.821534 
L 597.972913 299.446246 
L 604.016307 300.935124 
L 610.337249 302.222461 
L 616.893268 303.290689 
L 623.647548 304.105597 
L 630.610919 304.659395 
L 637.773909 304.933045 
L 645.03161 304.872481 
L 648.561365 304.669065 
L 651.998835 304.349689 
L 658.605251 303.395869 
L 664.93723 302.090806 
L 671.076733 300.495089 
L 676.990314 298.630267 
L 679.749481 297.585176 
L 682.370306 296.472935 
L 687.18679 294.069839 
L 691.5108 291.476957 
L 695.468721 288.745127 
L 699.154256 285.906631 
L 702.653605 282.977847 
L 705.979491 279.968844 
L 709.090352 276.886001 
L 713.523024 272.152581 
L 723.894648 260.621253 
L 729.675503 253.720997 
L 732.235022 250.226479 
L 734.451635 246.728728 
L 736.350328 243.236314 
L 737.905342 239.758599 
L 739.196579 236.303114 
L 740.174027 232.915298 
L 740.860602 229.60363 
L 741.282725 226.36837 
L 741.416184 223.212295 
L 741.295416 220.132616 
L 740.881209 215.634941 
L 740.289644 211.272029 
L 739.776097 208.43796 
L 738.735669 204.302042 
L 735.759704 193.81588 
L 733.559368 187.652174 
L 730.237525 178.327252 
L 728.096087 172.825819 
L 727.706607 171.752653 
L 727.706607 171.752653 
" style="fill:none;stroke:#ff0000;stroke-linecap:square;stroke-width:1.5;"/>
   </g>
   <g id="patch_8">
    <path d="M 422.660025 318.2 
L 422.660025 26.8 
" style="fill:none;stroke:#000000;stroke-linecap:square;stroke-linejoin:miter;stroke-width:0.8;"/>
   </g>
   <g id="patch_9">
    <path d="M 756.595049 318.2 
L 756.595049 26.8 
" style="fill:none;stroke:#000000;stroke-linecap:square;stroke-linejoin:miter;stroke-width:0.8;"/>
   </g>
   <g id="patch_10">
    <path d="M 422.660025 318.2 
L 756.595049 318.2 
" style="fill:none;stroke:#000000;stroke-linecap:square;stroke-linejoin:miter;stroke-width:0.8;"/>
   </g>
   <g id="patch_11">
    <path d="M 422.660025 26.8 
L 756.595049 26.8 
" style="fill:none;stroke:#000000;stroke-linecap:square;stroke-linejoin:miter;stroke-width:0.8;"/>
   </g>
   <g id="text_34">
    <!-- CH4 -->
    <defs>
     <path d="M 9.8125 72.90625 
L 19.671875 72.90625 
L 19.671875 43.015625 
L 55.515625 43.015625 
L 55.515625 72.90625 
L 65.375 72.90625 
L 65.375 0 
L 55.515625 0 
L 55.515625 34.71875 
L 19.671875 34.71875 
L 19.671875 0 
L 9.8125 0 
z
" id="DejaVuSans-72"/>
    </defs>
    <g transform="translate(577.108162 20.8)scale(0.12 -0.12)">
     <use xlink:href="#DejaVuSans-67"/>
     <use x="69.824219" xlink:href="#DejaVuSans-72"/>
     <use x="145.019531" xlink:href="#DejaVuSans-52"/>
    </g>
   </g>
  </g>
  <g id="axes_3">
   <g id="patch_12">
    <path d="M 798.770049 318.2 
L 1132.705074 318.2 
L 1132.705074 26.8 
L 798.770049 26.8 
z
" style="fill:#ffffff;"/>
   </g>
   <g id="matplotlib.axis_5">
    <g id="xtick_15">
     <g id="line2d_46">
      <g>
       <use style="stroke:#000000;stroke-width:0.8;" x="851.750909" xlink:href="#m0c0a60eaca" y="318.2"/>
      </g>
     </g>
     <g id="text_35">
      <!-- 300 -->
      <g transform="translate(842.207159 332.798438)scale(0.1 -0.1)">
       <use xlink:href="#DejaVuSans-51"/>
       <use x="63.623047" xlink:href="#DejaVuSans-48"/>
       <use x="127.246094" xlink:href="#DejaVuSans-48"/>
      </g>
     </g>
    </g>
    <g id="xtick_16">
     <g id="line2d_47">
      <g>
       <use style="stroke:#000000;stroke-width:0.8;" x="921.65004" xlink:href="#m0c0a60eaca" y="318.2"/>
      </g>
     </g>
     <g id="text_36">
      <!-- 350 -->
      <g transform="translate(912.10629 332.798438)scale(0.1 -0.1)">
       <use xlink:href="#DejaVuSans-51"/>
       <use x="63.623047" xlink:href="#DejaVuSans-53"/>
       <use x="127.246094" xlink:href="#DejaVuSans-48"/>
      </g>
     </g>
    </g>
    <g id="xtick_17">
     <g id="line2d_48">
      <g>
       <use style="stroke:#000000;stroke-width:0.8;" x="991.549172" xlink:href="#m0c0a60eaca" y="318.2"/>
      </g>
     </g>
     <g id="text_37">
      <!-- 400 -->
      <g transform="translate(982.005422 332.798438)scale(0.1 -0.1)">
       <use xlink:href="#DejaVuSans-52"/>
       <use x="63.623047" xlink:href="#DejaVuSans-48"/>
       <use x="127.246094" xlink:href="#DejaVuSans-48"/>
      </g>
     </g>
    </g>
    <g id="xtick_18">
     <g id="line2d_49">
      <g>
       <use style="stroke:#000000;stroke-width:0.8;" x="1061.448303" xlink:href="#m0c0a60eaca" y="318.2"/>
      </g>
     </g>
     <g id="text_38">
      <!-- 450 -->
      <g transform="translate(1051.904553 332.798438)scale(0.1 -0.1)">
       <use xlink:href="#DejaVuSans-52"/>
       <use x="63.623047" xlink:href="#DejaVuSans-53"/>
       <use x="127.246094" xlink:href="#DejaVuSans-48"/>
      </g>
     </g>
    </g>
    <g id="xtick_19">
     <g id="line2d_50">
      <g>
       <use style="stroke:#000000;stroke-width:0.8;" x="1131.347434" xlink:href="#m0c0a60eaca" y="318.2"/>
      </g>
     </g>
     <g id="text_39">
      <!-- 500 -->
      <g transform="translate(1121.803684 332.798438)scale(0.1 -0.1)">
       <use xlink:href="#DejaVuSans-53"/>
       <use x="63.623047" xlink:href="#DejaVuSans-48"/>
       <use x="127.246094" xlink:href="#DejaVuSans-48"/>
      </g>
     </g>
    </g>
    <g id="text_40">
     <!-- atmospheric concentration (ppb) -->
     <g transform="translate(883.334436 346.476562)scale(0.1 -0.1)">
      <use xlink:href="#DejaVuSans-97"/>
      <use x="61.279297" xlink:href="#DejaVuSans-116"/>
      <use x="100.488281" xlink:href="#DejaVuSans-109"/>
      <use x="197.900391" xlink:href="#DejaVuSans-111"/>
      <use x="259.082031" xlink:href="#DejaVuSans-115"/>
      <use x="311.181641" xlink:href="#DejaVuSans-112"/>
      <use x="374.658203" xlink:href="#DejaVuSans-104"/>
      <use x="438.037109" xlink:href="#DejaVuSans-101"/>
      <use x="499.560547" xlink:href="#DejaVuSans-114"/>
      <use x="540.673828" xlink:href="#DejaVuSans-105"/>
      <use x="568.457031" xlink:href="#DejaVuSans-99"/>
      <use x="623.4375" xlink:href="#DejaVuSans-32"/>
      <use x="655.224609" xlink:href="#DejaVuSans-99"/>
      <use x="710.205078" xlink:href="#DejaVuSans-111"/>
      <use x="771.386719" xlink:href="#DejaVuSans-110"/>
      <use x="834.765625" xlink:href="#DejaVuSans-99"/>
      <use x="889.746094" xlink:href="#DejaVuSans-101"/>
      <use x="951.269531" xlink:href="#DejaVuSans-110"/>
      <use x="1014.648438" xlink:href="#DejaVuSans-116"/>
      <use x="1053.857422" xlink:href="#DejaVuSans-114"/>
      <use x="1094.970703" xlink:href="#DejaVuSans-97"/>
      <use x="1156.25" xlink:href="#DejaVuSans-116"/>
      <use x="1195.458984" xlink:href="#DejaVuSans-105"/>
      <use x="1223.242188" xlink:href="#DejaVuSans-111"/>
      <use x="1284.423828" xlink:href="#DejaVuSans-110"/>
      <use x="1347.802734" xlink:href="#DejaVuSans-32"/>
      <use x="1379.589844" xlink:href="#DejaVuSans-40"/>
      <use x="1418.603516" xlink:href="#DejaVuSans-112"/>
      <use x="1482.080078" xlink:href="#DejaVuSans-112"/>
      <use x="1545.556641" xlink:href="#DejaVuSans-98"/>
      <use x="1609.033203" xlink:href="#DejaVuSans-41"/>
     </g>
    </g>
   </g>
   <g id="matplotlib.axis_6">
    <g id="ytick_12">
     <g id="line2d_51">
      <g>
       <use style="stroke:#000000;stroke-width:0.8;" x="798.770049" xlink:href="#mfb5bcca3a1" y="289.06698"/>
      </g>
     </g>
     <g id="text_41">
      <!-- −6 -->
      <g transform="translate(777.027862 292.866198)scale(0.1 -0.1)">
       <use xlink:href="#DejaVuSans-8722"/>
       <use x="83.789062" xlink:href="#DejaVuSans-54"/>
      </g>
     </g>
    </g>
    <g id="ytick_13">
     <g id="line2d_52">
      <g>
       <use style="stroke:#000000;stroke-width:0.8;" x="798.770049" xlink:href="#mfb5bcca3a1" y="245.741971"/>
      </g>
     </g>
     <g id="text_42">
      <!-- −4 -->
      <g transform="translate(777.027862 249.54119)scale(0.1 -0.1)">
       <use xlink:href="#DejaVuSans-8722"/>
       <use x="83.789062" xlink:href="#DejaVuSans-52"/>
      </g>
     </g>
    </g>
    <g id="ytick_14">
     <g id="line2d_53">
      <g>
       <use style="stroke:#000000;stroke-width:0.8;" x="798.770049" xlink:href="#mfb5bcca3a1" y="202.416962"/>
      </g>
     </g>
     <g id="text_43">
      <!-- −2 -->
      <g transform="translate(777.027862 206.216181)scale(0.1 -0.1)">
       <use xlink:href="#DejaVuSans-8722"/>
       <use x="83.789062" xlink:href="#DejaVuSans-50"/>
      </g>
     </g>
    </g>
    <g id="ytick_15">
     <g id="line2d_54">
      <g>
       <use style="stroke:#000000;stroke-width:0.8;" x="798.770049" xlink:href="#mfb5bcca3a1" y="159.091954"/>
      </g>
     </g>
     <g id="text_44">
      <!-- 0 -->
      <g transform="translate(785.407549 162.891173)scale(0.1 -0.1)">
       <use xlink:href="#DejaVuSans-48"/>
      </g>
     </g>
    </g>
    <g id="ytick_16">
     <g id="line2d_55">
      <g>
       <use style="stroke:#000000;stroke-width:0.8;" x="798.770049" xlink:href="#mfb5bcca3a1" y="115.766945"/>
      </g>
     </g>
     <g id="text_45">
      <!-- 2 -->
      <g transform="translate(785.407549 119.566164)scale(0.1 -0.1)">
       <use xlink:href="#DejaVuSans-50"/>
      </g>
     </g>
    </g>
    <g id="ytick_17">
     <g id="line2d_56">
      <g>
       <use style="stroke:#000000;stroke-width:0.8;" x="798.770049" xlink:href="#mfb5bcca3a1" y="72.441937"/>
      </g>
     </g>
     <g id="text_46">
      <!-- 4 -->
      <g transform="translate(785.407549 76.241156)scale(0.1 -0.1)">
       <use xlink:href="#DejaVuSans-52"/>
      </g>
     </g>
    </g>
    <g id="ytick_18">
     <g id="line2d_57">
      <g>
       <use style="stroke:#000000;stroke-width:0.8;" x="798.770049" xlink:href="#mfb5bcca3a1" y="29.116928"/>
      </g>
     </g>
     <g id="text_47">
      <!-- 6 -->
      <g transform="translate(785.407549 32.916147)scale(0.1 -0.1)">
       <use xlink:href="#DejaVuSans-54"/>
      </g>
     </g>
    </g>
   </g>
   <g id="line2d_58">
    <path clip-path="url(#pf6d51bad78)" d="M 813.948914 304.954545 
L 816.0793 302.255519 
L 816.768561 301.777453 
L 817.3583 301.259814 
L 817.39557 301.006199 
L 818.758519 300.102198 
L 820.575897 298.752493 
L 821.973879 297.411755 
L 822.812669 296.559515 
L 823.406811 295.70381 
L 825.608634 292.581705 
L 827.56581 290.445195 
L 830.012279 287.828573 
L 831.759758 285.644719 
L 833.19269 284.019379 
L 833.99653 283.231154 
L 836.058554 281.350879 
L 836.967243 280.113835 
L 837.945831 278.605166 
L 840.112704 275.015074 
L 840.881594 273.662317 
L 846.473525 266.37162 
L 848.954944 263.641078 
L 857.070233 255.397391 
L 857.898538 254.362937 
L 860.505775 251.9316 
L 861.809394 251.128217 
L 865.010774 249.592498 
L 866.57302 248.427615 
L 868.939106 247.198374 
L 870.98715 246.334353 
L 873.080629 245.122624 
L 874.800148 244.635259 
L 878.927691 243.425744 
L 879.989697 243.12515 
L 881.916606 242.274237 
L 886.690186 239.780337 
L 887.598259 239.563866 
L 888.484077 239.471838 
L 890.189266 239.623142 
L 891.807026 240.168986 
L 893.338907 241.052035 
L 895.533544 242.499128 
L 897.652173 243.620824 
L 900.363965 244.759303 
L 903.553421 245.868507 
L 907.577416 247.126727 
L 908.519475 247.674699 
L 909.693696 248.683718 
L 910.587524 249.85336 
L 911.44966 251.451066 
L 912.029823 252.970688 
L 913.249045 256.91811 
L 913.599911 258.09834 
L 913.615261 258.931767 
L 913.440108 259.574919 
L 912.97177 260.353768 
L 912.158074 261.118509 
L 910.68748 262.165823 
L 910.68748 262.165823 
" style="fill:none;stroke:#0000ff;stroke-linecap:square;stroke-width:1.5;"/>
   </g>
   <g id="line2d_59">
    <path clip-path="url(#pf6d51bad78)" d="M 813.948914 304.954545 
L 816.0793 302.255519 
L 816.768561 301.777453 
L 817.3583 301.259814 
L 817.39557 301.006199 
L 818.758519 300.102198 
L 820.575897 298.752493 
L 821.973879 297.411755 
L 822.812669 296.559515 
L 823.406811 295.70381 
L 825.608634 292.581705 
L 827.56581 290.445195 
L 830.012279 287.828573 
L 831.759758 285.644719 
L 833.19269 284.019379 
L 833.99653 283.231154 
L 836.058554 281.350879 
L 836.967243 280.113835 
L 837.945831 278.605166 
L 840.112704 275.015074 
L 840.881594 273.662317 
L 846.473525 266.37162 
L 848.954944 263.641078 
L 857.070233 255.397391 
L 857.898538 254.362937 
L 860.505775 251.9316 
L 861.809394 251.128217 
L 865.010774 249.592498 
L 866.57302 248.427615 
L 868.939106 247.198374 
L 870.98715 246.334353 
L 873.080629 245.122624 
L 874.800148 244.635259 
L 878.927691 243.425744 
L 880.954025 242.747476 
L 887.756189 239.831378 
L 901.638352 233.866892 
L 907.630288 231.536377 
L 914.408644 229.24472 
L 918.116765 228.176521 
L 924.176433 226.761312 
L 926.616402 226.400359 
L 929.73319 226.206345 
L 932.695333 226.224036 
L 934.804134 226.447563 
L 937.466229 226.986467 
L 939.350094 227.512816 
L 941.127321 228.206752 
L 943.334191 229.360169 
L 945.386611 230.406146 
L 947.832186 231.304747 
L 950.1552 231.91663 
L 954.032714 232.653223 
L 956.586884 232.820072 
L 958.924213 232.842846 
L 962.880267 232.836193 
L 962.880267 232.836193 
" style="fill:none;stroke:#daa520;stroke-linecap:square;stroke-width:1.5;"/>
   </g>
   <g id="line2d_60">
    <path clip-path="url(#pf6d51bad78)" d="M 813.948914 304.954545 
L 816.0793 302.255519 
L 816.768561 301.777453 
L 817.3583 301.259814 
L 817.39557 301.006199 
L 818.758519 300.102198 
L 820.575897 298.752493 
L 821.973879 297.411755 
L 822.812669 296.559515 
L 823.406811 295.70381 
L 825.608634 292.581705 
L 827.56581 290.445195 
L 830.012279 287.828573 
L 831.759758 285.644719 
L 833.19269 284.019379 
L 833.99653 283.231154 
L 836.058554 281.350879 
L 836.967243 280.113835 
L 837.945831 278.605166 
L 840.112704 275.015074 
L 840.881594 273.662317 
L 846.473525 266.37162 
L 848.954944 263.641078 
L 857.070233 255.397391 
L 857.898538 254.362937 
L 860.505775 251.9316 
L 861.809394 251.128217 
L 865.010774 249.592498 
L 866.57302 248.427615 
L 868.939106 247.198374 
L 870.98715 246.334353 
L 873.080629 245.122624 
L 874.800148 244.635259 
L 878.927691 243.425744 
L 880.963154 242.741194 
L 889.185766 239.395628 
L 892.106963 238.519791 
L 900.600798 236.247546 
L 905.848755 234.277902 
L 911.526591 231.882047 
L 934.997098 221.354331 
L 946.680835 216.620147 
L 952.722651 214.4542 
L 960.408969 211.940862 
L 965.021207 210.686106 
L 969.597 209.711119 
L 974.136837 208.922609 
L 977.124465 208.649951 
L 980.057978 208.77502 
L 982.937808 209.245013 
L 985.764781 210.024177 
L 988.539818 211.04408 
L 992.595701 212.563788 
L 997.795204 214.210017 
L 1001.543 215.156586 
L 1003.937814 215.572035 
L 1007.302031 215.835098 
L 1010.397235 215.825433 
L 1014.117909 215.596471 
L 1018.139374 215.051847 
L 1024.202802 213.927906 
L 1029.241733 212.821096 
L 1029.241733 212.821096 
" style="fill:none;stroke:#808080;stroke-linecap:square;stroke-width:1.5;"/>
   </g>
   <g id="line2d_61">
    <path clip-path="url(#pf6d51bad78)" d="M 813.948914 304.954545 
L 816.0793 302.255519 
L 816.768561 301.777453 
L 817.3583 301.259814 
L 817.39557 301.006199 
L 818.758519 300.102198 
L 820.575897 298.752493 
L 821.973879 297.411755 
L 822.812669 296.559515 
L 823.406811 295.70381 
L 825.608634 292.581705 
L 827.56581 290.445195 
L 830.012279 287.828573 
L 831.759758 285.644719 
L 833.19269 284.019379 
L 833.99653 283.231154 
L 836.058554 281.350879 
L 836.967243 280.113835 
L 837.945831 278.605166 
L 840.112704 275.015074 
L 840.881594 273.662317 
L 846.473525 266.37162 
L 848.954944 263.641078 
L 857.070233 255.397391 
L 857.898538 254.362937 
L 860.505775 251.9316 
L 861.809394 251.128217 
L 865.010774 249.592498 
L 866.57302 248.427615 
L 868.939106 247.198374 
L 870.98715 246.334353 
L 873.080629 245.122624 
L 874.800148 244.635259 
L 878.927691 243.425744 
L 879.989697 243.125266 
L 881.953191 242.203332 
L 883.989968 240.935968 
L 886.106654 239.42913 
L 889.51056 236.656626 
L 894.486958 232.148861 
L 910.410428 217.029098 
L 915.240779 212.368685 
L 920.273712 207.153257 
L 925.504153 201.400735 
L 932.747981 193.057832 
L 938.271704 186.383649 
L 943.851011 179.345513 
L 955.136393 164.833432 
L 964.590642 153.318062 
L 970.274239 146.636701 
L 974.055698 142.486205 
L 979.714801 136.703119 
L 987.237653 129.482805 
L 994.767076 122.575107 
L 1004.20666 114.314936 
L 1031.054539 91.002333 
L 1036.807475 86.568218 
L 1042.532032 82.505912 
L 1048.165776 78.755952 
L 1053.646539 75.344976 
L 1058.977145 72.269167 
L 1070.853622 65.940868 
L 1078.876896 61.808529 
L 1086.536261 57.884782 
L 1102.185167 49.409676 
L 1112.601675 43.226789 
L 1117.526209 40.045455 
L 1117.526209 40.045455 
" style="fill:none;stroke:#ff0000;stroke-linecap:square;stroke-width:1.5;"/>
   </g>
   <g id="patch_13">
    <path d="M 798.770049 318.2 
L 798.770049 26.8 
" style="fill:none;stroke:#000000;stroke-linecap:square;stroke-linejoin:miter;stroke-width:0.8;"/>
   </g>
   <g id="patch_14">
    <path d="M 1132.705074 318.2 
L 1132.705074 26.8 
" style="fill:none;stroke:#000000;stroke-linecap:square;stroke-linejoin:miter;stroke-width:0.8;"/>
   </g>
   <g id="patch_15">
    <path d="M 798.770049 318.2 
L 1132.705074 318.2 
" style="fill:none;stroke:#000000;stroke-linecap:square;stroke-linejoin:miter;stroke-width:0.8;"/>
   </g>
   <g id="patch_16">
    <path d="M 798.770049 26.8 
L 1132.705074 26.8 
" style="fill:none;stroke:#000000;stroke-linecap:square;stroke-linejoin:miter;stroke-width:0.8;"/>
   </g>
   <g id="text_48">
    <!-- N2O -->
    <defs>
     <path d="M 9.8125 72.90625 
L 23.09375 72.90625 
L 55.421875 11.921875 
L 55.421875 72.90625 
L 64.984375 72.90625 
L 64.984375 0 
L 51.703125 0 
L 19.390625 60.984375 
L 19.390625 0 
L 9.8125 0 
z
" id="DejaVuSans-78"/>
    </defs>
    <g transform="translate(952.708186 20.8)scale(0.12 -0.12)">
     <use xlink:href="#DejaVuSans-78"/>
     <use x="74.804688" xlink:href="#DejaVuSans-50"/>
     <use x="138.427734" xlink:href="#DejaVuSans-79"/>
    </g>
   </g>
  </g>
 </g>
 <defs>
  <clipPath id="pa6495e88e3">
   <rect height="291.4" width="333.935025" x="46.55" y="26.8"/>
  </clipPath>
  <clipPath id="p298cf3a771">
   <rect height="291.4" width="333.935025" x="422.660025" y="26.8"/>
  </clipPath>
  <clipPath id="pf6d51bad78">
   <rect height="291.4" width="333.935025" x="798.770049" y="26.8"/>
  </clipPath>
 </defs>
</svg>
